<svg xmlns="http://www.w3.org/2000/svg" xmlns:xlink="http://www.w3.org/1999/xlink" xmlns:lucid="lucid" width="1341.5" height="560"><g transform="translate(-140 -380)" lucid:page-tab-id="0_0"><path d="M0 0h1760v1360H0z" fill="#fff"/><path d="M293 604c-18.23 0-33-10.75-33-24 0-10.6 8.94-19.55 22.8-22.83C282 526 337 520 359 532c11-18 66-12 66 6 33-6 66 18 44 48 22 24 0 54-44 42-11 15.6-55 15.6-66 0-22 12-66 6-66-24z" stroke="#5e5e5e" stroke-width="3" fill="#fff"/><use xlink:href="#a" transform="matrix(1,0,0,1,265,525) translate(18.80129629629631 59.02777777777778)"/><use xlink:href="#b" transform="matrix(1,0,0,1,265,525) translate(84.97413580246914 59.02777777777778)"/><path d="M550 520c26.56 19.92 43.36 19.92 53.28 19.92 16 0 37.28-19.92 53.28-19.92 10.08 0 26.72 0 53.44 19.92V640c-26.72-20.04-43.36-20.04-53.44-20.04-16 0-37.28 20.04-53.28 20.04-9.92 0-26.72 0-53.28-20.04z" stroke="#5e5e5e" stroke-width="3" fill="#fff"/><use xlink:href="#c" transform="matrix(1,0,0,1,555,525) translate(29.999999999999993 45.27777777777778)"/><use xlink:href="#d" transform="matrix(1,0,0,1,555,525) translate(39.25925925925927 71.94444444444446)"/><path d="M530 686c0-3.3 2.7-6 6-6h188c3.3 0 6 2.7 6 6v68c0 3.3-2.7 6-6 6H536c-3.3 0-6-2.7-6-6z" stroke="#5e5e5e" stroke-width="3" fill="#fff"/><path d="M550 680v80m160-80v80" stroke="#5e5e5e" stroke-width="3" fill="none"/><use xlink:href="#e" transform="matrix(1,0,0,1,560,685) translate(31.141975308641975 26.111111111111114)"/><use xlink:href="#f" transform="matrix(1,0,0,1,560,685) translate(18.85802469135802 52.77777777777778)"/><path d="M475.27 580.2H530" stroke="#5e5e5e" stroke-width="2" fill="none"/><path d="M475.3 581.2h-1.56l.9-1.7.13-.3h.53z" fill="#5e5e5e"/><path d="M545.26 580.2L531 584.83v-9.27z" stroke="#5e5e5e" stroke-width="2" fill="#5e5e5e"/><path d="M630 632.44V660" stroke="#5e5e5e" stroke-width="2" fill="none"/><path d="M631 632.47h-2v-.52l2-1z" fill="#5e5e5e"/><path d="M630 675.26L625.36 661h9.28z" stroke="#5e5e5e" stroke-width="2" fill="#5e5e5e"/><path d="M820 496c0-3.3 2.7-6 6-6h188c3.3 0 6 2.7 6 6v68c0 3.3-2.7 6-6 6H826c-3.3 0-6-2.7-6-6z" stroke="#5e5e5e" stroke-width="3" fill="#fff"/><path d="M840 490v80m160-80v80" stroke="#5e5e5e" stroke-width="3" fill="none"/><use xlink:href="#g" transform="matrix(1,0,0,1,850,495.00035371770673) translate(15.185185185185176 26.111111111111114)"/><use xlink:href="#f" transform="matrix(1,0,0,1,850,495.00035371770673) translate(18.85802469135802 52.77777777777778)"/><path d="M1022.5 530h44" stroke="#5e5e5e" stroke-width="2" fill="none"/><path d="M1022.53 531h-1.03v-2h1.03z" fill="#5e5e5e"/><path d="M1081.76 530l-14.26 4.64v-9.27z" stroke="#5e5e5e" stroke-width="2" fill="#5e5e5e"/><path d="M630 762.5V780" stroke="#5e5e5e" stroke-width="2" fill="none"/><path d="M631 762.53h-2v-1.03h2z" fill="#5e5e5e"/><path d="M630 795.26L625.36 781h9.28z" stroke="#5e5e5e" stroke-width="2" fill="#5e5e5e"/><path d="M820 606c0-3.3 2.7-6 6-6h188c3.3 0 6 2.7 6 6v68c0 3.3-2.7 6-6 6H826c-3.3 0-6-2.7-6-6z" stroke="#5e5e5e" stroke-width="3" fill="#fff"/><path d="M840 600v80m160-80v80" stroke="#5e5e5e" stroke-width="3" fill="none"/><use xlink:href="#h" transform="matrix(1,0,0,1,850,605.0001768588534) translate(42.31481481481482 26.111111111111114)"/><use xlink:href="#i" transform="matrix(1,0,0,1,850,605.0001768588534) translate(18.85802469135802 52.77777777777778)"/><path d="M1325.5 550c-13.25 0-24-8.95-24-20 0-8.84 6.5-16.3 16.58-19.02C1317.5 485 1357.5 480 1373.5 490c8-15 48-10 48 5 24-5 48 15 32 40 16 20 0 45-32 35-8 13-40 13-48 0-16 10-48 5-48-20z" stroke="#5e5e5e" stroke-width="3" fill="#fff"/><use xlink:href="#j" transform="matrix(1,0,0,1,1306.5,485.0003537177108) translate(39.85067901234568 48.71527777777778)"/><path d="M1325.5 660c-13.25 0-24-8.95-24-20 0-8.84 6.5-16.3 16.58-19.02C1317.5 595 1357.5 590 1373.5 600c8-15 48-10 48 5 24-5 48 15 32 40 16 20 0 45-32 35-8 13-40 13-48 0-16 10-48 5-48-20z" stroke="#5e5e5e" stroke-width="3" fill="#fff"/><use xlink:href="#k" transform="matrix(1,0,0,1,1306.5,595) translate(32.690185185185186 48.71527777777778)"/><path d="M1022.5 640h44" stroke="#5e5e5e" stroke-width="2" fill="none"/><path d="M1022.53 641h-1.03v-2h1.03z" fill="#5e5e5e"/><path d="M1081.76 640l-14.26 4.64v-9.28z" stroke="#5e5e5e" stroke-width="2" fill="#5e5e5e"/><path d="M712.5 580H759c3.3 0 6 2.7 6 6v48c0 3.3 2.7 6 6 6h29" stroke="#5e5e5e" stroke-width="2" fill="none"/><path d="M712.53 581h-1.03v-2h1.03z" fill="#5e5e5e"/><path d="M815.26 640L801 644.64v-9.28z" stroke="#5e5e5e" stroke-width="2" fill="#5e5e5e"/><path d="M712.5 580H759c3.3 0 6-2.7 6-6v-38c0-3.3 2.7-6 6-6h29" stroke="#5e5e5e" stroke-width="2" fill="none"/><path d="M712.53 581h-1.03v-2h1.03z" fill="#5e5e5e"/><path d="M815.26 530L801 534.64v-9.27z" stroke="#5e5e5e" stroke-width="2" fill="#5e5e5e"/><path d="M920 826c0-3.3 2.7-6 6-6h188c3.3 0 6 2.7 6 6v68c0 3.3-2.7 6-6 6H926c-3.3 0-6-2.7-6-6z" stroke="#5e5e5e" stroke-width="3" fill="#fff"/><path d="M940 820v80m160-80v80" stroke="#5e5e5e" stroke-width="3" fill="none"/><use xlink:href="#l" transform="matrix(1,0,0,1,950,825.0000000000001) translate(1.5432098765432158 26.111111111111114)"/><use xlink:href="#m" transform="matrix(1,0,0,1,950,825.0000000000001) translate(68.14814814814814 26.111111111111114)"/><use xlink:href="#n" transform="matrix(1,0,0,1,950,825.0000000000001) translate(36.04938271604939 52.77777777777778)"/><path d="M1325.5 880c-13.25 0-24-8.95-24-20 0-8.84 6.5-16.3 16.58-19.02C1317.5 815 1357.5 810 1373.5 820c8-15 48-10 48 5 24-5 48 15 32 40 16 20 0 45-32 35-8 13-40 13-48 0-16 10-48 5-48-20z" stroke="#5e5e5e" stroke-width="3" fill="#fff"/><use xlink:href="#o" transform="matrix(1,0,0,1,1306.5,815.0000000000001) translate(42.28395061728395 22.77777777777778)"/><use xlink:href="#p" transform="matrix(1,0,0,1,1306.5,815.0000000000001) translate(23.30246913580247 49.44444444444444)"/><use xlink:href="#q" transform="matrix(1,0,0,1,1306.5,815.0000000000001) translate(29.969135802469125 76.11111111111111)"/><path d="M690 908c0 6.63-26.86 12-60 12s-60-5.37-60-12v-96c0-6.63 26.86-12 60-12s60 5.37 60 12z" stroke="#5e5e5e" stroke-width="3" fill="#fff"/><path d="M690 812c0 6.63-26.86 12-60 12s-60-5.37-60-12" stroke="#5e5e5e" stroke-width="3" fill="none"/><use xlink:href="#r" transform="matrix(1,0,0,1,575,829) translate(22.28395061728395 33.90277777777778)"/><use xlink:href="#s" transform="matrix(1,0,0,1,575,829) translate(30.95679012345679 60.56944444444445)"/><path d="M1086.5 496c0-3.3 2.7-6 6-6h148c3.3 0 6 2.7 6 6v68c0 3.3-2.7 6-6 6h-148c-3.3 0-6-2.7-6-6z" stroke="#5e5e5e" stroke-width="3" fill="#fff"/><use xlink:href="#g" transform="matrix(1,0,0,1,1098.5,502.00035371770673) translate(13.185185185185176 17.77777777777778)"/><use xlink:href="#t" transform="matrix(1,0,0,1,1098.5,502.00035371770673) translate(50.098765432098766 44.44444444444444)"/><path d="M1249 530h32.5" stroke="#5e5e5e" stroke-width="2" fill="none"/><path d="M1249.03 531H1248v-2h1.03z" fill="#5e5e5e"/><path d="M1296.76 530l-14.26 4.64v-9.27z" stroke="#5e5e5e" stroke-width="2" fill="#5e5e5e"/><path d="M1086.5 606c0-3.3 2.7-6 6-6h148c3.3 0 6 2.7 6 6v68c0 3.3-2.7 6-6 6h-148c-3.3 0-6-2.7-6-6z" stroke="#5e5e5e" stroke-width="3" fill="#fff"/><use xlink:href="#u" transform="matrix(1,0,0,1,1098.5,612.0001768588554) translate(19.327160493827165 31.77777777777778)"/><use xlink:href="#t" transform="matrix(1,0,0,1,1098.5,612.0001768588554) translate(80.87037037037038 31.77777777777778)"/><path d="M1249 640h32.5" stroke="#5e5e5e" stroke-width="2" fill="none"/><path d="M1249.03 641H1248v-2h1.03z" fill="#5e5e5e"/><path d="M1296.76 640l-14.26 4.64v-9.28z" stroke="#5e5e5e" stroke-width="2" fill="#5e5e5e"/><path d="M160 466c0-3.3 2.7-6 6-6h308c3.3 0 6 2.7 6 6v28c0 3.3-2.7 6-6 6H166c-3.3 0-6-2.7-6-6z" stroke="#000" stroke-opacity="0" stroke-width="3" fill="#ffeca9"/><use xlink:href="#v" transform="matrix(1,0,0,1,165,465) translate(25.27160493827168 17.97222222222222)"/><path d="M340 839.67c0-3.32 2.7-6 6-6h198c3.3 0 6 2.68 6 6v40.66c0 3.32-2.7 6-6 6H346c-3.3 0-6-2.68-6-6z" stroke="#000" stroke-opacity="0" stroke-width="3" fill="#ffeca9"/><use xlink:href="#w" transform="matrix(1,0,0,1,345,838.6666666666667) translate(19.003786008230577 13.819259259259239)"/><use xlink:href="#x" transform="matrix(1,0,0,1,345,838.6666666666667) translate(65.02000000000005 13.819259259259239)"/><use xlink:href="#y" transform="matrix(1,0,0,1,345,838.6666666666667) translate(104.27053497942387 13.819259259259239)"/><use xlink:href="#z" transform="matrix(1,0,0,1,345,838.6666666666667) translate(166.6011522633744 13.819259259259239)"/><use xlink:href="#A" transform="matrix(1,0,0,1,345,838.6666666666667) translate(39.1328806584363 34.548148148148094)"/><use xlink:href="#B" transform="matrix(1,0,0,1,345,838.6666666666667) translate(94.79378600823046 34.548148148148094)"/><use xlink:href="#C" transform="matrix(1,0,0,1,345,838.6666666666667) translate(114.89888888888888 34.548148148148094)"/><path d="M1086.5 406c0-3.3 2.7-6 6-6h148c3.3 0 6 2.7 6 6v40.67c0 3.3-2.7 6-6 6h-148c-3.3 0-6-2.7-6-6z" stroke="#000" stroke-opacity="0" stroke-width="3" fill="#ffeca9"/><g><use xlink:href="#D" transform="matrix(1,0,0,1,1091.5,405) translate(26.10477366255151 24.56925925925924)"/><use xlink:href="#E" transform="matrix(1,0,0,1,1091.5,405) translate(87.42773662551438 24.56925925925924)"/></g><path d="M820 406c0-3.3 2.7-6 6-6h188c3.3 0 6 2.7 6 6v40.67c0 3.3-2.7 6-6 6H826c-3.3 0-6-2.7-6-6z" stroke="#000" stroke-opacity="0" stroke-width="3" fill="#ffeca9"/><g><use xlink:href="#F" transform="matrix(1,0,0,1,825,405) translate(50.927119341563845 24.56925925925924)"/></g><path d="M900 860H710" stroke="#5e5e5e" stroke-width="2" fill="none"/><path d="M915.26 860L901 864.64v-9.28zM694.74 860l14.26-4.64v9.28z" stroke="#5e5e5e" stroke-width="2" fill="#5e5e5e"/><path d="M1122.5 860h159" stroke="#5e5e5e" stroke-width="2" fill="none"/><path d="M1122.53 861h-1.03v-2h1.03z" fill="#5e5e5e"/><path d="M1296.76 860l-14.26 4.64v-9.28z" stroke="#5e5e5e" stroke-width="2" fill="#5e5e5e"/><path d="M1301.5 406c0-3.3 2.7-6 6-6h148c3.3 0 6 2.7 6 6v40.67c0 3.3-2.7 6-6 6h-148c-3.3 0-6-2.7-6-6z" stroke="#000" stroke-opacity="0" stroke-width="3" fill="#ffeca9"/><g><use xlink:href="#G" transform="matrix(1,0,0,1,1306.5,405) translate(6.959341563786111 24.56925925925924)"/><use xlink:href="#H" transform="matrix(1,0,0,1,1306.5,405) translate(36.66115226337455 24.56925925925924)"/><use xlink:href="#I" transform="matrix(1,0,0,1,1306.5,405) translate(79.798353909465 24.56925925925924)"/></g><defs><path fill="#333" d="M30-248c87 1 191-15 191 75 0 78-77 80-158 76V0H30v-248zm33 125c57 0 124 11 124-50 0-59-68-47-124-48v98" id="J"/><path fill="#333" d="M140-251c81 0 123 46 123 126C263-46 219 4 140 4 59 4 17-45 17-125s42-126 123-126zm0 227c63 0 89-41 89-101s-29-99-89-99c-61 0-89 39-89 99S79-25 140-24" id="K"/><path fill="#333" d="M185-189c-5-48-123-54-124 2 14 75 158 14 163 119 3 78-121 87-175 55-17-10-28-26-33-46l33-7c5 56 141 63 141-1 0-78-155-14-162-118-5-82 145-84 179-34 5 7 8 16 11 25" id="L"/><path fill="#333" d="M127-220V0H93v-220H8v-28h204v28h-85" id="M"/><g id="a"><use transform="matrix(0.06172839506172839,0,0,0.06172839506172839,0,0)" xlink:href="#J"/><use transform="matrix(0.06172839506172839,0,0,0.06172839506172839,14.814814814814813,0)" xlink:href="#K"/><use transform="matrix(0.06172839506172839,0,0,0.06172839506172839,32.09876543209876,0)" xlink:href="#L"/><use transform="matrix(0.06172839506172839,0,0,0.06172839506172839,46.91358024691357,0)" xlink:href="#M"/></g><path fill="#333" d="M0 4l72-265h28L28 4H0" id="N"/><path fill="#333" d="M108 0H70L1-190h34L89-25l56-165h34" id="O"/><path fill="#333" d="M101-251c68 0 85 55 85 127S166 4 100 4C33 4 14-52 14-124c0-73 17-127 87-127zm-1 229c47 0 54-49 54-102s-4-102-53-102c-51 0-55 48-55 102 0 53 5 102 54 102" id="P"/><path fill="#333" d="M100-194c63 0 86 42 84 106H49c0 40 14 67 53 68 26 1 43-12 49-29l28 8c-11 28-37 45-77 45C44 4 14-33 15-96c1-61 26-98 85-98zm52 81c6-60-76-77-97-28-3 7-6 17-6 28h103" id="Q"/><path fill="#333" d="M117-194c89-4 53 116 60 194h-32v-121c0-31-8-49-39-48C34-167 62-67 57 0H25l-1-190h30c1 10-1 24 2 32 11-22 29-35 61-36" id="R"/><path fill="#333" d="M59-47c-2 24 18 29 38 22v24C64 9 27 4 27-40v-127H5v-23h24l9-43h21v43h35v23H59v120" id="S"/><path fill="#333" d="M135-143c-3-34-86-38-87 0 15 53 115 12 119 90S17 21 10-45l28-5c4 36 97 45 98 0-10-56-113-15-118-90-4-57 82-63 122-42 12 7 21 19 24 35" id="T"/><g id="b"><use transform="matrix(0.06172839506172839,0,0,0.06172839506172839,0,0)" xlink:href="#N"/><use transform="matrix(0.06172839506172839,0,0,0.06172839506172839,6.172839506172839,0)" xlink:href="#O"/><use transform="matrix(0.06172839506172839,0,0,0.06172839506172839,17.28395061728395,0)" xlink:href="#P"/><use transform="matrix(0.06172839506172839,0,0,0.06172839506172839,29.629629629629626,0)" xlink:href="#N"/><use transform="matrix(0.06172839506172839,0,0,0.06172839506172839,35.80246913580247,0)" xlink:href="#Q"/><use transform="matrix(0.06172839506172839,0,0,0.06172839506172839,48.148148148148145,0)" xlink:href="#O"/><use transform="matrix(0.06172839506172839,0,0,0.06172839506172839,59.25925925925925,0)" xlink:href="#Q"/><use transform="matrix(0.06172839506172839,0,0,0.06172839506172839,71.60493827160494,0)" xlink:href="#R"/><use transform="matrix(0.06172839506172839,0,0,0.06172839506172839,83.95061728395062,0)" xlink:href="#S"/><use transform="matrix(0.06172839506172839,0,0,0.06172839506172839,90.12345679012346,0)" xlink:href="#T"/></g><path fill="#333" d="M33 0v-248h34V0H33" id="U"/><path fill="#333" d="M96-169c-40 0-48 33-48 73s9 75 48 75c24 0 41-14 43-38l32 2c-6 37-31 61-74 61-59 0-76-41-82-99-10-93 101-131 147-64 4 7 5 14 7 22l-32 3c-4-21-16-35-41-35" id="V"/><path fill="#333" d="M100-194c62-1 85 37 85 99 1 63-27 99-86 99S16-35 15-95c0-66 28-99 85-99zM99-20c44 1 53-31 53-75 0-43-8-75-51-75s-53 32-53 75 10 74 51 75" id="W"/><path fill="#333" d="M210-169c-67 3-38 105-44 169h-31v-121c0-29-5-50-35-48C34-165 62-65 56 0H25l-1-190h30c1 10-1 24 2 32 10-44 99-50 107 0 11-21 27-35 58-36 85-2 47 119 55 194h-31v-121c0-29-5-49-35-48" id="X"/><path fill="#333" d="M24-231v-30h32v30H24zM24 0v-190h32V0H24" id="Y"/><path fill="#333" d="M177-190C167-65 218 103 67 71c-23-6-38-20-44-43l32-5c15 47 100 32 89-28v-30C133-14 115 1 83 1 29 1 15-40 15-95c0-56 16-97 71-98 29-1 48 16 59 35 1-10 0-23 2-32h30zM94-22c36 0 50-32 50-73 0-42-14-75-50-75-39 0-46 34-46 75s6 73 46 73" id="Z"/><g id="c"><use transform="matrix(0.06172839506172839,0,0,0.06172839506172839,0,0)" xlink:href="#U"/><use transform="matrix(0.06172839506172839,0,0,0.06172839506172839,6.172839506172839,0)" xlink:href="#R"/><use transform="matrix(0.06172839506172839,0,0,0.06172839506172839,18.51851851851852,0)" xlink:href="#V"/><use transform="matrix(0.06172839506172839,0,0,0.06172839506172839,29.62962962962963,0)" xlink:href="#W"/><use transform="matrix(0.06172839506172839,0,0,0.06172839506172839,41.97530864197531,0)" xlink:href="#X"/><use transform="matrix(0.06172839506172839,0,0,0.06172839506172839,60.4320987654321,0)" xlink:href="#Y"/><use transform="matrix(0.06172839506172839,0,0,0.06172839506172839,65.30864197530865,0)" xlink:href="#R"/><use transform="matrix(0.06172839506172839,0,0,0.06172839506172839,77.65432098765433,0)" xlink:href="#Z"/></g><path fill="#333" d="M114-163C36-179 61-72 57 0H25l-1-190h30c1 12-1 29 2 39 6-27 23-49 58-41v29" id="aa"/><path fill="#333" d="M141-36C126-15 110 5 73 4 37 3 15-17 15-53c-1-64 63-63 125-63 3-35-9-54-41-54-24 1-41 7-42 31l-33-3c5-37 33-52 76-52 45 0 72 20 72 64v82c-1 20 7 32 28 27v20c-31 9-61-2-59-35zM48-53c0 20 12 33 32 33 41-3 63-29 60-74-43 2-92-5-92 41" id="ab"/><g id="d"><use transform="matrix(0.06172839506172839,0,0,0.06172839506172839,0,0)" xlink:href="#L"/><use transform="matrix(0.06172839506172839,0,0,0.06172839506172839,14.814814814814813,0)" xlink:href="#S"/><use transform="matrix(0.06172839506172839,0,0,0.06172839506172839,20.98765432098765,0)" xlink:href="#aa"/><use transform="matrix(0.06172839506172839,0,0,0.06172839506172839,28.33333333333333,0)" xlink:href="#Q"/><use transform="matrix(0.06172839506172839,0,0,0.06172839506172839,40.679012345679006,0)" xlink:href="#ab"/><use transform="matrix(0.06172839506172839,0,0,0.06172839506172839,53.02469135802468,0)" xlink:href="#X"/></g><g id="e"><use transform="matrix(0.06172839506172839,0,0,0.06172839506172839,0,0)" xlink:href="#L"/><use transform="matrix(0.06172839506172839,0,0,0.06172839506172839,14.814814814814813,0)" xlink:href="#S"/><use transform="matrix(0.06172839506172839,0,0,0.06172839506172839,20.98765432098765,0)" xlink:href="#W"/><use transform="matrix(0.06172839506172839,0,0,0.06172839506172839,33.33333333333333,0)" xlink:href="#aa"/><use transform="matrix(0.06172839506172839,0,0,0.06172839506172839,40.679012345679006,0)" xlink:href="#ab"/><use transform="matrix(0.06172839506172839,0,0,0.06172839506172839,53.02469135802468,0)" xlink:href="#Z"/><use transform="matrix(0.06172839506172839,0,0,0.06172839506172839,65.37037037037037,0)" xlink:href="#Q"/></g><path fill="#333" d="M212-179c-10-28-35-45-73-45-59 0-87 40-87 99 0 60 29 101 89 101 43 0 62-24 78-52l27 14C228-24 195 4 139 4 59 4 22-46 18-125c-6-104 99-153 187-111 19 9 31 26 39 46" id="ac"/><path fill="#333" d="M84 4C-5 8 30-112 23-190h32v120c0 31 7 50 39 49 72-2 45-101 50-169h31l1 190h-30c-1-10 1-25-2-33-11 22-28 36-60 37" id="ad"/><g id="f"><use transform="matrix(0.06172839506172839,0,0,0.06172839506172839,0,0)" xlink:href="#ac"/><use transform="matrix(0.06172839506172839,0,0,0.06172839506172839,15.987654320987653,0)" xlink:href="#W"/><use transform="matrix(0.06172839506172839,0,0,0.06172839506172839,28.333333333333332,0)" xlink:href="#R"/><use transform="matrix(0.06172839506172839,0,0,0.06172839506172839,40.67901234567901,0)" xlink:href="#T"/><use transform="matrix(0.06172839506172839,0,0,0.06172839506172839,51.79012345679013,0)" xlink:href="#ad"/><use transform="matrix(0.06172839506172839,0,0,0.06172839506172839,64.13580246913581,0)" xlink:href="#X"/><use transform="matrix(0.06172839506172839,0,0,0.06172839506172839,82.5925925925926,0)" xlink:href="#Q"/><use transform="matrix(0.06172839506172839,0,0,0.06172839506172839,94.93827160493828,0)" xlink:href="#aa"/></g><path fill="#333" d="M190 0L58-211 59 0H30v-248h39L202-35l-2-213h31V0h-41" id="ae"/><path fill="#333" d="M101-234c-31-9-42 10-38 44h38v23H63V0H32v-167H5v-23h27c-7-52 17-82 69-68v24" id="af"/><g id="g"><use transform="matrix(0.06172839506172839,0,0,0.06172839506172839,0,0)" xlink:href="#ae"/><use transform="matrix(0.06172839506172839,0,0,0.06172839506172839,15.987654320987653,0)" xlink:href="#W"/><use transform="matrix(0.06172839506172839,0,0,0.06172839506172839,28.333333333333332,0)" xlink:href="#S"/><use transform="matrix(0.06172839506172839,0,0,0.06172839506172839,34.50617283950617,0)" xlink:href="#Y"/><use transform="matrix(0.06172839506172839,0,0,0.06172839506172839,39.382716049382715,0)" xlink:href="#af"/><use transform="matrix(0.06172839506172839,0,0,0.06172839506172839,45.55555555555556,0)" xlink:href="#Y"/><use transform="matrix(0.06172839506172839,0,0,0.06172839506172839,50.4320987654321,0)" xlink:href="#V"/><use transform="matrix(0.06172839506172839,0,0,0.06172839506172839,61.543209876543216,0)" xlink:href="#ab"/><use transform="matrix(0.06172839506172839,0,0,0.06172839506172839,73.8888888888889,0)" xlink:href="#S"/><use transform="matrix(0.06172839506172839,0,0,0.06172839506172839,80.06172839506173,0)" xlink:href="#Y"/><use transform="matrix(0.06172839506172839,0,0,0.06172839506172839,84.93827160493828,0)" xlink:href="#W"/><use transform="matrix(0.06172839506172839,0,0,0.06172839506172839,97.28395061728396,0)" xlink:href="#R"/></g><path fill="#333" d="M30 0v-248h187v28H63v79h144v27H63v87h162V0H30" id="ag"/><path fill="#333" d="M24 0v-261h32V0H24" id="ah"/><g id="h"><use transform="matrix(0.06172839506172839,0,0,0.06172839506172839,0,0)" xlink:href="#ag"/><use transform="matrix(0.06172839506172839,0,0,0.06172839506172839,14.814814814814813,0)" xlink:href="#X"/><use transform="matrix(0.06172839506172839,0,0,0.06172839506172839,33.2716049382716,0)" xlink:href="#ab"/><use transform="matrix(0.06172839506172839,0,0,0.06172839506172839,45.61728395061728,0)" xlink:href="#Y"/><use transform="matrix(0.06172839506172839,0,0,0.06172839506172839,50.49382716049382,0)" xlink:href="#ah"/></g><g id="i"><use transform="matrix(0.06172839506172839,0,0,0.06172839506172839,0,0)" xlink:href="#ac"/><use transform="matrix(0.06172839506172839,0,0,0.06172839506172839,15.987654320987653,0)" xlink:href="#W"/><use transform="matrix(0.06172839506172839,0,0,0.06172839506172839,28.333333333333332,0)" xlink:href="#R"/><use transform="matrix(0.06172839506172839,0,0,0.06172839506172839,40.67901234567901,0)" xlink:href="#T"/><use transform="matrix(0.06172839506172839,0,0,0.06172839506172839,51.79012345679013,0)" xlink:href="#ad"/><use transform="matrix(0.06172839506172839,0,0,0.06172839506172839,64.13580246913581,0)" xlink:href="#X"/><use transform="matrix(0.06172839506172839,0,0,0.06172839506172839,82.5925925925926,0)" xlink:href="#Q"/><use transform="matrix(0.06172839506172839,0,0,0.06172839506172839,94.93827160493828,0)" xlink:href="#aa"/></g><path fill="#333" d="M137 0h-34L2-248h35l83 218 83-218h36" id="ai"/><path fill="#333" d="M141 0L90-78 38 0H4l68-98-65-92h35l48 74 47-74h35l-64 92 68 98h-35" id="aj"/><g id="j"><use transform="matrix(0.06172839506172839,0,0,0.06172839506172839,0,0)" xlink:href="#ai"/><use transform="matrix(0.06172839506172839,0,0,0.06172839506172839,14.814814814814813,0)" xlink:href="#ag"/><use transform="matrix(0.06172839506172839,0,0,0.06172839506172839,29.629629629629626,0)" xlink:href="#M"/><use transform="matrix(0.06172839506172839,0,0,0.06172839506172839,40.679012345679006,0)" xlink:href="#Q"/><use transform="matrix(0.06172839506172839,0,0,0.06172839506172839,53.02469135802468,0)" xlink:href="#aj"/><use transform="matrix(0.06172839506172839,0,0,0.06172839506172839,64.1358024691358,0)" xlink:href="#S"/></g><path fill="#333" d="M205 0l-28-72H64L36 0H1l101-248h38L239 0h-34zm-38-99l-47-123c-12 45-31 82-46 123h93" id="ak"/><path fill="#333" d="M179-190L93 31C79 59 56 82 12 73V49c39 6 53-20 64-50L1-190h34L92-34l54-156h33" id="al"/><g id="k"><use transform="matrix(0.06172839506172839,0,0,0.06172839506172839,0,0)" xlink:href="#ai"/><use transform="matrix(0.06172839506172839,0,0,0.06172839506172839,13.148148148148147,0)" xlink:href="#ak"/><use transform="matrix(0.06172839506172839,0,0,0.06172839506172839,27.962962962962962,0)" xlink:href="#ae"/><use transform="matrix(0.06172839506172839,0,0,0.06172839506172839,43.95061728395061,0)" xlink:href="#W"/><use transform="matrix(0.06172839506172839,0,0,0.06172839506172839,56.29629629629629,0)" xlink:href="#S"/><use transform="matrix(0.06172839506172839,0,0,0.06172839506172839,62.46913580246913,0)" xlink:href="#Y"/><use transform="matrix(0.06172839506172839,0,0,0.06172839506172839,67.34567901234567,0)" xlink:href="#af"/><use transform="matrix(0.06172839506172839,0,0,0.06172839506172839,73.5185185185185,0)" xlink:href="#al"/></g><path fill="#333" d="M140-251c81 0 123 46 123 126C263-53 228-8 163 1c7 30 30 48 69 40v23c-55 16-95-15-103-61C56-3 17-48 17-125c0-80 42-126 123-126zm0 227c63 0 89-41 89-101s-29-99-89-99c-61 0-89 39-89 99S79-25 140-24" id="am"/><g id="l"><use transform="matrix(0.06172839506172839,0,0,0.06172839506172839,0,0)" xlink:href="#am"/><use transform="matrix(0.06172839506172839,0,0,0.06172839506172839,17.28395061728395,0)" xlink:href="#ad"/><use transform="matrix(0.06172839506172839,0,0,0.06172839506172839,29.629629629629626,0)" xlink:href="#Q"/><use transform="matrix(0.06172839506172839,0,0,0.06172839506172839,41.9753086419753,0)" xlink:href="#aa"/><use transform="matrix(0.06172839506172839,0,0,0.06172839506172839,49.32098765432098,0)" xlink:href="#al"/></g><path fill="#333" d="M233-177c-1 41-23 64-60 70L243 0h-38l-65-103H63V0H30v-248c88 3 205-21 203 71zM63-129c60-2 137 13 137-47 0-61-80-42-137-45v92" id="an"/><g id="m"><use transform="matrix(0.06172839506172839,0,0,0.06172839506172839,0,0)" xlink:href="#an"/><use transform="matrix(0.06172839506172839,0,0,0.06172839506172839,15.987654320987653,0)" xlink:href="#Q"/><use transform="matrix(0.06172839506172839,0,0,0.06172839506172839,28.333333333333332,0)" xlink:href="#V"/><use transform="matrix(0.06172839506172839,0,0,0.06172839506172839,39.44444444444444,0)" xlink:href="#Q"/><use transform="matrix(0.06172839506172839,0,0,0.06172839506172839,51.79012345679012,0)" xlink:href="#R"/><use transform="matrix(0.06172839506172839,0,0,0.06172839506172839,64.1358024691358,0)" xlink:href="#S"/></g><g id="n"><use transform="matrix(0.06172839506172839,0,0,0.06172839506172839,0,0)" xlink:href="#ag"/><use transform="matrix(0.06172839506172839,0,0,0.06172839506172839,14.814814814814813,0)" xlink:href="#O"/><use transform="matrix(0.06172839506172839,0,0,0.06172839506172839,25.925925925925924,0)" xlink:href="#Q"/><use transform="matrix(0.06172839506172839,0,0,0.06172839506172839,38.2716049382716,0)" xlink:href="#R"/><use transform="matrix(0.06172839506172839,0,0,0.06172839506172839,50.61728395061728,0)" xlink:href="#S"/><use transform="matrix(0.06172839506172839,0,0,0.06172839506172839,56.79012345679012,0)" xlink:href="#T"/></g><path fill="#333" d="M33 0v-38h34V0H33" id="ao"/><g id="o"><use transform="matrix(0.06172839506172839,0,0,0.06172839506172839,0,0)" xlink:href="#O"/><use transform="matrix(0.06172839506172839,0,0,0.06172839506172839,11.11111111111111,0)" xlink:href="#ab"/><use transform="matrix(0.06172839506172839,0,0,0.06172839506172839,23.45679012345679,0)" xlink:href="#ao"/><use transform="matrix(0.06172839506172839,0,0,0.06172839506172839,29.62962962962963,0)" xlink:href="#Z"/><use transform="matrix(0.06172839506172839,0,0,0.06172839506172839,41.97530864197531,0)" xlink:href="#W"/><use transform="matrix(0.06172839506172839,0,0,0.06172839506172839,54.32098765432099,0)" xlink:href="#O"/></g><path fill="#333" d="M16-82v-28h88v28H16" id="ap"/><path fill="#333" d="M115-194c53 0 69 39 70 98 0 66-23 100-70 100C84 3 66-7 56-30L54 0H23l1-261h32v101c10-23 28-34 59-34zm-8 174c40 0 45-34 45-75 0-40-5-75-45-74-42 0-51 32-51 76 0 43 10 73 51 73" id="aq"/><path fill="#333" d="M206 0h-36l-40-164L89 0H53L-1-190h32L70-26l43-164h34l41 164 42-164h31" id="ar"/><g id="p"><use transform="matrix(0.06172839506172839,0,0,0.06172839506172839,0,0)" xlink:href="#Y"/><use transform="matrix(0.06172839506172839,0,0,0.06172839506172839,4.876543209876543,0)" xlink:href="#R"/><use transform="matrix(0.06172839506172839,0,0,0.06172839506172839,17.22222222222222,0)" xlink:href="#ap"/><use transform="matrix(0.06172839506172839,0,0,0.06172839506172839,24.5679012345679,0)" xlink:href="#aq"/><use transform="matrix(0.06172839506172839,0,0,0.06172839506172839,36.913580246913575,0)" xlink:href="#aa"/><use transform="matrix(0.06172839506172839,0,0,0.06172839506172839,44.25925925925925,0)" xlink:href="#W"/><use transform="matrix(0.06172839506172839,0,0,0.06172839506172839,56.60493827160493,0)" xlink:href="#ar"/><use transform="matrix(0.06172839506172839,0,0,0.06172839506172839,72.59259259259258,0)" xlink:href="#T"/><use transform="matrix(0.06172839506172839,0,0,0.06172839506172839,83.7037037037037,0)" xlink:href="#Q"/><use transform="matrix(0.06172839506172839,0,0,0.06172839506172839,96.04938271604938,0)" xlink:href="#aa"/></g><g id="q"><use transform="matrix(0.06172839506172839,0,0,0.06172839506172839,0,0)" xlink:href="#X"/><use transform="matrix(0.06172839506172839,0,0,0.06172839506172839,18.456790123456788,0)" xlink:href="#Q"/><use transform="matrix(0.06172839506172839,0,0,0.06172839506172839,30.80246913580247,0)" xlink:href="#T"/><use transform="matrix(0.06172839506172839,0,0,0.06172839506172839,41.91358024691358,0)" xlink:href="#T"/><use transform="matrix(0.06172839506172839,0,0,0.06172839506172839,53.0246913580247,0)" xlink:href="#ab"/><use transform="matrix(0.06172839506172839,0,0,0.06172839506172839,65.37037037037038,0)" xlink:href="#Z"/><use transform="matrix(0.06172839506172839,0,0,0.06172839506172839,77.71604938271606,0)" xlink:href="#Q"/></g><g id="r"><use transform="matrix(0.06172839506172839,0,0,0.06172839506172839,0,0)" xlink:href="#Q"/><use transform="matrix(0.06172839506172839,0,0,0.06172839506172839,12.345679012345679,0)" xlink:href="#O"/><use transform="matrix(0.06172839506172839,0,0,0.06172839506172839,23.45679012345679,0)" xlink:href="#Q"/><use transform="matrix(0.06172839506172839,0,0,0.06172839506172839,35.80246913580247,0)" xlink:href="#R"/><use transform="matrix(0.06172839506172839,0,0,0.06172839506172839,48.148148148148145,0)" xlink:href="#S"/><use transform="matrix(0.06172839506172839,0,0,0.06172839506172839,54.32098765432099,0)" xlink:href="#T"/></g><g id="s"><use transform="matrix(0.06172839506172839,0,0,0.06172839506172839,0,0)" xlink:href="#S"/><use transform="matrix(0.06172839506172839,0,0,0.06172839506172839,6.172839506172839,0)" xlink:href="#ab"/><use transform="matrix(0.06172839506172839,0,0,0.06172839506172839,18.51851851851852,0)" xlink:href="#aq"/><use transform="matrix(0.06172839506172839,0,0,0.06172839506172839,30.864197530864196,0)" xlink:href="#ah"/><use transform="matrix(0.06172839506172839,0,0,0.06172839506172839,35.74074074074074,0)" xlink:href="#Q"/></g><path fill="#333" d="M153-248C145-148 188 4 80 4 36 3 13-21 6-62l32-5c4 25 16 42 43 43 27 0 39-20 39-49v-147H72v-28h81" id="as"/><g id="t"><use transform="matrix(0.06172839506172839,0,0,0.06172839506172839,0,0)" xlink:href="#as"/><use transform="matrix(0.06172839506172839,0,0,0.06172839506172839,11.11111111111111,0)" xlink:href="#W"/><use transform="matrix(0.06172839506172839,0,0,0.06172839506172839,23.45679012345679,0)" xlink:href="#aq"/></g><g id="u"><use transform="matrix(0.06172839506172839,0,0,0.06172839506172839,0,0)" xlink:href="#ag"/><use transform="matrix(0.06172839506172839,0,0,0.06172839506172839,14.814814814814813,0)" xlink:href="#X"/><use transform="matrix(0.06172839506172839,0,0,0.06172839506172839,33.2716049382716,0)" xlink:href="#ab"/><use transform="matrix(0.06172839506172839,0,0,0.06172839506172839,45.61728395061728,0)" xlink:href="#Y"/><use transform="matrix(0.06172839506172839,0,0,0.06172839506172839,50.49382716049382,0)" xlink:href="#ah"/></g><path fill="#333" d="M115-194c55 1 70 41 70 98S169 2 115 4C84 4 66-9 55-30l1 105H24l-1-265h31l2 30c10-21 28-34 59-34zm-8 174c40 0 45-34 45-75s-6-73-45-74c-42 0-51 32-51 76 0 43 10 73 51 73" id="at"/><g id="v"><use transform="matrix(0.049382716049382706,0,0,0.049382716049382706,0,0)" xlink:href="#ab"/><use transform="matrix(0.049382716049382706,0,0,0.049382716049382706,9.87654320987654,0)" xlink:href="#at"/><use transform="matrix(0.049382716049382706,0,0,0.049382716049382706,19.75308641975308,0)" xlink:href="#Y"/><use transform="matrix(0.049382716049382706,0,0,0.049382716049382706,23.654320987654316,0)" xlink:href="#ao"/><use transform="matrix(0.049382716049382706,0,0,0.049382716049382706,28.592592592592588,0)" xlink:href="#O"/><use transform="matrix(0.049382716049382706,0,0,0.049382716049382706,37.481481481481474,0)" xlink:href="#ab"/><use transform="matrix(0.049382716049382706,0,0,0.049382716049382706,47.35802469135801,0)" xlink:href="#ao"/><use transform="matrix(0.049382716049382706,0,0,0.049382716049382706,52.29629629629628,0)" xlink:href="#Z"/><use transform="matrix(0.049382716049382706,0,0,0.049382716049382706,62.172839506172814,0)" xlink:href="#W"/><use transform="matrix(0.049382716049382706,0,0,0.049382716049382706,72.04938271604937,0)" xlink:href="#O"/><use transform="matrix(0.049382716049382706,0,0,0.049382716049382706,80.93827160493825,0)" xlink:href="#N"/><use transform="matrix(0.049382716049382706,0,0,0.049382716049382706,85.87654320987652,0)" xlink:href="#T"/><use transform="matrix(0.049382716049382706,0,0,0.049382716049382706,94.7654320987654,0)" xlink:href="#Q"/><use transform="matrix(0.049382716049382706,0,0,0.049382716049382706,104.64197530864196,0)" xlink:href="#aa"/><use transform="matrix(0.049382716049382706,0,0,0.049382716049382706,110.51851851851849,0)" xlink:href="#O"/><use transform="matrix(0.049382716049382706,0,0,0.049382716049382706,119.40740740740739,0)" xlink:href="#Y"/><use transform="matrix(0.049382716049382706,0,0,0.049382716049382706,123.30864197530859,0)" xlink:href="#V"/><use transform="matrix(0.049382716049382706,0,0,0.049382716049382706,132.1975308641975,0)" xlink:href="#Q"/><use transform="matrix(0.049382716049382706,0,0,0.049382716049382706,142.07407407407402,0)" xlink:href="#T"/><use transform="matrix(0.049382716049382706,0,0,0.049382716049382706,150.9629629629629,0)" xlink:href="#N"/><use transform="matrix(0.049382716049382706,0,0,0.049382716049382706,155.90123456790118,0)" xlink:href="#Q"/><use transform="matrix(0.049382716049382706,0,0,0.049382716049382706,165.77777777777771,0)" xlink:href="#O"/><use transform="matrix(0.049382716049382706,0,0,0.049382716049382706,174.6666666666666,0)" xlink:href="#Q"/><use transform="matrix(0.049382716049382706,0,0,0.049382716049382706,184.54320987654313,0)" xlink:href="#R"/><use transform="matrix(0.049382716049382706,0,0,0.049382716049382706,194.41975308641966,0)" xlink:href="#S"/><use transform="matrix(0.049382716049382706,0,0,0.049382716049382706,199.35802469135794,0)" xlink:href="#ap"/><use transform="matrix(0.049382716049382706,0,0,0.049382716049382706,205.23456790123447,0)" xlink:href="#T"/><use transform="matrix(0.049382716049382706,0,0,0.049382716049382706,214.12345679012336,0)" xlink:href="#S"/><use transform="matrix(0.049382716049382706,0,0,0.049382716049382706,219.06172839506164,0)" xlink:href="#aa"/><use transform="matrix(0.049382716049382706,0,0,0.049382716049382706,224.9382716049382,0)" xlink:href="#Q"/><use transform="matrix(0.049382716049382706,0,0,0.049382716049382706,234.81481481481467,0)" xlink:href="#ab"/><use transform="matrix(0.049382716049382706,0,0,0.049382716049382706,244.69135802469123,0)" xlink:href="#X"/></g><path d="M185-189c-5-48-123-54-124 2 14 75 158 14 163 119 3 78-121 87-175 55-17-10-28-26-33-46l33-7c5 56 141 63 141-1 0-78-155-14-162-118-5-82 145-84 179-34 5 7 8 16 11 25" id="au"/><path d="M106-169C34-169 62-67 57 0H25v-261h32l-1 103c12-21 28-36 61-36 89 0 53 116 60 194h-32v-121c2-32-8-49-39-48" id="av"/><path d="M100-194c62-1 85 37 85 99 1 63-27 99-86 99S16-35 15-95c0-66 28-99 85-99zM99-20c44 1 53-31 53-75 0-43-8-75-51-75s-53 32-53 75 10 74 51 75" id="aw"/><path d="M114-163C36-179 61-72 57 0H25l-1-190h30c1 12-1 29 2 39 6-27 23-49 58-41v29" id="ax"/><path d="M59-47c-2 24 18 29 38 22v24C64 9 27 4 27-40v-127H5v-23h24l9-43h21v43h35v23H59v120" id="ay"/><g id="w"><use transform="matrix(0.047983539094650134,0,0,0.047983539094650134,0,0)" xlink:href="#au"/><use transform="matrix(0.047983539094650134,0,0,0.047983539094650134,11.516049382716032,0)" xlink:href="#av"/><use transform="matrix(0.047983539094650134,0,0,0.047983539094650134,21.11275720164606,0)" xlink:href="#aw"/><use transform="matrix(0.047983539094650134,0,0,0.047983539094650134,30.709465020576086,0)" xlink:href="#ax"/><use transform="matrix(0.047983539094650134,0,0,0.047983539094650134,36.41950617283945,0)" xlink:href="#ay"/></g><path d="M100-194c63 0 86 42 84 106H49c0 40 14 67 53 68 26 1 43-12 49-29l28 8c-11 28-37 45-77 45C44 4 14-33 15-96c1-61 26-98 85-98zm52 81c6-60-76-77-97-28-3 7-6 17-6 28h103" id="az"/><path d="M210-169c-67 3-38 105-44 169h-31v-121c0-29-5-50-35-48C34-165 62-65 56 0H25l-1-190h30c1 10-1 24 2 32 10-44 99-50 107 0 11-21 27-35 58-36 85-2 47 119 55 194h-31v-121c0-29-5-49-35-48" id="aA"/><g id="x"><use transform="matrix(0.047983539094650134,0,0,0.047983539094650134,0,0)" xlink:href="#ay"/><use transform="matrix(0.047983539094650134,0,0,0.047983539094650134,4.798353909465013,0)" xlink:href="#az"/><use transform="matrix(0.047983539094650134,0,0,0.047983539094650134,14.395061728395037,0)" xlink:href="#ax"/><use transform="matrix(0.047983539094650134,0,0,0.047983539094650134,20.105102880658404,0)" xlink:href="#aA"/></g><path d="M135-143c-3-34-86-38-87 0 15 53 115 12 119 90S17 21 10-45l28-5c4 36 97 45 98 0-10-56-113-15-118-90-4-57 82-63 122-42 12 7 21 19 24 35" id="aB"/><path d="M141-36C126-15 110 5 73 4 37 3 15-17 15-53c-1-64 63-63 125-63 3-35-9-54-41-54-24 1-41 7-42 31l-33-3c5-37 33-52 76-52 45 0 72 20 72 64v82c-1 20 7 32 28 27v20c-31 9-61-2-59-35zM48-53c0 20 12 33 32 33 41-3 63-29 60-74-43 2-92-5-92 41" id="aC"/><path d="M177-190C167-65 218 103 67 71c-23-6-38-20-44-43l32-5c15 47 100 32 89-28v-30C133-14 115 1 83 1 29 1 15-40 15-95c0-56 16-97 71-98 29-1 48 16 59 35 1-10 0-23 2-32h30zM94-22c36 0 50-32 50-73 0-42-14-75-50-75-39 0-46 34-46 75s6 73 46 73" id="aD"/><g id="y"><use transform="matrix(0.047983539094650134,0,0,0.047983539094650134,0,0)" xlink:href="#aB"/><use transform="matrix(0.047983539094650134,0,0,0.047983539094650134,8.637037037037024,0)" xlink:href="#ay"/><use transform="matrix(0.047983539094650134,0,0,0.047983539094650134,13.435390946502034,0)" xlink:href="#aw"/><use transform="matrix(0.047983539094650134,0,0,0.047983539094650134,23.03209876543206,0)" xlink:href="#ax"/><use transform="matrix(0.047983539094650134,0,0,0.047983539094650134,28.742139917695425,0)" xlink:href="#aC"/><use transform="matrix(0.047983539094650134,0,0,0.047983539094650134,38.33884773662545,0)" xlink:href="#aD"/><use transform="matrix(0.047983539094650134,0,0,0.047983539094650134,47.93555555555548,0)" xlink:href="#az"/></g><path d="M101-234c-31-9-42 10-38 44h38v23H63V0H32v-167H5v-23h27c-7-52 17-82 69-68v24" id="aE"/><g id="z"><use transform="matrix(0.047983539094650134,0,0,0.047983539094650134,0,0)" xlink:href="#aw"/><use transform="matrix(0.047983539094650134,0,0,0.047983539094650134,9.596707818930026,0)" xlink:href="#aE"/></g><path d="M108 0H70L1-190h34L89-25l56-165h34" id="aF"/><path d="M117-194c89-4 53 116 60 194h-32v-121c0-31-8-49-39-48C34-167 62-67 57 0H25l-1-190h30c1 10-1 24 2 32 11-22 29-35 61-36" id="aG"/><g id="A"><use transform="matrix(0.047983539094650134,0,0,0.047983539094650134,0,0)" xlink:href="#az"/><use transform="matrix(0.047983539094650134,0,0,0.047983539094650134,9.596707818930026,0)" xlink:href="#aF"/><use transform="matrix(0.047983539094650134,0,0,0.047983539094650134,18.23374485596705,0)" xlink:href="#az"/><use transform="matrix(0.047983539094650134,0,0,0.047983539094650134,27.83045267489707,0)" xlink:href="#aG"/><use transform="matrix(0.047983539094650134,0,0,0.047983539094650134,37.4271604938271,0)" xlink:href="#ay"/><use transform="matrix(0.047983539094650134,0,0,0.047983539094650134,42.22551440329212,0)" xlink:href="#aB"/></g><path d="M87 75C49 33 22-17 22-94c0-76 28-126 65-167h31c-38 41-64 92-64 168S80 34 118 75H87" id="aH"/><path d="M27 0v-27h64v-190l-56 39v-29l58-41h29v221h61V0H27" id="aI"/><g id="B"><use transform="matrix(0.047983539094650134,0,0,0.047983539094650134,0,0)" xlink:href="#aH"/><use transform="matrix(0.047983539094650134,0,0,0.047983539094650134,5.710041152263366,0)" xlink:href="#aI"/></g><path d="M206 0h-36l-40-164L89 0H53L-1-190h32L70-26l43-164h34l41 164 42-164h31" id="aJ"/><path d="M143 0L79-87 56-68V0H24v-261h32v163l83-92h37l-77 82L181 0h-38" id="aK"/><path d="M33-261c38 41 65 92 65 168S71 34 33 75H2C39 34 66-17 66-93S39-220 2-261h31" id="aL"/><g id="C"><use transform="matrix(0.047983539094650134,0,0,0.047983539094650134,0,0)" xlink:href="#aJ"/><use transform="matrix(0.047983539094650134,0,0,0.047983539094650134,12.427736625514385,0)" xlink:href="#az"/><use transform="matrix(0.047983539094650134,0,0,0.047983539094650134,22.024444444444413,0)" xlink:href="#az"/><use transform="matrix(0.047983539094650134,0,0,0.047983539094650134,31.621152263374444,0)" xlink:href="#aK"/><use transform="matrix(0.047983539094650134,0,0,0.047983539094650134,40.258189300411466,0)" xlink:href="#aL"/></g><path d="M24-231v-30h32v30H24zM24 0v-190h32V0H24" id="aM"/><path d="M85-194c31 0 48 13 60 33l-1-100h32l1 261h-30c-2-10 0-23-3-31C134-8 116 4 85 4 32 4 16-35 15-94c0-66 23-100 70-100zm9 24c-40 0-46 34-46 75 0 40 6 74 45 74 42 0 51-32 51-76 0-42-9-74-50-73" id="aN"/><path d="M145-31C134-9 116 4 85 4 32 4 16-35 15-94c0-59 17-99 70-100 32-1 48 14 60 33 0-11-1-24 2-32h30l-1 268h-32zM93-21c41 0 51-33 51-76s-8-73-50-73c-40 0-46 35-46 75s5 74 45 74" id="aO"/><g id="D"><use transform="matrix(0.047983539094650134,0,0,0.047983539094650134,0,0)" xlink:href="#au"/><use transform="matrix(0.047983539094650134,0,0,0.047983539094650134,11.516049382716032,0)" xlink:href="#aM"/><use transform="matrix(0.047983539094650134,0,0,0.047983539094650134,15.306748971193393,0)" xlink:href="#aN"/><use transform="matrix(0.047983539094650134,0,0,0.047983539094650134,24.903456790123418,0)" xlink:href="#az"/><use transform="matrix(0.047983539094650134,0,0,0.047983539094650134,34.50016460905345,0)" xlink:href="#aK"/><use transform="matrix(0.047983539094650134,0,0,0.047983539094650134,43.137201646090475,0)" xlink:href="#aM"/><use transform="matrix(0.047983539094650134,0,0,0.047983539094650134,46.927901234567834,0)" xlink:href="#aO"/></g><path d="M153-248C145-148 188 4 80 4 36 3 13-21 6-62l32-5c4 25 16 42 43 43 27 0 39-20 39-49v-147H72v-28h81" id="aP"/><path d="M115-194c53 0 69 39 70 98 0 66-23 100-70 100C84 3 66-7 56-30L54 0H23l1-261h32v101c10-23 28-34 59-34zm-8 174c40 0 45-34 45-75 0-40-5-75-45-74-42 0-51 32-51 76 0 43 10 73 51 73" id="aQ"/><g id="E"><use transform="matrix(0.047983539094650134,0,0,0.047983539094650134,0,0)" xlink:href="#aP"/><use transform="matrix(0.047983539094650134,0,0,0.047983539094650134,8.637037037037024,0)" xlink:href="#aw"/><use transform="matrix(0.047983539094650134,0,0,0.047983539094650134,18.23374485596705,0)" xlink:href="#aQ"/><use transform="matrix(0.047983539094650134,0,0,0.047983539094650134,27.83045267489707,0)" xlink:href="#aB"/></g><path d="M212-179c-10-28-35-45-73-45-59 0-87 40-87 99 0 60 29 101 89 101 43 0 62-24 78-52l27 14C228-24 195 4 139 4 59 4 22-46 18-125c-6-104 99-153 187-111 19 9 31 26 39 46" id="aR"/><path d="M84 4C-5 8 30-112 23-190h32v120c0 31 7 50 39 49 72-2 45-101 50-169h31l1 190h-30c-1-10 1-25-2-33-11 22-28 36-60 37" id="aS"/><g id="F"><use transform="matrix(0.047983539094650134,0,0,0.047983539094650134,0,0)" xlink:href="#aR"/><use transform="matrix(0.047983539094650134,0,0,0.047983539094650134,12.427736625514385,0)" xlink:href="#aw"/><use transform="matrix(0.047983539094650134,0,0,0.047983539094650134,22.024444444444413,0)" xlink:href="#aG"/><use transform="matrix(0.047983539094650134,0,0,0.047983539094650134,31.621152263374444,0)" xlink:href="#aB"/><use transform="matrix(0.047983539094650134,0,0,0.047983539094650134,40.258189300411466,0)" xlink:href="#aS"/><use transform="matrix(0.047983539094650134,0,0,0.047983539094650134,49.85489711934149,0)" xlink:href="#aA"/><use transform="matrix(0.047983539094650134,0,0,0.047983539094650134,64.20197530864189,0)" xlink:href="#az"/><use transform="matrix(0.047983539094650134,0,0,0.047983539094650134,73.79868312757192,0)" xlink:href="#ax"/><use transform="matrix(0.047983539094650134,0,0,0.047983539094650134,79.50872427983529,0)" xlink:href="#aB"/></g><path d="M126-127c33 6 58 20 58 59 0 88-139 92-164 29-3-8-5-16-6-25l32-3c6 27 21 44 54 44 32 0 52-15 52-46 0-38-36-46-79-43v-28c39 1 72-4 72-42 0-27-17-43-46-43-28 0-47 15-49 41l-32-3c6-42 35-63 81-64 48-1 79 21 79 65 0 36-21 52-52 59" id="aT"/><g id="G"><use transform="matrix(0.047983539094650134,0,0,0.047983539094650134,0,0)" xlink:href="#aT"/><use transform="matrix(0.047983539094650134,0,0,0.047983539094650134,9.596707818930026,0)" xlink:href="#ax"/><use transform="matrix(0.047983539094650134,0,0,0.047983539094650134,15.306748971193393,0)" xlink:href="#aN"/></g><path d="M115-194c55 1 70 41 70 98S169 2 115 4C84 4 66-9 55-30l1 105H24l-1-265h31l2 30c10-21 28-34 59-34zm-8 174c40 0 45-34 45-75s-6-73-45-74c-42 0-51 32-51 76 0 43 10 73 51 73" id="aU"/><path d="M179-190L93 31C79 59 56 82 12 73V49c39 6 53-20 64-50L1-190h34L92-34l54-156h33" id="aV"/><g id="H"><use transform="matrix(0.047983539094650134,0,0,0.047983539094650134,0,0)" xlink:href="#aU"/><use transform="matrix(0.047983539094650134,0,0,0.047983539094650134,9.596707818930026,0)" xlink:href="#aC"/><use transform="matrix(0.047983539094650134,0,0,0.047983539094650134,19.193415637860053,0)" xlink:href="#ax"/><use transform="matrix(0.047983539094650134,0,0,0.047983539094650134,24.903456790123418,0)" xlink:href="#ay"/><use transform="matrix(0.047983539094650134,0,0,0.047983539094650134,29.70181069958843,0)" xlink:href="#aV"/></g><path d="M96-169c-40 0-48 33-48 73s9 75 48 75c24 0 41-14 43-38l32 2c-6 37-31 61-74 61-59 0-76-41-82-99-10-93 101-131 147-64 4 7 5 14 7 22l-32 3c-4-21-16-35-41-35" id="aW"/><g id="I"><use transform="matrix(0.047983539094650134,0,0,0.047983539094650134,0,0)" xlink:href="#aB"/><use transform="matrix(0.047983539094650134,0,0,0.047983539094650134,8.637037037037024,0)" xlink:href="#az"/><use transform="matrix(0.047983539094650134,0,0,0.047983539094650134,18.23374485596705,0)" xlink:href="#ax"/><use transform="matrix(0.047983539094650134,0,0,0.047983539094650134,23.943786008230415,0)" xlink:href="#aF"/><use transform="matrix(0.047983539094650134,0,0,0.047983539094650134,32.58082304526744,0)" xlink:href="#aM"/><use transform="matrix(0.047983539094650134,0,0,0.047983539094650134,36.371522633744796,0)" xlink:href="#aW"/><use transform="matrix(0.047983539094650134,0,0,0.047983539094650134,45.00855967078182,0)" xlink:href="#az"/><use transform="matrix(0.047983539094650134,0,0,0.047983539094650134,54.60526748971185,0)" xlink:href="#aB"/></g></defs></g></svg>