<svg version="1.1" xmlns="http://www.w3.org/2000/svg" xmlns:xlink="http://www.w3.org/1999/xlink" width="1502" height="1193"><desc>title%20New%20Secure%20Message%20Push%0A%0Aparticipant%20%23888888%20Secure%20Messaging%0Aparticipant%20%23888888%20Lighthouse%0Aparticipantgroup%20%23e1f3f8%20Mobile%20Vets%20API%0Aboundary%20%23003e73%20Redis%20Stream%20(Message%20Q)%0Acontrol%20%23003e73%20Mobile%20Vets%20API%0Adatabase%20%23003e73%20Postgres%0Aend%20%0Aboundary%20%23888888%20VEText%0Aparticipant%20%23888888%20Push%20Server%0Aactor%20%23888888%20Mobile%20App%0A%0Aactivate%20Secure%20Messaging%0Aactivate%20Lighthouse%0Aactivate%20Redis%20Stream%20(Message%20Q)%0Aactivate%20Push%20Server%0A%0ASecure%20Messaging-%3ELighthouse%3Asend%20new%20message%0ALighthouse-%3E%3ERedis%20Stream%20(Message%20Q)%3Aadd%20new%20message%0Adeactivateafter%20Lighthouse%0A%0Aactivate%20Mobile%20Vets%20API%0Aloop%20%23fff1d2%20forever%0ARedis%20Stream%20(Message%20Q)%3C-Mobile%20Vets%20API%3Aread%20stream%0ARedis%20Stream%20(Message%20Q)--%3EMobile%20Vets%20API%3Alatest%20messages%0Aend%0AMobile%20Vets%20API-%3EPostgres%3Astore%20copy%0A%0Anote%20right%20of%20Mobile%20Vets%20API%3Astop%20if%20user%20is%20not%5Cnusing%20mobile%20app%0A%0Aactivate%20VEText%0Agroup%20%234aa564%20user%20uses%20mobile%20app%20%23white%0AMobile%20Vets%20API-%3EVEText%3Apublish%0AVEText-%3EVEText%3Alookup%20push%20preference%0Anote%20right%20of%20VEText%3Astop%20if%20push%5Cnpreference%20is%20%22NO%22%0AVEText-%3EVEText%3Alookup%20template%0Adeactivateafter%20Mobile%20Vets%20API%0AVEText-%3EPush%20Server%3Apublish%0Adeactivateafter%20VEText%0APush%20Server-%3EMobile%20App%3Apush%20notification%0Aend</desc><defs/><g><g/><g/><g/><g/><g/><g/><g/><g/><g/><g/><g/><g/><g/><g/><g/><g><rect fill="white" stroke="none" x="0" y="0" width="1502" height="1193"/></g><g><text fill="black" stroke="none" font-family="sans-serif" font-size="16.5pt" font-style="normal" font-weight="normal" text-decoration="normal" x="615.4010473803125" y="28.27246725" text-anchor="start" dominant-baseline="alphabetic" xml:space="preserve">New Secure Message Push</text></g><g><g><path fill="#e1f3f8" stroke="black" paint-order="fill stroke markers" d=" M 462.35024057125 58.1470409775 L 981.705977911875 58.1470409775 L 981.705977911875 1184.4278946600002 L 462.35024057125 1184.4278946600002 L 462.35024057125 58.1470409775" stroke-miterlimit="10" stroke-width="1.5706926250000002" stroke-dasharray=""/></g><g><text fill="black" stroke="none" font-family="sans-serif" font-size="11pt" font-style="normal" font-weight="normal" text-decoration="normal" x="669.0813318978126" y="84.53467707749999" text-anchor="start" dominant-baseline="alphabetic" xml:space="preserve">Mobile Vets API</text></g><rect fill="rgb(255,252,246)" stroke="none" x="487.241746024375" y="336.25387716" width="318.85660081250006" height="156.44098545000003"/><rect fill="rgb(219,237,224)" stroke="none" x="674.160166336875" y="664.2144972600001" width="809.2594372362499" height="454.24430715000017"/></g><g><path fill="none" stroke="black" paint-order="fill stroke markers" d=" M 91.99127294624999 193.00670976 L 91.99127294624999 1184.4278946600002" stroke-miterlimit="10" stroke-width="1.5706926250000002" stroke-dasharray="14.498701153846154,6.282770500000001"/><path fill="none" stroke="black" paint-order="fill stroke markers" d=" M 290.34491250875004 193.00670976 L 290.34491250875004 1184.4278946600002" stroke-miterlimit="10" stroke-width="1.5706926250000002" stroke-dasharray="14.498701153846154,6.282770500000001"/><path fill="none" stroke="black" paint-order="fill stroke markers" d=" M 562.634992024375 193.00670976 L 562.634992024375 1184.4278946600002" stroke-miterlimit="10" stroke-width="1.5706926250000002" stroke-dasharray="14.498701153846154,6.282770500000001"/><path fill="none" stroke="black" paint-order="fill stroke markers" d=" M 740.129256586875 193.00670976 L 740.129256586875 1184.4278946600002" stroke-miterlimit="10" stroke-width="1.5706926250000002" stroke-dasharray="14.498701153846154,6.282770500000001"/><path fill="none" stroke="black" paint-order="fill stroke markers" d=" M 934.585199161875 193.00670976 L 934.585199161875 1184.4278946600002" stroke-miterlimit="10" stroke-width="1.5706926250000002" stroke-dasharray="14.498701153846154,6.282770500000001"/><path fill="none" stroke="black" paint-order="fill stroke markers" d=" M 1034.858216341875 193.00670976 L 1034.858216341875 1184.4278946600002" stroke-miterlimit="10" stroke-width="1.5706926250000002" stroke-dasharray="14.498701153846154,6.282770500000001"/><path fill="none" stroke="black" paint-order="fill stroke markers" d=" M 1249.358431854375 193.00670976 L 1249.358431854375 1184.4278946600002" stroke-miterlimit="10" stroke-width="1.5706926250000002" stroke-dasharray="14.498701153846154,6.282770500000001"/><path fill="none" stroke="black" paint-order="fill stroke markers" d=" M 1417.450513323125 193.00670976 L 1417.450513323125 1184.4278946600002" stroke-miterlimit="10" stroke-width="1.5706926250000002" stroke-dasharray="14.498701153846154,6.282770500000001"/></g><g><path fill="none" stroke="none"/><g><path fill="white" stroke="#888888" paint-order="fill stroke markers" d=" M 9.424155749999997 142.11626870999999 L 174.5583901425 142.11626870999999 L 174.5583901425 193.00670975999998 L 9.424155749999997 193.00670975999998 L 9.424155749999997 142.11626870999999 Z" stroke-miterlimit="10" stroke-width="3.01572984" stroke-dasharray=""/></g><g><g/><text fill="black" stroke="none" font-family="sans-serif" font-size="11pt" font-style="normal" font-weight="normal" text-decoration="normal" x="29.874573727499993" y="174.15839826" text-anchor="start" dominant-baseline="alphabetic" xml:space="preserve">Secure Messaging</text></g><path fill="none" stroke="none"/><g><path fill="white" stroke="#888888" paint-order="fill stroke markers" d=" M 233.19649648437505 142.11626870999999 L 347.49332853312507 142.11626870999999 L 347.49332853312507 193.00670975999998 L 233.19649648437505 193.00670975999998 L 233.19649648437505 142.11626870999999 Z" stroke-miterlimit="10" stroke-width="3.01572984" stroke-dasharray=""/></g><g><g/><text fill="black" stroke="none" font-family="sans-serif" font-size="11pt" font-style="normal" font-weight="normal" text-decoration="normal" x="253.64691446187504" y="174.15839826" text-anchor="start" dominant-baseline="alphabetic" xml:space="preserve">Lighthouse</text></g><g><path fill="white" stroke="#003e73" paint-order="fill stroke markers" d=" M 600.048890351875 138.91205575499998 A 27.989742577500003 27.989742577500003 0 1 1 600.0488763570049 138.88406601708743 M 526.8232001743751 109.32020669999997 L 526.8232001743751 168.50390481 M 525.2210936968751 138.91205575499998 L 544.069405196875 138.91205575499998" stroke-miterlimit="10" stroke-width="3.2042129550000005" stroke-dasharray=""/></g><g><g/><text fill="black" stroke="none" font-family="sans-serif" font-size="11pt" font-style="normal" font-weight="normal" text-decoration="normal" x="471.77439632125004" y="187.35221631000002" text-anchor="start" dominant-baseline="alphabetic" xml:space="preserve">Redis Stream (Message Q)</text></g><g><path fill="white" stroke="#003e73" paint-order="fill stroke markers" d=" M 768.118999164375 138.91205575499998 A 27.989742577500003 27.989742577500003 0 1 1 768.1189851695049 138.88406601708743 M 736.359594286875 110.92231317749997 L 747.668581186875 101.49815742749998 M 736.359594286875 110.92231317749997 L 747.668581186875 120.34646892749997" stroke-miterlimit="10" stroke-width="3.2042129550000005" stroke-dasharray=""/></g><g><g/><text fill="black" stroke="none" font-family="sans-serif" font-size="11pt" font-style="normal" font-weight="normal" text-decoration="normal" x="687.182479243125" y="187.35221631000002" text-anchor="start" dominant-baseline="alphabetic" xml:space="preserve">Mobile Vets API</text></g><g><path fill="white" stroke="#003e73" paint-order="fill stroke markers" d=" M 907.066664371875 156.06401922 L 907.066664371875 116.48256506999999 L 962.103733951875 116.48256506999999 L 962.103733951875 156.06401922" stroke-miterlimit="10" stroke-width="3.2042129550000005" stroke-dasharray=""/><path fill="white" stroke="#003e73" paint-order="fill stroke markers" d=" M 962.103733951875 115.10663833049999 L 962.1023580366016 115.2310351130961 L 962.0982304283715 115.3554194561176 L 962.0913515399423 115.47977892123386 L 962.0817220591969 115.60410107260199 L 962.0693429490755 115.72837347811047 L 962.0542154474788 115.8525837106223 L 962.0363410671442 115.97671934921773 L 962.015721595495 116.10076798043636 L 961.9923590944612 116.22471719951844 L 961.9662559002733 116.34855461164534 L 961.9374146232291 116.47226783317905 L 961.9058381474321 116.59584449290051 L 961.8715296305037 116.71927223324674 L 961.834492503267 116.84253871154655 L 961.7947304694038 116.96563160125483 L 961.7522475050844 117.08853859318519 L 961.7070478585698 117.21124739674086 L 961.659136049787 117.33374574114374 L 961.608516869877 117.45602137666148 L 961.5551953807155 117.57806207583242 L 961.499176914407 117.69985563468833 L 961.4404670727515 117.82138987397482 L 961.3790717266843 117.94265264036926 L 961.3149970156887 118.06363180769605 L 961.2482493471825 118.18431527813928 L 961.178835395877 118.30469098345246 L 961.1067621031093 118.42474688616538 L 961.0320366761487 118.54447098078782 L 960.9546665874756 118.66385129501008 L 960.8746595740345 118.78287589090021 L 960.7920236364599 118.90153286609784 L 960.7067670382769 119.0198103550043 L 960.6188983050741 119.13769652996928 L 960.5284262236516 119.2551796024735 L 960.4353598411424 119.37224782430766 L 960.3397084641068 119.48888948874708 L 960.241481657603 119.60509293172255 L 960.1406892442299 119.7208465329866 L 960.0373413031447 119.83613871727555 L 959.9314481690554 119.95095795546706 L 959.8230204311872 120.065292765733 L 959.7120689322235 120.17913171468761 L 959.5986047672218 120.29246341853087 L 959.482639282504 120.40527654418683 L 959.3641840745219 120.51755981043694 L 959.2432509886976 120.62930198904814 L 959.1198521182389 120.7404919058957 L 958.9939998029301 120.85111844208056 L 958.8657066278978 120.96117053504133 L 958.7349854223526 121.07063717966041 L 958.6018492583061 121.17950742936455 L 958.4663114492637 121.2877703972195 L 958.3283855488935 121.39541525701873 L 958.1880853496705 121.50243124436591 L 958.0454248814976 121.60880765775153 L 957.900418410303 121.71453385962288 L 957.7530804366129 121.81959927744788 L 957.6034256941017 121.92399340477229 L 957.4514691481191 122.02770580227039 L 957.297225994193 122.13072609878886 L 957.1407116565103 122.23304399238387 L 956.9819417863745 122.33464925135135 L 956.82093226064 122.43553171525008 L 956.6576991801254 122.53568129591771 L 956.4922588680026 122.63508797847965 L 956.324627868165 122.73374182235048 L 956.154822943573 122.83163296222801 L 955.9828610745774 122.92875160907987 L 955.8087594572218 123.02508805112225 L 955.632535501523 123.12063265479128 L 955.4542068297295 123.21537586570616 L 955.27379127456 123.3093082096248 L 955.0913068774198 123.40242029339106 L 954.9067718865964 123.49470280587416 L 954.720204755435 123.58614651889974 L 954.5316241404935 123.67674228817272 L 954.341048899676 123.76648105419166 L 954.1484980903479 123.85535384315475 L 953.9539909674296 123.94335176785714 L 953.7575469814714 124.0304660285797 L 953.5591857767082 124.11668791396895 L 953.3589271890951 124.2020088019082 L 953.1567912443239 124.28642016037976 L 952.9527981558208 124.36991354831812 L 952.7469683227246 124.45248061645408 L 952.539322327847 124.53411310814963 L 952.3298809356146 124.61480286022359 L 952.118665089992 124.69454180376803 L 951.9056959123877 124.77332196495504 L 951.6909946995421 124.85113546583416 L 951.4745829213975 124.92797452512012 L 951.2564822189514 125.00383145897104 L 951.0367144020922 125.07869868175675 L 950.8153014474187 125.15256870681735 L 950.5922654960416 125.2254341472119 L 950.3676288513702 125.29728771645708 L 950.141413976882 125.36812222925585 L 949.9136434938756 125.43793060221594 L 949.6843401792097 125.50670585455826 L 949.4535269630246 125.57444110881485 L 949.2212269264497 125.64112959151676 L 948.987463299295 125.70676463387127 L 948.7522594577283 125.77133967242887 L 948.515638921938 125.83484824973948 L 948.2776253537803 125.89728401499832 L 948.0382425544137 125.95864072468089 L 947.7975144619187 126.01891224316734 L 947.5554651489039 126.07809254335606 L 947.3121188200989 126.13617570726633 L 947.0674998099338 126.19315592663018 L 946.8216325801059 126.24902750347316 L 946.574541717133 126.30378485068412 L 946.3262519298958 126.357422492574 L 946.0767880471659 126.4099350654233 L 945.8261750151238 126.46131731801847 L 945.5744378948638 126.5115641121771 L 945.3216018598881 126.56067042326164 L 945.0676921935897 126.60863134068188 L 944.8127342867234 126.6554420683861 L 944.5567536348676 126.70109792534046 L 944.2997758358741 126.74559434599738 L 944.0418265873087 126.78892688075184 L 943.7829316838812 126.83109119638648 L 943.5231170148662 126.87208307650488 L 943.2624085615142 126.91189842195318 L 943.0008323944533 126.95053325123003 L 942.738414671082 126.98798370088468 L 942.4751816329541 127.02424602590338 L 942.2111596031541 127.05931660008385 L 941.946374983665 127.09319191639788 L 941.680854252728 127.1258685873421 L 941.4146239621948 127.15734334527662 L 941.1477107348728 127.18761304275188 L 940.8801412618623 127.21667465282336 L 940.6119422998876 127.24452526935427 L 940.3431406686212 127.27116210730617 L 940.0737632480025 127.29658250301745 L 939.803836975549 127.32078391446974 L 939.5333888436629 127.34376392154205 L 939.2624458969321 127.36552022625283 L 938.9910352294256 127.38605065298974 L 938.7191839819839 127.4053531487272 L 938.446919339505 127.42342578323174 L 938.1742685282265 127.44026674925496 L 937.9012588130022 127.45587436271428 L 937.6279174945762 127.4702470628614 L 937.3542719068525 127.48338341243824 L 937.0803494141619 127.4952820978208 L 936.8061774085254 127.50594192915048 L 936.5317833069149 127.51536184045301 L 936.2571945485122 127.5235408897451 L 935.9824385919641 127.53047825912867 L 935.7075429126372 127.53617325487254 L 935.4325349998708 127.54062530748187 L 935.1574423542264 127.54383397175513 L 934.8822924847399 127.54579892682855 L 934.6071129061685 127.54651997620829 L 934.331931136241 127.54599704778998 L 934.056774692905 127.54423019386604 L 933.7816710915756 127.5412195911204 L 933.5066478423836 127.5369655406108 L 933.2317324474247 127.53146846773876 L 932.9569523980094 127.52472892220699 L 932.6823351719137 127.51674757796442 L 932.4079082306312 127.50752523313884 L 932.1336990166274 127.49706280995701 L 931.8597349505952 127.48536135465258 L 931.586043428713 127.4724220373613 L 931.3126518199048 127.45824615200411 L 931.0395874631037 127.44283511615774 L 930.7668776645178 127.42619047091293 L 930.4945496948997 127.40831388072034 L 930.2226307868193 127.3892071332241 L 929.9511481319411 127.36887213908302 L 929.6801288783042 127.34731093177959 L 929.4096001276081 127.32452566741654 L 929.1395889325024 127.30051862450134 L 928.8701222938816 127.27529220371828 L 928.6012271581851 127.2488489276884 L 928.3329304147024 127.22119144071729 L 928.0652588928842 127.19232250853057 L 927.7982393596595 127.16224501799744 L 927.5318985167594 127.13096197684183 L 927.266262998046 127.09847651334185 L 927.00135936685 127.06479187601674 L 926.7372141133135 127.02991143330217 L 926.4738536517419 126.99383867321336 L 926.211304317962 126.95657720299624 L 925.9495923666882 126.9181307487668 L 925.6887439688976 126.87850315513839 L 925.4287852092127 126.83769838483738 L 925.1697420832926 126.79572051830678 L 924.9116404952343 126.75257375329828 L 924.6545062549814 126.7082624044524 L 924.3983650757435 126.66279090286713 L 924.1432425714253 126.6161637956547 L 923.8891642540646 126.568385745487 L 923.6361555312811 126.51946153012923 L 923.3842417037367 126.46939604196216 L 923.133447962604 126.41819428749287 L 922.8837993870482 126.36586138685414 L 922.6353209417186 126.31240257329243 L 922.3880374742529 126.25782319264455 L 922.1419737127917 126.20212870280308 L 921.8971542635061 126.14532467317059 L 921.6536036081369 126.0874167841027 L 921.4113461015469 126.02841082634008 L 921.1704059692846 125.96831270042931 L 920.9308073051627 125.90712841613292 L 920.6925740688479 125.84486409182836 L 920.4557300834653 125.78152595389614 L 920.2202990332158 125.71712033609728 L 919.9863044610087 125.65165367893992 L 919.7537697661058 125.58513252903519 L 919.522718201783 125.51756353844266 L 919.2931728730043 125.44895346400507 L 919.0651567341112 125.37930916667271 L 918.8386925865274 125.30863761081726 L 918.6138030764791 125.23694586353541 L 918.39051069273 125.16424109394215 L 918.1688377643322 125.09053057245386 L 917.948806458394 125.01582167006126 L 917.7304387778624 124.94012185759232 L 917.5137565593237 124.86343870496522 L 917.2987814708191 124.7857798804313 L 917.0855350096783 124.70715314980833 L 916.8740385003697 124.62756637570382 L 916.6643130923679 124.54702751672887 L 916.4563797580392 124.46554462670227 L 916.2502592905436 124.38312585384512 L 916.0459723017559 124.29977943996599 L 915.843539220205 124.21551371963685 L 915.6429802890302 124.13033711935951 L 915.4443155639576 124.044258156723 L 915.2475649112941 123.95728543955185 L 915.0527480059411 123.86942766504532 L 914.8598843294267 123.78069361890765 L 914.6689931679578 123.69109217446947 L 914.4800936104914 123.6006322918006 L 914.293204546826 123.50932301681388 L 914.1083446657123 123.41717348036076 L 913.925532452984 123.32419289731808 L 913.7447861897105 123.23039056566665 L 913.5661239503671 123.13577586556148 L 913.3895636010291 123.04035825839372 L 913.2151227975841 122.9441472858446 L 913.0428189839672 122.84715256893116 L 912.8726693904163 122.7493838070443 L 912.7046910317488 122.65085077697871 L 912.5389007056605 122.5515633319553 L 912.375314991046 122.45153140063582 L 912.2139502463405 122.35076498613006 L 912.0548226078838 122.24927416499548 L 911.8979479883074 122.14706908622964 L 911.7433420749422 122.04415997025522 L 911.591020328251 121.94055710789807 L 911.4409979802814 121.83627085935811 L 911.2932900331431 121.73131165317326 L 911.1479112575079 121.62568998517669 L 911.0048761911321 121.51941641744718 L 910.8641991374031 121.41250157725294 L 910.7258941639093 121.30495615598889 L 910.5899751010325 121.19679090810753 L 910.4564555405658 121.08801665004353 L 910.325348834354 120.97864425913204 L 910.1966680929585 120.868684672521 L 910.0704261843462 120.75814888607746 L 909.9466357326028 120.64704795328794 L 909.8253091166702 120.53539298415312 L 909.7064584691088 120.42319514407689 L 909.5900956748847 120.31046565274976 L 909.47623237018 120.19721578302689 L 909.3648799412305 120.08345685980092 L 909.2560495231861 119.96920025886935 L 909.149751998998 119.85445740579706 L 909.0459979983301 119.73923977477375 L 908.944797896496 119.6235588874665 L 908.8461618134214 119.50742631186765 L 908.7500996126325 119.39085366113795 L 908.6566209002694 119.27385259244537 L 908.5657350241255 119.15643480579926 L 908.4774510727125 119.03861204288044 L 908.391777874352 118.92039608586701 L 908.3087239962924 118.80179875625618 L 908.2282977438524 118.68283191368205 L 908.1505071595902 118.56350745472976 L 908.0753600224995 118.44383731174575 L 908.0028638472312 118.32383345164462 L 907.9330258833425 118.20350787471236 L 907.8658531145716 118.0828726134064 L 907.8013522581393 117.96193973115231 L 907.7395297640777 117.8407213211376 L 907.6803918145845 117.71922950510219 L 907.6239443234055 117.59747643212648 L 907.5701929352425 117.47547427741631 L 907.5191430251899 117.35323524108547 L 907.470799698196 117.23077154693573 L 907.4251677885532 117.10809544123444 L 907.3822518594144 116.98521919148996 L 907.3420562023368 116.86215508522486 L 907.3045848368527 116.73891542874722 L 907.2698415100672 116.61551254591997 L 907.2378296962843 116.49195877692857 L 907.2085525966584 116.36826647704696 L 907.1820131388753 116.24444801540206 L 907.1582139768586 116.12051577373683 L 907.1371574905047 115.99648214517217 L 907.1188457854446 115.87235953296756 L 907.1032806928336 115.74816034928082 L 907.090463769168 115.62389701392681 L 907.0803962961294 115.4995819531355 L 907.0730792804568 115.37522759830938 L 907.0685134538456 115.25084638478029 L 907.0666992728749 115.12645075056595 L 907.0676369189609 115.00205313512612 L 907.0713262983401 114.87766597811867 L 907.0777670420774 114.75330171815565 L 907.086958506104 114.62897279155942 L 907.0988997712809 114.50469163111902 L 907.1135896434919 114.38047066484695 L 907.1310266537616 114.2563223147363 L 907.1512090584038 114.13225899551864 L 907.1741348391947 114.00829311342248 L 907.1998017035755 113.88443706493277 L 907.228207084881 113.76070323555109 L 907.2593481425968 113.63710399855732 L 907.293221762643 113.51365171377212 L 907.3298245576859 113.39035872632113 L 907.3691528674766 113.2672373654003 L 907.4112027592166 113.14429994304317 L 907.455970027952 113.0215587528895 L 907.5034501969933 112.89902606895605 L 907.5536385183628 112.77671414440906 L 907.6065299732707 112.6546352103391 L 907.6621192726151 112.5328014745378 L 907.7204008575127 112.41122512027727 L 907.7813688998534 112.28991830509158 L 907.845017302884 112.16889315956116 L 907.9113397018169 112.04816178609974 L 907.9803294644678 111.92773625774403 L 908.0519796919177 111.80762861694653 L 908.1262832192037 111.68785087437121 L 908.203232616035 111.56841500769252 L 908.2828201875359 111.4493329603976 L 908.3650379750158 111.33061664059196 L 908.4498777567642 111.21227791980861 L 908.5373310488737 111.09432863182106 L 908.6273891060881 110.9767805714598 L 908.7200429226766 110.8596454934329 L 908.8152832333349 110.74293511115056 L 908.913100514111 110.62666109555374 L 909.0134849833587 110.51083507394712 L 909.1164266027145 110.39546862883633 L 909.2219150781023 110.28057329676975 L 909.3299398607625 110.16616056718483 L 909.4404901483068 110.05224188125919 L 909.5535548857986 109.9388286307665 L 909.6691227668584 109.82593215693727 L 909.7871822347944 109.71356374932483 L 909.9077214837581 109.60173464467631 L 910.0307284599252 109.49045602580895 L 910.1561908627004 109.37973902049194 L 910.2840961459482 109.26959470033351 L 910.4144315192466 109.16003407967392 L 910.5471839491671 109.05106811448393 L 910.6823401605773 108.94270770126924 L 910.8198866379686 108.83496367598089 L 910.9598096268079 108.7278468129316 L 911.1020951349129 108.62136782371844 L 911.2467289338515 108.51553735615158 L 911.3936965603643 108.41036599318959 L 911.5429833178109 108.30586425188112 L 911.6945742776403 108.20204258231323 L 911.8484542808826 108.09891136656633 L 912.0046079396657 107.99648091767608 L 912.163019638754 107.89476147860199 L 912.3236735371095 107.79376322120322 L 912.4865535694763 107.69349624522135 L 912.6516434479868 107.5939705772704 L 912.8189266637909 107.49519616983423 L 912.9883864887062 107.39718290027129 L 913.1600059768915 107.29994056982684 L 913.3337679665411 107.2034789026529 L 913.5096550816008 107.10780754483581 L 913.6876497335056 107.0129360634316 L 913.8677341229386 106.91887394550938 L 914.0498902416111 106.82563059720253 L 914.2340998740628 106.7332153427682 L 914.4203445994842 106.64163742365483 L 914.6086057935579 106.55090599757798 L 914.7988646303212 106.46103013760468 L 914.9911020840492 106.37201883124601 L 915.1852989311566 106.28388097955845 L 915.3814357521204 106.19662539625371 L 915.5794929334222 106.11026080681741 L 915.7794506695088 106.02479584763651 L 915.9812889647733 105.94023906513573 L 916.1849876355543 105.85659891492284 L 916.3905263121544 105.77388376094316 L 916.5978844408774 105.69210187464319 L 916.807041286083 105.61126143414336 L 917.017975932261 105.53137052342039 L 917.2306672861229 105.45243713149877 L 917.4450940787102 105.3744691516519 L 917.6612348675225 105.2974743806128 L 917.8790680386609 105.22146051779441 L 918.0985718089898 105.14643516451969 L 918.3197242283154 105.0724058232614 L 918.5425031815797 104.99937989689202 L 918.7668863910732 104.92736468794331 L 918.9928514186619 104.85636739787616 L 919.2203756680314 104.78639512636039 L 919.4494363869462 104.71745487056488 L 919.6800106695255 104.64955352445773 L 919.912075458533 104.58269787811697 L 920.1456075476832 104.51689461705153 L 920.380583583962 104.45215032153268 L 920.6169800699614 104.38847146593602 L 920.8547733662299 104.32586441809404 L 921.0939396936359 104.26433543865934 L 921.3344551357461 104.20389068047862 L 921.5762956412167 104.14453618797731 L 921.8194370261986 104.08627789655519 L 922.0638549767559 104.02912163199285 L 922.3095250512974 103.97307310986915 L 922.5564226830203 103.91813793498955 L 922.804523182367 103.86432160082579 L 923.0538017394945 103.81162948896645 L 923.3042334267549 103.76006686857876 L 923.5557932011878 103.70963889588182 L 923.8084559070259 103.6603506136309 L 924.0621962782087 103.6122069506131 L 924.3169889409107 103.56521272115464 L 924.5728084160781 103.51937262463929 L 924.8296291219764 103.47469124503849 L 925.0874253767491 103.431173050453 L 925.3461714009856 103.38882239266597 L 925.6058413202989 103.34764350670793 L 925.8664091679136 103.30764051043313 L 926.1278488872621 103.26881740410788 L 926.3901343345902 103.23117807001044 L 926.6532392815719 103.19472627204287 L 926.9171374179317 103.15946565535458 L 927.1818023540759 103.12539974597786 L 927.4472076237314 103.09253195047528 L 927.7133266865923 103.06086555559895 L 927.9801329309743 103.03040372796202 L 928.2475996764751 103.00114951372184 L 928.5157001766432 102.97310583827547 L 928.7844076216519 102.94627550596708 L 929.0536951409806 102.92066119980754 L 929.3235358061019 102.89626548120611 L 929.593902633174 102.87309078971435 L 929.8647685857396 102.85113944278207 L 930.1361065774291 102.83041363552569 L 930.4078894746696 102.81091544050864 L 930.6800900993976 102.7926468075342 L 930.9526812317777 102.77560956345042 L 931.2256356129236 102.75980541196752 L 931.4989259476249 102.74523593348749 L 931.7725249070756 102.73190258494603 L 932.046405131608 102.71980669966686 L 932.3205392334278 102.70894948722847 L 932.5948997993531 102.69933203334303 L 932.8694593935562 102.69095529974791 L 933.1441905603064 102.6838201241095 L 933.4190658267157 102.67792721993942 L 933.6940577054869 102.67327717652316 L 933.9691386976612 102.66987045886121 L 934.2442812953683 102.66770740762249 L 934.5194579845781 102.6667882391103 L 934.7946412478509 102.66711304524074 L 935.0698035670895 102.66868179353348 L 935.3449174262915 102.67149432711498 L 935.6199553143001 102.67555036473425 L 935.8948897275559 102.68084950079088 L 936.1696931728463 102.68739120537569 L 936.4443381700562 102.69517482432367 L 936.7187972549145 102.70419957927942 L 936.9930429817415 102.71446456777497 L 937.2670479261931 102.72596876332 L 937.540784688003 102.73871101550456 L 937.8142258937233 102.75269005011405 L 938.0873441994613 102.76790446925666 L 938.360112293614 102.78435275150315 L 938.6325028995992 102.80203325203901 L 938.9044887785834 102.8209442028289 L 939.1760427322054 102.84108371279352 L 939.447137605296 102.86244976799864 L 939.7177462885938 102.88504023185656 L 939.9878417214562 102.90885284533972 L 940.2573968945647 102.9338852272066 L 940.5263848526268 102.96013487423988 L 940.7947786970708 102.98759916149673 L 941.0625515887359 103.01627534257133 L 941.329676750556 103.04616054986944 L 941.5961274702378 103.07725179489526 L 941.861877102931 103.10954596855018 L 942.126899073894 103.14303984144375 L 942.3911668811506 103.17773006421659 L 942.6546540981402 103.21361316787534 L 942.9173343763607 103.25068556413953 L 943.1791814480032 103.28894354580042 L 943.4401691285786 103.32838328709175 L 943.7002713195366 103.36900084407223 L 943.9594620108746 103.41079215502002 L 944.2177152837396 103.45375304083886 L 944.4750053130194 103.49787920547595 L 944.7313063699257 103.54316623635162 L 944.9865928245662 103.5896096048005 L 945.2408391485083 103.63720466652447 L 945.4940199173312 103.68594666205699 L 945.7461098131694 103.73583071723915 L 945.9970836272431 103.78685184370701 L 946.2469162623802 103.8390049393904 L 946.4955827355253 103.89228478902326 L 946.7430581802383 103.946686064665 L 946.989317849181 104.00220332623338 L 947.2343371165917 104.05883102204854 L 947.4780914807478 104.11656348938806 L 947.7205565664161 104.17539495505332 L 947.9617081272901 104.2353195359468 L 948.2015220484145 104.29633123966032 L 948.4399743485972 104.35842396507437 L 948.6770411828068 104.42159150296814 L 948.9126988445574 104.4858275366405 L 949.1469237682794 104.55112564254159 L 949.3796925316755 104.61747929091526 L 949.6109818580633 104.68488184645193 L 949.8407686187029 104.75332656895225 L 950.0690298351097 104.822806614001 L 950.2957426813524 104.89331503365155 L 950.5208844863351 104.96484477712072 L 950.7444327360653 105.03738869149376 L 950.9663650759038 105.1109395224397 L 951.186659312802 105.1854899149367 L 951.4052934175195 105.26103241400767 L 951.6222455268282 105.33755946546566 L 951.8374939456979 105.41506341666926 L 952.051017149466 105.49353651728796 L 952.2627937859903 105.57297092007711 L 952.4728026777833 105.65335868166258 L 952.6810228241311 105.73469176333525 L 952.8874334031924 105.8169620318547 L 953.0920137740815 105.90016126026264 L 953.2947434789315 105.98428112870556 L 953.4956022449412 106.06931322526673 L 953.6945699864011 106.15524904680734 L 953.891626806703 106.24207999981685 L 954.086753000329 106.32979740127232 L 954.2799290548226 106.4183924795067 L 954.4711356527389 106.507856375086 L 954.6603536735778 106.59818014169522 L 954.8475641956948 106.68935474703298 L 955.0327484981935 106.78137107371468 L 955.2158880627983 106.87421992018437 L 955.396964575705 106.96789200163477 L 955.5759599294136 107.06237795093577 L 955.7528562245376 107.15766831957121 L 955.927635771595 107.25375357858363 L 956.1002810927766 107.35062411952718 L 956.2707749236945 107.44827025542851 L 956.4391002151074 107.5466822217554 L 956.6052401346265 107.64585017739321 L 956.7691780683982 107.74576420562904 L 956.930897622766 107.84641431514332 L 957.0903826259089 107.94779044100896 L 957.2476171294597 108.04988244569786 L 957.4025854100992 108.15268012009463 L 957.555271971128 108.25617318451751 L 957.7056615440177 108.36035128974626 L 957.8537390899362 108.46520401805722 L 957.9994898012523 108.5707208842649 L 958.1428991030162 108.67689133677064 L 958.2839526544175 108.78370475861763 L 958.4226363502183 108.89115046855272 L 958.5589363221648 108.99921772209446 L 958.6928389403732 109.10789571260753 L 958.8243308146936 109.21717357238346 L 958.9533987960477 109.32704037372733 L 959.0800299777452 109.43748513005055 L 959.2042116967735 109.54849679696954 L 959.325931535064 109.66006427341013 L 959.4451773207345 109.77217640271762 L 959.5619371293055 109.88482197377252 L 959.6761992848939 109.99798972211158 L 959.7879523613789 110.1116683310543 L 959.8971851835462 110.2258464328345 L 960.0038868282046 110.34051260973716 L 960.1080466252786 110.45565539524013 L 960.2096541588751 110.57126327516083 L 960.3086992683257 110.68732468880759 L 960.4051720492017 110.80382803013576 L 960.4990628543055 110.92076164890833 L 960.590362294635 111.03811385186081 L 960.6790612403221 111.15587290387074 L 960.7651508215462 111.27402702913105 L 960.8486224294207 111.39256441232766 L 960.9294677168548 111.51147319982103 L 961.0076785993867 111.6307415008315 L 961.0832472559937 111.75035738862837 L 961.1561661298728 111.87030890172255 L 961.2264279291975 111.99058404506266 L 961.2940256278464 112.11117079123463 L 961.358952466106 112.2320570816643 L 961.4212019513466 112.35323082782337 L 961.4807678586715 112.4746799124382 L 961.5376442315396 112.59639219070156 L 961.591825382361 112.71835549148705 L 961.6433058930659 112.8405576185662 L 961.6920806156459 112.96298635182814 L 961.7381446726696 113.08562944850158 L 961.7814934577696 113.20847464437905 L 961.8221226361035 113.33150965504333 L 961.8600281447873 113.4547221770959 L 961.8952061933018 113.57809988938722 L 961.9276532638714 113.70163045424886 L 961.9573661118161 113.8253015187273 L 961.9843417658759 113.94910071581913 L 962.0085775285078 114.07301566570783 L 962.0300709761558 114.19703397700164 L 962.048819959493 114.32114324797281 L 962.0648226036368 114.44533106779765 L 962.0780773083359 114.56958501779769 L 962.0885827481311 114.69389267268144 L 962.0963378724871 114.81824160178702 L 962.1013419058978 114.94261937032516 L 962.1035943479643 115.06701354062261 M 962.103733951875 154.68809248050002 L 962.1023580366016 154.81248926309613 L 962.0982304283715 154.93687360611762 L 962.0913515399423 155.0612330712339 L 962.0817220591969 155.18555522260203 L 962.0693429490755 155.3098276281105 L 962.0542154474788 155.43403786062234 L 962.0363410671442 155.55817349921776 L 962.015721595495 155.6822221304364 L 961.9923590944612 155.80617134951845 L 961.9662559002733 155.93000876164535 L 961.9374146232291 156.05372198317906 L 961.9058381474321 156.17729864290055 L 961.8715296305037 156.30072638324677 L 961.834492503267 156.42399286154657 L 961.7947304694038 156.54708575125485 L 961.7522475050844 156.66999274318522 L 961.7070478585698 156.7927015467409 L 961.659136049787 156.91519989114377 L 961.608516869877 157.03747552666152 L 961.5551953807155 157.15951622583245 L 961.499176914407 157.28130978468835 L 961.4404670727515 157.40284402397486 L 961.3790717266843 157.5241067903693 L 961.3149970156887 157.6450859576961 L 961.2482493471825 157.7657694281393 L 961.178835395877 157.8861451334525 L 961.1067621031093 158.0062010361654 L 961.0320366761487 158.12592513078783 L 960.9546665874756 158.2453054450101 L 960.8746595740345 158.36433004090023 L 960.7920236364599 158.48298701609787 L 960.7067670382769 158.60126450500434 L 960.6188983050741 158.7191506799693 L 960.5284262236516 158.83663375247355 L 960.4353598411424 158.95370197430768 L 960.3397084641068 159.07034363874712 L 960.241481657603 159.18654708172258 L 960.1406892442299 159.3023006829866 L 960.0373413031447 159.41759286727557 L 959.9314481690554 159.5324121054671 L 959.8230204311872 159.64674691573302 L 959.7120689322235 159.76058586468764 L 959.5986047672218 159.87391756853089 L 959.482639282504 159.98673069418686 L 959.3641840745219 160.09901396043696 L 959.2432509886976 160.21075613904816 L 959.1198521182389 160.32194605589572 L 958.9939998029301 160.4325725920806 L 958.8657066278978 160.54262468504137 L 958.7349854223526 160.65209132966044 L 958.6018492583061 160.76096157936456 L 958.4663114492637 160.86922454721955 L 958.3283855488935 160.97686940701874 L 958.1880853496705 161.08388539436595 L 958.0454248814976 161.19026180775157 L 957.900418410303 161.2959880096229 L 957.7530804366129 161.4010534274479 L 957.6034256941017 161.50544755477233 L 957.4514691481191 161.60915995227043 L 957.297225994193 161.71218024878888 L 957.1407116565103 161.8144981423839 L 956.9819417863745 161.9161034013514 L 956.82093226064 162.0169858652501 L 956.6576991801254 162.11713544591774 L 956.4922588680026 162.2165421284797 L 956.324627868165 162.3151959723505 L 956.154822943573 162.41308711222806 L 955.9828610745774 162.5102057590799 L 955.8087594572218 162.6065422011223 L 955.632535501523 162.7020868047913 L 955.4542068297295 162.7968300157062 L 955.27379127456 162.89076235962483 L 955.0913068774198 162.98387444339107 L 954.9067718865964 163.07615695587418 L 954.720204755435 163.16760066889975 L 954.5316241404935 163.25819643817275 L 954.341048899676 163.34793520419169 L 954.1484980903479 163.4368079931548 L 953.9539909674296 163.52480591785718 L 953.7575469814714 163.61192017857974 L 953.5591857767082 163.698142063969 L 953.3589271890951 163.78346295190823 L 953.1567912443239 163.8678743103798 L 952.9527981558208 163.95136769831817 L 952.7469683227246 164.0339347664541 L 952.539322327847 164.11556725814964 L 952.3298809356146 164.19625701022363 L 952.118665089992 164.27599595376807 L 951.9056959123877 164.3547761149551 L 951.6909946995421 164.4325896158342 L 951.4745829213975 164.50942867512015 L 951.2564822189514 164.58528560897108 L 951.0367144020922 164.66015283175676 L 950.8153014474187 164.73402285681738 L 950.5922654960416 164.80688829721194 L 950.3676288513702 164.87874186645712 L 950.141413976882 164.9495763792559 L 949.9136434938756 165.01938475221598 L 949.6843401792097 165.0881600045583 L 949.4535269630246 165.1558952588149 L 949.2212269264497 165.2225837415168 L 948.987463299295 165.28821878387132 L 948.7522594577283 165.3527938224289 L 948.515638921938 165.41630239973952 L 948.2776253537803 165.47873816499836 L 948.0382425544137 165.5400948746809 L 947.7975144619187 165.60036639316738 L 947.5554651489039 165.65954669335608 L 947.3121188200989 165.71762985726636 L 947.0674998099338 165.7746100766302 L 946.8216325801059 165.83048165347319 L 946.574541717133 165.88523900068415 L 946.3262519298958 165.93887664257403 L 946.0767880471659 165.9913892154233 L 945.8261750151238 166.0427714680185 L 945.5744378948638 166.09301826217714 L 945.3216018598881 166.14212457326167 L 945.0676921935897 166.19008549068192 L 944.8127342867234 166.2368962183861 L 944.5567536348676 166.2825520753405 L 944.2997758358741 166.32704849599742 L 944.0418265873087 166.37038103075187 L 943.7829316838812 166.4125453463865 L 943.5231170148662 166.45353722650492 L 943.2624085615142 166.4933525719532 L 943.0008323944533 166.53198740123005 L 942.738414671082 166.5694378508847 L 942.4751816329541 166.6057001759034 L 942.2111596031541 166.64077075008387 L 941.946374983665 166.6746460663979 L 941.680854252728 166.7073227373421 L 941.4146239621948 166.73879749527663 L 941.1477107348728 166.7690671927519 L 940.8801412618623 166.79812880282338 L 940.6119422998876 166.8259794193543 L 940.3431406686212 166.85261625730618 L 940.0737632480025 166.8780366530175 L 939.803836975549 166.90223806446977 L 939.5333888436629 166.92521807154208 L 939.2624458969321 166.94697437625285 L 938.9910352294256 166.96750480298977 L 938.7191839819839 166.98680729872723 L 938.446919339505 167.00487993323176 L 938.1742685282265 167.02172089925497 L 937.9012588130022 167.0373285127143 L 937.6279174945762 167.05170121286142 L 937.3542719068525 167.06483756243827 L 937.0803494141619 167.07673624782083 L 936.8061774085254 167.08739607915052 L 936.5317833069149 167.09681599045305 L 936.2571945485122 167.10499503974515 L 935.9824385919641 167.1119324091287 L 935.7075429126372 167.11762740487256 L 935.4325349998708 167.1220794574819 L 935.1574423542264 167.12528812175515 L 934.8822924847399 167.1272530768286 L 934.6071129061685 167.12797412620833 L 934.331931136241 167.12745119779 L 934.056774692905 167.12568434386606 L 933.7816710915756 167.12267374112042 L 933.5066478423836 167.11841969061084 L 933.2317324474247 167.11292261773877 L 932.9569523980094 167.10618307220702 L 932.6823351719137 167.09820172796447 L 932.4079082306312 167.08897938313885 L 932.1336990166274 167.07851695995706 L 931.8597349505952 167.0668155046526 L 931.586043428713 167.0538761873613 L 931.3126518199048 167.03970030200412 L 931.0395874631037 167.02428926615775 L 930.7668776645178 167.00764462091297 L 930.4945496948997 166.98976803072037 L 930.2226307868193 166.97066128322413 L 929.9511481319411 166.95032628908305 L 929.6801288783042 166.9287650817796 L 929.4096001276081 166.90597981741658 L 929.1395889325024 166.88197277450138 L 928.8701222938816 166.8567463537183 L 928.6012271581851 166.83030307768843 L 928.3329304147024 166.8026455907173 L 928.0652588928842 166.7737766585306 L 927.7982393596595 166.74369916799745 L 927.5318985167594 166.71241612684187 L 927.266262998046 166.67993066334188 L 927.00135936685 166.64624602601677 L 926.7372141133135 166.61136558330222 L 926.4738536517419 166.5752928232134 L 926.211304317962 166.53803135299628 L 925.9495923666882 166.4995848987668 L 925.6887439688976 166.4599573051384 L 925.4287852092127 166.4191525348374 L 925.1697420832926 166.37717466830682 L 924.9116404952343 166.3340279032983 L 924.6545062549814 166.28971655445244 L 924.3983650757435 166.24424505286714 L 924.1432425714253 166.19761794565474 L 923.8891642540646 166.14983989548705 L 923.6361555312811 166.10091568012928 L 923.3842417037367 166.05085019196218 L 923.133447962604 165.99964843749288 L 922.8837993870482 165.94731553685415 L 922.6353209417186 165.89385672329246 L 922.3880374742529 165.83927734264458 L 922.1419737127917 165.7835828528031 L 921.8971542635061 165.7267788231706 L 921.6536036081369 165.66887093410273 L 921.4113461015469 165.6098649763401 L 921.1704059692846 165.54976685042934 L 920.9308073051627 165.48858256613295 L 920.6925740688479 165.42631824182837 L 920.4557300834653 165.36298010389615 L 920.2202990332158 165.29857448609732 L 919.9863044610087 165.23310782893995 L 919.7537697661058 165.16658667903522 L 919.522718201783 165.0990176884427 L 919.2931728730043 165.0304076140051 L 919.0651567341112 164.96076331667274 L 918.8386925865274 164.89009176081728 L 918.6138030764791 164.81840001353544 L 918.39051069273 164.74569524394218 L 918.1688377643322 164.67198472245389 L 917.948806458394 164.59727582006127 L 917.7304387778624 164.52157600759236 L 917.5137565593237 164.44489285496525 L 917.2987814708191 164.36723403043135 L 917.0855350096783 164.28860729980835 L 916.8740385003697 164.20902052570386 L 916.6643130923679 164.1284816667289 L 916.4563797580392 164.0469987767023 L 916.2502592905436 163.96458000384513 L 916.0459723017559 163.88123358996603 L 915.843539220205 163.7969678696369 L 915.6429802890302 163.71179126935954 L 915.4443155639576 163.62571230672302 L 915.2475649112941 163.53873958955188 L 915.0527480059411 163.45088181504536 L 914.8598843294267 163.36214776890768 L 914.6689931679578 163.2725463244695 L 914.4800936104914 163.1820864418006 L 914.293204546826 163.09077716681392 L 914.1083446657123 162.9986276303608 L 913.925532452984 162.9056470473181 L 913.7447861897105 162.81184471566667 L 913.5661239503671 162.7172300155615 L 913.3895636010291 162.62181240839377 L 913.2151227975841 162.52560143584464 L 913.0428189839672 162.42860671893118 L 912.8726693904163 162.33083795704434 L 912.7046910317488 162.23230492697874 L 912.5389007056605 162.13301748195533 L 912.375314991046 162.03298555063586 L 912.2139502463405 161.93221913613007 L 912.0548226078838 161.8307283149955 L 911.8979479883074 161.72852323622965 L 911.7433420749422 161.62561412025525 L 911.591020328251 161.5220112578981 L 911.4409979802814 161.41772500935812 L 911.2932900331431 161.31276580317328 L 911.1479112575079 161.20714413517672 L 911.0048761911321 161.1008705674472 L 910.8641991374031 160.99395572725297 L 910.7258941639093 160.8864103059889 L 910.5899751010325 160.77824505810756 L 910.4564555405658 160.66947080004357 L 910.325348834354 160.56009840913205 L 910.1966680929585 160.45013882252104 L 910.0704261843462 160.33960303607748 L 909.9466357326028 160.22850210328795 L 909.8253091166702 160.11684713415315 L 909.7064584691088 160.00464929407693 L 909.5900956748847 159.89191980274978 L 909.47623237018 159.77866993302692 L 909.3648799412305 159.66491100980096 L 909.2560495231861 159.55065440886938 L 909.149751998998 159.4359115557971 L 909.0459979983301 159.3206939247738 L 908.944797896496 159.20501303746653 L 908.8461618134214 159.08888046186766 L 908.7500996126325 158.972307811138 L 908.6566209002694 158.8553067424454 L 908.5657350241255 158.7378889557993 L 908.4774510727125 158.62006619288047 L 908.391777874352 158.50185023586704 L 908.3087239962924 158.38325290625622 L 908.2282977438524 158.26428606368208 L 908.1505071595902 158.1449616047298 L 908.0753600224995 158.02529146174578 L 908.0028638472312 157.90528760164466 L 907.9330258833425 157.7849620247124 L 907.8658531145716 157.66432676340642 L 907.8013522581393 157.54339388115235 L 907.7395297640777 157.42217547113762 L 907.6803918145845 157.30068365510223 L 907.6239443234055 157.17893058212653 L 907.5701929352425 157.05692842741635 L 907.5191430251899 156.9346893910855 L 907.470799698196 156.81222569693574 L 907.4251677885532 156.68954959123448 L 907.3822518594144 156.56667334149 L 907.3420562023368 156.4436092352249 L 907.3045848368527 156.32036957874723 L 907.2698415100672 156.19696669592 L 907.2378296962843 156.0734129269286 L 907.2085525966584 155.949720627047 L 907.1820131388753 155.82590216540208 L 907.1582139768586 155.70196992373684 L 907.1371574905047 155.57793629517218 L 907.1188457854446 155.4538136829676 L 907.1032806928336 155.32961449928086 L 907.090463769168 155.20535116392685 L 907.0803962961294 155.08103610313552 L 907.0730792804568 154.9566817483094 L 907.0685134538456 154.83230053478033 L 907.0666992728749 154.70790490056598" stroke-miterlimit="10" stroke-width="3.2042129550000005" stroke-dasharray=""/></g><g><g/><text fill="black" stroke="none" font-family="sans-serif" font-size="11pt" font-style="normal" font-weight="normal" text-decoration="normal" x="904.988031193125" y="187.35221631000002" text-anchor="start" dominant-baseline="alphabetic" xml:space="preserve">Postgres</text></g><g><path fill="white" stroke="#888888" paint-order="fill stroke markers" d=" M 1072.272114669375 138.91205575499998 A 27.989742577500003 27.989742577500003 0 1 1 1072.2721006745048 138.88406601708743 M 999.0464244918751 109.32020669999997 L 999.0464244918751 168.50390481 M 997.4443180143751 138.91205575499998 L 1016.292629514375 138.91205575499998" stroke-miterlimit="10" stroke-width="3.2042129550000005" stroke-dasharray=""/></g><g><g/><text fill="black" stroke="none" font-family="sans-serif" font-size="11pt" font-style="normal" font-weight="normal" text-decoration="normal" x="1011.098450716875" y="187.35221631000002" text-anchor="start" dominant-baseline="alphabetic" xml:space="preserve">VEText</text></g><path fill="none" stroke="none"/><g><path fill="white" stroke="#888888" paint-order="fill stroke markers" d=" M 1187.6397033300002 142.11626870999999 L 1311.0771603787502 142.11626870999999 L 1311.0771603787502 193.00670975999998 L 1187.6397033300002 193.00670975999998 L 1187.6397033300002 142.11626870999999 Z" stroke-miterlimit="10" stroke-width="3.01572984" stroke-dasharray=""/></g><g><g/><text fill="black" stroke="none" font-family="sans-serif" font-size="11pt" font-style="normal" font-weight="normal" text-decoration="normal" x="1208.0901213075" y="174.15839826" text-anchor="start" dominant-baseline="alphabetic" xml:space="preserve">Push Server</text></g><g><path fill="white" stroke="#888888" paint-order="fill stroke markers" d=" M 1428.1940508781252 113.27835211499999 A 10.743537555 10.743537555 0 1 1 1428.1940455063568 113.26760857923557 M 1417.450513323125 124.02188966999998 L 1417.450513323125 147.0168297 M 1403.879729043125 132.31514672999998 L 1431.021297603125 132.31514672999998 M 1417.450513323125 147.0168297 L 1403.879729043125 168.50390481 M 1417.450513323125 147.0168297 L 1431.021297603125 168.50390481" stroke-miterlimit="10" stroke-width="3.2042129550000005" stroke-dasharray=""/></g><g><g/><text fill="black" stroke="none" font-family="sans-serif" font-size="11pt" font-style="normal" font-weight="normal" text-decoration="normal" x="1379.928540666875" y="187.35221631000002" text-anchor="start" dominant-baseline="alphabetic" xml:space="preserve">Mobile App</text></g></g><g><path fill="white" stroke="black" paint-order="fill stroke markers" d=" M 82.56711719625 202.43086551 L 101.41542869624999 202.43086551 L 101.41542869624999 1165.5795831600003 L 82.56711719625 1165.5795831600003 L 82.56711719625 202.43086551" stroke-miterlimit="10" stroke-width="1.5706926250000002" stroke-dasharray=""/><path fill="white" stroke="black" paint-order="fill stroke markers" d=" M 280.92075675875003 202.43086551 L 299.76906825875005 202.43086551 L 299.76906825875005 321.17522796000003 L 280.92075675875003 321.17522796000003 L 280.92075675875003 202.43086551" stroke-miterlimit="10" stroke-width="1.5706926250000002" stroke-dasharray=""/><path fill="white" stroke="black" paint-order="fill stroke markers" d=" M 553.2108362743751 202.43086551 L 572.059147774375 202.43086551 L 572.059147774375 1165.5795831600003 L 553.2108362743751 1165.5795831600003 L 553.2108362743751 202.43086551" stroke-miterlimit="10" stroke-width="1.5706926250000002" stroke-dasharray=""/><path fill="white" stroke="black" paint-order="fill stroke markers" d=" M 1239.9342761043752 202.43086551 L 1258.782587604375 202.43086551 L 1258.782587604375 1165.5795831600003 L 1239.9342761043752 1165.5795831600003 L 1239.9342761043752 202.43086551" stroke-miterlimit="10" stroke-width="1.5706926250000002" stroke-dasharray=""/><path fill="white" stroke="black" paint-order="fill stroke markers" d=" M 730.7051008368751 307.98140991 L 749.553412336875 307.98140991 L 749.553412336875 997.8296108100002 L 730.7051008368751 997.8296108100002 L 730.7051008368751 307.98140991" stroke-miterlimit="10" stroke-width="1.5706926250000002" stroke-dasharray=""/><path fill="white" stroke="black" paint-order="fill stroke markers" d=" M 1025.434060591875 635.94203001 L 1044.282372091875 635.94203001 L 1044.282372091875 1050.60488301 L 1025.434060591875 1050.60488301 L 1025.434060591875 635.94203001" stroke-miterlimit="10" stroke-width="1.5706926250000002" stroke-dasharray=""/><g><text fill="black" stroke="none" font-family="sans-serif" font-size="11pt" font-style="normal" font-weight="normal" text-decoration="normal" x="126.54651069625001" y="247.66681311" text-anchor="start" dominant-baseline="alphabetic" xml:space="preserve">send new message</text></g><g><path fill="none" stroke="black" paint-order="fill stroke markers" d=" M 101.41542869624999 255.20613771 L 265.40231362375005 255.20613771" stroke-miterlimit="10" stroke-width="1.5706926250000002" stroke-dasharray=""/><g transform="translate(280.92075675875003,255.20613771) translate(-280.92075675875003,-255.20613771)"><path fill="black" stroke="none" paint-order="stroke fill markers" d=" M 265.21383050875005 247.35267458500002 L 280.92075675875003 255.20613771 L 265.21383050875005 263.059600835 Z"/></g></g><g><text fill="black" stroke="none" font-family="sans-serif" font-size="11pt" font-style="normal" font-weight="normal" text-decoration="normal" x="365.61837023531257" y="300.44208531000004" text-anchor="start" dominant-baseline="alphabetic" xml:space="preserve">add new message</text></g><g><path fill="none" stroke="black" paint-order="fill stroke markers" d=" M 299.76906825875005 307.98140991 L 550.8547973368751 307.98140991" stroke-miterlimit="10" stroke-width="1.5706926250000002" stroke-dasharray=""/><g transform="translate(553.2108362743751,307.98140991) translate(-553.2108362743751,-307.98140991)"><path fill="none" stroke="black" paint-order="fill stroke markers" d=" M 537.0624773708512 300.77748973428066 L 551.4451056602795 307.98140991 L 537.0624773708512 315.1853300857194" stroke-miterlimit="10" stroke-width="1.5706926250000002"/></g></g><g><g><rect fill="rgb(255,252,246)" stroke="none" x="608.53900844" y="387.14431821000005" width="85.68623173125" height="24.50280495"/></g><text fill="black" stroke="none" font-family="sans-serif" font-size="11pt" font-style="normal" font-weight="normal" text-decoration="normal" x="611.366255165" y="404.10779856000005" text-anchor="start" dominant-baseline="alphabetic" xml:space="preserve">read stream</text></g><g><path fill="none" stroke="black" paint-order="fill stroke markers" d=" M 730.7051008368751 411.64712316000004 L 587.577590909375 411.64712316000004" stroke-miterlimit="10" stroke-width="1.5706926250000002" stroke-dasharray=""/><g transform="translate(572.059147774375,411.64712316000004) translate(-572.059147774375,-411.64712316000004)"><path fill="black" stroke="none" paint-order="stroke fill markers" d=" M 587.766074024375 403.793660035 L 572.059147774375 411.64712316000004 L 587.766074024375 419.50058628500005 Z"/></g></g><g><g><rect fill="rgb(255,252,246)" stroke="none" x="594.362983049375" y="439.91959041000007" width="114.0382825125" height="24.50280495"/></g><text fill="black" stroke="none" font-family="sans-serif" font-size="11pt" font-style="normal" font-weight="normal" text-decoration="normal" x="597.190229774375" y="456.88307076000007" text-anchor="start" dominant-baseline="alphabetic" xml:space="preserve">latest messages</text></g><g><path fill="none" stroke="black" paint-order="fill stroke markers" d=" M 572.059147774375 464.42239536000005 L 715.1866577018751 464.42239536000005" stroke-miterlimit="10" stroke-width="1.5706926250000002" stroke-dasharray="7.5393246000000005"/><g transform="translate(730.7051008368751,464.42239536000005) translate(-730.7051008368751,-464.42239536000005)"><path fill="black" stroke="none" paint-order="stroke fill markers" d=" M 714.998174586875 456.56893223500003 L 730.7051008368751 464.42239536000005 L 714.998174586875 472.2758584850001 Z"/></g></g><g><text fill="black" stroke="none" font-family="sans-serif" font-size="11pt" font-style="normal" font-weight="normal" text-decoration="normal" x="807.469696374375" y="537.93081021" text-anchor="start" dominant-baseline="alphabetic" xml:space="preserve">store copy</text></g><g><path fill="none" stroke="black" paint-order="fill stroke markers" d=" M 749.553412336875 545.47013481 L 919.066756026875 545.47013481" stroke-miterlimit="10" stroke-width="1.5706926250000002" stroke-dasharray=""/><g transform="translate(934.585199161875,545.47013481) translate(-934.585199161875,-545.47013481)"><path fill="black" stroke="none" paint-order="stroke fill markers" d=" M 918.878272911875 537.616671685 L 934.585199161875 545.47013481 L 918.878272911875 553.323597935 Z"/></g></g><path fill="white" stroke="black" paint-order="fill stroke markers" d=" M 749.553412336875 604.8423160350001 L 758.977568086875 604.8423160350001 M 758.977568086875 573.7426020600001 L 908.1975630618749 573.7426020600001 L 925.161043411875 590.7060824100001 L 925.161043411875 635.94203001 L 758.977568086875 635.94203001 L 758.977568086875 573.7426020600001 M 908.1975630618749 573.7426020600001 L 908.1975630618749 590.7060824100001 L 925.161043411875 590.7060824100001" stroke-miterlimit="10" stroke-width="1.5706926250000002" stroke-dasharray=""/><g><text fill="black" stroke="none" font-family="sans-serif" font-size="11pt" font-style="normal" font-weight="normal" text-decoration="normal" x="785.365204186875" y="600.1302381600001" text-anchor="start" dominant-baseline="alphabetic" xml:space="preserve">stop if user is not</text><text fill="black" stroke="none" font-family="sans-serif" font-size="11pt" font-style="normal" font-weight="normal" text-decoration="normal" x="785.365204186875" y="618.9785496600001" text-anchor="start" dominant-baseline="alphabetic" xml:space="preserve">using mobile app</text></g><g><g><rect fill="rgb(219,237,224)" stroke="none" x="860.899399895625" y="715.1049383100001" width="53.188673137500004" height="24.50280495"/></g><text fill="black" stroke="none" font-family="sans-serif" font-size="11pt" font-style="normal" font-weight="normal" text-decoration="normal" x="863.726646620625" y="732.0684186600001" text-anchor="start" dominant-baseline="alphabetic" xml:space="preserve">publish</text></g><g><path fill="none" stroke="black" paint-order="fill stroke markers" d=" M 749.553412336875 739.6077432600001 L 1009.9156174568751 739.6077432600001" stroke-miterlimit="10" stroke-width="1.5706926250000002" stroke-dasharray=""/><g transform="translate(1025.434060591875,739.6077432600001) translate(-1025.434060591875,-739.6077432600001)"><path fill="black" stroke="none" paint-order="stroke fill markers" d=" M 1009.7271343418751 731.7542801350002 L 1025.434060591875 739.6077432600001 L 1009.7271343418751 747.4612063850001 Z"/></g></g><g><g><rect fill="rgb(219,237,224)" stroke="none" x="1066.586207366875" y="767.8802105100002" width="162.42939579375" height="24.50280495"/></g><text fill="black" stroke="none" font-family="sans-serif" font-size="11pt" font-style="normal" font-weight="normal" text-decoration="normal" x="1069.4134540918749" y="784.8436908600003" text-anchor="start" dominant-baseline="alphabetic" xml:space="preserve">lookup push preference</text></g><g><path fill="none" stroke="black" paint-order="fill stroke markers" d=" M 1044.282372091875 792.3830154600001 L 1119.675618091875 792.3830154600001 L 1119.675618091875 816.8858204100002 L 1059.800815226875 816.8858204100002" stroke-miterlimit="10" stroke-width="1.5706926250000002" stroke-dasharray=""/><g transform="translate(1044.282372091875,816.8858204100002) translate(-1044.282372091875,-816.8858204100002)"><path fill="black" stroke="none" paint-order="stroke fill markers" d=" M 1059.989298341875 809.0323572850002 L 1044.282372091875 816.8858204100002 L 1059.989298341875 824.7392835350001 Z"/></g></g><path fill="white" stroke="black" paint-order="fill stroke markers" d=" M 1044.282372091875 876.2580016350003 L 1053.706527841875 876.2580016350003 M 1053.706527841875 845.1582876600003 L 1213.546640004375 845.1582876600003 L 1230.510120354375 862.1217680100003 L 1230.510120354375 907.3577156100002 L 1053.706527841875 907.3577156100002 L 1053.706527841875 845.1582876600003 M 1213.546640004375 845.1582876600003 L 1213.546640004375 862.1217680100003 L 1230.510120354375 862.1217680100003" stroke-miterlimit="10" stroke-width="1.5706926250000002" stroke-dasharray=""/><g><text fill="black" stroke="none" font-family="sans-serif" font-size="11pt" font-style="normal" font-weight="normal" text-decoration="normal" x="1080.094163941875" y="871.5459237600003" text-anchor="start" dominant-baseline="alphabetic" xml:space="preserve">stop if push</text><text fill="black" stroke="none" font-family="sans-serif" font-size="11pt" font-style="normal" font-weight="normal" text-decoration="normal" x="1080.094163941875" y="890.3942352600003" text-anchor="start" dominant-baseline="alphabetic" xml:space="preserve">preference is "NO"</text></g><g><g><rect fill="rgb(219,237,224)" stroke="none" x="1066.586207366875" y="935.6301828600002" width="111.55537235625" height="24.50280495"/></g><text fill="black" stroke="none" font-family="sans-serif" font-size="11pt" font-style="normal" font-weight="normal" text-decoration="normal" x="1069.4134540918749" y="952.5936632100003" text-anchor="start" dominant-baseline="alphabetic" xml:space="preserve">lookup template</text></g><g><path fill="none" stroke="black" paint-order="fill stroke markers" d=" M 1044.282372091875 960.1329878100001 L 1119.675618091875 960.1329878100001 L 1119.675618091875 984.6357927600002 L 1059.800815226875 984.6357927600002" stroke-miterlimit="10" stroke-width="1.5706926250000002" stroke-dasharray=""/><g transform="translate(1044.282372091875,984.6357927600002) translate(-1044.282372091875,-984.6357927600002)"><path fill="black" stroke="none" paint-order="stroke fill markers" d=" M 1059.989298341875 976.7823296350002 L 1044.282372091875 984.6357927600002 L 1059.989298341875 992.4892558850001 Z"/></g></g><g><g><rect fill="rgb(219,237,224)" stroke="none" x="1115.5139875293753" y="1012.9082600100002" width="53.188673137500004" height="24.50280495"/></g><text fill="black" stroke="none" font-family="sans-serif" font-size="11pt" font-style="normal" font-weight="normal" text-decoration="normal" x="1118.3412342543752" y="1029.87174036" text-anchor="start" dominant-baseline="alphabetic" xml:space="preserve">publish</text></g><g><path fill="none" stroke="black" paint-order="fill stroke markers" d=" M 1044.282372091875 1037.4110649600002 L 1224.415832969375 1037.4110649600002" stroke-miterlimit="10" stroke-width="1.5706926250000002" stroke-dasharray=""/><g transform="translate(1239.9342761043752,1037.4110649600002) translate(-1239.9342761043752,-1037.4110649600002)"><path fill="black" stroke="none" paint-order="stroke fill markers" d=" M 1224.2273498543752 1029.5576018350002 L 1239.9342761043752 1037.4110649600002 L 1224.2273498543752 1045.2645280850002 Z"/></g></g><g><g><rect fill="rgb(219,237,224)" stroke="none" x="1281.0864228793753" y="1065.6835322100003" width="114.06025516875" height="24.50280495"/></g><text fill="black" stroke="none" font-family="sans-serif" font-size="11pt" font-style="normal" font-weight="normal" text-decoration="normal" x="1283.9136696043752" y="1082.6470125600001" text-anchor="start" dominant-baseline="alphabetic" xml:space="preserve">push notification</text></g><g><path fill="none" stroke="black" paint-order="fill stroke markers" d=" M 1258.782587604375 1090.1863371600002 L 1401.932070188125 1090.1863371600002" stroke-miterlimit="10" stroke-width="1.5706926250000002" stroke-dasharray=""/><g transform="translate(1417.450513323125,1090.1863371600002) translate(-1417.450513323125,-1090.1863371600002)"><path fill="black" stroke="none" paint-order="stroke fill markers" d=" M 1401.7435870731251 1082.3328740350003 L 1417.450513323125 1090.1863371600002 L 1401.7435870731251 1098.0398002850002 Z"/></g></g><g><g/><path fill="none" stroke="black" paint-order="fill stroke markers" d=" M 487.241746024375 336.25387716 L 806.0983468368751 336.25387716 L 806.0983468368751 492.69486261000003 L 487.241746024375 492.69486261000003 L 487.241746024375 336.25387716 Z" stroke-miterlimit="10" stroke-width="2.6926159285714286" stroke-dasharray=""/><path fill="#fff1d2" stroke="black" paint-order="fill stroke markers" d=" M 487.241746024375 336.25387716 L 487.241746024375 358.87185096 L 550.262587774375 358.87185096 L 561.571574674375 347.56286406 L 561.571574674375 336.25387716 L 487.241746024375 336.25387716" stroke-miterlimit="10" stroke-width="2.6926159285714286" stroke-dasharray=""/><text fill="black" stroke="none" font-family="sans-serif" font-size="8.8pt" font-style="normal" font-weight="bold" text-decoration="normal" x="506.090057524375" y="351.33252636000003" text-anchor="start" dominant-baseline="alphabetic" xml:space="preserve">loop</text><text fill="black" stroke="none" font-family="sans-serif" font-size="8.8pt" font-style="normal" font-weight="bold" text-decoration="normal" x="580.419886174375" y="351.33252636000003" text-anchor="start" dominant-baseline="alphabetic" xml:space="preserve">[forever]</text></g><g><g/><path fill="none" stroke="black" paint-order="fill stroke markers" d=" M 674.160166336875 664.2144972600001 L 1483.419603573125 664.2144972600001 L 1483.419603573125 1118.4588044100003 L 674.160166336875 1118.4588044100003 L 674.160166336875 664.2144972600001 Z" stroke-miterlimit="10" stroke-width="2.6926159285714286" stroke-dasharray=""/><path fill="#4aa564" stroke="black" paint-order="fill stroke markers" d=" M 674.160166336875 664.2144972600001 L 674.160166336875 686.8324710600001 L 834.5638205868751 686.8324710600001 L 845.8728074868751 675.5234841600002 L 845.8728074868751 664.2144972600001 L 674.160166336875 664.2144972600001" stroke-miterlimit="10" stroke-width="2.6926159285714286" stroke-dasharray=""/><text fill="white" stroke="none" font-family="sans-serif" font-size="8.8pt" font-style="normal" font-weight="bold" text-decoration="normal" x="693.008477836875" y="679.2931464600001" text-anchor="start" dominant-baseline="alphabetic" xml:space="preserve">user uses mobile app</text></g></g><g/><g/><g/><g/><g/><g/><g/><g/></g></svg>