<?xml version="1.0" encoding="UTF-8"?>
<svg width="9px" height="11px" viewBox="0 0 9 11" version="1.1" xmlns="http://www.w3.org/2000/svg" xmlns:xlink="http://www.w3.org/1999/xlink">
    <!-- Generator: Sketch 46.2 (44496) - http://www.bohemiancoding.com/sketch -->
    <title>lock-icon</title>
    <desc>Created with Sketch.</desc>
    <defs></defs>
    <g id="Round-3-mockups" stroke="none" stroke-width="1" fill="none" fill-rule="evenodd">
        <g id="lock-icon" fill="#323A45">
            <path d="M2.50000298,5.00000596 L6.50000775,5.00000596 L6.50000775,3.50000417 C6.50000775,2.39844036 5.60156918,1.50000179 4.50000536,1.50000179 C3.39844155,1.50000179 2.50000298,2.39844036 2.50000298,3.50000417 L2.50000298,5.00000596 Z M9.00001073,5.75000685 L9.00001073,10.2500122 C9.00001073,10.6640752 8.66407283,11.0000131 8.25000983,11.0000131 L0.750000894,11.0000131 C0.3359379,11.0000131 0,10.6640752 0,10.2500122 L0,5.75000685 C0,5.33594386 0.3359379,5.00000596 0.750000894,5.00000596 L1.00000119,5.00000596 L1.00000119,3.50000417 C1.00000119,1.57812688 2.57812807,0 4.50000536,0 C6.42188266,0 8.00000954,1.57812688 8.00000954,3.50000417 L8.00000954,5.00000596 L8.25000983,5.00000596 C8.66407283,5.00000596 9.00001073,5.33594386 9.00001073,5.75000685 Z" id=""></path>
        </g>
    </g>
</svg>