<svg version="1.1" xmlns="http://www.w3.org/2000/svg" xmlns:xlink="http://www.w3.org/1999/xlink" width="2117" height="811"><desc>title%20Migration%20of%20Legacy%20Messages%0A%0Aparticipant%20va.gov%0Aparticipant%20MHV%20SM%20RESTful%20API%0Aparticipant%20SM%20Exchange%20Create%20Session%20Listener%0Aparticipant%20OH%20FHIR%20APIs%0Aparticipant%20OH%20Messaging%20API%0Adatabase%20SM%20Exchange%20Queue%0Aparticipant%20SM%20Exchange%20Message%20Processor%0A%0Abox%20over%20va.gov%3A%20Patient%20logs%20in%20for%20the%20first%20time%0A%0Ava.gov%20-%3E%20MHV%20SM%20RESTful%20API%3A%20Notifies%20API%20that%20a%20first%20time%20user%20logs%20in%0A%0A%0Abox%20over%20va.gov%3A%20QUESTION%3A%20How%20are%20we%20deciding%20if%20this%20the%20user's%20first%20time%3F%0A%0Abox%20over%20va.gov%3A%20Display%20a%20'loading%20message%20from%20before%20x%20date%2C%20check%20back%20later%20when%20its%20complete'%0A%0AMHV%20SM%20RESTful%20API%20-%3ESM%20Exchange%20Create%20Session%20Listener%3A%20Sends%20Patient%20ID%0A%0Abox%20over%20SM%20Exchange%20Create%20Session%20Listener%3A%20Queries%20for%20all%20message%20ids%20for%20a%20Patient%3B%20aims%20to%20replicate%20the%20ATOM%20feed%20inputs%0A%0ASM%20Exchange%20Create%20Session%20Listener%20-%3EOH%20Messaging%20API%3A%20Queries%20for%20all%20message%20ids%0A%0Abox%20over%20SM%20Exchange%20Create%20Session%20Listener%3A%20This%20could%20be%20some%20queue%2Floop%20depending%20on%20how%20many%20messages%20we%20can%20query%20for%0A%0Abox%20over%20SM%20Exchange%20Create%20Session%20Listener%3A%20TODO%3A%20figure%20out%20if%20order%20matters%20when%20it%20comes%20to%20threading%0A%0ASM%20Exchange%20Create%20Session%20Listener%20-%3ESM%20Exchange%20Queue%3A%20Insert%20each%20message%20into%20the%20queue%20%0A%0Abox%20over%20SM%20Exchange%20Queue%3A%20Treats%20each%20message%20as%20a%20normal%20message%20from%20OH%2C%20See%20other%20sequence%20diagram</desc><defs/><g><g/><g/><g/><g/><g/><g/><g/><g/><g/><g/><g/><g><rect fill="white" stroke="none" x="0" y="0" width="2117" height="811"/></g><g><text fill="black" stroke="none" font-family="sans-serif" font-size="16.5pt" font-style="normal" font-weight="normal" text-decoration="normal" x="909.3398852343632" y="24.50280495" text-anchor="start" dominant-baseline="alphabetic" xml:space="preserve">Migration of Legacy Messages</text></g><g/><g><path fill="none" stroke="black" paint-order="fill stroke markers" d=" M 300.70030790085934 128.884754037 L 300.70030790085934 811.6962519769999" stroke-miterlimit="10" stroke-width="1.3612669416666667" stroke-dasharray="12.565541,5.445067766666667"/><path fill="none" stroke="black" paint-order="fill stroke markers" d=" M 601.4006158017187 128.884754037 L 601.4006158017187 811.6962519769999" stroke-miterlimit="10" stroke-width="1.3612669416666667" stroke-dasharray="12.565541,5.445067766666667"/><path fill="none" stroke="black" paint-order="fill stroke markers" d=" M 907.8883992885155 128.884754037 L 907.8883992885155 811.6962519769999" stroke-miterlimit="10" stroke-width="1.3612669416666667" stroke-dasharray="12.565541,5.445067766666667"/><path fill="none" stroke="black" paint-order="fill stroke markers" d=" M 1214.3761827753124 128.884754037 L 1214.3761827753124 811.6962519769999" stroke-miterlimit="10" stroke-width="1.3612669416666667" stroke-dasharray="12.565541,5.445067766666667"/><path fill="none" stroke="black" paint-order="fill stroke markers" d=" M 1376.1372928613123 128.884754037 L 1376.1372928613123 811.6962519769999" stroke-miterlimit="10" stroke-width="1.3612669416666667" stroke-dasharray="12.565541,5.445067766666667"/><path fill="none" stroke="black" paint-order="fill stroke markers" d=" M 1677.4281464164685 128.884754037 L 1677.4281464164685 811.6962519769999" stroke-miterlimit="10" stroke-width="1.3612669416666667" stroke-dasharray="12.565541,5.445067766666667"/><path fill="none" stroke="black" paint-order="fill stroke markers" d=" M 1978.7189999716247 128.884754037 L 1978.7189999716247 811.6962519769999" stroke-miterlimit="10" stroke-width="1.3612669416666667" stroke-dasharray="12.565541,5.445067766666667"/></g><g><path fill="none" stroke="none"/><g><path fill="white" stroke="black" paint-order="fill stroke markers" d=" M 261.380344620164 84.779705127 L 340.0202711815547 84.779705127 L 340.0202711815547 128.884754037 L 261.380344620164 128.884754037 L 261.380344620164 84.779705127 Z" stroke-miterlimit="10" stroke-width="2.613632528" stroke-dasharray=""/></g><g><g/><text fill="black" stroke="none" font-family="sans-serif" font-size="11pt" font-style="normal" font-weight="normal" text-decoration="normal" x="279.10404020066403" y="112.549550737" text-anchor="start" dominant-baseline="alphabetic" xml:space="preserve">va.gov</text></g><path fill="none" stroke="none"/><g><path fill="white" stroke="black" paint-order="fill stroke markers" d=" M 511.17872075832804 84.779705127 L 691.6225108451093 84.779705127 L 691.6225108451093 128.884754037 L 511.17872075832804 128.884754037 L 511.17872075832804 84.779705127 Z" stroke-miterlimit="10" stroke-width="2.613632528" stroke-dasharray=""/></g><g><g/><text fill="black" stroke="none" font-family="sans-serif" font-size="11pt" font-style="normal" font-weight="normal" text-decoration="normal" x="528.9024163388281" y="112.549550737" text-anchor="start" dominant-baseline="alphabetic" xml:space="preserve">MHV SM RESTful API</text></g><path fill="none" stroke="none"/><g><path fill="white" stroke="black" paint-order="fill stroke markers" d=" M 764.2664035371171 84.779705127 L 1051.5103950399139 84.779705127 L 1051.5103950399139 128.884754037 L 764.2664035371171 128.884754037 L 764.2664035371171 84.779705127 Z" stroke-miterlimit="10" stroke-width="2.613632528" stroke-dasharray=""/></g><g><g/><text fill="black" stroke="none" font-family="sans-serif" font-size="11pt" font-style="normal" font-weight="normal" text-decoration="normal" x="781.9900991176171" y="112.549550737" text-anchor="start" dominant-baseline="alphabetic" xml:space="preserve">SM Exchange Create Session Listener</text></g><path fill="none" stroke="none"/><g><path fill="white" stroke="black" paint-order="fill stroke markers" d=" M 1149.0039505126836 84.779705127 L 1279.7484150379414 84.779705127 L 1279.7484150379414 128.884754037 L 1149.0039505126836 128.884754037 L 1149.0039505126836 84.779705127 Z" stroke-miterlimit="10" stroke-width="2.613632528" stroke-dasharray=""/></g><g><g/><text fill="black" stroke="none" font-family="sans-serif" font-size="11pt" font-style="normal" font-weight="normal" text-decoration="normal" x="1166.7276460931835" y="112.549550737" text-anchor="start" dominant-baseline="alphabetic" xml:space="preserve">OH FHIR APIs</text></g><path fill="none" stroke="none"/><g><path fill="white" stroke="black" paint-order="fill stroke markers" d=" M 1296.0836183379413 84.779705127 L 1456.1909673846835 84.779705127 L 1456.1909673846835 128.884754037 L 1296.0836183379413 128.884754037 L 1296.0836183379413 84.779705127 Z" stroke-miterlimit="10" stroke-width="2.613632528" stroke-dasharray=""/></g><g><g/><text fill="black" stroke="none" font-family="sans-serif" font-size="11pt" font-style="normal" font-weight="normal" text-decoration="normal" x="1313.8073139184412" y="112.549550737" text-anchor="start" dominant-baseline="alphabetic" xml:space="preserve">OH Messaging API</text></g><g><path fill="white" stroke="black" paint-order="fill stroke markers" d=" M 1653.5787495984684 96.867755569 L 1653.5787495984684 62.563828639 L 1701.2775432344686 62.563828639 L 1701.2775432344686 96.867755569" stroke-miterlimit="10" stroke-width="2.7769845610000004" stroke-dasharray=""/><path fill="white" stroke="black" paint-order="fill stroke markers" d=" M 1701.2775432344686 61.3713587981 L 1701.276350774565 61.47916934301662 L 1701.2727735140988 61.58696910696859 L 1701.2668118107933 61.69474731006935 L 1701.2584662608142 61.8024931745884 L 1701.247737698709 61.91019592602908 L 1701.2346271973252 62.017844794206 L 1701.2191360677018 62.125429014322044 L 1701.2012658589392 62.232937828044854 L 1701.1810183580433 62.34036048458265 L 1701.158395589747 62.44768624175929 L 1701.1333998163086 62.55490436708851 L 1701.1060335372847 62.66200413884712 L 1701.07629948928 62.76897484714718 L 1701.044200645675 62.87580579500701 L 1701.0097402163267 62.982486299420856 L 1700.97292164725 63.08900569242717 L 1700.9337486202708 63.19535332217542 L 1700.892225052659 63.30151855399125 L 1700.848355096737 63.40749077143996 L 1700.8021431394636 63.5132593773881 L 1700.7535938019962 63.618813795063225 L 1700.7027119392283 63.724143469111524 L 1700.6495026393031 63.82923786665337 L 1700.593971223107 63.93408647833659 L 1700.5361232437351 64.03867881938739 L 1700.4759644859369 64.1430044306588 L 1700.413500965538 64.24705287967667 L 1700.348738928839 64.35081376168277 L 1700.281684851989 64.45427670067541 L 1700.21234544034 64.55743135044686 L 1700.1407276277755 64.66026739561813 L 1700.0668385760168 64.7627745526704 L 1699.9906856739076 64.86494257097338 L 1699.9122765366749 64.96676123381039 L 1699.8316190051669 65.06822035939997 L 1699.7487211450693 65.16930980191414 L 1699.6635912460995 65.27001945249287 L 1699.5762378211762 65.37033924025505 L 1699.486669605569 65.47025913330548 L 1699.3948955560247 65.56976913973813 L 1699.3009248498724 65.66885930863528 L 1699.204766884104 65.7675197310626 L 1699.1064312744356 65.86574054106009 L 1699.005927854347 65.96351191662859 L 1698.9032666740957 66.06082408071202 L 1698.7984579997146 66.15766730217506 L 1698.6915123119838 66.25403189677627 L 1698.582440305383 66.3499082281365 L 1698.4712528870216 66.4452867087025 L 1698.357961175549 66.54015780070569 L 1698.242576500042 66.63451201711595 L 1698.125110398872 66.72833992259025 L 1698.0055746185512 66.82163213441623 L 1697.8839811125579 66.91437932345046 L 1697.7603420401415 67.00657221505134 L 1697.634669765106 67.0982015900065 L 1697.5069768545745 67.18925828545483 L 1697.3772760777317 67.27973319580266 L 1697.2455804045467 67.36961727363435 L 1697.1119030044774 67.45890153061701 L 1696.9762572451525 67.54757703839935 L 1696.8386566910347 67.6356349295045 L 1696.6991151020648 67.72306639821673 L 1696.5576464322855 67.80986270146201 L 1696.4142648284458 67.89601515968236 L 1696.2689846285864 67.98151515770375 L 1696.1218203606068 68.06635414559763 L 1695.9727867408105 68.15052363953589 L 1695.8218986724357 68.2340152226393 L 1695.6691712441634 68.31682054581911 L 1695.514619728609 68.39893132861202 L 1695.3582595807954 68.48033936000816 L 1695.2001064366073 68.56103649927225 L 1695.040176111227 68.6410146767576 L 1694.8784845975538 68.72026589471311 L 1694.7150480646044 68.79878222808303 L 1694.549882855896 68.87655582529945 L 1694.3830054878117 68.95357890906746 L 1694.2144326479493 69.02984377714286 L 1694.044181193452 69.10534280310242 L 1693.8722681493239 69.18006843710643 L 1693.698710706726 69.25401320665378 L 1693.5235262212575 69.32716971732913 L 1693.3467322112215 69.39953065354239 L 1693.1683463558713 69.47108877926021 L 1692.9883864936442 69.54183693872967 L 1692.806870620376 69.61176805719379 L 1692.6238168875032 69.68087514159897 L 1692.439243600246 69.74915128129439 L 1692.25316921578 69.81658964872294 L 1692.065612341388 69.88318350010411 L 1691.8765917326014 69.94892617610824 L 1691.6861262913235 70.01381110252252 L 1691.4942350639396 70.07783179090838 L 1691.3009372394129 70.14098183925032 L 1691.1062521473643 70.20325493259614 L 1690.9101992561411 70.26464484368842 L 1690.712798170869 70.32514543358717 L 1690.514068631492 70.38475065228383 L 1690.3140305107981 70.44345453930622 L 1690.1127038124332 70.50125122431453 L 1689.910108668899 70.55813492768844 L 1689.7062653395415 70.61409996110503 L 1689.501194208523 70.66914072810756 L 1689.2949157827863 70.72325172466522 L 1689.087450690002 70.77642753972344 L 1688.8788196765063 70.82866285574504 L 1688.6690436052268 70.87995244924193 L 1688.4581434535958 70.9302911912975 L 1688.2461403114528 70.9796740480795 L 1688.0330553789352 71.0280960813434 L 1687.8189099643587 71.07555244892625 L 1687.6037254820865 71.12203840523081 L 1687.3875234503873 71.16754930170019 L 1687.170325489284 71.21208058728268 L 1686.952153318392 71.25562780888683 L 1686.7330287547466 71.29818661182675 L 1686.5129737106213 71.33975274025764 L 1686.292010191337 71.38032203760127 L 1686.0701602930621 71.41989044696174 L 1685.847446200601 71.45845401153106 L 1685.6238901851777 71.49600887498494 L 1685.399514602207 71.5325512818683 L 1685.1743418890608 71.56807757797091 L 1684.9483945628224 71.60258421069277 L 1684.7216952180363 71.63606772939937 L 1684.4942665244478 71.66852478576672 L 1684.2661312247371 71.69995213411627 L 1684.0373121322436 71.73034663173934 L 1683.8078321286864 71.7597052392115 L 1683.5777141618744 71.78802502069648 L 1683.3469812434123 71.81530314423973 L 1683.1156564464 71.84153688205163 L 1682.883762903124 71.86672361078024 L 1682.651323802746 71.8908608117737 L 1682.418362388982 71.913946071332 L 1682.184901957779 71.93597708094846 L 1681.950965854986 71.95695163754044 L 1681.716577474018 71.97686764366978 L 1681.4817602535181 71.99572310775245 L 1681.2465376750124 72.01351614425778 L 1681.0109332605628 72.03024497389691 L 1680.7749705704146 72.04590792380084 L 1680.5386732006398 72.06050342768764 L 1680.3020647807787 72.07403002601906 L 1680.0651689714762 72.08648636614654 L 1679.8280094621157 72.09787120244648 L 1679.5906099684505 72.1081833964447 L 1679.352994230232 72.11742191693043 L 1679.1151860088364 72.12558584005929 L 1678.8772090848875 72.13267434944576 L 1678.639087255879 72.13868673624485 L 1678.4008443337957 72.14362239922286 L 1678.1625041427314 72.14748084481762 L 1677.9240905165063 72.1502616871878 L 1677.6856272962848 72.15196464825142 L 1677.4471383281896 72.15258955771385 L 1677.208647460919 72.15213635308466 L 1676.9701785433613 72.15060507968391 L 1676.731755422209 72.14799589063767 L 1676.493401939576 72.1443090468627 L 1676.2551419306117 72.13954491704027 L 1676.0169992211183 72.1337039775794 L 1675.7789976251686 72.12678681256918 L 1675.5411609427238 72.11879411372033 L 1675.3035129572538 72.10972668029609 L 1675.0660774333594 72.09958541903224 L 1674.8288781143947 72.08837134404646 L 1674.5919387200943 72.07608557673689 L 1674.3552829441999 72.06272934567005 L 1674.1189344520922 72.04830398645788 L 1673.8829168784232 72.0328109416243 L 1673.6472538247535 72.01625176046089 L 1673.4119688571925 71.99862809887196 L 1673.1770855040404 71.97994171920898 L 1672.9426272534372 71.96019449009434 L 1672.7086175510121 71.9393883862345 L 1672.475079797541 71.91752548822251 L 1672.2420373466039 71.89460798232996 L 1672.0095135022523 71.87063816028832 L 1671.7775315166764 71.84561841905983 L 1671.5461145878817 71.81955126059778 L 1671.3152858573683 71.79243929159627 L 1671.0850684078166 71.7642852232296 L 1670.8554852607801 71.73509187088118 L 1670.626559374382 71.7048621538619 L 1670.39831364102 71.67359909511825 L 1670.1707708850772 71.64130582093009 L 1669.94395386064 71.6079855605979 L 1669.7178852492214 71.57364164611994 L 1669.4925876574944 71.53827751185906 L 1669.2680836150305 71.50189669419922 L 1669.0443955720466 71.46450283119185 L 1668.8215458971606 71.42609966219209 L 1668.5995568751546 71.38669102748484 L 1668.3784507047453 71.34628086790075 L 1668.1582494963661 71.30487322442208 L 1667.9389752699537 71.26247223777868 L 1667.7206499527485 71.21908214803388 L 1667.5032953771004 71.17470729416048 L 1667.2869332782852 71.12935211360693 L 1667.0715852923329 71.08302114185344 L 1666.8572729538625 71.0357190119586 L 1666.6440176939295 70.987450454096 L 1666.431840837882 70.93822029508118 L 1666.2207636032288 70.88803345788901 L 1666.0108070975175 70.8368949611614 L 1665.8019923162235 70.7848099187054 L 1665.5943401406512 70.73178353898187 L 1665.387871335845 70.67782112458457 L 1665.1826065485134 70.62292807170999 L 1664.9785663049638 70.56710986961765 L 1664.775771009051 70.51037210008127 L 1664.5742409401353 70.4527204368305 L 1664.3739962510554 70.39416064498364 L 1664.175056966114 70.33469858047107 L 1663.9774429790732 70.27434018944969 L 1663.7811740511672 70.2130915077083 L 1663.5862698091255 70.15095866006402 L 1663.3927497432094 70.08794785974987 L 1663.2006332052647 70.02406540779336 L 1663.009939406785 69.95931769238642 L 1662.820687416991 69.89371118824668 L 1662.632896160924 69.82725245596986 L 1662.4465844175534 69.7599481413738 L 1662.261770817898 69.69180497483389 L 1662.078473843164 69.62282977060998 L 1661.8967118228957 69.55302942616503 L 1661.716502933144 69.4824109214753 L 1661.5378651946478 69.41098131833243 L 1661.360816471032 69.3387477596372 L 1661.1853744670211 69.26571746868528 L 1661.0115567266696 69.19189774844492 L 1660.8393806316067 69.1172959808266 L 1660.6688633992985 69.04191962594494 L 1660.5000220813258 68.96577622137262 L 1660.33287356168 68.88887338138663 L 1660.1674345550734 68.81121879620689 L 1660.0037216052694 68.73282023122718 L 1659.841751083426 68.6536855262387 L 1659.6815391864607 68.573822594646 L 1659.5231019354296 68.49323942267567 L 1659.366455173926 68.41194406857777 L 1659.211614566495 68.32994466181995 L 1659.0585955970687 68.24724940227456 L 1658.9074135674164 68.16386655939866 L 1658.758083595615 68.07980447140702 L 1658.6106206145375 67.99507154443839 L 1658.4650393703591 67.90967625171488 L 1658.3213544210826 67.8236271326946 L 1658.1795801350834 67.73693279221771 L 1658.0397306896718 67.64960189964606 L 1657.9018200696762 67.56164318799608 L 1657.7658620660432 67.47306545306569 L 1657.6318702744602 67.38387755255452 L 1657.4998580939944 67.29408840517834 L 1657.369838725754 67.20370698977703 L 1657.2418251715676 67.11274234441683 L 1657.1158302326837 67.02120356548647 L 1656.9918665084913 66.92909980678756 L 1656.8699463952596 66.83644027861922 L 1656.7500820848982 66.74323424685704 L 1656.6322855637382 66.64949103202653 L 1656.5165686113337 66.55522000837107 L 1656.4029427992837 66.46043060291444 L 1656.291419490074 66.3651322945182 L 1656.1820098359435 66.2693346129338 L 1656.0747247777658 66.17304713784955 L 1655.9695750439575 66.07627949793272 L 1655.8665711494045 65.97904136986665 L 1655.7657233944103 65.88134247738313 L 1655.667041863666 65.78319259028999 L 1655.5705364252433 65.68460152349414 L 1655.4762167296046 65.58557913602012 L 1655.3840922086417 65.48613533002413 L 1655.2941720747294 65.38628004980393 L 1655.2064653198065 65.2860232808043 L 1655.1209807144753 65.18537504861862 L 1655.037726807125 65.08434541798623 L 1654.9567119230771 64.982944491786 L 1654.8779441637523 64.88118241002603 L 1654.801431405861 64.77906934882972 L 1654.7271813006153 64.67661551941809 L 1654.6552012729635 64.5738311670887 L 1654.585498520849 64.47072657019112 L 1654.5180800144883 64.36731203909913 L 1654.4529524956763 64.26359791517966 L 1654.3901224771105 64.15959456975868 L 1654.3295962417403 64.05531240308405 L 1654.271379842139 63.95076184328555 L 1654.2154790998975 63.84595334533201 L 1654.161899605044 63.74089738998592 L 1654.1106467154834 63.63560448275524 L 1654.0617255564614 63.530085152842965 L 1654.0151410200538 63.42434995209415 L 1653.9708977646746 63.318409453940745 L 1653.9290002146133 63.2122742523443 L 1653.8894525595895 63.105954960736526 L 1653.852258754336 62.99946221095797 L 1653.817422518202 62.892806652194885 L 1653.7849473347824 62.78599894991426 L 1653.7548364515683 62.679049784797314 L 1653.7270928796231 62.57196985167143 L 1653.7017193932807 62.464769858440704 L 1653.6787185298688 62.357460525015114 L 1653.6580925894543 62.25005258223858 L 1653.6398436346142 62.14255677081588 L 1653.6239734902288 62.03498384023857 L 1653.6104837432993 61.92734454771006 L 1653.599375742789 61.81964965706991 L 1653.590650599489 61.71190993771744 L 1653.584309185906 61.6041361635348 L 1653.5803521361763 61.49633911180959 L 1653.5787798460017 61.38852956215717 L 1653.5795924726096 61.28071829544265 L 1653.5827899347382 61.172916092702856 L 1653.5883719126439 61.06513373406823 L 1653.5963378481335 60.957381997684834 L 1653.6066869446204 60.84967165863649 L 1653.619418167203 60.74201348786736 L 1653.6345302427703 60.6344182511048 L 1653.6520216601268 60.526896707782825 L 1653.6718906701456 60.41945960996616 L 1653.6941352859424 60.31211770127506 L 1653.7187532830737 60.204881715810956 L 1653.7457421997608 60.097762377083015 L 1653.7750993371342 59.99077039693585 L 1653.8068217595046 59.88391647447831 L 1653.8409062946564 59.7772112950136 L 1653.8773495341645 59.67066552897075 L 1653.9161478337353 59.56428983083758 L 1653.957297313571 59.45809483809524 L 1654.000793858758 59.35209117015452 L 1654.046633119678 59.24628942729389 L 1654.0948105124432 59.14070018959944 L 1654.1453212193544 59.03533401590697 L 1654.198160189383 58.93020144274604 L 1654.2533221386761 58.82531298328635 L 1654.3108015510848 58.72067912628645 L 1654.3705926787156 58.61631033504484 L 1654.4326895425056 58.51221704635366 L 1654.49708593282 58.40840966945505 L 1654.5637754100737 58.30489858500019 L 1654.6327513053745 58.20169414401126 L 1654.7040067211904 58.098806666846365 L 1654.777534532039 57.996246442167475 L 1654.8533273852006 57.894023725911595 L 1654.9313777014531 57.79214874026516 L 1655.0116776758298 57.69063167264185 L 1655.0942192784003 57.58948267466382 L 1655.1789942550731 57.488711861146584 L 1655.265994128421 57.38832930908751 L 1655.3552101985294 57.28834505665816 L 1655.4466335438653 57.18876910220045 L 1655.5402550221709 57.08961140322686 L 1655.636065271376 56.99088187542464 L 1655.7340547105357 56.8925903916643 L 1655.8342135407875 56.794746781012314 L 1655.9365317463319 56.6973608277482 L 1656.0409990954338 56.60044227038614 L 1656.1476051414452 56.5040008007011 L 1656.2563392238505 56.40804606275968 L 1656.367190469332 56.31258765195572 L 1656.4801477928572 56.217635114050736 L 1656.5951998987882 56.12319794421941 L 1656.7123352820104 56.029285586100016 L 1656.831542229083 55.93590743085011 L 1656.9528088194104 55.8430728162074 L 1657.0761229264347 55.75079102555599 L 1657.2014722188483 55.65907128699804 L 1657.3288441618258 55.56792277243099 L 1657.4582260182797 55.47735459663031 L 1657.5896048501318 55.387375816338135 L 1657.7229675196083 55.29799542935749 L 1657.8583006905537 55.20922237365261 L 1657.9955908297636 55.12106552645507 L 1658.1348242083384 55.033533703376136 L 1658.2759869030563 54.94663565752517 L 1658.4190647977655 54.86038007863435 L 1658.5640435847956 54.77477559218967 L 1658.710908766389 54.689830758568455 L 1658.8596456561495 54.60555407218327 L 1659.0102393805125 54.52195396063252 L 1659.1626748802307 54.439038783857704 L 1659.3169369118816 54.35681683330739 L 1659.4730100493903 54.27529633110813 L 1659.6308786855732 54.19448542924221 L 1659.790527033698 54.114392208732454 L 1659.9519391290632 54.03502467883419 L 1660.1150988305935 53.95639077623426 L 1660.2799898224553 53.878498364257396 L 1660.4465956156862 53.801355232079885 L 1660.6148995498459 53.72496909395066 L 1660.7848847946811 53.649347588419886 L 1660.9565343518095 53.57449827757509 L 1661.1298310564177 53.50042864628498 L 1661.3047575789803 53.42714610145097 L 1661.4812964269904 53.35465797126647 L 1661.6594299467106 53.28297150448409 L 1661.839140324937 53.21209386969077 L 1662.020409590782 53.14203215459092 L 1662.2032196174698 53.072793365297684 L 1662.38755212415 53.00438442563227 L 1662.5733886777257 52.93681217643165 L 1662.7607106946962 52.870083374864436 L 1662.9494994430163 52.80420469375517 L 1663.139736043968 52.739182720917064 L 1663.3314014740502 52.67502395849323 L 1663.5244765668792 52.611734822306424 L 1663.718942015107 52.54932164121754 L 1663.9147783723504 52.48779065649267 L 1664.1119660551374 52.427148021179015 L 1664.3104853448635 52.36739979948956 L 1664.5103163897654 52.3085519661967 L 1664.7114392069054 52.25061040603471 L 1664.913833684169 52.19358091311133 L 1665.1174795822772 52.13746919032833 L 1665.32235653681 52.08228084881122 L 1665.5284440602427 52.02802140734818 L 1665.7357215439947 51.974696291838114 L 1665.9441682604902 51.922310834748146 L 1666.1537633652313 51.87087027458034 L 1666.3644858988823 51.82037975534783 L 1666.5763147893654 51.770844326060484 L 1666.7892288539679 51.72226894021993 L 1667.003206801461 51.674658455324284 L 1667.2182272342282 51.62801763238236 L 1667.4342686504053 51.58235113543759 L 1667.651309446031 51.5376635311016 L 1667.8693279172062 51.49395928809759 L 1668.0883022622659 51.451242776813444 L 1668.3082105839576 51.409518268864694 L 1668.5290308916328 51.368789936667355 L 1668.7507411034444 51.32906185302072 L 1668.9733190485563 51.29033799070003 L 1669.1967424693594 51.252622222059266 L 1669.4209890236975 51.21591831864385 L 1669.6460362871026 51.18022995081354 L 1669.8718617550353 51.14556068737539 L 1670.0984428451372 51.11191399522683 L 1670.3257568994884 51.079293239009054 L 1670.5537811868726 51.047701680770494 L 1670.782492905051 51.01714247964064 L 1671.0118691830426 50.98761869151416 L 1671.2418870834106 50.95913326874524 L 1671.4725236045567 50.93168905985244 L 1671.7037556830212 50.90528880923376 L 1671.9355601957886 50.87993515689227 L 1672.167913962601 50.85563063817208 L 1672.4007937482752 50.83237768350481 L 1672.6341762650268 50.81017861816654 L 1672.8680381747984 50.78903566204531 L 1673.1023560915942 50.768950929419105 L 1673.3371065838178 50.749926428744466 L 1673.5722661766154 50.7319640624556 L 1673.8078113542238 50.71506562677416 L 1674.0437185623214 50.69923281152964 L 1674.2799642103842 50.684467199990365 L 1674.516524674044 50.6707702687052 L 1674.7533762974517 50.658143387355835 L 1674.9904953956423 50.64658781861989 L 1675.2278582569038 50.63610471804463 L 1675.4654411451475 50.62669513393135 L 1675.703220302283 50.61836000723063 L 1675.9411719505922 50.61110017144819 L 1676.179272295109 50.604916352561574 L 1676.417497525997 50.5998091689475 L 1676.655823820932 50.595779131320086 L 1676.8942273474831 50.592826642679725 L 1677.132684265496 50.59095199827282 L 1677.3711707294779 50.59015538556226 L 1677.6096628909809 50.59043688420866 L 1677.8481369009878 50.59179646606236 L 1678.0865689122961 50.594233995166334 L 1678.3249350819035 50.59774922776969 L 1678.563211573392 50.6023418123521 L 1678.8013745593103 50.60801128965893 L 1679.039400223559 50.61475709274719 L 1679.2772647637694 50.622578547042174 L 1679.5149443936862 50.63147487040497 L 1679.752415345544 50.64144517321068 L 1679.989653872446 50.6524884584373 L 1680.226636250737 50.66460362176552 L 1680.4633387823767 50.67778945168912 L 1680.699737797309 50.69204462963607 L 1680.9358096558294 50.70736773010048 L 1681.1715307509492 50.72375722078505 L 1681.4068775107548 50.74121146275439 L 1681.6418264007666 50.759728710598836 L 1681.8763539262916 50.77930711260903 L 1682.1104366347722 50.79994471096109 L 1682.344051118133 50.821639441912396 L 1682.5771740151201 50.844389136007905 L 1682.8097820136381 50.86819151829718 L 1683.0418518530812 50.893044208561825 L 1683.2733603266588 50.91894472155353 L 1683.504284283716 50.94589046724256 L 1683.7346006320504 50.973878751076825 L 1683.9642863402182 51.00290677425126 L 1684.1933184398406 51.03297163398772 L 1684.4216740278982 51.064070323825305 L 1684.6493302690228 51.09619973392093 L 1684.8762643977796 51.129356651360375 L 1685.102453720945 51.16353776047952 L 1685.327875619775 51.198739643195935 L 1685.5525075522683 51.23495877935069 L 1685.7763270554178 51.27219154706035 L 1685.9993117474603 51.31043422307917 L 1686.2214393301124 51.349682983171405 L 1686.442687590801 51.38993390249377 L 1686.663034404884 51.43118295598788 L 1686.882457737864 51.47342601878273 L 1687.1009356475904 51.51665886660727 L 1687.3184462864542 51.56087717621274 L 1687.534967903573 51.60607652580503 L 1687.7504788469655 51.65225239548683 L 1687.9649575657168 51.69940016770967 L 1688.1783826121336 51.74751512773561 L 1688.3907326438896 51.79659246410874 L 1688.6019864261582 51.84662726913632 L 1688.8121228337375 51.89761453937955 L 1689.0211208531616 51.949549176153894 L 1689.2289595848026 52.00242598603895 L 1689.435618244961 52.0562396813978 L 1689.6410761679426 52.11098488090573 L 1689.8453128081267 52.16665611008844 L 1690.048307742019 52.22324780186939 L 1690.2500406702957 52.28075429712656 L 1690.4504914198317 52.339169845258354 L 1690.6496399457194 52.398488604758626 L 1690.847466333272 52.458704643800864 L 1691.0439508000156 52.51981194083135 L 1691.2390736976672 52.581804385171296 L 1691.4328155141 52.64467577762793 L 1691.6251568752934 52.708419831114405 L 1691.816078547272 52.77303017127848 L 1692.0055614380271 52.83850033713999 L 1692.193586599428 52.90482378173691 L 1692.380135229115 52.97199387278003 L 1692.5651886723808 53.040003893316246 L 1692.748728424035 53.108847042400164 L 1692.9307361302558 53.17851643577425 L 1693.1111935904237 53.24900510655722 L 1693.2900827589435 53.32030600594074 L 1693.4673857470475 53.39241200389429 L 1693.643084824584 53.465315889878156 L 1693.8171624217925 53.5390103735645 L 1693.9896011310577 53.61348808556637 L 1694.1603837086527 53.68874157817461 L 1694.329493076462 53.76476332610268 L 1694.4969123236897 53.84154572723915 L 1694.6626247085505 53.91908110340788 L 1694.8266136599443 53.99736170113587 L 1694.9888627791122 54.07637969242858 L 1695.1493558412778 54.156127175552726 L 1695.3080767972685 54.236596175826456 L 1695.4650097751212 54.3177786464168 L 1695.6201390816686 54.39966646914434 L 1695.7734492041093 54.48225145529506 L 1695.924924811559 54.56552534643915 L 1696.0745507565832 54.6494798152569 L 1696.2223120767121 54.73410646637139 L 1696.3681939959365 54.81939683718802 L 1696.5121819261865 54.9053423987408 L 1696.6542614687887 54.99193455654518 L 1696.7944184159073 55.079164651457546 L 1696.9326387519645 55.16702396054111 L 1697.068908655042 55.25550369793815 L 1697.2032144982627 55.344595015748695 L 1697.3355428511545 55.43428900491518 L 1697.4658804809922 55.52457669611344 L 1697.5942143541215 55.615449060649595 L 1697.7205316372622 55.706897011362926 L 1697.8448196987908 55.79891140353456 L 1697.9670661100054 55.891483035801954 L 1698.087258646366 55.98460265107904 L 1698.2053852887195 56.07826093748187 L 1698.3214342245003 56.17244852925987 L 1698.4353938489112 56.26715600773234 L 1698.5472527660847 56.36237390223035 L 1698.6569997902227 56.45809269104382 L 1698.7646239467138 56.55430280237361 L 1698.8701144732322 56.65099461528878 L 1698.9734608208134 56.74815846068861 L 1699.0746526549083 56.84578462226952 L 1699.1736798564182 56.943863337496715 L 1699.2705325227053 57.0423847985804 L 1699.3652009685836 57.14133915345658 L 1699.4576757272876 57.240716506772216 L 1699.5479475514182 57.34050692087479 L 1699.6360074138686 57.44070041680606 L 1699.7218465087258 57.54128697529992 L 1699.8054562521515 57.64225653778434 L 1699.8868282832416 57.74359900738722 L 1699.9659544648605 57.84530424994605 L 1700.042826884456 57.94736209502132 L 1700.11743785485 58.04976233691358 L 1700.189779915008 58.15249473568397 L 1700.2598458307843 58.25554901817823 L 1700.3276285956454 58.35891487905398 L 1700.3931214313714 58.46258198181127 L 1700.4563177887333 58.566539959826216 L 1700.5172113481478 58.67077841738765 L 1700.5757960203105 58.77528693073668 L 1700.632065946802 58.88005504910905 L 1700.6860155006773 58.985072295780256 L 1700.7376392870253 59.09032816911312 L 1700.7869321435112 59.19581214360803 L 1700.8338891408896 59.301513670955444 L 1700.8785055835006 59.4074221810907 L 1700.9207770097366 59.513527083251056 L 1700.9606991924904 59.619817767034704 L 1700.998268139577 59.72628360346185 L 1701.0334800941332 59.832913946037564 L 1701.0663315349925 59.939698131816456 L 1701.0968191770382 60.046625482468926 L 1701.124939971532 60.153685305349015 L 1701.1506911064175 60.26086689456366 L 1701.1740700066025 60.36815953204325 L 1701.195074334217 60.47555248861345 L 1701.213701988845 60.5830350250681 L 1701.2299511077374 60.69059639324311 L 1701.2438200659954 60.79822583709131 L 1701.2553074767345 60.905912593758 L 1701.2644121912238 61.01364589465726 L 1701.2711332989988 61.12141496654876 L 1701.275470127955 61.22920903261514 L 1701.2774222444125 61.337017313539604 M 1701.2775432344686 95.6752857281 L 1701.276350774565 95.78309627301661 L 1701.2727735140988 95.89089603696858 L 1701.2668118107933 95.99867424006935 L 1701.2584662608142 96.1064201045884 L 1701.247737698709 96.21412285602908 L 1701.2346271973252 96.321771724206 L 1701.2191360677018 96.42935594432204 L 1701.2012658589392 96.53686475804484 L 1701.1810183580433 96.64428741458265 L 1701.158395589747 96.75161317175929 L 1701.1333998163086 96.85883129708851 L 1701.1060335372847 96.96593106884711 L 1701.07629948928 97.07290177714718 L 1701.044200645675 97.17973272500701 L 1701.0097402163267 97.28641322942086 L 1700.97292164725 97.39293262242717 L 1700.9337486202708 97.49928025217542 L 1700.892225052659 97.60544548399125 L 1700.848355096737 97.71141770143996 L 1700.8021431394636 97.8171863073881 L 1700.7535938019962 97.92274072506322 L 1700.7027119392283 98.02807039911151 L 1700.6495026393031 98.13316479665336 L 1700.593971223107 98.23801340833658 L 1700.5361232437351 98.34260574938737 L 1700.4759644859369 98.4469313606588 L 1700.413500965538 98.55097980967666 L 1700.348738928839 98.65474069168278 L 1700.281684851989 98.7582036306754 L 1700.21234544034 98.86135828044685 L 1700.1407276277755 98.96419432561812 L 1700.0668385760168 99.0667014826704 L 1699.9906856739076 99.16886950097337 L 1699.9122765366749 99.27068816381038 L 1699.8316190051669 99.37214728939998 L 1699.7487211450693 99.47323673191414 L 1699.6635912460995 99.57394638249288 L 1699.5762378211762 99.67426617025505 L 1699.486669605569 99.77418606330548 L 1699.3948955560247 99.87369606973812 L 1699.3009248498724 99.97278623863527 L 1699.204766884104 100.0714466610626 L 1699.1064312744356 100.1696674710601 L 1699.005927854347 100.2674388466286 L 1698.9032666740957 100.36475101071201 L 1698.7984579997146 100.46159423217506 L 1698.6915123119838 100.55795882677627 L 1698.582440305383 100.65383515813649 L 1698.4712528870216 100.74921363870249 L 1698.357961175549 100.84408473070569 L 1698.242576500042 100.93843894711594 L 1698.125110398872 101.03226685259024 L 1698.0055746185512 101.12555906441622 L 1697.8839811125579 101.21830625345046 L 1697.7603420401415 101.31049914505132 L 1697.634669765106 101.4021285200065 L 1697.5069768545745 101.49318521545483 L 1697.3772760777317 101.58366012580265 L 1697.2455804045467 101.67354420363434 L 1697.1119030044774 101.762828460617 L 1696.9762572451525 101.85150396839936 L 1696.8386566910347 101.93956185950451 L 1696.6991151020648 102.02699332821673 L 1696.5576464322855 102.11378963146201 L 1696.4142648284458 102.19994208968237 L 1696.2689846285864 102.28544208770374 L 1696.1218203606068 102.37028107559762 L 1695.9727867408105 102.45445056953588 L 1695.8218986724357 102.53794215263929 L 1695.6691712441634 102.6207474758191 L 1695.514619728609 102.70285825861201 L 1695.3582595807954 102.78426629000816 L 1695.2001064366073 102.86496342927225 L 1695.040176111227 102.9449416067576 L 1694.8784845975538 103.02419282471311 L 1694.7150480646044 103.10270915808303 L 1694.549882855896 103.18048275529944 L 1694.3830054878117 103.25750583906745 L 1694.2144326479493 103.33377070714286 L 1694.044181193452 103.4092697331024 L 1693.8722681493239 103.48399536710642 L 1693.698710706726 103.55794013665377 L 1693.5235262212575 103.63109664732913 L 1693.3467322112215 103.70345758354237 L 1693.1683463558713 103.7750157092602 L 1692.9883864936442 103.84576386872968 L 1692.806870620376 103.91569498719377 L 1692.6238168875032 103.98480207159896 L 1692.439243600246 104.05307821129438 L 1692.25316921578 104.12051657872294 L 1692.065612341388 104.1871104301041 L 1691.8765917326014 104.25285310610823 L 1691.6861262913235 104.31773803252251 L 1691.4942350639396 104.38175872090837 L 1691.3009372394129 104.44490876925032 L 1691.1062521473643 104.50718186259614 L 1690.9101992561411 104.5685717736884 L 1690.712798170869 104.62907236358716 L 1690.514068631492 104.68867758228383 L 1690.3140305107981 104.7473814693062 L 1690.1127038124332 104.80517815431453 L 1689.910108668899 104.86206185768845 L 1689.7062653395415 104.91802689110501 L 1689.501194208523 104.97306765810755 L 1689.2949157827863 105.02717865466522 L 1689.087450690002 105.08035446972343 L 1688.8788196765063 105.13258978574503 L 1688.6690436052268 105.18387937924192 L 1688.4581434535958 105.23421812129749 L 1688.2461403114528 105.28360097807949 L 1688.0330553789352 105.33202301134341 L 1687.8189099643587 105.37947937892625 L 1687.6037254820865 105.4259653352308 L 1687.3875234503873 105.4714762317002 L 1687.170325489284 105.51600751728267 L 1686.952153318392 105.55955473888682 L 1686.7330287547466 105.60211354182675 L 1686.5129737106213 105.64367967025764 L 1686.292010191337 105.68424896760128 L 1686.0701602930621 105.72381737696173 L 1685.847446200601 105.76238094153106 L 1685.6238901851777 105.79993580498493 L 1685.399514602207 105.83647821186828 L 1685.1743418890608 105.8720045079709 L 1684.9483945628224 105.90651114069276 L 1684.7216952180363 105.93999465939936 L 1684.4942665244478 105.97245171576672 L 1684.2661312247371 106.00387906411626 L 1684.0373121322436 106.03427356173933 L 1683.8078321286864 106.0636321692115 L 1683.5777141618744 106.09195195069648 L 1683.3469812434123 106.11923007423972 L 1683.1156564464 106.14546381205162 L 1682.883762903124 106.17065054078024 L 1682.651323802746 106.1947877417737 L 1682.418362388982 106.21787300133201 L 1682.184901957779 106.23990401094846 L 1681.950965854986 106.26087856754044 L 1681.716577474018 106.28079457366978 L 1681.4817602535181 106.29965003775246 L 1681.2465376750124 106.31744307425777 L 1681.0109332605628 106.3341719038969 L 1680.7749705704146 106.34983485380084 L 1680.5386732006398 106.36443035768762 L 1680.3020647807787 106.37795695601905 L 1680.0651689714762 106.39041329614655 L 1679.8280094621157 106.40179813244647 L 1679.5906099684505 106.4121103264447 L 1679.352994230232 106.42134884693041 L 1679.1151860088364 106.42951277005928 L 1678.8772090848875 106.43660127944577 L 1678.639087255879 106.44261366624485 L 1678.4008443337957 106.44754932922287 L 1678.1625041427314 106.45140777481762 L 1677.9240905165063 106.45418861718778 L 1677.6856272962848 106.45589157825142 L 1677.4471383281896 106.45651648771386 L 1677.208647460919 106.45606328308465 L 1676.9701785433613 106.4545320096839 L 1676.731755422209 106.45192282063768 L 1676.493401939576 106.44823597686269 L 1676.2551419306117 106.44347184704026 L 1676.0169992211183 106.43763090757939 L 1675.7789976251686 106.43071374256917 L 1675.5411609427238 106.42272104372033 L 1675.3035129572538 106.41365361029608 L 1675.0660774333594 106.40351234903224 L 1674.8288781143947 106.39229827404645 L 1674.5919387200943 106.38001250673689 L 1674.3552829441999 106.36665627567004 L 1674.1189344520922 106.35223091645787 L 1673.8829168784232 106.33673787162431 L 1673.6472538247535 106.32017869046089 L 1673.4119688571925 106.30255502887195 L 1673.1770855040404 106.28386864920897 L 1672.9426272534372 106.26412142009434 L 1672.7086175510121 106.2433153162345 L 1672.475079797541 106.22145241822251 L 1672.2420373466039 106.19853491232995 L 1672.0095135022523 106.17456509028831 L 1671.7775315166764 106.14954534905984 L 1671.5461145878817 106.12347819059778 L 1671.3152858573683 106.09636622159626 L 1671.0850684078166 106.06821215322961 L 1670.8554852607801 106.03901880088118 L 1670.626559374382 106.0087890838619 L 1670.39831364102 105.97752602511825 L 1670.1707708850772 105.94523275093007 L 1669.94395386064 105.91191249059789 L 1669.7178852492214 105.87756857611994 L 1669.4925876574944 105.84220444185907 L 1669.2680836150305 105.8058236241992 L 1669.0443955720466 105.76842976119184 L 1668.8215458971606 105.73002659219209 L 1668.5995568751546 105.69061795748485 L 1668.3784507047453 105.65020779790075 L 1668.1582494963661 105.60880015442207 L 1667.9389752699537 105.56639916777867 L 1667.7206499527485 105.52300907803387 L 1667.5032953771004 105.47863422416049 L 1667.2869332782852 105.43327904360692 L 1667.0715852923329 105.38694807185344 L 1666.8572729538625 105.33964594195861 L 1666.6440176939295 105.291377384096 L 1666.431840837882 105.24214722508117 L 1666.2207636032288 105.19196038788901 L 1666.0108070975175 105.1408218911614 L 1665.8019923162235 105.08873684870541 L 1665.5943401406512 105.03571046898188 L 1665.387871335845 104.98174805458457 L 1665.1826065485134 104.92685500170998 L 1664.9785663049638 104.87103679961766 L 1664.775771009051 104.81429903008126 L 1664.5742409401353 104.75664736683049 L 1664.3739962510554 104.69808757498365 L 1664.175056966114 104.63862551047107 L 1663.9774429790732 104.57826711944969 L 1663.7811740511672 104.51701843770829 L 1663.5862698091255 104.45488559006402 L 1663.3927497432094 104.39187478974986 L 1663.2006332052647 104.32799233779335 L 1663.009939406785 104.26324462238642 L 1662.820687416991 104.19763811824667 L 1662.632896160924 104.13117938596986 L 1662.4465844175534 104.0638750713738 L 1662.261770817898 103.99573190483389 L 1662.078473843164 103.92675670060999 L 1661.8967118228957 103.85695635616503 L 1661.716502933144 103.7863378514753 L 1661.5378651946478 103.71490824833242 L 1661.360816471032 103.64267468963719 L 1661.1853744670211 103.56964439868527 L 1661.0115567266696 103.4958246784449 L 1660.8393806316067 103.4212229108266 L 1660.6688633992985 103.34584655594495 L 1660.5000220813258 103.26970315137261 L 1660.33287356168 103.19280031138662 L 1660.1674345550734 103.11514572620688 L 1660.0037216052694 103.03674716122718 L 1659.841751083426 102.9576124562387 L 1659.6815391864607 102.87774952464599 L 1659.5231019354296 102.79716635267567 L 1659.366455173926 102.71587099857777 L 1659.211614566495 102.63387159181995 L 1659.0585955970687 102.55117633227457 L 1658.9074135674164 102.46779348939864 L 1658.758083595615 102.383731401407 L 1658.6106206145375 102.29899847443839 L 1658.4650393703591 102.21360318171489 L 1658.3213544210826 102.12755406269459 L 1658.1795801350834 102.04085972221772 L 1658.0397306896718 101.95352882964605 L 1657.9018200696762 101.86557011799609 L 1657.7658620660432 101.77699238306569 L 1657.6318702744602 101.68780448255453 L 1657.4998580939944 101.59801533517833 L 1657.369838725754 101.50763391977702 L 1657.2418251715676 101.41666927441683 L 1657.1158302326837 101.32513049548646 L 1656.9918665084913 101.23302673678755 L 1656.8699463952596 101.14036720861921 L 1656.7500820848982 101.04716117685703 L 1656.6322855637382 100.95341796202653 L 1656.5165686113337 100.85914693837105 L 1656.4029427992837 100.76435753291443 L 1656.291419490074 100.66905922451821 L 1656.1820098359435 100.5732615429338 L 1656.0747247777658 100.47697406784954 L 1655.9695750439575 100.3802064279327 L 1655.8665711494045 100.28296829986664 L 1655.7657233944103 100.18526940738312 L 1655.667041863666 100.08711952028997 L 1655.5705364252433 99.98852845349413 L 1655.4762167296046 99.8895060660201 L 1655.3840922086417 99.79006226002413 L 1655.2941720747294 99.69020697980392 L 1655.2064653198065 99.5899502108043 L 1655.1209807144753 99.48930197861863 L 1655.037726807125 99.38827234798623 L 1654.9567119230771 99.28687142178599 L 1654.8779441637523 99.18510934002603 L 1654.801431405861 99.08299627882971 L 1654.7271813006153 98.98054244941808 L 1654.6552012729635 98.87775809708869 L 1654.585498520849 98.7746535001911 L 1654.5180800144883 98.67123896909912 L 1654.4529524956763 98.56752484517966 L 1654.3901224771105 98.46352149975867 L 1654.3295962417403 98.35923933308405 L 1654.271379842139 98.25468877328554 L 1654.2154790998975 98.14988027533201 L 1654.161899605044 98.04482431998592 L 1654.1106467154834 97.93953141275524 L 1654.0617255564614 97.83401208284296 L 1654.0151410200538 97.72827688209414 L 1653.9708977646746 97.62233638394075 L 1653.9290002146133 97.5162011823443 L 1653.8894525595895 97.40988189073651 L 1653.852258754336 97.30338914095798 L 1653.817422518202 97.19673358219488 L 1653.7849473347824 97.08992587991426 L 1653.7548364515683 96.9829767147973 L 1653.7270928796231 96.87589678167143 L 1653.7017193932807 96.7686967884407 L 1653.6787185298688 96.66138745501512 L 1653.6580925894543 96.55397951223858 L 1653.6398436346142 96.44648370081588 L 1653.6239734902288 96.33891077023856 L 1653.6104837432993 96.23127147771005 L 1653.599375742789 96.1235765870699 L 1653.590650599489 96.01583686771744 L 1653.584309185906 95.90806309353479 L 1653.5803521361763 95.80026604180959 L 1653.5787798460017 95.69245649215716" stroke-miterlimit="10" stroke-width="2.7769845610000004" stroke-dasharray=""/></g><g><g/><text fill="black" stroke="none" font-family="sans-serif" font-size="11pt" font-style="normal" font-weight="normal" text-decoration="normal" x="1607.7502823417615" y="123.98419304699999" text-anchor="start" dominant-baseline="alphabetic" xml:space="preserve">SM Exchange Queue</text></g><path fill="none" stroke="none"/><g><path fill="white" stroke="black" paint-order="fill stroke markers" d=" M 1848.5508311245233 84.779705127 L 2108.8871688187264 84.779705127 L 2108.8871688187264 128.884754037 L 1848.5508311245233 128.884754037 L 1848.5508311245233 84.779705127 Z" stroke-miterlimit="10" stroke-width="2.613632528" stroke-dasharray=""/></g><g><g/><text fill="black" stroke="none" font-family="sans-serif" font-size="11pt" font-style="normal" font-weight="normal" text-decoration="normal" x="1866.2745267050232" y="112.549550737" text-anchor="start" dominant-baseline="alphabetic" xml:space="preserve">SM Exchange Message Processor</text></g></g><g><path fill="white" stroke="black" paint-order="fill stroke markers" d=" M 179.24123293662106 161.55516063699997 L 422.15938286509765 161.55516063699997 L 422.15938286509765 199.12612822699998 L 179.24123293662106 199.12612822699998 L 179.24123293662106 161.55516063699997" stroke-miterlimit="10" stroke-width="1.3612669416666667" stroke-dasharray=""/><g><text fill="black" stroke="none" font-family="sans-serif" font-size="11pt" font-style="normal" font-weight="normal" text-decoration="normal" x="202.11051755662106" y="184.42444525699995" text-anchor="start" dominant-baseline="alphabetic" xml:space="preserve">Patient logs in for the first time</text></g><g><g><rect fill="white" stroke="none" x="320.68327309212884" y="223.628933177" width="260.7343775183203" height="21.23576429"/></g><text fill="black" stroke="none" font-family="sans-serif" font-size="11pt" font-style="normal" font-weight="normal" text-decoration="normal" x="323.13355358712886" y="238.33061614699997" text-anchor="start" dominant-baseline="alphabetic" xml:space="preserve">Notifies API that a first time user logs in</text></g><g><path fill="none" stroke="black" paint-order="fill stroke markers" d=" M 300.70030790085934 244.86469746699998 L 587.951298418052 244.86469746699998" stroke-miterlimit="10" stroke-width="1.3612669416666667" stroke-dasharray=""/><g transform="translate(601.4006158017187,244.86469746699998) translate(-601.4006158017187,-244.86469746699998)"><path fill="black" stroke="none" paint-order="stroke fill markers" d=" M 587.787946385052 238.05836275866665 L 601.4006158017187 244.86469746699998 L 587.787946385052 251.67103217533332 Z"/></g></g><path fill="white" stroke="black" paint-order="fill stroke markers" d=" M 80.89836031699215 269.36750241699997 L 520.5022554847266 269.36750241699997 L 520.5022554847266 306.938470007 L 80.89836031699215 306.938470007 L 80.89836031699215 269.36750241699997" stroke-miterlimit="10" stroke-width="1.3612669416666667" stroke-dasharray=""/><g><text fill="black" stroke="none" font-family="sans-serif" font-size="11pt" font-style="normal" font-weight="normal" text-decoration="normal" x="103.76764493699216" y="292.23678703699994" text-anchor="start" dominant-baseline="alphabetic" xml:space="preserve">QUESTION: How are we deciding if this the user's first time?</text></g><path fill="white" stroke="black" paint-order="fill stroke markers" d=" M 8.16760165 331.44127495699996 L 593.2330141517187 331.44127495699996 L 593.2330141517187 369.01224254699997 L 8.16760165 369.01224254699997 L 8.16760165 331.44127495699996" stroke-miterlimit="10" stroke-width="1.3612669416666667" stroke-dasharray=""/><g><text fill="black" stroke="none" font-family="sans-serif" font-size="11pt" font-style="normal" font-weight="normal" text-decoration="normal" x="31.036886269999968" y="354.31055957699994" text-anchor="start" dominant-baseline="alphabetic" xml:space="preserve">Display a 'loading message from before x date, check back later when its complete'</text></g><g><g><rect fill="white" stroke="none" x="697.1870859368358" y="393.51504749699996" width="114.9148432165625" height="21.23576429"/></g><text fill="black" stroke="none" font-family="sans-serif" font-size="11pt" font-style="normal" font-weight="normal" text-decoration="normal" x="699.6373664318359" y="408.21673046699993" text-anchor="start" dominant-baseline="alphabetic" xml:space="preserve">Sends Patient ID</text></g><g><path fill="none" stroke="black" paint-order="fill stroke markers" d=" M 601.4006158017187 414.750811787 L 894.4390819048489 414.750811787" stroke-miterlimit="10" stroke-width="1.3612669416666667" stroke-dasharray=""/><g transform="translate(907.8883992885155,414.750811787) translate(-907.8883992885155,-414.750811787)"><path fill="black" stroke="none" paint-order="stroke fill markers" d=" M 894.2757298718489 407.94447707866664 L 907.8883992885155 414.750811787 L 894.2757298718489 421.5571464953333 Z"/></g></g><path fill="white" stroke="black" paint-order="fill stroke markers" d=" M 624.546794111875 439.25361673699996 L 1191.230004465156 439.25361673699996 L 1191.230004465156 476.82458432699997 L 624.546794111875 476.82458432699997 L 624.546794111875 439.25361673699996" stroke-miterlimit="10" stroke-width="1.3612669416666667" stroke-dasharray=""/><g><text fill="black" stroke="none" font-family="sans-serif" font-size="11pt" font-style="normal" font-weight="normal" text-decoration="normal" x="647.4160787318749" y="462.12290135699993" text-anchor="start" dominant-baseline="alphabetic" xml:space="preserve">Queries for all message ids for a Patient; aims to replicate the ATOM feed inputs</text></g><g><g><rect fill="white" stroke="none" x="1050.7508666663396" y="501.32738927699995" width="182.52395881714844" height="21.23576429"/></g><text fill="black" stroke="none" font-family="sans-serif" font-size="11pt" font-style="normal" font-weight="normal" text-decoration="normal" x="1053.2011471613396" y="516.0290722469999" text-anchor="start" dominant-baseline="alphabetic" xml:space="preserve">Queries for all message ids</text></g><g><path fill="none" stroke="black" paint-order="fill stroke markers" d=" M 907.8883992885155 522.563153567 L 1362.6879754776455 522.563153567" stroke-miterlimit="10" stroke-width="1.3612669416666667" stroke-dasharray=""/><g transform="translate(1376.1372928613123,522.563153567) translate(-1376.1372928613123,-522.563153567)"><path fill="black" stroke="none" paint-order="stroke fill markers" d=" M 1362.5246234446456 515.7568188586666 L 1376.1372928613123 522.563153567 L 1362.5246234446456 529.3694882753333 Z"/></g></g><path fill="white" stroke="black" paint-order="fill stroke markers" d=" M 609.5682174517187 547.0659585169999 L 1206.2085811253123 547.0659585169999 L 1206.2085811253123 584.6369261069999 L 609.5682174517187 584.6369261069999 L 609.5682174517187 547.0659585169999" stroke-miterlimit="10" stroke-width="1.3612669416666667" stroke-dasharray=""/><g><text fill="black" stroke="none" font-family="sans-serif" font-size="11pt" font-style="normal" font-weight="normal" text-decoration="normal" x="632.4375020717187" y="569.9352431369999" text-anchor="start" dominant-baseline="alphabetic" xml:space="preserve">This could be some queue/loop depending on how many messages we can query for</text></g><path fill="white" stroke="black" paint-order="fill stroke markers" d=" M 688.3799545122656 609.1397310569998 L 1127.3968440647657 609.1397310569998 L 1127.3968440647657 646.7106986469998 L 688.3799545122656 646.7106986469998 L 688.3799545122656 609.1397310569998" stroke-miterlimit="10" stroke-width="1.3612669416666667" stroke-dasharray=""/><g><text fill="black" stroke="none" font-family="sans-serif" font-size="11pt" font-style="normal" font-weight="normal" text-decoration="normal" x="711.2492391322655" y="632.0090156769999" text-anchor="start" dominant-baseline="alphabetic" xml:space="preserve">TODO: figure out if order matters when it comes to threading</text></g><g><g><rect fill="white" stroke="none" x="1171.6289365713592" y="671.2135035969998" width="242.05867256226563" height="21.23576429"/></g><text fill="black" stroke="none" font-family="sans-serif" font-size="11pt" font-style="normal" font-weight="normal" text-decoration="normal" x="1174.0792170663592" y="685.9151865669998" text-anchor="start" dominant-baseline="alphabetic" xml:space="preserve">Insert each message into the queue </text></g><g><path fill="none" stroke="black" paint-order="fill stroke markers" d=" M 907.8883992885155 692.4492678869998 L 1663.9788290328017 692.4492678869998" stroke-miterlimit="10" stroke-width="1.3612669416666667" stroke-dasharray=""/><g transform="translate(1677.4281464164685,692.4492678869998) translate(-1677.4281464164685,-692.4492678869998)"><path fill="black" stroke="none" paint-order="stroke fill markers" d=" M 1663.8154769998018 685.6429331786665 L 1677.4281464164685 692.4492678869998 L 1663.8154769998018 699.2556025953331 Z"/></g></g><path fill="white" stroke="black" paint-order="fill stroke markers" d=" M 1384.3048945113123 716.9520728369998 L 1970.5513983216247 716.9520728369998 L 1970.5513983216247 754.5230404269998 L 1384.3048945113123 754.5230404269998 L 1384.3048945113123 716.9520728369998" stroke-miterlimit="10" stroke-width="1.3612669416666667" stroke-dasharray=""/><g><text fill="black" stroke="none" font-family="sans-serif" font-size="11pt" font-style="normal" font-weight="normal" text-decoration="normal" x="1407.1741791313123" y="739.8213574569999" text-anchor="start" dominant-baseline="alphabetic" xml:space="preserve">Treats each message as a normal message from OH, See other sequence diagram</text></g></g><g/><g/><g/><g/><g/><g/><g/></g></svg>