<svg version="1.1" xmlns="http://www.w3.org/2000/svg" xmlns:xlink="http://www.w3.org/1999/xlink" width="1593" height="716"><desc>title%20Sending%20Messages%20To%20OH%0A%0A%0Aparticipant%20MHV%20SM%20Datalayer%0Aparticipant%20SM%20Exchange%20RESTful%20MHV%20Listener%0Adatabase%20SM%20Exchange%20Queue%0Aparticipant%20SM%20Exchange%20Message%20Processor%0Aparticipant%20SM%20Exchange%20MHV%20to%20OH%20Translator%0Aparticipant%20OH%20FHIR%20APIs%0Aparticipant%20OH%20Messaging%20API%0A%0A%0A%0A%0AMHV%20SM%20Datalayer%20-%3ESM%20Exchange%20RESTful%20MHV%20Listener%3A%20POSTs%20a%20new%20message%0A%0Abox%20over%20SM%20Exchange%20RESTful%20MHV%20Listener%3A%20%2F%2FMight%2F%2F%20do%20some%20light%20tranformation%0A%0ASM%20Exchange%20RESTful%20MHV%20Listener%20-%3ESM%20Exchange%20Queue%3A%20Inserts%20into%20Queue%0A%0ASM%20Exchange%20Message%20Processor%20%3C-%20SM%20Exchange%20Queue%3A%20Recieves%20message%0A%0Abox%20over%20SM%20Exchange%20Message%20Processor%3A%20Detersmine%20the%20destination%20of%20the%20message%0A%0ASM%20Exchange%20Message%20Processor%20-%3E%20SM%20Exchange%20MHV%20to%20OH%20Translator%3A%20passes%20message%20to%20be%20translated%0A%0Abox%20over%20SM%20Exchange%20MHV%20to%20OH%20Translator%3A%20Translates%20the%20message%20for%20OH%0A%0ASM%20Exchange%20MHV%20to%20OH%20Translator%20-%3E%20OH%20FHIR%20APIs%3AQueries%20for%20any%20data%20needed%20(ids%2C%20etc)%20%0A%0Abox%20over%20SM%20Exchange%20MHV%20to%20OH%20Translator%3A%20Handles%20attachments%0A%0ASM%20Exchange%20MHV%20to%20OH%20Translator%20-%3EOH%20Messaging%20API%3A%20Sends%20OH%20formated%20message%20%0A%0A%0A%0A%0A</desc><defs/><g><g/><g/><g/><g/><g/><g/><g/><g/><g/><g/><g/><g><rect fill="white" stroke="none" x="0" y="0" width="1593" height="716"/></g><g><text fill="black" stroke="none" font-family="sans-serif" font-size="16.5pt" font-style="normal" font-weight="normal" text-decoration="normal" x="669.0542535835222" y="24.50280495" text-anchor="start" dominant-baseline="alphabetic" xml:space="preserve">Sending Messages To OH</text></g><g/><g><path fill="none" stroke="black" paint-order="fill stroke markers" d=" M 88.61855400540234 128.884754037 L 88.61855400540234 716.9520728369998" stroke-miterlimit="10" stroke-width="1.3612669416666667" stroke-dasharray="12.565541,5.445067766666667"/><path fill="none" stroke="black" paint-order="fill stroke markers" d=" M 324.5277964156211 128.884754037 L 324.5277964156211 716.9520728369998" stroke-miterlimit="10" stroke-width="1.3612669416666667" stroke-dasharray="12.565541,5.445067766666667"/><path fill="none" stroke="black" paint-order="fill stroke markers" d=" M 549.6639505451445 128.884754037 L 549.6639505451445 716.9520728369998" stroke-miterlimit="10" stroke-width="1.3612669416666667" stroke-dasharray="12.565541,5.445067766666667"/><path fill="none" stroke="black" paint-order="fill stroke markers" d=" M 765.8451867669531 128.884754037 L 765.8451867669531 716.9520728369998" stroke-miterlimit="10" stroke-width="1.3612669416666667" stroke-dasharray="12.565541,5.445067766666667"/><path fill="none" stroke="black" paint-order="fill stroke markers" d=" M 1049.9720118798086 128.884754037 L 1049.9720118798086 716.9520728369998" stroke-miterlimit="10" stroke-width="1.3612669416666667" stroke-dasharray="12.565541,5.445067766666667"/><path fill="none" stroke="black" paint-order="fill stroke markers" d=" M 1343.7042459076733 128.884754037 L 1343.7042459076733 716.9520728369998" stroke-miterlimit="10" stroke-width="1.3612669416666667" stroke-dasharray="12.565541,5.445067766666667"/><path fill="none" stroke="black" paint-order="fill stroke markers" d=" M 1505.4653559936733 128.884754037 L 1505.4653559936733 716.9520728369998" stroke-miterlimit="10" stroke-width="1.3612669416666667" stroke-dasharray="12.565541,5.445067766666667"/></g><g><path fill="none" stroke="none"/><g><path fill="white" stroke="black" paint-order="fill stroke markers" d=" M 8.167601649999995 84.779705127 L 169.0695063608047 84.779705127 L 169.0695063608047 128.884754037 L 8.167601649999995 128.884754037 L 8.167601649999995 84.779705127 Z" stroke-miterlimit="10" stroke-width="2.613632528" stroke-dasharray=""/></g><g><g/><text fill="black" stroke="none" font-family="sans-serif" font-size="11pt" font-style="normal" font-weight="normal" text-decoration="normal" x="25.8912972305" y="112.549550737" text-anchor="start" dominant-baseline="alphabetic" xml:space="preserve">MHV SM Datalayer</text></g><path fill="none" stroke="none"/><g><path fill="white" stroke="black" paint-order="fill stroke markers" d=" M 185.40470966080468 84.779705127 L 463.6508831704375 84.779705127 L 463.6508831704375 128.884754037 L 185.40470966080468 128.884754037 L 185.40470966080468 84.779705127 Z" stroke-miterlimit="10" stroke-width="2.613632528" stroke-dasharray=""/></g><g><g/><text fill="black" stroke="none" font-family="sans-serif" font-size="11pt" font-style="normal" font-weight="normal" text-decoration="normal" x="203.12840524130468" y="112.549550737" text-anchor="start" dominant-baseline="alphabetic" xml:space="preserve">SM Exchange RESTful MHV Listener</text></g><g><path fill="white" stroke="black" paint-order="fill stroke markers" d=" M 525.8145537271446 96.867755569 L 525.8145537271446 62.563828639 L 573.5133473631445 62.563828639 L 573.5133473631445 96.867755569" stroke-miterlimit="10" stroke-width="2.7769845610000004" stroke-dasharray=""/><path fill="white" stroke="black" paint-order="fill stroke markers" d=" M 573.5133473631445 61.3713587981 L 573.5121549032408 61.47916934301662 L 573.5085776427748 61.58696910696859 L 573.5026159394695 61.69474731006935 L 573.4942703894901 61.8024931745884 L 573.4835418273849 61.91019592602908 L 573.4704313260011 62.017844794206 L 573.4549401963778 62.125429014322044 L 573.4370699876152 62.232937828044854 L 573.4168224867192 62.34036048458265 L 573.394199718423 62.44768624175929 L 573.3692039449846 62.55490436708851 L 573.3418376659606 62.66200413884712 L 573.312103617956 62.76897484714718 L 573.2800047743509 62.87580579500701 L 573.2455443450028 62.982486299420856 L 573.208725775926 63.08900569242717 L 573.1695527489467 63.19535332217542 L 573.1280291813349 63.30151855399125 L 573.0841592254129 63.40749077143996 L 573.0379472681395 63.5132593773881 L 572.9893979306722 63.618813795063225 L 572.9385160679042 63.724143469111524 L 572.8853067679793 63.82923786665337 L 572.829775351783 63.93408647833659 L 572.771927372411 64.03867881938739 L 572.7117686146129 64.1430044306588 L 572.6493050942142 64.24705287967667 L 572.584543057515 64.35081376168277 L 572.517488980665 64.45427670067541 L 572.4481495690161 64.55743135044686 L 572.3765317564514 64.66026739561813 L 572.3026427046927 64.7627745526704 L 572.2264898025837 64.86494257097338 L 572.1480806653509 64.96676123381039 L 572.0674231338428 65.06822035939997 L 571.9845252737454 65.16930980191414 L 571.8993953747755 65.27001945249287 L 571.8120419498521 65.37033924025505 L 571.7224737342449 65.47025913330548 L 571.6306996847009 65.56976913973813 L 571.5367289785484 65.66885930863528 L 571.4405710127799 65.7675197310626 L 571.3422354031118 65.86574054106009 L 571.2417319830229 65.96351191662859 L 571.1390708027718 66.06082408071202 L 571.0342621283908 66.15766730217506 L 570.9273164406599 66.25403189677627 L 570.8182444340589 66.3499082281365 L 570.7070570156976 66.4452867087025 L 570.593765304225 66.54015780070569 L 570.4783806287181 66.63451201711595 L 570.3609145275481 66.72833992259025 L 570.2413787472271 66.82163213441623 L 570.1197852412339 66.91437932345046 L 569.9961461688175 67.00657221505134 L 569.8704738937821 67.0982015900065 L 569.7427809832507 67.18925828545483 L 569.6130802064076 67.27973319580266 L 569.4813845332227 67.36961727363435 L 569.3477071331534 67.45890153061701 L 569.2120613738285 67.54757703839935 L 569.0744608197107 67.6356349295045 L 568.9349192307408 67.72306639821673 L 568.7934505609614 67.80986270146201 L 568.6500689571217 67.89601515968236 L 568.5047887572625 67.98151515770375 L 568.3576244892827 68.06635414559763 L 568.2085908694866 68.15052363953589 L 568.0577028011116 68.2340152226393 L 567.9049753728393 68.31682054581911 L 567.7504238572851 68.39893132861202 L 567.5940637094716 68.48033936000816 L 567.4359105652833 68.56103649927225 L 567.275980239903 68.6410146767576 L 567.1142887262298 68.72026589471311 L 566.9508521932805 68.79878222808303 L 566.785686984572 68.87655582529945 L 566.6188096164876 68.95357890906746 L 566.4502367766252 69.02984377714286 L 566.279985322128 69.10534280310242 L 566.1080722779999 69.18006843710643 L 565.9345148354018 69.25401320665378 L 565.7593303499335 69.32716971732913 L 565.5825363398975 69.39953065354239 L 565.4041504845475 69.47108877926021 L 565.2241906223202 69.54183693872967 L 565.0426747490521 69.61176805719379 L 564.8596210161792 69.68087514159897 L 564.6750477289222 69.74915128129439 L 564.488973344456 69.81658964872294 L 564.301416470064 69.88318350010411 L 564.1123958612774 69.94892617610824 L 563.9219304199995 70.01381110252252 L 563.7300391926157 70.07783179090838 L 563.5367413680889 70.14098183925032 L 563.3420562760404 70.20325493259614 L 563.1460033848172 70.26464484368842 L 562.948602299545 70.32514543358717 L 562.7498727601679 70.38475065228383 L 562.5498346394742 70.44345453930622 L 562.3485079411092 70.50125122431453 L 562.1459127975752 70.55813492768844 L 561.9420694682174 70.61409996110503 L 561.7369983371991 70.66914072810756 L 561.5307199114624 70.72325172466522 L 561.323254818678 70.77642753972344 L 561.1146238051823 70.82866285574504 L 560.9048477339029 70.87995244924193 L 560.6939475822719 70.9302911912975 L 560.4819444401288 70.9796740480795 L 560.2688595076112 71.0280960813434 L 560.0547140930348 71.07555244892625 L 559.8395296107625 71.12203840523081 L 559.6233275790632 71.16754930170019 L 559.4061296179601 71.21208058728268 L 559.1879574470681 71.25562780888683 L 558.9688328834226 71.29818661182675 L 558.7487778392972 71.33975274025764 L 558.5278143200131 71.38032203760127 L 558.3059644217382 71.41989044696174 L 558.0832503292771 71.45845401153106 L 557.8596943138537 71.49600887498494 L 557.6353187308832 71.5325512818683 L 557.4101460177369 71.56807757797091 L 557.1841986914985 71.60258421069277 L 556.9574993467123 71.63606772939937 L 556.7300706531239 71.66852478576672 L 556.501935353413 71.69995213411627 L 556.2731162609198 71.73034663173934 L 556.0436362573624 71.7597052392115 L 555.8135182905504 71.78802502069648 L 555.5827853720883 71.81530314423973 L 555.351460575076 71.84153688205163 L 555.1195670318001 71.86672361078024 L 554.887127931422 71.8908608117737 L 554.6541665176579 71.913946071332 L 554.420706086455 71.93597708094846 L 554.186769983662 71.95695163754044 L 553.952381602694 71.97686764366978 L 553.717564382194 71.99572310775245 L 553.4823418036884 72.01351614425778 L 553.2467373892388 72.03024497389691 L 553.0107746990905 72.04590792380084 L 552.7744773293158 72.06050342768764 L 552.5378689094548 72.07403002601906 L 552.3009731001522 72.08648636614654 L 552.0638135907917 72.09787120244648 L 551.8264140971265 72.1081833964447 L 551.5887983589081 72.11742191693043 L 551.3509901375124 72.12558584005929 L 551.1130132135634 72.13267434944576 L 550.874891384555 72.13868673624485 L 550.6366484624718 72.14362239922286 L 550.3983082714075 72.14748084481762 L 550.1598946451825 72.1502616871878 L 549.9214314249607 72.15196464825142 L 549.6829424568656 72.15258955771385 L 549.444451589595 72.15213635308466 L 549.2059826720372 72.15060507968391 L 548.967559550885 72.14799589063767 L 548.729206068252 72.1443090468627 L 548.4909460592876 72.13954491704027 L 548.2528033497944 72.1337039775794 L 548.0148017538447 72.12678681256918 L 547.7769650713999 72.11879411372033 L 547.53931708593 72.10972668029609 L 547.3018815620354 72.09958541903224 L 547.0646822430707 72.08837134404646 L 546.8277428487703 72.07608557673689 L 546.591087072876 72.06272934567005 L 546.3547385807682 72.04830398645788 L 546.1187210070991 72.0328109416243 L 545.8830579534296 72.01625176046089 L 545.6477729858684 71.99862809887196 L 545.4128896327164 71.97994171920898 L 545.1784313821131 71.96019449009434 L 544.9444216796883 71.9393883862345 L 544.7108839262169 71.91752548822251 L 544.47784147528 71.89460798232996 L 544.2453176309283 71.87063816028832 L 544.0133356453524 71.84561841905983 L 543.7819187165578 71.81955126059778 L 543.5510899860443 71.79243929159627 L 543.3208725364927 71.7642852232296 L 543.0912893894562 71.73509187088118 L 542.8623635030578 71.7048621538619 L 542.6341177696959 71.67359909511825 L 542.4065750137532 71.64130582093009 L 542.1797579893159 71.6079855605979 L 541.9536893778975 71.57364164611994 L 541.7283917861705 71.53827751185906 L 541.5038877437064 71.50189669419922 L 541.2801997007225 71.46450283119185 L 541.0573500258366 71.42609966219209 L 540.8353610038305 71.38669102748484 L 540.6142548334215 71.34628086790075 L 540.394053625042 71.30487322442208 L 540.1747793986299 71.26247223777868 L 539.9564540814247 71.21908214803388 L 539.7390995057763 71.17470729416048 L 539.5227374069613 71.12935211360693 L 539.3073894210089 71.08302114185344 L 539.0930770825387 71.0357190119586 L 538.8798218226055 70.987450454096 L 538.6676449665581 70.93822029508118 L 538.4565677319048 70.88803345788901 L 538.2466112261934 70.8368949611614 L 538.0377964448995 70.7848099187054 L 537.8301442693272 70.73178353898187 L 537.623675464521 70.67782112458457 L 537.4184106771894 70.62292807170999 L 537.2143704336399 70.56710986961765 L 537.0115751377269 70.51037210008127 L 536.8100450688112 70.4527204368305 L 536.6098003797315 70.39416064498364 L 536.4108610947899 70.33469858047107 L 536.2132471077491 70.27434018944969 L 536.0169781798432 70.2130915077083 L 535.8220739378014 70.15095866006402 L 535.6285538718855 70.08794785974987 L 535.4364373339407 70.02406540779336 L 535.245743535461 69.95931769238642 L 535.056491545667 69.89371118824668 L 534.8687002896 69.82725245596986 L 534.6823885462294 69.7599481413738 L 534.497574946574 69.69180497483389 L 534.3142779718399 69.62282977060998 L 534.1325159515718 69.55302942616503 L 533.9523070618202 69.4824109214753 L 533.7736693233239 69.41098131833243 L 533.596620599708 69.3387477596372 L 533.4211785956971 69.26571746868528 L 533.2473608553457 69.19189774844492 L 533.0751847602828 69.1172959808266 L 532.9046675279744 69.04191962594494 L 532.7358262100018 68.96577622137262 L 532.5686776903559 68.88887338138663 L 532.4032386837496 68.81121879620689 L 532.2395257339454 68.73282023122718 L 532.0775552121021 68.6536855262387 L 531.9173433151368 68.573822594646 L 531.7589060641056 68.49323942267567 L 531.6022593026019 68.41194406857777 L 531.447418695171 68.32994466181995 L 531.2943997257446 68.24724940227456 L 531.1432176960924 68.16386655939866 L 530.9938877242911 68.07980447140702 L 530.8464247432136 67.99507154443839 L 530.700843499035 67.90967625171488 L 530.5571585497586 67.8236271326946 L 530.4153842637594 67.73693279221771 L 530.275534818348 67.64960189964606 L 530.1376241983522 67.56164318799608 L 530.0016661947192 67.47306545306569 L 529.8676744031361 67.38387755255452 L 529.7356622226704 67.29408840517834 L 529.60564285443 67.20370698977703 L 529.4776293002435 67.11274234441683 L 529.3516343613596 67.02120356548647 L 529.2276706371673 66.92909980678756 L 529.1057505239356 66.83644027861922 L 528.9858862135742 66.74323424685704 L 528.8680896924143 66.64949103202653 L 528.7523727400098 66.55522000837107 L 528.6387469279596 66.46043060291444 L 528.5272236187502 66.3651322945182 L 528.4178139646195 66.2693346129338 L 528.3105289064418 66.17304713784955 L 528.2053791726336 66.07627949793272 L 528.1023752780806 65.97904136986665 L 528.0015275230862 65.88134247738313 L 527.9028459923421 65.78319259028999 L 527.8063405539192 65.68460152349414 L 527.7120208582808 65.58557913602012 L 527.6198963373178 65.48613533002413 L 527.5299762034056 65.38628004980393 L 527.4422694484826 65.2860232808043 L 527.3567848431513 65.18537504861862 L 527.2735309358011 65.08434541798623 L 527.192516051753 64.982944491786 L 527.1137482924282 64.88118241002603 L 527.037235534537 64.77906934882972 L 526.9629854292912 64.67661551941809 L 526.8910054016396 64.5738311670887 L 526.8213026495249 64.47072657019112 L 526.7538841431644 64.36731203909913 L 526.6887566243524 64.26359791517966 L 526.6259266057865 64.15959456975868 L 526.5654003704163 64.05531240308405 L 526.5071839708148 63.95076184328555 L 526.4512832285736 63.84595334533201 L 526.3977037337202 63.74089738998592 L 526.3464508441593 63.63560448275524 L 526.2975296851375 63.530085152842965 L 526.2509451487297 63.42434995209415 L 526.2067018933508 63.318409453940745 L 526.1648043432893 63.2122742523443 L 526.1252566882656 63.105954960736526 L 526.088062883012 62.99946221095797 L 526.0532266468781 62.892806652194885 L 526.0207514634584 62.78599894991426 L 525.9906405802444 62.679049784797314 L 525.9628970082991 62.57196985167143 L 525.9375235219568 62.464769858440704 L 525.9145226585448 62.357460525015114 L 525.8938967181303 62.25005258223858 L 525.8756477632902 62.14255677081588 L 525.8597776189048 62.03498384023857 L 525.8462878719753 61.92734454771006 L 525.835179871465 61.81964965706991 L 525.826454728165 61.71190993771744 L 525.820113314582 61.6041361635348 L 525.8161562648525 61.49633911180959 L 525.8145839746777 61.38852956215717 L 525.8153966012857 61.28071829544265 L 525.8185940634143 61.172916092702856 L 525.8241760413199 61.06513373406823 L 525.8321419768096 60.957381997684834 L 525.8424910732963 60.84967165863649 L 525.8552222958791 60.74201348786736 L 525.8703343714462 60.6344182511048 L 525.8878257888028 60.526896707782825 L 525.9076947988217 60.41945960996616 L 525.9299394146183 60.31211770127506 L 525.9545574117498 60.204881715810956 L 525.9815463284367 60.097762377083015 L 526.0109034658101 59.99077039693585 L 526.0426258881806 59.88391647447831 L 526.0767104233325 59.7772112950136 L 526.1131536628405 59.67066552897075 L 526.1519519624113 59.56428983083758 L 526.193101442247 59.45809483809524 L 526.236597987434 59.35209117015452 L 526.2824372483541 59.24628942729389 L 526.3306146411193 59.14070018959944 L 526.3811253480305 59.03533401590697 L 526.4339643180591 58.93020144274604 L 526.4891262673523 58.82531298328635 L 526.5466056797609 58.72067912628645 L 526.6063968073917 58.61631033504484 L 526.6684936711815 58.51221704635366 L 526.732890061496 58.40840966945505 L 526.7995795387499 58.30489858500019 L 526.8685554340507 58.20169414401126 L 526.9398108498665 58.098806666846365 L 527.0133386607151 57.996246442167475 L 527.0891315138767 57.894023725911595 L 527.1671818301292 57.79214874026516 L 527.2474818045059 57.69063167264185 L 527.3300234070763 57.58948267466382 L 527.414798383749 57.488711861146584 L 527.501798257097 57.38832930908751 L 527.5910143272054 57.28834505665816 L 527.6824376725415 57.18876910220045 L 527.776059150847 57.08961140322686 L 527.871869400052 56.99088187542464 L 527.9698588392116 56.8925903916643 L 528.0700176694635 56.794746781012314 L 528.172335875008 56.6973608277482 L 528.2768032241098 56.60044227038614 L 528.3834092701213 56.5040008007011 L 528.4921433525266 56.40804606275968 L 528.6029945980079 56.31258765195572 L 528.7159519215332 56.217635114050736 L 528.8310040274644 56.12319794421941 L 528.9481394106865 56.029285586100016 L 529.0673463577589 55.93590743085011 L 529.1886129480863 55.8430728162074 L 529.3119270551108 55.75079102555599 L 529.4372763475242 55.65907128699804 L 529.5646482905019 55.56792277243099 L 529.6940301469557 55.47735459663031 L 529.8254089788078 55.387375816338135 L 529.9587716482844 55.29799542935749 L 530.0941048192298 55.20922237365261 L 530.2313949584396 55.12106552645507 L 530.3706283370144 55.033533703376136 L 530.5117910317323 54.94663565752517 L 530.6548689264414 54.86038007863435 L 530.7998477134715 54.77477559218967 L 530.9467128950648 54.689830758568455 L 531.0954497848255 54.60555407218327 L 531.2460435091884 54.52195396063252 L 531.3984790089069 54.439038783857704 L 531.5527410405576 54.35681683330739 L 531.7088141780663 54.27529633110813 L 531.8666828142491 54.19448542924221 L 532.026331162374 54.114392208732454 L 532.1877432577392 54.03502467883419 L 532.3509029592697 53.95639077623426 L 532.5157939511312 53.878498364257396 L 532.6823997443621 53.801355232079885 L 532.8507036785219 53.72496909395066 L 533.0206889233572 53.649347588419886 L 533.1923384804854 53.57449827757509 L 533.3656351850939 53.50042864628498 L 533.5405617076564 53.42714610145097 L 533.7171005556665 53.35465797126647 L 533.8952340753866 53.28297150448409 L 534.0749444536132 53.21209386969077 L 534.2562137194581 53.14203215459092 L 534.4390237461457 53.072793365297684 L 534.6233562528259 53.00438442563227 L 534.8091928064017 52.93681217643165 L 534.9965148233723 52.870083374864436 L 535.1853035716922 52.80420469375517 L 535.375540172644 52.739182720917064 L 535.5672056027262 52.67502395849323 L 535.7602806955553 52.611734822306424 L 535.9547461437829 52.54932164121754 L 536.1505825010265 52.48779065649267 L 536.3477701838133 52.427148021179015 L 536.5462894735396 52.36739979948956 L 536.7461205184416 52.3085519661967 L 536.9472433355813 52.25061040603471 L 537.149637812845 52.19358091311133 L 537.3532837109533 52.13746919032833 L 537.5581606654861 52.08228084881122 L 537.7642481889187 52.02802140734818 L 537.9715256726706 51.974696291838114 L 538.1799723891661 51.922310834748146 L 538.3895674939073 51.87087027458034 L 538.6002900275582 51.82037975534783 L 538.8121189180413 51.770844326060484 L 539.0250329826439 51.72226894021993 L 539.239010930137 51.674658455324284 L 539.4540313629043 51.62801763238236 L 539.6700727790815 51.58235113543759 L 539.887113574707 51.5376635311016 L 540.1051320458823 51.49395928809759 L 540.3241063909419 51.451242776813444 L 540.5440147126337 51.409518268864694 L 540.7648350203089 51.368789936667355 L 540.9865452321205 51.32906185302072 L 541.2091231772324 51.29033799070003 L 541.4325465980354 51.252622222059266 L 541.6567931523736 51.21591831864385 L 541.8818404157785 51.18022995081354 L 542.1076658837112 51.14556068737539 L 542.3342469738133 51.11191399522683 L 542.5615610281644 51.079293239009054 L 542.7895853155485 51.047701680770494 L 543.018297033727 51.01714247964064 L 543.2476733117186 50.98761869151416 L 543.4776912120867 50.95913326874524 L 543.7083277332329 50.93168905985244 L 543.9395598116972 50.90528880923376 L 544.1713643244645 50.87993515689227 L 544.4037180912769 50.85563063817208 L 544.6365978769511 50.83237768350481 L 544.8699803937027 50.81017861816654 L 545.1038423034745 50.78903566204531 L 545.3381602202703 50.768950929419105 L 545.5729107124938 50.749926428744466 L 545.8080703052914 50.7319640624556 L 546.0436154828998 50.71506562677416 L 546.2795226909974 50.69923281152964 L 546.5157683390602 50.684467199990365 L 546.75232880272 50.6707702687052 L 546.9891804261277 50.658143387355835 L 547.2262995243184 50.64658781861989 L 547.4636623855798 50.63610471804463 L 547.7012452738236 50.62669513393135 L 547.9390244309589 50.61836000723063 L 548.1769760792682 50.61110017144819 L 548.415076423785 50.604916352561574 L 548.6533016546731 50.5998091689475 L 548.8916279496082 50.595779131320086 L 549.1300314761592 50.592826642679725 L 549.368488394172 50.59095199827282 L 549.6069748581539 50.59015538556226 L 549.8454670196569 50.59043688420866 L 550.0839410296637 50.59179646606236 L 550.3223730409721 50.594233995166334 L 550.5607392105796 50.59774922776969 L 550.7990157020679 50.6023418123521 L 551.0371786879864 50.60801128965893 L 551.2752043522349 50.61475709274719 L 551.5130688924454 50.622578547042174 L 551.7507485223621 50.63147487040497 L 551.9882194742202 50.64144517321068 L 552.2254580011221 50.6524884584373 L 552.462440379413 50.66460362176552 L 552.6991429110526 50.67778945168912 L 552.9355419259849 50.69204462963607 L 553.1716137845056 50.70736773010048 L 553.4073348796252 50.72375722078505 L 553.6426816394309 50.74121146275439 L 553.8776305294427 50.759728710598836 L 554.1121580549675 50.77930711260903 L 554.3462407634482 50.79994471096109 L 554.579855246809 50.821639441912396 L 554.812978143796 50.844389136007905 L 555.0455861423142 50.86819151829718 L 555.2776559817572 50.893044208561825 L 555.5091644553347 50.91894472155353 L 555.7400884123922 50.94589046724256 L 555.9704047607264 50.973878751076825 L 556.2000904688944 51.00290677425126 L 556.4291225685167 51.03297163398772 L 556.6574781565744 51.064070323825305 L 556.8851343976988 51.09619973392093 L 557.1120685264556 51.129356651360375 L 557.338257849621 51.16353776047952 L 557.5636797484512 51.198739643195935 L 557.7883116809442 51.23495877935069 L 558.0121311840938 51.27219154706035 L 558.2351158761364 51.31043422307917 L 558.4572434587884 51.349682983171405 L 558.6784917194769 51.38993390249377 L 558.89883853356 51.43118295598788 L 559.1182618665399 51.47342601878273 L 559.3367397762663 51.51665886660727 L 559.5542504151302 51.56087717621274 L 559.770772032249 51.60607652580503 L 559.9862829756414 51.65225239548683 L 560.2007616943927 51.69940016770967 L 560.4141867408097 51.74751512773561 L 560.6265367725656 51.79659246410874 L 560.8377905548343 51.84662726913632 L 561.0479269624135 51.89761453937955 L 561.2569249818375 51.949549176153894 L 561.4647637134788 52.00242598603895 L 561.671422373637 52.0562396813978 L 561.8768802966188 52.11098488090573 L 562.0811169368027 52.16665611008844 L 562.284111870695 52.22324780186939 L 562.4858447989716 52.28075429712656 L 562.6862955485077 52.339169845258354 L 562.8854440743953 52.398488604758626 L 563.0832704619479 52.458704643800864 L 563.2797549286915 52.51981194083135 L 563.4748778263433 52.581804385171296 L 563.6686196427761 52.64467577762793 L 563.8609610039695 52.708419831114405 L 564.0518826759479 52.77303017127848 L 564.241365566703 52.83850033713999 L 564.429390728104 52.90482378173691 L 564.615939357791 52.97199387278003 L 564.8009928010567 53.040003893316246 L 564.984532552711 53.108847042400164 L 565.1665402589317 53.17851643577425 L 565.3469977190998 53.24900510655722 L 565.5258868876197 53.32030600594074 L 565.7031898757234 53.39241200389429 L 565.8788889532602 53.465315889878156 L 566.0529665504686 53.5390103735645 L 566.2254052597339 53.61348808556637 L 566.3961878373289 53.68874157817461 L 566.5652972051381 53.76476332610268 L 566.7327164523657 53.84154572723915 L 566.8984288372266 53.91908110340788 L 567.0624177886202 53.99736170113587 L 567.2246669077882 54.07637969242858 L 567.3851599699539 54.156127175552726 L 567.5438809259447 54.236596175826456 L 567.7008139037972 54.3177786464168 L 567.8559432103445 54.39966646914434 L 568.0092533327854 54.48225145529506 L 568.1607289402351 54.56552534643915 L 568.3103548852592 54.6494798152569 L 568.458116205388 54.73410646637139 L 568.6039981246125 54.81939683718802 L 568.7479860548624 54.9053423987408 L 568.8900655974646 54.99193455654518 L 569.0302225445834 55.079164651457546 L 569.1684428806406 55.16702396054111 L 569.304712783718 55.25550369793815 L 569.4390186269387 55.344595015748695 L 569.5713469798305 55.43428900491518 L 569.7016846096682 55.52457669611344 L 569.8300184827975 55.615449060649595 L 569.9563357659382 55.706897011362926 L 570.0806238274669 55.79891140353456 L 570.2028702386813 55.891483035801954 L 570.323062775042 55.98460265107904 L 570.4411894173957 56.07826093748187 L 570.5572383531763 56.17244852925987 L 570.6711979775872 56.26715600773234 L 570.7830568947609 56.36237390223035 L 570.8928039188987 56.45809269104382 L 571.0004280753899 56.55430280237361 L 571.1059186019083 56.65099461528878 L 571.2092649494894 56.74815846068861 L 571.3104567835843 56.84578462226952 L 571.4094839850942 56.943863337496715 L 571.5063366513812 57.0423847985804 L 571.6010050972595 57.14133915345658 L 571.6934798559635 57.240716506772216 L 571.7837516800943 57.34050692087479 L 571.8718115425446 57.44070041680606 L 571.9576506374017 57.54128697529992 L 572.0412603808277 57.64225653778434 L 572.1226324119176 57.74359900738722 L 572.2017585935365 57.84530424994605 L 572.278631013132 57.94736209502132 L 572.3532419835261 58.04976233691358 L 572.4255840436842 58.15249473568397 L 572.4956499594604 58.25554901817823 L 572.5634327243214 58.35891487905398 L 572.6289255600474 58.46258198181127 L 572.6921219174092 58.566539959826216 L 572.753015476824 58.67077841738765 L 572.8116001489864 58.77528693073668 L 572.867870075478 58.88005504910905 L 572.9218196293532 58.985072295780256 L 572.9734434157015 59.09032816911312 L 573.0227362721871 59.19581214360803 L 573.0696932695657 59.301513670955444 L 573.1143097121766 59.4074221810907 L 573.1565811384127 59.513527083251056 L 573.1965033211665 59.619817767034704 L 573.2340722682532 59.72628360346185 L 573.2692842228091 59.832913946037564 L 573.3021356636684 59.939698131816456 L 573.3326233057144 60.046625482468926 L 573.3607441002081 60.153685305349015 L 573.3864952350934 60.26086689456366 L 573.4098741352786 60.36815953204325 L 573.4308784628929 60.47555248861345 L 573.4495061175212 60.5830350250681 L 573.4657552364134 60.69059639324311 L 573.4796241946714 60.79822583709131 L 573.4911116054107 60.905912593758 L 573.5002163198998 61.01364589465726 L 573.506937427675 61.12141496654876 L 573.5112742566309 61.22920903261514 L 573.5132263730885 61.337017313539604 M 573.5133473631445 95.6752857281 L 573.5121549032408 95.78309627301661 L 573.5085776427748 95.89089603696858 L 573.5026159394695 95.99867424006935 L 573.4942703894901 96.1064201045884 L 573.4835418273849 96.21412285602908 L 573.4704313260011 96.321771724206 L 573.4549401963778 96.42935594432204 L 573.4370699876152 96.53686475804484 L 573.4168224867192 96.64428741458265 L 573.394199718423 96.75161317175929 L 573.3692039449846 96.85883129708851 L 573.3418376659606 96.96593106884711 L 573.312103617956 97.07290177714718 L 573.2800047743509 97.17973272500701 L 573.2455443450028 97.28641322942086 L 573.208725775926 97.39293262242717 L 573.1695527489467 97.49928025217542 L 573.1280291813349 97.60544548399125 L 573.0841592254129 97.71141770143996 L 573.0379472681395 97.8171863073881 L 572.9893979306722 97.92274072506322 L 572.9385160679042 98.02807039911151 L 572.8853067679793 98.13316479665336 L 572.829775351783 98.23801340833658 L 572.771927372411 98.34260574938737 L 572.7117686146129 98.4469313606588 L 572.6493050942142 98.55097980967666 L 572.584543057515 98.65474069168278 L 572.517488980665 98.7582036306754 L 572.4481495690161 98.86135828044685 L 572.3765317564514 98.96419432561812 L 572.3026427046927 99.0667014826704 L 572.2264898025837 99.16886950097337 L 572.1480806653509 99.27068816381038 L 572.0674231338428 99.37214728939998 L 571.9845252737454 99.47323673191414 L 571.8993953747755 99.57394638249288 L 571.8120419498521 99.67426617025505 L 571.7224737342449 99.77418606330548 L 571.6306996847009 99.87369606973812 L 571.5367289785484 99.97278623863527 L 571.4405710127799 100.0714466610626 L 571.3422354031118 100.1696674710601 L 571.2417319830229 100.2674388466286 L 571.1390708027718 100.36475101071201 L 571.0342621283908 100.46159423217506 L 570.9273164406599 100.55795882677627 L 570.8182444340589 100.65383515813649 L 570.7070570156976 100.74921363870249 L 570.593765304225 100.84408473070569 L 570.4783806287181 100.93843894711594 L 570.3609145275481 101.03226685259024 L 570.2413787472271 101.12555906441622 L 570.1197852412339 101.21830625345046 L 569.9961461688175 101.31049914505132 L 569.8704738937821 101.4021285200065 L 569.7427809832507 101.49318521545483 L 569.6130802064076 101.58366012580265 L 569.4813845332227 101.67354420363434 L 569.3477071331534 101.762828460617 L 569.2120613738285 101.85150396839936 L 569.0744608197107 101.93956185950451 L 568.9349192307408 102.02699332821673 L 568.7934505609614 102.11378963146201 L 568.6500689571217 102.19994208968237 L 568.5047887572625 102.28544208770374 L 568.3576244892827 102.37028107559762 L 568.2085908694866 102.45445056953588 L 568.0577028011116 102.53794215263929 L 567.9049753728393 102.6207474758191 L 567.7504238572851 102.70285825861201 L 567.5940637094716 102.78426629000816 L 567.4359105652833 102.86496342927225 L 567.275980239903 102.9449416067576 L 567.1142887262298 103.02419282471311 L 566.9508521932805 103.10270915808303 L 566.785686984572 103.18048275529944 L 566.6188096164876 103.25750583906745 L 566.4502367766252 103.33377070714286 L 566.279985322128 103.4092697331024 L 566.1080722779999 103.48399536710642 L 565.9345148354018 103.55794013665377 L 565.7593303499335 103.63109664732913 L 565.5825363398975 103.70345758354237 L 565.4041504845475 103.7750157092602 L 565.2241906223202 103.84576386872968 L 565.0426747490521 103.91569498719377 L 564.8596210161792 103.98480207159896 L 564.6750477289222 104.05307821129438 L 564.488973344456 104.12051657872294 L 564.301416470064 104.1871104301041 L 564.1123958612774 104.25285310610823 L 563.9219304199995 104.31773803252251 L 563.7300391926157 104.38175872090837 L 563.5367413680889 104.44490876925032 L 563.3420562760404 104.50718186259614 L 563.1460033848172 104.5685717736884 L 562.948602299545 104.62907236358716 L 562.7498727601679 104.68867758228383 L 562.5498346394742 104.7473814693062 L 562.3485079411092 104.80517815431453 L 562.1459127975752 104.86206185768845 L 561.9420694682174 104.91802689110501 L 561.7369983371991 104.97306765810755 L 561.5307199114624 105.02717865466522 L 561.323254818678 105.08035446972343 L 561.1146238051823 105.13258978574503 L 560.9048477339029 105.18387937924192 L 560.6939475822719 105.23421812129749 L 560.4819444401288 105.28360097807949 L 560.2688595076112 105.33202301134341 L 560.0547140930348 105.37947937892625 L 559.8395296107625 105.4259653352308 L 559.6233275790632 105.4714762317002 L 559.4061296179601 105.51600751728267 L 559.1879574470681 105.55955473888682 L 558.9688328834226 105.60211354182675 L 558.7487778392972 105.64367967025764 L 558.5278143200131 105.68424896760128 L 558.3059644217382 105.72381737696173 L 558.0832503292771 105.76238094153106 L 557.8596943138537 105.79993580498493 L 557.6353187308832 105.83647821186828 L 557.4101460177369 105.8720045079709 L 557.1841986914985 105.90651114069276 L 556.9574993467123 105.93999465939936 L 556.7300706531239 105.97245171576672 L 556.501935353413 106.00387906411626 L 556.2731162609198 106.03427356173933 L 556.0436362573624 106.0636321692115 L 555.8135182905504 106.09195195069648 L 555.5827853720883 106.11923007423972 L 555.351460575076 106.14546381205162 L 555.1195670318001 106.17065054078024 L 554.887127931422 106.1947877417737 L 554.6541665176579 106.21787300133201 L 554.420706086455 106.23990401094846 L 554.186769983662 106.26087856754044 L 553.952381602694 106.28079457366978 L 553.717564382194 106.29965003775246 L 553.4823418036884 106.31744307425777 L 553.2467373892388 106.3341719038969 L 553.0107746990905 106.34983485380084 L 552.7744773293158 106.36443035768762 L 552.5378689094548 106.37795695601905 L 552.3009731001522 106.39041329614655 L 552.0638135907917 106.40179813244647 L 551.8264140971265 106.4121103264447 L 551.5887983589081 106.42134884693041 L 551.3509901375124 106.42951277005928 L 551.1130132135634 106.43660127944577 L 550.874891384555 106.44261366624485 L 550.6366484624718 106.44754932922287 L 550.3983082714075 106.45140777481762 L 550.1598946451825 106.45418861718778 L 549.9214314249607 106.45589157825142 L 549.6829424568656 106.45651648771386 L 549.444451589595 106.45606328308465 L 549.2059826720372 106.4545320096839 L 548.967559550885 106.45192282063768 L 548.729206068252 106.44823597686269 L 548.4909460592876 106.44347184704026 L 548.2528033497944 106.43763090757939 L 548.0148017538447 106.43071374256917 L 547.7769650713999 106.42272104372033 L 547.53931708593 106.41365361029608 L 547.3018815620354 106.40351234903224 L 547.0646822430707 106.39229827404645 L 546.8277428487703 106.38001250673689 L 546.591087072876 106.36665627567004 L 546.3547385807682 106.35223091645787 L 546.1187210070991 106.33673787162431 L 545.8830579534296 106.32017869046089 L 545.6477729858684 106.30255502887195 L 545.4128896327164 106.28386864920897 L 545.1784313821131 106.26412142009434 L 544.9444216796883 106.2433153162345 L 544.7108839262169 106.22145241822251 L 544.47784147528 106.19853491232995 L 544.2453176309283 106.17456509028831 L 544.0133356453524 106.14954534905984 L 543.7819187165578 106.12347819059778 L 543.5510899860443 106.09636622159626 L 543.3208725364927 106.06821215322961 L 543.0912893894562 106.03901880088118 L 542.8623635030578 106.0087890838619 L 542.6341177696959 105.97752602511825 L 542.4065750137532 105.94523275093007 L 542.1797579893159 105.91191249059789 L 541.9536893778975 105.87756857611994 L 541.7283917861705 105.84220444185907 L 541.5038877437064 105.8058236241992 L 541.2801997007225 105.76842976119184 L 541.0573500258366 105.73002659219209 L 540.8353610038305 105.69061795748485 L 540.6142548334215 105.65020779790075 L 540.394053625042 105.60880015442207 L 540.1747793986299 105.56639916777867 L 539.9564540814247 105.52300907803387 L 539.7390995057763 105.47863422416049 L 539.5227374069613 105.43327904360692 L 539.3073894210089 105.38694807185344 L 539.0930770825387 105.33964594195861 L 538.8798218226055 105.291377384096 L 538.6676449665581 105.24214722508117 L 538.4565677319048 105.19196038788901 L 538.2466112261934 105.1408218911614 L 538.0377964448995 105.08873684870541 L 537.8301442693272 105.03571046898188 L 537.623675464521 104.98174805458457 L 537.4184106771894 104.92685500170998 L 537.2143704336399 104.87103679961766 L 537.0115751377269 104.81429903008126 L 536.8100450688112 104.75664736683049 L 536.6098003797315 104.69808757498365 L 536.4108610947899 104.63862551047107 L 536.2132471077491 104.57826711944969 L 536.0169781798432 104.51701843770829 L 535.8220739378014 104.45488559006402 L 535.6285538718855 104.39187478974986 L 535.4364373339407 104.32799233779335 L 535.245743535461 104.26324462238642 L 535.056491545667 104.19763811824667 L 534.8687002896 104.13117938596986 L 534.6823885462294 104.0638750713738 L 534.497574946574 103.99573190483389 L 534.3142779718399 103.92675670060999 L 534.1325159515718 103.85695635616503 L 533.9523070618202 103.7863378514753 L 533.7736693233239 103.71490824833242 L 533.596620599708 103.64267468963719 L 533.4211785956971 103.56964439868527 L 533.2473608553457 103.4958246784449 L 533.0751847602828 103.4212229108266 L 532.9046675279744 103.34584655594495 L 532.7358262100018 103.26970315137261 L 532.5686776903559 103.19280031138662 L 532.4032386837496 103.11514572620688 L 532.2395257339454 103.03674716122718 L 532.0775552121021 102.9576124562387 L 531.9173433151368 102.87774952464599 L 531.7589060641056 102.79716635267567 L 531.6022593026019 102.71587099857777 L 531.447418695171 102.63387159181995 L 531.2943997257446 102.55117633227457 L 531.1432176960924 102.46779348939864 L 530.9938877242911 102.383731401407 L 530.8464247432136 102.29899847443839 L 530.700843499035 102.21360318171489 L 530.5571585497586 102.12755406269459 L 530.4153842637594 102.04085972221772 L 530.275534818348 101.95352882964605 L 530.1376241983522 101.86557011799609 L 530.0016661947192 101.77699238306569 L 529.8676744031361 101.68780448255453 L 529.7356622226704 101.59801533517833 L 529.60564285443 101.50763391977702 L 529.4776293002435 101.41666927441683 L 529.3516343613596 101.32513049548646 L 529.2276706371673 101.23302673678755 L 529.1057505239356 101.14036720861921 L 528.9858862135742 101.04716117685703 L 528.8680896924143 100.95341796202653 L 528.7523727400098 100.85914693837105 L 528.6387469279596 100.76435753291443 L 528.5272236187502 100.66905922451821 L 528.4178139646195 100.5732615429338 L 528.3105289064418 100.47697406784954 L 528.2053791726336 100.3802064279327 L 528.1023752780806 100.28296829986664 L 528.0015275230862 100.18526940738312 L 527.9028459923421 100.08711952028997 L 527.8063405539192 99.98852845349413 L 527.7120208582808 99.8895060660201 L 527.6198963373178 99.79006226002413 L 527.5299762034056 99.69020697980392 L 527.4422694484826 99.5899502108043 L 527.3567848431513 99.48930197861863 L 527.2735309358011 99.38827234798623 L 527.192516051753 99.28687142178599 L 527.1137482924282 99.18510934002603 L 527.037235534537 99.08299627882971 L 526.9629854292912 98.98054244941808 L 526.8910054016396 98.87775809708869 L 526.8213026495249 98.7746535001911 L 526.7538841431644 98.67123896909912 L 526.6887566243524 98.56752484517966 L 526.6259266057865 98.46352149975867 L 526.5654003704163 98.35923933308405 L 526.5071839708148 98.25468877328554 L 526.4512832285736 98.14988027533201 L 526.3977037337202 98.04482431998592 L 526.3464508441593 97.93953141275524 L 526.2975296851375 97.83401208284296 L 526.2509451487297 97.72827688209414 L 526.2067018933508 97.62233638394075 L 526.1648043432893 97.5162011823443 L 526.1252566882656 97.40988189073651 L 526.088062883012 97.30338914095798 L 526.0532266468781 97.19673358219488 L 526.0207514634584 97.08992587991426 L 525.9906405802444 96.9829767147973 L 525.9628970082991 96.87589678167143 L 525.9375235219568 96.7686967884407 L 525.9145226585448 96.66138745501512 L 525.8938967181303 96.55397951223858 L 525.8756477632902 96.44648370081588 L 525.8597776189048 96.33891077023856 L 525.8462878719753 96.23127147771005 L 525.835179871465 96.1235765870699 L 525.826454728165 96.01583686771744 L 525.820113314582 95.90806309353479 L 525.8161562648525 95.80026604180959 L 525.8145839746777 95.69245649215716" stroke-miterlimit="10" stroke-width="2.7769845610000004" stroke-dasharray=""/></g><g><g/><text fill="black" stroke="none" font-family="sans-serif" font-size="11pt" font-style="normal" font-weight="normal" text-decoration="normal" x="479.9860864704375" y="123.98419304699999" text-anchor="start" dominant-baseline="alphabetic" xml:space="preserve">SM Exchange Queue</text></g><path fill="none" stroke="none"/><g><path fill="white" stroke="black" paint-order="fill stroke markers" d=" M 635.6770179198516 84.779705127 L 896.0133556140547 84.779705127 L 896.0133556140547 128.884754037 L 635.6770179198516 128.884754037 L 635.6770179198516 84.779705127 Z" stroke-miterlimit="10" stroke-width="2.613632528" stroke-dasharray=""/></g><g><g/><text fill="black" stroke="none" font-family="sans-serif" font-size="11pt" font-style="normal" font-weight="normal" text-decoration="normal" x="653.4007135003516" y="112.549550737" text-anchor="start" dominant-baseline="alphabetic" xml:space="preserve">SM Exchange Message Processor</text></g><path fill="none" stroke="none"/><g><path fill="white" stroke="black" paint-order="fill stroke markers" d=" M 912.3485589140547 84.779705127 L 1187.5954648455624 84.779705127 L 1187.5954648455624 128.884754037 L 912.3485589140547 128.884754037 L 912.3485589140547 84.779705127 Z" stroke-miterlimit="10" stroke-width="2.613632528" stroke-dasharray=""/></g><g><g/><text fill="black" stroke="none" font-family="sans-serif" font-size="11pt" font-style="normal" font-weight="normal" text-decoration="normal" x="930.0722544945547" y="112.549550737" text-anchor="start" dominant-baseline="alphabetic" xml:space="preserve">SM Exchange MHV to OH Translator</text></g><path fill="none" stroke="none"/><g><path fill="white" stroke="black" paint-order="fill stroke markers" d=" M 1278.3320136450445 84.779705127 L 1409.0764781703024 84.779705127 L 1409.0764781703024 128.884754037 L 1278.3320136450445 128.884754037 L 1278.3320136450445 84.779705127 Z" stroke-miterlimit="10" stroke-width="2.613632528" stroke-dasharray=""/></g><g><g/><text fill="black" stroke="none" font-family="sans-serif" font-size="11pt" font-style="normal" font-weight="normal" text-decoration="normal" x="1296.0557092255444" y="112.549550737" text-anchor="start" dominant-baseline="alphabetic" xml:space="preserve">OH FHIR APIs</text></g><path fill="none" stroke="none"/><g><path fill="white" stroke="black" paint-order="fill stroke markers" d=" M 1425.4116814703023 84.779705127 L 1585.5190305170445 84.779705127 L 1585.5190305170445 128.884754037 L 1425.4116814703023 128.884754037 L 1425.4116814703023 84.779705127 Z" stroke-miterlimit="10" stroke-width="2.613632528" stroke-dasharray=""/></g><g><g/><text fill="black" stroke="none" font-family="sans-serif" font-size="11pt" font-style="normal" font-weight="normal" text-decoration="normal" x="1443.1353770508022" y="112.549550737" text-anchor="start" dominant-baseline="alphabetic" xml:space="preserve">OH Messaging API</text></g></g><g><g><g><rect fill="white" stroke="none" x="127.93822522088279" y="161.555160637" width="157.26989997925781" height="21.23576429"/></g><text fill="black" stroke="none" font-family="sans-serif" font-size="11pt" font-style="normal" font-weight="normal" text-decoration="normal" x="130.3885057158828" y="176.25684360699998" text-anchor="start" dominant-baseline="alphabetic" xml:space="preserve">POSTs a new message</text></g><g><path fill="none" stroke="black" paint-order="fill stroke markers" d=" M 88.61855400540234 182.790924927 L 311.07847903195443 182.790924927" stroke-miterlimit="10" stroke-width="1.3612669416666667" stroke-dasharray=""/><g transform="translate(324.5277964156211,182.790924927) translate(-324.5277964156211,-182.790924927)"><path fill="black" stroke="none" paint-order="stroke fill markers" d=" M 310.9151269989544 175.98459021866665 L 324.5277964156211 182.790924927 L 310.9151269989544 189.59725963533333 Z"/></g></g><path fill="white" stroke="black" paint-order="fill stroke markers" d=" M 192.8790241857578 207.29372987699998 L 456.1765686454844 207.29372987699998 L 456.1765686454844 244.86469746699998 L 192.8790241857578 244.86469746699998 L 192.8790241857578 207.29372987699998" stroke-miterlimit="10" stroke-width="1.3612669416666667" stroke-dasharray=""/><g><text fill="black" stroke="none" font-family="sans-serif" font-size="11pt" font-style="italic" font-weight="normal" text-decoration="normal" x="215.7483088057578" y="230.16301449699995" text-anchor="start" dominant-baseline="alphabetic" xml:space="preserve">Might</text><text fill="black" stroke="none" font-family="sans-serif" font-size="11pt" font-style="normal" font-weight="normal" text-decoration="normal" x="251.59654488974218" y="230.16301449699995" text-anchor="start" dominant-baseline="alphabetic" xml:space="preserve"> do some light tranformation</text></g><g><g><rect fill="white" stroke="none" x="374.7494061567695" y="269.36750241699997" width="124.69293464722656" height="21.23576429"/></g><text fill="black" stroke="none" font-family="sans-serif" font-size="11pt" font-style="normal" font-weight="normal" text-decoration="normal" x="377.1996866517695" y="284.06918538699995" text-anchor="start" dominant-baseline="alphabetic" xml:space="preserve">Inserts into Queue</text></g><g><path fill="none" stroke="black" paint-order="fill stroke markers" d=" M 324.5277964156211 290.603266707 L 536.2146331614779 290.603266707" stroke-miterlimit="10" stroke-width="1.3612669416666667" stroke-dasharray=""/><g transform="translate(549.6639505451445,290.603266707) translate(-549.6639505451445,-290.603266707)"><path fill="black" stroke="none" paint-order="stroke fill markers" d=" M 536.0512811284779 283.79693199866665 L 549.6639505451445 290.603266707 L 536.0512811284779 297.4096014153333 Z"/></g></g><g><g><rect fill="white" stroke="none" x="593.3787586810683" y="315.106071657" width="128.75161994996094" height="21.23576429"/></g><text fill="black" stroke="none" font-family="sans-serif" font-size="11pt" font-style="normal" font-weight="normal" text-decoration="normal" x="595.8290391760684" y="329.80775462699995" text-anchor="start" dominant-baseline="alphabetic" xml:space="preserve">Recieves message</text></g><g><path fill="none" stroke="black" paint-order="fill stroke markers" d=" M 549.6639505451445 336.341835947 L 752.3958693832865 336.341835947" stroke-miterlimit="10" stroke-width="1.3612669416666667" stroke-dasharray=""/><g transform="translate(765.8451867669531,336.341835947) translate(-765.8451867669531,-336.341835947)"><path fill="black" stroke="none" paint-order="stroke fill markers" d=" M 752.2325173502865 329.53550123866665 L 765.8451867669531 336.341835947 L 752.2325173502865 343.14817065533333 Z"/></g></g><path fill="white" stroke="black" paint-order="fill stroke markers" d=" M 603.6273456283985 360.844640897 L 928.0630279055079 360.844640897 L 928.0630279055079 398.415608487 L 603.6273456283985 398.415608487 L 603.6273456283985 360.844640897" stroke-miterlimit="10" stroke-width="1.3612669416666667" stroke-dasharray=""/><g><text fill="black" stroke="none" font-family="sans-serif" font-size="11pt" font-style="normal" font-weight="normal" text-decoration="normal" x="626.4966302483984" y="383.71392551699995" text-anchor="start" dominant-baseline="alphabetic" xml:space="preserve">Detersmine the destination of the message</text></g><g><g><rect fill="white" stroke="none" x="797.8885709035762" y="422.91841343699997" width="220.04005683960938" height="21.23576429"/></g><text fill="black" stroke="none" font-family="sans-serif" font-size="11pt" font-style="normal" font-weight="normal" text-decoration="normal" x="800.3388513985763" y="437.62009640699995" text-anchor="start" dominant-baseline="alphabetic" xml:space="preserve">passes message to be translated</text></g><g><path fill="none" stroke="black" paint-order="fill stroke markers" d=" M 765.8451867669531 444.154177727 L 1036.5226944961419 444.154177727" stroke-miterlimit="10" stroke-width="1.3612669416666667" stroke-dasharray=""/><g transform="translate(1049.9720118798086,444.154177727) translate(-1049.9720118798086,-444.154177727)"><path fill="black" stroke="none" paint-order="stroke fill markers" d=" M 1036.359342463142 437.34784301866665 L 1049.9720118798086 444.154177727 L 1036.359342463142 450.9605124353333 Z"/></g></g><path fill="white" stroke="black" paint-order="fill stroke markers" d=" M 925.5279515640079 468.656982677 L 1174.4160721956096 468.656982677 L 1174.4160721956096 506.227950267 L 925.5279515640079 506.227950267 L 925.5279515640079 468.656982677" stroke-miterlimit="10" stroke-width="1.3612669416666667" stroke-dasharray=""/><g><text fill="black" stroke="none" font-family="sans-serif" font-size="11pt" font-style="normal" font-weight="normal" text-decoration="normal" x="948.3972361840079" y="491.52626729699995" text-anchor="start" dominant-baseline="alphabetic" xml:space="preserve">Translates the message for OH</text></g><g><g><rect fill="white" stroke="none" x="1069.3020024514753" y="530.7307552169999" width="255.07225288453125" height="21.23576429"/></g><text fill="black" stroke="none" font-family="sans-serif" font-size="11pt" font-style="normal" font-weight="normal" text-decoration="normal" x="1071.7522829464754" y="545.4324381869999" text-anchor="start" dominant-baseline="alphabetic" xml:space="preserve">Queries for any data needed (ids, etc) </text></g><g><path fill="none" stroke="black" paint-order="fill stroke markers" d=" M 1049.9720118798086 551.9665195069999 L 1330.2549285240066 551.9665195069999" stroke-miterlimit="10" stroke-width="1.3612669416666667" stroke-dasharray=""/><g transform="translate(1343.7042459076733,551.9665195069999) translate(-1343.7042459076733,-551.9665195069999)"><path fill="black" stroke="none" paint-order="stroke fill markers" d=" M 1330.0915764910067 545.1601847986666 L 1343.7042459076733 551.9665195069999 L 1330.0915764910067 558.7728542153333 Z"/></g></g><path fill="white" stroke="black" paint-order="fill stroke markers" d=" M 958.2444814101993 576.4693244569999 L 1141.6995423494182 576.4693244569999 L 1141.6995423494182 614.0402920469999 L 958.2444814101993 614.0402920469999 L 958.2444814101993 576.4693244569999" stroke-miterlimit="10" stroke-width="1.3612669416666667" stroke-dasharray=""/><g><text fill="black" stroke="none" font-family="sans-serif" font-size="11pt" font-style="normal" font-weight="normal" text-decoration="normal" x="981.1137660301993" y="599.3386090769999" text-anchor="start" dominant-baseline="alphabetic" xml:space="preserve">Handles attachments</text></g><g><g><rect fill="white" stroke="none" x="1176.675012023284" y="638.5430969969998" width="202.08734382691406" height="21.23576429"/></g><text fill="black" stroke="none" font-family="sans-serif" font-size="11pt" font-style="normal" font-weight="normal" text-decoration="normal" x="1179.125292518284" y="653.2447799669998" text-anchor="start" dominant-baseline="alphabetic" xml:space="preserve">Sends OH formated message </text></g><g><path fill="none" stroke="black" paint-order="fill stroke markers" d=" M 1049.9720118798086 659.7788612869998 L 1492.0160386100065 659.7788612869998" stroke-miterlimit="10" stroke-width="1.3612669416666667" stroke-dasharray=""/><g transform="translate(1505.4653559936733,659.7788612869998) translate(-1505.4653559936733,-659.7788612869998)"><path fill="black" stroke="none" paint-order="stroke fill markers" d=" M 1491.8526865770066 652.9725265786665 L 1505.4653559936733 659.7788612869998 L 1491.8526865770066 666.5851959953332 Z"/></g></g></g><g/><g/><g/><g/><g/><g/><g/></g></svg>