<svg version="1.1" xmlns="http://www.w3.org/2000/svg" xmlns:xlink="http://www.w3.org/1999/xlink" width="1307" height="609"><desc>title%20Sending%20Messages%20from%20OH%0A%0A%0Aparticipant%20MHV%20SM%20Datalayer%0Aparticipant%20SM%20Exchange%20RESTful%20Message%20API%0Adatabase%20SM%20Exchange%20Queue%0Aparticipant%20SM%20Exchange%20Message%20Processor%0Aparticipant%20OH%20FHIR%20APIs%0Aparticipant%20OH%20Messaging%20API%0A%0A%0A%0AMHV%20SM%20Datalayer%20-%3ESM%20Exchange%20RESTful%20Message%20API%3A%20POSTs%20a%20new%20message%0A%0Abox%20over%20SM%20Exchange%20RESTful%20Message%20API%3A%20%2F%2FMight%2F%2F%20do%20some%20light%20tranformation%0A%0ASM%20Exchange%20RESTful%20Message%20API%20-%3ESM%20Exchange%20Queue%3A%20Inserts%20into%20Queue%0A%0ASM%20Exchange%20Message%20Processor%20%3C-%20SM%20Exchange%20Queue%3A%20Recieves%20message%0A%0Abox%20over%20SM%20Exchange%20Message%20Processor%3A%20Translates%20the%20message%20for%20OH%0A%0ASM%20Exchange%20Message%20Processor%20-%3EOH%20FHIR%20APIs%3AQueries%20for%20any%20data%20needed%20(ids%2C%20etc)%20%0A%0Abox%20over%20SM%20Exchange%20Message%20Processor%3A%20Handles%20attachments%0A%0ASM%20Exchange%20Message%20Processor%20-%3EOH%20Messaging%20API%3A%20Sends%20OH%20message%20%0A%0A%0A%0A%0A</desc><defs/><g><g/><g/><g/><g/><g/><g/><g/><g/><g/><g><rect fill="white" stroke="none" x="0" y="0" width="1307" height="609"/></g><g><text fill="black" stroke="none" font-family="sans-serif" font-size="16.5pt" font-style="normal" font-weight="normal" text-decoration="normal" x="515.7996407707467" y="24.50280495" text-anchor="start" dominant-baseline="alphabetic" xml:space="preserve">Sending Messages from OH</text></g><g/><g><path fill="none" stroke="black" paint-order="fill stroke markers" d=" M 88.61855400540234 128.884754037 L 88.61855400540234 609.139731057" stroke-miterlimit="10" stroke-width="1.3612669416666667" stroke-dasharray="12.565541,5.445067766666667"/><path fill="none" stroke="black" paint-order="fill stroke markers" d=" M 323.7189203780234 128.884754037 L 323.7189203780234 609.139731057" stroke-miterlimit="10" stroke-width="1.3612669416666667" stroke-dasharray="12.565541,5.445067766666667"/><path fill="none" stroke="black" paint-order="fill stroke markers" d=" M 548.0461984699492 128.884754037 L 548.0461984699492 609.139731057" stroke-miterlimit="10" stroke-width="1.3612669416666667" stroke-dasharray="12.565541,5.445067766666667"/><path fill="none" stroke="black" paint-order="fill stroke markers" d=" M 764.2274346917578 128.884754037 L 764.2274346917578 609.139731057" stroke-miterlimit="10" stroke-width="1.3612669416666667" stroke-dasharray="12.565541,5.445067766666667"/><path fill="none" stroke="black" paint-order="fill stroke markers" d=" M 1057.9596687196224 128.884754037 L 1057.9596687196224 609.139731057" stroke-miterlimit="10" stroke-width="1.3612669416666667" stroke-dasharray="12.565541,5.445067766666667"/><path fill="none" stroke="black" paint-order="fill stroke markers" d=" M 1219.7207788056223 128.884754037 L 1219.7207788056223 609.139731057" stroke-miterlimit="10" stroke-width="1.3612669416666667" stroke-dasharray="12.565541,5.445067766666667"/></g><g><path fill="none" stroke="none"/><g><path fill="white" stroke="black" paint-order="fill stroke markers" d=" M 8.167601649999995 84.779705127 L 169.0695063608047 84.779705127 L 169.0695063608047 128.884754037 L 8.167601649999995 128.884754037 L 8.167601649999995 84.779705127 Z" stroke-miterlimit="10" stroke-width="2.613632528" stroke-dasharray=""/></g><g><g/><text fill="black" stroke="none" font-family="sans-serif" font-size="11pt" font-style="normal" font-weight="normal" text-decoration="normal" x="25.8912972305" y="112.549550737" text-anchor="start" dominant-baseline="alphabetic" xml:space="preserve">MHV SM Datalayer</text></g><path fill="none" stroke="none"/><g><path fill="white" stroke="black" paint-order="fill stroke markers" d=" M 185.40470966080468 84.779705127 L 462.0331310952422 84.779705127 L 462.0331310952422 128.884754037 L 185.40470966080468 128.884754037 L 185.40470966080468 84.779705127 Z" stroke-miterlimit="10" stroke-width="2.613632528" stroke-dasharray=""/></g><g><g/><text fill="black" stroke="none" font-family="sans-serif" font-size="11pt" font-style="normal" font-weight="normal" text-decoration="normal" x="203.12840524130468" y="112.549550737" text-anchor="start" dominant-baseline="alphabetic" xml:space="preserve">SM Exchange RESTful Message API</text></g><g><path fill="white" stroke="black" paint-order="fill stroke markers" d=" M 524.1968016519493 96.867755569 L 524.1968016519493 62.563828639 L 571.8955952879492 62.563828639 L 571.8955952879492 96.867755569" stroke-miterlimit="10" stroke-width="2.7769845610000004" stroke-dasharray=""/><path fill="white" stroke="black" paint-order="fill stroke markers" d=" M 571.8955952879492 61.3713587981 L 571.8944028280455 61.47916934301662 L 571.8908255675794 61.58696910696859 L 571.8848638642742 61.69474731006935 L 571.8765183142948 61.8024931745884 L 571.8657897521896 61.91019592602908 L 571.8526792508057 62.017844794206 L 571.8371881211825 62.125429014322044 L 571.8193179124199 62.232937828044854 L 571.7990704115239 62.34036048458265 L 571.7764476432277 62.44768624175929 L 571.7514518697893 62.55490436708851 L 571.7240855907653 62.66200413884712 L 571.6943515427607 62.76897484714718 L 571.6622526991556 62.87580579500701 L 571.6277922698075 62.982486299420856 L 571.5909737007307 63.08900569242717 L 571.5518006737514 63.19535332217542 L 571.5102771061396 63.30151855399125 L 571.4664071502176 63.40749077143996 L 571.4201951929442 63.5132593773881 L 571.3716458554769 63.618813795063225 L 571.3207639927089 63.724143469111524 L 571.267554692784 63.82923786665337 L 571.2120232765877 63.93408647833659 L 571.1541752972157 64.03867881938739 L 571.0940165394176 64.1430044306588 L 571.0315530190189 64.24705287967667 L 570.9667909823197 64.35081376168277 L 570.8997369054697 64.45427670067541 L 570.8303974938208 64.55743135044686 L 570.7587796812561 64.66026739561813 L 570.6848906294974 64.7627745526704 L 570.6087377273884 64.86494257097338 L 570.5303285901556 64.96676123381039 L 570.4496710586475 65.06822035939997 L 570.36677319855 65.16930980191414 L 570.2816432995802 65.27001945249287 L 570.1942898746568 65.37033924025505 L 570.1047216590496 65.47025913330548 L 570.0129476095055 65.56976913973813 L 569.918976903353 65.66885930863528 L 569.8228189375845 65.7675197310626 L 569.7244833279165 65.86574054106009 L 569.6239799078276 65.96351191662859 L 569.5213187275765 66.06082408071202 L 569.4165100531955 66.15766730217506 L 569.3095643654646 66.25403189677627 L 569.2004923588636 66.3499082281365 L 569.0893049405023 66.4452867087025 L 568.9760132290297 66.54015780070569 L 568.8606285535228 66.63451201711595 L 568.7431624523527 66.72833992259025 L 568.6236266720318 66.82163213441623 L 568.5020331660386 66.91437932345046 L 568.3783940936222 67.00657221505134 L 568.2527218185868 67.0982015900065 L 568.1250289080554 67.18925828545483 L 567.9953281312123 67.27973319580266 L 567.8636324580274 67.36961727363435 L 567.7299550579581 67.45890153061701 L 567.5943092986332 67.54757703839935 L 567.4567087445154 67.6356349295045 L 567.3171671555455 67.72306639821673 L 567.1756984857661 67.80986270146201 L 567.0323168819264 67.89601515968236 L 566.8870366820672 67.98151515770375 L 566.7398724140874 68.06635414559763 L 566.5908387942912 68.15052363953589 L 566.4399507259163 68.2340152226393 L 566.287223297644 68.31682054581911 L 566.1326717820898 68.39893132861202 L 565.9763116342763 68.48033936000816 L 565.818158490088 68.56103649927225 L 565.6582281647077 68.6410146767576 L 565.4965366510345 68.72026589471311 L 565.3331001180852 68.79878222808303 L 565.1679349093766 68.87655582529945 L 565.0010575412923 68.95357890906746 L 564.8324847014298 69.02984377714286 L 564.6622332469327 69.10534280310242 L 564.4903202028046 69.18006843710643 L 564.3167627602065 69.25401320665378 L 564.1415782747382 69.32716971732913 L 563.9647842647022 69.39953065354239 L 563.7863984093522 69.47108877926021 L 563.6064385471249 69.54183693872967 L 563.4249226738568 69.61176805719379 L 563.2418689409839 69.68087514159897 L 563.0572956537269 69.74915128129439 L 562.8712212692607 69.81658964872294 L 562.6836643948687 69.88318350010411 L 562.4946437860821 69.94892617610824 L 562.3041783448042 70.01381110252252 L 562.1122871174204 70.07783179090838 L 561.9189892928936 70.14098183925032 L 561.724304200845 70.20325493259614 L 561.5282513096219 70.26464484368842 L 561.3308502243497 70.32514543358717 L 561.1321206849726 70.38475065228383 L 560.9320825642789 70.44345453930622 L 560.7307558659139 70.50125122431453 L 560.5281607223799 70.55813492768844 L 560.324317393022 70.61409996110503 L 560.1192462620038 70.66914072810756 L 559.9129678362671 70.72325172466522 L 559.7055027434827 70.77642753972344 L 559.496871729987 70.82866285574504 L 559.2870956587076 70.87995244924193 L 559.0761955070766 70.9302911912975 L 558.8641923649335 70.9796740480795 L 558.6511074324159 71.0280960813434 L 558.4369620178395 71.07555244892625 L 558.2217775355672 71.12203840523081 L 558.0055755038679 71.16754930170019 L 557.7883775427648 71.21208058728268 L 557.5702053718728 71.25562780888683 L 557.3510808082273 71.29818661182675 L 557.1310257641019 71.33975274025764 L 556.9100622448178 71.38032203760127 L 556.6882123465429 71.41989044696174 L 556.4654982540818 71.45845401153106 L 556.2419422386583 71.49600887498494 L 556.0175666556879 71.5325512818683 L 555.7923939425416 71.56807757797091 L 555.5664466163032 71.60258421069277 L 555.339747271517 71.63606772939937 L 555.1123185779286 71.66852478576672 L 554.8841832782177 71.69995213411627 L 554.6553641857245 71.73034663173934 L 554.4258841821671 71.7597052392115 L 554.1957662153551 71.78802502069648 L 553.965033296893 71.81530314423973 L 553.7337084998807 71.84153688205163 L 553.5018149566048 71.86672361078024 L 553.2693758562267 71.8908608117737 L 553.0364144424626 71.913946071332 L 552.8029540112597 71.93597708094846 L 552.5690179084667 71.95695163754044 L 552.3346295274987 71.97686764366978 L 552.0998123069987 71.99572310775245 L 551.8645897284931 72.01351614425778 L 551.6289853140435 72.03024497389691 L 551.3930226238951 72.04590792380084 L 551.1567252541205 72.06050342768764 L 550.9201168342595 72.07403002601906 L 550.6832210249569 72.08648636614654 L 550.4460615155964 72.09787120244648 L 550.2086620219312 72.1081833964447 L 549.9710462837128 72.11742191693043 L 549.7332380623171 72.12558584005929 L 549.495261138368 72.13267434944576 L 549.2571393093597 72.13868673624485 L 549.0188963872765 72.14362239922286 L 548.7805561962122 72.14748084481762 L 548.5421425699872 72.1502616871878 L 548.3036793497654 72.15196464825142 L 548.0651903816703 72.15258955771385 L 547.8266995143997 72.15213635308466 L 547.5882305968419 72.15060507968391 L 547.3498074756897 72.14799589063767 L 547.1114539930567 72.1443090468627 L 546.8731939840923 72.13954491704027 L 546.635051274599 72.1337039775794 L 546.3970496786494 72.12678681256918 L 546.1592129962046 72.11879411372033 L 545.9215650107346 72.10972668029609 L 545.6841294868401 72.09958541903224 L 545.4469301678754 72.08837134404646 L 545.209990773575 72.07608557673689 L 544.9733349976807 72.06272934567005 L 544.7369865055729 72.04830398645788 L 544.5009689319038 72.0328109416243 L 544.2653058782342 72.01625176046089 L 544.0300209106731 71.99862809887196 L 543.7951375575211 71.97994171920898 L 543.5606793069178 71.96019449009434 L 543.326669604493 71.9393883862345 L 543.0931318510216 71.91752548822251 L 542.8600894000847 71.89460798232996 L 542.627565555733 71.87063816028832 L 542.3955835701571 71.84561841905983 L 542.1641666413625 71.81955126059778 L 541.933337910849 71.79243929159627 L 541.7031204612974 71.7642852232296 L 541.4735373142609 71.73509187088118 L 541.2446114278625 71.7048621538619 L 541.0163656945006 71.67359909511825 L 540.7888229385579 71.64130582093009 L 540.5620059141206 71.6079855605979 L 540.3359373027022 71.57364164611994 L 540.1106397109752 71.53827751185906 L 539.8861356685111 71.50189669419922 L 539.6624476255272 71.46450283119185 L 539.4395979506413 71.42609966219209 L 539.2176089286352 71.38669102748484 L 538.9965027582261 71.34628086790075 L 538.7763015498467 71.30487322442208 L 538.5570273234346 71.26247223777868 L 538.3387020062294 71.21908214803388 L 538.121347430581 71.17470729416048 L 537.9049853317659 71.12935211360693 L 537.6896373458136 71.08302114185344 L 537.4753250073434 71.0357190119586 L 537.2620697474102 70.987450454096 L 537.0498928913628 70.93822029508118 L 536.8388156567095 70.88803345788901 L 536.6288591509981 70.8368949611614 L 536.4200443697042 70.7848099187054 L 536.2123921941319 70.73178353898187 L 536.0059233893257 70.67782112458457 L 535.8006586019941 70.62292807170999 L 535.5966183584446 70.56710986961765 L 535.3938230625316 70.51037210008127 L 535.1922929936159 70.4527204368305 L 534.9920483045362 70.39416064498364 L 534.7931090195946 70.33469858047107 L 534.5954950325538 70.27434018944969 L 534.3992261046479 70.2130915077083 L 534.2043218626061 70.15095866006402 L 534.0108017966902 70.08794785974987 L 533.8186852587454 70.02406540779336 L 533.6279914602657 69.95931769238642 L 533.4387394704717 69.89371118824668 L 533.2509482144047 69.82725245596986 L 533.0646364710341 69.7599481413738 L 532.8798228713787 69.69180497483389 L 532.6965258966446 69.62282977060998 L 532.5147638763765 69.55302942616503 L 532.3345549866249 69.4824109214753 L 532.1559172481286 69.41098131833243 L 531.9788685245127 69.3387477596372 L 531.8034265205018 69.26571746868528 L 531.6296087801504 69.19189774844492 L 531.4574326850875 69.1172959808266 L 531.2869154527791 69.04191962594494 L 531.1180741348065 68.96577622137262 L 530.9509256151606 68.88887338138663 L 530.7854866085543 68.81121879620689 L 530.62177365875 68.73282023122718 L 530.4598031369068 68.6536855262387 L 530.2995912399415 68.573822594646 L 530.1411539889103 68.49323942267567 L 529.9845072274065 68.41194406857777 L 529.8296666199757 68.32994466181995 L 529.6766476505493 68.24724940227456 L 529.5254656208971 68.16386655939866 L 529.3761356490958 68.07980447140702 L 529.2286726680182 67.99507154443839 L 529.0830914238397 67.90967625171488 L 528.9394064745633 67.8236271326946 L 528.7976321885641 67.73693279221771 L 528.6577827431527 67.64960189964606 L 528.5198721231569 67.56164318799608 L 528.3839141195239 67.47306545306569 L 528.2499223279408 67.38387755255452 L 528.1179101474751 67.29408840517834 L 527.9878907792347 67.20370698977703 L 527.8598772250482 67.11274234441683 L 527.7338822861643 67.02120356548647 L 527.609918561972 66.92909980678756 L 527.4879984487403 66.83644027861922 L 527.3681341383789 66.74323424685704 L 527.250337617219 66.64949103202653 L 527.1346206648145 66.55522000837107 L 527.0209948527643 66.46043060291444 L 526.9094715435549 66.3651322945182 L 526.8000618894242 66.2693346129338 L 526.6927768312465 66.17304713784955 L 526.5876270974383 66.07627949793272 L 526.4846232028852 65.97904136986665 L 526.3837754478909 65.88134247738313 L 526.2850939171468 65.78319259028999 L 526.1885884787239 65.68460152349414 L 526.0942687830855 65.58557913602012 L 526.0021442621224 65.48613533002413 L 525.9122241282103 65.38628004980393 L 525.8245173732873 65.2860232808043 L 525.739032767956 65.18537504861862 L 525.6557788606058 65.08434541798623 L 525.5747639765577 64.982944491786 L 525.4959962172329 64.88118241002603 L 525.4194834593417 64.77906934882972 L 525.3452333540959 64.67661551941809 L 525.2732533264443 64.5738311670887 L 525.2035505743296 64.47072657019112 L 525.1361320679691 64.36731203909913 L 525.0710045491571 64.26359791517966 L 525.0081745305912 64.15959456975868 L 524.947648295221 64.05531240308405 L 524.8894318956195 63.95076184328555 L 524.8335311533783 63.84595334533201 L 524.7799516585249 63.74089738998592 L 524.728698768964 63.63560448275524 L 524.6797776099422 63.530085152842965 L 524.6331930735344 63.42434995209415 L 524.5889498181555 63.318409453940745 L 524.547052268094 63.2122742523443 L 524.5075046130703 63.105954960736526 L 524.4703108078166 62.99946221095797 L 524.4354745716828 62.892806652194885 L 524.4029993882631 62.78599894991426 L 524.3728885050491 62.679049784797314 L 524.3451449331038 62.57196985167143 L 524.3197714467615 62.464769858440704 L 524.2967705833495 62.357460525015114 L 524.276144642935 62.25005258223858 L 524.2578956880949 62.14255677081588 L 524.2420255437095 62.03498384023857 L 524.22853579678 61.92734454771006 L 524.2174277962697 61.81964965706991 L 524.2087026529697 61.71190993771744 L 524.2023612393867 61.6041361635348 L 524.1984041896571 61.49633911180959 L 524.1968318994824 61.38852956215717 L 524.1976445260904 61.28071829544265 L 524.2008419882189 61.172916092702856 L 524.2064239661246 61.06513373406823 L 524.2143899016143 60.957381997684834 L 524.224738998101 60.84967165863649 L 524.2374702206838 60.74201348786736 L 524.2525822962509 60.6344182511048 L 524.2700737136075 60.526896707782825 L 524.2899427236264 60.41945960996616 L 524.312187339423 60.31211770127506 L 524.3368053365544 60.204881715810956 L 524.3637942532414 60.097762377083015 L 524.3931513906148 59.99077039693585 L 524.4248738129853 59.88391647447831 L 524.4589583481372 59.7772112950136 L 524.4954015876452 59.67066552897075 L 524.534199887216 59.56428983083758 L 524.5753493670517 59.45809483809524 L 524.6188459122387 59.35209117015452 L 524.6646851731588 59.24628942729389 L 524.712862565924 59.14070018959944 L 524.7633732728352 59.03533401590697 L 524.8162122428638 58.93020144274604 L 524.871374192157 58.82531298328635 L 524.9288536045656 58.72067912628645 L 524.9886447321963 58.61631033504484 L 525.0507415959862 58.51221704635366 L 525.1151379863007 58.40840966945505 L 525.1818274635546 58.30489858500019 L 525.2508033588554 58.20169414401126 L 525.3220587746712 58.098806666846365 L 525.3955865855198 57.996246442167475 L 525.4713794386814 57.894023725911595 L 525.5494297549338 57.79214874026516 L 525.6297297293106 57.69063167264185 L 525.712271331881 57.58948267466382 L 525.7970463085537 57.488711861146584 L 525.8840461819017 57.38832930908751 L 525.97326225201 57.28834505665816 L 526.0646855973462 57.18876910220045 L 526.1583070756517 57.08961140322686 L 526.2541173248567 56.99088187542464 L 526.3521067640163 56.8925903916643 L 526.4522655942682 56.794746781012314 L 526.5545837998127 56.6973608277482 L 526.6590511489145 56.60044227038614 L 526.765657194926 56.5040008007011 L 526.8743912773313 56.40804606275968 L 526.9852425228125 56.31258765195572 L 527.0981998463379 56.217635114050736 L 527.213251952269 56.12319794421941 L 527.3303873354912 56.029285586100016 L 527.4495942825636 55.93590743085011 L 527.570860872891 55.8430728162074 L 527.6941749799155 55.75079102555599 L 527.8195242723289 55.65907128699804 L 527.9468962153065 55.56792277243099 L 528.0762780717604 55.47735459663031 L 528.2076569036125 55.387375816338135 L 528.341019573089 55.29799542935749 L 528.4763527440344 55.20922237365261 L 528.6136428832443 55.12106552645507 L 528.7528762618191 55.033533703376136 L 528.894038956537 54.94663565752517 L 529.0371168512461 54.86038007863435 L 529.1820956382762 54.77477559218967 L 529.3289608198695 54.689830758568455 L 529.4776977096302 54.60555407218327 L 529.6282914339931 54.52195396063252 L 529.7807269337115 54.439038783857704 L 529.9349889653623 54.35681683330739 L 530.091062102871 54.27529633110813 L 530.2489307390538 54.19448542924221 L 530.4085790871787 54.114392208732454 L 530.5699911825438 54.03502467883419 L 530.7331508840743 53.95639077623426 L 530.8980418759359 53.878498364257396 L 531.0646476691668 53.801355232079885 L 531.2329516033266 53.72496909395066 L 531.4029368481619 53.649347588419886 L 531.5745864052901 53.57449827757509 L 531.7478831098986 53.50042864628498 L 531.922809632461 53.42714610145097 L 532.0993484804712 53.35465797126647 L 532.2774820001913 53.28297150448409 L 532.4571923784179 53.21209386969077 L 532.6384616442627 53.14203215459092 L 532.8212716709504 53.072793365297684 L 533.0056041776306 53.00438442563227 L 533.1914407312064 52.93681217643165 L 533.378762748177 52.870083374864436 L 533.5675514964969 52.80420469375517 L 533.7577880974487 52.739182720917064 L 533.9494535275309 52.67502395849323 L 534.1425286203599 52.611734822306424 L 534.3369940685876 52.54932164121754 L 534.5328304258312 52.48779065649267 L 534.730018108618 52.427148021179015 L 534.9285373983442 52.36739979948956 L 535.1283684432462 52.3085519661967 L 535.329491260386 52.25061040603471 L 535.5318857376496 52.19358091311133 L 535.735531635758 52.13746919032833 L 535.9404085902908 52.08228084881122 L 536.1464961137234 52.02802140734818 L 536.3537735974753 51.974696291838114 L 536.5622203139708 51.922310834748146 L 536.771815418712 51.87087027458034 L 536.9825379523629 51.82037975534783 L 537.194366842846 51.770844326060484 L 537.4072809074486 51.72226894021993 L 537.6212588549417 51.674658455324284 L 537.836279287709 51.62801763238236 L 538.0523207038862 51.58235113543759 L 538.2693614995117 51.5376635311016 L 538.487379970687 51.49395928809759 L 538.7063543157466 51.451242776813444 L 538.9262626374384 51.409518268864694 L 539.1470829451135 51.368789936667355 L 539.3687931569252 51.32906185302072 L 539.5913711020371 51.29033799070003 L 539.8147945228401 51.252622222059266 L 540.0390410771782 51.21591831864385 L 540.2640883405832 51.18022995081354 L 540.4899138085159 51.14556068737539 L 540.716494898618 51.11191399522683 L 540.9438089529691 51.079293239009054 L 541.1718332403532 51.047701680770494 L 541.4005449585317 51.01714247964064 L 541.6299212365233 50.98761869151416 L 541.8599391368914 50.95913326874524 L 542.0905756580376 50.93168905985244 L 542.3218077365019 50.90528880923376 L 542.5536122492692 50.87993515689227 L 542.7859660160816 50.85563063817208 L 543.0188458017558 50.83237768350481 L 543.2522283185074 50.81017861816654 L 543.4860902282792 50.78903566204531 L 543.720408145075 50.768950929419105 L 543.9551586372985 50.749926428744466 L 544.1903182300961 50.7319640624556 L 544.4258634077045 50.71506562677416 L 544.6617706158021 50.69923281152964 L 544.8980162638649 50.684467199990365 L 545.1345767275246 50.6707702687052 L 545.3714283509324 50.658143387355835 L 545.6085474491231 50.64658781861989 L 545.8459103103845 50.63610471804463 L 546.0834931986283 50.62669513393135 L 546.3212723557635 50.61836000723063 L 546.5592240040729 50.61110017144819 L 546.7973243485897 50.604916352561574 L 547.0355495794778 50.5998091689475 L 547.2738758744129 50.595779131320086 L 547.5122794009638 50.592826642679725 L 547.7507363189767 50.59095199827282 L 547.9892227829586 50.59015538556226 L 548.2277149444616 50.59043688420866 L 548.4661889544684 50.59179646606236 L 548.7046209657768 50.594233995166334 L 548.9429871353843 50.59774922776969 L 549.1812636268726 50.6023418123521 L 549.4194266127911 50.60801128965893 L 549.6574522770396 50.61475709274719 L 549.8953168172501 50.622578547042174 L 550.1329964471668 50.63147487040497 L 550.3704673990248 50.64144517321068 L 550.6077059259268 50.6524884584373 L 550.8446883042177 50.66460362176552 L 551.0813908358573 50.67778945168912 L 551.3177898507896 50.69204462963607 L 551.5538617093102 50.70736773010048 L 551.7895828044299 50.72375722078505 L 552.0249295642355 50.74121146275439 L 552.2598784542474 50.759728710598836 L 552.4944059797722 50.77930711260903 L 552.7284886882529 50.79994471096109 L 552.9621031716136 50.821639441912396 L 553.1952260686007 50.844389136007905 L 553.4278340671189 50.86819151829718 L 553.6599039065619 50.893044208561825 L 553.8914123801394 50.91894472155353 L 554.1223363371969 50.94589046724256 L 554.3526526855311 50.973878751076825 L 554.582338393699 51.00290677425126 L 554.8113704933214 51.03297163398772 L 555.0397260813791 51.064070323825305 L 555.2673823225035 51.09619973392093 L 555.4943164512603 51.129356651360375 L 555.7205057744256 51.16353776047952 L 555.9459276732559 51.198739643195935 L 556.1705596057488 51.23495877935069 L 556.3943791088985 51.27219154706035 L 556.6173638009411 51.31043422307917 L 556.8394913835931 51.349682983171405 L 557.0607396442816 51.38993390249377 L 557.2810864583647 51.43118295598788 L 557.5005097913446 51.47342601878273 L 557.718987701071 51.51665886660727 L 557.9364983399349 51.56087717621274 L 558.1530199570537 51.60607652580503 L 558.3685309004461 51.65225239548683 L 558.5830096191974 51.69940016770967 L 558.7964346656144 51.74751512773561 L 559.0087846973703 51.79659246410874 L 559.220038479639 51.84662726913632 L 559.4301748872182 51.89761453937955 L 559.6391729066422 51.949549176153894 L 559.8470116382834 52.00242598603895 L 560.0536702984417 52.0562396813978 L 560.2591282214235 52.11098488090573 L 560.4633648616074 52.16665611008844 L 560.6663597954997 52.22324780186939 L 560.8680927237763 52.28075429712656 L 561.0685434733124 52.339169845258354 L 561.2676919992 52.398488604758626 L 561.4655183867526 52.458704643800864 L 561.6620028534962 52.51981194083135 L 561.857125751148 52.581804385171296 L 562.0508675675808 52.64467577762793 L 562.2432089287742 52.708419831114405 L 562.4341306007526 52.77303017127848 L 562.6236134915077 52.83850033713999 L 562.8116386529086 52.90482378173691 L 562.9981872825957 52.97199387278003 L 563.1832407258614 53.040003893316246 L 563.3667804775157 53.108847042400164 L 563.5487881837364 53.17851643577425 L 563.7292456439045 53.24900510655722 L 563.9081348124244 53.32030600594074 L 564.0854378005281 53.39241200389429 L 564.2611368780649 53.465315889878156 L 564.4352144752733 53.5390103735645 L 564.6076531845385 53.61348808556637 L 564.7784357621335 53.68874157817461 L 564.9475451299428 53.76476332610268 L 565.1149643771704 53.84154572723915 L 565.2806767620312 53.91908110340788 L 565.4446657134249 53.99736170113587 L 565.6069148325929 54.07637969242858 L 565.7674078947585 54.156127175552726 L 565.9261288507494 54.236596175826456 L 566.0830618286019 54.3177786464168 L 566.2381911351492 54.39966646914434 L 566.3915012575901 54.48225145529506 L 566.5429768650398 54.56552534643915 L 566.6926028100639 54.6494798152569 L 566.8403641301927 54.73410646637139 L 566.9862460494172 54.81939683718802 L 567.1302339796671 54.9053423987408 L 567.2723135222693 54.99193455654518 L 567.412470469388 55.079164651457546 L 567.5506908054452 55.16702396054111 L 567.6869607085226 55.25550369793815 L 567.8212665517434 55.344595015748695 L 567.9535949046352 55.43428900491518 L 568.0839325344729 55.52457669611344 L 568.2122664076022 55.615449060649595 L 568.3385836907429 55.706897011362926 L 568.4628717522716 55.79891140353456 L 568.585118163486 55.891483035801954 L 568.7053106998467 55.98460265107904 L 568.8234373422004 56.07826093748187 L 568.939486277981 56.17244852925987 L 569.0534459023919 56.26715600773234 L 569.1653048195656 56.36237390223035 L 569.2750518437034 56.45809269104382 L 569.3826760001946 56.55430280237361 L 569.488166526713 56.65099461528878 L 569.591512874294 56.74815846068861 L 569.692704708389 56.84578462226952 L 569.7917319098989 56.943863337496715 L 569.8885845761858 57.0423847985804 L 569.9832530220642 57.14133915345658 L 570.0757277807681 57.240716506772216 L 570.165999604899 57.34050692087479 L 570.2540594673493 57.44070041680606 L 570.3398985622064 57.54128697529992 L 570.4235083056324 57.64225653778434 L 570.5048803367223 57.74359900738722 L 570.5840065183412 57.84530424994605 L 570.6608789379367 57.94736209502132 L 570.7354899083308 58.04976233691358 L 570.8078319684889 58.15249473568397 L 570.877897884265 58.25554901817823 L 570.9456806491261 58.35891487905398 L 571.0111734848521 58.46258198181127 L 571.0743698422139 58.566539959826216 L 571.1352634016287 58.67077841738765 L 571.1938480737911 58.77528693073668 L 571.2501180002827 58.88005504910905 L 571.3040675541579 58.985072295780256 L 571.3556913405062 59.09032816911312 L 571.4049841969918 59.19581214360803 L 571.4519411943704 59.301513670955444 L 571.4965576369813 59.4074221810907 L 571.5388290632173 59.513527083251056 L 571.5787512459711 59.619817767034704 L 571.6163201930578 59.72628360346185 L 571.6515321476138 59.832913946037564 L 571.6843835884731 59.939698131816456 L 571.7148712305191 60.046625482468926 L 571.7429920250128 60.153685305349015 L 571.7687431598981 60.26086689456366 L 571.7921220600833 60.36815953204325 L 571.8131263876976 60.47555248861345 L 571.8317540423259 60.5830350250681 L 571.8480031612181 60.69059639324311 L 571.8618721194761 60.79822583709131 L 571.8733595302153 60.905912593758 L 571.8824642447045 61.01364589465726 L 571.8891853524797 61.12141496654876 L 571.8935221814356 61.22920903261514 L 571.8954742978932 61.337017313539604 M 571.8955952879492 95.6752857281 L 571.8944028280455 95.78309627301661 L 571.8908255675794 95.89089603696858 L 571.8848638642742 95.99867424006935 L 571.8765183142948 96.1064201045884 L 571.8657897521896 96.21412285602908 L 571.8526792508057 96.321771724206 L 571.8371881211825 96.42935594432204 L 571.8193179124199 96.53686475804484 L 571.7990704115239 96.64428741458265 L 571.7764476432277 96.75161317175929 L 571.7514518697893 96.85883129708851 L 571.7240855907653 96.96593106884711 L 571.6943515427607 97.07290177714718 L 571.6622526991556 97.17973272500701 L 571.6277922698075 97.28641322942086 L 571.5909737007307 97.39293262242717 L 571.5518006737514 97.49928025217542 L 571.5102771061396 97.60544548399125 L 571.4664071502176 97.71141770143996 L 571.4201951929442 97.8171863073881 L 571.3716458554769 97.92274072506322 L 571.3207639927089 98.02807039911151 L 571.267554692784 98.13316479665336 L 571.2120232765877 98.23801340833658 L 571.1541752972157 98.34260574938737 L 571.0940165394176 98.4469313606588 L 571.0315530190189 98.55097980967666 L 570.9667909823197 98.65474069168278 L 570.8997369054697 98.7582036306754 L 570.8303974938208 98.86135828044685 L 570.7587796812561 98.96419432561812 L 570.6848906294974 99.0667014826704 L 570.6087377273884 99.16886950097337 L 570.5303285901556 99.27068816381038 L 570.4496710586475 99.37214728939998 L 570.36677319855 99.47323673191414 L 570.2816432995802 99.57394638249288 L 570.1942898746568 99.67426617025505 L 570.1047216590496 99.77418606330548 L 570.0129476095055 99.87369606973812 L 569.918976903353 99.97278623863527 L 569.8228189375845 100.0714466610626 L 569.7244833279165 100.1696674710601 L 569.6239799078276 100.2674388466286 L 569.5213187275765 100.36475101071201 L 569.4165100531955 100.46159423217506 L 569.3095643654646 100.55795882677627 L 569.2004923588636 100.65383515813649 L 569.0893049405023 100.74921363870249 L 568.9760132290297 100.84408473070569 L 568.8606285535228 100.93843894711594 L 568.7431624523527 101.03226685259024 L 568.6236266720318 101.12555906441622 L 568.5020331660386 101.21830625345046 L 568.3783940936222 101.31049914505132 L 568.2527218185868 101.4021285200065 L 568.1250289080554 101.49318521545483 L 567.9953281312123 101.58366012580265 L 567.8636324580274 101.67354420363434 L 567.7299550579581 101.762828460617 L 567.5943092986332 101.85150396839936 L 567.4567087445154 101.93956185950451 L 567.3171671555455 102.02699332821673 L 567.1756984857661 102.11378963146201 L 567.0323168819264 102.19994208968237 L 566.8870366820672 102.28544208770374 L 566.7398724140874 102.37028107559762 L 566.5908387942912 102.45445056953588 L 566.4399507259163 102.53794215263929 L 566.287223297644 102.6207474758191 L 566.1326717820898 102.70285825861201 L 565.9763116342763 102.78426629000816 L 565.818158490088 102.86496342927225 L 565.6582281647077 102.9449416067576 L 565.4965366510345 103.02419282471311 L 565.3331001180852 103.10270915808303 L 565.1679349093766 103.18048275529944 L 565.0010575412923 103.25750583906745 L 564.8324847014298 103.33377070714286 L 564.6622332469327 103.4092697331024 L 564.4903202028046 103.48399536710642 L 564.3167627602065 103.55794013665377 L 564.1415782747382 103.63109664732913 L 563.9647842647022 103.70345758354237 L 563.7863984093522 103.7750157092602 L 563.6064385471249 103.84576386872968 L 563.4249226738568 103.91569498719377 L 563.2418689409839 103.98480207159896 L 563.0572956537269 104.05307821129438 L 562.8712212692607 104.12051657872294 L 562.6836643948687 104.1871104301041 L 562.4946437860821 104.25285310610823 L 562.3041783448042 104.31773803252251 L 562.1122871174204 104.38175872090837 L 561.9189892928936 104.44490876925032 L 561.724304200845 104.50718186259614 L 561.5282513096219 104.5685717736884 L 561.3308502243497 104.62907236358716 L 561.1321206849726 104.68867758228383 L 560.9320825642789 104.7473814693062 L 560.7307558659139 104.80517815431453 L 560.5281607223799 104.86206185768845 L 560.324317393022 104.91802689110501 L 560.1192462620038 104.97306765810755 L 559.9129678362671 105.02717865466522 L 559.7055027434827 105.08035446972343 L 559.496871729987 105.13258978574503 L 559.2870956587076 105.18387937924192 L 559.0761955070766 105.23421812129749 L 558.8641923649335 105.28360097807949 L 558.6511074324159 105.33202301134341 L 558.4369620178395 105.37947937892625 L 558.2217775355672 105.4259653352308 L 558.0055755038679 105.4714762317002 L 557.7883775427648 105.51600751728267 L 557.5702053718728 105.55955473888682 L 557.3510808082273 105.60211354182675 L 557.1310257641019 105.64367967025764 L 556.9100622448178 105.68424896760128 L 556.6882123465429 105.72381737696173 L 556.4654982540818 105.76238094153106 L 556.2419422386583 105.79993580498493 L 556.0175666556879 105.83647821186828 L 555.7923939425416 105.8720045079709 L 555.5664466163032 105.90651114069276 L 555.339747271517 105.93999465939936 L 555.1123185779286 105.97245171576672 L 554.8841832782177 106.00387906411626 L 554.6553641857245 106.03427356173933 L 554.4258841821671 106.0636321692115 L 554.1957662153551 106.09195195069648 L 553.965033296893 106.11923007423972 L 553.7337084998807 106.14546381205162 L 553.5018149566048 106.17065054078024 L 553.2693758562267 106.1947877417737 L 553.0364144424626 106.21787300133201 L 552.8029540112597 106.23990401094846 L 552.5690179084667 106.26087856754044 L 552.3346295274987 106.28079457366978 L 552.0998123069987 106.29965003775246 L 551.8645897284931 106.31744307425777 L 551.6289853140435 106.3341719038969 L 551.3930226238951 106.34983485380084 L 551.1567252541205 106.36443035768762 L 550.9201168342595 106.37795695601905 L 550.6832210249569 106.39041329614655 L 550.4460615155964 106.40179813244647 L 550.2086620219312 106.4121103264447 L 549.9710462837128 106.42134884693041 L 549.7332380623171 106.42951277005928 L 549.495261138368 106.43660127944577 L 549.2571393093597 106.44261366624485 L 549.0188963872765 106.44754932922287 L 548.7805561962122 106.45140777481762 L 548.5421425699872 106.45418861718778 L 548.3036793497654 106.45589157825142 L 548.0651903816703 106.45651648771386 L 547.8266995143997 106.45606328308465 L 547.5882305968419 106.4545320096839 L 547.3498074756897 106.45192282063768 L 547.1114539930567 106.44823597686269 L 546.8731939840923 106.44347184704026 L 546.635051274599 106.43763090757939 L 546.3970496786494 106.43071374256917 L 546.1592129962046 106.42272104372033 L 545.9215650107346 106.41365361029608 L 545.6841294868401 106.40351234903224 L 545.4469301678754 106.39229827404645 L 545.209990773575 106.38001250673689 L 544.9733349976807 106.36665627567004 L 544.7369865055729 106.35223091645787 L 544.5009689319038 106.33673787162431 L 544.2653058782342 106.32017869046089 L 544.0300209106731 106.30255502887195 L 543.7951375575211 106.28386864920897 L 543.5606793069178 106.26412142009434 L 543.326669604493 106.2433153162345 L 543.0931318510216 106.22145241822251 L 542.8600894000847 106.19853491232995 L 542.627565555733 106.17456509028831 L 542.3955835701571 106.14954534905984 L 542.1641666413625 106.12347819059778 L 541.933337910849 106.09636622159626 L 541.7031204612974 106.06821215322961 L 541.4735373142609 106.03901880088118 L 541.2446114278625 106.0087890838619 L 541.0163656945006 105.97752602511825 L 540.7888229385579 105.94523275093007 L 540.5620059141206 105.91191249059789 L 540.3359373027022 105.87756857611994 L 540.1106397109752 105.84220444185907 L 539.8861356685111 105.8058236241992 L 539.6624476255272 105.76842976119184 L 539.4395979506413 105.73002659219209 L 539.2176089286352 105.69061795748485 L 538.9965027582261 105.65020779790075 L 538.7763015498467 105.60880015442207 L 538.5570273234346 105.56639916777867 L 538.3387020062294 105.52300907803387 L 538.121347430581 105.47863422416049 L 537.9049853317659 105.43327904360692 L 537.6896373458136 105.38694807185344 L 537.4753250073434 105.33964594195861 L 537.2620697474102 105.291377384096 L 537.0498928913628 105.24214722508117 L 536.8388156567095 105.19196038788901 L 536.6288591509981 105.1408218911614 L 536.4200443697042 105.08873684870541 L 536.2123921941319 105.03571046898188 L 536.0059233893257 104.98174805458457 L 535.8006586019941 104.92685500170998 L 535.5966183584446 104.87103679961766 L 535.3938230625316 104.81429903008126 L 535.1922929936159 104.75664736683049 L 534.9920483045362 104.69808757498365 L 534.7931090195946 104.63862551047107 L 534.5954950325538 104.57826711944969 L 534.3992261046479 104.51701843770829 L 534.2043218626061 104.45488559006402 L 534.0108017966902 104.39187478974986 L 533.8186852587454 104.32799233779335 L 533.6279914602657 104.26324462238642 L 533.4387394704717 104.19763811824667 L 533.2509482144047 104.13117938596986 L 533.0646364710341 104.0638750713738 L 532.8798228713787 103.99573190483389 L 532.6965258966446 103.92675670060999 L 532.5147638763765 103.85695635616503 L 532.3345549866249 103.7863378514753 L 532.1559172481286 103.71490824833242 L 531.9788685245127 103.64267468963719 L 531.8034265205018 103.56964439868527 L 531.6296087801504 103.4958246784449 L 531.4574326850875 103.4212229108266 L 531.2869154527791 103.34584655594495 L 531.1180741348065 103.26970315137261 L 530.9509256151606 103.19280031138662 L 530.7854866085543 103.11514572620688 L 530.62177365875 103.03674716122718 L 530.4598031369068 102.9576124562387 L 530.2995912399415 102.87774952464599 L 530.1411539889103 102.79716635267567 L 529.9845072274065 102.71587099857777 L 529.8296666199757 102.63387159181995 L 529.6766476505493 102.55117633227457 L 529.5254656208971 102.46779348939864 L 529.3761356490958 102.383731401407 L 529.2286726680182 102.29899847443839 L 529.0830914238397 102.21360318171489 L 528.9394064745633 102.12755406269459 L 528.7976321885641 102.04085972221772 L 528.6577827431527 101.95352882964605 L 528.5198721231569 101.86557011799609 L 528.3839141195239 101.77699238306569 L 528.2499223279408 101.68780448255453 L 528.1179101474751 101.59801533517833 L 527.9878907792347 101.50763391977702 L 527.8598772250482 101.41666927441683 L 527.7338822861643 101.32513049548646 L 527.609918561972 101.23302673678755 L 527.4879984487403 101.14036720861921 L 527.3681341383789 101.04716117685703 L 527.250337617219 100.95341796202653 L 527.1346206648145 100.85914693837105 L 527.0209948527643 100.76435753291443 L 526.9094715435549 100.66905922451821 L 526.8000618894242 100.5732615429338 L 526.6927768312465 100.47697406784954 L 526.5876270974383 100.3802064279327 L 526.4846232028852 100.28296829986664 L 526.3837754478909 100.18526940738312 L 526.2850939171468 100.08711952028997 L 526.1885884787239 99.98852845349413 L 526.0942687830855 99.8895060660201 L 526.0021442621224 99.79006226002413 L 525.9122241282103 99.69020697980392 L 525.8245173732873 99.5899502108043 L 525.739032767956 99.48930197861863 L 525.6557788606058 99.38827234798623 L 525.5747639765577 99.28687142178599 L 525.4959962172329 99.18510934002603 L 525.4194834593417 99.08299627882971 L 525.3452333540959 98.98054244941808 L 525.2732533264443 98.87775809708869 L 525.2035505743296 98.7746535001911 L 525.1361320679691 98.67123896909912 L 525.0710045491571 98.56752484517966 L 525.0081745305912 98.46352149975867 L 524.947648295221 98.35923933308405 L 524.8894318956195 98.25468877328554 L 524.8335311533783 98.14988027533201 L 524.7799516585249 98.04482431998592 L 524.728698768964 97.93953141275524 L 524.6797776099422 97.83401208284296 L 524.6331930735344 97.72827688209414 L 524.5889498181555 97.62233638394075 L 524.547052268094 97.5162011823443 L 524.5075046130703 97.40988189073651 L 524.4703108078166 97.30338914095798 L 524.4354745716828 97.19673358219488 L 524.4029993882631 97.08992587991426 L 524.3728885050491 96.9829767147973 L 524.3451449331038 96.87589678167143 L 524.3197714467615 96.7686967884407 L 524.2967705833495 96.66138745501512 L 524.276144642935 96.55397951223858 L 524.2578956880949 96.44648370081588 L 524.2420255437095 96.33891077023856 L 524.22853579678 96.23127147771005 L 524.2174277962697 96.1235765870699 L 524.2087026529697 96.01583686771744 L 524.2023612393867 95.90806309353479 L 524.1984041896571 95.80026604180959 L 524.1968318994824 95.69245649215716" stroke-miterlimit="10" stroke-width="2.7769845610000004" stroke-dasharray=""/></g><g><g/><text fill="black" stroke="none" font-family="sans-serif" font-size="11pt" font-style="normal" font-weight="normal" text-decoration="normal" x="478.3683343952422" y="123.98419304699999" text-anchor="start" dominant-baseline="alphabetic" xml:space="preserve">SM Exchange Queue</text></g><path fill="none" stroke="none"/><g><path fill="white" stroke="black" paint-order="fill stroke markers" d=" M 634.0592658446562 84.779705127 L 894.3956035388594 84.779705127 L 894.3956035388594 128.884754037 L 634.0592658446562 128.884754037 L 634.0592658446562 84.779705127 Z" stroke-miterlimit="10" stroke-width="2.613632528" stroke-dasharray=""/></g><g><g/><text fill="black" stroke="none" font-family="sans-serif" font-size="11pt" font-style="normal" font-weight="normal" text-decoration="normal" x="651.7829614251563" y="112.549550737" text-anchor="start" dominant-baseline="alphabetic" xml:space="preserve">SM Exchange Message Processor</text></g><path fill="none" stroke="none"/><g><path fill="white" stroke="black" paint-order="fill stroke markers" d=" M 992.5874364569935 84.779705127 L 1123.3319009822512 84.779705127 L 1123.3319009822512 128.884754037 L 992.5874364569935 128.884754037 L 992.5874364569935 84.779705127 Z" stroke-miterlimit="10" stroke-width="2.613632528" stroke-dasharray=""/></g><g><g/><text fill="black" stroke="none" font-family="sans-serif" font-size="11pt" font-style="normal" font-weight="normal" text-decoration="normal" x="1010.3111320374935" y="112.549550737" text-anchor="start" dominant-baseline="alphabetic" xml:space="preserve">OH FHIR APIs</text></g><path fill="none" stroke="none"/><g><path fill="white" stroke="black" paint-order="fill stroke markers" d=" M 1139.6671042822513 84.779705127 L 1299.7744533289936 84.779705127 L 1299.7744533289936 128.884754037 L 1139.6671042822513 128.884754037 L 1139.6671042822513 84.779705127 Z" stroke-miterlimit="10" stroke-width="2.613632528" stroke-dasharray=""/></g><g><g/><text fill="black" stroke="none" font-family="sans-serif" font-size="11pt" font-style="normal" font-weight="normal" text-decoration="normal" x="1157.3907998627512" y="112.549550737" text-anchor="start" dominant-baseline="alphabetic" xml:space="preserve">OH Messaging API</text></g></g><g><g><g><rect fill="white" stroke="none" x="127.53378720208396" y="161.555160637" width="157.26989997925781" height="21.23576429"/></g><text fill="black" stroke="none" font-family="sans-serif" font-size="11pt" font-style="normal" font-weight="normal" text-decoration="normal" x="129.98406769708396" y="176.25684360699998" text-anchor="start" dominant-baseline="alphabetic" xml:space="preserve">POSTs a new message</text></g><g><path fill="none" stroke="black" paint-order="fill stroke markers" d=" M 88.61855400540234 182.790924927 L 310.2696029943568 182.790924927" stroke-miterlimit="10" stroke-width="1.3612669416666667" stroke-dasharray=""/><g transform="translate(323.7189203780234,182.790924927) translate(-323.7189203780234,-182.790924927)"><path fill="black" stroke="none" paint-order="stroke fill markers" d=" M 310.10625096135675 175.98459021866665 L 323.7189203780234 182.790924927 L 310.10625096135675 189.59725963533333 Z"/></g></g><path fill="white" stroke="black" paint-order="fill stroke markers" d=" M 192.07014814816014 207.29372987699998 L 455.36769260788674 207.29372987699998 L 455.36769260788674 244.86469746699998 L 192.07014814816014 244.86469746699998 L 192.07014814816014 207.29372987699998" stroke-miterlimit="10" stroke-width="1.3612669416666667" stroke-dasharray=""/><g><text fill="black" stroke="none" font-family="sans-serif" font-size="11pt" font-style="italic" font-weight="normal" text-decoration="normal" x="214.93943276816015" y="230.16301449699995" text-anchor="start" dominant-baseline="alphabetic" xml:space="preserve">Might</text><text fill="black" stroke="none" font-family="sans-serif" font-size="11pt" font-style="normal" font-weight="normal" text-decoration="normal" x="250.78766885214452" y="230.16301449699995" text-anchor="start" dominant-baseline="alphabetic" xml:space="preserve"> do some light tranformation</text></g><g><g><rect fill="white" stroke="none" x="373.536092100373" y="269.36750241699997" width="124.69293464722656" height="21.23576429"/></g><text fill="black" stroke="none" font-family="sans-serif" font-size="11pt" font-style="normal" font-weight="normal" text-decoration="normal" x="375.98637259537304" y="284.06918538699995" text-anchor="start" dominant-baseline="alphabetic" xml:space="preserve">Inserts into Queue</text></g><g><path fill="none" stroke="black" paint-order="fill stroke markers" d=" M 323.7189203780234 290.603266707 L 534.5968810862826 290.603266707" stroke-miterlimit="10" stroke-width="1.3612669416666667" stroke-dasharray=""/><g transform="translate(548.0461984699492,290.603266707) translate(-548.0461984699492,-290.603266707)"><path fill="black" stroke="none" paint-order="stroke fill markers" d=" M 534.4335290532825 283.79693199866665 L 548.0461984699492 290.603266707 L 534.4335290532825 297.4096014153333 Z"/></g></g><g><g><rect fill="white" stroke="none" x="591.761006605873" y="315.106071657" width="128.75161994996094" height="21.23576429"/></g><text fill="black" stroke="none" font-family="sans-serif" font-size="11pt" font-style="normal" font-weight="normal" text-decoration="normal" x="594.211287100873" y="329.80775462699995" text-anchor="start" dominant-baseline="alphabetic" xml:space="preserve">Recieves message</text></g><g><path fill="none" stroke="black" paint-order="fill stroke markers" d=" M 548.0461984699492 336.341835947 L 750.7781173080912 336.341835947" stroke-miterlimit="10" stroke-width="1.3612669416666667" stroke-dasharray=""/><g transform="translate(764.2274346917578,336.341835947) translate(-764.2274346917578,-336.341835947)"><path fill="black" stroke="none" paint-order="stroke fill markers" d=" M 750.6147652750911 329.53550123866665 L 764.2274346917578 336.341835947 L 750.6147652750911 343.14817065533333 Z"/></g></g><path fill="white" stroke="black" paint-order="fill stroke markers" d=" M 639.7833743759571 360.844640897 L 888.6714950075586 360.844640897 L 888.6714950075586 398.415608487 L 639.7833743759571 398.415608487 L 639.7833743759571 360.844640897" stroke-miterlimit="10" stroke-width="1.3612669416666667" stroke-dasharray=""/><g><text fill="black" stroke="none" font-family="sans-serif" font-size="11pt" font-style="normal" font-weight="normal" text-decoration="normal" x="662.652658995957" y="383.71392551699995" text-anchor="start" dominant-baseline="alphabetic" xml:space="preserve">Translates the message for OH</text></g><g><g><rect fill="white" stroke="none" x="783.5574252634244" y="422.91841343699997" width="255.07225288453125" height="21.23576429"/></g><text fill="black" stroke="none" font-family="sans-serif" font-size="11pt" font-style="normal" font-weight="normal" text-decoration="normal" x="786.0077057584244" y="437.62009640699995" text-anchor="start" dominant-baseline="alphabetic" xml:space="preserve">Queries for any data needed (ids, etc) </text></g><g><path fill="none" stroke="black" paint-order="fill stroke markers" d=" M 764.2274346917578 444.154177727 L 1044.5103513359556 444.154177727" stroke-miterlimit="10" stroke-width="1.3612669416666667" stroke-dasharray=""/><g transform="translate(1057.9596687196224,444.154177727) translate(-1057.9596687196224,-444.154177727)"><path fill="black" stroke="none" paint-order="stroke fill markers" d=" M 1044.3469993029557 437.34784301866665 L 1057.9596687196224 444.154177727 L 1044.3469993029557 450.9605124353333 Z"/></g></g><path fill="white" stroke="black" paint-order="fill stroke markers" d=" M 672.4999042221485 468.656982677 L 855.9549651613672 468.656982677 L 855.9549651613672 506.227950267 L 672.4999042221485 506.227950267 L 672.4999042221485 468.656982677" stroke-miterlimit="10" stroke-width="1.3612669416666667" stroke-dasharray=""/><g><text fill="black" stroke="none" font-family="sans-serif" font-size="11pt" font-style="normal" font-weight="normal" text-decoration="normal" x="695.3691888421484" y="491.52626729699995" text-anchor="start" dominant-baseline="alphabetic" xml:space="preserve">Handles attachments</text></g><g><g><rect fill="white" stroke="none" x="921.8932033899205" y="530.7307552169999" width="140.16180671753906" height="21.23576429"/></g><text fill="black" stroke="none" font-family="sans-serif" font-size="11pt" font-style="normal" font-weight="normal" text-decoration="normal" x="924.3434838849205" y="545.4324381869999" text-anchor="start" dominant-baseline="alphabetic" xml:space="preserve">Sends OH message </text></g><g><path fill="none" stroke="black" paint-order="fill stroke markers" d=" M 764.2274346917578 551.9665195069999 L 1206.2714614219556 551.9665195069999" stroke-miterlimit="10" stroke-width="1.3612669416666667" stroke-dasharray=""/><g transform="translate(1219.7207788056223,551.9665195069999) translate(-1219.7207788056223,-551.9665195069999)"><path fill="black" stroke="none" paint-order="stroke fill markers" d=" M 1206.1081093889557 545.1601847986666 L 1219.7207788056223 551.9665195069999 L 1206.1081093889557 558.7728542153333 Z"/></g></g></g><g/><g/><g/><g/><g/><g/></g></svg>