<svg version="1.1" xmlns="http://www.w3.org/2000/svg" xmlns:xlink="http://www.w3.org/1999/xlink" width="1787" height="779"><desc>title%20Sending%20Messages%20From%20OH%0A%0A%0Aparticipant%20OH%20ATOM%20Feed%0Aparticipant%20SM%20Exchange%20RESTful%20OH%20Listener%0Adatabase%20SM%20Exchange%20Queue%0Aparticipant%20SM%20Exchange%20Message%20Processor%0Aparticipant%20SM%20Exchange%20OH%20to%20MHV%20Translator%0Aparticipant%20OH%20FHIR%20APIs%0Aparticipant%20MHV%20SM%20RESTful%20API%0A%0A%0A%0AOH%20ATOM%20Feed%20-%3ESM%20Exchange%20RESTful%20OH%20Listener%3A%20Pushes%20new%20ATOM%20feed%20item%0A%0Abox%20over%20SM%20Exchange%20RESTful%20OH%20Listener%3A%20%2F%2Fmight%2F%2F%20do%20some%20light%20data%20transformation%0A%0ASM%20Exchange%20RESTful%20OH%20Listener%20-%3ESM%20Exchange%20Queue%3A%20Inserts%20into%20queue%0A%0ASM%20Exchange%20Queue%20%3C-SM%20Exchange%20Message%20Processor%3A%20Listens%20for%20new%20message%0A%0Abox%20over%20SM%20Exchange%20Message%20Processor%3A%20Determines%20the%20destination%20of%20the%20message%0A%0ASM%20Exchange%20Message%20Processor%20-%3ESM%20Exchange%20OH%20to%20MHV%20Translator%3A%20sends%20message%0A%0Abox%20over%20SM%20Exchange%20OH%20to%20MHV%20Translator%3A%20gathers%20data%20needed%20for%20MHV%0A%0ASM%20Exchange%20OH%20to%20MHV%20Translator%20-%3EOH%20FHIR%20APIs%3A%20Queries%20for%20missing%20data%0A%0Abox%20over%20SM%20Exchange%20OH%20to%20MHV%20Translator%3A%20handles%20attachments%0A%0ASM%20Exchange%20OH%20to%20MHV%20Translator%20-%3EMHV%20SM%20RESTful%20API%3A%20POSTs%20message%0A%0Abox%20over%20MHV%20SM%20RESTful%20API%3A%20inserts%20the%20message%20into%20MHV%20data%20layer%20(shadow%20tables%2C%20real%20tables%2C%20etc)%0A%0A%0A</desc><defs/><g><g/><g/><g/><g/><g/><g/><g/><g/><g/><g/><g/><g/><g><rect fill="white" stroke="none" x="0" y="0" width="1787" height="779"/></g><g><text fill="black" stroke="none" font-family="sans-serif" font-size="16.5pt" font-style="normal" font-weight="normal" text-decoration="normal" x="751.9814965590416" y="24.50280495" text-anchor="start" dominant-baseline="alphabetic" xml:space="preserve">Sending Messages From OH</text></g><g/><g><path fill="none" stroke="black" paint-order="fill stroke markers" d=" M 78.16404045559766 128.884754037 L 78.16404045559766 779.0258453769999" stroke-miterlimit="10" stroke-width="1.3612669416666667" stroke-dasharray="12.565541,5.445067766666667"/><path fill="none" stroke="black" paint-order="fill stroke markers" d=" M 311.03021613385283 128.884754037 L 311.03021613385283 779.0258453769999" stroke-miterlimit="10" stroke-width="1.3612669416666667" stroke-dasharray="12.565541,5.445067766666667"/><path fill="none" stroke="black" paint-order="fill stroke markers" d=" M 530.8728903439427 128.884754037 L 530.8728903439427 779.0258453769999" stroke-miterlimit="10" stroke-width="1.3612669416666667" stroke-dasharray="12.565541,5.445067766666667"/><path fill="none" stroke="black" paint-order="fill stroke markers" d=" M 747.0541265657513 128.884754037 L 747.0541265657513 779.0258453769999" stroke-miterlimit="10" stroke-width="1.3612669416666667" stroke-dasharray="12.565541,5.445067766666667"/><path fill="none" stroke="black" paint-order="fill stroke markers" d=" M 1031.1809516786068 128.884754037 L 1031.1809516786068 779.0258453769999" stroke-miterlimit="10" stroke-width="1.3612669416666667" stroke-dasharray="12.565541,5.445067766666667"/><path fill="none" stroke="black" paint-order="fill stroke markers" d=" M 1250.5118402069895 128.884754037 L 1250.5118402069895 779.0258453769999" stroke-miterlimit="10" stroke-width="1.3612669416666667" stroke-dasharray="12.565541,5.445067766666667"/><path fill="none" stroke="black" paint-order="fill stroke markers" d=" M 1519.0718893187864 128.884754037 L 1519.0718893187864 779.0258453769999" stroke-miterlimit="10" stroke-width="1.3612669416666667" stroke-dasharray="12.565541,5.445067766666667"/></g><g><path fill="none" stroke="none"/><g><path fill="white" stroke="black" paint-order="fill stroke markers" d=" M 8.167601649999995 84.779705127 L 148.16047926119532 84.779705127 L 148.16047926119532 128.884754037 L 8.167601649999995 128.884754037 L 8.167601649999995 84.779705127 Z" stroke-miterlimit="10" stroke-width="2.613632528" stroke-dasharray=""/></g><g><g/><text fill="black" stroke="none" font-family="sans-serif" font-size="11pt" font-style="normal" font-weight="normal" text-decoration="normal" x="25.8912972305" y="112.549550737" text-anchor="start" dominant-baseline="alphabetic" xml:space="preserve">OH ATOM Feed</text></g><path fill="none" stroke="none"/><g><path fill="white" stroke="black" paint-order="fill stroke markers" d=" M 177.20060929847003 84.779705127 L 444.85982296923567 84.779705127 L 444.85982296923567 128.884754037 L 177.20060929847003 128.884754037 L 177.20060929847003 84.779705127 Z" stroke-miterlimit="10" stroke-width="2.613632528" stroke-dasharray=""/></g><g><g/><text fill="black" stroke="none" font-family="sans-serif" font-size="11pt" font-style="normal" font-weight="normal" text-decoration="normal" x="194.92430487897002" y="112.549550737" text-anchor="start" dominant-baseline="alphabetic" xml:space="preserve">SM Exchange RESTful OH Listener</text></g><g><path fill="white" stroke="black" paint-order="fill stroke markers" d=" M 507.0234935259427 96.867755569 L 507.0234935259427 62.563828639 L 554.7222871619426 62.563828639 L 554.7222871619426 96.867755569" stroke-miterlimit="10" stroke-width="2.7769845610000004" stroke-dasharray=""/><path fill="white" stroke="black" paint-order="fill stroke markers" d=" M 554.7222871619426 61.3713587981 L 554.721094702039 61.47916934301662 L 554.7175174415729 61.58696910696859 L 554.7115557382676 61.69474731006935 L 554.7032101882883 61.8024931745884 L 554.692481626183 61.91019592602908 L 554.6793711247992 62.017844794206 L 554.663879995176 62.125429014322044 L 554.6460097864134 62.232937828044854 L 554.6257622855173 62.34036048458265 L 554.6031395172212 62.44768624175929 L 554.5781437437828 62.55490436708851 L 554.5507774647588 62.66200413884712 L 554.5210434167542 62.76897484714718 L 554.4889445731491 62.87580579500701 L 554.454484143801 62.982486299420856 L 554.4176655747242 63.08900569242717 L 554.3784925477448 63.19535332217542 L 554.3369689801331 63.30151855399125 L 554.2930990242111 63.40749077143996 L 554.2468870669377 63.5132593773881 L 554.1983377294704 63.618813795063225 L 554.1474558667023 63.724143469111524 L 554.0942465667774 63.82923786665337 L 554.0387151505812 63.93408647833659 L 553.9808671712092 64.03867881938739 L 553.920708413411 64.1430044306588 L 553.8582448930124 64.24705287967667 L 553.7934828563132 64.35081376168277 L 553.7264287794632 64.45427670067541 L 553.6570893678143 64.55743135044686 L 553.5854715552496 64.66026739561813 L 553.5115825034909 64.7627745526704 L 553.4354296013819 64.86494257097338 L 553.3570204641491 64.96676123381039 L 553.276362932641 65.06822035939997 L 553.1934650725435 65.16930980191414 L 553.1083351735737 65.27001945249287 L 553.0209817486502 65.37033924025505 L 552.931413533043 65.47025913330548 L 552.839639483499 65.56976913973813 L 552.7456687773465 65.66885930863528 L 552.649510811578 65.7675197310626 L 552.5511752019099 65.86574054106009 L 552.450671781821 65.96351191662859 L 552.34801060157 66.06082408071202 L 552.2432019271889 66.15766730217506 L 552.136256239458 66.25403189677627 L 552.027184232857 66.3499082281365 L 551.9159968144958 66.4452867087025 L 551.8027051030232 66.54015780070569 L 551.6873204275163 66.63451201711595 L 551.5698543263462 66.72833992259025 L 551.4503185460253 66.82163213441623 L 551.328725040032 66.91437932345046 L 551.2050859676157 67.00657221505134 L 551.0794136925803 67.0982015900065 L 550.9517207820488 67.18925828545483 L 550.8220200052058 67.27973319580266 L 550.6903243320209 67.36961727363435 L 550.5566469319516 67.45890153061701 L 550.4210011726267 67.54757703839935 L 550.2834006185088 67.6356349295045 L 550.1438590295389 67.72306639821673 L 550.0023903597596 67.80986270146201 L 549.8590087559198 67.89601515968236 L 549.7137285560607 67.98151515770375 L 549.5665642880808 68.06635414559763 L 549.4175306682847 68.15052363953589 L 549.2666425999098 68.2340152226393 L 549.1139151716375 68.31682054581911 L 548.9593636560833 68.39893132861202 L 548.8030035082697 68.48033936000816 L 548.6448503640814 68.56103649927225 L 548.4849200387011 68.6410146767576 L 548.323228525028 68.72026589471311 L 548.1597919920787 68.79878222808303 L 547.9946267833701 68.87655582529945 L 547.8277494152858 68.95357890906746 L 547.6591765754233 69.02984377714286 L 547.4889251209262 69.10534280310242 L 547.317012076798 69.18006843710643 L 547.1434546342 69.25401320665378 L 546.9682701487317 69.32716971732913 L 546.7914761386957 69.39953065354239 L 546.6130902833456 69.47108877926021 L 546.4331304211183 69.54183693872967 L 546.2516145478503 69.61176805719379 L 546.0685608149773 69.68087514159897 L 545.8839875277204 69.74915128129439 L 545.6979131432541 69.81658964872294 L 545.5103562688622 69.88318350010411 L 545.3213356600755 69.94892617610824 L 545.1308702187977 70.01381110252252 L 544.9389789914138 70.07783179090838 L 544.745681166887 70.14098183925032 L 544.5509960748385 70.20325493259614 L 544.3549431836153 70.26464484368842 L 544.1575420983431 70.32514543358717 L 543.9588125589661 70.38475065228383 L 543.7587744382723 70.44345453930622 L 543.5574477399074 70.50125122431453 L 543.3548525963733 70.55813492768844 L 543.1510092670155 70.61409996110503 L 542.9459381359973 70.66914072810756 L 542.7396597102605 70.72325172466522 L 542.5321946174762 70.77642753972344 L 542.3235636039805 70.82866285574504 L 542.113787532701 70.87995244924193 L 541.9028873810701 70.9302911912975 L 541.690884238927 70.9796740480795 L 541.4777993064093 71.0280960813434 L 541.263653891833 71.07555244892625 L 541.0484694095607 71.12203840523081 L 540.8322673778614 71.16754930170019 L 540.6150694167583 71.21208058728268 L 540.3968972458663 71.25562780888683 L 540.1777726822207 71.29818661182675 L 539.9577176380953 71.33975274025764 L 539.7367541188113 71.38032203760127 L 539.5149042205363 71.41989044696174 L 539.2921901280753 71.45845401153106 L 539.0686341126518 71.49600887498494 L 538.8442585296814 71.5325512818683 L 538.6190858165351 71.56807757797091 L 538.3931384902967 71.60258421069277 L 538.1664391455105 71.63606772939937 L 537.9390104519221 71.66852478576672 L 537.7108751522112 71.69995213411627 L 537.4820560597179 71.73034663173934 L 537.2525760561606 71.7597052392115 L 537.0224580893486 71.78802502069648 L 536.7917251708865 71.81530314423973 L 536.5604003738741 71.84153688205163 L 536.3285068305983 71.86672361078024 L 536.0960677302202 71.8908608117737 L 535.8631063164561 71.913946071332 L 535.6296458852531 71.93597708094846 L 535.3957097824601 71.95695163754044 L 535.1613214014922 71.97686764366978 L 534.9265041809922 71.99572310775245 L 534.6912816024866 72.01351614425778 L 534.4556771880369 72.03024497389691 L 534.2197144978886 72.04590792380084 L 533.983417128114 72.06050342768764 L 533.746808708253 72.07403002601906 L 533.5099128989503 72.08648636614654 L 533.2727533895899 72.09787120244648 L 533.0353538959247 72.1081833964447 L 532.7977381577062 72.11742191693043 L 532.5599299363106 72.12558584005929 L 532.3219530123615 72.13267434944576 L 532.0838311833531 72.13868673624485 L 531.84558826127 72.14362239922286 L 531.6072480702056 72.14748084481762 L 531.3688344439806 72.1502616871878 L 531.1303712237589 72.15196464825142 L 530.8918822556637 72.15258955771385 L 530.6533913883932 72.15213635308466 L 530.4149224708353 72.15060507968391 L 530.1764993496831 72.14799589063767 L 529.9381458670501 72.1443090468627 L 529.6998858580857 72.13954491704027 L 529.4617431485925 72.1337039775794 L 529.2237415526429 72.12678681256918 L 528.985904870198 72.11879411372033 L 528.7482568847281 72.10972668029609 L 528.5108213608336 72.09958541903224 L 528.2736220418689 72.08837134404646 L 528.0366826475685 72.07608557673689 L 527.8000268716742 72.06272934567005 L 527.5636783795663 72.04830398645788 L 527.3276608058973 72.0328109416243 L 527.0919977522277 72.01625176046089 L 526.8567127846666 71.99862809887196 L 526.6218294315146 71.97994171920898 L 526.3873711809113 71.96019449009434 L 526.1533614784864 71.9393883862345 L 525.919823725015 71.91752548822251 L 525.6867812740782 71.89460798232996 L 525.4542574297265 71.87063816028832 L 525.2222754441506 71.84561841905983 L 524.990858515356 71.81955126059778 L 524.7600297848425 71.79243929159627 L 524.5298123352909 71.7642852232296 L 524.3002291882543 71.73509187088118 L 524.071303301856 71.7048621538619 L 523.843057568494 71.67359909511825 L 523.6155148125514 71.64130582093009 L 523.3886977881141 71.6079855605979 L 523.1626291766956 71.57364164611994 L 522.9373315849687 71.53827751185906 L 522.7128275425046 71.50189669419922 L 522.4891394995207 71.46450283119185 L 522.2662898246348 71.42609966219209 L 522.0443008026286 71.38669102748484 L 521.8231946322196 71.34628086790075 L 521.6029934238402 71.30487322442208 L 521.383719197428 71.26247223777868 L 521.1653938802228 71.21908214803388 L 520.9480393045744 71.17470729416048 L 520.7316772057594 71.12935211360693 L 520.5163292198071 71.08302114185344 L 520.3020168813368 71.0357190119586 L 520.0887616214037 70.987450454096 L 519.8765847653563 70.93822029508118 L 519.6655075307029 70.88803345788901 L 519.4555510249916 70.8368949611614 L 519.2467362436977 70.7848099187054 L 519.0390840681254 70.73178353898187 L 518.8326152633192 70.67782112458457 L 518.6273504759876 70.62292807170999 L 518.4233102324381 70.56710986961765 L 518.2205149365251 70.51037210008127 L 518.0189848676093 70.4527204368305 L 517.8187401785297 70.39416064498364 L 517.619800893588 70.33469858047107 L 517.4221869065473 70.27434018944969 L 517.2259179786414 70.2130915077083 L 517.0310137365996 70.15095866006402 L 516.8374936706837 70.08794785974987 L 516.6453771327389 70.02406540779336 L 516.4546833342591 69.95931769238642 L 516.2654313444651 69.89371118824668 L 516.0776400883982 69.82725245596986 L 515.8913283450275 69.7599481413738 L 515.7065147453721 69.69180497483389 L 515.5232177706381 69.62282977060998 L 515.34145575037 69.55302942616503 L 515.1612468606183 69.4824109214753 L 514.9826091221221 69.41098131833243 L 514.8055603985061 69.3387477596372 L 514.6301183944953 69.26571746868528 L 514.4563006541439 69.19189774844492 L 514.284124559081 69.1172959808266 L 514.1136073267726 69.04191962594494 L 513.9447660088 68.96577622137262 L 513.7776174891541 68.88887338138663 L 513.6121784825477 68.81121879620689 L 513.4484655327435 68.73282023122718 L 513.2864950109002 68.6536855262387 L 513.126283113935 68.573822594646 L 512.9678458629038 68.49323942267567 L 512.8111991014 68.41194406857777 L 512.6563584939692 68.32994466181995 L 512.5033395245428 68.24724940227456 L 512.3521574948905 68.16386655939866 L 512.2028275230892 68.07980447140702 L 512.0553645420117 67.99507154443839 L 511.9097832978332 67.90967625171488 L 511.76609834855674 67.8236271326946 L 511.62432406255755 67.73693279221771 L 511.4844746171461 67.64960189964606 L 511.3465639971503 67.56164318799608 L 511.2106059935174 67.47306545306569 L 511.07661420193426 67.38387755255452 L 510.94460202146854 67.29408840517834 L 510.8145826532282 67.20370698977703 L 510.6865690990417 67.11274234441683 L 510.56057416015784 67.02120356548647 L 510.43661043596546 66.92909980678756 L 510.3146903227337 66.83644027861922 L 510.19482601237235 66.74323424685704 L 510.07702949121244 66.64949103202653 L 509.961312538808 66.55522000837107 L 509.8476867267578 66.46043060291444 L 509.73616341754837 66.3651322945182 L 509.6267537634177 66.2693346129338 L 509.51946870524 66.17304713784955 L 509.4143189714318 66.07627949793272 L 509.3113150768787 65.97904136986665 L 509.2104673218844 65.88134247738313 L 509.11178579114033 65.78319259028999 L 509.01528035271735 65.68460152349414 L 508.9209606570789 65.58557913602012 L 508.8288361361159 65.48613533002413 L 508.7389160022037 65.38628004980393 L 508.6512092472808 65.2860232808043 L 508.56572464194954 65.18537504861862 L 508.4824707345992 65.08434541798623 L 508.4014558505512 64.982944491786 L 508.3226880912264 64.88118241002603 L 508.2461753333351 64.77906934882972 L 508.1719252280893 64.67661551941809 L 508.09994520043773 64.5738311670887 L 508.0302424483231 64.47072657019112 L 507.9628239419626 64.36731203909913 L 507.8976964231506 64.26359791517966 L 507.8348664045847 64.15959456975868 L 507.7743401692145 64.05531240308405 L 507.71612376961303 63.95076184328555 L 507.6602230273717 63.84595334533201 L 507.6066435325183 63.74089738998592 L 507.55539064295755 63.63560448275524 L 507.5064694839357 63.530085152842965 L 507.4598849475278 63.42434995209415 L 507.4156416921489 63.318409453940745 L 507.3737441420875 63.2122742523443 L 507.3341964870637 63.105954960736526 L 507.2970026818101 62.99946221095797 L 507.2621664456762 62.892806652194885 L 507.2296912622566 62.78599894991426 L 507.1995803790426 62.679049784797314 L 507.1718368070973 62.57196985167143 L 507.14646332075495 62.464769858440704 L 507.12346245734295 62.357460525015114 L 507.10283651692845 62.25005258223858 L 507.08458756208836 62.14255677081588 L 507.06871741770294 62.03498384023857 L 507.05522767077343 61.92734454771006 L 507.0441196702632 61.81964965706991 L 507.0353945269631 61.71190993771744 L 507.0290531133802 61.6041361635348 L 507.0250960636506 61.49633911180959 L 507.02352377347586 61.38852956215717 L 507.0243364000838 61.28071829544265 L 507.0275338622124 61.172916092702856 L 507.0331158401181 61.06513373406823 L 507.0410817756078 60.957381997684834 L 507.0514308720945 60.84967165863649 L 507.0641620946773 60.74201348786736 L 507.0792741702444 60.6344182511048 L 507.09676558760094 60.526896707782825 L 507.1166345976198 60.41945960996616 L 507.13887921341643 60.31211770127506 L 507.16349721054786 60.204881715810956 L 507.19048612723486 60.097762377083015 L 507.2198432646083 59.99077039693585 L 507.2515656869788 59.88391647447831 L 507.28565022213064 59.7772112950136 L 507.32209346163876 59.67066552897075 L 507.3608917612094 59.56428983083758 L 507.40204124104514 59.45809483809524 L 507.44553778623214 59.35209117015452 L 507.49137704715224 59.24628942729389 L 507.5395544399174 59.14070018959944 L 507.5900651468287 59.03533401590697 L 507.6429041168573 58.93020144274604 L 507.69806606615043 58.82531298328635 L 507.75554547855904 58.72067912628645 L 507.81533660618976 58.61631033504484 L 507.87743346997974 58.51221704635366 L 507.94182986029426 58.40840966945505 L 508.008519337548 58.30489858500019 L 508.07749523284883 58.20169414401126 L 508.14875064866465 58.098806666846365 L 508.22227845951323 57.996246442167475 L 508.2980713126749 57.894023725911595 L 508.3761216289273 57.79214874026516 L 508.456421603304 57.69063167264185 L 508.5389632058745 57.58948267466382 L 508.6237381825472 57.488711861146584 L 508.71073805589515 57.38832930908751 L 508.7999541260035 57.28834505665816 L 508.89137747133964 57.18876910220045 L 508.9849989496451 57.08961140322686 L 509.0808091988502 56.99088187542464 L 509.17879863800977 56.8925903916643 L 509.2789574682616 56.794746781012314 L 509.3812756738061 56.6973608277482 L 509.485743022908 56.60044227038614 L 509.5923490689195 56.5040008007011 L 509.70108315132467 56.40804606275968 L 509.81193439680607 56.31258765195572 L 509.9248917203314 56.217635114050736 L 510.03994382626246 56.12319794421941 L 510.1570792094846 56.029285586100016 L 510.2762861565571 55.93590743085011 L 510.3975527468845 55.8430728162074 L 510.5208668539089 55.75079102555599 L 510.64621614632233 55.65907128699804 L 510.77358808930006 55.56792277243099 L 510.90296994575385 55.47735459663031 L 511.0343487776059 55.387375816338135 L 511.1677114470825 55.29799542935749 L 511.30304461802797 55.20922237365261 L 511.4403347572378 55.12106552645507 L 511.57956813581256 55.033533703376136 L 511.72073083053044 54.94663565752517 L 511.86380872523955 54.86038007863435 L 512.0087875122697 54.77477559218967 L 512.155652693863 54.689830758568455 L 512.3043895836237 54.60555407218327 L 512.4549833079866 54.52195396063252 L 512.607418807705 54.439038783857704 L 512.7616808393558 54.35681683330739 L 512.9177539768644 54.27529633110813 L 513.0756226130472 54.19448542924221 L 513.2352709611722 54.114392208732454 L 513.3966830565373 54.03502467883419 L 513.5598427580678 53.95639077623426 L 513.7247337499293 53.878498364257396 L 513.8913395431603 53.801355232079885 L 514.05964347732 53.72496909395066 L 514.2296287221553 53.649347588419886 L 514.4012782792836 53.57449827757509 L 514.574574983892 53.50042864628498 L 514.7495015064545 53.42714610145097 L 514.9260403544647 53.35465797126647 L 515.1041738741848 53.28297150448409 L 515.2838842524113 53.21209386969077 L 515.4651535182562 53.14203215459092 L 515.6479635449439 53.072793365297684 L 515.8322960516241 53.00438442563227 L 516.0181326051999 52.93681217643165 L 516.2054546221705 52.870083374864436 L 516.3942433704904 52.80420469375517 L 516.5844799714422 52.739182720917064 L 516.7761454015243 52.67502395849323 L 516.9692204943534 52.611734822306424 L 517.1636859425811 52.54932164121754 L 517.3595222998247 52.48779065649267 L 517.5567099826114 52.427148021179015 L 517.7552292723377 52.36739979948956 L 517.9550603172397 52.3085519661967 L 518.1561831343795 52.25061040603471 L 518.3585776116431 52.19358091311133 L 518.5622235097514 52.13746919032833 L 518.7671004642842 52.08228084881122 L 518.9731879877169 52.02802140734818 L 519.1804654714688 51.974696291838114 L 519.3889121879643 51.922310834748146 L 519.5985072927054 51.87087027458034 L 519.8092298263564 51.82037975534783 L 520.0210587168394 51.770844326060484 L 520.233972781442 51.72226894021993 L 520.4479507289352 51.674658455324284 L 520.6629711617024 51.62801763238236 L 520.8790125778796 51.58235113543759 L 521.0960533735051 51.5376635311016 L 521.3140718446805 51.49395928809759 L 521.53304618974 51.451242776813444 L 521.7529545114319 51.409518268864694 L 521.973774819107 51.368789936667355 L 522.1954850309187 51.32906185302072 L 522.4180629760306 51.29033799070003 L 522.6414863968336 51.252622222059266 L 522.8657329511717 51.21591831864385 L 523.0907802145766 51.18022995081354 L 523.3166056825094 51.14556068737539 L 523.5431867726114 51.11191399522683 L 523.7705008269626 51.079293239009054 L 523.9985251143466 51.047701680770494 L 524.2272368325251 51.01714247964064 L 524.4566131105167 50.98761869151416 L 524.6866310108849 50.95913326874524 L 524.917267532031 50.93168905985244 L 525.1484996104954 50.90528880923376 L 525.3803041232627 50.87993515689227 L 525.6126578900751 50.85563063817208 L 525.8455376757493 50.83237768350481 L 526.0789201925008 50.81017861816654 L 526.3127821022726 50.78903566204531 L 526.5471000190685 50.768950929419105 L 526.781850511292 50.749926428744466 L 527.0170101040895 50.7319640624556 L 527.2525552816979 50.71506562677416 L 527.4884624897956 50.69923281152964 L 527.7247081378583 50.684467199990365 L 527.9612686015181 50.6707702687052 L 528.1981202249259 50.658143387355835 L 528.4352393231165 50.64658781861989 L 528.672602184378 50.63610471804463 L 528.9101850726217 50.62669513393135 L 529.147964229757 50.61836000723063 L 529.3859158780664 50.61110017144819 L 529.6240162225831 50.604916352561574 L 529.8622414534713 50.5998091689475 L 530.1005677484063 50.595779131320086 L 530.3389712749573 50.592826642679725 L 530.5774281929702 50.59095199827282 L 530.815914656952 50.59015538556226 L 531.054406818455 50.59043688420866 L 531.2928808284619 50.59179646606236 L 531.5313128397703 50.594233995166334 L 531.7696790093778 50.59774922776969 L 532.007955500866 50.6023418123521 L 532.2461184867846 50.60801128965893 L 532.4841441510331 50.61475709274719 L 532.7220086912436 50.622578547042174 L 532.9596883211602 50.63147487040497 L 533.1971592730183 50.64144517321068 L 533.4343977999202 50.6524884584373 L 533.6713801782112 50.66460362176552 L 533.9080827098508 50.67778945168912 L 534.1444817247831 50.69204462963607 L 534.3805535833037 50.70736773010048 L 534.6162746784233 50.72375722078505 L 534.851621438229 50.74121146275439 L 535.0865703282409 50.759728710598836 L 535.3210978537657 50.77930711260903 L 535.5551805622464 50.79994471096109 L 535.7887950456071 50.821639441912396 L 536.0219179425942 50.844389136007905 L 536.2545259411123 50.86819151829718 L 536.4865957805554 50.893044208561825 L 536.7181042541329 50.91894472155353 L 536.9490282111904 50.94589046724256 L 537.1793445595246 50.973878751076825 L 537.4090302676925 51.00290677425126 L 537.6380623673149 51.03297163398772 L 537.8664179553725 51.064070323825305 L 538.094074196497 51.09619973392093 L 538.3210083252537 51.129356651360375 L 538.5471976484191 51.16353776047952 L 538.7726195472494 51.198739643195935 L 538.9972514797423 51.23495877935069 L 539.221070982892 51.27219154706035 L 539.4440556749346 51.31043422307917 L 539.6661832575866 51.349682983171405 L 539.8874315182751 51.38993390249377 L 540.1077783323582 51.43118295598788 L 540.3272016653381 51.47342601878273 L 540.5456795750645 51.51665886660727 L 540.7631902139284 51.56087717621274 L 540.9797118310472 51.60607652580503 L 541.1952227744396 51.65225239548683 L 541.4097014931908 51.69940016770967 L 541.6231265396078 51.74751512773561 L 541.8354765713638 51.79659246410874 L 542.0467303536325 51.84662726913632 L 542.2568667612117 51.89761453937955 L 542.4658647806357 51.949549176153894 L 542.6737035122769 52.00242598603895 L 542.8803621724352 52.0562396813978 L 543.0858200954169 52.11098488090573 L 543.2900567356008 52.16665611008844 L 543.4930516694932 52.22324780186939 L 543.6947845977697 52.28075429712656 L 543.8952353473059 52.339169845258354 L 544.0943838731935 52.398488604758626 L 544.2922102607461 52.458704643800864 L 544.4886947274897 52.51981194083135 L 544.6838176251415 52.581804385171296 L 544.8775594415742 52.64467577762793 L 545.0699008027676 52.708419831114405 L 545.2608224747461 52.77303017127848 L 545.4503053655012 52.83850033713999 L 545.6383305269021 52.90482378173691 L 545.8248791565892 52.97199387278003 L 546.0099325998549 53.040003893316246 L 546.1934723515092 53.108847042400164 L 546.3754800577299 53.17851643577425 L 546.555937517898 53.24900510655722 L 546.7348266864178 53.32030600594074 L 546.9121296745216 53.39241200389429 L 547.0878287520584 53.465315889878156 L 547.2619063492667 53.5390103735645 L 547.434345058532 53.61348808556637 L 547.605127636127 53.68874157817461 L 547.7742370039363 53.76476332610268 L 547.9416562511639 53.84154572723915 L 548.1073686360247 53.91908110340788 L 548.2713575874184 53.99736170113587 L 548.4336067065864 54.07637969242858 L 548.594099768752 54.156127175552726 L 548.7528207247428 54.236596175826456 L 548.9097537025954 54.3177786464168 L 549.0648830091427 54.39966646914434 L 549.2181931315836 54.48225145529506 L 549.3696687390333 54.56552534643915 L 549.5192946840574 54.6494798152569 L 549.6670560041862 54.73410646637139 L 549.8129379234107 54.81939683718802 L 549.9569258536606 54.9053423987408 L 550.0990053962628 54.99193455654518 L 550.2391623433815 55.079164651457546 L 550.3773826794387 55.16702396054111 L 550.5136525825161 55.25550369793815 L 550.6479584257369 55.344595015748695 L 550.7802867786287 55.43428900491518 L 550.9106244084663 55.52457669611344 L 551.0389582815957 55.615449060649595 L 551.1652755647364 55.706897011362926 L 551.289563626265 55.79891140353456 L 551.4118100374794 55.891483035801954 L 551.5320025738401 55.98460265107904 L 551.6501292161938 56.07826093748187 L 551.7661781519745 56.17244852925987 L 551.8801377763854 56.26715600773234 L 551.991996693559 56.36237390223035 L 552.1017437176969 56.45809269104382 L 552.209367874188 56.55430280237361 L 552.3148584007065 56.65099461528878 L 552.4182047482875 56.74815846068861 L 552.5193965823825 56.84578462226952 L 552.6184237838924 56.943863337496715 L 552.7152764501793 57.0423847985804 L 552.8099448960577 57.14133915345658 L 552.9024196547616 57.240716506772216 L 552.9926914788924 57.34050692087479 L 553.0807513413428 57.44070041680606 L 553.1665904361998 57.54128697529992 L 553.2502001796258 57.64225653778434 L 553.3315722107158 57.74359900738722 L 553.4106983923347 57.84530424994605 L 553.4875708119301 57.94736209502132 L 553.5621817823243 58.04976233691358 L 553.6345238424824 58.15249473568397 L 553.7045897582585 58.25554901817823 L 553.7723725231195 58.35891487905398 L 553.8378653588455 58.46258198181127 L 553.9010617162073 58.566539959826216 L 553.9619552756221 58.67077841738765 L 554.0205399477845 58.77528693073668 L 554.0768098742761 58.88005504910905 L 554.1307594281514 58.985072295780256 L 554.1823832144996 59.09032816911312 L 554.2316760709853 59.19581214360803 L 554.2786330683639 59.301513670955444 L 554.3232495109747 59.4074221810907 L 554.3655209372108 59.513527083251056 L 554.4054431199646 59.619817767034704 L 554.4430120670513 59.72628360346185 L 554.4782240216073 59.832913946037564 L 554.5110754624666 59.939698131816456 L 554.5415631045125 60.046625482468926 L 554.5696838990062 60.153685305349015 L 554.5954350338916 60.26086689456366 L 554.6188139340768 60.36815953204325 L 554.6398182616911 60.47555248861345 L 554.6584459163194 60.5830350250681 L 554.6746950352116 60.69059639324311 L 554.6885639934695 60.79822583709131 L 554.7000514042088 60.905912593758 L 554.7091561186979 61.01364589465726 L 554.7158772264731 61.12141496654876 L 554.7202140554291 61.22920903261514 L 554.7221661718867 61.337017313539604 M 554.7222871619426 95.6752857281 L 554.721094702039 95.78309627301661 L 554.7175174415729 95.89089603696858 L 554.7115557382676 95.99867424006935 L 554.7032101882883 96.1064201045884 L 554.692481626183 96.21412285602908 L 554.6793711247992 96.321771724206 L 554.663879995176 96.42935594432204 L 554.6460097864134 96.53686475804484 L 554.6257622855173 96.64428741458265 L 554.6031395172212 96.75161317175929 L 554.5781437437828 96.85883129708851 L 554.5507774647588 96.96593106884711 L 554.5210434167542 97.07290177714718 L 554.4889445731491 97.17973272500701 L 554.454484143801 97.28641322942086 L 554.4176655747242 97.39293262242717 L 554.3784925477448 97.49928025217542 L 554.3369689801331 97.60544548399125 L 554.2930990242111 97.71141770143996 L 554.2468870669377 97.8171863073881 L 554.1983377294704 97.92274072506322 L 554.1474558667023 98.02807039911151 L 554.0942465667774 98.13316479665336 L 554.0387151505812 98.23801340833658 L 553.9808671712092 98.34260574938737 L 553.920708413411 98.4469313606588 L 553.8582448930124 98.55097980967666 L 553.7934828563132 98.65474069168278 L 553.7264287794632 98.7582036306754 L 553.6570893678143 98.86135828044685 L 553.5854715552496 98.96419432561812 L 553.5115825034909 99.0667014826704 L 553.4354296013819 99.16886950097337 L 553.3570204641491 99.27068816381038 L 553.276362932641 99.37214728939998 L 553.1934650725435 99.47323673191414 L 553.1083351735737 99.57394638249288 L 553.0209817486502 99.67426617025505 L 552.931413533043 99.77418606330548 L 552.839639483499 99.87369606973812 L 552.7456687773465 99.97278623863527 L 552.649510811578 100.0714466610626 L 552.5511752019099 100.1696674710601 L 552.450671781821 100.2674388466286 L 552.34801060157 100.36475101071201 L 552.2432019271889 100.46159423217506 L 552.136256239458 100.55795882677627 L 552.027184232857 100.65383515813649 L 551.9159968144958 100.74921363870249 L 551.8027051030232 100.84408473070569 L 551.6873204275163 100.93843894711594 L 551.5698543263462 101.03226685259024 L 551.4503185460253 101.12555906441622 L 551.328725040032 101.21830625345046 L 551.2050859676157 101.31049914505132 L 551.0794136925803 101.4021285200065 L 550.9517207820488 101.49318521545483 L 550.8220200052058 101.58366012580265 L 550.6903243320209 101.67354420363434 L 550.5566469319516 101.762828460617 L 550.4210011726267 101.85150396839936 L 550.2834006185088 101.93956185950451 L 550.1438590295389 102.02699332821673 L 550.0023903597596 102.11378963146201 L 549.8590087559198 102.19994208968237 L 549.7137285560607 102.28544208770374 L 549.5665642880808 102.37028107559762 L 549.4175306682847 102.45445056953588 L 549.2666425999098 102.53794215263929 L 549.1139151716375 102.6207474758191 L 548.9593636560833 102.70285825861201 L 548.8030035082697 102.78426629000816 L 548.6448503640814 102.86496342927225 L 548.4849200387011 102.9449416067576 L 548.323228525028 103.02419282471311 L 548.1597919920787 103.10270915808303 L 547.9946267833701 103.18048275529944 L 547.8277494152858 103.25750583906745 L 547.6591765754233 103.33377070714286 L 547.4889251209262 103.4092697331024 L 547.317012076798 103.48399536710642 L 547.1434546342 103.55794013665377 L 546.9682701487317 103.63109664732913 L 546.7914761386957 103.70345758354237 L 546.6130902833456 103.7750157092602 L 546.4331304211183 103.84576386872968 L 546.2516145478503 103.91569498719377 L 546.0685608149773 103.98480207159896 L 545.8839875277204 104.05307821129438 L 545.6979131432541 104.12051657872294 L 545.5103562688622 104.1871104301041 L 545.3213356600755 104.25285310610823 L 545.1308702187977 104.31773803252251 L 544.9389789914138 104.38175872090837 L 544.745681166887 104.44490876925032 L 544.5509960748385 104.50718186259614 L 544.3549431836153 104.5685717736884 L 544.1575420983431 104.62907236358716 L 543.9588125589661 104.68867758228383 L 543.7587744382723 104.7473814693062 L 543.5574477399074 104.80517815431453 L 543.3548525963733 104.86206185768845 L 543.1510092670155 104.91802689110501 L 542.9459381359973 104.97306765810755 L 542.7396597102605 105.02717865466522 L 542.5321946174762 105.08035446972343 L 542.3235636039805 105.13258978574503 L 542.113787532701 105.18387937924192 L 541.9028873810701 105.23421812129749 L 541.690884238927 105.28360097807949 L 541.4777993064093 105.33202301134341 L 541.263653891833 105.37947937892625 L 541.0484694095607 105.4259653352308 L 540.8322673778614 105.4714762317002 L 540.6150694167583 105.51600751728267 L 540.3968972458663 105.55955473888682 L 540.1777726822207 105.60211354182675 L 539.9577176380953 105.64367967025764 L 539.7367541188113 105.68424896760128 L 539.5149042205363 105.72381737696173 L 539.2921901280753 105.76238094153106 L 539.0686341126518 105.79993580498493 L 538.8442585296814 105.83647821186828 L 538.6190858165351 105.8720045079709 L 538.3931384902967 105.90651114069276 L 538.1664391455105 105.93999465939936 L 537.9390104519221 105.97245171576672 L 537.7108751522112 106.00387906411626 L 537.4820560597179 106.03427356173933 L 537.2525760561606 106.0636321692115 L 537.0224580893486 106.09195195069648 L 536.7917251708865 106.11923007423972 L 536.5604003738741 106.14546381205162 L 536.3285068305983 106.17065054078024 L 536.0960677302202 106.1947877417737 L 535.8631063164561 106.21787300133201 L 535.6296458852531 106.23990401094846 L 535.3957097824601 106.26087856754044 L 535.1613214014922 106.28079457366978 L 534.9265041809922 106.29965003775246 L 534.6912816024866 106.31744307425777 L 534.4556771880369 106.3341719038969 L 534.2197144978886 106.34983485380084 L 533.983417128114 106.36443035768762 L 533.746808708253 106.37795695601905 L 533.5099128989503 106.39041329614655 L 533.2727533895899 106.40179813244647 L 533.0353538959247 106.4121103264447 L 532.7977381577062 106.42134884693041 L 532.5599299363106 106.42951277005928 L 532.3219530123615 106.43660127944577 L 532.0838311833531 106.44261366624485 L 531.84558826127 106.44754932922287 L 531.6072480702056 106.45140777481762 L 531.3688344439806 106.45418861718778 L 531.1303712237589 106.45589157825142 L 530.8918822556637 106.45651648771386 L 530.6533913883932 106.45606328308465 L 530.4149224708353 106.4545320096839 L 530.1764993496831 106.45192282063768 L 529.9381458670501 106.44823597686269 L 529.6998858580857 106.44347184704026 L 529.4617431485925 106.43763090757939 L 529.2237415526429 106.43071374256917 L 528.985904870198 106.42272104372033 L 528.7482568847281 106.41365361029608 L 528.5108213608336 106.40351234903224 L 528.2736220418689 106.39229827404645 L 528.0366826475685 106.38001250673689 L 527.8000268716742 106.36665627567004 L 527.5636783795663 106.35223091645787 L 527.3276608058973 106.33673787162431 L 527.0919977522277 106.32017869046089 L 526.8567127846666 106.30255502887195 L 526.6218294315146 106.28386864920897 L 526.3873711809113 106.26412142009434 L 526.1533614784864 106.2433153162345 L 525.919823725015 106.22145241822251 L 525.6867812740782 106.19853491232995 L 525.4542574297265 106.17456509028831 L 525.2222754441506 106.14954534905984 L 524.990858515356 106.12347819059778 L 524.7600297848425 106.09636622159626 L 524.5298123352909 106.06821215322961 L 524.3002291882543 106.03901880088118 L 524.071303301856 106.0087890838619 L 523.843057568494 105.97752602511825 L 523.6155148125514 105.94523275093007 L 523.3886977881141 105.91191249059789 L 523.1626291766956 105.87756857611994 L 522.9373315849687 105.84220444185907 L 522.7128275425046 105.8058236241992 L 522.4891394995207 105.76842976119184 L 522.2662898246348 105.73002659219209 L 522.0443008026286 105.69061795748485 L 521.8231946322196 105.65020779790075 L 521.6029934238402 105.60880015442207 L 521.383719197428 105.56639916777867 L 521.1653938802228 105.52300907803387 L 520.9480393045744 105.47863422416049 L 520.7316772057594 105.43327904360692 L 520.5163292198071 105.38694807185344 L 520.3020168813368 105.33964594195861 L 520.0887616214037 105.291377384096 L 519.8765847653563 105.24214722508117 L 519.6655075307029 105.19196038788901 L 519.4555510249916 105.1408218911614 L 519.2467362436977 105.08873684870541 L 519.0390840681254 105.03571046898188 L 518.8326152633192 104.98174805458457 L 518.6273504759876 104.92685500170998 L 518.4233102324381 104.87103679961766 L 518.2205149365251 104.81429903008126 L 518.0189848676093 104.75664736683049 L 517.8187401785297 104.69808757498365 L 517.619800893588 104.63862551047107 L 517.4221869065473 104.57826711944969 L 517.2259179786414 104.51701843770829 L 517.0310137365996 104.45488559006402 L 516.8374936706837 104.39187478974986 L 516.6453771327389 104.32799233779335 L 516.4546833342591 104.26324462238642 L 516.2654313444651 104.19763811824667 L 516.0776400883982 104.13117938596986 L 515.8913283450275 104.0638750713738 L 515.7065147453721 103.99573190483389 L 515.5232177706381 103.92675670060999 L 515.34145575037 103.85695635616503 L 515.1612468606183 103.7863378514753 L 514.9826091221221 103.71490824833242 L 514.8055603985061 103.64267468963719 L 514.6301183944953 103.56964439868527 L 514.4563006541439 103.4958246784449 L 514.284124559081 103.4212229108266 L 514.1136073267726 103.34584655594495 L 513.9447660088 103.26970315137261 L 513.7776174891541 103.19280031138662 L 513.6121784825477 103.11514572620688 L 513.4484655327435 103.03674716122718 L 513.2864950109002 102.9576124562387 L 513.126283113935 102.87774952464599 L 512.9678458629038 102.79716635267567 L 512.8111991014 102.71587099857777 L 512.6563584939692 102.63387159181995 L 512.5033395245428 102.55117633227457 L 512.3521574948905 102.46779348939864 L 512.2028275230892 102.383731401407 L 512.0553645420117 102.29899847443839 L 511.9097832978332 102.21360318171489 L 511.76609834855674 102.12755406269459 L 511.62432406255755 102.04085972221772 L 511.4844746171461 101.95352882964605 L 511.3465639971503 101.86557011799609 L 511.2106059935174 101.77699238306569 L 511.07661420193426 101.68780448255453 L 510.94460202146854 101.59801533517833 L 510.8145826532282 101.50763391977702 L 510.6865690990417 101.41666927441683 L 510.56057416015784 101.32513049548646 L 510.43661043596546 101.23302673678755 L 510.3146903227337 101.14036720861921 L 510.19482601237235 101.04716117685703 L 510.07702949121244 100.95341796202653 L 509.961312538808 100.85914693837105 L 509.8476867267578 100.76435753291443 L 509.73616341754837 100.66905922451821 L 509.6267537634177 100.5732615429338 L 509.51946870524 100.47697406784954 L 509.4143189714318 100.3802064279327 L 509.3113150768787 100.28296829986664 L 509.2104673218844 100.18526940738312 L 509.11178579114033 100.08711952028997 L 509.01528035271735 99.98852845349413 L 508.9209606570789 99.8895060660201 L 508.8288361361159 99.79006226002413 L 508.7389160022037 99.69020697980392 L 508.6512092472808 99.5899502108043 L 508.56572464194954 99.48930197861863 L 508.4824707345992 99.38827234798623 L 508.4014558505512 99.28687142178599 L 508.3226880912264 99.18510934002603 L 508.2461753333351 99.08299627882971 L 508.1719252280893 98.98054244941808 L 508.09994520043773 98.87775809708869 L 508.0302424483231 98.7746535001911 L 507.9628239419626 98.67123896909912 L 507.8976964231506 98.56752484517966 L 507.8348664045847 98.46352149975867 L 507.7743401692145 98.35923933308405 L 507.71612376961303 98.25468877328554 L 507.6602230273717 98.14988027533201 L 507.6066435325183 98.04482431998592 L 507.55539064295755 97.93953141275524 L 507.5064694839357 97.83401208284296 L 507.4598849475278 97.72827688209414 L 507.4156416921489 97.62233638394075 L 507.3737441420875 97.5162011823443 L 507.3341964870637 97.40988189073651 L 507.2970026818101 97.30338914095798 L 507.2621664456762 97.19673358219488 L 507.2296912622566 97.08992587991426 L 507.1995803790426 96.9829767147973 L 507.1718368070973 96.87589678167143 L 507.14646332075495 96.7686967884407 L 507.12346245734295 96.66138745501512 L 507.10283651692845 96.55397951223858 L 507.08458756208836 96.44648370081588 L 507.06871741770294 96.33891077023856 L 507.05522767077343 96.23127147771005 L 507.0441196702632 96.1235765870699 L 507.0353945269631 96.01583686771744 L 507.0290531133802 95.90806309353479 L 507.0250960636506 95.80026604180959 L 507.02352377347586 95.69245649215716" stroke-miterlimit="10" stroke-width="2.7769845610000004" stroke-dasharray=""/></g><g><g/><text fill="black" stroke="none" font-family="sans-serif" font-size="11pt" font-style="normal" font-weight="normal" text-decoration="normal" x="461.19502626923565" y="123.98419304699999" text-anchor="start" dominant-baseline="alphabetic" xml:space="preserve">SM Exchange Queue</text></g><path fill="none" stroke="none"/><g><path fill="white" stroke="black" paint-order="fill stroke markers" d=" M 616.8859577186497 84.779705127 L 877.2222954128529 84.779705127 L 877.2222954128529 128.884754037 L 616.8859577186497 128.884754037 L 616.8859577186497 84.779705127 Z" stroke-miterlimit="10" stroke-width="2.613632528" stroke-dasharray=""/></g><g><g/><text fill="black" stroke="none" font-family="sans-serif" font-size="11pt" font-style="normal" font-weight="normal" text-decoration="normal" x="634.6096532991497" y="112.549550737" text-anchor="start" dominant-baseline="alphabetic" xml:space="preserve">SM Exchange Message Processor</text></g><path fill="none" stroke="none"/><g><path fill="white" stroke="black" paint-order="fill stroke markers" d=" M 893.5574987128529 84.779705127 L 1168.8044046443606 84.779705127 L 1168.8044046443606 128.884754037 L 893.5574987128529 128.884754037 L 893.5574987128529 84.779705127 Z" stroke-miterlimit="10" stroke-width="2.613632528" stroke-dasharray=""/></g><g><g/><text fill="black" stroke="none" font-family="sans-serif" font-size="11pt" font-style="normal" font-weight="normal" text-decoration="normal" x="911.2811942933529" y="112.549550737" text-anchor="start" dominant-baseline="alphabetic" xml:space="preserve">SM Exchange OH to MHV Translator</text></g><path fill="none" stroke="none"/><g><path fill="white" stroke="black" paint-order="fill stroke markers" d=" M 1185.1396079443607 84.779705127 L 1315.8840724696186 84.779705127 L 1315.8840724696186 128.884754037 L 1185.1396079443607 128.884754037 L 1185.1396079443607 84.779705127 Z" stroke-miterlimit="10" stroke-width="2.613632528" stroke-dasharray=""/></g><g><g/><text fill="black" stroke="none" font-family="sans-serif" font-size="11pt" font-style="normal" font-weight="normal" text-decoration="normal" x="1202.8633035248606" y="112.549550737" text-anchor="start" dominant-baseline="alphabetic" xml:space="preserve">OH FHIR APIs</text></g><path fill="none" stroke="none"/><g><path fill="white" stroke="black" paint-order="fill stroke markers" d=" M 1428.8499942753958 84.779705127 L 1609.2937843621771 84.779705127 L 1609.2937843621771 128.884754037 L 1428.8499942753958 128.884754037 L 1428.8499942753958 84.779705127 Z" stroke-miterlimit="10" stroke-width="2.613632528" stroke-dasharray=""/></g><g><g/><text fill="black" stroke="none" font-family="sans-serif" font-size="11pt" font-style="normal" font-weight="normal" text-decoration="normal" x="1446.5736898558957" y="112.549550737" text-anchor="start" dominant-baseline="alphabetic" xml:space="preserve">MHV SM RESTful API</text></g></g><g><g><g><rect fill="white" stroke="none" x="97.49403102726428" y="161.555160637" width="194.20619453492188" height="21.23576429"/></g><text fill="black" stroke="none" font-family="sans-serif" font-size="11pt" font-style="normal" font-weight="normal" text-decoration="normal" x="99.94431152226429" y="176.25684360699998" text-anchor="start" dominant-baseline="alphabetic" xml:space="preserve">Pushes new ATOM feed item</text></g><g><path fill="none" stroke="black" paint-order="fill stroke markers" d=" M 78.16404045559766 182.790924927 L 297.5808987501862 182.790924927" stroke-miterlimit="10" stroke-width="1.3612669416666667" stroke-dasharray=""/><g transform="translate(311.03021613385283,182.790924927) translate(-311.03021613385283,-182.790924927)"><path fill="black" stroke="none" paint-order="stroke fill markers" d=" M 297.41754671718616 175.98459021866665 L 311.03021613385283 182.790924927 L 297.41754671718616 189.59725963533333 Z"/></g></g><path fill="white" stroke="black" paint-order="fill stroke markers" d=" M 159.41366283709502 207.29372987699998 L 462.6467694306107 207.29372987699998 L 462.6467694306107 244.86469746699998 L 159.41366283709502 244.86469746699998 L 159.41366283709502 207.29372987699998" stroke-miterlimit="10" stroke-width="1.3612669416666667" stroke-dasharray=""/><g><text fill="black" stroke="none" font-family="sans-serif" font-size="11pt" font-style="italic" font-weight="normal" text-decoration="normal" x="182.28294745709502" y="230.16301449699995" text-anchor="start" dominant-baseline="alphabetic" xml:space="preserve">might</text><text fill="black" stroke="none" font-family="sans-serif" font-size="11pt" font-style="normal" font-weight="normal" text-decoration="normal" x="218.1311835410794" y="230.16301449699995" text-anchor="start" dominant-baseline="alphabetic" xml:space="preserve"> do some light data transformation</text></g><g><g><rect fill="white" stroke="none" x="360.2300019919446" y="269.36750241699997" width="121.44310249390625" height="21.23576429"/></g><text fill="black" stroke="none" font-family="sans-serif" font-size="11pt" font-style="normal" font-weight="normal" text-decoration="normal" x="362.68028248694463" y="284.06918538699995" text-anchor="start" dominant-baseline="alphabetic" xml:space="preserve">Inserts into queue</text></g><g><path fill="none" stroke="black" paint-order="fill stroke markers" d=" M 311.03021613385283 290.603266707 L 517.423572960276 290.603266707" stroke-miterlimit="10" stroke-width="1.3612669416666667" stroke-dasharray=""/><g transform="translate(530.8728903439427,290.603266707) translate(-530.8728903439427,-290.603266707)"><path fill="black" stroke="none" paint-order="stroke fill markers" d=" M 517.260220927276 283.79693199866665 L 530.8728903439427 290.603266707 L 517.260220927276 297.4096014153333 Z"/></g></g><g><g><rect fill="white" stroke="none" x="555.4359498226399" y="315.106071657" width="167.05511726441406" height="21.23576429"/></g><text fill="black" stroke="none" font-family="sans-serif" font-size="11pt" font-style="normal" font-weight="normal" text-decoration="normal" x="557.88623031764" y="329.80775462699995" text-anchor="start" dominant-baseline="alphabetic" xml:space="preserve">Listens for new message</text></g><g><path fill="none" stroke="black" paint-order="fill stroke markers" d=" M 747.0541265657513 336.341835947 L 544.3222077276093 336.341835947" stroke-miterlimit="10" stroke-width="1.3612669416666667" stroke-dasharray=""/><g transform="translate(530.8728903439427,336.341835947) translate(-530.8728903439427,-336.341835947)"><path fill="black" stroke="none" paint-order="stroke fill markers" d=" M 544.4855597606094 329.53550123866665 L 530.8728903439427 336.341835947 L 544.4855597606094 343.14817065533333 Z"/></g></g><path fill="white" stroke="black" paint-order="fill stroke markers" d=" M 584.8362854271967 360.844640897 L 909.271967704306 360.844640897 L 909.271967704306 398.415608487 L 584.8362854271967 398.415608487 L 584.8362854271967 360.844640897" stroke-miterlimit="10" stroke-width="1.3612669416666667" stroke-dasharray=""/><g><text fill="black" stroke="none" font-family="sans-serif" font-size="11pt" font-style="normal" font-weight="normal" text-decoration="normal" x="607.7055700471966" y="383.71392551699995" text-anchor="start" dominant-baseline="alphabetic" xml:space="preserve">Determines the destination of the message</text></g><g><g><rect fill="white" stroke="none" x="835.3286966154603" y="422.91841343699997" width="107.5776850134375" height="21.23576429"/></g><text fill="black" stroke="none" font-family="sans-serif" font-size="11pt" font-style="normal" font-weight="normal" text-decoration="normal" x="837.7789771104603" y="437.62009640699995" text-anchor="start" dominant-baseline="alphabetic" xml:space="preserve">sends message</text></g><g><path fill="none" stroke="black" paint-order="fill stroke markers" d=" M 747.0541265657513 444.154177727 L 1017.7316342949401 444.154177727" stroke-miterlimit="10" stroke-width="1.3612669416666667" stroke-dasharray=""/><g transform="translate(1031.1809516786068,444.154177727) translate(-1031.1809516786068,-444.154177727)"><path fill="black" stroke="none" paint-order="stroke fill markers" d=" M 1017.5682822619401 437.34784301866665 L 1031.1809516786068 444.154177727 L 1017.5682822619401 450.9605124353333 Z"/></g></g><path fill="white" stroke="black" paint-order="fill stroke markers" d=" M 912.1484895683725 468.656982677 L 1150.2134137888413 468.656982677 L 1150.2134137888413 506.227950267 L 912.1484895683725 506.227950267 L 912.1484895683725 468.656982677" stroke-miterlimit="10" stroke-width="1.3612669416666667" stroke-dasharray=""/><g><text fill="black" stroke="none" font-family="sans-serif" font-size="11pt" font-style="normal" font-weight="normal" text-decoration="normal" x="935.0177741883724" y="491.52626729699995" text-anchor="start" dominant-baseline="alphabetic" xml:space="preserve">gathers data needed for MHV</text></g><g><g><rect fill="white" stroke="none" x="1058.9544879453567" y="530.7307552169999" width="163.78381599488281" height="21.23576429"/></g><text fill="black" stroke="none" font-family="sans-serif" font-size="11pt" font-style="normal" font-weight="normal" text-decoration="normal" x="1061.4047684403567" y="545.4324381869999" text-anchor="start" dominant-baseline="alphabetic" xml:space="preserve">Queries for missing data</text></g><g><path fill="none" stroke="black" paint-order="fill stroke markers" d=" M 1031.1809516786068 551.9665195069999 L 1237.0625228233228 551.9665195069999" stroke-miterlimit="10" stroke-width="1.3612669416666667" stroke-dasharray=""/><g transform="translate(1250.5118402069895,551.9665195069999) translate(-1250.5118402069895,-551.9665195069999)"><path fill="black" stroke="none" paint-order="stroke fill markers" d=" M 1236.8991707903228 545.1601847986666 L 1250.5118402069895 551.9665195069999 L 1236.8991707903228 558.7728542153333 Z"/></g></g><path fill="white" stroke="black" paint-order="fill stroke markers" d=" M 940.6703172661264 576.4693244569999 L 1121.6915860910874 576.4693244569999 L 1121.6915860910874 614.0402920469999 L 940.6703172661264 614.0402920469999 L 940.6703172661264 576.4693244569999" stroke-miterlimit="10" stroke-width="1.3612669416666667" stroke-dasharray=""/><g><text fill="black" stroke="none" font-family="sans-serif" font-size="11pt" font-style="normal" font-weight="normal" text-decoration="normal" x="963.5396018861263" y="599.3386090769999" text-anchor="start" dominant-baseline="alphabetic" xml:space="preserve">handles attachments</text></g><g><g><rect fill="white" stroke="none" x="1218.0877458386574" y="638.5430969969998" width="114.07734932007813" height="21.23576429"/></g><text fill="black" stroke="none" font-family="sans-serif" font-size="11pt" font-style="normal" font-weight="normal" text-decoration="normal" x="1220.5380263336574" y="653.2447799669998" text-anchor="start" dominant-baseline="alphabetic" xml:space="preserve">POSTs message</text></g><g><path fill="none" stroke="black" paint-order="fill stroke markers" d=" M 1031.1809516786068 659.7788612869998 L 1505.6225719351196 659.7788612869998" stroke-miterlimit="10" stroke-width="1.3612669416666667" stroke-dasharray=""/><g transform="translate(1519.0718893187864,659.7788612869998) translate(-1519.0718893187864,-659.7788612869998)"><path fill="black" stroke="none" paint-order="stroke fill markers" d=" M 1505.4592199021197 652.9725265786665 L 1519.0718893187864 659.7788612869998 L 1505.4592199021197 666.5851959953332 Z"/></g></g><path fill="white" stroke="black" paint-order="fill stroke markers" d=" M 1258.6794418569896 684.2816662369999 L 1779.4643367805834 684.2816662369999 L 1779.4643367805834 721.8526338269999 L 1258.6794418569896 721.8526338269999 L 1258.6794418569896 684.2816662369999" stroke-miterlimit="10" stroke-width="1.3612669416666667" stroke-dasharray=""/><g><text fill="black" stroke="none" font-family="sans-serif" font-size="11pt" font-style="normal" font-weight="normal" text-decoration="normal" x="1281.5487264769895" y="707.1509508569999" text-anchor="start" dominant-baseline="alphabetic" xml:space="preserve">inserts the message into MHV data layer (shadow tables, real tables, etc)</text></g></g><g/><g/><g/><g/><g/><g/><g/></g></svg>