<?xml version="1.0" encoding="utf-8"?>
<!-- Generator: Adobe Illustrator 23.0.4, SVG Export Plug-In . SVG Version: 6.00 Build 0)  -->
<svg version="1.1" xmlns="http://www.w3.org/2000/svg" xmlns:xlink="http://www.w3.org/1999/xlink" x="0px" y="0px"
	 viewBox="0 0 147.66 70" style="enable-background:new 0 0 147.66 70;" xml:space="preserve">
<style type="text/css">
	.st0{display:none;}
	.st1{display:inline;}
	.st2{fill:#00ADCF;}
	.st3{fill:#C4272E;}
	.st4{clip-path:url(#SVGID_2_);}
	.st5{fill:#184171;}
	.st6{fill:#FFFFFF;stroke:#FFFFFF;stroke-width:0.75;stroke-miterlimit:10;}
	.st7{fill:#FFFFFF;}
	.st8{clip-path:url(#SVGID_4_);}
	.st9{fill:#FFFFFF;stroke:#FFFFFF;stroke-width:0.1197;stroke-miterlimit:10;}
	.st10{clip-path:url(#SVGID_6_);}
	.st11{fill:#FFFFFF;stroke:#FFFFFF;stroke-width:0.1397;stroke-miterlimit:10;}
</style>
<g id="Layer_4">
</g>
<g id="Layer_2" class="st0">
</g>
<g id="Layer_1">
</g>
<g id="Layer_3">
	<g>
		<defs>
			<rect id="SVGID_5_" width="147.66" height="70"/>
		</defs>
		<clipPath id="SVGID_2_">
			<use xlink:href="#SVGID_5_"  style="overflow:visible;"/>
		</clipPath>
		<g class="st4">
			<g>
				<g>
					<g>
						<path class="st3" d="M31.2,35.95l-6.39-22.5l4.93,1.93l2.41,9.41c0.7,2.65,1.3,5.15,1.8,7.84l0.06,0.02
							c0.5-2.2,1.15-4.33,1.83-6.35l2.53-7.55l4.79,1.88l-6.7,17.37L31.2,35.95z"/>
						<path class="st3" d="M57.26,37.63l-7.28-2.85v4.76l8.19,3.2v3.71l-12.74-4.99V21.48l12.28,4.81v3.69l-7.73-3.03v4.18
							l7.28,2.85V37.63z"/>
						<path class="st3" d="M64.99,33.03l-5.46-2.14v-3.81L75,33.14v3.77l-5.46-2.14v16.21l-4.55-1.78V33.03z"/>
					</g>
				</g>
				<g>
					<path class="st5" d="M80.46,34.61L75,36.88v-3.77l15.47-6.42v3.84l-5.46,2.27v16.17l-4.55,1.89V34.61z"/>
					<path class="st5" d="M104.12,32.43l-7.28,3.02v4.76l8.19-3.4v3.69l-12.74,5.29v-20l12.28-5.1v3.72l-7.73,3.21v4.16l7.28-3.02
						V32.43z"/>
					<path class="st5" d="M122.7,32.7c-0.8,0.73-2.67,1.97-5.05,2.96c-6.84,2.84-10.36-0.02-10.36-5.72
						c0-6.82,4.82-12.6,10.78-15.07c2.32-0.96,4.08-1.24,4.86-1.13l-0.91,3.95c-0.89-0.02-2.16,0.14-3.75,0.81
						c-3.52,1.46-6.28,4.78-6.28,9.23c0,4.01,2.33,5.56,6.31,3.91c1.37-0.57,2.85-1.45,3.73-2.2L122.7,32.7z"/>
				</g>
				<polygon class="st3" points="75.08,18.02 90.23,23.78 75.08,29.97 59.59,23.78 				"/>
				<polygon class="st5" points="90.03,57.37 74.89,64.71 59.53,57.37 59.53,49.37 74.89,55.62 90.01,49.36 				"/>
				<g>
					<polygon class="st3" points="124.59,12.66 140.97,5.19 140.97,10.43 124.59,17.93 					"/>
					<polygon class="st5" points="124.59,20.22 137.78,13.95 137.78,19.21 124.59,25.52 					"/>
					<polygon class="st3" points="124.59,27.37 134.6,22.69 134.6,28 124.59,32.71 					"/>
				</g>
				<g>
					<polygon class="st3" points="23.59,13.07 7.22,5.61 7.22,10.85 23.59,18.34 					"/>
					<polygon class="st5" points="23.59,20.64 10.4,14.36 10.4,19.63 23.59,25.93 					"/>
					<polygon class="st3" points="23.59,27.78 13.59,23.1 13.59,28.41 23.59,33.13 					"/>
				</g>
			</g>
			<path class="st7" d="M71.5,23.07c0.63,0.24,0.94,0.95,0.7,1.58c-0.24,0.63-0.95,0.94-1.58,0.7c-0.63-0.24-0.94-0.95-0.7-1.58
				C70.16,23.14,70.87,22.83,71.5,23.07z M70.9,24.61c0.22,0.09,0.47-0.02,0.56-0.25c0.09-0.22-0.03-0.47-0.25-0.56
				c-0.22-0.09-0.47,0.02-0.56,0.25C70.57,24.27,70.68,24.53,70.9,24.61z"/>
			<path class="st7" d="M75.53,18.55c0.63,0.24,0.94,0.95,0.7,1.58c-0.24,0.63-0.95,0.94-1.58,0.7c-0.63-0.24-0.94-0.95-0.7-1.58
				C74.19,18.62,74.9,18.31,75.53,18.55z M74.94,20.09c0.22,0.09,0.47-0.02,0.56-0.25c0.09-0.22-0.03-0.47-0.25-0.56
				c-0.22-0.09-0.47,0.02-0.56,0.25C74.6,19.75,74.71,20.01,74.94,20.09z"/>
			<path class="st7" d="M66.34,23.5c0.63,0.24,0.94,0.95,0.7,1.58c-0.24,0.63-0.95,0.94-1.58,0.7c-0.63-0.24-0.94-0.95-0.7-1.58
				C65,23.57,65.71,23.26,66.34,23.5z M65.74,25.04c0.22,0.09,0.47-0.02,0.56-0.25c0.09-0.22-0.03-0.47-0.25-0.56
				c-0.22-0.09-0.47,0.02-0.56,0.25C65.41,24.71,65.52,24.96,65.74,25.04z"/>
			<polygon class="st7" points="77.54,25.62 81.74,27.25 80.67,27.68 77.53,26.47 72.94,28.18 66.66,25.61 66.95,24.87 72.94,27.34 
							"/>
			<polygon class="st7" points="77.5,22.92 85.11,25.87 84.05,26.3 77.51,23.77 73.11,25.58 71.89,25.11 72.18,24.37 73.1,24.73 			
				"/>
			<polyline class="st7" points="68.37,20.51 73.46,22.48 77.75,20.54 88.23,24.6 87.16,25.03 77.77,21.4 73.48,23.34 67.24,20.92 
							"/>
			<polyline class="st7" points="76.02,19.86 78.28,20.75 77.73,21.38 75.37,20.46 			"/>
		</g>
	</g>
</g>
</svg>
