<?xml version="1.0" encoding="utf-8"?>
<!-- Generator: Adobe Illustrator 23.0.4, SVG Export Plug-In . SVG Version: 6.00 Build 0)  -->
<svg version="1.1" xmlns="http://www.w3.org/2000/svg" xmlns:xlink="http://www.w3.org/1999/xlink" x="0px" y="0px"
	 viewBox="0 0 179.3 85" style="enable-background:new 0 0 179.3 85;" xml:space="preserve">
<style type="text/css">
	.st0{display:none;}
	.st1{display:inline;}
	.st2{fill:#00ADCF;}
	.st3{fill:#C4272E;}
	.st4{clip-path:url(#SVGID_2_);}
	.st5{fill:#184171;}
	.st6{fill:#FFFFFF;stroke:#FFFFFF;stroke-width:0.75;stroke-miterlimit:10;}
	.st7{fill:#FFFFFF;}
	.st8{clip-path:url(#SVGID_4_);}
	.st9{fill:#FFFFFF;stroke:#FFFFFF;stroke-width:0.1197;stroke-miterlimit:10;}
	.st10{clip-path:url(#SVGID_6_);}
	.st11{fill:#FFFFFF;stroke:#FFFFFF;stroke-width:0.1397;stroke-miterlimit:10;}
	.st12{clip-path:url(#SVGID_8_);}
	.st13{fill:#FFFFFF;stroke:#FFFFFF;stroke-width:0.1696;stroke-miterlimit:10;}
</style>
<g id="Layer_4">
</g>
<g id="Layer_2" class="st0">
</g>
<g id="Layer_1">
</g>
<g id="Layer_3">
	<g>
		<defs>
			<rect id="SVGID_7_" width="179.3" height="85"/>
		</defs>
		<clipPath id="SVGID_2_">
			<use xlink:href="#SVGID_7_"  style="overflow:visible;"/>
		</clipPath>
		<g class="st4">
			<g>
				<g>
					<g>
						<path class="st3" d="M37.88,43.66l-7.76-27.32l5.99,2.35l2.93,11.43c0.85,3.22,1.58,6.25,2.18,9.52l0.08,0.03
							c0.61-2.68,1.39-5.25,2.22-7.71l3.07-9.16l5.82,2.28l-8.14,21.1L37.88,43.66z"/>
						<path class="st3" d="M69.53,45.69l-8.84-3.46v5.78l9.94,3.89v4.51l-15.47-6.05V26.08l14.92,5.84v4.49l-9.39-3.68v5.08
							l8.84,3.46V45.69z"/>
						<path class="st3" d="M78.92,40.11l-6.63-2.59V32.9l18.78,7.35v4.58l-6.63-2.59v19.69l-5.52-2.16V40.11z"/>
					</g>
				</g>
				<g>
					<path class="st5" d="M97.7,42.03l-6.63,2.75v-4.57l18.78-7.8v4.66l-6.63,2.75v19.64l-5.52,2.29V42.03z"/>
					<path class="st5" d="M126.43,39.38l-8.84,3.67v5.78l9.94-4.13v4.48l-15.47,6.42V31.32l14.92-6.19v4.52l-9.39,3.9v5.05
						l8.84-3.67V39.38z"/>
					<path class="st5" d="M149,39.71c-0.97,0.89-3.24,2.39-6.13,3.59c-8.3,3.45-12.58-0.03-12.58-6.95c0-8.28,5.86-15.3,13.09-18.3
						c2.82-1.17,4.96-1.5,5.9-1.37l-1.1,4.8c-1.08-0.03-2.62,0.18-4.55,0.98c-4.28,1.78-7.63,5.81-7.63,11.21
						c0,4.87,2.83,6.75,7.66,4.75c1.66-0.69,3.46-1.77,4.53-2.67L149,39.71z"/>
				</g>
				<polygon class="st3" points="91.17,21.88 109.56,28.87 91.17,36.39 72.36,28.87 				"/>
				<polygon class="st5" points="109.32,69.67 90.93,78.58 72.29,69.67 72.29,59.95 90.93,67.54 109.3,59.93 				"/>
				<g>
					<polygon class="st3" points="151.29,15.37 171.17,6.31 171.17,12.67 151.29,21.77 					"/>
					<polygon class="st5" points="151.29,24.56 167.31,16.94 167.31,23.33 151.29,30.99 					"/>
					<polygon class="st3" points="151.29,33.24 163.44,27.55 163.44,34 151.29,39.73 					"/>
				</g>
				<g>
					<polygon class="st3" points="28.65,15.87 8.76,6.81 8.76,13.17 28.65,22.27 					"/>
					<polygon class="st5" points="28.65,25.06 12.63,17.44 12.63,23.83 28.65,31.49 					"/>
					<polygon class="st3" points="28.65,33.74 16.5,28.05 16.5,34.5 28.65,40.23 					"/>
				</g>
			</g>
			<path class="st7" d="M86.82,28.02c0.76,0.3,1.14,1.16,0.85,1.92c-0.29,0.76-1.16,1.14-1.92,0.85c-0.76-0.3-1.14-1.16-0.85-1.92
				C85.2,28.1,86.06,27.72,86.82,28.02z M86.1,29.89c0.27,0.1,0.57-0.03,0.68-0.3c0.1-0.27-0.03-0.57-0.3-0.68s-0.58,0.03-0.68,0.3
				C85.69,29.48,85.83,29.78,86.1,29.89z"/>
			<path class="st7" d="M91.72,22.53c0.76,0.3,1.14,1.16,0.85,1.92c-0.29,0.76-1.16,1.14-1.92,0.85c-0.76-0.3-1.14-1.16-0.85-1.92
				C90.09,22.61,90.95,22.23,91.72,22.53z M90.99,24.4c0.27,0.1,0.57-0.03,0.68-0.3c0.1-0.27-0.03-0.57-0.3-0.68
				s-0.58,0.03-0.68,0.3C90.59,23.99,90.72,24.29,90.99,24.4z"/>
			<path class="st7" d="M80.55,28.54c0.76,0.3,1.14,1.16,0.85,1.92c-0.29,0.76-1.16,1.14-1.92,0.85c-0.76-0.3-1.14-1.16-0.85-1.92
				C78.93,28.62,79.79,28.24,80.55,28.54z M79.83,30.41c0.27,0.1,0.57-0.03,0.68-0.3c0.1-0.27-0.03-0.57-0.3-0.68
				c-0.27-0.1-0.58,0.03-0.68,0.3C79.42,30,79.56,30.31,79.83,30.41z"/>
			<polygon class="st7" points="94.15,31.11 99.25,33.09 97.96,33.61 94.15,32.14 88.57,34.22 80.95,31.1 81.29,30.2 88.57,33.2 			
				"/>
			<polygon class="st7" points="94.1,27.84 103.34,31.41 102.05,31.94 94.11,28.87 88.77,31.06 87.3,30.49 87.64,29.6 88.76,30.03 
							"/>
			<polyline class="st7" points="83.02,24.91 89.2,27.3 94.41,24.94 107.13,29.87 105.84,30.39 94.44,25.98 89.23,28.34 81.65,25.4 
							"/>
			<polyline class="st7" points="92.31,24.12 95.05,25.19 94.39,25.96 91.52,24.84 			"/>
		</g>
	</g>
</g>
</svg>
