<?xml version="1.0" encoding="UTF-8"?>
<svg width="32px" height="32px" viewBox="0 0 32 32" version="1.1" xmlns="http://www.w3.org/2000/svg" xmlns:xlink="http://www.w3.org/1999/xlink">
    <!-- Generator: Sketch 50.2 (55047) - http://www.bohemiancoding.com/sketch -->
    <title>careers-employment</title>
    <desc>Created with Sketch.</desc>
    <defs></defs>
    <g id="Mockups" stroke="none" stroke-width="1" fill="none" fill-rule="evenodd">
        <g id="Icons" transform="translate(-170.000000, -534.000000)">
            <g id="careers-employment" transform="translate(170.000000, 534.000000)">
                <circle id="Circle" fill="#EB7F29" cx="16" cy="16" r="16"></circle>
                <path d="M13.7142925,10.5714149 L18.2857265,10.5714149 L18.2857265,9.42855644 L13.7142925,9.42855644 L13.7142925,10.5714149 Z M24.0000191,16.2857075 L24.0000191,20.5714269 C24.0000191,21.3571421 23.3571612,22 22.5714459,22 L9.42857313,22 C8.64285791,22 8,21.3571421 8,20.5714269 L8,16.2857075 L14.0000072,16.2857075 L14.0000072,17.7142806 C14.0000072,18.026781 14.258936,18.2857099 14.5714364,18.2857099 L17.4285827,18.2857099 C17.741083,18.2857099 18.0000119,18.026781 18.0000119,17.7142806 L18.0000119,16.2857075 L24.0000191,16.2857075 Z M17.142868,16.2857075 L17.142868,17.428566 L14.857151,17.428566 L14.857151,16.2857075 L17.142868,16.2857075 Z M24.0000191,11.9999881 L24.0000191,15.4285636 L8,15.4285636 L8,11.9999881 C8,11.2142729 8.64285791,10.5714149 9.42857313,10.5714149 L12.571434,10.5714149 L12.571434,9.14284182 C12.571434,8.66962697 12.9553631,8.28569794 13.4285779,8.28569794 L18.5714412,8.28569794 C19.044656,8.28569794 19.4285851,8.66962697 19.4285851,9.14284182 L19.4285851,10.5714149 L22.5714459,10.5714149 C23.3571612,10.5714149 24.0000191,11.2142729 24.0000191,11.9999881 Z" id="fa-briefcase" fill="#FFFFFF"></path>
            </g>
        </g>
    </g>
</svg>