<?xml version="1.0" encoding="UTF-8"?>
<svg width="32px" height="32px" viewBox="0 0 32 32" version="1.1" xmlns="http://www.w3.org/2000/svg" xmlns:xlink="http://www.w3.org/1999/xlink">
    <!-- Generator: Sketch 50.2 (55047) - http://www.bohemiancoding.com/sketch -->
    <title>education-training</title>
    <desc>Created with Sketch.</desc>
    <defs></defs>
    <g id="Mockups" stroke="none" stroke-width="1" fill="none" fill-rule="evenodd">
        <g id="Icons" transform="translate(-810.000000, -462.000000)">
            <g id="education-training" transform="translate(810.000000, 462.000000)">
                <circle id="Circle" fill="#E6A100" cx="16" cy="16" r="16"></circle>
                <path d="M23.2053746,12.5535602 C23.4285891,12.8749891 23.4910892,13.2946325 23.3660891,13.7053473 L20.910729,21.7946426 C20.6875144,22.5535721 19.9017992,23.1428585 19.1339412,23.1428585 L10.8928599,23.1428585 C9.98214454,23.1428585 9.00892909,22.4196434 8.67857156,21.4910708 C8.53571424,21.0892846 8.53571424,20.696427 8.66071439,20.3571409 C8.67857156,20.1785693 8.71428588,19.9999976 8.72321447,19.7857116 C8.73214305,19.6428543 8.65178581,19.5267828 8.66964297,19.4196398 C8.7053573,19.2053538 8.89285753,19.0535679 9.03571484,18.8124962 C9.3035723,18.3660671 9.60714409,17.6428519 9.70535849,17.1785657 C9.7500014,17.0089226 9.66071558,16.8124938 9.70535849,16.6607079 C9.7500014,16.4910649 9.91964446,16.3660647 10.0089303,16.2053502 C10.250002,15.7946355 10.5625024,14.9999917 10.6071453,14.5803483 C10.6250024,14.3928481 10.5357166,14.1874907 10.5892881,14.0446334 C10.6517882,13.839276 10.848217,13.7499902 10.9821457,13.5714185 C11.1964317,13.2767753 11.553575,12.42856 11.6071465,11.9553452 C11.6250036,11.8035593 11.5357178,11.6517734 11.5625036,11.4910589 C11.5982179,11.3214158 11.8125039,11.1428442 11.9553612,10.9374868 C12.3303616,10.3839147 12.4017903,9.16069898 13.5357202,9.48212793 L13.5267916,9.50891368 C13.6785775,9.47319935 13.8303634,9.42855644 13.9821493,9.42855644 L20.7768003,9.42855644 C21.1964436,9.42855644 21.5714441,9.61605667 21.7946586,9.92855704 C22.0268018,10.249986 22.0803732,10.6696294 21.9553731,11.0892727 L19.5089416,19.1785681 C19.0892983,20.5535697 18.8571551,20.8571415 17.7232252,20.8571415 L9.96428737,20.8571415 C9.84821581,20.8571415 9.70535849,20.8839272 9.62500126,20.9910702 C9.5535726,21.0982132 9.54464402,21.1785704 9.61607267,21.3749993 C9.79464432,21.892857 10.4107165,22 10.9017885,22 L19.1428697,22 C19.4732273,22 19.8571563,21.8124998 19.9553707,21.4910708 L22.6339453,12.6785603 C22.6875168,12.5089173 22.6875168,12.3303456 22.6785882,12.1696311 C22.8839456,12.2499884 23.0714459,12.3749885 23.2053746,12.5535602 Z M13.7053633,12.5714173 C13.6517918,12.7321318 13.7410776,12.857132 13.9017921,12.857132 L19.33037,12.857132 C19.4821559,12.857132 19.6517989,12.7321318 19.7053704,12.5714173 L19.8928706,11.9999881 C19.9464421,11.8392736 19.8571563,11.7142735 19.6964418,11.7142735 L14.2678639,11.7142735 C14.116078,11.7142735 13.946435,11.8392736 13.8928635,11.9999881 L13.7053633,12.5714173 Z M12.964291,14.8571343 C12.9107195,15.0178488 13.0000053,15.142849 13.1607198,15.142849 L18.5892977,15.142849 C18.7410836,15.142849 18.9107266,15.0178488 18.9642981,14.8571343 L19.1517983,14.2857051 C19.2053698,14.1249906 19.116084,13.9999905 18.9553695,13.9999905 L13.5267916,13.9999905 C13.3750057,13.9999905 13.2053627,14.1249906 13.1517912,14.2857051 L12.964291,14.8571343 Z" id="fa-book" fill="#FFFFFF"></path>
            </g>
        </g>
    </g>
</svg>