<?xml version="1.0" encoding="UTF-8"?>
<svg width="32px" height="32px" viewBox="0 0 32 32" version="1.1" xmlns="http://www.w3.org/2000/svg" xmlns:xlink="http://www.w3.org/1999/xlink">
    <!-- Generator: Sketch 50.2 (55047) - http://www.bohemiancoding.com/sketch -->
    <title>housing-assistance</title>
    <desc>Created with Sketch.</desc>
    <defs></defs>
    <g id="Mockups" stroke="none" stroke-width="1" fill="none" fill-rule="evenodd">
        <g id="Icons" transform="translate(-810.000000, -534.000000)">
            <g id="housing-assistance" transform="translate(810.000000, 534.000000)">
                <circle id="Circle" fill="#00A6D2" cx="16" cy="16" r="16"></circle>
                <path d="M21.1428721,16.6004543 L21.1428721,20.8861737 C21.1428721,21.1986741 20.8839432,21.4576029 20.5714429,21.4576029 L17.1428674,21.4576029 L17.1428674,18.0290274 L14.8571504,18.0290274 L14.8571504,21.4576029 L11.4285748,21.4576029 C11.1160745,21.4576029 10.8571456,21.1986741 10.8571456,20.8861737 L10.8571456,16.6004543 C10.8571456,16.5825971 10.8660742,16.56474 10.8660742,16.5468828 L16.0000089,12.3147349 L21.1339435,16.5468828 C21.1428721,16.56474 21.1428721,16.5825971 21.1428721,16.6004543 Z M23.1339459,15.9843821 L22.5803738,16.6450972 C22.5357309,16.6986687 22.4643023,16.734383 22.3928736,16.7433116 C22.383945,16.7433116 22.3750165,16.7433116 22.3660879,16.7433116 C22.2946592,16.7433116 22.2321591,16.7254544 22.1785876,16.6808115 L16.0000089,11.5290197 L9.82143006,16.6808115 C9.75892999,16.7254544 9.68750133,16.7522402 9.60714409,16.7433116 C9.53571544,16.734383 9.46428678,16.6986687 9.41964387,16.6450972 L8.86607178,15.9843821 C8.76785738,15.8683106 8.78571454,15.6808103 8.90178611,15.5825959 L15.3214366,10.2343753 C15.6964371,9.92187491 16.3035806,9.92187491 16.6785811,10.2343753 L18.8571551,12.055806 L18.8571551,10.3147325 C18.8571551,10.154018 18.9821553,10.0290179 19.1428697,10.0290179 L20.8571575,10.0290179 C21.017872,10.0290179 21.1428721,10.154018 21.1428721,10.3147325 L21.1428721,13.957594 L23.0982316,15.5825959 C23.2143032,15.6808103 23.2321603,15.8683106 23.1339459,15.9843821 Z" id="fa-home" fill="#FFFFFF"></path>
            </g>
        </g>
    </g>
</svg>