<?xml version="1.0" encoding="UTF-8"?>
<svg width="32px" height="32px" viewBox="0 0 32 32" version="1.1" xmlns="http://www.w3.org/2000/svg" xmlns:xlink="http://www.w3.org/1999/xlink">
    <!-- Generator: Sketch 50.2 (55047) - http://www.bohemiancoding.com/sketch -->
    <title>life-insurance</title>
    <desc>Created with Sketch.</desc>
    <defs></defs>
    <g id="Mockups" stroke="none" stroke-width="1" fill="none" fill-rule="evenodd">
        <g id="Icons" transform="translate(-170.000000, -606.000000)">
            <g id="life-insurance" transform="translate(170.000000, 606.000000)">
                <circle id="Circle" fill="#2E8540" cx="16" cy="16" r="16"></circle>
                <path d="M9.01561785,15.0000167 C8.47395263,15.0000167 8.00520375,14.8021007 7.6093712,14.4062681 C7.21353865,14.0104356 7.01562262,13.5416867 7.01562262,13.0000215 C7.01562262,12.4583562 7.21353865,11.9896074 7.6093712,11.5937748 C8.00520375,11.1979423 8.47395263,11.0000262 9.01561785,11.0000262 C9.55728306,11.0000262 10.0260319,11.1979423 10.4218645,11.5937748 C10.817697,11.9896074 11.0156131,12.4583562 11.0156131,13.0000215 C11.0156131,13.5416867 10.817697,14.0104356 10.4218645,14.4062681 C10.0260319,14.8021007 9.55728306,15.0000167 9.01561785,15.0000167 Z M23.0155845,15.0000167 C22.4739193,15.0000167 22.0051704,14.8021007 21.6093378,14.4062681 C21.2135053,14.0104356 21.0155892,13.5416867 21.0155892,13.0000215 C21.0155892,12.4583562 21.2135053,11.9896074 21.6093378,11.5937748 C22.0051704,11.1979423 22.4739193,11.0000262 23.0155845,11.0000262 C23.5572497,11.0000262 24.0259986,11.1979423 24.4218311,11.5937748 C24.8176637,11.9896074 25.0155797,12.4583562 25.0155797,13.0000215 C25.0155797,13.5416867 24.8176637,14.0104356 24.4218311,14.4062681 C24.0259986,14.8021007 23.5572497,15.0000167 23.0155845,15.0000167 Z M24.0155821,16.0000143 C24.5572473,16.0000143 25.0259962,16.1979303 25.4218287,16.5937629 C25.8176613,16.9895954 26.0155773,17.4583443 26.0155773,18.0000095 L26.0155773,19.0000072 C26.0155773,19.27084 25.9166191,19.5052144 25.718703,19.7031305 C25.520787,19.9010465 25.2864125,20.0000048 25.0155797,20.0000048 L22.9530846,20.0000048 C22.8489184,19.27084 22.588502,18.6041746 22.1718365,18.0000095 C21.755171,17.3958445 21.2343387,16.9270956 20.6093402,16.5937629 C21.0051728,16.1979303 21.4739216,16.0000143 22.0155869,16.0000143 L24.0155821,16.0000143 Z M16.0156012,16.0000143 C15.3906026,16.0000143 14.8072705,15.8437647 14.2656053,15.5312654 C13.7239401,15.2187662 13.2968576,14.7916837 12.9843584,14.2500185 C12.6718591,13.7083533 12.5156095,13.1250212 12.5156095,12.5000226 C12.5156095,11.8750241 12.6718591,11.291692 12.9843584,10.7500268 C13.2968576,10.2083616 13.7239401,9.78127913 14.2656053,9.46877988 C14.8072705,9.15628062 15.3906026,9.00003099 16.0156012,9.00003099 C16.6405997,9.00003099 17.2239318,9.15628062 17.765597,9.46877988 C18.3072622,9.78127913 18.7343447,10.2083616 19.0468439,10.7500268 C19.3593432,11.291692 19.5155928,11.8750241 19.5155928,12.5000226 C19.5155928,13.1250212 19.3593432,13.7083533 19.0468439,14.2500185 C18.7343447,14.7916837 18.3072622,15.2187662 17.765597,15.5312654 C17.2239318,15.8437647 16.6405997,16.0000143 16.0156012,16.0000143 Z M18.4218454,17.0000119 C19.0676774,17.0000119 19.666634,17.16147 20.2187161,17.4843858 C20.7707983,17.8073015 21.2082973,18.2448005 21.531213,18.7968826 C21.8541287,19.3489648 22.0155869,19.9479214 22.0155869,20.5937534 L22.0155869,21.5000012 C22.0155869,21.9166667 21.8697537,22.2708328 21.5780879,22.5624987 C21.2864221,22.8541645 20.9322559,22.9999976 20.5155904,22.9999976 L11.5156119,22.9999976 C11.0989464,22.9999976 10.7447802,22.8541645 10.4531144,22.5624987 C10.1614486,22.2708328 10.0156155,21.9166667 10.0156155,21.5000012 L10.0156155,20.5937534 C10.0156155,19.9479214 10.1770736,19.3489648 10.4999893,18.7968826 C10.822905,18.2448005 11.260404,17.8073015 11.8124862,17.4843858 C12.3645684,17.16147 12.9635249,17.0000119 13.6093569,17.0000119 L13.8593563,17.0000119 C14.5676881,17.3333446 15.2864364,17.5000107 16.0156012,17.5000107 C16.7447659,17.5000107 17.4635142,17.3333446 18.171846,17.0000119 L18.4218454,17.0000119 Z M11.4218621,16.5937629 C10.7968636,16.9270956 10.2760314,17.3958445 9.85936584,18.0000095 C9.44270032,18.6041746 9.18228396,19.27084 9.0781177,20.0000048 L7.01562262,20.0000048 C6.74478977,20.0000048 6.51041533,19.9010465 6.31249929,19.7031305 C6.11458326,19.5052144 6.015625,19.27084 6.015625,19.0000072 L6.015625,18.0000095 C6.015625,17.4583443 6.21354104,16.9895954 6.60937358,16.5937629 C7.00520613,16.1979303 7.47395502,16.0000143 8.01562023,16.0000143 L10.0156155,16.0000143 C10.5572807,16.0000143 11.0260296,16.1979303 11.4218621,16.5937629 Z" id="fa-users" fill="#FFFFFF"></path>
            </g>
        </g>
    </g>
</svg>