<?xml version="1.0" encoding="UTF-8"?>
<svg width="32px" height="32px" viewBox="0 0 32 32" version="1.1" xmlns="http://www.w3.org/2000/svg" xmlns:xlink="http://www.w3.org/1999/xlink">
    <!-- Generator: Sketch 50.2 (55047) - http://www.bohemiancoding.com/sketch -->
    <title>pension</title>
    <desc>Created with Sketch.</desc>
    <defs></defs>
    <g id="Mockups" stroke="none" stroke-width="1" fill="none" fill-rule="evenodd">
        <g id="Icons" transform="translate(-490.000000, -534.000000)">
            <g id="pension" transform="translate(490.000000, 534.000000)">
                <circle id="Circle" fill="#195C27" cx="16" cy="16" r="16"></circle>
                <path d="M20.6808153,18.902916 C20.6808153,20.9520256 19.2142957,22.569215 17.0848289,22.9207779 L17.0848289,24.6785925 C17.0848289,24.8593963 16.9442037,25.0000215 16.7633999,25.0000215 L15.4073715,25.0000215 C15.2366124,25.0000215 15.0859425,24.8593963 15.0859425,24.6785925 L15.0859425,22.9207779 C12.7354933,22.5893043 11.4497775,21.1830526 11.3995542,21.1227847 C11.2991077,21.0022488 11.289063,20.8314897 11.3794649,20.7109538 L12.4140644,19.3549254 C12.4642876,19.2846129 12.5546895,19.2444342 12.6450914,19.2343896 C12.7354933,19.2243449 12.8258952,19.2544789 12.8861631,19.3247915 C12.9062524,19.3348361 14.3125041,20.6808199 16.090408,20.6808199 C17.0747842,20.6808199 18.1395176,20.1584978 18.1395176,19.0234518 C18.1395176,18.059165 16.9542483,17.5870662 15.5982199,17.0446548 C13.7901821,16.3314843 11.5401794,15.4274654 11.5401794,12.906257 C11.5401794,11.0580406 12.9866097,9.53125302 15.0859425,9.12946682 L15.0859425,7.32142895 C15.0859425,7.14062517 15.2366124,7 15.4073715,7 L16.7633999,7 C16.9442037,7 17.0848289,7.14062517 17.0848289,7.32142895 L17.0848289,9.0892882 C19.1238938,9.32031527 20.2087165,10.4252273 20.2488951,10.4654059 C20.3493417,10.5758971 20.369431,10.7265669 20.2991184,10.8471028 L19.4855014,12.3136224 C19.4352781,12.4040243 19.3549208,12.4642922 19.2544743,12.4743369 C19.1540277,12.4944262 19.0636259,12.4642922 18.9832686,12.4040243 C18.973224,12.3939796 17.7578207,11.3192016 16.2511225,11.3192016 C14.9754513,11.3192016 14.0915217,11.9520148 14.0915217,12.8660784 C14.0915217,13.9308118 15.3169696,14.4029106 16.7433106,14.9553666 C18.5915271,15.6685371 20.6808153,16.4821542 20.6808153,18.902916 Z" id="fa-dollar" fill="#FFFFFF"></path>
            </g>
        </g>
    </g>
</svg>