<?xml version="1.0" encoding="UTF-8"?>
<svg width="32px" height="32px" viewBox="0 0 32 32" version="1.1" xmlns="http://www.w3.org/2000/svg" xmlns:xlink="http://www.w3.org/1999/xlink">
    <!-- Generator: Sketch 50.2 (55047) - http://www.bohemiancoding.com/sketch -->
    <title>records</title>
    <desc>Created with Sketch.</desc>
    <defs></defs>
    <g id="Page-1" stroke="none" stroke-width="1" fill="none" fill-rule="evenodd">
        <g id="Benefit-category-icons" transform="translate(-810.000000, -663.000000)">
            <g id="records" transform="translate(810.000000, 663.000000)">
                <circle id="Circle" fill="#2E8540" cx="16" cy="16" r="16"></circle>
                <path d="M23.5155857,9.00003099 C23.9322512,9.00003099 24.2864173,9.14586414 24.5780831,9.43752995 C24.8697489,9.72919576 25.0155821,10.0833619 25.0155821,10.5000274 L25.0155821,11.0000262 L7.015625,11.0000262 L7.015625,10.5000274 C7.015625,10.0833619 7.16145814,9.72919576 7.45312396,9.43752995 C7.74478977,9.14586414 8.09895591,9.00003099 8.51562142,9.00003099 L23.5155857,9.00003099 Z M7.015625,21.5000012 L7.015625,12.0000238 L25.0155821,12.0000238 L25.0155821,21.5000012 C25.0155821,21.9166667 24.8697489,22.2708328 24.5780831,22.5624987 C24.2864173,22.8541645 23.9322512,22.9999976 23.5155857,22.9999976 L8.51562142,22.9999976 C8.09895591,22.9999976 7.74478977,22.8541645 7.45312396,22.5624987 C7.16145814,22.2708328 7.015625,21.9166667 7.015625,21.5000012 Z M18.0155988,14.2500185 L18.0155988,14.7500173 C18.0155988,14.8125171 18.0416402,14.8698085 18.0937236,14.9218919 C18.145807,14.9739752 18.2030983,15.0000167 18.2655982,15.0000167 L22.7655874,15.0000167 C22.8280873,15.0000167 22.8853787,14.9739752 22.937462,14.9218919 C22.9895454,14.8698085 23.0155869,14.8125171 23.0155869,14.7500173 L23.0155869,14.2500185 C23.0155869,14.1875186 22.9895454,14.1302273 22.937462,14.0781439 C22.8853787,14.0260605 22.8280873,14.0000191 22.7655874,14.0000191 L18.2655982,14.0000191 C18.2030983,14.0000191 18.145807,14.0260605 18.0937236,14.0781439 C18.0416402,14.1302273 18.0155988,14.1875186 18.0155988,14.2500185 Z M18.0155988,16.2500137 L18.0155988,16.7500125 C18.0155988,16.8125124 18.0416402,16.8698037 18.0937236,16.9218871 C18.145807,16.9739705 18.2030983,17.0000119 18.2655982,17.0000119 L22.7655874,17.0000119 C22.8280873,17.0000119 22.8853787,16.9739705 22.937462,16.9218871 C22.9895454,16.8698037 23.0155869,16.8125124 23.0155869,16.7500125 L23.0155869,16.2500137 C23.0155869,16.1875139 22.9895454,16.1302225 22.937462,16.0781391 C22.8853787,16.0260558 22.8280873,16.0000143 22.7655874,16.0000143 L18.2655982,16.0000143 C18.2030983,16.0000143 18.145807,16.0260558 18.0937236,16.0781391 C18.0416402,16.1302225 18.0155988,16.1875139 18.0155988,16.2500137 Z M18.0155988,18.2500089 L18.0155988,18.7500077 C18.0155988,18.8125076 18.0416402,18.869799 18.0937236,18.9218823 C18.145807,18.9739657 18.2030983,19.0000072 18.2655982,19.0000072 L22.7655874,19.0000072 C22.8280873,19.0000072 22.8853787,18.9739657 22.937462,18.9218823 C22.9895454,18.869799 23.0155869,18.8125076 23.0155869,18.7500077 L23.0155869,18.2500089 C23.0155869,18.1875091 22.9895454,18.1302177 22.937462,18.0781344 C22.8853787,18.026051 22.8280873,18.0000095 22.7655874,18.0000095 L18.2655982,18.0000095 C18.2030983,18.0000095 18.145807,18.026051 18.0937236,18.0781344 C18.0416402,18.1302177 18.0155988,18.1875091 18.0155988,18.2500089 Z M12.5156119,14.0000191 C11.9739467,14.0000191 11.5051978,14.1979351 11.1093652,14.5937677 C10.7135327,14.9896002 10.5156167,15.4583491 10.5156167,16.0000143 C10.5156167,16.5416795 10.7135327,17.0104284 11.1093652,17.406261 C11.5051978,17.8020935 11.9739467,18.0000095 12.5156119,18.0000095 C13.0572771,18.0000095 13.526026,17.8020935 13.9218585,17.406261 C14.3176911,17.0104284 14.5156071,16.5416795 14.5156071,16.0000143 C14.5156071,15.4583491 14.3176911,14.9896002 13.9218585,14.5937677 C13.526026,14.1979351 13.0572771,14.0000191 12.5156119,14.0000191 Z M9.10937001,20.3750039 C9.0677036,20.520837 9.09895353,20.6614617 9.20311978,20.7968779 C9.30728604,20.9322941 9.44270271,21.0000024 9.60936882,21.0000024 L15.421855,21.0000024 C15.5885211,21.0000024 15.7239377,20.9375025 15.828104,20.8125028 C15.9322702,20.6875031 15.9635202,20.54167 15.9218538,20.3750039 C15.7968541,19.9791713 15.5572711,19.6510471 15.2031055,19.3906312 C14.8489398,19.1302153 14.4531073,19.0000072 14.0156083,19.0000072 L13.7656089,19.0000072 C13.3697764,19.1666733 12.9531108,19.2500066 12.5156119,19.2500066 C12.0781129,19.2500066 11.6614474,19.1666733 11.2656149,19.0000072 L11.0156155,19.0000072 C10.5781165,19.0000072 10.182284,19.1302153 9.82811829,19.3906312 C9.47395263,19.6510471 9.23436971,19.9791713 9.10937001,20.3750039 Z" id="fa-id-card" fill="#FFFFFF"></path>
            </g>
        </g>
    </g>
</svg>