<?xml version="1.0" encoding="UTF-8"?>
<svg width="240px" height="78px" viewBox="0 0 240 78" version="1.1" xmlns="http://www.w3.org/2000/svg" xmlns:xlink="http://www.w3.org/1999/xlink">
    <!-- Generator: Sketch 50.2 (55047) - http://www.bohemiancoding.com/sketch -->
    <title>VCL-logo-bw</title>
    <desc>Created with Sketch.</desc>
    <defs></defs>
    <g id="VCL-logo-bw" stroke="none" stroke-width="1" fill="none" fill-rule="evenodd">
        <path d="M62,14 C58.6862915,14 56,11.3137085 56,8 C56,4.6862915 58.6862915,2 62,2 C65.3137085,2 68,4.6862915 68,8 C68,11.3137085 65.3137085,14 62,14 Z M78,14 C74.6862915,14 72,11.3137085 72,8 C72,4.6862915 74.6862915,2 78,2 C81.3137085,2 84,4.6862915 84,8 C84,11.3137085 81.3137085,14 78,14 Z M94,14 C90.6862915,14 88,11.3137085 88,8 C88,4.6862915 90.6862915,2 94,2 C97.3137085,2 100,4.6862915 100,8 C100,11.3137085 97.3137085,14 94,14 Z M62,30 C58.6862915,30 56,27.3137085 56,24 C56,20.6862915 58.6862915,18 62,18 C65.3137085,18 68,20.6862915 68,24 C68,27.3137085 65.3137085,30 62,30 Z M78,30 C74.6862915,30 72,27.3137085 72,24 C72,20.6862915 74.6862915,18 78,18 C81.3137085,18 84,20.6862915 84,24 C84,27.3137085 81.3137085,30 78,30 Z M94,30 C90.6862915,30 88,27.3137085 88,24 C88,20.6862915 90.6862915,18 94,18 C97.3137085,18 100,20.6862915 100,24 C100,27.3137085 97.3137085,30 94,30 Z M62,46 C58.6862915,46 56,43.3137085 56,40 C56,36.6862915 58.6862915,34 62,34 C65.3137085,34 68,36.6862915 68,40 C68,43.3137085 65.3137085,46 62,46 Z M78,46 C74.6862915,46 72,43.3137085 72,40 C72,36.6862915 74.6862915,34 78,34 C81.3137085,34 84,36.6862915 84,40 C84,43.3137085 81.3137085,46 78,46 Z M94,46 C90.6862915,46 88,43.3137085 88,40 C88,36.6862915 90.6862915,34 94,34 C97.3137085,34 100,36.6862915 100,40 C100,43.3137085 97.3137085,46 94,46 Z" id="Combined-Shape" fill="#FFFFFF"></path>
        <path d="M110,0.656 L116.048,0.656 L121.168,13.648 L126.352,0.656 L132.368,0.656 L123.28,22 L118.96,22 L110,0.656 Z M147.096,15.248 L147.096,15.792 L136.44,15.792 C136.44,16.56 136.728,17.584 137.336,18.192 C137.656,18.512 138.296,18.896 139.448,18.896 C139.576,18.896 140.472,18.864 141.112,18.512 C141.432,18.32 141.784,18 142.008,17.552 L146.904,17.552 C146.68,18.352 146.232,19.472 145.176,20.496 C144.12,21.52 142.456,22.48 139.352,22.48 C137.464,22.48 135.192,22.064 133.432,20.304 C132.504,19.376 131.32,17.616 131.32,14.896 C131.32,12.496 132.216,10.576 133.464,9.36 C134.648,8.208 136.504,7.28 139.32,7.28 C140.984,7.28 143.128,7.632 144.824,9.232 C146.84,11.152 147.096,13.648 147.096,15.248 Z M136.6,12.848 L142.392,12.848 C142.264,12.304 141.944,11.696 141.56,11.312 C140.888,10.64 139.96,10.544 139.448,10.544 C138.584,10.544 137.912,10.768 137.368,11.312 C137.016,11.696 136.696,12.208 136.6,12.848 Z M158.016,11.888 L155.104,11.888 L155.104,22 L149.984,22 L149.984,11.888 L148.352,11.888 L148.352,7.696 L149.984,7.696 L149.984,2.992 L155.104,2.992 L155.104,7.696 L158.016,7.696 L158.016,11.888 Z M174.504,15.248 L174.504,15.792 L163.848,15.792 C163.848,16.56 164.136,17.584 164.744,18.192 C165.064,18.512 165.704,18.896 166.856,18.896 C166.984,18.896 167.88,18.864 168.52,18.512 C168.84,18.32 169.192,18 169.416,17.552 L174.312,17.552 C174.088,18.352 173.64,19.472 172.584,20.496 C171.528,21.52 169.864,22.48 166.76,22.48 C164.872,22.48 162.6,22.064 160.84,20.304 C159.912,19.376 158.728,17.616 158.728,14.896 C158.728,12.496 159.624,10.576 160.872,9.36 C162.056,8.208 163.912,7.28 166.728,7.28 C168.392,7.28 170.536,7.632 172.232,9.232 C174.248,11.152 174.504,13.648 174.504,15.248 Z M164.008,12.848 L169.8,12.848 C169.672,12.304 169.352,11.696 168.968,11.312 C168.296,10.64 167.368,10.544 166.856,10.544 C165.992,10.544 165.32,10.768 164.776,11.312 C164.424,11.696 164.104,12.208 164.008,12.848 Z M176.848,22 L176.848,7.696 L181.968,7.696 L181.968,10.032 C182.48,9.072 183.216,8.432 183.984,8.048 C184.752,7.632 185.68,7.472 186.64,7.472 C186.768,7.472 186.992,7.504 187.664,7.536 L187.664,12.368 C187.408,12.24 186.704,11.856 185.456,11.856 C184.784,11.856 183.856,11.952 183.12,12.624 C182.032,13.616 181.968,15.12 181.968,15.888 L181.968,22 L176.848,22 Z M200.408,9.072 L200.408,7.696 L205.528,7.696 L205.528,22 L200.408,22 L200.408,20.432 C199.224,22.064 197.368,22.48 195.96,22.48 C194.424,22.48 192.536,22.032 190.808,20.208 C189.432,18.736 188.76,17.104 188.76,14.96 C188.76,12.272 189.816,10.384 190.968,9.232 C192.184,8.016 194.072,7.216 196.12,7.216 C198.424,7.216 199.8,8.4 200.408,9.072 Z M197.272,11.568 C196.632,11.568 195.768,11.792 195.032,12.496 C194.328,13.168 194.008,14.096 194.008,14.832 C194.008,15.664 194.36,16.56 195,17.168 C195.544,17.68 196.44,18.128 197.304,18.128 C198.136,18.128 198.968,17.776 199.608,17.136 C200.056,16.688 200.568,15.984 200.568,14.832 C200.568,14.16 200.376,13.264 199.576,12.496 C199.096,12.048 198.36,11.568 197.272,11.568 Z M208.448,22 L208.448,7.696 L213.568,7.696 L213.568,9.488 C214.976,7.632 216.864,7.376 218.112,7.376 C219.584,7.376 221.152,7.728 222.336,8.912 C223.552,10.128 223.68,11.344 223.68,12.912 L223.68,22 L218.56,22 L218.56,14.768 C218.56,13.936 218.592,12.688 217.92,11.984 C217.44,11.472 216.8,11.376 216.288,11.376 C215.488,11.376 214.816,11.664 214.4,12.048 C213.888,12.528 213.568,13.456 213.568,14.32 L213.568,22 L208.448,22 Z M225.672,20.816 L227.496,17.264 C228.104,17.712 228.84,18.096 229.544,18.32 C230.184,18.544 230.984,18.672 231.528,18.672 C231.912,18.672 232.52,18.576 232.84,18.288 C233.064,18.064 233.096,17.872 233.096,17.616 C233.096,17.392 233.064,17.168 232.84,16.976 C232.52,16.688 232.008,16.592 231.496,16.464 L230.152,16.144 C229.448,15.984 228.424,15.728 227.656,14.896 C227.112,14.32 226.728,13.52 226.728,12.432 C226.728,11.056 227.272,9.776 228.072,8.944 C229.16,7.824 231.08,7.216 233.192,7.216 C235.304,7.216 236.936,7.792 237.768,8.144 L236.04,11.408 C235.336,11.088 234.28,10.704 233.352,10.704 C232.84,10.704 232.488,10.8 232.168,10.992 C231.88,11.152 231.72,11.376 231.72,11.696 C231.72,12.144 232.008,12.368 232.328,12.496 C232.808,12.688 233.224,12.688 234.024,12.912 L234.952,13.168 C235.624,13.36 236.648,13.872 237.064,14.288 C237.768,14.96 238.152,16.08 238.152,17.136 C238.152,18.864 237.416,20.016 236.712,20.688 C235.048,22.352 232.616,22.48 231.432,22.48 C230.152,22.48 228.136,22.32 225.672,20.816 Z" id="Veterans" fill="#FFFFFF"></path>
        <path d="M125.568,40.864 L125.568,47.424 C123.36,48.224 122.144,48.48 120.768,48.48 C117.056,48.48 114.272,47.008 112.512,45.28 C110.432,43.2 109.28,40.288 109.28,37.504 C109.28,34.464 110.592,31.584 112.512,29.632 C114.4,27.712 117.248,26.304 120.576,26.304 C121.6,26.304 123.264,26.464 125.568,27.392 L125.568,34.016 C123.776,31.808 121.664,31.68 120.736,31.68 C119.136,31.68 117.92,32.16 116.896,33.088 C115.584,34.304 115.04,35.968 115.04,37.472 C115.04,38.944 115.648,40.576 116.768,41.632 C117.696,42.496 119.168,43.104 120.736,43.104 C121.568,43.104 123.616,43.008 125.568,40.864 Z M127.408,48 L127.408,33.696 L132.528,33.696 L132.528,36.032 C133.04,35.072 133.776,34.432 134.544,34.048 C135.312,33.632 136.24,33.472 137.2,33.472 C137.328,33.472 137.552,33.504 138.224,33.536 L138.224,38.368 C137.968,38.24 137.264,37.856 136.016,37.856 C135.344,37.856 134.416,37.952 133.68,38.624 C132.592,39.616 132.528,41.12 132.528,41.888 L132.528,48 L127.408,48 Z M139.296,33.696 L144.416,33.696 L144.416,48 L139.296,48 L139.296,33.696 Z M138.976,27.744 C138.976,26.144 140.256,24.864 141.856,24.864 C143.456,24.864 144.736,26.144 144.736,27.744 C144.736,29.344 143.456,30.624 141.856,30.624 C140.256,30.624 138.976,29.344 138.976,27.744 Z M146.408,46.816 L148.232,43.264 C148.84,43.712 149.576,44.096 150.28,44.32 C150.92,44.544 151.72,44.672 152.264,44.672 C152.648,44.672 153.256,44.576 153.576,44.288 C153.8,44.064 153.832,43.872 153.832,43.616 C153.832,43.392 153.8,43.168 153.576,42.976 C153.256,42.688 152.744,42.592 152.232,42.464 L150.888,42.144 C150.184,41.984 149.16,41.728 148.392,40.896 C147.848,40.32 147.464,39.52 147.464,38.432 C147.464,37.056 148.008,35.776 148.808,34.944 C149.896,33.824 151.816,33.216 153.928,33.216 C156.04,33.216 157.672,33.792 158.504,34.144 L156.776,37.408 C156.072,37.088 155.016,36.704 154.088,36.704 C153.576,36.704 153.224,36.8 152.904,36.992 C152.616,37.152 152.456,37.376 152.456,37.696 C152.456,38.144 152.744,38.368 153.064,38.496 C153.544,38.688 153.96,38.688 154.76,38.912 L155.688,39.168 C156.36,39.36 157.384,39.872 157.8,40.288 C158.504,40.96 158.888,42.08 158.888,43.136 C158.888,44.864 158.152,46.016 157.448,46.688 C155.784,48.352 153.352,48.48 152.168,48.48 C150.888,48.48 148.872,48.32 146.408,46.816 Z M160.912,33.696 L166.032,33.696 L166.032,48 L160.912,48 L160.912,33.696 Z M160.592,27.744 C160.592,26.144 161.872,24.864 163.472,24.864 C165.072,24.864 166.352,26.144 166.352,27.744 C166.352,29.344 165.072,30.624 163.472,30.624 C161.872,30.624 160.592,29.344 160.592,27.744 Z M168.024,46.816 L169.848,43.264 C170.456,43.712 171.192,44.096 171.896,44.32 C172.536,44.544 173.336,44.672 173.88,44.672 C174.264,44.672 174.872,44.576 175.192,44.288 C175.416,44.064 175.448,43.872 175.448,43.616 C175.448,43.392 175.416,43.168 175.192,42.976 C174.872,42.688 174.36,42.592 173.848,42.464 L172.504,42.144 C171.8,41.984 170.776,41.728 170.008,40.896 C169.464,40.32 169.08,39.52 169.08,38.432 C169.08,37.056 169.624,35.776 170.424,34.944 C171.512,33.824 173.432,33.216 175.544,33.216 C177.656,33.216 179.288,33.792 180.12,34.144 L178.392,37.408 C177.688,37.088 176.632,36.704 175.704,36.704 C175.192,36.704 174.84,36.8 174.52,36.992 C174.232,37.152 174.072,37.376 174.072,37.696 C174.072,38.144 174.36,38.368 174.68,38.496 C175.16,38.688 175.576,38.688 176.376,38.912 L177.304,39.168 C177.976,39.36 179,39.872 179.416,40.288 C180.12,40.96 180.504,42.08 180.504,43.136 C180.504,44.864 179.768,46.016 179.064,46.688 C177.4,48.352 174.968,48.48 173.784,48.48 C172.504,48.48 170.488,48.32 168.024,46.816 Z M186.164,26.656 L191.7,26.656 L191.7,43.296 L198.356,43.296 L198.356,48 L186.164,48 L186.164,26.656 Z M199.524,33.696 L204.644,33.696 L204.644,48 L199.524,48 L199.524,33.696 Z M199.204,27.744 C199.204,26.144 200.484,24.864 202.084,24.864 C203.684,24.864 204.964,26.144 204.964,27.744 C204.964,29.344 203.684,30.624 202.084,30.624 C200.484,30.624 199.204,29.344 199.204,27.744 Z M206.932,48 L206.932,33.696 L212.052,33.696 L212.052,35.488 C213.46,33.632 215.348,33.376 216.596,33.376 C218.068,33.376 219.636,33.728 220.82,34.912 C222.036,36.128 222.164,37.344 222.164,38.912 L222.164,48 L217.044,48 L217.044,40.768 C217.044,39.936 217.076,38.688 216.404,37.984 C215.924,37.472 215.284,37.376 214.772,37.376 C213.972,37.376 213.3,37.664 212.884,38.048 C212.372,38.528 212.052,39.456 212.052,40.32 L212.052,48 L206.932,48 Z M239.62,41.248 L239.62,41.792 L228.964,41.792 C228.964,42.56 229.252,43.584 229.86,44.192 C230.18,44.512 230.82,44.896 231.972,44.896 C232.1,44.896 232.996,44.864 233.636,44.512 C233.956,44.32 234.308,44 234.532,43.552 L239.428,43.552 C239.204,44.352 238.756,45.472 237.7,46.496 C236.644,47.52 234.98,48.48 231.876,48.48 C229.988,48.48 227.716,48.064 225.956,46.304 C225.028,45.376 223.844,43.616 223.844,40.896 C223.844,38.496 224.74,36.576 225.988,35.36 C227.172,34.208 229.028,33.28 231.844,33.28 C233.508,33.28 235.652,33.632 237.348,35.232 C239.364,37.152 239.62,39.648 239.62,41.248 Z M229.124,38.848 L234.916,38.848 C234.788,38.304 234.468,37.696 234.084,37.312 C233.412,36.64 232.484,36.544 231.972,36.544 C231.108,36.544 230.436,36.768 229.892,37.312 C229.54,37.696 229.22,38.208 229.124,38.848 Z" id="Crisis-Line" fill="#FFFFFF"></path>
        <path d="M60.664,76 L58.256,76 L58.256,59.48 L56.408,59.48 L56.408,57.324 L60.664,57.324 L60.664,76 Z M69.13,67.74 L69.13,69.924 L64.79,69.924 L64.79,67.74 L69.13,67.74 Z M78.632,70.764 C78.632,73.536 77.904,76.224 74.6,76.224 C71.1,76.224 70.568,73.312 70.568,70.456 C70.568,69.28 70.652,67.824 71.352,66.816 C71.744,66.284 72.164,66.06 72.78,65.864 C72.08,65.584 71.688,65.332 71.324,64.66 C70.848,63.792 70.736,62.672 70.736,61.692 C70.736,60.432 70.932,59.032 71.8,58.052 C72.556,57.212 73.676,57.1 74.74,57.1 C77.708,57.1 78.464,59.116 78.464,61.72 C78.464,62.7 78.352,63.792 77.876,64.66 C77.512,65.332 77.12,65.584 76.448,65.864 C77.064,66.088 77.456,66.284 77.848,66.816 C78.632,67.88 78.632,69.504 78.632,70.764 Z M75.972,61.888 C75.972,60.992 75.832,59.284 74.6,59.284 C73.368,59.284 73.228,60.992 73.228,61.888 C73.228,62.784 73.368,64.772 74.6,64.772 C75.888,64.772 75.972,62.812 75.972,61.888 Z M76.14,70.512 C76.14,69.448 76.112,67.236 74.6,67.236 C73.004,67.236 73.06,69.728 73.06,70.82 C73.06,71.884 73.116,74.012 74.6,74.012 C76.196,74.012 76.14,71.632 76.14,70.512 Z M88.218,65.836 C88.218,68.244 88.274,71.744 87.322,73.928 C86.706,75.356 85.586,76.224 83.99,76.224 C79.818,76.224 79.762,70.232 79.762,67.292 C79.762,64.184 79.454,57.1 83.99,57.1 C88.134,57.1 88.218,62.896 88.218,65.836 Z M85.642,66.704 C85.642,65.78 85.642,64.884 85.586,63.96 C85.558,62.868 85.558,59.34 83.962,59.34 C82.394,59.34 82.366,62.896 82.338,63.96 C82.282,64.884 82.282,65.78 82.282,66.704 C82.282,67.656 82.282,68.636 82.338,69.588 C82.366,70.68 82.394,74.04 83.962,74.04 C85.53,74.04 85.558,70.652 85.586,69.588 C85.642,68.636 85.642,67.656 85.642,66.704 Z M97.608,65.836 C97.608,68.244 97.664,71.744 96.712,73.928 C96.096,75.356 94.976,76.224 93.38,76.224 C89.208,76.224 89.152,70.232 89.152,67.292 C89.152,64.184 88.844,57.1 93.38,57.1 C97.524,57.1 97.608,62.896 97.608,65.836 Z M95.032,66.704 C95.032,65.78 95.032,64.884 94.976,63.96 C94.948,62.868 94.948,59.34 93.352,59.34 C91.784,59.34 91.756,62.896 91.728,63.96 C91.672,64.884 91.672,65.78 91.672,66.704 C91.672,67.656 91.672,68.636 91.728,69.588 C91.756,70.68 91.784,74.04 93.352,74.04 C94.92,74.04 94.948,70.652 94.976,69.588 C95.032,68.636 95.032,67.656 95.032,66.704 Z M103.19,67.74 L103.19,69.924 L98.85,69.924 L98.85,67.74 L103.19,67.74 Z M104.712,63.4 L104.712,62.672 C104.712,59.62 105.132,57.1 108.8,57.1 C111.74,57.1 112.86,58.948 112.86,61.664 C112.86,64.436 111.096,68.132 109.78,70.568 C109.192,71.66 108.576,72.724 108.044,73.844 L112.664,73.844 L112.664,76 L104.46,76 C105.272,74.124 106.196,72.332 107.092,70.484 C108.1,68.412 109.192,66.312 109.892,64.1 C110.144,63.288 110.34,62.448 110.34,61.58 C110.34,60.544 109.976,59.284 108.716,59.284 C106.812,59.284 107.148,62.196 107.176,63.4 L104.712,63.4 Z M121.886,57.324 L116.23,76 L113.542,76 L118.722,59.452 L113.542,59.452 L113.542,57.324 L121.886,57.324 Z M122.512,62.336 L122.512,61.888 C122.512,59.228 123.1,57.1 126.208,57.1 C129.372,57.1 130.156,59.172 130.156,61.972 C130.156,63.064 130.1,64.436 129.484,65.36 C129.12,65.892 128.644,66.144 128.084,66.368 C128.84,66.62 129.372,66.9 129.792,67.6 C130.324,68.524 130.38,69.728 130.38,70.764 C130.38,73.872 129.484,76.224 125.956,76.224 C123.184,76.224 122.148,74.348 122.148,71.8 C122.148,71.632 122.148,71.492 122.176,71.324 L124.528,71.324 C124.528,71.52 124.5,71.716 124.5,71.912 C124.5,72.892 124.92,74.012 126.068,74.012 C127.832,74.012 127.832,71.772 127.832,70.512 C127.832,68.888 127.58,67.32 125.592,67.32 C125.368,67.32 125.172,67.348 124.948,67.376 L124.948,65.192 C127.468,65.192 127.804,64.464 127.804,62.084 C127.804,61.076 127.692,59.284 126.32,59.284 C124.808,59.284 124.892,61.272 124.892,62.336 L122.512,62.336 Z M136.074,67.74 L136.074,69.924 L131.734,69.924 L131.734,67.74 L136.074,67.74 Z M145.576,70.764 C145.576,73.536 144.848,76.224 141.544,76.224 C138.044,76.224 137.512,73.312 137.512,70.456 C137.512,69.28 137.596,67.824 138.296,66.816 C138.688,66.284 139.108,66.06 139.724,65.864 C139.024,65.584 138.632,65.332 138.268,64.66 C137.792,63.792 137.68,62.672 137.68,61.692 C137.68,60.432 137.876,59.032 138.744,58.052 C139.5,57.212 140.62,57.1 141.684,57.1 C144.652,57.1 145.408,59.116 145.408,61.72 C145.408,62.7 145.296,63.792 144.82,64.66 C144.456,65.332 144.064,65.584 143.392,65.864 C144.008,66.088 144.4,66.284 144.792,66.816 C145.576,67.88 145.576,69.504 145.576,70.764 Z M142.916,61.888 C142.916,60.992 142.776,59.284 141.544,59.284 C140.312,59.284 140.172,60.992 140.172,61.888 C140.172,62.784 140.312,64.772 141.544,64.772 C142.832,64.772 142.916,62.812 142.916,61.888 Z M143.084,70.512 C143.084,69.448 143.056,67.236 141.544,67.236 C139.948,67.236 140.004,69.728 140.004,70.82 C140.004,71.884 140.06,74.012 141.544,74.012 C143.14,74.012 143.084,71.632 143.084,70.512 Z M146.986,63.4 L146.986,62.672 C146.986,59.62 147.406,57.1 151.074,57.1 C154.014,57.1 155.134,58.948 155.134,61.664 C155.134,64.436 153.37,68.132 152.054,70.568 C151.466,71.66 150.85,72.724 150.318,73.844 L154.938,73.844 L154.938,76 L146.734,76 C147.546,74.124 148.47,72.332 149.366,70.484 C150.374,68.412 151.466,66.312 152.166,64.1 C152.418,63.288 152.614,62.448 152.614,61.58 C152.614,60.544 152.25,59.284 150.99,59.284 C149.086,59.284 149.422,62.196 149.45,63.4 L146.986,63.4 Z M160.128,59.508 L159.512,64.184 C163.012,64.184 164.384,66.228 164.384,69.532 C164.384,72.836 163.068,76.224 159.232,76.224 C158.084,76.224 157.3,75.916 156.264,75.44 L156.88,73.228 C157.608,73.62 158.224,73.9 159.064,73.9 C161.164,73.9 161.724,71.408 161.724,69.756 C161.724,67.684 160.912,66.172 158.644,66.172 C158.14,66.172 157.636,66.256 157.132,66.396 L158.196,57.324 L164.132,57.324 L164.132,59.508 L160.128,59.508 Z M169.518,59.508 L168.902,64.184 C172.402,64.184 173.774,66.228 173.774,69.532 C173.774,72.836 172.458,76.224 168.622,76.224 C167.474,76.224 166.69,75.916 165.654,75.44 L166.27,73.228 C166.998,73.62 167.614,73.9 168.454,73.9 C170.554,73.9 171.114,71.408 171.114,69.756 C171.114,67.684 170.302,66.172 168.034,66.172 C167.53,66.172 167.026,66.256 166.522,66.396 L167.586,57.324 L173.522,57.324 L173.522,59.508 L169.518,59.508 Z" id="1-800-273-8255" fill="#FFFFFF"></path>
        <path d="M179.144,61.326 L182.664,61.326 C183.588,61.326 184.314,61.348 185.128,61.81 C186.492,62.58 187.13,64.164 187.13,65.682 C187.13,68.762 184.952,70.192 182.048,69.972 L182.048,76 L179.144,76 L179.144,61.326 Z M182.048,67.53 L182.224,67.53 C183.544,67.53 184.248,67.068 184.248,65.66 C184.248,64.494 183.852,63.68 182.554,63.68 L182.048,63.68 L182.048,67.53 Z M196.5,76 L193.442,76 L190.868,69.246 L190.868,76 L187.964,76 L187.964,61.326 L191.11,61.326 C192.188,61.326 193.376,61.414 194.3,62.03 C195.466,62.8 196.038,64.23 196.038,65.594 C196.038,67.266 195.378,68.454 193.948,69.334 L196.5,76 Z M190.868,63.614 L190.868,67.64 C191.022,67.662 191.198,67.662 191.352,67.662 C192.606,67.662 193.222,66.804 193.222,65.616 C193.222,64.428 192.694,63.614 191.418,63.614 L190.868,63.614 Z M203.494,76 L197.62,76 L197.62,61.326 L203.45,61.326 L203.45,64.054 L200.524,64.054 L200.524,67.222 L203.098,67.222 L203.098,69.994 L200.524,69.994 L200.524,73.294 L203.494,73.294 L203.494,76 Z M210.73,61.81 L210.73,64.648 C210.136,64.142 209.454,63.702 208.64,63.702 C207.782,63.702 207.188,64.274 207.188,65.132 C207.188,67.662 211.588,67.618 211.588,71.71 C211.588,74.24 210.07,76.242 207.408,76.242 C206.506,76.242 205.626,76 204.878,75.494 L204.878,72.722 C205.538,73.162 206.22,73.514 207.034,73.514 C208.024,73.514 208.75,72.898 208.75,71.886 C208.75,71.622 208.706,71.38 208.596,71.138 C208.332,70.588 207.518,70.104 207.034,69.774 C205.384,68.63 204.328,67.574 204.328,65.44 C204.328,63.13 205.67,61.106 208.156,61.106 C209.146,61.106 209.872,61.326 210.73,61.81 Z M218.582,61.81 L218.582,64.648 C217.988,64.142 217.306,63.702 216.492,63.702 C215.634,63.702 215.04,64.274 215.04,65.132 C215.04,67.662 219.44,67.618 219.44,71.71 C219.44,74.24 217.922,76.242 215.26,76.242 C214.358,76.242 213.478,76 212.73,75.494 L212.73,72.722 C213.39,73.162 214.072,73.514 214.886,73.514 C215.876,73.514 216.602,72.898 216.602,71.886 C216.602,71.622 216.558,71.38 216.448,71.138 C216.184,70.588 215.37,70.104 214.886,69.774 C213.236,68.63 212.18,67.574 212.18,65.44 C212.18,63.13 213.522,61.106 216.008,61.106 C216.998,61.106 217.724,61.326 218.582,61.81 Z" id="PRESS" fill="#FFFFFF"></path>
        <path d="M230.5,78 C225.253295,78 221,73.7467051 221,68.5 C221,63.2532949 225.253295,59 230.5,59 C235.746705,59 240,63.2532949 240,68.5 C240,73.7467051 235.746705,78 230.5,78 Z M232.49,76 L232.49,61.326 L228.266,61.326 L228.266,63.878 L229.674,63.878 L229.674,76 L232.49,76 Z" id="Combined-Shape" fill="#FFFFFF"></path>
        <path d="M45,50 L33,64 L31,64 L31,50 L4,50 C1.790861,50 0,48.209139 0,46 L0,4 C0,1.790861 1.790861,0 4,0 L46,0 C48.209139,0 50,1.790861 50,4 L50,46 C50,48.209139 48.209139,50 46,50 L45,50 Z M25,32.7217391 L34.8666667,40 L31.1333333,28.1391304 L41,21.1304348 L29,21.1304348 L25,9 L21,21.1304348 L9,21.1304348 L18.8666667,28.1391304 L15.1333333,40 L25,32.7217391 Z" id="Combined-Shape" fill="#FFFFFF"></path>
    </g>
</svg>