<?xml version="1.0" encoding="UTF-8" standalone="no"?>
<svg width="28px" height="41px" viewBox="0 0 28 41" version="1.1" xmlns="http://www.w3.org/2000/svg" xmlns:xlink="http://www.w3.org/1999/xlink">
    <!-- Generator: Sketch 40.2 (33826) - http://www.bohemiancoding.com/sketch -->
    <title>Benefit (shadow)</title>
    <desc>Created with Sketch.</desc>
    <defs>
        <path d="M0.0566888414,8.52201937 C0.0566888414,10.3766353 0.680792211,12.1343317 1.78550121,13.598614 L8.31773931,22.2864588 C8.46163163,22.4818911 8.79781882,22.5304837 8.98998216,22.384175 C9.03812164,22.3351841 9.03812164,22.3351841 9.085735,22.2864588 L15.6179731,13.598614 C16.7226821,12.1343317 17.3467855,10.3766353 17.3467855,8.52201937 C17.3467855,3.83642226 13.4563,0.0292086412 8.70206598,0.0292086412 C3.94717432,0.0292086412 0.0566888414,3.83642226 0.0566888414,8.52201937 L0.0566888414,8.52201937 Z" id="path-1"></path>
        <polygon id="path-3" points="0.000173617796 10.9984125 7.3974203 10.9984125 7.3974203 0.191944295 0.000173617796 0.191944295 0.000173617796 10.9984125"></polygon>
    </defs>
    <g id="Page-1" stroke="none" stroke-width="1" fill="none" fill-rule="evenodd">
        <g id="Benefit-(shadow)">
            <g id="Page-1" transform="translate(5.000000, 9.000000)">
                <g id="Group-3">
                    <mask id="mask-2" fill="white">
                        <use xlink:href="#path-1"></use>
                    </mask>
                    <g id="Clip-2"></g>
                    <polygon id="Fill-1" fill="#417505" mask="url(#mask-2)" points="-5.29494823 28.5001989 22.6986856 28.5001989 22.6986856 -6.00211023 -5.29494823 -6.00211023"></polygon>
                </g>
            </g>
            <g id="Page-1" transform="translate(10.000000, 13.000000)">
                <g id="Group-3" transform="translate(0.000000, 0.248212)">
                    <mask id="mask-4" fill="white">
                        <use xlink:href="#path-3"></use>
                    </mask>
                    <g id="Clip-2"></g>
                    <path d="M6.29555495,6.48699568 L2.33793726,6.48699568 C2.20598773,6.48699568 2.09791065,6.37745149 2.09791065,6.24371079 C2.09791065,6.10997009 2.20598773,6.00086584 2.33793726,6.00086584 L6.29555495,6.00086584 C6.42750448,6.00086584 6.53558156,6.10997009 6.53558156,6.24371079 C6.53558156,6.37745149 6.42750448,6.48699568 6.29555495,6.48699568 L6.29555495,6.48699568 Z M6.25258455,7.63215038 L2.29496685,7.63215038 C2.16301733,7.63215038 2.05494025,7.5226062 2.05494025,7.3888655 C2.05494025,7.2551248 2.16301733,7.14602055 2.29496685,7.14602055 L6.25258455,7.14602055 C6.38453407,7.14602055 6.49261115,7.2551248 6.49261115,7.3888655 C6.49261115,7.5226062 6.38453407,7.63215038 6.25258455,7.63215038 L6.25258455,7.63215038 Z M6.25258455,8.71219449 L2.29496685,8.71219449 C2.16301733,8.71219449 2.05494025,8.6026503 2.05494025,8.46890961 C2.05494025,8.33516891 2.16301733,8.22606466 2.29496685,8.22606466 L6.25258455,8.22606466 C6.38453407,8.22606466 6.49261115,8.33516891 6.49261115,8.46890961 C6.49261115,8.6026503 6.38453407,8.71219449 6.25258455,8.71219449 L6.25258455,8.71219449 Z M3.69866675,1.08545533 C4.82023772,1.08545533 5.72912689,2.00668236 5.72912689,3.14347827 C5.72912689,4.27983425 4.82023772,5.20106129 3.69866675,5.20106129 C2.57752982,5.20106129 1.66820661,4.27983425 1.66820661,3.14347827 C1.66820661,2.00668236 2.57752982,1.08545533 3.69866675,1.08545533 L3.69866675,1.08545533 Z M1.3296519,6.48699568 L1.32357528,6.48699568 C1.19162575,6.48699568 1.08354867,6.37745149 1.08354867,6.24371079 C1.08354867,6.10997009 1.19162575,6.00086584 1.32357528,6.00086584 L1.3296519,6.00086584 C1.46160143,6.00086584 1.56967851,6.10997009 1.56967851,6.24371079 C1.56967851,6.37745149 1.46160143,6.48699568 1.3296519,6.48699568 L1.3296519,6.48699568 Z M1.32487741,7.63215038 L1.31880079,7.63215038 C1.18685126,7.63215038 1.07920823,7.5226062 1.07920823,7.3888655 C1.07920823,7.2551248 1.18685126,7.14602055 1.31880079,7.14602055 L1.32487741,7.14602055 C1.45682694,7.14602055 1.56490402,7.2551248 1.56490402,7.3888655 C1.56490402,7.5226062 1.45682694,7.63215038 1.32487741,7.63215038 L1.32487741,7.63215038 Z M1.32487741,8.71219449 L1.31880079,8.71219449 C1.18685126,8.71219449 1.07920823,8.6026503 1.07920823,8.46890961 C1.07920823,8.33516891 1.18685126,8.22606466 1.31880079,8.22606466 L1.32487741,8.22606466 C1.45682694,8.22606466 1.56490402,8.33516891 1.56490402,8.46890961 C1.56490402,8.6026503 1.45682694,8.71219449 1.32487741,8.71219449 L1.32487741,8.71219449 Z M0.000173617796,10.9985445 L7.39759392,10.9985445 L7.39759392,0.191944295 L0.000173617796,0.191944295 L0.000173617796,10.9985445 Z" id="Fill-1" fill="#FFFFFF" mask="url(#mask-4)"></path>
                </g>
                <polygon id="Fill-4" fill="#FFFFFF" points="3.0466017 4.13417128 3.44505455 4.50899718 5.05883198 2.74617162 4.66037913 2.37134572 3.41901188 3.72723002 2.68157028 3.03389009 2.31219842 3.4377518 3.04920597 4.13109172"></polygon>
            </g>
        </g>
    </g>
</svg>
