<?xml version="1.0" encoding="UTF-8" standalone="no"?>
<svg width="28px" height="41px" viewBox="0 0 28 41" version="1.1" xmlns="http://www.w3.org/2000/svg" xmlns:xlink="http://www.w3.org/1999/xlink">
    <!-- Generator: Sketch 40.2 (33826) - http://www.bohemiancoding.com/sketch -->
    <title>You (shadow)</title>
    <desc>Created with Sketch.</desc>
    <defs>
        <filter x="-50%" y="-50%" width="200%" height="200%" filterUnits="objectBoundingBox" id="filter-1">
            <feOffset dx="0" dy="2" in="SourceAlpha" result="shadowOffsetOuter1"></feOffset>
            <feGaussianBlur stdDeviation="2" in="shadowOffsetOuter1" result="shadowBlurOuter1"></feGaussianBlur>
            <feColorMatrix values="0 0 0 0 0   0 0 0 0 0   0 0 0 0 0  0 0 0 0.5 0" type="matrix" in="shadowBlurOuter1" result="shadowMatrixOuter1"></feColorMatrix>
            <feMerge>
                <feMergeNode in="shadowMatrixOuter1"></feMergeNode>
                <feMergeNode in="SourceGraphic"></feMergeNode>
            </feMerge>
        </filter>
        <path d="M0.0555075758,8.30668235 C0.0555075758,10.1144353 0.666606061,11.8277176 1.74829545,13.255 L8.14441667,21.7233176 C8.28531061,21.9138118 8.61449242,21.9611765 8.80265152,21.8185647 C8.84978788,21.7708118 8.84978788,21.7708118 8.89640909,21.7233176 L15.2925303,13.255 C16.3742197,11.8277176 16.9853182,10.1144353 16.9853182,8.30668235 C16.9853182,3.73948235 13.1759015,0.0284705882 8.52073485,0.0284705882 C3.86492424,0.0284705882 0.0555075758,3.73948235 0.0555075758,8.30668235 L0.0555075758,8.30668235 Z" id="path-2"></path>
    </defs>
    <g id="Page-1" stroke="none" stroke-width="1" fill="none" fill-rule="evenodd">
        <g id="You-(shadow)">
            <g id="Group" transform="translate(6.000000, 10.000000)">
                <g id="Group-3" filter="url(#filter-1)">
                    <mask id="mask-3" fill="white">
                        <use xlink:href="#path-2"></use>
                    </mask>
                    <g id="Clip-2"></g>
                    <polygon id="Fill-1" fill="#323A45" mask="url(#mask-3)" points="-5.18461364 27.7800471 22.225697 27.7800471 22.225697 -5.85044706 -5.18461364 -5.85044706"></polygon>
                </g>
                <path d="M8.49997342,12.4259394 L6.00140314,13.7335717 C5.50963977,13.9909372 5.18777526,13.7538879 5.28104119,13.2125663 L5.75822565,10.4429566 L3.73683983,8.48150804 C3.33899491,8.09545985 3.45112462,7.71963388 4.01199361,7.63850361 L6.80548011,7.234423 L8.05476525,4.71454879 C8.30064693,4.21859243 8.70100821,4.22203819 8.94518159,4.71454879 L10.1944667,7.234423 L12.9879532,7.63850361 C13.5377614,7.71803391 13.6689556,8.08769347 13.263107,8.48150804 L11.2417212,10.4429566 L11.7189056,13.2125663 C11.8128241,13.7576751 11.5002002,13.9961147 10.9985437,13.7335717 L8.49997342,12.4259394 Z" id="Star" fill="#FFFFFF"></path>
            </g>
        </g>
    </g>
</svg>
