<?xml version="1.0" encoding="UTF-8" standalone="no"?>
<svg width="93px" height="90px" viewBox="0 0 93 90" version="1.1" xmlns="http://www.w3.org/2000/svg" xmlns:xlink="http://www.w3.org/1999/xlink">
    <!-- Generator: Sketch 40.3 (33839) - http://www.bohemiancoding.com/sketch -->
    <title>exit-icon</title>
    <desc>Created with Sketch.</desc>
    <defs></defs>
    <g id="Page-1" stroke="none" stroke-width="1" fill="none" fill-rule="evenodd">
        <g id="Artboard" transform="translate(-147.000000, -20.000000)" fill="#323A44">
            <path d="M215,59 L175,59 L175,69 L215,69 L215,80 L240,64 L215,48 L215,59 Z M225,26.0098334 C225,22.6935212 222.317732,20 219.008986,20 L152.991014,20 C149.684937,20 147,22.6906941 147,26.0098334 L147,103.990167 C147,107.306479 149.682268,110 152.991014,110 L219.008986,110 C222.315063,110 225,107.309306 225,103.990167 L225,93 L215,93 L215,101 L157,101 L157,30 L215,30 L215,38 L225,38 L225,26.0098334 Z" id="exit-icon"></path>
        </g>
    </g>
</svg>