<?xml version="1.0" encoding="UTF-8" standalone="no"?>
<svg width="28px" height="41px" viewBox="0 0 28 41" version="1.1" xmlns="http://www.w3.org/2000/svg" xmlns:xlink="http://www.w3.org/1999/xlink">
    <!-- Generator: Sketch 40.2 (33826) - http://www.bohemiancoding.com/sketch -->
    <title>Health (shadow)</title>
    <desc>Created with Sketch.</desc>
    <defs>
        <path d="M0.0555509912,8.35096663 C0.0555509912,10.168357 0.667127449,11.8907731 1.74966289,13.3256646 L8.15078685,21.8391282 C8.29179099,22.0306379 8.62123028,22.0782551 8.80953654,21.934883 C8.85670977,21.8868755 8.85670977,21.8868755 8.90336745,21.8391282 L15.3044914,13.3256646 C16.3870269,11.8907731 16.9986033,10.168357 16.9986033,8.35096663 C16.9986033,3.75941814 13.1862071,0.0286223696 8.52739937,0.0286223696 C3.86794721,0.0286223696 0.0555509912,3.75941814 0.0555509912,8.35096663 L0.0555509912,8.35096663 Z" id="path-1"></path>
        <polygon id="path-3" points="4.60253967 9.20504707 9.2050148 9.20504707 9.2050148 3.2266597e-05 4.60253967 3.2266597e-05 6.4533194e-05 3.2266597e-05 6.4533194e-05 9.20504707 4.60253967 9.20504707"></polygon>
    </defs>
    <g id="Page-1" stroke="none" stroke-width="1" fill="none" fill-rule="evenodd">
        <g id="Health-(shadow)">
            <g id="Page-1" transform="translate(5.000000, 9.000000)">
                <g id="Group-3">
                    <mask id="mask-2" fill="white">
                        <use xlink:href="#path-1"></use>
                    </mask>
                    <g id="Clip-2"></g>
                    <polygon id="Fill-1" fill="#D0021B" mask="url(#mask-2)" points="-5.1886688 27.928147 22.2430809 27.928147 22.2430809 -5.88163675 -5.1886688 -5.88163675"></polygon>
                </g>
            </g>
            <g id="Page-1" transform="translate(8.963169, 12.963169)">
                <mask id="mask-4" fill="white">
                    <use xlink:href="#path-3"></use>
                </mask>
                <g id="Clip-2"></g>
                <path d="M9.20507933,3.57872054 C9.20507933,3.40125426 9.05987965,3.25605457 8.88241336,3.25605457 L6.35368015,3.25605457 C6.17621387,3.25605457 6.03101418,3.11085489 6.03101418,2.9333886 L6.03101418,0.322698237 C6.03101418,0.145231953 5.8858145,3.2266597e-05 5.70834821,3.2266597e-05 L3.49679565,3.2266597e-05 C3.31932937,3.2266597e-05 3.17412968,0.145231953 3.17412968,0.322698237 L3.17412968,2.9333886 C3.17412968,3.11085489 3.02893,3.25605457 2.85146371,3.25605457 L0.322730503,3.25605457 C0.14526422,3.25605457 6.4533194e-05,3.40125426 6.4533194e-05,3.57872054 L6.4533194e-05,5.78995044 C6.4533194e-05,5.96741672 0.14526422,6.11261641 0.322730503,6.11261641 L2.85146371,6.11261641 C3.02893,6.11261641 3.17412968,6.25781609 3.17412968,6.43528238 L3.17412968,8.8823811 C3.17412968,9.05984738 3.31932937,9.20504707 3.49679565,9.20504707 L5.70834821,9.20504707 C5.8858145,9.20504707 6.03101418,9.05984738 6.03101418,8.8823811 L6.03101418,6.43528238 C6.03101418,6.25781609 6.17621387,6.11261641 6.35368015,6.11261641 L8.88241336,6.11261641 C9.05987965,6.11261641 9.20507933,5.96741672 9.20507933,5.78995044 L9.20507933,3.57872054 Z" id="Fill-1" fill="#FEFEFE" mask="url(#mask-4)"></path>
            </g>
        </g>
    </g>
</svg>
