<?xml version="1.0" encoding="utf-8"?>
<!-- Generator: Adobe Illustrator 21.0.2, SVG Export Plug-In . SVG Version: 6.00 Build 0)  -->
<svg version="1.1" id="Layer_1" xmlns="http://www.w3.org/2000/svg" xmlns:xlink="http://www.w3.org/1999/xlink" x="0px" y="0px"
	 viewBox="0 0 28 41" style="enable-background:new 0 0 28 41;" xml:space="preserve">
<style type="text/css">
	.st0{filter:url(#filter-2);}
	.st1{fill:#40099E;}
	.st2{fill:#FFFFFF;}
</style>
<filter  filterUnits="objectBoundingBox" height="164.0%" id="filter-2" width="182.4%" x="-41.2%" y="-22.9%">
	<feOffset  dx="0" dy="2" in="SourceAlpha" result="shadowOffsetOuter1"></feOffset>
	<feGaussianBlur  in="shadowOffsetOuter1" result="shadowBlurOuter1" stdDeviation="2"></feGaussianBlur>
	<feColorMatrix  in="shadowBlurOuter1" type="matrix" values="0 0 0 0 0   0 0 0 0 0   0 0 0 0 0  0 0 0 0.5 0"></feColorMatrix>
</filter>
<title>vet-centers-pin</title>
<desc>Created with Sketch.</desc>
<g id="Page-1">
	<g id="vet-centers-pin" transform="translate(4.000000, 2.000000)">
		<g id="path-1_4_">
			<g class="st0">
				<path id="path-1_2_" d="M2.1,16.3c0,1.8,0.6,3.5,1.7,4.9l6.4,8.5c0.1,0.2,0.5,0.2,0.7,0.1c0,0,0,0,0.1-0.1l6.4-8.5
					c1.1-1.4,1.7-3.1,1.7-4.9c0-4.6-3.8-8.3-8.5-8.3S2.1,11.7,2.1,16.3L2.1,16.3z"/>
			</g>
			<g>
				<path id="path-1_1_" class="st1" d="M2.1,16.3c0,1.8,0.6,3.5,1.7,4.9l6.4,8.5c0.1,0.2,0.5,0.2,0.7,0.1c0,0,0,0,0.1-0.1l6.4-8.5
					c1.1-1.4,1.7-3.1,1.7-4.9c0-4.6-3.8-8.3-8.5-8.3S2.1,11.7,2.1,16.3L2.1,16.3z"/>
			</g>
		</g>
		<g>
			<path class="st2" d="M8.6,17.3c-0.6,0-1.1,0.3-1.5,0.7H6.3c-0.3,0-0.6-0.1-0.8-0.2c-0.2-0.1-0.3-0.4-0.3-0.7c0-1.3,0.2-2,0.7-2
				c0,0,0.1,0,0.2,0.1c0.1,0.1,0.3,0.2,0.5,0.2c0.2,0.1,0.4,0.1,0.7,0.1c0.2,0,0.5,0,0.7-0.1c0,0.1,0,0.3,0,0.4
				C8.1,16.4,8.3,16.9,8.6,17.3z M8.4,12.7c0.3,0.3,0.4,0.6,0.4,1s-0.1,0.7-0.4,1c-0.3,0.3-0.6,0.4-1,0.4c-0.4,0-0.7-0.1-1-0.4
				c-0.3-0.3-0.4-0.6-0.4-1s0.1-0.7,0.4-1c0.3-0.3,0.6-0.4,1-0.4C7.8,12.3,8.1,12.5,8.4,12.7z M14.5,20.8c0,0.4-0.1,0.8-0.4,1.1
				c-0.3,0.3-0.6,0.4-1.1,0.4H8.2c-0.4,0-0.8-0.1-1.1-0.4c-0.3-0.3-0.4-0.6-0.4-1.1c0-0.2,0-0.4,0-0.6c0-0.2,0-0.4,0.1-0.6
				c0-0.2,0.1-0.4,0.1-0.6c0.1-0.2,0.1-0.4,0.2-0.5c0.1-0.2,0.2-0.3,0.3-0.4c0.1-0.1,0.3-0.2,0.5-0.3c0.2-0.1,0.4-0.1,0.6-0.1
				c0,0,0.1,0,0.2,0.1C9,17.9,9.1,17.9,9.3,18c0.1,0.1,0.3,0.2,0.6,0.3c0.2,0.1,0.5,0.1,0.7,0.1s0.5,0,0.7-0.1
				c0.2-0.1,0.4-0.2,0.6-0.3c0.1-0.1,0.3-0.2,0.4-0.3c0.1-0.1,0.2-0.1,0.2-0.1c0.2,0,0.4,0,0.6,0.1c0.2,0.1,0.3,0.2,0.5,0.3
				c0.1,0.1,0.2,0.3,0.3,0.4c0.1,0.2,0.2,0.4,0.2,0.5c0.1,0.2,0.1,0.4,0.1,0.6c0,0.2,0.1,0.4,0.1,0.6C14.5,20.4,14.5,20.6,14.5,20.8
				z M12.1,14.4c0.4,0.4,0.6,0.9,0.6,1.5c0,0.6-0.2,1.1-0.6,1.5c-0.4,0.4-0.9,0.6-1.5,0.6c-0.6,0-1.1-0.2-1.5-0.6
				c-0.4-0.4-0.6-0.9-0.6-1.5c0-0.6,0.2-1.1,0.6-1.5c0.4-0.4,0.9-0.6,1.5-0.6C11.2,13.7,11.7,14,12.1,14.4z M14.8,12.7
				c0.3,0.3,0.4,0.6,0.4,1s-0.1,0.7-0.4,1s-0.6,0.4-1,0.4c-0.4,0-0.7-0.1-1-0.4c-0.3-0.3-0.4-0.6-0.4-1s0.1-0.7,0.4-1
				c0.3-0.3,0.6-0.4,1-0.4C14.2,12.3,14.5,12.5,14.8,12.7z M15.9,17.1c0,0.3-0.1,0.5-0.3,0.7c-0.2,0.1-0.5,0.2-0.8,0.2h-0.7
				c-0.4-0.5-0.9-0.7-1.5-0.7c0.3-0.4,0.4-0.9,0.4-1.4c0-0.1,0-0.2,0-0.4c0.2,0.1,0.5,0.1,0.7,0.1c0.2,0,0.4,0,0.7-0.1
				c0.2-0.1,0.4-0.2,0.5-0.2c0.1-0.1,0.2-0.1,0.2-0.1C15.7,15.2,15.9,15.8,15.9,17.1z"/>
		</g>
	</g>
</g>
</svg>
