<?xml version="1.0" encoding="utf-8"?>
<!-- Generator: Adobe Illustrator 21.0.0, SVG Export Plug-In . SVG Version: 6.00 Build 0)  -->
<svg version="1.1" id="Layer_1" xmlns="http://www.w3.org/2000/svg" xmlns:xlink="http://www.w3.org/1999/xlink" x="0px" y="0px"
	 viewBox="0 0 444.8 444.8" style="enable-background:new 0 0 444.8 444.8;" xml:space="preserve">
<style type="text/css">
	.st0{fill:#FFFFFF;}
</style>
<path class="st0" d="M82.2,222.4c0,9.9,3.5,18.6,10.6,26l186.1,185.9c7,7,15.6,10.6,25.7,10.6c10.1,0,18.7-3.5,25.7-10.6l21.7-21.4
	c7-7.4,10.6-16.1,10.6-26c0-10.1-3.5-18.6-10.6-25.7L213.3,222.4L352,83.9c7-7.4,10.6-16.1,10.6-26c0-10.1-3.5-18.6-10.6-25.7
	l-21.7-21.4C323.5,3.6,314.9,0,304.6,0c-10.3,0-18.8,3.6-25.7,10.8L92.8,196.7C85.7,203.8,82.2,212.3,82.2,222.4z"/>
</svg>
