<svg id="arrow_up" class="svg-icon" width="20" height="20" xmlns="http://www.w3.org/2000/svg" viewBox="0 0 444.79999 280.4"><title>arrow-up</title><path d="M196.7,92.8L10.8,278.9a35.97826,35.97826,0,0,0,0,51.4L32.2,352a35.09547,35.09547,0,0,0,25.7,10.6,36.35907,36.35907,0,0,0,26-10.6L222.4,213.3,361.1,352a35.09545,35.09545,0,0,0,25.7,10.6,36.35907,36.35907,0,0,0,26-10.6l21.4-21.7a35.09546,35.09546,0,0,0,10.6-25.7,34.71135,34.71135,0,0,0-10.6-25.7L248.4,92.8a36.77813,36.77813,0,0,0-26-10.6,34.71131,34.71131,0,0,0-25.7,10.6h0Z" transform="translate(0 -82.2)"/></svg>