<svg id="Layer_1" data-name="Layer 1" xmlns="http://www.w3.org/2000/svg" xmlns:xlink="http://www.w3.org/1999/xlink" viewBox="0 0 27 27"><defs><style>.cls-1,.cls-2{fill:none;}.cls-1{clip-rule:evenodd;}.cls-3{clip-path:url(#clip-path);}.cls-4{clip-path:url(#clip-path-2);}.cls-5{isolation:isolate;}.cls-6{clip-path:url(#clip-path-3);}.cls-7{clip-path:url(#clip-path-4);}.cls-8{fill:#fff;}</style><clipPath id="clip-path"><polyline class="cls-1" points="1.32 25.76 26.23 25.76 26.23 1.12 1.32 1.12"/></clipPath><clipPath id="clip-path-2"><rect class="cls-2" x="-1.68" y="-2.14" width="30" height="30"/></clipPath><clipPath id="clip-path-3"><rect class="cls-2" x="1.32" y="0.86" width="25" height="25"/></clipPath><clipPath id="clip-path-4"><path class="cls-1" d="M13.77,25.76A12.39,12.39,0,0,1,1.32,13.44a12.46,12.46,0,0,1,24.91,0A12.39,12.39,0,0,1,13.77,25.76M23,13.54L14.81,7.6a1.76,1.76,0,0,0-2.06,0L4.58,13.54A1.71,1.71,0,0,0,4.2,16a1.76,1.76,0,0,0,2.44.37l7.13-5.19,7.13,5.19A1.75,1.75,0,0,0,23.34,16,1.71,1.71,0,0,0,23,13.54"/></clipPath></defs><title>cards</title><g class="cls-3"><g class="cls-4"><g class="cls-5"><g class="cls-6"><g class="cls-7"><g class="cls-6"><rect class="cls-8" x="-3.68" y="-3.88" width="34.91" height="34.64"/></g></g></g></g></g></g></svg>