<?xml version="1.0" encoding="utf-8"?>
<!-- Generated by IcoMoon.io -->
<!DOCTYPE svg PUBLIC "-//W3C//DTD SVG 1.1//EN" "http://www.w3.org/Graphics/SVG/1.1/DTD/svg11.dtd">
<svg version="1.1" xmlns="http://www.w3.org/2000/svg" xmlns:xlink="http://www.w3.org/1999/xlink" width="32" height="32" viewBox="0 0 32 32">
<path fill="#444444" d="M26.667 0h-21.334c-2.945 0-5.333 2.388-5.333 5.334v21.332c0 2.946 2.388 5.334 5.333 5.334h21.334c2.945 0 5.333-2.388 5.333-5.334l0-21.332c0-2.946-2.388-5.334-5.333-5.334zM28 20.253c0 4.281-3.484 7.747-7.795 7.747h-8.401c-4.308 0-7.804-3.466-7.804-7.747v-8.503c0.003-4.281 3.496-7.75 7.804-7.75h3.933c4.311 0 7.762 3.219 7.762 7.5 0.056 0.803 0.779 1.5 1.603 1.5h1.345c0.862 0 1.552 0.904 1.552 1.76v5.493zM22 20c0 1.1-0.9 2-2 2h-8c-1.1 0-2-0.9-2-2v0c0-1.1 0.9-2 2-2h8c1.1 0 2 0.9 2 2v0zM18 12c0 1.1-0.9 2-2 2h-4c-1.1 0-2-0.9-2-2v0c0-1.1 0.9-2 2-2h4c1.1 0 2 0.9 2 2v0z"></path>
</svg>
