<?xml version="1.0" encoding="utf-8"?>
<!-- Generated by IcoMoon.io -->
<!DOCTYPE svg PUBLIC "-//W3C//DTD SVG 1.1//EN" "http://www.w3.org/Graphics/SVG/1.1/DTD/svg11.dtd">
<svg version="1.1" xmlns="http://www.w3.org/2000/svg" xmlns:xlink="http://www.w3.org/1999/xlink" width="32" height="32" viewBox="0 0 32 32">
<path fill="#444444" d="M16 0c-8.837 0-16 7.163-16 16s7.163 16 16 16c8.837 0 16-7.163 16-16s-7.163-16-16-16zM22 8c1.105 0 2 0.895 2 2s-0.895 2-2 2-2-0.895-2-2c0-1.105 0.895-2 2-2zM10 8c1.105 0 2 0.895 2 2s-0.895 2-2 2-2-0.895-2-2c0-1.105 0.895-2 2-2zM21.469 25.33c-2.591 0.943-5.466-0.397-6.409-2.988-0.566-1.554-2.291-2.359-3.845-1.793-1.424 0.518-2.217 2.009-1.906 3.451h-2.027c-0.289-2.266 1.014-4.517 3.249-5.33 2.591-0.943 5.466 0.397 6.409 2.988 0.566 1.554 2.291 2.359 3.845 1.793 1.424-0.518 2.217-2.009 1.906-3.451h2.027c0.289 2.266-1.014 4.517-3.249 5.33z"></path>
</svg>
