<?xml version="1.0" encoding="utf-8"?>
<!-- Generated by IcoMoon.io -->
<!DOCTYPE svg PUBLIC "-//W3C//DTD SVG 1.1//EN" "http://www.w3.org/Graphics/SVG/1.1/DTD/svg11.dtd">
<svg version="1.1" xmlns="http://www.w3.org/2000/svg" xmlns:xlink="http://www.w3.org/1999/xlink" width="32" height="32" viewBox="0 0 32 32">
<path fill="#444444" d="M26.668 0h-21.334c-2.934 0-5.334 2.401-5.334 5.334v21.332c0 2.935 2.4 5.334 5.334 5.334h21.334c2.934 0 5.332-2.398 5.332-5.334v-21.332c0-2.934-2.398-5.334-5.332-5.334zM30 26.666c0 0.885-0.348 1.721-0.98 2.354s-1.467 0.98-2.352 0.98h-10.668v-14h-14v-10.666c0-0.885 0.348-1.72 0.981-2.353s1.468-0.981 2.353-0.981h10.666v14h14v10.666z"></path>
</svg>
