<?xml version="1.0" encoding="utf-8"?>
<!-- Generated by IcoMoon.io -->
<!DOCTYPE svg PUBLIC "-//W3C//DTD SVG 1.1//EN" "http://www.w3.org/Graphics/SVG/1.1/DTD/svg11.dtd">
<svg version="1.1" xmlns="http://www.w3.org/2000/svg" xmlns:xlink="http://www.w3.org/1999/xlink" width="32" height="32" viewBox="0 0 32 32">
<path fill="#444444" d="M17.558 12.719c-1.22-0.071-2.628 0.002-4.258 0.28l3.76 6.778 14.939-4.102c-0.161-0.383-0.396-0.757-0.708-1.119-1.546-1.79-4.898-3.387-8.55-4.107l0-0.001c-3.583-0.84-7.463-0.804-11.436-0.205-0.143 0.021-0.286 0.044-0.428 0.068l-1.321-2.447c-1.286 0.172-2.494 0.439-3.613 0.796l1.258 2.631c-2.055 0.796-3.741 1.93-4.958 3.295-2.007 2.283-2.8 5.153-1.836 7.948 0.194 0.564 0.456 1.099 0.779 1.6l14.94-4.103-4.148-7.683c0.142-0.027 0.287-0.055 0.435-0.082 6.709-1.197 10.378 0.652 12.388 2.62l-5.111 1.239-2.133-3.407zM5.46 19.575c-0.461-2.105-0.094-4.454 2.825-6.019l2.286 4.78-5.111 1.239z"></path>
</svg>
