<?xml version="1.0" encoding="utf-8"?>
<!-- Generated by IcoMoon.io -->
<!DOCTYPE svg PUBLIC "-//W3C//DTD SVG 1.1//EN" "http://www.w3.org/Graphics/SVG/1.1/DTD/svg11.dtd">
<svg version="1.1" xmlns="http://www.w3.org/2000/svg" xmlns:xlink="http://www.w3.org/1999/xlink" width="32" height="32" viewBox="0 0 32 32">
<path fill="#444444" d="M30.828 1.172c-1.562-1.562-4.095-1.562-5.657 0l-5.379 5.379-3.793-3.793-4.243 4.243 3.326 3.326-14.754 14.754c-0.252 0.252-0.358 0.592-0.322 0.921h-0.008v5c0 0.552 0.448 1 1 1h5c0 0 0.083 0 0.125 0 0.288 0 0.576-0.11 0.795-0.329l14.754-14.754 3.326 3.326 4.243-4.243-3.793-3.793 5.379-5.379c1.562-1.562 1.562-4.095 0-5.657zM5.409 30h-3.409v-3.409l14.674-14.674 3.409 3.409-14.674 14.674z"></path>
</svg>
