<?xml version="1.0" encoding="utf-8"?>
<!-- Generator: Adobe Illustrator 19.2.1, SVG Export Plug-In . SVG Version: 6.00 Build 0)  -->
<svg version="1.1" id="Layer_1" xmlns="http://www.w3.org/2000/svg" xmlns:xlink="http://www.w3.org/1999/xlink" x="0px" y="0px"
	 viewBox="0 0 300 300" style="enable-background:new 0 0 300 300;" xml:space="preserve">
<g>
	<path d="M86.1,1c1.4,0,2.7,0.5,3.7,1.6c1.1,1.1,1.6,2.3,1.6,3.7v244.8c0,2.2-0.9,3.8-2.8,4.7L8.8,298.3C8,298.8,7.2,299,6.3,299
		c-1.4,0-2.7-0.5-3.7-1.6c-1.1-1.1-1.6-2.3-1.6-3.7V48.9c0-2.2,0.9-3.8,2.8-4.7L83.6,1.7C84.4,1.2,85.3,1,86.1,1z M107.4,1
		c0.9,0,1.7,0.2,2.3,0.5l85.1,42.6c2,1.1,3,2.7,3,4.8v244.8c0,1.4-0.5,2.7-1.6,3.7c-1.1,1.1-2.3,1.6-3.7,1.6c-0.9,0-1.7-0.2-2.3-0.5
		l-85.1-42.6c-2-1.1-3-2.7-3-4.8V6.3c0-1.4,0.5-2.7,1.6-3.7C104.7,1.5,106,1,107.4,1z M293.7,1c1.4,0,2.7,0.5,3.7,1.6
		c1.1,1.1,1.6,2.3,1.6,3.7v244.8c0,2.2-0.9,3.8-2.8,4.7l-79.8,42.6c-0.8,0.4-1.6,0.7-2.5,0.7c-1.4,0-2.7-0.5-3.7-1.6
		c-1.1-1.1-1.6-2.3-1.6-3.7V48.9c0-2.2,0.9-3.8,2.8-4.7l79.8-42.6C292,1.2,292.8,1,293.7,1z"/>
</g>
</svg>
