<?xml version="1.0" encoding="utf-8"?>
<!-- Generated by IcoMoon.io -->
<!DOCTYPE svg PUBLIC "-//W3C//DTD SVG 1.1//EN" "http://www.w3.org/Graphics/SVG/1.1/DTD/svg11.dtd">
<svg version="1.1" xmlns="http://www.w3.org/2000/svg" xmlns:xlink="http://www.w3.org/1999/xlink" width="32" height="32" viewBox="0 0 32 32">
<path fill="#444444" d="M21.569 14.74c-1.896-0.895-4.312-1.076-6.089 0.189 2.161-0.206 4.53 0.151 6.097 1.785 1.5-1.721 3.879-2.044 6.030-1.867-1.796-1.192-4.163-1.032-6.038-0.107v0zM20.801 18.93c-2.137-0.049-4.201 0.724-5.972 1.878-3.349-1.425-7.585-1.16-10.438 1.218 0.823-0.029 1.625-0.233 2.439-0.337 2.974-0.296 6.143 0.442 8.391 2.494 0.93-1.361 2.239-2.445 3.739-3.123 1.971-0.954 4.192-1.053 6.338-1.079-1.303-0.895-2.957-1.061-4.498-1.052z"></path>
<path fill="#444444" d="M28.681 7.159c-0.694-0.947-1.662-2.053-2.724-3.116s-2.169-2.030-3.116-2.724c-1.612-1.182-2.393-1.319-2.841-1.319h-15.5c-1.378 0-2.5 1.121-2.5 2.5v27c0 1.378 1.121 2.5 2.5 2.5h23c1.378 0 2.5-1.122 2.5-2.5v-19.5c0-0.448-0.137-1.23-1.319-2.841v0zM24.543 5.457c0.959 0.959 1.712 1.825 2.268 2.543h-4.811v-4.811c0.718 0.556 1.584 1.309 2.543 2.268v0zM28 29.5c0 0.271-0.229 0.5-0.5 0.5h-23c-0.271 0-0.5-0.229-0.5-0.5v-27c0-0.271 0.229-0.5 0.5-0.5 0 0 15.499-0 15.5 0v7c0 0.552 0.448 1 1 1h7v19.5z"></path>
</svg>
