<?xml version="1.0" encoding="utf-8"?>
<!-- Generated by IcoMoon.io -->
<!DOCTYPE svg PUBLIC "-//W3C//DTD SVG 1.1//EN" "http://www.w3.org/Graphics/SVG/1.1/DTD/svg11.dtd">
<svg version="1.1" xmlns="http://www.w3.org/2000/svg" xmlns:xlink="http://www.w3.org/1999/xlink" width="32" height="32" viewBox="0 0 32 32">
<path fill="#444444" d="M31.397 14.575l-13.972-13.971c-0.804-0.805-2.109-0.805-2.915 0l-3.246 3.246 2.443 2.443c0.392-0.187 0.83-0.293 1.293-0.293 1.657 0 3 1.343 3 3 0 0.463-0.105 0.902-0.293 1.293l3.999 3.999c0.392-0.187 0.83-0.293 1.293-0.293 1.657 0 3 1.343 3 3s-1.343 3-3 3-3-1.343-3-3c0-0.463 0.105-0.902 0.293-1.293l-3.999-3.999c-0.095 0.046-0.193 0.086-0.293 0.121v8.343c1.165 0.412 2 1.522 2 2.829 0 1.657-1.343 3-3 3s-3-1.343-3-3c0-1.306 0.835-2.417 2-2.829v-8.343c-1.165-0.412-2-1.522-2-2.829 0-0.463 0.105-0.902 0.293-1.293l-2.443-2.443-9.247 9.246c-0.805 0.806-0.805 2.11 0 2.915l13.973 13.971c0.804 0.805 2.109 0.805 2.915 0l13.906-13.906c0.805-0.805 0.805-2.111-0-2.915z"></path>
</svg>
