<?xml version="1.0" encoding="utf-8"?>
<!-- Generator: Adobe Illustrator 19.1.0, SVG Export Plug-In . SVG Version: 6.00 Build 0)  -->
<svg version="1.1" id="Layer_1" xmlns="http://www.w3.org/2000/svg" xmlns:xlink="http://www.w3.org/1999/xlink" x="0px" y="0px"
	 width="18px" height="15.4px" viewBox="180.1 747.8 18 15.4" style="enable-background:new 180.1 747.8 18 15.4;"
	 xml:space="preserve">
<style type="text/css">
	.st0{fill:#FFFFFF;}
</style>
<g>
	<path class="st0" d="M190.6,763.2h-9.8c-0.4,0-0.7-0.3-0.7-0.7v-14c0-0.4,0.3-0.7,0.7-0.7h9.8c0.4,0,0.7,0.3,0.7,0.7v3.2
		c0,0.4-0.3,0.7-0.7,0.7s-0.7-0.3-0.7-0.7v-2.6h-8.5v12.6h8.5v-2.4c0-0.4,0.3-0.7,0.7-0.7s0.7,0.3,0.7,0.7v3.1
		C191.3,762.9,191,763.2,190.6,763.2z"/>
</g>
<g>
	<g>
		<path class="st0" d="M198.1,755.7L198.1,755.7c0,0.1-0.1,0.1-0.1,0.2c0,0,0,0.1-0.1,0.1c0,0,0,0.1-0.1,0.1l-3.2,3.2
			c-0.1,0.1-0.3,0.2-0.5,0.2s-0.4-0.1-0.5-0.2c-0.2-0.2-0.2-0.7,0-1l1.9-1.9h-8.9c-0.4,0-0.7-0.3-0.7-0.7s0.3-0.7,0.7-0.7h8.9
			l-1.9-1.9c-0.2-0.2-0.2-0.7,0-1c0.2-0.2,0.7-0.2,1,0l3.2,3.2c0.1,0.1,0.1,0.1,0.1,0.2v0.1l0,0c0,0,0,0,0,0.1
			C198.1,755.4,198.1,755.5,198.1,755.7z"/>
	</g>
</g>
</svg>
