<?xml version="1.0" encoding="utf-8"?>
<!-- Generated by IcoMoon.io -->
<!DOCTYPE svg PUBLIC "-//W3C//DTD SVG 1.1//EN" "http://www.w3.org/Graphics/SVG/1.1/DTD/svg11.dtd">
<svg version="1.1" xmlns="http://www.w3.org/2000/svg" xmlns:xlink="http://www.w3.org/1999/xlink" width="32" height="32" viewBox="0 0 32 32">
<path fill="#444444" d="M26.625 0h-21.25c-2.956 0-5.375 2.419-5.375 5.375v21.25c0 2.956 2.419 5.375 5.375 5.375h21.25c2.956 0 5.375-2.419 5.375-5.375v-21.25c0-2.956-2.419-5.375-5.375-5.375zM26.365 25.24c-3.542 1.167-10.458 3.438-11.75 3.76s-2.625 0.865-3.375-1.302c0 0-6.375-18.833-6.958-20.5s-1.151-2.671 0.167-3.198c3.043-1.215 6.208-2.766 6.792-1 0.522 1.58 6.083 19 6.083 19s6.542-2.302 8.333-2.802 2.406-0.833 2.875 1.625 1.375 3.25-2.167 4.417z"></path>
</svg>
