<?xml version="1.0" encoding="utf-8"?>
<!-- Generated by IcoMoon.io -->
<!DOCTYPE svg PUBLIC "-//W3C//DTD SVG 1.1//EN" "http://www.w3.org/Graphics/SVG/1.1/DTD/svg11.dtd">
<svg version="1.1" xmlns="http://www.w3.org/2000/svg" xmlns:xlink="http://www.w3.org/1999/xlink" width="32" height="32" viewBox="0 0 32 32">
<path fill="#444444" d="M26.729 28.67c-0.367 0-2.613-0.413-2.751-0.917-0.321-1.238-0.367-2.567-0.367-4.080v-16.905c0-2.521 0.504-3.989 0.504-3.989-0.046-0.229-0.275-0.734-0.55-0.734h-0.138c-0.137 0-1.742 1.009-3.209 1.009-1.192-0-1.934-1.055-3.309-1.055-5.785 0-8.498 4.697-8.498 11.345v0.346c0 0.138-0.092 0.275-0.229 0.275h-1.88c-0.229 0-0.688 1.284-0.688 1.88 0 0.183 0.046 0.275 0.138 0.275h2.43c0.138 0 0.229 0.183 0.229 0.321 0 4.080-0.046 8.103-0.046 8.103 0 0.642-0.046 2.063-0.321 3.209-0.138 0.504-2.246 0.917-2.796 0.917-0.229 0-0.229 1.1 0 1.33 1.88-0.092 3.117-0.229 4.997-0.229 1.742 0 3.072 0.137 4.905 0.229 0.092-0.275 0.092-1.33-0.137-1.33-0.367 0-2.613-0.413-2.751-0.917-0.321-1.238-0.321-2.567-0.367-4.080v-7.278c0-0.138 0.138-0.275 0.275-0.275h4.722c0.321-0.642 0.55-1.421 0.55-1.834 0-0.275 0-0.321-0.229-0.321h-5.089c-0.092 0-0.229-0.138-0.229-0.229v-1.651c0-4.080 1.671-7.673 4.468-7.673 1.98 0 3.708 1.283 3.708 6.185 0 0 0 0 0 0.001 0.006 0.126 0.010 0.228 0.010 0.295v13.65c0 0.642-0.046 2.063-0.321 3.209-0.138 0.504-2.246 0.917-2.797 0.917-0.229 0-0.229 1.1 0 1.33 1.88-0.092 3.118-0.229 4.997-0.229 1.742 0 3.072 0.137 4.905 0.229 0.091-0.275 0.091-1.329-0.138-1.329z"></path>
</svg>
