<?xml version="1.0" encoding="utf-8"?>
<!-- Generated by IcoMoon.io -->
<!DOCTYPE svg PUBLIC "-//W3C//DTD SVG 1.1//EN" "http://www.w3.org/Graphics/SVG/1.1/DTD/svg11.dtd">
<svg version="1.1" xmlns="http://www.w3.org/2000/svg" xmlns:xlink="http://www.w3.org/1999/xlink" width="32" height="32" viewBox="0 0 32 32">
<path fill="#444444" d="M24 27.244c0-0.001 0-0.002 0-0.004l-0.011-13.643-3.984 0.193h-7.873v-0.672c0-2.548 0.181-5.093 0.539-6.085 0.247-0.686 0.706-1.304 1.366-1.839 0.644-0.522 1.287-0.787 1.91-0.787 0.524 0 0.959 0.090 1.294 0.267 0.47 0.268 0.929 0.718 1.365 1.338 1.155 1.641 1.625 2.077 1.878 2.262 0.431 0.315 0.954 0.475 1.552 0.475 0.583 0 1.093-0.218 1.514-0.647 0.418-0.426 0.63-0.959 0.63-1.583 0-0.67-0.279-1.381-0.828-2.113-0.537-0.715-1.366-1.304-2.464-1.751-1.073-0.436-2.279-0.658-3.587-0.658-1.897 0-3.625 0.456-5.136 1.356-1.513 0.901-2.674 2.155-3.449 3.726-0.719 1.456-0.667 4.21-0.71 6.71h-3.929v2.231h3.925v10.146c0 2.24-0.685 2.844-0.944 3.166-0.357 0.444-1.017 0.91-1.889 0.91h-1.208v1.755h12.041v-1.755h-0.21c-2.848 0-3.657-0.307-3.657-3.776 0-0.001 0-0.001 0-0.002l-0.001-10.444h4.381c2.325 0 2.859 0.108 2.981 0.154 0.147 0.056 0.337 0.151 0.409 0.286 0.027 0.053 0.162 0.782 0.162 2.593v7.833c0 1.827-0.223 2.434-0.358 2.638-0.289 0.444-0.638 0.69-1.708 0.716v1.758h9.175v-1.745c-2.863 0-3.175-0.307-3.175-3.010z"></path>
</svg>
