<?xml version="1.0" encoding="utf-8"?>
<!-- Generated by IcoMoon.io -->
<!DOCTYPE svg PUBLIC "-//W3C//DTD SVG 1.1//EN" "http://www.w3.org/Graphics/SVG/1.1/DTD/svg11.dtd">
<svg version="1.1" xmlns="http://www.w3.org/2000/svg" xmlns:xlink="http://www.w3.org/1999/xlink" width="32" height="32" viewBox="0 0 32 32">
<path fill="#444444" d="M22 16v12h2v-12h5l-6-6-6 6z"></path>
<path fill="#444444" d="M2 6h3v2h-3v-2z"></path>
<path fill="#444444" d="M6 6h3v2h-3v-2z"></path>
<path fill="#444444" d="M10 6h2v3h-2v-3z"></path>
<path fill="#444444" d="M2 13h2v3h-2v-3z"></path>
<path fill="#444444" d="M5 14h3v2h-3v-2z"></path>
<path fill="#444444" d="M9 14h3v2h-3v-2z"></path>
<path fill="#444444" d="M2 9h2v3h-2v-3z"></path>
<path fill="#444444" d="M10 10h2v3h-2v-3z"></path>
<path fill="#444444" d="M10 22v6h-6v-6h6zM12 20h-10v10h10v-10z"></path>
</svg>
