<?xml version="1.0" encoding="utf-8"?>
<!-- Generated by IcoMoon.io -->
<!DOCTYPE svg PUBLIC "-//W3C//DTD SVG 1.1//EN" "http://www.w3.org/Graphics/SVG/1.1/DTD/svg11.dtd">
<svg version="1.1" xmlns="http://www.w3.org/2000/svg" xmlns:xlink="http://www.w3.org/1999/xlink" width="32" height="32" viewBox="0 0 32 32">
<path fill="#444444" d="M20.261 2c0.885 0 1.779 0.181 2.583 0.524 0.846 0.361 1.541 0.873 2.066 1.521 1.050 1.298 1.345 3.067 0.877 5.257-0.51 2.387-1.7 4.374-3.442 5.746-1.699 1.338-3.844 2.045-6.203 2.045h-7.502l-2.018 9.46h-4.138l5.349-24.553h12.429zM8.931 15.625h6.37c1.482 0 2.984-0.568 4.229-1.599 1.213-1.005 2.071-2.36 2.419-3.819 0.434-1.641 0.145-3.286-0.797-4.517-0.912-1.192-2.34-1.875-3.917-1.875h-5.634l-2.669 11.81zM20.261 0h-14.040l-6.221 28.553h4.751l-0.751 3.447h8.239l2.018-9.46h5.883c5.633 0 10.342-3.471 11.602-9.373 1.054-4.928-1.275-7.873-4.222-9.080 0.803 0.393 1.503 0.953 2.016 1.64 1.079 1.447 1.382 3.418 0.901 5.858-0.486 2.47-1.575 4.554-3.161 6.064-0.29 0.303-0.601 0.586-0.931 0.846-1.699 1.338-3.844 2.045-6.203 2.045h-7.502l-2.018 9.46h-4.138l0.315-1.447h1.442l2.018-9.46h5.883c5.633 0 10.342-3.471 11.602-9.373 1.429-6.682-3.362-9.72-7.482-9.72v0zM11.433 13.625l1.765-7.81h4.035c2.018 0 3.363 1.736 2.775 3.905-0.504 2.17-2.606 3.905-4.707 3.905h-3.867z"></path>
</svg>
