<?xml version="1.0" encoding="utf-8"?>
<!-- Generated by IcoMoon.io -->
<!DOCTYPE svg PUBLIC "-//W3C//DTD SVG 1.1//EN" "http://www.w3.org/Graphics/SVG/1.1/DTD/svg11.dtd">
<svg version="1.1" xmlns="http://www.w3.org/2000/svg" xmlns:xlink="http://www.w3.org/1999/xlink" width="32" height="32" viewBox="0 0 32 32">
<path fill="#444444" d="M26.668 0h-21.334c-2.934 0-5.334 2.4-5.334 5.334v21.332c0 2.936 2.4 5.334 5.334 5.334h21.334c2.934 0 5.332-2.399 5.332-5.334v-21.332c0-2.933-2.399-5.334-5.332-5.334zM16 2c2.147 0 4.181 0.484 6 1.348v8.973l-9.799-9.799c1.208-0.34 2.482-0.522 3.799-0.522zM2 16c0-5.497 3.168-10.252 7.777-12.543l3.543 3.543-11.155 11.155c-0.109-0.703-0.165-1.422-0.165-2.155zM8 27.489c-2.334-1.628-4.149-3.948-5.146-6.664l5.146-5.146v11.81zM16 30c-2.147 0-4.181-0.484-6-1.348v-4.652h17.489c-2.53 3.627-6.732 6-11.489 6zM28.652 22h-4.652v-17.489c3.627 2.53 6 6.732 6 11.489 0 2.147-0.484 4.181-1.348 6z"></path>
</svg>
