<?xml version="1.0" encoding="utf-8"?>
<!-- Generated by IcoMoon.io -->
<!DOCTYPE svg PUBLIC "-//W3C//DTD SVG 1.1//EN" "http://www.w3.org/Graphics/SVG/1.1/DTD/svg11.dtd">
<svg version="1.1" xmlns="http://www.w3.org/2000/svg" xmlns:xlink="http://www.w3.org/1999/xlink" width="32" height="32" viewBox="0 0 32 32">
<path fill="#444444" d="M30 13v5c0 1.654-1.346 3-3 3-0.535 0-1.037-0.14-1.472-0.387-0.534 0.833-1.468 1.387-2.528 1.387-0.768 0-1.469-0.29-2-0.766-0.531 0.476-1.232 0.766-2 0.766-0.35 0-0.687-0.060-1-0.171v7.171c0 1.654-1.346 3-3 3s-3-1.346-3-3v-12.334l-5.501 2.932c-0.454 0.262-0.973 0.401-1.499 0.401-1.654 0-3-1.346-3-3 0-0.824 0.327-1.592 0.921-2.163 0.008-0.007 0.015-0.015 0.023-0.022l7.474-6.815h-1.419c-0.552 0-1-0.448-1-1v-6c0-0.552 0.448-1 1-1h20c0.552 0 1 0.448 1 1v6c0 0.552-0.448 1-1 1h-1.382l2.276 4.553c0.070 0.139 0.106 0.292 0.106 0.447zM28 5c0-0.552-0.448-1-1-1s-1 0.448-1 1 0.448 1 1 1 1-0.448 1-1zM28 13.236l-2.618-5.236h-11.995l-9.088 8.287c-0.193 0.19-0.299 0.443-0.299 0.713 0 0.551 0.449 1 1 1 0.171 0 0.332-0.041 0.479-0.122 0.017-0.010 0.033-0.020 0.051-0.029l7-3.732c0.31-0.165 0.684-0.156 0.985 0.025s0.485 0.506 0.485 0.857v14c0 0.551 0.449 1 1 1s1-0.449 1-1v-10c0-0.552 0.448-1 1-1s1 0.448 1 1c0 0.551 0.449 1 1 1s1-0.449 1-1c0-0.552 0.448-1 1-1s1 0.448 1 1c0 0.551 0.449 1 1 1s1-0.449 1-1v-1c0-0.552 0.448-1 1-1s1 0.448 1 1c0 0.551 0.449 1 1 1s1-0.449 1-1v-4.764z"></path>
</svg>
