<?xml version="1.0" encoding="utf-8"?>
<!-- Generated by IcoMoon.io -->
<!DOCTYPE svg PUBLIC "-//W3C//DTD SVG 1.1//EN" "http://www.w3.org/Graphics/SVG/1.1/DTD/svg11.dtd">
<svg version="1.1" xmlns="http://www.w3.org/2000/svg" xmlns:xlink="http://www.w3.org/1999/xlink" width="32" height="32" viewBox="0 0 32 32">
<path fill="#444444" d="M8 2h16v4h-16v-4z"></path>
<path fill="#444444" d="M30 8h-28c-1.1 0-2 0.9-2 2v10c0 1.1 0.9 2 2 2h6v8h16v-8h6c1.1 0 2-0.9 2-2v-10c0-1.1-0.9-2-2-2zM4 14c-1.105 0-2-0.895-2-2s0.895-2 2-2 2 0.895 2 2-0.895 2-2 2zM22 28h-12v-10h12v10z"></path>
</svg>
