<?xml version="1.0" encoding="utf-8"?>
<!-- Generated by IcoMoon.io -->
<!DOCTYPE svg PUBLIC "-//W3C//DTD SVG 1.1//EN" "http://www.w3.org/Graphics/SVG/1.1/DTD/svg11.dtd">
<svg version="1.1" xmlns="http://www.w3.org/2000/svg" xmlns:xlink="http://www.w3.org/1999/xlink" width="32" height="32" viewBox="0 0 32 32">
<path fill="#444444" d="M16 2c-0.752 0-1.491 0.056-2.213 0.163-0.009-0.024-0.020-0.048-0.031-0.072 0.401-0.313 0.611-0.745 0.52-1.173-0.117-0.549-0.7-0.918-1.451-0.918-0.162 0-0.327 0.018-0.49 0.052-0.943 0.2-1.567 0.894-1.421 1.58 0.089 0.417 0.447 0.729 0.943 0.856-0.001 0.030-0.001 0.061 0.001 0.092-6.269 1.798-10.857 7.573-10.857 14.42 0 8.284 6.716 15 15 15s15-6.716 15-15c0-8.284-6.716-15-15-15zM11.403 1.528c-0.085-0.398 0.39-0.85 1.036-0.987 0.129-0.027 0.259-0.041 0.386-0.041 0.501 0 0.897 0.215 0.962 0.522 0.050 0.235-0.096 0.488-0.356 0.684-0.22-0.155-0.501-0.223-0.784-0.162-0.283 0.060-0.511 0.235-0.649 0.464-0.318-0.077-0.547-0.253-0.595-0.48zM24.043 25.043c-1.374 1.374-3.038 2.352-4.853 2.88l-1.325-2.149-0.336 2.499c-0.503 0.067-1.013 0.102-1.529 0.102-3.038 0-5.895-1.183-8.043-3.332-1.374-1.374-2.352-3.038-2.88-4.853l2.149-1.325-2.499-0.336c-0.067-0.503-0.102-1.013-0.102-1.529 0-3.038 1.183-5.895 3.332-8.043 1.374-1.374 3.038-2.352 4.853-2.88l1.325 2.149 0.336-2.499c0.503-0.067 1.013-0.102 1.529-0.102 3.038 0 5.895 1.183 8.043 3.332 1.374 1.374 2.352 3.038 2.88 4.853l-2.149 1.325 2.499 0.336c0.067 0.503 0.102 1.013 0.102 1.529 0 3.038-1.183 5.895-3.332 8.043zM23.778 9.222l-6.156 4.678c-0.458-0.239-0.965-0.377-1.482-0.398l-1.596-3.349-0.096 3.708c-0.415 0.204-0.784 0.489-1.090 0.842l-1.972-0.699 1.44 1.517c-0.198 0.422-0.308 0.876-0.326 1.338l-3.349 1.596 3.711 0.096c0.012 0.024 0.024 0.048 0.037 0.071l-4.678 6.156 6.156-4.678c0.458 0.239 0.965 0.377 1.482 0.398l1.596 3.349 0.096-3.708c0.415-0.204 0.785-0.489 1.090-0.842l1.972 0.699-1.44-1.517c0.198-0.422 0.308-0.876 0.326-1.338l3.349-1.596-3.71-0.096c-0.012-0.024-0.024-0.048-0.037-0.071l4.678-6.156zM16.003 13.892v0zM15.376 14.066c0.21-0.045 0.42-0.066 0.627-0.066 0.13 0 0.258 0.008 0.384 0.025l0.003 0.001-0-0.001c0.273 0.036 0.537 0.109 0.785 0.216l-2.236 1.699-1.699 2.236c-0.074-0.175-0.133-0.359-0.174-0.552-0.345-1.621 0.69-3.214 2.311-3.558zM17.566 19.559v0 0c-0.283 0.173-0.599 0.303-0.942 0.376-0.21 0.045-0.42 0.066-0.627 0.066-0.13 0-0.258-0.009-0.385-0.025l-0.002-0c-0.273-0.036-0.537-0.109-0.785-0.215l2.236-1.699 1.699-2.236c0.074 0.175 0.133 0.359 0.174 0.552 0.272 1.278-0.314 2.538-1.368 3.183z"></path>
</svg>
