<?xml version="1.0" encoding="utf-8"?>
<!-- Generated by IcoMoon.io -->
<!DOCTYPE svg PUBLIC "-//W3C//DTD SVG 1.1//EN" "http://www.w3.org/Graphics/SVG/1.1/DTD/svg11.dtd">
<svg version="1.1" xmlns="http://www.w3.org/2000/svg" xmlns:xlink="http://www.w3.org/1999/xlink" width="32" height="32" viewBox="0 0 32 32">
<path fill="#444444" d="M15.499 32c-1.543 0-2.847-0.45-3.878-1.338-1.038-0.894-1.565-1.939-1.565-3.104 0-0.567 0.206-1.055 0.613-1.452 0.414-0.404 0.931-0.617 1.495-0.617 0.563 0 1.069 0.2 1.463 0.579 0.39 0.374 0.587 0.869 0.587 1.472 0 0.354-0.058 0.744-0.172 1.161-0.113 0.412-0.137 0.623-0.137 0.728 0 0.115 0.029 0.252 0.243 0.399 0.399 0.276 0.877 0.409 1.465 0.409 0.706 0 1.335-0.246 1.924-0.751 0.581-0.498 0.863-1.010 0.863-1.564 0-0.617-0.165-1.151-0.504-1.633-0.573-0.805-1.652-1.749-3.207-2.802-2.496-1.67-4.158-3.118-5.081-4.422-0.715-1.021-1.077-2.122-1.077-3.272 0-1.158 0.379-2.311 1.128-3.426 0.641-0.955 1.588-1.816 2.82-2.567-0.659-0.709-1.153-1.377-1.472-1.99-0.402-0.774-0.606-1.574-0.606-2.379 0-1.494 0.591-2.786 1.756-3.84s2.621-1.59 4.323-1.59c1.565 0 2.881 0.44 3.912 1.308 1.041 0.878 1.569 1.903 1.569 3.048 0 0.583-0.218 1.105-0.649 1.552l-0.009 0.009c-0.249 0.248-0.707 0.543-1.47 0.543-0.598 0-1.123-0.196-1.517-0.567-0.392-0.369-0.592-0.81-0.592-1.311 0-0.217 0.053-0.544 0.167-1.031 0.056-0.23 0.083-0.442 0.083-0.633 0-0.323-0.116-0.571-0.366-0.78-0.259-0.217-0.628-0.322-1.129-0.322-0.777 0-1.415 0.236-1.95 0.722-0.537 0.488-0.798 1.065-0.798 1.766 0 0.63 0.143 1.149 0.424 1.543 0.535 0.748 1.462 1.556 2.757 2.401 2.63 1.706 4.466 3.271 5.454 4.651 0.73 1.035 1.099 2.136 1.099 3.275 0 1.144-0.371 2.297-1.104 3.427-0.631 0.974-1.585 1.852-2.84 2.616 0.693 0.733 1.182 1.376 1.486 1.954 0.378 0.718 0.569 1.502 0.569 2.329 0 1.552-0.591 2.871-1.758 3.919s-2.621 1.58-4.322 1.58zM13.95 11.136c-1.507 0.905-2.241 1.943-2.241 3.166 0 0.711 0.203 1.348 0.621 1.946 0.623 0.873 1.852 1.939 3.65 3.165 0.761 0.518 1.449 1.022 2.050 1.502 1.533-0.922 2.28-1.949 2.28-3.131 0-0.644-0.254-1.337-0.756-2.060-0.525-0.756-1.652-1.744-3.348-2.935-0.885-0.611-1.642-1.167-2.255-1.654z"></path>
</svg>
