<?xml version="1.0" encoding="utf-8"?>
<!-- Generated by IcoMoon.io -->
<!DOCTYPE svg PUBLIC "-//W3C//DTD SVG 1.1//EN" "http://www.w3.org/Graphics/SVG/1.1/DTD/svg11.dtd">
<svg version="1.1" xmlns="http://www.w3.org/2000/svg" xmlns:xlink="http://www.w3.org/1999/xlink" width="32" height="32" viewBox="0 0 32 32">
<path fill="#444444" d="M26.668 0h-21.334c-2.934 0-5.334 2.4-5.334 5.334v14.666l0.5-2h1l0.5 2-0.5 2h-1l-0.5-2v6.666c0 2.936 2.4 5.334 5.334 5.334h21.334c2.934 0 5.332-2.399 5.332-5.334v-6.631c0 2.19-1.846 3.965-4.125 3.965-0.074 0-11.424-0.006-11.434-0.007-0.246-0.024-0.441-0.226-0.441-0.469v-12.585c0-0.231 0.082-0.35 0.393-0.466 0.801-0.298 1.704-0.474 2.635-0.474 3.803 0 6.922 2.803 7.25 6.377 0.491-0.198 1.031-0.308 1.596-0.308 2.278 0 4.126 1.776 4.126 3.966v-14.701c0-2.934-2.399-5.334-5.332-5.334zM5.5 24h-1l-0.5-4 0.5-4h1l0.5 4-0.5 4zM9.5 24h-1l-0.5-5.086 0.5-4.914h1l0.5 5-0.5 5zM13.5 24h-1l-0.5-7.007 0.5-6.993h1l0.5 6.993-0.5 7.007z"></path>
</svg>
