<?xml version="1.0" encoding="utf-8"?>
<!-- Generated by IcoMoon.io -->
<!DOCTYPE svg PUBLIC "-//W3C//DTD SVG 1.1//EN" "http://www.w3.org/Graphics/SVG/1.1/DTD/svg11.dtd">
<svg version="1.1" xmlns="http://www.w3.org/2000/svg" xmlns:xlink="http://www.w3.org/1999/xlink" width="32" height="32" viewBox="0 0 32 32">
<path fill="#444444" d="M0 6v22h32v-22h-32zM12 20v-4h8v4h-8zM20 22v4h-8v-4h8zM20 10v4h-8v-4h8zM10 10v4h-8v-4h8zM2 16h8v4h-8v-4zM22 16h8v4h-8v-4zM22 14v-4h8v4h-8zM2 22h8v4h-8v-4zM22 26v-4h8v4h-8z"></path>
</svg>
