<?xml version="1.0" encoding="utf-8"?>
<!-- Generated by IcoMoon.io -->
<!DOCTYPE svg PUBLIC "-//W3C//DTD SVG 1.1//EN" "http://www.w3.org/Graphics/SVG/1.1/DTD/svg11.dtd">
<svg version="1.1" xmlns="http://www.w3.org/2000/svg" xmlns:xlink="http://www.w3.org/1999/xlink" width="32" height="32" viewBox="0 0 32 32">
<path fill="#444444" d="M16 0c-8.837 0-16 7.163-16 16s7.163 16 16 16 16-7.163 16-16-7.163-16-16-16zM10.796 20.013h-2.892c-0.174 0-0.304-0.078-0.378-0.197-0.076-0.123-0.080-0.283 0-0.442l3.073-5.408c0.003-0.006 0.003-0.010 0-0.016l-1.955-3.376c-0.081-0.161-0.093-0.319-0.016-0.442 0.074-0.119 0.22-0.18 0.394-0.18h2.892c0.444 0 0.661 0.285 0.805 0.541 0 0 1.976 3.439 1.988 3.458-0.117 0.206-3.122 5.507-3.122 5.507-0.148 0.266-0.356 0.557-0.789 0.557zM24.47 6.629l-6.403 11.292c-0.004 0.006-0.004 0.013 0 0.019l4.077 7.43c0.081 0.16 0.083 0.323 0.006 0.446-0.074 0.119-0.21 0.184-0.384 0.184h-2.889c-0.443 0-0.665-0.294-0.808-0.549 0 0-4.098-7.5-4.109-7.519 0.205-0.362 6.435-11.382 6.435-11.382 0.155-0.278 0.342-0.549 0.774-0.549h2.921c0.174 0 0.311 0.066 0.384 0.184 0.076 0.123 0.074 0.286-0.006 0.445z"></path>
</svg>
