<?xml version="1.0" encoding="utf-8"?>
<!-- Generated by IcoMoon.io -->
<!DOCTYPE svg PUBLIC "-//W3C//DTD SVG 1.1//EN" "http://www.w3.org/Graphics/SVG/1.1/DTD/svg11.dtd">
<svg version="1.1" xmlns="http://www.w3.org/2000/svg" xmlns:xlink="http://www.w3.org/1999/xlink" width="32" height="32" viewBox="0 0 32 32">
<path fill="#444444" d="M26.667 0h-21.333c-2.934 0-5.334 2.4-5.334 5.334v21.332c0 2.936 2.4 5.334 5.334 5.334h21.333c2.934 0 5.333-2.398 5.333-5.334v-21.332c0-2.934-2.399-5.334-5.333-5.334zM9.743 20.837h-3.477c-0.209 0-0.366-0.094-0.454-0.237-0.092-0.149-0.096-0.341 0-0.533l3.694-6.52c0.004-0.007 0.004-0.012 0-0.020l-2.351-4.070c-0.097-0.194-0.111-0.385-0.020-0.533 0.089-0.144 0.265-0.217 0.474-0.217h3.477c0.533 0 0.795 0.344 0.968 0.652 0 0 2.376 4.146 2.391 4.168-0.141 0.248-3.754 6.638-3.754 6.638-0.178 0.321-0.428 0.672-0.948 0.672zM26.185 4.704l-7.698 13.612c-0.005 0.007-0.005 0.016 0 0.023l4.902 8.956c0.097 0.193 0.1 0.389 0.007 0.537-0.088 0.143-0.252 0.222-0.461 0.222h-3.473c-0.533 0-0.799-0.354-0.971-0.662 0 0-4.928-9.040-4.941-9.064 0.246-0.436 7.737-13.72 7.737-13.72 0.186-0.335 0.412-0.662 0.931-0.662h3.513c0.209 0 0.374 0.079 0.462 0.222 0.092 0.149 0.089 0.344-0.007 0.537z"></path>
</svg>
