<?xml version="1.0" encoding="utf-8"?>
<!-- Generated by IcoMoon.io -->
<!DOCTYPE svg PUBLIC "-//W3C//DTD SVG 1.1//EN" "http://www.w3.org/Graphics/SVG/1.1/DTD/svg11.dtd">
<svg version="1.1" xmlns="http://www.w3.org/2000/svg" xmlns:xlink="http://www.w3.org/1999/xlink" width="32" height="32" viewBox="0 0 32 32">
<path fill="#444444" d="M26 4h-20c-3.3 0-6 2.7-6 6v12c0 3.3 2.7 6 6 6h20c3.3 0 6-2.7 6-6v-12c0-3.3-2.7-6-6-6zM30 22c0 1.062-0.418 2.064-1.177 2.823s-1.761 1.177-2.823 1.177h-20c-1.062 0-2.064-0.418-2.823-1.177s-1.177-1.762-1.177-2.823v-12c0-1.062 0.418-2.064 1.177-2.823s1.761-1.177 2.823-1.177h20c1.062 0 2.064 0.418 2.823 1.177s1.177 1.761 1.177 2.823v12zM12 24l10-8-10-8z"></path>
</svg>
