<?xml version="1.0" encoding="UTF-8" standalone="no"?>
<!DOCTYPE svg PUBLIC "-//W3C//DTD SVG 1.1//EN"
 "http://www.w3.org/Graphics/SVG/1.1/DTD/svg11.dtd">
<!-- Generated by graphviz version 2.49.0 (20210828.1703)
 -->
<!-- Title: environments_mapping Pages: 1 -->
<svg width="1096pt" height="735pt"
 viewBox="0.00 0.00 1095.98 735.31" xmlns="http://www.w3.org/2000/svg" xmlns:xlink="http://www.w3.org/1999/xlink">
<g id="graph0" class="graph" transform="scale(1 1) rotate(0) translate(4 731.31)">
<title>environments_mapping</title>
<polygon fill="white" stroke="transparent" points="-4,4 -4,-731.31 1091.98,-731.31 1091.98,4 -4,4"/>
<text text-anchor="middle" x="543.99" y="-704.11" font-family="Times,serif" font-size="24.00">Check In Experience System Environments Mapping</text>
<!-- cnpd -->
<g id="node1" class="node">
<title>cnpd</title>
<ellipse fill="none" stroke="black" cx="230.73" cy="-511.56" rx="77.19" ry="18"/>
<text text-anchor="middle" x="230.73" y="-507.86" font-family="Times,serif" font-size="14.00">CHIP NONPROD</text>
</g>
<!-- ldev -->
<g id="node5" class="node">
<title>ldev</title>
<ellipse fill="none" stroke="black" cx="163.06" cy="-675.31" rx="65.79" ry="18"/>
<text text-anchor="middle" x="163.06" y="-671.61" font-family="Times,serif" font-size="14.00">LoROTA DEV</text>
</g>
<!-- cnpd&#45;&gt;ldev -->
<g id="edge1" class="edge">
<title>cnpd&#45;&gt;ldev</title>
<path fill="none" stroke="black" d="M223.23,-529.71C211.39,-558.36 188.3,-614.25 174.42,-647.83"/>
<polygon fill="black" stroke="black" points="171.18,-646.5 170.6,-657.08 177.65,-649.17 171.18,-646.5"/>
</g>
<!-- vast -->
<g id="node15" class="node">
<title>vast</title>
<ellipse fill="none" stroke="black" cx="374.24" cy="-382.69" rx="89.08" ry="18"/>
<text text-anchor="middle" x="374.24" y="-378.99" font-family="Times,serif" font-size="14.00">VistA API STAGING</text>
</g>
<!-- cnpd&#45;&gt;vast -->
<g id="edge2" class="edge">
<title>cnpd&#45;&gt;vast</title>
<path fill="none" stroke="black" d="M250.38,-493.91C275.36,-471.48 318.62,-432.64 346.83,-407.3"/>
<polygon fill="black" stroke="black" points="349.26,-409.82 354.36,-400.54 344.58,-404.62 349.26,-409.82"/>
</g>
<!-- cint -->
<g id="node2" class="node">
<title>cint</title>
<ellipse fill="none" stroke="black" cx="549.31" cy="-462.66" rx="48.99" ry="18"/>
<text text-anchor="middle" x="549.31" y="-458.96" font-family="Times,serif" font-size="14.00">CHIP INT</text>
</g>
<!-- lint -->
<g id="node6" class="node">
<title>lint</title>
<ellipse fill="none" stroke="black" cx="659.57" cy="-601.26" rx="61.99" ry="18"/>
<text text-anchor="middle" x="659.57" y="-597.56" font-family="Times,serif" font-size="14.00">LoROTA INT</text>
</g>
<!-- cint&#45;&gt;lint -->
<g id="edge5" class="edge">
<title>cint&#45;&gt;lint</title>
<path fill="none" stroke="black" d="M563.05,-479.94C582.09,-503.87 616.66,-547.33 638.85,-575.21"/>
<polygon fill="black" stroke="black" points="636.34,-577.68 645.31,-583.33 641.82,-573.33 636.34,-577.68"/>
</g>
<!-- cint&#45;&gt;vast -->
<g id="edge6" class="edge">
<title>cint&#45;&gt;vast</title>
<path fill="none" stroke="black" d="M518.41,-448.55C491.1,-436.07 450.9,-417.71 419.88,-403.54"/>
<polygon fill="black" stroke="black" points="421.13,-400.26 410.58,-399.29 418.22,-406.63 421.13,-400.26"/>
</g>
<!-- cppd -->
<g id="node3" class="node">
<title>cppd</title>
<ellipse fill="none" stroke="black" cx="348.41" cy="-186.77" rx="74.19" ry="18"/>
<text text-anchor="middle" x="348.41" y="-183.07" font-family="Times,serif" font-size="14.00">CHIP PREPROD</text>
</g>
<!-- lstg -->
<g id="node7" class="node">
<title>lstg</title>
<ellipse fill="none" stroke="black" cx="179.33" cy="-110.93" rx="85.59" ry="18"/>
<text text-anchor="middle" x="179.33" y="-107.23" font-family="Times,serif" font-size="14.00">LoROTA STAGING</text>
</g>
<!-- cppd&#45;&gt;lstg -->
<g id="edge10" class="edge">
<title>cppd&#45;&gt;lstg</title>
<path fill="none" stroke="black" d="M312.96,-170.87C287.5,-159.45 252.93,-143.95 225.34,-131.57"/>
<polygon fill="black" stroke="black" points="226.45,-128.23 215.89,-127.33 223.59,-134.62 226.45,-128.23"/>
</g>
<!-- cppd&#45;&gt;vast -->
<g id="edge11" class="edge">
<title>cppd&#45;&gt;vast</title>
<path fill="none" stroke="black" d="M350.79,-204.85C355.31,-239.11 365.14,-313.71 370.53,-354.56"/>
<polygon fill="black" stroke="black" points="367.08,-355.2 371.86,-364.65 374.02,-354.28 367.08,-355.2"/>
</g>
<!-- cprd -->
<g id="node4" class="node">
<title>cprd</title>
<ellipse fill="none" stroke="black" cx="896.74" cy="-255.84" rx="57.69" ry="18"/>
<text text-anchor="middle" x="896.74" y="-252.14" font-family="Times,serif" font-size="14.00">CHIP PROD</text>
</g>
<!-- lprd -->
<g id="node8" class="node">
<title>lprd</title>
<ellipse fill="none" stroke="black" cx="1005.07" cy="-116.88" rx="70.69" ry="18"/>
<text text-anchor="middle" x="1005.07" y="-113.18" font-family="Times,serif" font-size="14.00">LoROTA PROD</text>
</g>
<!-- cprd&#45;&gt;lprd -->
<g id="edge15" class="edge">
<title>cprd&#45;&gt;lprd</title>
<path fill="none" stroke="black" d="M910.46,-238.24C929.24,-214.15 963.1,-170.73 984.8,-142.88"/>
<polygon fill="black" stroke="black" points="987.73,-144.82 991.12,-134.78 982.21,-140.51 987.73,-144.82"/>
</g>
<!-- vapd -->
<g id="node16" class="node">
<title>vapd</title>
<ellipse fill="none" stroke="black" cx="1013.89" cy="-393.94" rx="74.19" ry="18"/>
<text text-anchor="middle" x="1013.89" y="-390.24" font-family="Times,serif" font-size="14.00">VistA API PROD</text>
</g>
<!-- cprd&#45;&gt;vapd -->
<g id="edge16" class="edge">
<title>cprd&#45;&gt;vapd</title>
<path fill="none" stroke="black" d="M911.57,-273.33C931.97,-297.38 968.81,-340.81 992.28,-368.46"/>
<polygon fill="black" stroke="black" points="989.67,-370.8 998.8,-376.16 995,-366.27 989.67,-370.8"/>
</g>
<!-- vdev -->
<g id="node9" class="node">
<title>vdev</title>
<ellipse fill="none" stroke="black" cx="60.44" cy="-562.7" rx="60.39" ry="18"/>
<text text-anchor="middle" x="60.44" y="-559" font-family="Times,serif" font-size="14.00">vets&#45;api DEV</text>
</g>
<!-- vdev&#45;&gt;cnpd -->
<g id="edge3" class="edge">
<title>vdev&#45;&gt;cnpd</title>
<path fill="none" stroke="black" d="M103.41,-549.8C124.71,-543.4 150.71,-535.59 173.65,-528.7"/>
<polygon fill="black" stroke="black" points="174.7,-532.04 183.27,-525.81 172.69,-525.34 174.7,-532.04"/>
</g>
<!-- vdev&#45;&gt;ldev -->
<g id="edge4" class="edge">
<title>vdev&#45;&gt;ldev</title>
<path fill="none" stroke="black" d="M76.48,-580.3C93.65,-599.14 121.03,-629.19 140.4,-650.44"/>
<polygon fill="black" stroke="black" points="137.82,-652.81 147.14,-657.84 142.99,-648.09 137.82,-652.81"/>
</g>
<!-- vint -->
<g id="node10" class="node">
<title>vint</title>
<ellipse fill="none" stroke="black" cx="726.84" cy="-464.27" rx="98.28" ry="18"/>
<text text-anchor="middle" x="726.84" y="-460.57" font-family="Times,serif" font-size="14.00">vets&#45;api STAGING (v1)</text>
</g>
<!-- vint&#45;&gt;cint -->
<g id="edge7" class="edge">
<title>vint&#45;&gt;cint</title>
<path fill="none" stroke="black" d="M628.73,-463.38C621.78,-463.32 614.91,-463.26 608.29,-463.2"/>
<polygon fill="black" stroke="black" points="608.15,-459.7 598.12,-463.1 608.09,-466.7 608.15,-459.7"/>
</g>
<!-- vint&#45;&gt;lint -->
<g id="edge8" class="edge">
<title>vint&#45;&gt;lint</title>
<path fill="none" stroke="black" d="M717.91,-482.46C706.39,-505.92 686.24,-546.94 672.9,-574.11"/>
<polygon fill="black" stroke="black" points="669.59,-572.91 668.33,-583.43 675.88,-576 669.59,-572.91"/>
</g>
<!-- vstg -->
<g id="node11" class="node">
<title>vstg</title>
<ellipse fill="none" stroke="black" cx="284.72" cy="-18" rx="98.28" ry="18"/>
<text text-anchor="middle" x="284.72" y="-14.3" font-family="Times,serif" font-size="14.00">vets&#45;api STAGING (v0)</text>
</g>
<!-- vstg&#45;&gt;cppd -->
<g id="edge12" class="edge">
<title>vstg&#45;&gt;cppd</title>
<path fill="none" stroke="black" d="M291.54,-36.06C302.69,-65.63 324.92,-124.54 338.04,-159.3"/>
<polygon fill="black" stroke="black" points="334.84,-160.72 341.64,-168.84 341.39,-158.25 334.84,-160.72"/>
</g>
<!-- vstg&#45;&gt;lstg -->
<g id="edge13" class="edge">
<title>vstg&#45;&gt;lstg</title>
<path fill="none" stroke="black" d="M264.4,-35.92C248.11,-50.28 225.09,-70.58 207.1,-86.44"/>
<polygon fill="black" stroke="black" points="204.41,-84.14 199.23,-93.38 209.04,-89.39 204.41,-84.14"/>
</g>
<!-- vprd -->
<g id="node12" class="node">
<title>vprd</title>
<ellipse fill="none" stroke="black" cx="853.26" cy="-85" rx="66.09" ry="18"/>
<text text-anchor="middle" x="853.26" y="-81.3" font-family="Times,serif" font-size="14.00">vets&#45;api PROD</text>
</g>
<!-- vprd&#45;&gt;cprd -->
<g id="edge17" class="edge">
<title>vprd&#45;&gt;cprd</title>
<path fill="none" stroke="black" d="M857.83,-102.96C865.4,-132.7 880.58,-192.38 889.58,-227.73"/>
<polygon fill="black" stroke="black" points="886.3,-229.04 892.16,-237.87 893.09,-227.31 886.3,-229.04"/>
</g>
<!-- vprd&#45;&gt;lprd -->
<g id="edge18" class="edge">
<title>vprd&#45;&gt;lprd</title>
<path fill="none" stroke="black" d="M905.93,-96.06C917.06,-98.4 928.92,-100.89 940.43,-103.31"/>
<polygon fill="black" stroke="black" points="939.93,-106.78 950.43,-105.41 941.36,-99.93 939.93,-106.78"/>
</g>
<!-- vtst -->
<g id="node13" class="node">
<title>vtst</title>
<ellipse fill="none" stroke="black" cx="494.31" cy="-64.51" rx="80.69" ry="18"/>
<text text-anchor="middle" x="494.31" y="-60.81" font-family="Times,serif" font-size="14.00">VEText STAGING</text>
</g>
<!-- vtst&#45;&gt;cppd -->
<g id="edge9" class="edge">
<title>vtst&#45;&gt;cppd</title>
<path fill="none" stroke="black" d="M473.41,-82.03C448.16,-103.18 405.57,-138.87 377.22,-162.63"/>
<polygon fill="black" stroke="black" points="374.69,-160.18 369.27,-169.29 379.19,-165.55 374.69,-160.18"/>
</g>
<!-- vtpd -->
<g id="node14" class="node">
<title>vtpd</title>
<ellipse fill="none" stroke="black" cx="735.64" cy="-338.34" rx="65.79" ry="18"/>
<text text-anchor="middle" x="735.64" y="-334.64" font-family="Times,serif" font-size="14.00">VEText PROD</text>
</g>
<!-- vtpd&#45;&gt;cprd -->
<g id="edge14" class="edge">
<title>vtpd&#45;&gt;cprd</title>
<path fill="none" stroke="black" d="M766.7,-322.43C792.58,-309.18 829.58,-290.23 857.5,-275.94"/>
<polygon fill="black" stroke="black" points="859.28,-278.95 866.59,-271.28 856.09,-272.72 859.28,-278.95"/>
</g>
</g>
</svg>
