<?xml version="1.0" encoding="UTF-8" standalone="no"?>
<!DOCTYPE svg PUBLIC "-//W3C//DTD SVG 1.1//EN"
 "http://www.w3.org/Graphics/SVG/1.1/DTD/svg11.dtd">
<!-- Generated by graphviz version 2.49.0 (20210828.1703)
 -->
<!-- Title: environments_mapping Pages: 1 -->
<svg width="921pt" height="650pt"
 viewBox="0.00 0.00 920.70 649.78" xmlns="http://www.w3.org/2000/svg" xmlns:xlink="http://www.w3.org/1999/xlink">
<g id="graph0" class="graph" transform="scale(1 1) rotate(0) translate(4 645.78)">
<title>environments_mapping</title>
<polygon fill="white" stroke="transparent" points="-4,4 -4,-645.78 916.7,-645.78 916.7,4 -4,4"/>
<text text-anchor="middle" x="456.35" y="-618.58" font-family="Times,serif" font-size="24.00">Check In Experience System Environments Mapping</text>
<!-- cnpd -->
<g id="node1" class="node">
<title>cnpd</title>
<ellipse fill="none" stroke="black" cx="208.4" cy="-447.24" rx="77.19" ry="18"/>
<text text-anchor="middle" x="208.4" y="-443.54" font-family="Times,serif" font-size="14.00">CHIP NONPROD</text>
</g>
<!-- ldev -->
<g id="node5" class="node">
<title>ldev</title>
<ellipse fill="none" stroke="black" cx="149.9" cy="-589.78" rx="65.79" ry="18"/>
<text text-anchor="middle" x="149.9" y="-586.08" font-family="Times,serif" font-size="14.00">LoROTA DEV</text>
</g>
<!-- cnpd&#45;&gt;ldev -->
<g id="edge1" class="edge">
<title>cnpd&#45;&gt;ldev</title>
<path fill="none" stroke="black" d="M200.99,-465.29C190.93,-489.82 172.84,-533.88 161.11,-562.46"/>
<polygon fill="black" stroke="black" points="157.81,-561.29 157.25,-571.87 164.28,-563.95 157.81,-561.29"/>
</g>
<!-- vast -->
<g id="node15" class="node">
<title>vast</title>
<ellipse fill="none" stroke="black" cx="333.14" cy="-335.13" rx="89.08" ry="18"/>
<text text-anchor="middle" x="333.14" y="-331.43" font-family="Times,serif" font-size="14.00">VistA API STAGING</text>
</g>
<!-- cnpd&#45;&gt;vast -->
<g id="edge2" class="edge">
<title>cnpd&#45;&gt;vast</title>
<path fill="none" stroke="black" d="M227.89,-429.73C248.82,-410.91 282.24,-380.88 305.8,-359.71"/>
<polygon fill="black" stroke="black" points="308.28,-362.18 313.37,-352.9 303.6,-356.98 308.28,-362.18"/>
</g>
<!-- cint -->
<g id="node2" class="node">
<title>cint</title>
<ellipse fill="none" stroke="black" cx="485.42" cy="-404.59" rx="48.99" ry="18"/>
<text text-anchor="middle" x="485.42" y="-400.89" font-family="Times,serif" font-size="14.00">CHIP INT</text>
</g>
<!-- lint -->
<g id="node6" class="node">
<title>lint</title>
<ellipse fill="none" stroke="black" cx="581.41" cy="-525.02" rx="61.99" ry="18"/>
<text text-anchor="middle" x="581.41" y="-521.32" font-family="Times,serif" font-size="14.00">LoROTA INT</text>
</g>
<!-- cint&#45;&gt;lint -->
<g id="edge5" class="edge">
<title>cint&#45;&gt;lint</title>
<path fill="none" stroke="black" d="M499.38,-422.1C515.58,-442.44 542.46,-476.16 561.01,-499.43"/>
<polygon fill="black" stroke="black" points="558.47,-501.85 567.44,-507.49 563.94,-497.49 558.47,-501.85"/>
</g>
<!-- cint&#45;&gt;vast -->
<g id="edge6" class="edge">
<title>cint&#45;&gt;vast</title>
<path fill="none" stroke="black" d="M454.6,-390.53C432.72,-380.55 402.97,-366.99 378.4,-355.78"/>
<polygon fill="black" stroke="black" points="379.81,-352.57 369.26,-351.61 376.91,-358.94 379.81,-352.57"/>
</g>
<!-- cppd -->
<g id="node3" class="node">
<title>cppd</title>
<ellipse fill="none" stroke="black" cx="310.61" cy="-164.79" rx="74.19" ry="18"/>
<text text-anchor="middle" x="310.61" y="-161.09" font-family="Times,serif" font-size="14.00">CHIP PREPROD</text>
</g>
<!-- lstg -->
<g id="node7" class="node">
<title>lstg</title>
<ellipse fill="none" stroke="black" cx="163.62" cy="-98.74" rx="85.59" ry="18"/>
<text text-anchor="middle" x="163.62" y="-95.04" font-family="Times,serif" font-size="14.00">LoROTA STAGING</text>
</g>
<!-- cppd&#45;&gt;lstg -->
<g id="edge10" class="edge">
<title>cppd&#45;&gt;lstg</title>
<path fill="none" stroke="black" d="M275.03,-148.8C255.27,-139.92 230.47,-128.78 209.29,-119.26"/>
<polygon fill="black" stroke="black" points="210.71,-116.06 200.16,-115.15 207.84,-122.44 210.71,-116.06"/>
</g>
<!-- cppd&#45;&gt;vast -->
<g id="edge11" class="edge">
<title>cppd&#45;&gt;vast</title>
<path fill="none" stroke="black" d="M313.02,-183.02C316.95,-212.73 324.76,-271.81 329.41,-306.95"/>
<polygon fill="black" stroke="black" points="325.96,-307.58 330.74,-317.03 332.9,-306.66 325.96,-307.58"/>
</g>
<!-- cprd -->
<g id="node4" class="node">
<title>cprd</title>
<ellipse fill="none" stroke="black" cx="736.74" cy="-225.54" rx="57.69" ry="18"/>
<text text-anchor="middle" x="736.74" y="-221.84" font-family="Times,serif" font-size="14.00">CHIP PROD</text>
</g>
<!-- lprd -->
<g id="node8" class="node">
<title>lprd</title>
<ellipse fill="none" stroke="black" cx="830.99" cy="-104.63" rx="70.69" ry="18"/>
<text text-anchor="middle" x="830.99" y="-100.93" font-family="Times,serif" font-size="14.00">LoROTA PROD</text>
</g>
<!-- cprd&#45;&gt;lprd -->
<g id="edge15" class="edge">
<title>cprd&#45;&gt;lprd</title>
<path fill="none" stroke="black" d="M750.45,-207.96C766.27,-187.66 792.45,-154.07 810.65,-130.72"/>
<polygon fill="black" stroke="black" points="813.57,-132.67 816.96,-122.63 808.05,-128.36 813.57,-132.67"/>
</g>
<!-- vapd -->
<g id="node16" class="node">
<title>vapd</title>
<ellipse fill="none" stroke="black" cx="838.61" cy="-345.68" rx="74.19" ry="18"/>
<text text-anchor="middle" x="838.61" y="-341.98" font-family="Times,serif" font-size="14.00">VistA API PROD</text>
</g>
<!-- cprd&#45;&gt;vapd -->
<g id="edge16" class="edge">
<title>cprd&#45;&gt;vapd</title>
<path fill="none" stroke="black" d="M751.56,-243.01C768.73,-263.27 797.2,-296.84 816.88,-320.06"/>
<polygon fill="black" stroke="black" points="814.31,-322.43 823.45,-327.79 819.65,-317.9 814.31,-322.43"/>
</g>
<!-- vdev -->
<g id="node9" class="node">
<title>vdev</title>
<ellipse fill="none" stroke="black" cx="60.44" cy="-492.04" rx="60.39" ry="18"/>
<text text-anchor="middle" x="60.44" y="-488.34" font-family="Times,serif" font-size="14.00">vets&#45;api DEV</text>
</g>
<!-- vdev&#45;&gt;cnpd -->
<g id="edge3" class="edge">
<title>vdev&#45;&gt;cnpd</title>
<path fill="none" stroke="black" d="M102.84,-479.2C117.91,-474.64 135.12,-469.43 151.21,-464.56"/>
<polygon fill="black" stroke="black" points="152.5,-467.82 161.06,-461.58 150.47,-461.13 152.5,-467.82"/>
</g>
<!-- vdev&#45;&gt;ldev -->
<g id="edge4" class="edge">
<title>vdev&#45;&gt;ldev</title>
<path fill="none" stroke="black" d="M76.44,-509.51C90.47,-524.84 111.05,-547.33 126.86,-564.6"/>
<polygon fill="black" stroke="black" points="124.41,-567.11 133.74,-572.12 129.57,-562.38 124.41,-567.11"/>
</g>
<!-- vint -->
<g id="node10" class="node">
<title>vint</title>
<ellipse fill="none" stroke="black" cx="639.8" cy="-405.85" rx="57.39" ry="18"/>
<text text-anchor="middle" x="639.8" y="-402.15" font-family="Times,serif" font-size="14.00">vets&#45;api INT</text>
</g>
<!-- vint&#45;&gt;cint -->
<g id="edge7" class="edge">
<title>vint&#45;&gt;cint</title>
<path fill="none" stroke="black" d="M582.32,-405.38C569.99,-405.28 556.95,-405.18 544.56,-405.07"/>
<polygon fill="black" stroke="black" points="544.37,-401.57 534.35,-404.99 544.32,-408.57 544.37,-401.57"/>
</g>
<!-- vint&#45;&gt;lint -->
<g id="edge8" class="edge">
<title>vint&#45;&gt;lint</title>
<path fill="none" stroke="black" d="M631.06,-423.69C621.43,-443.35 605.83,-475.19 594.68,-497.93"/>
<polygon fill="black" stroke="black" points="591.47,-496.54 590.21,-507.06 597.76,-499.62 591.47,-496.54"/>
</g>
<!-- vstg -->
<g id="node11" class="node">
<title>vstg</title>
<ellipse fill="none" stroke="black" cx="255.37" cy="-18" rx="81.49" ry="18"/>
<text text-anchor="middle" x="255.37" y="-14.3" font-family="Times,serif" font-size="14.00">vets&#45;api STAGING</text>
</g>
<!-- vstg&#45;&gt;cppd -->
<g id="edge12" class="edge">
<title>vstg&#45;&gt;cppd</title>
<path fill="none" stroke="black" d="M262.14,-36C271.67,-61.31 289.1,-107.64 300.26,-137.28"/>
<polygon fill="black" stroke="black" points="296.98,-138.52 303.78,-146.64 303.53,-136.05 296.98,-138.52"/>
</g>
<!-- vstg&#45;&gt;lstg -->
<g id="edge13" class="edge">
<title>vstg&#45;&gt;lstg</title>
<path fill="none" stroke="black" d="M235.46,-35.52C222.56,-46.87 205.59,-61.81 191.38,-74.31"/>
<polygon fill="black" stroke="black" points="189,-71.74 183.81,-80.97 193.63,-76.99 189,-71.74"/>
</g>
<!-- vprd -->
<g id="node12" class="node">
<title>vprd</title>
<ellipse fill="none" stroke="black" cx="698.99" cy="-77" rx="66.09" ry="18"/>
<text text-anchor="middle" x="698.99" y="-73.3" font-family="Times,serif" font-size="14.00">vets&#45;api PROD</text>
</g>
<!-- vprd&#45;&gt;cprd -->
<g id="edge17" class="edge">
<title>vprd&#45;&gt;cprd</title>
<path fill="none" stroke="black" d="M703.62,-95.21C710.1,-120.72 721.94,-167.3 729.57,-197.31"/>
<polygon fill="black" stroke="black" points="726.22,-198.35 732.08,-207.18 733,-196.62 726.22,-198.35"/>
</g>
<!-- vprd&#45;&gt;lprd -->
<g id="edge18" class="edge">
<title>vprd&#45;&gt;lprd</title>
<path fill="none" stroke="black" d="M751.54,-88C756.32,-89 761.2,-90.02 766.07,-91.04"/>
<polygon fill="black" stroke="black" points="765.52,-94.5 776.02,-93.13 766.95,-87.65 765.52,-94.5"/>
</g>
<!-- vtst -->
<g id="node13" class="node">
<title>vtst</title>
<ellipse fill="none" stroke="black" cx="437.53" cy="-58.52" rx="80.69" ry="18"/>
<text text-anchor="middle" x="437.53" y="-54.82" font-family="Times,serif" font-size="14.00">VEText STAGING</text>
</g>
<!-- vtst&#45;&gt;cppd -->
<g id="edge9" class="edge">
<title>vtst&#45;&gt;cppd</title>
<path fill="none" stroke="black" d="M416.57,-76.07C395.54,-93.68 362.97,-120.95 339.49,-140.61"/>
<polygon fill="black" stroke="black" points="337.02,-138.11 331.6,-147.21 341.51,-143.48 337.02,-138.11"/>
</g>
<!-- vtpd -->
<g id="node14" class="node">
<title>vtpd</title>
<ellipse fill="none" stroke="black" cx="596.64" cy="-297.08" rx="65.79" ry="18"/>
<text text-anchor="middle" x="596.64" y="-293.38" font-family="Times,serif" font-size="14.00">VEText PROD</text>
</g>
<!-- vtpd&#45;&gt;cprd -->
<g id="edge14" class="edge">
<title>vtpd&#45;&gt;cprd</title>
<path fill="none" stroke="black" d="M627.74,-281.2C648.19,-270.76 675.15,-256.99 697.13,-245.76"/>
<polygon fill="black" stroke="black" points="698.91,-248.79 706.22,-241.13 695.72,-242.56 698.91,-248.79"/>
</g>
</g>
</svg>
