<?xml version="1.0" encoding="utf-8"?>
<!-- Generator: Adobe Illustrator 19.1.0, SVG Export Plug-In . SVG Version: 6.00 Build 0)  -->
<svg version="1.1" id="Layer_1" xmlns="http://www.w3.org/2000/svg" xmlns:xlink="http://www.w3.org/1999/xlink" x="0px" y="0px"
	 width="216px" height="146px" viewBox="-197 324 216 146" style="enable-background:new -197 324 216 146;" xml:space="preserve">
<style type="text/css">
	.st0{fill:#FFFFFF;}
</style>
<path class="st0" d="M-78.7,373.9v-11.6c0-1.7,0.1-3.1,0.2-4c0.2-0.9,0.5-1.9,1.1-2.8c0.6-0.9,1.5-1.6,2.8-1.9
	c1.3-0.4,3-0.5,5.1-0.5h11.6v-23.1h-18.5c-10.7,0-18.4,2.5-23.1,7.6c-4.7,5.1-7,12.6-7,22.4v13.9h-13.9V397h13.8v67.1h27.8V397h18.5
	l2.4-23.1C-57.7,373.9-78.7,373.9-78.7,373.9z"/>
</svg>
