<?xml version="1.0" encoding="utf-8"?>
<!-- Generator: Adobe Illustrator 21.0.2, SVG Export Plug-In . SVG Version: 6.00 Build 0)  -->
<svg version="1.1" id="Layer_1" xmlns="http://www.w3.org/2000/svg" xmlns:xlink="http://www.w3.org/1999/xlink" x="0px" y="0px"
	 viewBox="0 0 28 41" style="enable-background:new 0 0 28 41;" xml:space="preserve">
<style type="text/css">
	.st0{fill:#40099E;}
	.st1{fill:#FFFFFF;}
</style>
<title>Cemetery (shadow)</title>
<desc>Created with Sketch.</desc>
<title>Cemetery (shadow)</title>
<desc>Created with Sketch.</desc>
<g>
	<path id="path-1_4_" class="st0" d="M6.1,18.3c0,1.8,0.6,3.5,1.7,4.9l6.4,8.5c0.1,0.2,0.5,0.2,0.7,0.1c0,0,0,0,0.1-0.1l6.4-8.5
		c1.1-1.4,1.7-3.1,1.7-4.9c0-4.6-3.8-8.3-8.5-8.3C9.9,10,6.1,13.7,6.1,18.3L6.1,18.3z"/>
</g>
<g>
	<path class="st1" d="M12.6,19.3c-0.6,0-1.1,0.3-1.5,0.7h-0.7c-0.3,0-0.6-0.1-0.8-0.2c-0.2-0.1-0.3-0.4-0.3-0.7c0-1.3,0.2-2,0.7-2
		c0,0,0.1,0,0.2,0.1c0.1,0.1,0.3,0.2,0.5,0.2c0.2,0.1,0.4,0.1,0.7,0.1c0.2,0,0.5,0,0.7-0.1c0,0.1,0,0.3,0,0.4
		C12.1,18.4,12.3,18.9,12.6,19.3z M12.4,14.7c0.3,0.3,0.4,0.6,0.4,1s-0.1,0.7-0.4,1c-0.3,0.3-0.6,0.4-1,0.4c-0.4,0-0.7-0.1-1-0.4
		c-0.3-0.3-0.4-0.6-0.4-1s0.1-0.7,0.4-1c0.3-0.3,0.6-0.4,1-0.4C11.8,14.3,12.1,14.5,12.4,14.7z M18.5,22.8c0,0.4-0.1,0.8-0.4,1.1
		c-0.3,0.3-0.6,0.4-1.1,0.4h-4.8c-0.4,0-0.8-0.1-1.1-0.4c-0.3-0.3-0.4-0.6-0.4-1.1c0-0.2,0-0.4,0-0.6c0-0.2,0-0.4,0.1-0.6
		c0-0.2,0.1-0.4,0.1-0.6c0.1-0.2,0.1-0.4,0.2-0.5c0.1-0.2,0.2-0.3,0.3-0.4c0.1-0.1,0.3-0.2,0.5-0.3c0.2-0.1,0.4-0.1,0.6-0.1
		c0,0,0.1,0,0.2,0.1c0.1,0.1,0.3,0.2,0.4,0.3c0.1,0.1,0.3,0.2,0.6,0.3c0.2,0.1,0.5,0.1,0.7,0.1s0.5,0,0.7-0.1
		c0.2-0.1,0.4-0.2,0.6-0.3c0.1-0.1,0.3-0.2,0.4-0.3c0.1-0.1,0.2-0.1,0.2-0.1c0.2,0,0.4,0,0.6,0.1c0.2,0.1,0.3,0.2,0.5,0.3
		c0.1,0.1,0.2,0.3,0.3,0.4c0.1,0.2,0.2,0.4,0.2,0.5c0.1,0.2,0.1,0.4,0.1,0.6c0,0.2,0.1,0.4,0.1,0.6C18.5,22.4,18.5,22.6,18.5,22.8z
		 M16.1,16.4c0.4,0.4,0.6,0.9,0.6,1.5s-0.2,1.1-0.6,1.5c-0.4,0.4-0.9,0.6-1.5,0.6c-0.6,0-1.1-0.2-1.5-0.6c-0.4-0.4-0.6-0.9-0.6-1.5
		s0.2-1.1,0.6-1.5c0.4-0.4,0.9-0.6,1.5-0.6C15.2,15.7,15.7,16,16.1,16.4z M18.8,14.7c0.3,0.3,0.4,0.6,0.4,1s-0.1,0.7-0.4,1
		c-0.3,0.3-0.6,0.4-1,0.4c-0.4,0-0.7-0.1-1-0.4c-0.3-0.3-0.4-0.6-0.4-1s0.1-0.7,0.4-1c0.3-0.3,0.6-0.4,1-0.4
		C18.2,14.3,18.5,14.5,18.8,14.7z M19.9,19.1c0,0.3-0.1,0.5-0.3,0.7c-0.2,0.1-0.5,0.2-0.8,0.2h-0.7c-0.4-0.5-0.9-0.7-1.5-0.7
		c0.3-0.4,0.4-0.9,0.4-1.4c0-0.1,0-0.2,0-0.4c0.2,0.1,0.5,0.1,0.7,0.1c0.2,0,0.4,0,0.7-0.1c0.2-0.1,0.4-0.2,0.5-0.2
		c0.1-0.1,0.2-0.1,0.2-0.1C19.7,17.2,19.9,17.8,19.9,19.1z"/>
</g>
</svg>
