<?xml version="1.0" encoding="utf-8"?>
<!-- Generator: Adobe Illustrator 23.0.4, SVG Export Plug-In . SVG Version: 6.00 Build 0)  -->
<svg version="1.1" xmlns="http://www.w3.org/2000/svg" xmlns:xlink="http://www.w3.org/1999/xlink" x="0px" y="0px"
	 viewBox="0 0 126.57 60" style="enable-background:new 0 0 126.57 60;" xml:space="preserve">
<style type="text/css">
	.st0{display:none;}
	.st1{display:inline;}
	.st2{fill:#00ADCF;}
	.st3{fill:#C4272E;}
	.st4{clip-path:url(#SVGID_2_);}
	.st5{fill:#184171;}
	.st6{fill:#FFFFFF;stroke:#FFFFFF;stroke-width:0.75;stroke-miterlimit:10;}
	.st7{fill:#FFFFFF;}
	.st8{clip-path:url(#SVGID_4_);}
	.st9{fill:#FFFFFF;stroke:#FFFFFF;stroke-width:0.1197;stroke-miterlimit:10;}
	.st10{clip-path:url(#SVGID_6_);}
	.st11{fill:#FFFFFF;stroke:#FFFFFF;stroke-width:0.1397;stroke-miterlimit:10;}
</style>
<g id="Layer_4">
</g>
<g id="Layer_2" class="st0">
</g>
<g id="Layer_1">
</g>
<g id="Layer_3">
	<g>
		<defs>
			<rect id="SVGID_3_" width="126.57" height="60"/>
		</defs>
		<clipPath id="SVGID_2_">
			<use xlink:href="#SVGID_3_"  style="overflow:visible;"/>
		</clipPath>
		<g class="st4">
			<g>
				<g>
					<g>
						<path class="st3" d="M26.74,30.82l-5.48-19.28l4.23,1.66l2.07,8.07c0.6,2.27,1.12,4.42,1.54,6.72L29.15,28
							c0.43-1.89,0.98-3.71,1.56-5.44l2.17-6.47l4.11,1.61l-5.74,14.89L26.74,30.82z"/>
						<path class="st3" d="M49.08,32.25l-6.24-2.44v4.08l7.02,2.75v3.18l-10.92-4.27V18.41l10.53,4.12v3.17l-6.63-2.59v3.58
							l6.24,2.44V32.25z"/>
						<path class="st3" d="M55.71,28.31l-4.68-1.83v-3.26l13.26,5.19v3.23l-4.68-1.83v13.9l-3.9-1.53V28.31z"/>
					</g>
				</g>
				<g>
					<path class="st5" d="M68.97,29.67l-4.68,1.94v-3.23l13.26-5.51v3.29l-4.68,1.94v13.86l-3.9,1.62V29.67z"/>
					<path class="st5" d="M89.24,27.8L83,30.39v4.08l7.02-2.92v3.16L79.1,39.25V22.11l10.53-4.37v3.19L83,23.68v3.56l6.24-2.59V27.8
						z"/>
					<path class="st5" d="M105.17,28.03c-0.69,0.63-2.29,1.69-4.33,2.54c-5.86,2.43-8.88-0.02-8.88-4.91
						c0-5.84,4.13-10.8,9.24-12.92c1.99-0.83,3.5-1.06,4.17-0.97l-0.78,3.39c-0.76-0.02-1.85,0.12-3.21,0.69
						C98.36,17.1,96,19.95,96,23.76c0,3.44,2,4.76,5.41,3.35c1.17-0.49,2.44-1.25,3.2-1.88L105.17,28.03z"/>
				</g>
				<polygon class="st3" points="64.36,15.44 77.34,20.38 64.36,25.68 51.08,20.38 				"/>
				<polygon class="st5" points="77.17,49.18 64.19,55.47 51.03,49.18 51.03,42.31 64.19,47.68 77.16,42.31 				"/>
				<g>
					<polygon class="st3" points="106.79,10.85 120.83,4.45 120.83,8.94 106.79,15.37 					"/>
					<polygon class="st5" points="106.79,17.34 118.1,11.96 118.1,16.47 106.79,21.88 					"/>
					<polygon class="st3" points="106.79,23.46 115.37,19.45 115.37,24 106.79,28.04 					"/>
				</g>
				<g>
					<polygon class="st3" points="20.22,11.2 6.19,4.81 6.19,9.3 20.22,15.72 					"/>
					<polygon class="st5" points="20.22,17.69 8.92,12.31 8.92,16.82 20.22,22.23 					"/>
					<polygon class="st3" points="20.22,23.81 11.64,19.8 11.64,24.35 20.22,28.39 					"/>
				</g>
			</g>
			<path class="st7" d="M61.29,19.78c0.54,0.21,0.81,0.82,0.6,1.35s-0.82,0.81-1.35,0.6c-0.54-0.21-0.81-0.82-0.6-1.35
				C60.14,19.83,60.75,19.57,61.29,19.78z M60.78,21.1c0.19,0.07,0.41-0.02,0.48-0.21c0.07-0.19-0.02-0.41-0.21-0.48
				s-0.41,0.02-0.48,0.21C60.49,20.81,60.58,21.02,60.78,21.1z"/>
			<path class="st7" d="M64.74,15.9c0.54,0.21,0.81,0.82,0.6,1.35c-0.21,0.54-0.82,0.81-1.35,0.6c-0.54-0.21-0.81-0.82-0.6-1.35
				C63.59,15.96,64.2,15.69,64.74,15.9z M64.23,17.22c0.19,0.07,0.41-0.02,0.48-0.21s-0.02-0.41-0.21-0.48
				c-0.19-0.07-0.41,0.02-0.48,0.21C63.94,16.93,64.04,17.15,64.23,17.22z"/>
			<path class="st7" d="M56.86,20.15c0.54,0.21,0.81,0.82,0.6,1.35s-0.82,0.81-1.35,0.6c-0.54-0.21-0.81-0.82-0.6-1.35
				C55.71,20.2,56.32,19.94,56.86,20.15z M56.35,21.47c0.19,0.07,0.41-0.02,0.48-0.21c0.07-0.19-0.02-0.41-0.21-0.48
				c-0.19-0.07-0.41,0.02-0.48,0.21C56.06,21.18,56.16,21.39,56.35,21.47z"/>
			<polygon class="st7" points="66.46,21.96 70.06,23.35 69.15,23.73 66.46,22.69 62.52,24.16 57.14,21.95 57.38,21.32 62.52,23.43 
							"/>
			<polygon class="st7" points="66.43,19.65 72.95,22.17 72.04,22.55 66.43,20.38 62.66,21.92 61.62,21.52 61.86,20.89 62.66,21.2 
							"/>
			<polyline class="st7" points="58.6,17.58 62.96,19.27 66.64,17.61 75.62,21.08 74.71,21.45 66.66,18.34 62.98,20 57.63,17.93 			
				"/>
			<polyline class="st7" points="65.16,17.03 67.1,17.78 66.63,18.33 64.61,17.54 			"/>
		</g>
	</g>
</g>
</svg>
