<?xml version="1.0" encoding="UTF-8"?>
<svg width="32px" height="32px" viewBox="0 0 32 32" version="1.1" xmlns="http://www.w3.org/2000/svg" xmlns:xlink="http://www.w3.org/1999/xlink">
    <!-- Generator: Sketch 50.2 (55047) - http://www.bohemiancoding.com/sketch -->
    <title>burials-memorials</title>
    <desc>Created with Sketch.</desc>
    <defs></defs>
    <g id="Mockups" stroke="none" stroke-width="1" fill="none" fill-rule="evenodd">
        <g id="Icons" transform="translate(-490.000000, -606.000000)">
            <g id="burials-memorials" transform="translate(490.000000, 606.000000)">
                <circle id="Circle" fill="#003E73" cx="16" cy="16" r="16"></circle>
                <path d="M23.4285891,14.0624905 C23.4285891,14.223205 23.3125176,14.3749909 23.196446,14.4910625 L19.9553707,17.6517805 L20.7232288,22.1160716 C20.7321574,22.1785716 20.7321574,22.2321431 20.7321574,22.2946432 C20.7321574,22.5267863 20.6250144,22.7410723 20.3660855,22.7410723 C20.2410853,22.7410723 20.1160852,22.6964294 20.0089422,22.6339293 L16.0000089,20.526784 L11.9910755,22.6339293 C11.8750039,22.6964294 11.7589324,22.7410723 11.6339322,22.7410723 C11.3750033,22.7410723 11.2589318,22.5267863 11.2589318,22.2946432 C11.2589318,22.2321431 11.2678604,22.1785716 11.2767889,22.1160716 L12.044647,17.6517805 L8.79464312,14.4910625 C8.68750014,14.3749909 8.57142857,14.223205 8.57142857,14.0624905 C8.57142857,13.7946331 8.84821462,13.6874901 9.07142917,13.6517758 L13.5535774,12.9999893 L15.5625083,8.93748443 C15.6428656,8.76784137 15.7946515,8.57141256 16.0000089,8.57141256 C16.2053662,8.57141256 16.3571521,8.76784137 16.4375094,8.93748443 L18.4464403,12.9999893 L22.9285885,13.6517758 C23.1428745,13.6874901 23.4285891,13.7946331 23.4285891,14.0624905 Z" id="fa-star" fill="#FFFFFF"></path>
            </g>
        </g>
    </g>
</svg>