<?xml version="1.0" encoding="UTF-8"?>
<svg width="32px" height="32px" viewBox="0 0 32 32" version="1.1" xmlns="http://www.w3.org/2000/svg" xmlns:xlink="http://www.w3.org/1999/xlink">
    <!-- Generator: Sketch 50.2 (55047) - http://www.bohemiancoding.com/sketch -->
    <title>disability</title>
    <desc>Created with Sketch.</desc>
    <defs></defs>
    <g id="Mockups" stroke="none" stroke-width="1" fill="none" fill-rule="evenodd">
        <g id="Icons" transform="translate(-490.000000, -462.000000)">
            <g id="disability" transform="translate(490.000000, 462.000000)">
                <circle id="Circle" fill="#552A95" cx="16" cy="16" r="16"></circle>
                <path d="M19.6093426,10.0000286 C19.8801754,10.0000286 20.1093414,10.0937784 20.296841,10.2812779 L22.0155869,12.0000238 L22.0155869,18.0312595 C21.9322536,17.9479262 21.8489207,17.8750098 21.7655874,17.81251 L17.2030983,14.1250188 L18.0155964,13.3750206 C18.1197626,13.2708543 18.1770545,13.1510626 18.187471,13.0156464 C18.1978875,12.8802302 18.1562211,12.7604385 18.0624713,12.6562723 C17.9687215,12.552106 17.8541383,12.5000226 17.7187221,12.5000226 C17.5833059,12.5000226 17.4635142,12.5416891 17.359348,12.6250224 L14.8593539,14.9375168 C14.5885211,15.1458498 14.2760218,15.2395996 13.9218562,15.2187662 C13.5676905,15.1979327 13.2864412,15.067725 13.0781082,14.8281421 C12.8697752,14.5885592 12.7656089,14.2968934 12.7656089,13.9531442 C12.7656089,13.609395 12.9010251,13.3229372 13.1718579,13.0937712 L16.2343506,10.250028 C16.4218502,10.0833619 16.6510162,10.0000286 16.921849,10.0000286 L19.6093426,10.0000286 Z M23.0155845,12.0000238 L26.0155773,12.0000238 L26.0155773,20.0000048 L24.0155821,20.0000048 C23.7447492,20.0000048 23.5103748,19.9010465 23.3124588,19.7031305 C23.1145427,19.5052144 23.0155845,19.27084 23.0155845,19.0000072 L23.0155845,12.0000238 Z M24.5155809,19.0000072 C24.661414,19.0000072 24.7812053,18.9531323 24.874955,18.8593825 C24.9687048,18.7656327 25.0155797,18.6458415 25.0155797,18.5000083 C25.0155797,18.3541752 24.9687048,18.234384 24.874955,18.1406342 C24.7812053,18.0468844 24.661414,18.0000095 24.5155809,18.0000095 C24.3697477,18.0000095 24.2499565,18.0468844 24.1562067,18.1406342 C24.062457,18.234384 24.0155821,18.3541752 24.0155821,18.5000083 C24.0155821,18.6458415 24.062457,18.7656327 24.1562067,18.8593825 C24.2499565,18.9531323 24.3697477,19.0000072 24.5155809,19.0000072 Z M6.015625,20.0000048 L6.015625,12.0000238 L9.01561785,12.0000238 L9.01561785,19.0000072 C9.01561785,19.27084 8.91665959,19.5052144 8.71874356,19.7031305 C8.52082752,19.9010465 8.28645308,20.0000048 8.01562023,20.0000048 L6.015625,20.0000048 Z M7.51562142,18.0000095 C7.36978828,18.0000095 7.24999706,18.0468844 7.15624728,18.1406342 C7.0624975,18.234384 7.01562262,18.3541752 7.01562262,18.5000083 C7.01562262,18.6458415 7.0624975,18.7656327 7.15624728,18.8593825 C7.24999706,18.9531323 7.36978828,19.0000072 7.51562142,19.0000072 C7.66145457,19.0000072 7.78124579,18.9531323 7.87499557,18.8593825 C7.96874534,18.7656327 8.01562023,18.6458415 8.01562023,18.5000083 C8.01562023,18.3541752 7.96874534,18.234384 7.87499557,18.1406342 C7.78124579,18.0468844 7.66145457,18.0000095 7.51562142,18.0000095 Z M21.1405889,18.5937581 C21.3489219,18.7604242 21.4687132,18.9791737 21.4999631,19.2500066 C21.531213,19.5208394 21.4530882,19.7708388 21.2655886,20.0000048 L20.9843393,20.3437539 C20.8176732,20.5729199 20.5937152,20.7031281 20.3124659,20.734378 C20.0312166,20.7656279 19.7864257,20.6875031 19.5780927,20.5000036 L19.421843,20.3750039 L18.4218454,21.562501 C18.2343459,21.8125004 17.979138,21.9583336 17.6562222,22 C17.3333065,22.0416664 17.0468487,21.9583336 16.7968493,21.7500006 L16.2343506,21.2500018 C15.880185,21.6875007 15.4270611,21.9375001 14.8749789,22 C14.3228967,22.0624999 13.8385229,21.9166667 13.4218573,21.562501 L10.5781141,19.0000072 L10.0156155,19.0000072 L10.0156155,12.0000238 L11.7343614,10.2812779 C11.9218609,10.0937784 12.1510269,10.0000286 12.4218597,10.0000286 L15.0468535,10.0000286 L12.4843596,12.343773 C12.0260272,12.7604385 11.7864447,13.2812708 11.7656113,13.9062693 C11.7447778,14.5312678 11.9426944,15.067725 12.3593599,15.5156405 C12.7760254,15.9635559 13.2916492,16.2031388 13.9062312,16.2343887 C14.5208132,16.2656387 15.0676869,16.0729306 15.5468523,15.6562651 L16.48435,14.7812672 L21.1405889,18.5937581 Z" id="fa-handshake-o" fill="#FFFFFF"></path>
            </g>
        </g>
    </g>
</svg>