<?xml version="1.0" encoding="UTF-8"?>
<svg width="32px" height="32px" viewBox="0 0 32 32" version="1.1" xmlns="http://www.w3.org/2000/svg" xmlns:xlink="http://www.w3.org/1999/xlink">
    <!-- Generator: Sketch 50.2 (55047) - http://www.bohemiancoding.com/sketch -->
    <title>health-care</title>
    <desc>Created with Sketch.</desc>
    <defs></defs>
    <g id="Mockups" stroke="none" stroke-width="1" fill="none" fill-rule="evenodd">
        <g id="Icons" transform="translate(-170.000000, -462.000000)">
            <g id="health-care" transform="translate(170.000000, 462.000000)">
                <circle id="Oval-2" fill="#0071BC" cx="16" cy="16" r="16"></circle>
                <path d="M19.4285851,17.2857099 L19.4285851,15.5714221 C19.4285851,15.4107076 19.3035849,15.2857075 19.1428704,15.2857075 L17.142868,15.2857075 L17.142868,13.2857051 C17.142868,13.1249906 17.0178679,12.9999905 16.8571534,12.9999905 L15.1428657,12.9999905 C14.9821512,12.9999905 14.857151,13.1249906 14.857151,13.2857051 L14.857151,15.2857075 L12.8571486,15.2857075 C12.6964342,15.2857075 12.571434,15.4107076 12.571434,15.5714221 L12.571434,17.2857099 C12.571434,17.4464243 12.6964342,17.5714245 12.8571486,17.5714245 L14.857151,17.5714245 L14.857151,19.5714269 C14.857151,19.7321413 14.9821512,19.8571415 15.1428657,19.8571415 L16.8571534,19.8571415 C17.0178679,19.8571415 17.142868,19.7321413 17.142868,19.5714269 L17.142868,17.5714245 L19.1428704,17.5714245 C19.3035849,17.5714245 19.4285851,17.4464243 19.4285851,17.2857099 Z M13.7142925,10.7142735 L18.2857265,10.7142735 L18.2857265,9.57141495 L13.7142925,9.57141495 L13.7142925,10.7142735 Z M10.285717,10.7142735 L10.285717,22.1428585 L10.0000024,22.1428585 C8.90178679,22.1428585 8,21.2410717 8,20.1428561 L8,12.7142758 C8,11.6160602 8.90178679,10.7142735 10.0000024,10.7142735 L10.285717,10.7142735 Z M20.8571582,10.7142735 L20.8571582,22.1428585 L11.1428609,22.1428585 L11.1428609,10.7142735 L12.571434,10.7142735 L12.571434,9.28570032 C12.571434,8.81248547 12.9553631,8.42855644 13.4285779,8.42855644 L18.5714412,8.42855644 C19.044656,8.42855644 19.4285851,8.81248547 19.4285851,9.28570032 L19.4285851,10.7142735 L20.8571582,10.7142735 Z M24.0000191,12.7142758 L24.0000191,20.1428561 C24.0000191,21.2410717 23.0982323,22.1428585 22.0000167,22.1428585 L21.7143021,22.1428585 L21.7143021,10.7142735 L22.0000167,10.7142735 C23.0982323,10.7142735 24.0000191,11.6160602 24.0000191,12.7142758 Z" id="fa-medkit" fill="#FFFFFF"></path>
            </g>
        </g>
    </g>
</svg>