<svg id="Layer_1" data-name="Layer 1" xmlns="http://www.w3.org/2000/svg" xmlns:xlink="http://www.w3.org/1999/xlink" viewBox="0 0 27 27"><defs><style>.cls-1,.cls-2{fill:none;}.cls-1{clip-rule:evenodd;}.cls-3{clip-path:url(#clip-path);}.cls-4{clip-path:url(#clip-path-2);}.cls-5{isolation:isolate;}.cls-6{clip-path:url(#clip-path-3);}.cls-7{clip-path:url(#clip-path-4);}.cls-8{fill:#fff;}</style><clipPath id="clip-path"><polyline class="cls-1" points="1.08 1.25 25.99 1.25 25.99 25.89 1.08 25.89"/></clipPath><clipPath id="clip-path-2"><rect class="cls-2" x="-1.92" y="-1.84" width="30" height="30"/></clipPath><clipPath id="clip-path-3"><rect class="cls-2" x="1.08" y="1.16" width="25" height="25"/></clipPath><clipPath id="clip-path-4"><path class="cls-1" d="M13.53,1.25A12.39,12.39,0,0,0,1.08,13.57,12.39,12.39,0,0,0,13.53,25.89,12.39,12.39,0,0,0,26,13.57,12.39,12.39,0,0,0,13.53,1.25m9.2,12.22-8.16,5.94a1.76,1.76,0,0,1-2.06,0L4.34,13.47A1.71,1.71,0,0,1,4,11.06a1.76,1.76,0,0,1,2.44-.37l7.13,5.19,7.13-5.19a1.75,1.75,0,0,1,2.44.37,1.71,1.71,0,0,1-.37,2.41"/></clipPath></defs><title>cards</title><g class="cls-3"><g class="cls-4"><g class="cls-5"><g class="cls-6"><g class="cls-7"><g class="cls-6"><rect class="cls-8" x="-3.92" y="-3.75" width="34.91" height="34.64"/></g></g></g></g></g></g></svg>