<svg id="Layer_1" data-name="Layer 1" xmlns="http://www.w3.org/2000/svg" xmlns:xlink="http://www.w3.org/1999/xlink" viewBox="0 0 27 27"><defs><style>.cls-1,.cls-2,.cls-3{fill:none;}.cls-1{clip-rule:evenodd;}.cls-3{fill-rule:evenodd;}.cls-4{clip-path:url(#clip-path);}.cls-5{clip-path:url(#clip-path-2);}.cls-6{isolation:isolate;}.cls-7{clip-path:url(#clip-path-3);}.cls-8{clip-path:url(#clip-path-4);}.cls-9{fill:#fff;}.cls-10{fill:#1072ba;}</style><clipPath id="clip-path"><polyline class="cls-1" points="1.04 1.11 25.96 1.11 25.96 25.74 1.04 25.74"/></clipPath><clipPath id="clip-path-2"><rect class="cls-2" x="-1.96" y="-1.99" width="30" height="30"/></clipPath><clipPath id="clip-path-3"><rect class="cls-2" x="1.04" y="1.01" width="25" height="25"/></clipPath><clipPath id="clip-path-4"><path class="cls-1" d="M13.5,1.11A12.39,12.39,0,0,0,1,13.43,12.39,12.39,0,0,0,13.5,25.74,12.39,12.39,0,0,0,26,13.43,12.39,12.39,0,0,0,13.5,1.11m9.2,12.22-8.16,5.94a1.76,1.76,0,0,1-2.06,0L4.3,13.32a1.71,1.71,0,0,1-.37-2.41,1.76,1.76,0,0,1,2.44-.37l7.13,5.19,7.13-5.19a1.75,1.75,0,0,1,2.44.37,1.71,1.71,0,0,1-.37,2.41"/></clipPath></defs><title>cards</title><g class="cls-4"><g class="cls-5"><g class="cls-6"><g class="cls-7"><g class="cls-8"><g class="cls-7"><rect class="cls-9" x="-3.96" y="-3.89" width="34.91" height="34.64"/></g></g><g class="cls-8"><g class="cls-7"><rect class="cls-10" x="-3.96" y="-3.89" width="34.91" height="34.64"/></g></g></g></g></g></g></svg>