<svg id="Layer_1" data-name="Layer 1" xmlns="http://www.w3.org/2000/svg" xmlns:xlink="http://www.w3.org/1999/xlink" viewBox="0 0 27 27"><defs><style>.cls-1,.cls-2{fill:none;}.cls-1{clip-rule:evenodd;}.cls-3{clip-path:url(#clip-path);}.cls-4{clip-path:url(#clip-path-2);}.cls-5{fill:#1072ba;}</style><clipPath id="clip-path"><path class="cls-1" d="M13.69,25.81A12.39,12.39,0,0,1,1.23,13.49a12.46,12.46,0,0,1,24.91,0A12.39,12.39,0,0,1,13.69,25.81m9.2-12.22L14.72,7.66a1.76,1.76,0,0,0-2.06,0L4.49,13.6A1.71,1.71,0,0,0,4.12,16a1.76,1.76,0,0,0,2.44.37l7.13-5.19,7.13,5.19A1.75,1.75,0,0,0,23.26,16a1.71,1.71,0,0,0-.37-2.41"/></clipPath><clipPath id="clip-path-2"><rect class="cls-2" x="-1.77" y="-1.83" width="30" height="30"/></clipPath></defs><title>cards</title><g class="cls-3"><g class="cls-4"><rect class="cls-5" x="-3.77" y="-3.83" width="34.91" height="34.64"/></g></g></svg>