<?xml version="1.0" encoding="UTF-8"?>
<svg width="108px" height="86px" viewBox="0 0 108 86" version="1.1" xmlns="http://www.w3.org/2000/svg" xmlns:xlink="http://www.w3.org/1999/xlink">
    <!-- Generator: Sketch 49.2 (51160) - http://www.bohemiancoding.com/sketch -->
    <title>illustration-home</title>
    <desc>Created with Sketch.</desc>
    <defs></defs>
    <g id="illustration-home" stroke="none" stroke-width="1" fill="none" fill-rule="evenodd">
        <g id="home" transform="translate(4.000000, 0.000000)">
            <rect id="Rectangle-8" fill="#FFF1D2" x="71" y="8" width="8" height="23"></rect>
            <path d="M71,8 L71,31 L79,31 L79,8 L71,8 Z M71,4 L79,4 C81.209139,4 83,5.790861 83,8 L83,31 C83,33.209139 81.209139,35 79,35 L71,35 C68.790861,35 67,33.209139 67,31 L67,8 C67,5.790861 68.790861,4 71,4 Z" id="Rectangle-8" fill="#494440" fill-rule="nonzero"></path>
            <polygon id="Rectangle-6" fill="#FFFFFF" points="18 31.5294118 50 4 82 31.5294118 82 82 18 82"></polygon>
            <path d="M50,47 L50,47 C54.9705627,47 59,51.0294373 59,56 L59,82 L41,82 L41,56 C41,51.0294373 45.0294373,47 50,47 Z" id="Rectangle-7" fill="#FAD980"></path>
            <path d="M18,31.5294118 L18,82 L82,82 L82,31.5294118 L50,4 L18,31.5294118 Z M15.3913303,28.4971119 L47.3913303,0.96770016 C48.8911277,-0.32256672 51.1088723,-0.32256672 52.6086697,0.96770016 L84.6086697,28.4971119 C85.4919525,29.2569949 86,30.3642463 86,31.5294118 L86,82 C86,84.209139 84.209139,86 82,86 L18,86 C15.790861,86 14,84.209139 14,82 L14,31.5294118 C14,30.3642463 14.5080475,29.2569949 15.3913303,28.4971119 Z" id="Rectangle-6" fill="#494440" fill-rule="nonzero"></path>
            <polygon id="Rectangle-6" fill="#00A6D2" points="4 38.7476974 50 4 96 38.7476974 92.1872502 44 50 11.5797935 7.81274975 44"></polygon>
            <path d="M4,38.7476974 L7.81274975,44 L50,11.5797935 L92.1872502,44 L96,38.7476974 L50,4 L4,38.7476974 Z M50,16.6245007 L10.2501036,47.171641 C8.46452537,48.5438284 5.89863135,48.1722103 4.57572328,46.3498212 L0.762973526,41.0975186 C-0.517370091,39.3337647 -0.150059314,36.8696359 1.58901475,35.5559659 L47.5890148,0.808268473 C49.0156935,-0.269422824 50.9843065,-0.269422824 52.4109852,0.808268473 L98.4109852,35.5559659 C100.150059,36.8696359 100.51737,39.3337647 99.2370265,41.0975186 L95.4242767,46.3498212 C94.1013686,48.1722103 91.5354746,48.5438284 89.7498964,47.171641 L50,16.6245007 Z" id="Rectangle-6" fill="#494440" fill-rule="nonzero"></path>
            <path d="M50,47 C45.0294373,47 41,51.0294373 41,56 L41,82 L59,82 L59,56 C59,51.0294373 54.9705627,47 50,47 Z M50,44 C56.627417,44 62,49.372583 62,56 L62,85 L38,85 L38,56 C38,49.372583 43.372583,44 50,44 Z" id="Rectangle-7" fill="#494440" fill-rule="nonzero"></path>
        </g>
    </g>
</svg>