<svg xmlns="http://www.w3.org/2000/svg" viewBox="0 0 138 138"><g fill="#046799"><path d="M49.8 30v4.8h-1.3V23.4h3.1c1.4 0 2.4.3 3.1.8.7.5 1 1.3 1 2.4 0 1.5-.8 2.5-2.3 3.1l3.1 5.1h-1.6L52.2 30h-2.4zm0-1.1h1.8c.9 0 1.6-.2 2.1-.6s.7-.9.7-1.7c0-.8-.2-1.3-.7-1.6s-1.2-.5-2.1-.5h-1.7v4.4zM61.8 35c-1.3 0-2.3-.4-3-1.2-.8-.8-1.1-1.8-1.1-3.2 0-1.4.3-2.5 1-3.3s1.6-1.2 2.7-1.2 1.9.4 2.5 1.1.9 1.6.9 2.8v.8H59c0 1 .3 1.8.8 2.3.5.5 1.2.8 2 .8.9 0 1.8-.2 2.7-.6v1.2c-.5.2-.9.3-1.3.4-.4 0-.9.1-1.4.1zm-.4-7.8c-.7 0-1.2.2-1.6.7-.4.4-.6 1.1-.7 1.9h4.5c0-.8-.2-1.4-.5-1.9-.5-.5-1-.7-1.7-.7zM71 27.2h-2.2v7.6h-1.3v-7.6H66v-.6l1.5-.5v-.5c0-2.1.9-3.2 2.8-3.2.5 0 1 .1 1.6.3l-.3 1c-.5-.2-.9-.2-1.3-.2-.5 0-.9.2-1.1.5s-.4.8-.4 1.6v.6H71v1zm1.4-3.3c0-.3.1-.5.2-.7.1-.1.3-.2.5-.2s.4.1.5.2c.2.1.2.4.2.6s-.1.5-.2.7c-.2.1-.3.2-.5.2s-.4-.1-.5-.2c-.1-.1-.2-.3-.2-.6zm1.4 10.9h-1.3v-8.6h1.3v8.6zM82.5 34.8v-5.5c0-.7-.2-1.2-.5-1.6-.3-.3-.8-.5-1.5-.5-.9 0-1.6.2-2 .7-.4.5-.6 1.3-.6 2.4v4.5h-1.3v-8.6h1.1l.2 1.2h.1c.3-.4.6-.7 1.1-1 .5-.2 1-.3 1.6-.3 1 0 1.8.2 2.3.7.5.5.8 1.3.8 2.4v5.6h-1.3zM90 35c-1.3 0-2.3-.4-3-1.2-.7-.8-1.1-1.8-1.1-3.2 0-1.4.3-2.5 1-3.3s1.6-1.2 2.7-1.2 1.9.4 2.5 1.1.9 1.6.9 2.8v.8h-5.9c0 1 .3 1.8.8 2.3.5.5 1.2.8 2 .8.9 0 1.8-.2 2.7-.6v1.2c-.5.2-.9.3-1.3.4-.2 0-.7.1-1.3.1zm-.3-7.8c-.7 0-1.2.2-1.6.7-.4.4-.7 1.1-.7 1.9h4.5c0-.8-.2-1.4-.5-1.9-.5-.5-1-.7-1.7-.7zM74.9 46.2c.1.1.2.2.2.4s-.1.3-.2.4l-4 4c-.1.1-.2.2-.4.2s-.3-.1-.4-.2l-4-4c-.1-.1-.2-.2-.2-.4s.1-.3.2-.4c.1-.1.2-.2.4-.2h8c.1 0 .2.1.4.2zM53 61.8h3.2c1.5 0 2.6.2 3.3.7.7.5 1 1.2 1 2.1 0 .7-.2 1.2-.6 1.7-.4.4-.9.7-1.7.9v.1c1.7.3 2.6 1.2 2.6 2.7 0 1-.3 1.8-1 2.4-.7.6-1.7.9-2.9.9h-4V61.8zm1.3 4.9h2.2c.9 0 1.6-.1 2-.4.4-.3.6-.8.6-1.5 0-.6-.2-1.1-.7-1.4-.5-.3-1.2-.4-2.2-.4h-2v3.7zm0 1.1v4.3h2.4c.9 0 1.6-.2 2.1-.5.5-.4.7-.9.7-1.7 0-.7-.2-1.2-.7-1.6s-1.2-.5-2.2-.5h-2.3zM64.4 64.6v5.6c0 .7.2 1.2.5 1.6.3.3.8.5 1.5.5.9 0 1.6-.2 2-.7s.6-1.3.6-2.4v-4.5h1.3v8.6h-1.1l-.2-1.2h-.1c-.3.4-.6.7-1.1 1-.5.2-1 .3-1.6.3-1 0-1.8-.2-2.3-.7-.5-.5-.8-1.3-.8-2.4v-5.6h1.3zM72.9 62.3c0-.3.1-.5.2-.7.1-.1.3-.2.5-.2s.4.1.5.2c.2.1.2.4.2.6s-.1.5-.2.7c-.2.1-.3.2-.5.2s-.4-.1-.5-.2c-.2-.1-.2-.3-.2-.6zm1.4 10.9H73v-8.6h1.3v8.6zM78.3 73.2H77V61h1.3v12.2zM86.9 72.1c-.7.9-1.6 1.3-2.8 1.3-1.1 0-2-.4-2.6-1.1-.6-.8-.9-1.9-.9-3.3s.3-2.5.9-3.3 1.5-1.2 2.6-1.2c1.2 0 2.1.4 2.7 1.3h.1l-.1-.6V61h1.3v12.2H87l-.1-1.1zm-2.6.2c.9 0 1.5-.2 1.9-.7s.6-1.3.6-2.3V69c0-1.2-.2-2.1-.6-2.6-.4-.5-1-.8-1.9-.8-.8 0-1.3.3-1.7.9-.4.6-.6 1.4-.6 2.5s.2 1.9.6 2.5c.3.5.9.8 1.7.8zM74.9 84.6c.1.1.1.2.1.4s-.1.3-.2.4l-4 4c-.1.1-.2.2-.4.2s-.3-.1-.4-.2l-4-4c-.1-.1-.2-.2-.2-.4s.1-.3.2-.4c.1-.1.2-.2.4-.2h8c.2 0 .3.1.5.2zM31.3 111.6v-11.4h1.3v11.4h-1.3zM46.5 111.6V106c0-.7-.1-1.2-.4-1.5-.3-.3-.7-.5-1.4-.5-.8 0-1.4.2-1.8.7-.4.5-.6 1.2-.6 2.1v4.8H41V106c0-.7-.1-1.2-.4-1.5-.3-.3-.7-.5-1.4-.5-.8 0-1.4.2-1.8.7-.4.5-.6 1.3-.6 2.4v4.5h-1.3V103h1.1l.2 1.2h.1c.2-.4.6-.7 1-1s.9-.4 1.5-.4c1.3 0 2.2.5 2.6 1.5h.1c.3-.4.6-.8 1.1-1.1.5-.3 1-.4 1.7-.4 1 0 1.7.2 2.2.7.5.5.7 1.3.7 2.4v5.6h-1.3zM54.4 111.8c-.6 0-1.1-.1-1.5-.3-.5-.2-.8-.5-1.2-.9h-.1c.1.5.1 1 .1 1.4v3.5h-1.3V103h1.1l.2 1.2h.1c.3-.5.7-.8 1.2-1 .4-.2 1-.3 1.5-.3 1.1 0 2 .4 2.6 1.2.6.8.9 1.9.9 3.3s-.3 2.5-.9 3.3c-.7.7-1.6 1.1-2.7 1.1zm-.2-7.8c-.9 0-1.5.2-1.9.7s-.6 1.3-.6 2.3v.3c0 1.2.2 2.1.6 2.6.4.5 1 .8 1.9.8.7 0 1.3-.3 1.7-.9.4-.6.6-1.4.6-2.5s-.2-1.9-.6-2.5c-.3-.5-.9-.8-1.7-.8zM61.5 111.6h-1.3V99.4h1.3v12.2zM67.9 111.8c-1.3 0-2.3-.4-3-1.2-.7-.8-1.1-1.8-1.1-3.2 0-1.4.3-2.5 1-3.3s1.6-1.2 2.7-1.2 1.9.4 2.5 1.1c.6.7.9 1.6.9 2.8v.8H65c0 1 .3 1.8.8 2.3.5.5 1.2.8 2 .8.9 0 1.8-.2 2.7-.6v1.2c-.5.2-.9.3-1.3.4-.2 0-.7.1-1.3.1zm-.4-7.8c-.7 0-1.2.2-1.6.7-.4.4-.6 1.1-.7 1.9h4.5c0-.8-.2-1.4-.5-1.9-.5-.5-1-.7-1.7-.7zM84.2 111.6V106c0-.7-.1-1.2-.4-1.5-.3-.3-.7-.5-1.4-.5-.8 0-1.4.2-1.8.7-.4.5-.6 1.2-.6 2.1v4.8h-1.3V106c0-.7-.1-1.2-.4-1.5-.3-.3-.7-.5-1.4-.5-.8 0-1.4.2-1.8.7-.4.5-.6 1.3-.6 2.4v4.5h-1.3V103h1.1l.2 1.2h.1c.2-.4.6-.7 1-1s.9-.4 1.5-.4c1.3 0 2.2.5 2.6 1.5h.1c.3-.4.6-.8 1.1-1.1.5-.3 1-.4 1.7-.4 1 0 1.7.2 2.2.7.5.5.7 1.3.7 2.4v5.6h-1.3zM91.8 111.8c-1.3 0-2.3-.4-3-1.2-.7-.8-1.1-1.8-1.1-3.2 0-1.4.3-2.5 1-3.3s1.6-1.2 2.7-1.2 1.9.4 2.5 1.1c.6.7.9 1.6.9 2.8v.8H89c0 1 .3 1.8.8 2.3.5.5 1.2.8 2 .8.9 0 1.8-.2 2.7-.6v1.2c-.5.2-.9.3-1.3.4-.4 0-.9.1-1.4.1zm-.4-7.8c-.7 0-1.2.2-1.6.7-.4.4-.7 1.1-.7 1.9h4.5c0-.8-.2-1.4-.5-1.9-.5-.5-1-.7-1.7-.7zM103 111.6v-5.5c0-.7-.2-1.2-.5-1.6-.3-.3-.8-.5-1.5-.5-.9 0-1.6.2-2 .7-.4.5-.6 1.3-.6 2.4v4.5h-1.3V103h1.1l.2 1.2h.1c.3-.4.6-.7 1.1-1 .5-.2 1-.3 1.6-.3 1 0 1.8.2 2.3.7.5.5.8 1.3.8 2.4v5.6H103zM109.7 110.7c.2 0 .5 0 .7-.1.2 0 .4-.1.5-.1v1c-.1.1-.3.1-.6.2-.3 0-.5.1-.7.1-1.7 0-2.5-.9-2.5-2.6V104h-1.2v-.6l1.2-.5.5-1.8h.8v2h2.5v1h-2.5v5c0 .5.1.9.4 1.2.1.2.5.4.9.4z"/></g><path fill="none" stroke="#046799" stroke-miterlimit="10" stroke-dasharray="2,3" d="M102.3 33.2C123 40.6 137 54.7 137 70.8c0 8.6-4 16.6-10.8 23.3"/><path fill="#046799" d="M123.9 89.4l-3.1 9.4 9.7-1.9"/><g><path fill="none" stroke="#046799" stroke-miterlimit="10" stroke-dasharray="2,3" d="M21.4 101.7C8.8 93.8 1 82.9 1 70.8c0-15.3 12.5-28.7 31.3-36.4"/><path fill="#046799" d="M32.7 39.7l6.4-7.6-9.9-1.8"/></g></svg>