<svg xmlns="http://www.w3.org/2000/svg" viewBox="0 0 138 138"><g fill="#046799"><path d="M47.1 28.5V17.1h1.3v11.4h-1.3zM57.2 27.4c-.7.9-1.6 1.3-2.8 1.3-1.1 0-2-.4-2.6-1.1-.6-.8-.9-1.9-.9-3.3s.3-2.5.9-3.3 1.5-1.2 2.6-1.2c1.2 0 2.1.4 2.7 1.3h.1l-.1-.6v-4.1h1.3v12.2h-1.1l-.1-1.2zm-2.6.2c.9 0 1.5-.2 1.9-.7s.6-1.3.6-2.3v-.3c0-1.2-.2-2.1-.6-2.6-.4-.5-1-.8-1.9-.8-.8 0-1.3.3-1.7.9-.4.6-.6 1.4-.6 2.5s.2 1.9.6 2.5c.4.5 1 .8 1.7.8zM64.8 28.7c-1.3 0-2.3-.4-3-1.2-.7-.8-1.1-1.8-1.1-3.2 0-1.4.3-2.5 1-3.3s1.6-1.2 2.7-1.2 1.9.4 2.5 1.1.9 1.6.9 2.8v.8h-5.9c0 1 .3 1.8.8 2.3.5.5 1.2.8 2 .8.9 0 1.8-.2 2.7-.6v1.2c-.5.2-.9.3-1.3.4-.2 0-.7.1-1.3.1zm-.3-7.8c-.7 0-1.2.2-1.6.7-.4.4-.6 1.1-.7 1.9h4.5c0-.8-.2-1.4-.5-1.9-.5-.5-1-.7-1.7-.7zM75.5 28.5l-.3-1.2h-.1c-.4.5-.9.9-1.3 1.1-.4.2-1 .3-1.6.3-.8 0-1.5-.2-2-.7-.5-.4-.7-1.1-.7-1.9 0-1.7 1.4-2.6 4.1-2.7h1.5v-.5c0-.7-.1-1.2-.4-1.5s-.8-.5-1.4-.5c-.7 0-1.5.2-2.4.7l-.4-1c.4-.2.9-.4 1.4-.5.5-.1 1-.2 1.5-.2 1 0 1.8.2 2.3.7s.7 1.2.7 2.2v5.8h-.9zm-3-.9c.8 0 1.4-.2 1.9-.7s.7-1.1.7-1.9v-.8l-1.3.1c-1 0-1.8.2-2.2.5-.5.3-.7.7-.7 1.3 0 .5.1.8.4 1.1.3.3.7.4 1.2.4zM81.9 27.6c.2 0 .5 0 .7-.1.2 0 .4-.1.5-.1v1c-.1.1-.3.1-.6.2s-.5.1-.7.1c-1.7 0-2.5-.9-2.5-2.6V21H78v-.6l1.2-.5.5-1.8h.8v2H83v1h-2.5v5c0 .5.1.9.4 1.2.2.2.5.3 1 .3zM88.4 28.7c-1.3 0-2.3-.4-3-1.2-.7-.8-1.1-1.8-1.1-3.2 0-1.4.3-2.5 1-3.3s1.6-1.2 2.7-1.2 1.9.4 2.5 1.1.9 1.6.9 2.8v.8h-5.9c0 1 .3 1.8.8 2.3.5.5 1.2.8 2 .8.9 0 1.8-.2 2.7-.6v1.2c-.5.2-.9.3-1.3.4-.3 0-.8.1-1.3.1zm-.4-7.8c-.7 0-1.2.2-1.6.7-.4.4-.7 1.1-.7 1.9h4.5c0-.8-.2-1.4-.5-1.9-.5-.5-1-.7-1.7-.7zM73.4 39.9c.1.1.2.2.2.4s-.1.3-.2.4l-4 4c-.1.1-.2.2-.4.2s-.3-.1-.4-.2l-4-4c-.1-.1-.2-.2-.2-.4s.1-.3.2-.4c.1-.1.2-.2.4-.2h8c.1 0 .2.1.4.2zM41 58.8c0 1.2-.4 2-1.2 2.7s-1.9.9-3.4.9H35v4.5h-1.3V55.5h3c2.8 0 4.3 1.1 4.3 3.3zm-6 2.5h1.2c1.2 0 2-.2 2.6-.6.5-.4.8-1 .8-1.8s-.2-1.3-.7-1.7c-.5-.4-1.3-.6-2.3-.6H35v4.7zM47.1 58.2c.4 0 .7 0 1 .1l-.2 1.2c-.4-.1-.7-.1-.9-.1-.7 0-1.3.3-1.8.8s-.7 1.3-.7 2.1v4.6h-1.3v-8.6h1.1l.1 1.6h.1c.3-.6.7-1 1.1-1.3.4-.3.9-.4 1.5-.4zM57.1 62.6c0 1.4-.4 2.5-1.1 3.3s-1.7 1.2-2.9 1.2c-.8 0-1.4-.2-2-.5s-1.1-1-1.4-1.6c-.3-.7-.5-1.5-.5-2.4 0-1.4.3-2.5 1-3.3.7-.8 1.7-1.2 2.9-1.2s2.1.4 2.9 1.2c.7.9 1.1 2 1.1 3.3zm-6.6 0c0 1.1.2 1.9.7 2.5s1.1.9 1.9.9c.8 0 1.5-.3 1.9-.9.4-.6.7-1.4.7-2.5s-.2-1.9-.7-2.5c-.4-.6-1.1-.8-1.9-.8-.8 0-1.5.3-1.9.8-.4.6-.7 1.4-.7 2.5zM62.1 66c.2 0 .5 0 .7-.1.2 0 .4-.1.5-.1v1c-.1.1-.3.1-.6.2s-.5.1-.7.1c-1.7 0-2.5-.9-2.5-2.6v-5.1h-1.2v-.6l1.2-.5.5-1.8h.8v2h2.5v1h-2.5v5c0 .5.1.9.4 1.2.1.2.5.3.9.3zM72.4 62.6c0 1.4-.4 2.5-1.1 3.3s-1.7 1.2-2.9 1.2c-.8 0-1.4-.2-2-.5s-1.1-1-1.4-1.6c-.3-.7-.5-1.5-.5-2.4 0-1.4.3-2.5 1-3.3.7-.8 1.7-1.2 2.9-1.2s2.1.4 2.9 1.2c.7.9 1.1 2 1.1 3.3zm-6.5 0c0 1.1.2 1.9.7 2.5s1.1.9 1.9.9c.8 0 1.5-.3 1.9-.9.4-.6.7-1.4.7-2.5s-.2-1.9-.7-2.5c-.4-.6-1.1-.8-1.9-.8-.8 0-1.5.3-1.9.8-.5.6-.7 1.4-.7 2.5zM77.4 66c.2 0 .5 0 .7-.1.2 0 .4-.1.5-.1v1c-.1.1-.4.2-.6.2s-.5.1-.7.1c-1.7 0-2.5-.9-2.5-2.6v-5.1h-1.2v-.6l1.2-.5.5-1.8h.7v2h2.5v1H76v5c0 .5.1.9.4 1.2.3.2.6.3 1 .3zM78.9 58.3h1.4l1.9 4.9c.4 1.1.7 1.9.8 2.4.1-.3.2-.7.4-1.4.2-.6.9-2.6 2.1-5.9H87l-3.7 9.8c-.4 1-.8 1.6-1.3 2.1-.5.4-1.1.6-1.8.6-.4 0-.8 0-1.2-.1v-1c.3.1.6.1 1 .1.9 0 1.5-.5 1.9-1.5l.5-1.2-3.5-8.8zM92.3 67.1c-.6 0-1.1-.1-1.5-.3s-.8-.5-1.2-.9h-.1c.1.5.1 1 .1 1.4v3.5h-1.3V58.3h1.1l.2 1.2h.1c.3-.5.7-.8 1.2-1 .4-.2 1-.3 1.5-.3 1.1 0 2 .4 2.6 1.2s.9 1.9.9 3.3-.3 2.5-.9 3.3c-.7.7-1.5 1.1-2.7 1.1zm-.1-7.8c-.9 0-1.5.2-1.9.7s-.6 1.3-.6 2.3v.3c0 1.2.2 2.1.6 2.6.4.5 1 .8 1.9.8.7 0 1.3-.3 1.7-.9.4-.6.6-1.4.6-2.5s-.2-1.9-.6-2.5c-.4-.5-1-.8-1.7-.8zM101.8 67.1c-1.3 0-2.3-.4-3-1.2-.7-.8-1.1-1.8-1.1-3.2 0-1.4.3-2.5 1-3.3s1.6-1.2 2.7-1.2 1.9.4 2.5 1.1.9 1.6.9 2.8v.8H99c0 1 .3 1.8.8 2.3.5.5 1.2.8 2 .8.9 0 1.8-.2 2.7-.6v1.2c-.5.2-.9.3-1.3.4-.3 0-.8.1-1.4.1zm-.4-7.8c-.7 0-1.2.2-1.6.7-.4.4-.7 1.1-.7 1.9h4.5c0-.8-.2-1.4-.5-1.9-.5-.5-1-.7-1.7-.7zM58.5 105.3h-1.3V95.1h-3.6v-1.2h8.6v1.2h-3.6v10.2zM67.2 105.5c-1.3 0-2.3-.4-3-1.2-.7-.8-1.1-1.8-1.1-3.2 0-1.4.3-2.5 1-3.3s1.6-1.2 2.7-1.2 1.9.4 2.5 1.1.9 1.6.9 2.8v.8h-5.9c0 1 .3 1.8.8 2.3.5.5 1.2.8 2 .8.9 0 1.8-.2 2.7-.6v1.2c-.5.2-.9.3-1.3.4-.2 0-.7.1-1.3.1zm-.3-7.8c-.7 0-1.2.2-1.6.7-.4.4-.6 1.1-.7 1.9H69c0-.8-.2-1.4-.5-1.9-.4-.5-.9-.7-1.6-.7zM78.1 103c0 .8-.3 1.4-.9 1.8s-1.4.6-2.5.6-2-.2-2.7-.5v-1.2c.4.2.9.4 1.3.5.5.1.9.2 1.4.2.7 0 1.2-.1 1.6-.3.4-.2.5-.5.5-1 0-.3-.1-.6-.4-.9s-.9-.5-1.7-.8c-.8-.3-1.4-.6-1.7-.8s-.6-.5-.8-.8-.2-.6-.2-1c0-.7.3-1.2.9-1.7.6-.4 1.3-.6 2.3-.6.9 0 1.8.2 2.7.6l-.5 1.1c-.9-.4-1.6-.5-2.3-.5-.6 0-1.1.1-1.4.3s-.5.5-.5.8c0 .2.1.4.2.6s.3.3.6.5c.3.1.8.4 1.5.6 1 .4 1.7.7 2.1 1.1.3.3.5.8.5 1.4zM83 104.4c.2 0 .5 0 .7-.1.2 0 .4-.1.5-.1v1c-.1.1-.3.1-.6.2s-.5.1-.7.1c-1.7 0-2.5-.9-2.5-2.6v-5.1h-1.2v-.6l1.2-.5.5-1.8h.8v2h2.5v1h-2.5v5c0 .5.1.9.4 1.2.1.2.5.3.9.3zM73.4 116.7c.1.1.2.2.2.4s-.1.3-.2.4l-4 4c-.1.1-.2.2-.4.2s-.3-.1-.4-.2l-4-4c-.1-.1-.2-.2-.2-.4s.1-.3.2-.4c.1-.1.2-.2.4-.2h8c.1 0 .2.1.4.2z"/></g><path fill="none" stroke="#046799" stroke-miterlimit="10" d="M43.6 100.9c-.3 0-.7-.1-1-.1"/><path fill="none" stroke="#046799" stroke-miterlimit="10" stroke-dasharray="1.9474,2.9212" d="M39.7 100.3c-21.9-3.4-37-10.5-37-18.6 0-4.5 4.6-8.7 12.3-12.1"/><path fill="none" stroke="#046799" stroke-miterlimit="10" d="M16.4 69.1c.3-.1.6-.2.9-.4"/><path fill="#046799" d="M17.6 74l6.6-7.6-9.8-1.9"/><g><path fill="none" stroke="#046799" stroke-miterlimit="10" d="M114.1 66.5c.3.1.6.2 1 .3"/><path fill="none" stroke="#046799" stroke-miterlimit="10" stroke-dasharray="1.9575,2.9362" d="M117.9 67.7c10.8 3.7 17.4 8.6 17.4 14 0 7.5-12.8 14.1-31.9 17.8"/><path fill="none" stroke="#046799" stroke-miterlimit="10" d="M101.9 99.7c-.3.1-.7.1-1 .2"/><path fill="#046799" d="M101.6 94.7l-7.8 6.2 9.3 3.7"/></g></svg>