<?xml version="1.0" encoding="UTF-8"?>
<svg width="228px" height="128px" viewBox="0 0 228 128" version="1.1" xmlns="http://www.w3.org/2000/svg" xmlns:xlink="http://www.w3.org/1999/xlink">
    <!-- Generator: Sketch 50.2 (55047) - http://www.bohemiancoding.com/sketch -->
    <title>burials-memorials-illustration</title>
    <desc>Created with Sketch.</desc>
    <defs>
        <linearGradient x1="0%" y1="50%" x2="100%" y2="50%" id="linearGradient-1">
            <stop stop-color="#003E73" offset="0%"></stop>
            <stop stop-color="#0466BA" offset="100%"></stop>
        </linearGradient>
    </defs>
    <g id="Mockups" stroke="none" stroke-width="1" fill="none" fill-rule="evenodd">
        <g id="hub-illustrations" transform="translate(-308.000000, -376.000000)">
            <g id="burials-memorials-illustration" transform="translate(308.000000, 376.000000)">
                <rect id="Rectangle-3" fill="url(#linearGradient-1)" x="0" y="0" width="228" height="128"></rect>
                <path d="M54.2102273,0 L84.0379747,0 L176.392405,128 L0,128 L0,114.951807 L54.2102273,-1.42108547e-14 Z" id="Combined-Shape" fill="#2E9AE7" opacity="0.0799999982"></path>
                <path d="M228,4.3 L126.328767,128 L101.671233,128 L1.42108547e-14,4.3 L0,0 L228,0 L228,4.3 Z" id="Combined-Shape" fill="#2E9AE7" opacity="0.0799999982"></path>
                <path d="M114.505747,104.768683 C136.515922,104.768683 154.768683,86.515922 154.768683,64.5057471 C154.768683,41.6303506 136.659509,23.2313167 114.505747,23.2313167 C91.484078,23.2313167 73.2313167,41.484078 73.2313167,64.5057471 C73.2313167,86.6595093 91.6303506,104.768683 114.505747,104.768683 Z M114.505747,108 C89.699471,108 70,88.300529 70,64.5057471 C70,39.699471 89.699471,20 114.505747,20 C138.300529,20 158,39.699471 158,64.5057471 C158,88.300529 138.300529,108 114.505747,108 Z" id="Oval-3" fill="#FFFFFF" fill-rule="nonzero"></path>
                <path d="M111.550728,42.0469631 C111.894477,41.3594647 112.395778,40.9011329 113.054631,40.6719664 C113.713484,40.4427998 114.372336,40.4427998 115.031189,40.6719664 C115.690042,40.9011329 116.191342,41.3594647 116.535091,42.0469631 L122.121015,53.3906861 L134.667861,55.1953693 C135.412651,55.3099519 135.999889,55.6537011 136.429575,56.2266168 C136.859262,56.7995325 137.059782,57.4297389 137.031136,58.1172373 C137.002491,58.8047356 136.730356,59.4062967 136.214732,59.9219205 L127.105379,68.7734619 L129.253811,81.320307 C129.368394,82.0078053 129.239488,82.652335 128.867093,83.2538961 C128.494699,83.8554572 127.964752,84.242175 127.277253,84.4140496 C126.589755,84.5859242 125.930902,84.4999869 125.300695,84.1562377 L114.04291,78.3125016 L102.785124,84.1562377 C102.154918,84.4999869 101.496065,84.5859242 100.808566,84.4140496 C100.121068,84.242175 99.5911208,83.8554572 99.2187263,83.2538961 C98.8463318,82.652335 98.7174259,82.0078053 98.8320085,81.320307 L100.980441,68.7734619 L91.8710876,59.9219205 C91.3554638,59.4062967 91.0833286,58.8047356 91.0546833,58.1172373 C91.026038,57.4297389 91.2265579,56.7995325 91.6562444,56.2266168 C92.0859308,55.6537011 92.6731686,55.3099519 93.4179589,55.1953693 L105.964804,53.3906861 L111.550728,42.0469631 Z" id="" fill="#FFFFFF"></path>
            </g>
        </g>
    </g>
</svg>