<?xml version="1.0" encoding="UTF-8"?>
<svg width="228px" height="128px" viewBox="0 0 228 128" version="1.1" xmlns="http://www.w3.org/2000/svg" xmlns:xlink="http://www.w3.org/1999/xlink">
    <!-- Generator: Sketch 50.2 (55047) - http://www.bohemiancoding.com/sketch -->
    <title>careers-employment-illustration</title>
    <desc>Created with Sketch.</desc>
    <defs>
        <linearGradient x1="0%" y1="50%" x2="100%" y2="50%" id="linearGradient-1">
            <stop stop-color="#EB7F29" offset="0%"></stop>
            <stop stop-color="#EBA329" offset="98.5549133%"></stop>
        </linearGradient>
    </defs>
    <g id="Mockups" stroke="none" stroke-width="1" fill="none" fill-rule="evenodd">
        <g id="hub-illustrations" transform="translate(-40.000000, -208.000000)">
            <g id="careers-employment-illustration" transform="translate(40.000000, 208.000000)">
                <rect id="Rectangle-3" fill="url(#linearGradient-1)" x="0" y="0" width="228" height="128"></rect>
                <path d="M55.7758007,0 L164.900411,0 L51.9004115,128 L6.66387326,128 L3.55271368e-15,116.772822 L0,17.7149556 L55.7758007,3.55271368e-15 Z" id="Combined-Shape" fill="#FFD79A" opacity="0.109999999"></path>
                <path d="M17.3315917,0 L90.5537914,0 L228,6.59336056 L228,128 L175.004319,128 L17.3315917,0 Z" id="Combined-Shape" fill="#FFD79A" opacity="0.109999999"></path>
                <path d="M114.505747,104.768683 C136.515922,104.768683 154.768683,86.515922 154.768683,64.5057471 C154.768683,41.6303506 136.659509,23.2313167 114.505747,23.2313167 C91.484078,23.2313167 73.2313167,41.484078 73.2313167,64.5057471 C73.2313167,86.6595093 91.6303506,104.768683 114.505747,104.768683 Z M114.505747,108 C89.699471,108 70,88.300529 70,64.5057471 C70,39.699471 89.699471,20 114.505747,20 C138.300529,20 158,39.699471 158,64.5057471 C158,88.300529 138.300529,108 114.505747,108 Z" id="Oval-3" fill="#FFFFFF" fill-rule="nonzero"></path>
                <path d="M119.542903,64.2500328 L136.042864,64.2500328 L136.042864,76.6250033 C136.042864,77.7708334 135.641823,78.7447903 134.839742,79.5468713 C134.037661,80.3489523 133.063704,80.7499934 131.917874,80.7499934 L96.1679589,80.7499934 C95.0221288,80.7499934 94.0481719,80.3489523 93.2460909,79.5468713 C92.4440099,78.7447903 92.0429688,77.7708334 92.0429688,76.6250033 L92.0429688,64.2500328 L108.542929,64.2500328 L108.542929,65.9687787 C108.542929,66.2552359 108.64319,66.4987258 108.84371,66.6992457 C109.04423,66.8997656 109.28772,67.0000262 109.574177,67.0000262 L118.511656,67.0000262 C118.798113,67.0000262 119.041603,66.8997656 119.242123,66.6992457 C119.442643,66.4987258 119.542903,66.2552359 119.542903,65.9687787 L119.542903,64.2500328 Z M136.042864,54.6250557 L136.042864,61.5000393 L92.0429688,61.5000393 L92.0429688,54.6250557 C92.0429688,53.4792256 92.4440099,52.5052687 93.2460909,51.7031877 C94.0481719,50.9011067 95.0221288,50.5000656 96.1679589,50.5000656 L103.042943,50.5000656 L103.042943,46.3750754 C103.042943,45.2292452 103.443984,44.2552884 104.246065,43.4532074 C105.048146,42.6511264 106.022103,42.2500852 107.167933,42.2500852 L120.9179,42.2500852 C122.06373,42.2500852 123.037687,42.6511264 123.839768,43.4532074 C124.641849,44.2552884 125.04289,45.2292452 125.04289,46.3750754 L125.04289,50.5000656 L131.917874,50.5000656 C133.063704,50.5000656 134.037661,50.9011067 134.839742,51.7031877 C135.641823,52.5052687 136.042864,53.4792256 136.042864,54.6250557 Z M119.542903,47.7500721 L108.542929,47.7500721 L108.542929,50.5000656 L119.542903,50.5000656 L119.542903,47.7500721 Z" id="" fill="#FFFFFF"></path>
            </g>
        </g>
    </g>
</svg>