<?xml version="1.0" encoding="UTF-8"?>
<svg width="228px" height="128px" viewBox="0 0 228 128" version="1.1" xmlns="http://www.w3.org/2000/svg" xmlns:xlink="http://www.w3.org/1999/xlink">
    <!-- Generator: Sketch 50.2 (55047) - http://www.bohemiancoding.com/sketch -->
    <title>health-care-illustration</title>
    <desc>Created with Sketch.</desc>
    <defs>
        <linearGradient x1="0%" y1="50%" x2="95.300446%" y2="50%" id="linearGradient-1">
            <stop stop-color="#0071BC" offset="2.41826228%"></stop>
            <stop stop-color="#249AE8" offset="100%"></stop>
        </linearGradient>
    </defs>
    <g id="Mockups" stroke="none" stroke-width="1" fill="none" fill-rule="evenodd">
        <g id="hub-illustrations" transform="translate(-40.000000, -40.000000)">
            <g id="health-care-illustration" transform="translate(40.000000, 40.000000)">
                <rect id="Rectangle-3" fill="url(#linearGradient-1)" x="0" y="0" width="228" height="128"></rect>
                <path d="M67.3700512,-7.10542736e-15 L180.370051,128 L110.947641,128 L1.42108547e-14,92.7619128 L0,0 L67.3700512,0 Z" id="Combined-Shape" fill="#20D8FF" opacity="0.0800000057"></path>
                <path d="M227.056309,0 L69.3835814,128 L0,128 L0,0 L227.056309,0 Z" id="Combined-Shape" fill="#20D8FF" opacity="0.0800000057"></path>
                <path d="M114.505747,104.768683 C136.515922,104.768683 154.768683,86.515922 154.768683,64.5057471 C154.768683,41.6303506 136.659509,23.2313167 114.505747,23.2313167 C91.484078,23.2313167 73.2313167,41.484078 73.2313167,64.5057471 C73.2313167,86.6595093 91.6303506,104.768683 114.505747,104.768683 Z M114.505747,108 C89.699471,108 70,88.300529 70,64.5057471 C70,39.699471 89.699471,20 114.505747,20 C138.300529,20 158,39.699471 158,64.5057471 C158,88.300529 138.300529,108 114.505747,108 Z" id="Oval-3" fill="#FFFFFF" fill-rule="nonzero"></path>
                <path d="M127.792884,80.7499934 L100.292949,80.7499934 L100.292949,50.5000656 L103.042943,50.5000656 L103.042943,46.3750754 C103.042943,45.2292452 103.443984,44.2552884 104.246065,43.4532074 C105.048146,42.6511264 106.022103,42.2500852 107.167933,42.2500852 L120.9179,42.2500852 C122.06373,42.2500852 123.037687,42.6511264 123.839768,43.4532074 C124.641849,44.2552884 125.04289,45.2292452 125.04289,46.3750754 L125.04289,50.5000656 L127.792884,50.5000656 L127.792884,80.7499934 Z M119.542903,47.7500721 L108.542929,47.7500721 L108.542929,50.5000656 L119.542903,50.5000656 L119.542903,47.7500721 Z M136.042864,54.6250557 L136.042864,76.6250033 C136.042864,77.7708334 135.641823,78.7447903 134.839742,79.5468713 C134.037661,80.3489523 133.063704,80.7499934 131.917874,80.7499934 L130.542877,80.7499934 L130.542877,50.5000656 L131.917874,50.5000656 C133.063704,50.5000656 134.037661,50.9011067 134.839742,51.7031877 C135.641823,52.5052687 136.042864,53.4792256 136.042864,54.6250557 Z M97.5429556,80.7499934 L96.1679589,80.7499934 C95.0221288,80.7499934 94.0481719,80.3489523 93.2460909,79.5468713 C92.4440099,78.7447903 92.0429688,77.7708334 92.0429688,76.6250033 L92.0429688,54.6250557 C92.0429688,53.4792256 92.4440099,52.5052687 93.2460909,51.7031877 C94.0481719,50.9011067 95.0221288,50.5000656 96.1679589,50.5000656 L97.5429556,50.5000656 L97.5429556,80.7499934 Z M122.292897,65.6250295 L122.292897,62.8750361 C122.292897,62.4739949 122.163991,62.1445691 121.906179,61.8867572 C121.648367,61.6289453 121.318941,61.5000393 120.9179,61.5000393 L116.79291,61.5000393 L116.79291,57.3750492 C116.79291,56.974008 116.664004,56.6445822 116.406192,56.3867703 C116.14838,56.1289584 115.818954,56.0000525 115.417913,56.0000525 L112.66792,56.0000525 C112.266878,56.0000525 111.937453,56.1289584 111.679641,56.3867703 C111.421829,56.6445822 111.292923,56.974008 111.292923,57.3750492 L111.292923,61.5000393 L107.167933,61.5000393 C106.766892,61.5000393 106.437466,61.6289453 106.179654,61.8867572 C105.921842,62.1445691 105.792936,62.4739949 105.792936,62.8750361 L105.792936,65.6250295 C105.792936,66.0260707 105.921842,66.3554965 106.179654,66.6133084 C106.437466,66.8711203 106.766892,67.0000262 107.167933,67.0000262 L111.292923,67.0000262 L111.292923,71.1250164 C111.292923,71.5260575 111.421829,71.8554834 111.679641,72.1132953 C111.937453,72.3711072 112.266878,72.5000131 112.66792,72.5000131 L115.417913,72.5000131 C115.818954,72.5000131 116.14838,72.3711072 116.406192,72.1132953 C116.664004,71.8554834 116.79291,71.5260575 116.79291,71.1250164 L116.79291,67.0000262 L120.9179,67.0000262 C121.318941,67.0000262 121.648367,66.8711203 121.906179,66.6133084 C122.163991,66.3554965 122.292897,66.0260707 122.292897,65.6250295 Z" id="" fill="#FFFFFF"></path>
            </g>
        </g>
    </g>
</svg>