<?xml version="1.0" encoding="UTF-8"?>
<svg width="228px" height="128px" viewBox="0 0 228 128" version="1.1" xmlns="http://www.w3.org/2000/svg" xmlns:xlink="http://www.w3.org/1999/xlink">
    <!-- Generator: Sketch 50.2 (55047) - http://www.bohemiancoding.com/sketch -->
    <title>pension-illustration</title>
    <desc>Created with Sketch.</desc>
    <defs>
        <linearGradient x1="0%" y1="50%" x2="100%" y2="50%" id="linearGradient-1">
            <stop stop-color="#195C27" offset="0%"></stop>
            <stop stop-color="#0F8753" offset="100%"></stop>
        </linearGradient>
    </defs>
    <g id="Mockups" stroke="none" stroke-width="1" fill="none" fill-rule="evenodd">
        <g id="hub-illustrations" transform="translate(-308.000000, -208.000000)">
            <g id="pension-illustration" transform="translate(308.000000, 208.000000)">
                <rect id="Rectangle-3" fill="url(#linearGradient-1)" x="0" y="0" width="228" height="128"></rect>
                <path d="M96.8287293,0 L150.320442,0 L192.044199,128 L0,128 L0,119.22449 L96.8287293,0 Z" id="Combined-Shape" fill="#54C994" opacity="0.0700000003"></path>
                <path d="M30.6224906,0 L228,62.9551652 L228,87.7133382 L62.7061964,128 L0,128 L0,0 L30.6224906,0 Z" id="Combined-Shape" fill="#54C994" opacity="0.0700000003"></path>
                <path d="M114.505747,104.768683 C136.515922,104.768683 154.768683,86.515922 154.768683,64.5057471 C154.768683,41.6303506 136.659509,23.2313167 114.505747,23.2313167 C91.484078,23.2313167 73.2313167,41.484078 73.2313167,64.5057471 C73.2313167,86.6595093 91.6303506,104.768683 114.505747,104.768683 Z M114.505747,108 C89.699471,108 70,88.300529 70,64.5057471 C70,39.699471 89.699471,20 114.505747,20 C138.300529,20 158,39.699471 158,64.5057471 C158,88.300529 138.300529,108 114.505747,108 Z" id="Oval-3" fill="#FFFFFF" fill-rule="nonzero"></path>
                <path d="M119.628863,62.0233898 C121.290317,62.5390135 122.708283,63.4270318 123.88276,64.6874459 C125.057236,65.94786 125.830672,67.423116 126.203067,69.1132166 C126.575461,70.8033172 126.475202,72.5077398 125.902286,74.2264857 C125.214788,76.1171062 124.040311,77.6210088 122.378857,78.7381937 C120.717403,79.8553785 118.855428,80.4426162 116.792933,80.4999082 L116.792933,84.6248984 C116.792933,85.0259395 116.664027,85.3553654 116.406215,85.6131773 C116.148403,85.8709892 115.818977,85.9998951 115.417936,85.9998951 L112.667943,85.9998951 C112.266901,85.9998951 111.937476,85.8709892 111.679664,85.6131773 C111.421852,85.3553654 111.292946,85.0259395 111.292946,84.6248984 L111.292946,80.4999082 C108.542952,80.4999082 106.050771,79.6405353 103.816401,77.9217894 C103.529944,77.6353321 103.358069,77.291583 103.300777,76.8905418 C103.243485,76.4895007 103.386715,76.1171062 103.730464,75.773357 L106.652332,72.8514889 C106.881498,72.6796144 107.153632,72.5650317 107.468736,72.5077398 C107.78384,72.4504478 108.084621,72.5363851 108.371078,72.7655516 C109.230451,73.3384674 110.204406,73.6249246 111.292946,73.6249246 L117.050745,73.6249246 C117.738243,73.6249246 118.325481,73.381436 118.812459,72.8944576 C119.299438,72.4074791 119.542926,71.7915961 119.542926,71.0468057 C119.542926,70.531182 119.371052,70.0442035 119.027302,69.5858717 C118.683553,69.1275399 118.253867,68.8124361 117.738243,68.6405615 L108.886702,66.0624426 C106.938789,65.4895269 105.30598,64.4582794 103.988276,62.9687 C102.670571,61.4791207 101.897135,59.7603748 101.667969,57.8124623 C101.553386,55.9791338 101.897135,54.2747099 102.699216,52.6991932 C103.501297,51.1236766 104.647129,49.8632625 106.136708,48.9179523 C107.626287,47.972642 109.287743,47.4999869 111.121071,47.4999869 L111.292946,47.4999869 L111.292946,43.3749967 C111.292946,42.9739556 111.421852,42.6445297 111.679664,42.3867178 C111.937476,42.1289059 112.266901,42 112.667943,42 L115.417936,42 C115.818977,42 116.148403,42.1289059 116.406215,42.3867178 C116.664027,42.6445297 116.792933,42.9739556 116.792933,43.3749967 L116.792933,47.4999869 C119.542926,47.4999869 122.006462,48.3593598 124.18354,50.0781057 C124.527289,50.364563 124.727809,50.7083121 124.785101,51.1093533 C124.842393,51.5103944 124.699164,51.8541436 124.355415,52.1406008 L121.433547,55.1484062 C121.20438,55.3202807 120.932246,55.4348634 120.617142,55.4921553 C120.302038,55.5494473 120.001258,55.4921553 119.714801,55.3202807 C118.855428,54.6900743 117.881472,54.3749705 116.792933,54.3749705 L111.035134,54.3749705 C110.347636,54.3749705 109.760398,54.6184591 109.273419,55.1054375 C108.786441,55.5924159 108.542952,56.208299 108.542952,56.9530893 C108.542952,57.4687131 108.714827,57.9556916 109.058576,58.4140234 C109.402325,58.8723552 109.832012,59.187459 110.347636,59.3593336 L119.628863,62.0233898 Z" id="" fill="#FFFFFF"></path>
            </g>
        </g>
    </g>
</svg>