<?xml version="1.0" encoding="UTF-8"?>
<svg width="228px" height="128px" viewBox="0 0 228 128" version="1.1" xmlns="http://www.w3.org/2000/svg" xmlns:xlink="http://www.w3.org/1999/xlink">
    <!-- Generator: Sketch 50.2 (55047) - http://www.bohemiancoding.com/sketch -->
    <title>records-illustration</title>
    <desc>Created with Sketch.</desc>
    <defs>
        <linearGradient x1="0%" y1="50%" x2="100%" y2="50%" id="linearGradient-1">
            <stop stop-color="#2E8540" offset="0%"></stop>
            <stop stop-color="#55BB4B" offset="100%"></stop>
        </linearGradient>
    </defs>
    <g id="Mockups" stroke="none" stroke-width="1" fill="none" fill-rule="evenodd">
        <g id="hub-illustrations" transform="translate(-576.000000, -376.000000)">
            <g id="records-illustration" transform="translate(576.000000, 376.000000)">
                <rect id="Rectangle-3" fill="url(#linearGradient-1)" x="0" y="0" width="228" height="128"></rect>
                <path d="M15.0551724,0 L228,125.51626 L228,128 L220.433962,128 L2.84217094e-14,80.5081301 L0,0 L15.0551724,0 Z" id="Combined-Shape" fill="#77D67E" opacity="0.0800000057"></path>
                <path d="M161.197368,0 L190.802632,0 L228,115.387755 L228,128 L0,128 L0,121.900498 L161.197368,0 Z" id="Combined-Shape" fill="#77D67E" opacity="0.0800000057"></path>
                <path d="M114.505747,104.768683 C136.515922,104.768683 154.768683,86.515922 154.768683,64.5057471 C154.768683,41.6303506 136.659509,23.2313167 114.505747,23.2313167 C91.484078,23.2313167 73.2313167,41.484078 73.2313167,64.5057471 C73.2313167,86.6595093 91.6303506,104.768683 114.505747,104.768683 Z M114.505747,108 C89.699471,108 70,88.300529 70,64.5057471 C70,39.699471 89.699471,20 114.505747,20 C138.300529,20 158,39.699471 158,64.5057471 C158,88.300529 138.300529,108 114.505747,108 Z" id="Oval-3" fill="#FFFFFF" fill-rule="nonzero"></path>
                <path d="M134.667861,44.2500852 C135.813691,44.2500852 136.787648,44.6511264 137.589729,45.4532074 C138.39181,46.2552884 138.792851,47.2292452 138.792851,48.3750754 L138.792851,49.7500721 L89.2929688,49.7500721 L89.2929688,48.3750754 C89.2929688,47.2292452 89.6940099,46.2552884 90.4960909,45.4532074 C91.2981719,44.6511264 92.2721288,44.2500852 93.4179589,44.2500852 L134.667861,44.2500852 Z M89.2929688,78.6250033 L89.2929688,52.5000656 L138.792851,52.5000656 L138.792851,78.6250033 C138.792851,79.7708334 138.39181,80.7447903 137.589729,81.5468713 C136.787648,82.3489523 135.813691,82.7499934 134.667861,82.7499934 L93.4179589,82.7499934 C92.2721288,82.7499934 91.2981719,82.3489523 90.4960909,81.5468713 C89.6940099,80.7447903 89.2929688,79.7708334 89.2929688,78.6250033 Z M119.542897,58.6875508 L119.542897,60.0625475 C119.542897,60.2344221 119.614511,60.3919734 119.75774,60.5352027 C119.900969,60.6784319 120.05852,60.7500459 120.230395,60.7500459 L132.605365,60.7500459 C132.77724,60.7500459 132.934791,60.6784319 133.078021,60.5352027 C133.22125,60.3919734 133.292864,60.2344221 133.292864,60.0625475 L133.292864,58.6875508 C133.292864,58.5156762 133.22125,58.358125 133.078021,58.2148957 C132.934791,58.0716664 132.77724,58.0000525 132.605365,58.0000525 L120.230395,58.0000525 C120.05852,58.0000525 119.900969,58.0716664 119.75774,58.2148957 C119.614511,58.358125 119.542897,58.5156762 119.542897,58.6875508 Z M119.542897,64.1875377 L119.542897,65.5625344 C119.542897,65.734409 119.614511,65.8919603 119.75774,66.0351895 C119.900969,66.1784188 120.05852,66.2500328 120.230395,66.2500328 L132.605365,66.2500328 C132.77724,66.2500328 132.934791,66.1784188 133.078021,66.0351895 C133.22125,65.8919603 133.292864,65.734409 133.292864,65.5625344 L133.292864,64.1875377 C133.292864,64.0156631 133.22125,63.8581118 133.078021,63.7148826 C132.934791,63.5716533 132.77724,63.5000393 132.605365,63.5000393 L120.230395,63.5000393 C120.05852,63.5000393 119.900969,63.5716533 119.75774,63.7148826 C119.614511,63.8581118 119.542897,64.0156631 119.542897,64.1875377 Z M119.542897,69.6875246 L119.542897,71.0625213 C119.542897,71.2343959 119.614511,71.3919472 119.75774,71.5351764 C119.900969,71.6784057 120.05852,71.7500197 120.230395,71.7500197 L132.605365,71.7500197 C132.77724,71.7500197 132.934791,71.6784057 133.078021,71.5351764 C133.22125,71.3919472 133.292864,71.2343959 133.292864,71.0625213 L133.292864,69.6875246 C133.292864,69.51565 133.22125,69.3580987 133.078021,69.2148695 C132.934791,69.0716402 132.77724,69.0000262 132.605365,69.0000262 L120.230395,69.0000262 C120.05852,69.0000262 119.900969,69.0716402 119.75774,69.2148695 C119.614511,69.3580987 119.542897,69.51565 119.542897,69.6875246 Z M104.417933,58.0000525 C102.928353,58.0000525 101.639294,58.5443216 100.550754,59.6328611 C99.4622149,60.7214006 98.9179458,62.01046 98.9179458,63.5000393 C98.9179458,64.9896187 99.4622149,66.2786781 100.550754,67.3672176 C101.639294,68.4557571 102.928353,69.0000262 104.417933,69.0000262 C105.907512,69.0000262 107.196571,68.4557571 108.285111,67.3672176 C109.37365,66.2786781 109.91792,64.9896187 109.91792,63.5000393 C109.91792,62.01046 109.37365,60.7214006 108.285111,59.6328611 C107.196571,58.5443216 105.907512,58.0000525 104.417933,58.0000525 Z M95.0507675,75.5312607 C94.9361849,75.9323018 95.0221222,76.3190196 95.3085794,76.6914141 C95.5950366,77.0638086 95.9674324,77.2500066 96.4257642,77.2500066 L112.410101,77.2500066 C112.868433,77.2500066 113.240829,77.078132 113.527286,76.7343828 C113.813743,76.3906336 113.89968,75.9895925 113.785098,75.5312607 C113.441349,74.4427211 112.782496,73.5403795 111.80854,72.8242359 C110.834584,72.1080922 109.746045,71.7500197 108.542923,71.7500197 L107.855424,71.7500197 C106.766885,72.2083515 105.621055,72.437518 104.417933,72.437518 C103.214811,72.437518 102.06898,72.2083515 100.980441,71.7500197 L100.292943,71.7500197 C99.0898204,71.7500197 98.0012809,72.1080922 97.0273253,72.8242359 C96.0533697,73.5403795 95.3945167,74.4427211 95.0507675,75.5312607 Z" id="" fill="#FFFFFF"></path>
            </g>
        </g>
    </g>
</svg>