<?xml version="1.0" encoding="UTF-8"?>
<svg width="228px" height="128px" viewBox="0 0 228 128" version="1.1" xmlns="http://www.w3.org/2000/svg" xmlns:xlink="http://www.w3.org/1999/xlink">
    <!-- Generator: Sketch 50.2 (55047) - http://www.bohemiancoding.com/sketch -->
    <title>disability-illustration</title>
    <desc>Created with Sketch.</desc>
    <defs>
        <linearGradient x1="0%" y1="50%" x2="100%" y2="50%" id="linearGradient-1">
            <stop stop-color="#552A95" offset="0%"></stop>
            <stop stop-color="#832ED5" offset="100%"></stop>
        </linearGradient>
    </defs>
    <g id="Mockups" stroke="none" stroke-width="1" fill="none" fill-rule="evenodd">
        <g id="hub-illustrations" transform="translate(-308.000000, -40.000000)">
            <g id="disability-illustration" transform="translate(308.000000, 40.000000)">
                <rect id="Rectangle-3" fill="url(#linearGradient-1)" x="0" y="0" width="228" height="128"></rect>
                <path d="M82.6125,0 L228,0 L228,24.6206897 L171.7875,128 L152.2125,128 L82.6125,-2.84217094e-14 Z" id="Combined-Shape" fill="#A366FF" opacity="0.100000001"></path>
                <path d="M227.672727,128 L8.8817842e-16,28.6190476 L0,0 L228,0 L228,128 L227.672727,128 Z" id="Combined-Shape" fill="#A366FF" opacity="0.100000001"></path>
                <path d="M114.505747,104.768683 C136.515922,104.768683 154.768683,86.515922 154.768683,64.5057471 C154.768683,41.6303506 136.659509,23.2313167 114.505747,23.2313167 C91.484078,23.2313167 73.2313167,41.484078 73.2313167,64.5057471 C73.2313167,86.6595093 91.6303506,104.768683 114.505747,104.768683 Z M114.505747,108 C89.699471,108 70,88.300529 70,64.5057471 C70,39.699471 89.699471,20 114.505747,20 C138.300529,20 158,39.699471 158,64.5057471 C158,88.300529 138.300529,108 114.505747,108 Z" id="Oval-3" fill="#FFFFFF" fill-rule="nonzero"></path>
                <path d="M123.925692,46.0000787 C124.670482,46.0000787 125.300689,46.2578906 125.816313,46.7735143 L130.542864,51.5000656 L130.542864,68.0859635 C130.313697,67.856797 130.084532,67.656277 129.855365,67.4844025 L117.30852,57.3438016 L119.54289,55.2813065 C119.829347,54.9948493 119.9869,54.6654222 120.015545,54.2930277 C120.044191,53.9206331 119.929608,53.591206 119.671796,53.3047488 C119.413984,53.0182915 119.09888,52.8750623 118.726486,52.8750623 C118.354091,52.8750623 118.024664,52.9896449 117.738207,53.2188115 L110.863223,59.5781713 C110.118433,60.151087 109.25906,60.4088989 108.285104,60.351607 C107.311149,60.294315 106.537713,59.9362438 105.964797,59.2773908 C105.391882,58.6185377 105.105424,57.8164568 105.105424,56.8711465 C105.105424,55.9258363 105.477819,55.1380773 106.222609,54.5078709 L114.644464,46.687577 C115.160088,46.2292452 115.790294,46.0000787 116.535085,46.0000787 L123.925692,46.0000787 Z M133.292857,51.5000656 L141.542838,51.5000656 L141.542838,73.5000131 L136.042851,73.5000131 C135.29806,73.5000131 134.653531,73.2278779 134.109262,72.6836088 C133.564992,72.1393397 133.292857,71.49481 133.292857,70.7500197 L133.292857,51.5000656 Z M137.417847,70.7500197 C137.818889,70.7500197 138.148314,70.6211137 138.406126,70.3633018 C138.663938,70.10549 138.792844,69.7760641 138.792844,69.3750229 C138.792844,68.9739818 138.663938,68.6445559 138.406126,68.3867441 C138.148314,68.1289322 137.818889,68.0000262 137.417847,68.0000262 C137.016806,68.0000262 136.68738,68.1289322 136.429569,68.3867441 C136.171757,68.6445559 136.042851,68.9739818 136.042851,69.3750229 C136.042851,69.7760641 136.171757,70.10549 136.429569,70.3633018 C136.68738,70.6211137 137.016806,70.7500197 137.417847,70.7500197 Z M86.5429688,73.5000131 L86.5429688,51.5000656 L94.7929491,51.5000656 L94.7929491,70.7500197 C94.7929491,71.49481 94.5208139,72.1393397 93.9765448,72.6836088 C93.4322757,73.2278779 92.787746,73.5000131 92.0429556,73.5000131 L86.5429688,73.5000131 Z M90.6679589,68.0000262 C90.2669178,68.0000262 89.9374919,68.1289322 89.67968,68.3867441 C89.4218681,68.6445559 89.2929622,68.9739818 89.2929622,69.3750229 C89.2929622,69.7760641 89.4218681,70.10549 89.67968,70.3633018 C89.9374919,70.6211137 90.2669178,70.7500197 90.6679589,70.7500197 C91.0690001,70.7500197 91.3984259,70.6211137 91.6562378,70.3633018 C91.9140497,70.10549 92.0429556,69.7760641 92.0429556,69.3750229 C92.0429556,68.9739818 91.9140497,68.6445559 91.6562378,68.3867441 C91.3984259,68.1289322 91.0690001,68.0000262 90.6679589,68.0000262 Z M128.13662,69.6328348 C128.709535,70.0911666 129.038961,70.6927277 129.124898,71.437518 C129.210836,72.1823084 128.995993,72.8698067 128.480369,73.5000131 L127.706933,74.4453234 C127.248601,75.0755298 126.632717,75.4336023 125.859281,75.5195395 C125.085846,75.6054768 124.412671,75.3906336 123.839755,74.8750098 L123.410068,74.5312607 L120.660075,77.7968779 C120.144451,78.4843762 119.442629,78.8854174 118.554611,79 C117.666593,79.1145826 116.878834,78.8854174 116.191336,78.3125016 L114.644464,76.9375049 C113.670509,78.140627 112.424418,78.8281254 110.906192,79 C109.387966,79.1718746 108.055938,78.7708334 106.910108,77.7968779 L99.0898138,70.7500197 L97.5429425,70.7500197 L97.5429425,51.5000656 L102.269494,46.7735143 C102.785118,46.2578906 103.415324,46.0000787 104.160114,46.0000787 L111.378847,46.0000787 L104.331989,52.4453758 C103.071575,53.591206 102.412723,55.0234947 102.355431,56.7422406 C102.298139,58.4609865 102.842409,59.9362438 103.98824,61.1680113 C105.13407,62.3997787 106.552035,63.0586318 108.242136,63.1445691 C109.932236,63.2305063 111.436139,62.7005593 112.753844,61.5547291 L115.331963,59.1484848 L128.13662,69.6328348 Z" id="" fill="#FFFFFF"></path>
            </g>
        </g>
    </g>
</svg>