<?xml version="1.0" encoding="UTF-8"?>
<svg width="228px" height="128px" viewBox="0 0 228 128" version="1.1" xmlns="http://www.w3.org/2000/svg" xmlns:xlink="http://www.w3.org/1999/xlink">
    <!-- Generator: Sketch 50.2 (55047) - http://www.bohemiancoding.com/sketch -->
    <title>education-training-illustration</title>
    <desc>Created with Sketch.</desc>
    <defs>
        <linearGradient x1="0%" y1="50%" x2="100%" y2="50%" id="linearGradient-1">
            <stop stop-color="#E6A100" offset="0%"></stop>
            <stop stop-color="#DEBE00" offset="100%"></stop>
        </linearGradient>
    </defs>
    <g id="Mockups" stroke="none" stroke-width="1" fill="none" fill-rule="evenodd">
        <g id="hub-illustrations" transform="translate(-576.000000, -40.000000)">
            <g id="education-training-illustration" transform="translate(576.000000, 40.000000)">
                <rect id="Rectangle-3" fill="url(#linearGradient-1)" x="0" y="0" width="228" height="128"></rect>
                <path d="M32.7777778,0 L228,0 L228,4.75918367 L9.20289855,128 L0,128 L0,118 L32.7777778,-1.42108547e-14 Z" id="Combined-Shape" fill="#FFE448" opacity="0.109999999"></path>
                <path d="M228,51.3858268 L228,128 L211.321429,128 L-2.84217094e-14,34.8188976 L0,28.0472441 L228,51.3858268 Z" id="Combined-Shape" fill="#FFE448" opacity="0.109999999"></path>
                <path d="M114.505747,104.768683 C136.515922,104.768683 154.768683,86.515922 154.768683,64.5057471 C154.768683,41.6303506 136.659509,23.2313167 114.505747,23.2313167 C91.484078,23.2313167 73.2313167,41.484078 73.2313167,64.5057471 C73.2313167,86.6595093 91.6303506,104.768683 114.505747,104.768683 Z M114.505747,108 C89.699471,108 70,88.300529 70,64.5057471 C70,39.699471 89.699471,20 114.505747,20 C138.300529,20 158,39.699471 158,64.5057471 C158,88.300529 138.300529,108 114.505747,108 Z" id="Oval-3" fill="#FFFFFF" fill-rule="nonzero"></path>
                <path d="M133.81478,53.0222905 C134.42862,53.9062201 134.600495,55.0602393 134.256745,56.189705 L127.504505,78.4352672 C126.890665,80.5223232 124.729948,82.1428609 122.618338,82.1428609 L99.9553648,82.1428609 C97.4508975,82.1428609 94.774555,80.1540192 93.8660718,77.6004448 C93.4732142,76.4955327 93.4732142,75.4151743 93.8169646,74.4821375 C93.8660718,73.9910655 93.9642862,73.4999934 93.9888398,72.910707 C94.0133934,72.5178494 93.792411,72.1986526 93.8415182,71.9040094 C93.9397326,71.314723 94.4553582,70.8973118 94.8482158,70.2343646 C95.5848238,69.0066845 96.4196463,67.0178429 96.6897359,65.7410556 C96.8125039,65.2745372 96.5669679,64.734358 96.6897359,64.3169468 C96.8125039,63.8504284 97.2790223,63.506678 97.5245583,63.0647131 C98.1875055,61.9352475 99.0468815,59.7499771 99.1696495,58.5959578 C99.2187567,58.0803322 98.9732207,57.5155994 99.1205423,57.1227418 C99.2924175,56.558009 99.8325967,56.312473 100.200901,55.8214009 C100.790187,55.0111321 101.772331,52.6785401 101.919653,51.3771992 C101.96876,50.959788 101.723224,50.5423768 101.796885,50.100412 C101.895099,49.6338936 102.484386,49.1428216 102.877243,48.5780887 C103.908494,47.0557655 104.104923,43.6919222 107.223231,44.5758518 L107.198677,44.6495126 C107.616088,44.5512982 108.033499,44.4285302 108.450911,44.4285302 L127.136201,44.4285302 C128.29022,44.4285302 129.321471,44.9441558 129.935311,45.8035319 C130.573705,46.6874615 130.721026,47.8414807 130.377276,48.9954999 L123.649589,71.2410622 C122.49557,75.0223167 121.857177,75.8571391 118.738869,75.8571391 L97.4017903,75.8571391 C97.0825935,75.8571391 96.6897359,75.9307999 96.4687535,76.2254431 C96.2723246,76.5200863 96.247771,76.7410687 96.4441999,77.281248 C96.9352719,78.7053568 98.6294703,79 99.9799184,79 L122.642892,79 C123.551375,79 124.60718,78.4843744 124.877269,77.6004448 L132.24335,53.3660409 C132.390671,52.8995225 132.390671,52.4084504 132.366118,51.9664856 C132.93085,52.187468 133.446476,52.5312184 133.81478,53.0222905 Z M107.689749,53.0713977 C107.542427,53.5133625 107.787963,53.8571129 108.229928,53.8571129 L123.158517,53.8571129 C123.575929,53.8571129 124.042447,53.5133625 124.189769,53.0713977 L124.705394,51.4999672 C124.852716,51.0580024 124.60718,50.714252 124.165215,50.714252 L109.236626,50.714252 C108.819215,50.714252 108.352696,51.0580024 108.205375,51.4999672 L107.689749,53.0713977 Z M105.6518,59.3571194 C105.504479,59.7990843 105.750015,60.1428347 106.191979,60.1428347 L121.120569,60.1428347 C121.53798,60.1428347 122.004498,59.7990843 122.15182,59.3571194 L122.667445,57.785689 C122.814767,57.3437242 122.569231,56.9999738 122.127266,56.9999738 L107.198677,56.9999738 C106.781266,56.9999738 106.314747,57.3437242 106.167426,57.785689 L105.6518,59.3571194 Z" id="" fill="#FFFFFF"></path>
            </g>
        </g>
    </g>
</svg>