<?xml version="1.0" encoding="UTF-8"?>
<svg width="228px" height="128px" viewBox="0 0 228 128" version="1.1" xmlns="http://www.w3.org/2000/svg" xmlns:xlink="http://www.w3.org/1999/xlink">
    <!-- Generator: Sketch 50.2 (55047) - http://www.bohemiancoding.com/sketch -->
    <title>housing-assistance-illustration</title>
    <desc>Created with Sketch.</desc>
    <defs>
        <linearGradient x1="100%" y1="50%" x2="0%" y2="50%" id="linearGradient-1">
            <stop stop-color="#02BFE7" offset="0%"></stop>
            <stop stop-color="#009FB0" offset="100%"></stop>
        </linearGradient>
    </defs>
    <g id="Mockups" stroke="none" stroke-width="1" fill="none" fill-rule="evenodd">
        <g id="hub-illustrations" transform="translate(-576.000000, -208.000000)">
            <g id="housing-assistance-illustration" transform="translate(576.000000, 208.000000)">
                <rect id="Rectangle-3" fill="url(#linearGradient-1)" x="0" y="0" width="228" height="128"></rect>
                <path d="M202.181818,0 L228,0 L228,128 L196.569444,128 L2.84217094e-14,70.2326531 L0,63.5428571 L202.181818,-7.10542736e-15 Z" id="Combined-Shape" fill="#84EAFF" opacity="0.0799999982"></path>
                <path d="M44.7260274,0 L64.0958904,0 L192.972603,128 L0,128 L0,118.727273 L44.7260274,0 Z" id="Combined-Shape" fill="#84EAFF" opacity="0.0799999982"></path>
                <path d="M114.505747,104.768683 C136.515922,104.768683 154.768683,86.515922 154.768683,64.5057471 C154.768683,41.6303506 136.659509,23.2313167 114.505747,23.2313167 C91.484078,23.2313167 73.2313167,41.484078 73.2313167,64.5057471 C73.2313167,86.6595093 91.6303506,104.768683 114.505747,104.768683 Z M114.505747,108 C89.699471,108 70,88.300529 70,64.5057471 C70,39.699471 89.699471,20 114.505747,20 C138.300529,20 158,39.699471 158,64.5057471 C158,88.300529 138.300529,108 114.505747,108 Z" id="Oval-3" fill="#FFFFFF" fill-rule="nonzero"></path>
                <path d="M131.230369,78.6874984 C131.230369,79.2604141 131.029849,79.7473912 130.628808,80.1484324 C130.227767,80.5494735 129.740789,80.7499934 129.167874,80.7499934 L119.199147,80.7499934 C118.91269,80.7499934 118.6692,80.6497328 118.46868,80.4492129 C118.268161,80.248693 118.1679,80.0052031 118.1679,79.7187459 L118.1679,70.0937688 C118.1679,69.8073116 118.067639,69.5638218 117.867119,69.3633018 C117.666599,69.1627819 117.42311,69.0625213 117.136652,69.0625213 L110.949167,69.0625213 C110.66271,69.0625213 110.41922,69.1627819 110.2187,69.3633018 C110.01818,69.5638218 109.91792,69.8073116 109.91792,70.0937688 L109.91792,79.7187459 C109.91792,80.0052031 109.817659,80.248693 109.617139,80.4492129 C109.416619,80.6497328 109.173129,80.7499934 108.886672,80.7499934 L98.9179458,80.7499934 C98.3450301,80.7499934 97.8580529,80.5494735 97.4570118,80.1484324 C97.0559706,79.7473912 96.8554507,79.2604141 96.8554507,78.6874984 L96.8554507,66.3984652 C96.8554507,66.054716 96.9700333,65.7682588 97.1991999,65.5390922 L113.355411,52.3047488 C113.584578,52.1328742 113.813743,52.0469369 114.04291,52.0469369 C114.272076,52.0469369 114.501242,52.1328742 114.730408,52.3047488 L130.88662,65.5390922 C131.115786,65.7682588 131.230369,66.054716 131.230369,66.3984652 L131.230369,78.6874984 Z M138.449102,61.1562902 C138.620976,61.3281647 138.721237,61.5573313 138.749882,61.8437885 C138.778527,62.1302457 138.706913,62.3880576 138.535039,62.6172242 L136.386606,65.2812803 C136.214732,65.5104469 135.985565,65.6250295 135.699108,65.6250295 C135.412651,65.6250295 135.154839,65.5390922 134.925672,65.3672176 L114.730408,48.7813197 C114.501242,48.6094451 114.272076,48.5235078 114.04291,48.5235078 C113.813743,48.5235078 113.584578,48.6094451 113.355411,48.7813197 L93.160147,65.3672176 C92.9309805,65.5390922 92.6731686,65.6250295 92.3867114,65.6250295 C92.1002542,65.6250295 91.8710876,65.5104469 91.699213,65.2812803 L89.5507806,62.6172242 C89.378906,62.3880576 89.3072921,62.1302457 89.3359374,61.8437885 C89.3645827,61.5573313 89.4648433,61.3281647 89.6367179,61.1562902 L111.464791,43.1953955 C112.209581,42.5651891 113.068954,42.2500852 114.04291,42.2500852 C115.016865,42.2500852 115.904885,42.5651891 116.706966,43.1953955 L124.355385,49.5547553 L124.355385,43.2813328 C124.355385,42.9948756 124.455646,42.7513857 124.656166,42.5508658 C124.856686,42.3503458 125.100175,42.2500852 125.386633,42.2500852 L130.199121,42.2500852 C130.485578,42.2500852 130.729068,42.3503458 130.929588,42.5508658 C131.130108,42.7513857 131.230369,42.9948756 131.230369,43.2813328 L131.230369,55.2266168 L138.449102,61.1562902 Z" id="" fill="#FFFFFF"></path>
            </g>
        </g>
    </g>
</svg>