<?xml version="1.0" encoding="UTF-8"?>
<svg width="228px" height="128px" viewBox="0 0 228 128" version="1.1" xmlns="http://www.w3.org/2000/svg" xmlns:xlink="http://www.w3.org/1999/xlink">
    <!-- Generator: Sketch 50.2 (55047) - http://www.bohemiancoding.com/sketch -->
    <title>life-insurance-illustration</title>
    <desc>Created with Sketch.</desc>
    <defs>
        <linearGradient x1="0%" y1="50%" x2="100%" y2="50%" id="linearGradient-1">
            <stop stop-color="#988530" offset="0%"></stop>
            <stop stop-color="#C6A820" offset="100%"></stop>
        </linearGradient>
    </defs>
    <g id="Mockups" stroke="none" stroke-width="1" fill="none" fill-rule="evenodd">
        <g id="hub-illustrations" transform="translate(-40.000000, -376.000000)">
            <g id="life-insurance-illustration" transform="translate(40.000000, 376.000000)">
                <rect id="Rectangle-3" fill="url(#linearGradient-1)" x="0" y="0" width="228" height="128"></rect>
                <path d="M160.725645,0 L225.685524,0 L228,3.89938883 L228,95.7885472 L126.581762,128 L47.725645,128 L160.725645,0 Z" id="Combined-Shape" fill="#F8DC5E" opacity="0.0899999961"></path>
                <path d="M38.7424997,7.10542736e-15 L174.720681,128 L0,128 L0,0 L38.7424997,0 Z" id="Combined-Shape" fill="#F8DC5E" opacity="0.0899999961"></path>
                <path d="M114.505747,104.768683 C136.515922,104.768683 154.768683,86.515922 154.768683,64.5057471 C154.768683,41.6303506 136.659509,23.2313167 114.505747,23.2313167 C91.484078,23.2313167 73.2313167,41.484078 73.2313167,64.5057471 C73.2313167,86.6595093 91.6303506,104.768683 114.505747,104.768683 Z M114.505747,108 C89.699471,108 70,88.300529 70,64.5057471 C70,39.699471 89.699471,20 114.505747,20 C138.300529,20 158,39.699471 158,64.5057471 C158,88.300529 138.300529,108 114.505747,108 Z" id="Oval-3" fill="#FFFFFF" fill-rule="nonzero"></path>
                <path d="M94.7929491,59.7500459 C93.3033697,59.7500459 92.0143103,59.2057768 90.9257708,58.1172373 C89.8372313,57.0286978 89.2929622,55.7396384 89.2929622,54.250059 C89.2929622,52.7604797 89.8372313,51.4714202 90.9257708,50.3828807 C92.0143103,49.2943412 93.3033697,48.7500721 94.7929491,48.7500721 C96.2825284,48.7500721 97.5715879,49.2943412 98.6601274,50.3828807 C99.7486669,51.4714202 100.292936,52.7604797 100.292936,54.250059 C100.292936,55.7396384 99.7486669,57.0286978 98.6601274,58.1172373 C97.5715879,59.2057768 96.2825284,59.7500459 94.7929491,59.7500459 Z M133.292857,59.7500459 C131.803278,59.7500459 130.514219,59.2057768 129.425679,58.1172373 C128.33714,57.0286978 127.79287,55.7396384 127.79287,54.250059 C127.79287,52.7604797 128.33714,51.4714202 129.425679,50.3828807 C130.514219,49.2943412 131.803278,48.7500721 133.292857,48.7500721 C134.782437,48.7500721 136.071496,49.2943412 137.160036,50.3828807 C138.248575,51.4714202 138.792844,52.7604797 138.792844,54.250059 C138.792844,55.7396384 138.248575,57.0286978 137.160036,58.1172373 C136.071496,59.2057768 134.782437,59.7500459 133.292857,59.7500459 Z M136.042851,62.5000393 C137.53243,62.5000393 138.82149,63.0443084 139.910029,64.1328479 C140.998569,65.2213875 141.542838,66.5104469 141.542838,68.0000262 L141.542838,70.7500197 C141.542838,71.49481 141.270702,72.1393397 140.726433,72.6836088 C140.182164,73.2278779 139.537635,73.5000131 138.792844,73.5000131 L133.120983,73.5000131 C132.834525,71.49481 132.11838,69.6614802 130.97255,68.0000262 C129.82672,66.3385723 128.394431,65.0495129 126.675686,64.1328479 C127.764225,63.0443084 129.053285,62.5000393 130.542864,62.5000393 L136.042851,62.5000393 Z M114.042903,62.5000393 C112.324157,62.5000393 110.719994,62.0703529 109.230415,61.2109799 C107.740835,60.351607 106.566359,59.1771302 105.706986,57.6875508 C104.847613,56.1979715 104.417926,54.5938082 104.417926,52.8750623 C104.417926,51.1563164 104.847613,49.5521531 105.706986,48.0625738 C106.566359,46.5729944 107.740835,45.3985176 109.230415,44.5391447 C110.719994,43.6797717 112.324157,43.2500852 114.042903,43.2500852 C115.761649,43.2500852 117.365812,43.6797717 118.855392,44.5391447 C120.344971,45.3985176 121.519448,46.5729944 122.378821,48.0625738 C123.238194,49.5521531 123.66788,51.1563164 123.66788,52.8750623 C123.66788,54.5938082 123.238194,56.1979715 122.378821,57.6875508 C121.519448,59.1771302 120.344971,60.351607 118.855392,61.2109799 C117.365812,62.0703529 115.761649,62.5000393 114.042903,62.5000393 Z M120.660075,65.2500328 C122.436113,65.2500328 124.083243,65.6940426 125.601469,66.5820609 C127.119695,67.4700791 128.322817,68.6732013 129.210836,70.1914273 C130.098854,71.7096532 130.542864,73.3567839 130.542864,75.1328217 L130.542864,77.6250033 C130.542864,78.7708334 130.141823,79.7447903 129.339742,80.5468713 C128.537661,81.3489523 127.563704,81.7499934 126.417874,81.7499934 L101.667933,81.7499934 C100.522103,81.7499934 99.5481456,81.3489523 98.7460647,80.5468713 C97.9439837,79.7447903 97.5429425,78.7708334 97.5429425,77.6250033 L97.5429425,75.1328217 C97.5429425,73.3567839 97.9869523,71.7096532 98.8749706,70.1914273 C99.7629889,68.6732013 100.966111,67.4700791 102.484337,66.5820609 C104.002563,65.6940426 105.649694,65.2500328 107.425731,65.2500328 L108.11323,65.2500328 C110.061142,66.1666977 112.0377,66.6250295 114.042903,66.6250295 C116.048106,66.6250295 118.024664,66.1666977 119.972577,65.2500328 L120.660075,65.2500328 Z M101.410121,64.1328479 C99.6913749,65.0495129 98.2590862,66.3385723 97.113256,68.0000262 C95.9674259,69.6614802 95.2512809,71.49481 94.9648237,73.5000131 L89.2929622,73.5000131 C88.5481719,73.5000131 87.9036422,73.2278779 87.3593731,72.6836088 C86.815104,72.1393397 86.5429688,71.49481 86.5429688,70.7500197 L86.5429688,68.0000262 C86.5429688,66.5104469 87.0872378,65.2213875 88.1757774,64.1328479 C89.2643169,63.0443084 90.5533763,62.5000393 92.0429556,62.5000393 L97.5429425,62.5000393 C99.0325219,62.5000393 100.321581,63.0443084 101.410121,64.1328479 Z" id="" fill="#FFFFFF"></path>
            </g>
        </g>
    </g>
</svg>