<svg xmlns="http://www.w3.org/2000/svg" viewBox="0 0 324 73.86"><defs><style>.cls-1{fill:#fff;}.cls-2{fill:#00467f;}</style></defs><title>Asset 1</title><g id="Layer_2" data-name="Layer 2"><g id="Layer_1-2" data-name="Layer 1"><path class="cls-1" d="M186.42,20h-.59l-.59.2-.4.39-.2.79-.1,1.19V31a5.32,5.32,0,0,1-5,2.77A4.92,4.92,0,0,1,174.83,31V20.79l-.2-.59L174,20h-.79l-.1-.1v-.2l.1-.1h1.09l1.59.1,1.58-.1h1.09l.1.1v.2l-.1.1h-.79l-.59.2-.2.59v9.6c0,1.29,1.48,2.48,3.26,2.48s3.47-1.19,3.47-2.48V22.58l-.1-1.19-.2-.79-.4-.39-.59-.2h-.59l-.1-.1v-.2l.1-.1h.89l1.39.1,1.39-.1h.89l.1.1v.2Z"/><path class="cls-1" d="M187.69,33.67a1.39,1.39,0,1,1,1.39-1.39A1.35,1.35,0,0,1,187.69,33.67Z"/><path class="cls-1" d="M195.09,33.76a4,4,0,0,1-3.17-1.09h-.1l-.79.79h-.2l-.1-.1-.2-4.46.1-.2h.3l.1.2.39,1.09c.8,2.18,2,3.27,3.47,3.27h.2a2.71,2.71,0,0,0,2.77-2.77c0-1.49-1-2.58-3.17-3.37-2.83-1-3.86-2.18-3.86-4.16s1.78-3.66,4.45-3.66a3.83,3.83,0,0,1,2.67,1h.1l.69-.69h.2l.1.1v3.66l-.1.2h-.3l-.1-.2-.39-1.09a3.36,3.36,0,0,0-2.87-2.48h-.1a2.34,2.34,0,0,0-2.48,2.48c0,1.39.7,2,3.17,2.87,2.63.89,3.86,2.28,3.86,4.36C199.74,32,197.86,33.76,195.09,33.76Z"/><path class="cls-1" d="M202.11,33.67a1.39,1.39,0,1,1,1.39-1.39A1.35,1.35,0,0,1,202.11,33.67Z"/><path class="cls-1" d="M215.18,33.47H214l-2.38-.1-1.59.1h-1.19l-.1-.1v-.2l.1-.1h.89l.59-.2.2-.59V20.79l-.2-.59-.59-.2h-.79l-.1-.1v-.2l.1-.1H210l1.59.1,2.38-.1h1.19a6.35,6.35,0,0,1,6.53,6.53v.4A6.81,6.81,0,0,1,215.18,33.47Zm-.5-13.37H213.5l-.59.2-.2.4V32.38l.2.4.59.2h1.19c3,0,4.65-2.37,4.65-6.43S217.65,20.1,214.68,20.1Z"/><path class="cls-1" d="M231.06,28.22h-6.14l-.1.2v.69c0,2.38,1,3.76,2.77,3.76a2.86,2.86,0,0,0,2.77-2.57l.1-.1h.2a.45.45,0,0,1,.4.5,3.72,3.72,0,0,1-3.76,3,4.39,4.39,0,0,1-4.65-4.75v-.2a4.66,4.66,0,0,1,4.65-5c2.28,0,3.76,1.68,3.86,4.36Zm-4-4c-1.29,0-2.08,1.29-2.24,3.43h4l.2-.2C229.08,25.35,228.39,24.26,227.1,24.26Z"/><path class="cls-1" d="M237.8,33.67A3.17,3.17,0,0,1,235,32.48v4.75l.2.4.6.2h.69l.1.1v.2l-.1.1h-1l-1.48-.1-1.49.1h-.89l-.1-.1v-.2l.1-.1h.59l.59-.2.2-.4V25l-.2-.4-.59-.2h-.49l-.1-.1v-.2l.1-.1h3.17l.1.1v1.68a3.46,3.46,0,0,1,3-2c2.38,0,4,1.88,4,4.75S240.28,33.67,237.8,33.67Zm-.4-9c-1,0-1.88.79-2.37,2.18v4.56a2.38,2.38,0,0,0,2.28,1.48c1.49,0,2.48-1.58,2.48-4.16S239,24.66,237.41,24.66Z"/><path class="cls-1" d="M250.48,33.67a1.91,1.91,0,0,1-1.78-1.78,3.1,3.1,0,0,1-2.87,1.78,2.48,2.48,0,0,1-2.77-2.48c0-1.88,1.68-2.87,4.95-2.87h.5l.1-.1V25.84a1.75,1.75,0,0,0-1.78-1.39,2.35,2.35,0,0,0-1.58.6v1.39a1.16,1.16,0,0,1-1.09.79.79.79,0,0,1-.89-.89c0-1.19,2-2.58,4-2.58h.1a3.22,3.22,0,0,1,3.27,2v6.44l.2.4.29.3.4.1.59-.2h.2l.1.1v.2A2.85,2.85,0,0,1,250.48,33.67Zm-1.88-4.75-.1-.1H248c-1.88,0-3,.85-3,2.28a1.52,1.52,0,0,0,1.58,1.68,2.12,2.12,0,0,0,2-1.48Z"/><path class="cls-1" d="M259.1,26.74a.94.94,0,0,1-.89-.79v-.1l.69-.69a.59.59,0,0,0-.6-.59c-.79,0-1.49,1.23-1.88,3.37v4.56l.2.39.59.2H258l.1.1v.2l-.1.1h-1.09l-1.49-.1-1.48.1h-.89l-.1-.1v-.2l.1-.1h.59l.59-.2.2-.39V25.15l-.2-.59-.59-.2h-.49l-.1-.1v-.2l.1-.1h3l.1.1v2.67c.4-2,1.19-3,2.48-3a1.48,1.48,0,0,1,1.58,1.59A1.26,1.26,0,0,1,259.1,26.74Z"/><path class="cls-1" d="M264.47,33.67A2.54,2.54,0,0,1,262,32.18V24.66l-.1-.1h-1.29l-.1-.1v-.2l.1-.1,1.19-.2.2-.2.4-2,.2-.2,1.19-.59.2.2v2.67l.1.1h2.47l.1.1v.4l-.1.1h-2.47l-.1.1v6.63c0,1.09.3,1.68,1,1.68s1-.49,1-1.39V30.3l.1-.1c.3,0,.6.3.6.79v.5A2.08,2.08,0,0,1,264.47,33.67Z"/><path class="cls-1" d="M283.52,33.47h-.79l-1.49-.1-1.48.1H279l-.1-.1v-.2l.1-.1h.49l.59-.2.2-.39V25.74a1.49,1.49,0,0,0-1.49-1c-.89,0-1.78.79-2.32,2.18v5.54l.2.39.59.2h.5l.1.1v.2l-.1.1H277l-1.48-.1-1.49.1h-.79l-.1-.1v-.2l.1-.1h.49l.59-.2.2-.39V25.74a1.49,1.49,0,0,0-1.48-1c-.89,0-1.78.79-2.32,2.18v5.54l.2.39.59.2H272l.1.1v.2l-.1.1h-.75l-1.49-.1-1.49.1h-.89l-.1-.1v-.2l.1-.1H268l.59-.2.2-.39V25l-.2-.4-.59-.2h-.49l-.1-.1v-.2l.1-.1h3.13l.1.1v1.88a3.68,3.68,0,0,1,3.11-2.18,2.7,2.7,0,0,1,2.57,2.18,3.58,3.58,0,0,1,3.07-2.18,2.77,2.77,0,0,1,2.73,2.08v6.63l.2.39.59.2h.54l.1.1v.2Z"/><path class="cls-1" d="M292.47,28.22h-6.14l-.1.2v.69c0,2.38,1,3.76,2.77,3.76a2.86,2.86,0,0,0,2.77-2.57l.1-.1h.2a.45.45,0,0,1,.39.5,3.72,3.72,0,0,1-3.76,3,4.39,4.39,0,0,1-4.65-4.75v-.2a4.66,4.66,0,0,1,4.65-5c2.28,0,3.76,1.68,3.86,4.36Zm-4-4c-1.29,0-2.08,1.29-2.24,3.43h4l.2-.2C290.49,25.35,289.79,24.26,288.51,24.26Z"/><path class="cls-1" d="M303.87,33.47H303l-1.49-.1-1.49.1h-.89l-.1-.1v-.2l.1-.1h.59l.59-.2.2-.39V25.84A1.54,1.54,0,0,0,299,24.75c-1.09,0-2,.79-2.47,2.28v5.45l.2.39.59.2h.59l.1.1v.2l-.1.1H297l-1.49-.1-1.49.1h-.89l-.1-.1v-.2l.1-.1h.59l.59-.2.2-.39V25l-.2-.4-.59-.2h-.5l-.1-.1v-.2l.1-.1h3.17l.1.1v1.88a3.57,3.57,0,0,1,3.27-2.18,2.74,2.74,0,0,1,2.67,2.08v6.63l.2.39.59.2h.6l.1.1v.2Z"/><path class="cls-1" d="M307.52,33.67A2.53,2.53,0,0,1,305,32.18V24.66l-.1-.1h-1.29l-.1-.1v-.2l.1-.1,1.19-.2.2-.2.4-2,.2-.2,1.19-.59.2.2v2.67l.1.1h2.47l.1.1v.4l-.1.1h-2.47l-.1.1v6.63c0,1.09.3,1.68,1,1.68s1-.49,1-1.39V30.3l.1-.1c.3,0,.6.3.6.79v.5A2.08,2.08,0,0,1,307.52,33.67Z"/><path class="cls-1" d="M178,53.95a4.32,4.32,0,0,1-4.46-4.65v-.2c0-3,2-5.05,4.65-5.05a4.32,4.32,0,0,1,4.46,4.65v.2C182.65,51.87,180.67,53.95,178,53.95Zm.1-9.41q-2.38,0-2.38,4.45t2.38,4.46q2.38,0,2.38-4.46T178.1,44.54Z"/><path class="cls-1" d="M189.59,41.77a.93.93,0,0,1-1-1v-.1l.69-.69a1.4,1.4,0,0,0-1.19-.6c-.85,0-1.48.79-1.48,1.88v2.87l.1.1h2.08l.1.1v.4l-.1.1h-2.08l-.1.1v7.82l.2.4.59.2h.89l.1.1v.2l-.1.1h-1.09l-1.58-.1-1.59.1h-.79l-.1-.1v-.2l.1-.1h.59l.59-.2.2-.4V44.94l-.1-.1h-1.29l-.1-.1v-.2l.1-.1,1.19-.2.2-.2V41.87a3.56,3.56,0,0,1,3.37-3h.1c1.39,0,2.48.79,2.48,1.88A1.06,1.06,0,0,1,189.59,41.77Z"/><path class="cls-1" d="M204.94,40.29h-.59l-.59.3-.5.49-.3.59L198.9,53.75l-.2.1h-.6l-.2-.1L193.65,41l-.49-.5-.6-.2H192l-.1-.1V40l.1-.1h1l1.58.1,1.59-.1h1.68l.1.1v.2l-.1.1h-.89l-.59.2-.2.4v.3l3.07,9.21.1.4.1-.4,2.77-8.81v-.5l-.2-.39-.2-.2-.59-.2h-.79l-.1-.1V40l.1-.1h1.29l1.19.1,1.19-.1h.89l.1.1v.2Z"/><path class="cls-1" d="M211.51,48.5h-6.14l-.1.2v.69c0,2.38,1,3.76,2.77,3.76a2.86,2.86,0,0,0,2.77-2.58l.1-.1h.2a.45.45,0,0,1,.4.5,3.72,3.72,0,0,1-3.76,3,4.39,4.39,0,0,1-4.65-4.75V49a4.66,4.66,0,0,1,4.65-5c2.28,0,3.76,1.68,3.86,4.36Zm-4-4c-1.29,0-2.08,1.28-2.24,3.43h4l.2-.2C209.53,45.63,208.83,44.54,207.55,44.54Z"/><path class="cls-1" d="M215.83,53.95a2.52,2.52,0,0,1-2.47-1.49V44.94l-.1-.1H212l-.1-.1v-.2l.1-.1,1.19-.2.2-.2.39-2,.2-.2,1.19-.59.2.2v2.67l.1.1h2.48l.1.1v.4l-.1.1h-2.48l-.1.1v6.63c0,1.09.29,1.68,1,1.68s1-.5,1-1.39V50.58l.1-.1c.3,0,.59.3.59.79v.5A2.08,2.08,0,0,1,215.83,53.95Z"/><path class="cls-1" d="M227.15,48.5H221l-.1.2v.69c0,2.38,1,3.76,2.77,3.76a2.86,2.86,0,0,0,2.77-2.58l.1-.1h.2a.45.45,0,0,1,.4.5,3.72,3.72,0,0,1-3.76,3,4.39,4.39,0,0,1-4.65-4.75V49a4.66,4.66,0,0,1,4.65-5c2.28,0,3.76,1.68,3.86,4.36Zm-4-4c-1.29,0-2.08,1.28-2.24,3.43h4l.2-.2C225.17,45.63,224.48,44.54,223.19,44.54Z"/><path class="cls-1" d="M233.89,47a.94.94,0,0,1-.89-.79v-.1l.69-.69a.58.58,0,0,0-.59-.59c-.79,0-1.49,1.23-1.88,3.37v4.55l.2.4.59.2h.79l.1.1v.2l-.1.1h-1.09l-1.49-.1-1.48.1h-.89l-.1-.1v-.2l.1-.1h.59l.59-.2.2-.4V45.43l-.2-.59-.59-.2H228l-.1-.1v-.2l.1-.1h3l.1.1V47c.39-2,1.19-3,2.47-3a1.48,1.48,0,0,1,1.59,1.58A1.26,1.26,0,0,1,233.89,47Z"/><path class="cls-1" d="M243,53.95a1.91,1.91,0,0,1-1.78-1.78,3.08,3.08,0,0,1-2.87,1.78,2.48,2.48,0,0,1-2.77-2.47c0-1.88,1.68-2.87,4.95-2.87h.5l.1-.1V46.13a1.75,1.75,0,0,0-1.78-1.39,2.36,2.36,0,0,0-1.58.59v1.39a1.16,1.16,0,0,1-1.09.79.79.79,0,0,1-.89-.89c0-1.19,2-2.58,4-2.58h.1a3.23,3.23,0,0,1,3.27,2v6.43l.2.4.3.3.4.1.59-.2h.2l.1.1v.2A2.86,2.86,0,0,1,243,53.95Zm-1.88-4.75-.1-.1h-.5c-1.88,0-3,.85-3,2.28a1.51,1.51,0,0,0,1.58,1.68,2.13,2.13,0,0,0,2-1.48Z"/><path class="cls-1" d="M256.23,53.75h-.89l-1.49-.1-1.48.1h-.89l-.1-.1v-.2l.1-.1h.59l.59-.2.2-.4V46.13A1.53,1.53,0,0,0,251.38,45c-1.09,0-2,.79-2.48,2.28v5.44l.2.4.59.2h.59l.1.1v.2l-.1.1h-.89l-1.49-.1-1.49.1h-.89l-.1-.1v-.2l.1-.1h.59l.6-.2.2-.4V45.24l-.2-.39-.6-.2h-.49l-.1-.1v-.2l.1-.1h3.17l.1.1v1.88A3.57,3.57,0,0,1,252.17,44a2.74,2.74,0,0,1,2.68,2.08v6.63l.2.4.59.2h.59l.1.1v.2Z"/><path class="cls-1" d="M260.76,53.95a3.16,3.16,0,0,1-2.38-.79h-.1l-.59.59h-.2l-.1-.1-.2-3.27.1-.1h.3l.1.2c.63,1.88,1.78,3,3.07,3h.1a1.74,1.74,0,0,0,1.88-1.74c0-.85-.69-1.54-2.38-2.08-2.18-.69-3-1.58-3-3S258.68,44,260.76,44a3,3,0,0,1,2.08.75h.08l.56-.55h.16l.1.1V47l-.1.1h-.3l-.1-.2c-.44-1.49-1.39-2.44-2.48-2.44h-.1a1.61,1.61,0,0,0-1.78,1.65c0,.79.69,1.39,2.28,1.78,2,.49,3.07,1.58,3.07,3.07C264.23,52.76,262.84,53.95,260.76,53.95Z"/><path class="cls-1" d="M281.76,53.75h-.89l-1.58-.1-1.59.1h-1.48l-.1-.1v-.2l.1-.1h.69l.6-.2.2-.2.1-.4v-.3l-1.19-3.43-.2-.14h-4.55l-.2.14-1,3v.59l.2.4.3.3.59.2h.49l.1.1v.2l-.1.1h-1.09l-1.19-.1-1.19.1H268l-.1-.1v-.2l.1-.1h.49l.59-.3.5-.5.3-.59L274,40.19l.2-.2.7-.1.69-.2.2.2,4.36,12.67.4.6.59.2h.59l.1.1v.2Zm-7.43-11.68-.2-.69-.2.69-2,6,.1.06h4.24l.1-.06Z"/><path class="cls-1" d="M294,41.77a.94.94,0,0,1-1-1v-.1l.69-.69a1.4,1.4,0,0,0-1.19-.6c-.85,0-1.48.79-1.48,1.88v2.87l.1.1h2.08l.1.1v.4l-.1.1h-2.08l-.1.1V52.8l.2.4.6.2h.89l.1.1v.16l-.1.1h-1.09l-1.58-.1-1.58.1h-.79l-.1-.1V53.5l.1-.1h.59l.59-.2.2-.4V44.94l-.1-.1h-3.57l-.1.1V52.8l.2.4.59.2h.59l.1.1v.16l-.1.1h-.79l-1.58-.1-1.59.1H282l-.1-.1V53.5l.1-.1h.59l.59-.2.2-.4V44.94l-.1-.1H282l-.1-.1v-.2l.1-.1,1.19-.2.2-.2v-2a3.66,3.66,0,0,1,3.57-3,3.32,3.32,0,0,1,2.67,1.29,4,4,0,0,1,3-1.48c1.39,0,2.48.79,2.48,1.88A1.07,1.07,0,0,1,294,41.77Zm-4.95-.69a2.12,2.12,0,0,0-2-1.39,1.78,1.78,0,0,0-1.78,2v2.47l.1.1H289l.1-.1Z"/><path class="cls-1" d="M301,53.95a1.91,1.91,0,0,1-1.78-1.78,3.08,3.08,0,0,1-2.87,1.78,2.48,2.48,0,0,1-2.77-2.47c0-1.88,1.68-2.87,4.95-2.87h.5l.1-.1V46.13a1.74,1.74,0,0,0-1.78-1.39,2.38,2.38,0,0,0-1.59.59v1.39a1.16,1.16,0,0,1-1.09.79.79.79,0,0,1-.89-.89c0-1.19,2-2.58,4-2.58h.1a3.23,3.23,0,0,1,3.27,2v6.43l.2.4.3.3.4.1.59-.2h.2l.1.1v.2A2.86,2.86,0,0,1,301,53.95Zm-1.88-4.75-.1-.1h-.5c-1.88,0-3,.85-3,2.28a1.52,1.52,0,0,0,1.58,1.68,2.13,2.13,0,0,0,2-1.48Z"/><path class="cls-1" d="M308.32,53.75h-.79l-1.58-.1-1.59.1h-.79l-.1-.1v-.2l.1-.1h.59l.59-.2.2-.4V45.24l-.2-.39-.59-.2h-.49l-.1-.1v-.2l.1-.1h3.17l.1.1v8.42l.2.4.59.2h.59l.1.1v.2Zm-2.58-11.49a1.19,1.19,0,1,1,1.19-1.19A1.2,1.2,0,0,1,305.74,42.27Z"/><path class="cls-1" d="M315.27,47a.94.94,0,0,1-.89-.79v-.1l.69-.69a.58.58,0,0,0-.59-.59c-.79,0-1.49,1.23-1.88,3.37v4.55l.2.4.59.2h.79l.1.1v.2l-.1.1H313.1l-1.49-.1-1.49.1h-.89l-.1-.1v-.2l.1-.1h.59l.59-.2.2-.4V45.43l-.2-.59-.59-.2h-.5l-.1-.1v-.2l.1-.1h3l.1.1V47c.4-2,1.19-3,2.47-3a1.47,1.47,0,0,1,1.58,1.58A1.26,1.26,0,0,1,315.27,47Z"/><path class="cls-1" d="M320.53,53.95a3.16,3.16,0,0,1-2.38-.79h-.1l-.59.59h-.2l-.1-.1-.2-3.27.1-.1h.29l.1.2c.63,1.88,1.78,3,3.07,3h.1a1.75,1.75,0,0,0,1.88-1.74c0-.85-.69-1.54-2.38-2.08-2.18-.69-3-1.58-3-3S318.45,44,320.53,44a3,3,0,0,1,2.08.75h.08l.56-.55h.16l.1.1V47l-.1.1h-.3l-.1-.2c-.43-1.49-1.39-2.44-2.48-2.44h-.1a1.61,1.61,0,0,0-1.78,1.65c0,.79.69,1.39,2.28,1.78,2,.49,3.07,1.58,3.07,3.07C324,52.76,322.61,53.95,320.53,53.95Z"/><polygon class="cls-1" points="71.66 63.24 71.02 63.24 71.02 11.12 71.66 11.12 71.66 63.24 71.66 63.24"/><path class="cls-1" d="M11.05,53.8,0,18.56H8.55l4.2,14.9c1.18,4.24,2.25,8.21,3.07,12.6H16c.87-4.24,1.94-8.42,3.12-12.44l4.4-15.06h8.29L20.16,53.8Z"/><path class="cls-1" d="M36.64,44.76l-2.46,9h-8L36.64,18.56H46.87L57.62,53.8H49.17l-2.66-9Zm8.75-6-2.15-7.48c-.61-2.09-1.23-4.71-1.74-6.8h-.1c-.51,2.09-1,4.76-1.59,6.8l-2,7.48Z"/><circle class="cls-1" cx="122.94" cy="36.93" r="36.93"/><path class="cls-2" d="M131.59,41.83a3.11,3.11,0,0,0,1.1,2.7,2.65,2.65,0,0,1,.85,1.69,9.49,9.49,0,0,0,1,.05c1,0,.64,1.09-.14,1.25.11.46-.47.65-.71.71,0,0,0,.48-.79.48,0,.25-.5.49-1,.33,0,0-.18.51-1,.37a1,1,0,0,1-1.15-.08s-.55.62-1.3-.2-1.57-2.37-2.6-2.94l-2.49,1.89a1,1,0,0,0-.1-.45l1.6-1.2a1.56,1.56,0,0,1-.12-1A2.82,2.82,0,0,1,126,46c.7-.09.83-.72.84-1.46,0-.47.24-1,.79-.89-1-.6-2.07-2.1-3.38-3.47l-1-1a8.87,8.87,0,0,0-1.36-1,4.78,4.78,0,0,1,.63.26c-.72-.71-1.33-1.35-1.68-1.76-1.1-1.29-3.73-1.75-6-1.65l.06.05a4.54,4.54,0,0,0-3.84,2.52c0,.1.19.31.14.45.88-1.57,2.77-2.73,6.56-2.32a2.7,2.7,0,0,1-.23.64,2.41,2.41,0,0,1-.52,2.94c-.49.49-.95.49-1.16,1.08a3.84,3.84,0,0,0-2.1-.29c-.08,0-.15.19-.2.28a3.52,3.52,0,0,1,2.77,1.21,5.08,5.08,0,0,0,3.07,1.94s.44.13.59,1a2.43,2.43,0,0,0,.31,1c-.3.29-.87.83-1.11.85-.8.06-.89,0-1.33.49s-1.11,1.11-1.07,1.49a.94.94,0,0,0,.08.32h0c-.9.57-1.51,1.21-1.06,1.53s1.69.49,1.51,1.5c-.43.14-.87.26-1.32.37a1.49,1.49,0,0,0-.94-.87c-.44-.14.17-.92-.72-1.83s.44-1.28,1.38-1.58-.2-1.21,2.6-1.77l-1.29-1.35c-3.31.7-1.92,2-3.92,2.84-1.05.45-.6,1.75.33,2.49a1.58,1.58,0,0,1,.55,1.5c0,.23.88.2.92.79-.41.07-.81.14-1.22.19-.21-.8-.93-.77-1-1.09-.23-1-1-1.55-1-1.91s.16-.47.18-1.86.73-.82,1-1.75,1-1.94,3.07-2.4l-1.4-1.45c-.61.27-2.21,1-2.49,1.83s-1.59.44-1.29,3.27c-1.77-2.41-.7-2.32-.67-3.66,0-1.16,1.33-1.43,1.33-1.43a2.49,2.49,0,0,1-.35-3,2.27,2.27,0,0,1,0-.63l-9.45-9.84c-.2,1.23.17,2.16,0,3.56-.08,1-.78,2.17-.47,4,.86,5.1-1.77,3.71,2.27,11.79,1.13,2.26,1.5,1.14,3.62,4.36,1.49,2.29,4.61,2.33,5.69,2a5.09,5.09,0,0,0,4.35-.71c-1,.82-1,.6-1.58,1.38-.86,1.23-.27,3-.49,4.11.44-.26,2.26-1.35,2.68-1.51,0,0,0-.32.09-1.12a.72.72,0,0,1,.87-.75c.36,0,.66.24.62.93s-.31,3.42-.31,3.42a3.89,3.89,0,0,1-1.45-.15l0,.23c0,.39,1.46.5,1.88.3,0,0,.12-1.29.12-1.65A2.29,2.29,0,0,0,120.76,60a3.16,3.16,0,0,1,1.67-1.29s0-.15,0-.39c.06-1.21,1.85-2.38,2-3.08l.47.64c-.21,1.94-2.45,2-3,4.87a4.53,4.53,0,0,1,1,1.07c.83-2.38,3.12-3.08,3.54-6.2a12.59,12.59,0,0,1-2.37-3c.19,2,.11,1.78-1.48,3.16,0-1.37.15-1.68.28-1.82a2.37,2.37,0,0,0,.52-2.57c-.32-.62-.6-1.21-.81-1.72.69.64,2.34,3.78,3.88,5.16,1.6,1.54,4.66.6,6.19,1s6.89-1.66,7.84-5.35c.56-2.15,1.48-3,2.18-4.3a8.58,8.58,0,0,0,1-4.3c.12-7.53,1.43-5.36,1.5-10.41Z"/><path class="cls-2" d="M112.65,42.35a2,2,0,0,1-1.33-2.81c.82.52,1.28.29,2.14-.18s1.4-.4,1.49,0a3.56,3.56,0,0,0-1.85,2.43,1.75,1.75,0,0,1,.62-2.09A1.7,1.7,0,0,0,112.65,42.35Z"/><path class="cls-2" d="M113.76,38.48a1.85,1.85,0,0,1,.5-.29c-1.13-.22-1.29,1-2,1.12a.87.87,0,0,0,1-.29c.33,0,.74-.19.49-.53Z"/><path class="cls-2" d="M101.51,27.68c.21-.17.54.06.65-.15s-.2-.5-.71-.53-.91-.61-1-.5.39.65.42,1.12.22.86.5.71S101.3,27.86,101.51,27.68Z"/><path class="cls-2" d="M145.41,30.59c-.18-.2-.53,0-.62-.25s.27-.46.78-.41,1-.47,1.11-.34-.48.58-.59,1-.35.81-.6.62S145.59,30.79,145.41,30.59Z"/><polygon class="cls-2" points="119.51 46.72 114.25 41.23 114.61 41.07 119.9 46.58 119.51 46.72"/><polygon class="cls-2" points="111.21 38.07 101.25 27.68 101.51 27.41 111.36 37.69 111.21 38.07"/><polygon class="cls-2" points="128.13 43.92 145.68 30.63 145.45 30.34 127.81 43.71 128.13 43.92"/><path class="cls-1" d="M113.11,41.78a1.75,1.75,0,0,1,.62-2.09,1.85,1.85,0,0,0-1.28,1.22A1.59,1.59,0,0,0,113.11,41.78Z"/><path class="cls-2" d="M132.71,46c-.42-1.34-1.9-1.27-2.4-3.14,0-.07-.1,0-.1,0l-1.62,1.22s0,.06,0,.08a14.93,14.93,0,0,0,4,2C132.76,46.13,132.78,46.09,132.71,46Z"/><path class="cls-1" d="M105.28,47.34a5.49,5.49,0,0,1,1.7.41,15.19,15.19,0,0,1,1.25,2.2c1,3.29,3.33,1.91,3.78,3-1.42.67-3.17.55-4.74-2.37C106.39,48.92,105.73,48.58,105.28,47.34Z"/><path class="cls-1" d="M108.85,48.11c.25.55.27,1.38.44,1.6a10.24,10.24,0,0,0,2.3,2.14C111.53,50.44,110.26,48.33,108.85,48.11Z"/><path class="cls-1" d="M103.76,33.93a3.06,3.06,0,0,0-.2.65c-.12-.06-.44,0-.55-.09,0,.14.52.52.46.6a.75.75,0,0,0-.1.71s.24-.39.42-.42a.85.85,0,0,0,.38.35l0-.55s.15-.31.34-.39a.94.94,0,0,0-.49-.21Z"/><path class="cls-1" d="M102.73,37.12a2.71,2.71,0,0,0,0,.66,4.48,4.48,0,0,0-.57-.25l.44.7a4.71,4.71,0,0,0,0,.76s.21-.26.34-.28l.37.41a5.28,5.28,0,0,0-.1-.69.52.52,0,0,1,.35-.12L103,38A8.18,8.18,0,0,1,102.73,37.12Z"/><path class="cls-1" d="M103.41,40.08l0,.44-.57.17s.06.1.38.11c0,0,.14.05.18.13a7.69,7.69,0,0,0,0,.93s.18-.44.3-.49a1.06,1.06,0,0,0,.4.29,2.79,2.79,0,0,0-.09-.45.35.35,0,0,1,.31-.13s.07-.05,0-.16a4.08,4.08,0,0,0-.47-.33A3.89,3.89,0,0,0,103.41,40.08Z"/><path class="cls-1" d="M103.63,43.55l.62.12.24.87a1.78,1.78,0,0,0,.24-.52,3.37,3.37,0,0,0,.5.15,2.66,2.66,0,0,0-.41-.67,1.81,1.81,0,0,1,.17-.62c-.25-.09-.35.16-.51.15l-.4-.53,0,.65A2,2,0,0,0,103.63,43.55Z"/><path class="cls-1" d="M106.05,44.44l-.1.53h-.54l.51.34a1.7,1.7,0,0,0-.13.49,3.43,3.43,0,0,1,.45-.3s.08,0,.27.22a.78.78,0,0,0,.31.18,1.43,1.43,0,0,1-.1-.27,1.12,1.12,0,0,0-.14-.29s.18-.23.34-.22c0,0-.06-.07-.63-.15Z"/><path class="cls-1" d="M107.37,45.79l.07.31-.31-.06a1,1,0,0,0,.38.28,2.3,2.3,0,0,0,.17.56s0-.28.09-.32a4.25,4.25,0,0,1,.36.3c0-.13-.25-.38-.27-.44s.19,0,.19-.08a2.07,2.07,0,0,0-.37-.2S107.4,45.76,107.37,45.79Z"/><path class="cls-1" d="M108.1,44.89h-.48a2.14,2.14,0,0,0,.48.46,1.72,1.72,0,0,0,0,.62c.07.05.28-.38.37-.35l.46.18-.22-.43A2.11,2.11,0,0,0,109,45a1.6,1.6,0,0,0-.48-.14l-.29-.43Z"/><path class="cls-1" d="M108.94,44.2s-.1-.3-.15-.34a1.23,1.23,0,0,0,0-.41l-.14.21a1.29,1.29,0,0,0-.39-.34,4.47,4.47,0,0,1,.22.41l-.12.08.32.1S108.86,44.2,108.94,44.2Z"/><path class="cls-1" d="M107.75,42a4.79,4.79,0,0,0,.87,1s0-.33,0-.42a1.21,1.21,0,0,0,.24-.07,1.27,1.27,0,0,1,.28-.07,1.12,1.12,0,0,0-.53-.18l-.09-.37-.19.27A1.09,1.09,0,0,1,107.75,42Z"/><path class="cls-1" d="M109.06,40.85a1.7,1.7,0,0,0-.14-.71s.25-.18.28-.36h-.53a4.16,4.16,0,0,0-.33-.45,2.2,2.2,0,0,1-.07.53h-.47a2.2,2.2,0,0,0,.44.39,3,3,0,0,0-.11.7l.48-.41A1.08,1.08,0,0,1,109.06,40.85Z"/><path class="cls-1" d="M108.68,38.58a2.17,2.17,0,0,0-.48-.56l.2-.68-.55.3a1.75,1.75,0,0,0-.4-.31l.07.55a4.19,4.19,0,0,0-.38.35l.44.13.08.63a3.1,3.1,0,0,1,.33-.56A2.53,2.53,0,0,1,108.68,38.58Z"/><path class="cls-1" d="M106.07,35.59a3.29,3.29,0,0,1,.18.58,6.11,6.11,0,0,1-.38.52,3.7,3.7,0,0,0,.49,0s.13.46.18.58.16-.36.26-.56a.78.78,0,0,0,.29,0,.91.91,0,0,1,.33,0,3.07,3.07,0,0,0-.51-.56l0-.73a1.83,1.83,0,0,0-.38.41S106.18,35.57,106.07,35.59Z"/><path class="cls-1" d="M105.06,33.92a2.6,2.6,0,0,0,0,.6,1.33,1.33,0,0,0-.28.29,1.17,1.17,0,0,1-.31.29.62.62,0,0,0,.5.1l.06.63.35-.63a.86.86,0,0,1,.42.33,3.17,3.17,0,0,0-.15-.74.74.74,0,0,1,.44-.54,3.71,3.71,0,0,0-.62.08,4.55,4.55,0,0,0-.32-.42S105.1,33.8,105.06,33.92Z"/><polygon class="cls-1" points="136.4 38.46 136.26 39.04 135.69 39.47 136.13 39.64 136.17 40.4 136.47 39.78 137.05 39.66 136.85 39.28 137.15 38.56 136.6 38.84 136.4 38.46"/><polygon class="cls-1" points="138.92 36.57 138.81 37.01 138.29 37.35 138.77 37.61 138.66 38.01 138.99 37.49 139.53 37.67 139.31 37.08 139.58 36.61 139.15 36.75 138.92 36.57"/><polygon class="cls-1" points="133.43 41.11 133.2 41.63 132.44 41.94 133.08 42.18 133.13 42.9 133.62 42.35 134.28 42.35 133.94 41.89 134.32 41.38 133.75 41.46 133.43 41.11"/><polygon class="cls-1" points="135.58 40.98 135.46 41.47 134.9 41.8 135.47 41.77 135.31 42.52 135.66 41.85 136.34 41.74 136.03 41.45 136.41 40.94 135.86 41.17 135.58 40.98"/><polygon class="cls-1" points="138.37 38.62 138.31 39.07 137.91 39.37 138.16 39.41 138.08 39.6 138.59 39.26 138.67 39.07 138.92 38.7 138.5 38.8 138.37 38.62"/><path class="cls-1" d="M134.56,43.48l-.19.68-.57.38h.41l-.07.55.27-.52s.37-.06.5.07l-.24-.44.28-.52-.35.26Z"/><path class="cls-1" d="M134.86,45l-.37.41s.11,0,.08.16a2,2,0,0,1-.33.51l.49-.54a1.66,1.66,0,0,0,.57,0l-.37-.26s.55-.33.58-.48A1.65,1.65,0,0,1,134.86,45Z"/><polygon class="cls-1" points="135.87 45.18 136.31 45.34 136.35 45.75 136.64 45.18 136.96 45.08 136.65 45.08 136.41 44.59 136.25 44.98 135.87 45.18"/><polygon class="cls-1" points="137.42 46.15 137.44 45.6 137.96 45.21 137.34 45.27 137.39 44.88 137.01 45.39 136.64 45.84 137.18 45.66 137.42 46.15"/><path class="cls-1" d="M136.33,43l.67-.42.36.35,0-.61.57-.43-.67.06,0-.56-.28.57a1.53,1.53,0,0,0-.58.12.7.7,0,0,1,.34.15Z"/><path class="cls-1" d="M137.59,40.9l.44-.19.28.19,0-.46.46-.34-.42,0,.05-.4a3.34,3.34,0,0,0-.56.68C137.67,40.71,137.59,40.9,137.59,40.9Z"/><path class="cls-1" d="M139.81,39l.3-.67.66-.31-.56,0,.39-.55s-.56.66-.79.9a2.19,2.19,0,0,1-.46.38l.43-.18Z"/><polygon class="cls-1" points="139.86 39.39 139.74 39.82 139.15 40.35 139.59 40.21 139.7 40.88 139.9 40.2 140.36 40.16 140.15 39.83 140.44 39.62 139.96 39.75 139.86 39.39"/><polygon class="cls-1" points="136.26 46.89 135.95 47.3 135.41 47.48 135.74 47.68 135.56 48.22 136.03 47.82 136.41 48.03 136.27 47.5 136.84 47.17 136.31 47.25 136.26 46.89"/><path class="cls-1" d="M135,48.68s-.62.42-.71.67l-.39.2.2-.33-.37.05.62-.37.29-.57-.12.49Z"/><path class="cls-1" d="M132.5,50.43l-.6.27-.64.17.29.09.06.26.46-.34.37-.1S132.33,50.56,132.5,50.43Z"/><polygon class="cls-1" points="133.25 49.62 132.88 49.77 132.78 50.12 132.66 49.84 132.42 49.76 132.74 49.6 133.25 49.62"/><polygon class="cls-2" points="136.01 48.57 135.87 48.86 135.49 49.01 135.68 48.73 136.01 48.57"/><path class="cls-1" d="M136.87,47.53l.31.35a3.57,3.57,0,0,0-.37.81l.62-.42.36.35,0-.7.63-.47-.57.07a.65.65,0,0,0-.08-.52l-.38.56Z"/><path class="cls-1" d="M138.57,46.36l.56-.33a1.84,1.84,0,0,1,.4.41l0-.61.52-.39-.55-.13.08-.55-.49.54-.55-.07.35.4Z"/><path class="cls-1" d="M140.55,46.84l.46-.75-.09.65.6.08-.58.48a1.41,1.41,0,0,0-.08.9l-.49-.52-.65.27.43-.55-.34-.5Z"/><path class="cls-1" d="M140.84,44.8l.69-.52s.39.51.61.44l-.25-.79.52-.39-.63.07L141.6,43l-.25.68-.7.21.53.23Z"/><polygon class="cls-1" points="138.89 44.07 139.22 43.52 139.7 43.73 139.53 43.2 139.91 42.69 139.47 42.88 139.28 42.4 139.03 43.08 138.53 43.36 138.89 43.42 138.89 44.07"/><polygon class="cls-1" points="140.45 43.52 140.56 42.92 141.15 42.56 140.65 42.49 140.59 41.87 140.3 42.44 139.95 42.34 140.19 42.8 139.94 43.2 140.26 43.11 140.45 43.52"/><polygon class="cls-1" points="141.5 41.9 142.07 41.52 142.3 41.7 142.41 41.31 142.76 41 142.35 41 142.42 40.45 142.03 41.05 141.39 41.22 141.84 41.33 141.5 41.9"/><path class="cls-1" d="M140.93,41.26l.12-.49.42-.09-.3-.4,0-.55-.5.64-.4.61.44-.2A1,1,0,0,0,140.93,41.26Z"/><path class="cls-1" d="M142.38,39.63l0-.46.58-.48-.58.07v-.3l-.47.39-.64.17.44.16-.24.62.46-.35A2,2,0,0,0,142.38,39.63Z"/><polygon class="cls-1" points="141.9 38.1 141.39 38.32 141.29 37.91 141.12 38.44 140.66 38.78 140.97 38.73 140.85 39.22 141.34 38.73 141.71 38.63 141.53 38.4 141.9 38.1"/><path class="cls-1" d="M138.85,41.43l.12.27-.3.26.37-.1.15.38a1.51,1.51,0,0,1,.1-.46,1.38,1.38,0,0,1,.44-.07l-.33-.2.11-.44-.37.36Z"/><path class="cls-1" d="M138.15,42.4l.11.27-.29.26.37-.1.15.38s.06-.4.08-.47.45-.06.45-.06a1,1,0,0,0-.33-.2,2.55,2.55,0,0,1,.11-.44l-.41.35Z"/><polygon class="cls-1" points="137.84 43.88 137.74 44.22 137.54 44.6 137.9 44.46 138.2 43.94 138.03 44.01 137.84 43.88"/><polygon class="cls-1" points="141.19 35 140.99 35.38 140.3 35.84 140.87 35.77 140.91 36.23 141.28 35.78 141.94 35.87 141.64 35.47 142 35.06 141.41 35.24 141.19 35"/><polygon class="cls-1" points="141.11 37.73 141.53 37.33 141.93 37.79 141.72 37.06 142.19 36.66 141.66 36.79 141.59 36.53 141.4 36.92 141.01 37.06 141.29 37.2 141.11 37.73"/><polygon class="cls-1" points="140.24 36.65 140.5 36.99 140.85 36.68 140.69 37.07 140.86 37.11 140.26 37.61 140.19 37.4 139.87 37.41 140.22 37.16 140.24 36.65"/><path class="cls-2" d="M142.33,37.85l.36-.36a.84.84,0,0,1-.39-.16Z"/><path class="cls-2" d="M143.11,37l.24-.27a.39.39,0,0,0,.28.19A.73.73,0,0,1,143.11,37Z"/><path class="cls-1" d="M143.19,35.74l-.11.39-.42.09.44.16,0,.26a.43.43,0,0,0,.26-.37,2.07,2.07,0,0,1,.12-.49S143.35,36.06,143.19,35.74Z"/><polygon class="cls-1" points="143.43 33.28 143.22 34.07 142.5 34.42 143.08 34.35 142.91 35.14 143.49 34.36 144.38 34.18 143.83 34.05 143.93 33.76 143.61 33.82 143.43 33.28"/><path class="cls-2" d="M143.78,34.85s0,.41-.12.49l.51-.33A.36.36,0,0,1,143.78,34.85Z"/><path class="cls-1" d="M128.55,49.94a2,2,0,0,1,1,.69,1.42,1.42,0,0,0-.72.77c-.17.53-1.16,0-1.16,1.16,0,.39,1.25.72-.11,1.08,0,0-.7-.39-.77-.58s-.43-1.22.25-1.58C128.44,50.74,127.37,50.56,128.55,49.94Z"/><path class="cls-1" d="M124.67,51.63a4.29,4.29,0,0,0,1.05.8v-.08c.22-.67-.36-1.08.06-1.66s.82,0,1.08-1.19c.14-.66.69-.25.61-.64a7.2,7.2,0,0,0-1.49-2,6.85,6.85,0,0,0-1.06.86c0,.14,1.33,1,1.19,1.25s-.75.17-.72.72S124.06,49.77,124.67,51.63Z"/><path class="cls-1" d="M114,53.74a25.24,25.24,0,0,0,4.27-1.67s.1.57-1.77,1.41A2.89,2.89,0,0,1,114,53.74Z"/><path class="cls-2" d="M116.18,54.34a4.83,4.83,0,0,0-.65,2.92,2.4,2.4,0,0,1-.27,1.75c-.88.61-1,.53-1,.53a18.76,18.76,0,0,0,.56-2.84A3.23,3.23,0,0,1,116.18,54.34Z"/><path class="cls-1" d="M139.3,50c0,1.42-.74,1.25-.8,2.41,0,.53-2.08,1.72-2.38,1.31s.1-.35.33-1.39c.17-.75,1.3-.3,1.81-2.33A5.84,5.84,0,0,1,139.3,50Z"/><path class="cls-1" d="M137.23,49.6c-1.05,1.08-.17,1.8-1,2.08s-2.55,1.22-1.8,1.94-1.94,1.36-1.69.8-1.25-.47-.61-1.44,2.58-.75,3-1.36.25-1.11.94-2.16A1.84,1.84,0,0,1,137.23,49.6Z"/><path class="cls-1" d="M134.53,49.8c-.08.92-.45,2-2.71,2.41-1.3.22-1.25,1.22-1,1.33s.05.55-.17.8A6.75,6.75,0,0,1,129.3,54s.44-.44.28-.53-1-.44.3-1.33,2.16.69,3.33-1.6A2.66,2.66,0,0,1,134.53,49.8Z"/><path class="cls-1" d="M120.65,58.43a3.94,3.94,0,0,0,1.43,0s0-2.74,0-3.43-.32-.87-.69-.88a.72.72,0,0,0-.81.82C120.63,55.74,120.65,58.43,120.65,58.43Z"/><path class="cls-1" d="M122.18,46.36c-.38.25-1.21.77-1.19,1a6.39,6.39,0,0,1,0,1.29c-.09.32-.42.29-.68.33a.78.78,0,0,0,.22-.7c0-.26-.33-.81-.63-.47s-.69,1-.27,1.15c-.42.19-.69,0-.68-.4a3.32,3.32,0,0,1,.27-.74c.08-.24-.28-.24-.54-.1s-.69.67-.62.86.25.22.25.22a.51.51,0,0,1-.81-.36h0c-.05-.28,0-.32.22-.57a8.62,8.62,0,0,1,.85-.82c.2-.13.59,0,.92-.16a7.59,7.59,0,0,0,1.85-1.36l.18.46.71-.07Z"/><path class="cls-2" d="M132.91,47.19A13.59,13.59,0,0,1,127.79,45c-.27-.18-.18-.66.09-.48a19.18,19.18,0,0,0,5.07,2.57C133.06,47.15,133,47.19,132.91,47.19Z"/><path class="cls-2" d="M130.54,47.65a16.74,16.74,0,0,1-3.11-1.88c-.28-.28,0-.6.21-.42a20.68,20.68,0,0,0,2.93,2.27C130.65,47.65,130.61,47.67,130.54,47.65Z"/><path class="cls-2" d="M129.19,48.36c-.74-.66-1-1-2.2-2-.28-.29,0-.58.22-.4a29,29,0,0,1,2,2.33C129.29,48.38,129.25,48.4,129.19,48.36Z"/><path class="cls-1" d="M118.66,51.3a4.5,4.5,0,0,1-.67.28c.23-.36.5-.95-.45-1.46-.36-.2-.24-.13.27-.45.14-.09,0,.65.9.75.12,0,.23-.07.23.14S118.7,50.85,118.66,51.3Z"/><circle class="cls-1" cx="118.7" cy="55.02" r="0.62"/><path class="cls-1" d="M122,53.35a.62.62,0,1,1-.63-.61A.63.63,0,0,1,122,53.35Z"/><path class="cls-1" d="M118.31,54.33c.27-.39,1.08,0,.92-.81C119,53.74,118.14,53.5,118.31,54.33Z"/><path class="cls-1" d="M120.91,52.77c.22-.45,1.13-.2.82-1C121.48,52,120.57,52,120.91,52.77Z"/><path class="cls-1" d="M120.89,52c.19-.45,1.12-.25.76-1C121.42,51.29,120.51,51.26,120.89,52Z"/><path class="cls-1" d="M120.82,51.33c.17-.46,1.11-.3.71-1.07C121.31,50.56,120.39,50.57,120.82,51.33Z"/><path class="cls-1" d="M121.48,50c-.13.27-.65.3-.76.63-.35-.58.12-.73.44-.92C121.21,49.86,121.48,50,121.48,50Z"/><path class="cls-1" d="M118.5,53.53c.29-.37,1.07.08,1-.76C119.18,53,118.38,52.69,118.5,53.53Z"/><path class="cls-1" d="M118.65,52.75c.33-.36,1.06.14,1-.7C119.37,52.24,118.59,51.9,118.65,52.75Z"/><path class="cls-1" d="M118.92,52c.35-.34,1.06.21,1.08-.64C119.69,51.53,118.93,51.15,118.92,52Z"/><path class="cls-1" d="M119.19,51.28c.37-.32,1,.25,1.11-.6C120,50.84,119.24,50.43,119.19,51.28Z"/><path class="cls-1" d="M119.53,50.55c.39-.3,1.05.29,1.18-.56C120.38,50.14,119.64,49.71,119.53,50.55Z"/><path class="cls-1" d="M119.83,49.84c.41-.28,1,.36,1.18-.47C120.67,49.49,120,49,119.83,49.84Z"/><path class="cls-1" d="M121.71,49.09c-.33,0-.56.39-.17.67a.41.41,0,0,0,.66-.18C121.82,49.59,121.57,49.3,121.71,49.09Z"/><path class="cls-1" d="M118.83,50c-.29.17-.67-.15-.41-.56a.41.41,0,0,1,.68-.08C118.75,49.45,118.63,49.81,118.83,50Z"/><path class="cls-1" d="M119.46,50.23c-.29.18-.67-.14-.42-.55a.41.41,0,0,1,.68-.09C119.37,49.72,119.25,50.08,119.46,50.23Z"/><path class="cls-1" d="M121.94,48.59c-.32.12-.3.61.19.67a.4.4,0,0,0,.49-.47C122.29,49,121.93,48.84,121.94,48.59Z"/><path class="cls-1" d="M121.89,48.06c-.22.25.05.67.5.49a.39.39,0,0,0,.18-.65C122.39,48.22,122,48.28,121.89,48.06Z"/><path class="cls-1" d="M121.59,47.63c-.06.32.38.55.69.18a.39.39,0,0,0-.17-.65C122.11,47.52,121.8,47.76,121.59,47.63Z"/><path class="cls-2" d="M122.84,25l-.57-1.77H120.4l1.51-1.1-.57-1.77,1.51,1.1,1.51-1.1-.58,1.77,1.5,1.1h-1.86L122.84,25Z"/><path class="cls-2" d="M118.71,22l-.57-1.78h-1.87l1.51-1.1-.58-1.77,1.51,1.1,1.51-1.1-.58,1.77,1.51,1.1h-1.86L118.71,22Z"/><path class="cls-2" d="M120.29,17.18l-.58-1.78h-1.86l1.51-1.09-.58-1.78,1.51,1.1,1.51-1.1-.58,1.78,1.51,1.09h-1.86l-.57,1.78Z"/><path class="cls-2" d="M125.4,17.18l-.57-1.78H123l1.51-1.09-.58-1.78,1.51,1.1,1.5-1.1-.57,1.78,1.51,1.09H126l-.57,1.78Z"/><path class="cls-2" d="M127,22l-.57-1.77h-1.87l1.51-1.1-.58-1.77,1.51,1.1,1.51-1.1-.58,1.77,1.51,1.1h-1.87L127,22Z"/><path class="cls-2" d="M122.94.82A36.11,36.11,0,1,0,159,36.92,36.11,36.11,0,0,0,122.94.82Zm-.08,61.74a25.68,25.68,0,1,1,25.67-25.68A25.68,25.68,0,0,1,122.86,62.56Z"/><path class="cls-1" d="M95.67,38.44c0-.69-.44-.82-1.12-.87h-.34a3.19,3.19,0,0,0-.54.06c-.6.11-.9.35-.87.93a.42.42,0,0,0,.09.27s.15,0,.2,0l2.23-.11a.52.52,0,0,0,.3-.06.44.44,0,0,0,.05-.26l.24,0,.07,1.5h-.25a2,2,0,0,0,0-.34.09.09,0,0,0,0,0l-.07,0a.59.59,0,0,0-.16,0L93,39.61a.14.14,0,0,0-.15.09.77.77,0,0,0,0,.25v.1h-.25l-.07-1.43v-.39a1.32,1.32,0,0,1,.09-.6,1.35,1.35,0,0,1,.32-.48,1.77,1.77,0,0,1,1.16-.43,2.22,2.22,0,0,1,.87.11,1.4,1.4,0,0,1,.78.66,2.35,2.35,0,0,1,.16.89Z"/><path class="cls-1" d="M96.05,33.59l-.21,2.85-.25,0c0-.11.08-.39-.09-.44a.55.55,0,0,0-.16,0L93,35.78a.22.22,0,0,0-.1,0,.1.1,0,0,0-.09.07,1.49,1.49,0,0,0,0,.35l-.25,0,.21-2.82,1.21.06,0,.21c-.69.13-1,.32-1,1a.63.63,0,0,0,0,.3A.15.15,0,0,0,93,35a.61.61,0,0,0,.24,0l.88.07c.07-.41-.18-.64-.61-.71l0-.22,1.62.1,0,.23c-.45,0-.74.19-.76.61l1,.08c.21,0,.3,0,.34-.18a1.71,1.71,0,0,0,0-.22c0-.66-.26-.92-.93-1.15l0-.21Z"/><path class="cls-1" d="M94.93,31.58l.92.18a.69.69,0,0,0,.27-.09,2.21,2.21,0,0,0,.08-.31l.24.05L96.12,33,95.87,33c0-.09,0-.17,0-.26s-.07-.2-.23-.23c0,0-2.37-.52-2.4-.5s-.14.05-.15.08a1.4,1.4,0,0,0-.09.34l-.24-.05s.37-1.82.39-1.87a1.22,1.22,0,0,1,.38-.7.86.86,0,0,1,.77-.15c.82.16.8,1,.67,1.53l-.09.42-.24,0s0-.16,0-.23c.1-.5,0-.78-.58-.91s-.7,0-.8.5c0,.08-.06.23,0,.31s.14.08.23.1l1.11.23Z"/><path class="cls-1" d="M96.48,25.21c.05-.1.09-.21.13-.31a.57.57,0,0,0-.33-.86.5.5,0,0,0-.78.29.85.85,0,0,0-.1.29c0,.09.12.14.21.19l.87.41.23.1,1,.45.15.06c.09,0,.13,0,.17-.07s.15-.28.15-.28l.22.1-.69,1.5L97.45,27l.09-.21c.08-.18,0-.21-.16-.31l-2-.91c-.07,0-.25-.11-.35-.06a1.11,1.11,0,0,0-.22.28l-.22-.11.69-1.51.14-.28a1.15,1.15,0,0,1,.46-.55A.84.84,0,0,1,97,24.49h0a.81.81,0,0,1,.9-.28s.5.11.6.12h.07c.17-.16-.16-.34-.29-.41l.09-.19a1,1,0,0,1,.24.14.64.64,0,0,1,.21.87.61.61,0,0,1-.39.35.8.8,0,0,1-.52-.06l-.26-.1c-.37-.14-.63-.24-.82.11,0,.05-.14.29-.14.29Z"/><path class="cls-1" d="M97.25,23l-1-.72L97.65,20l1.11.61-.11.18c-.41-.17-1-.32-1.26.08,0,0-.05.13,0,.17l.17.11,2,1.23c.15.09.18.11.28,0s.12-.18.17-.27l.21.13-.88,1.45-.21-.13a3.06,3.06,0,0,0,.17-.33.12.12,0,0,0,0-.12.59.59,0,0,0-.14-.11l-2-1.2-.18-.1c-.06,0-.12,0-.15.07-.25.4.18.9.51,1.16Z"/><path class="cls-1" d="M101.76,20.1l-.13.16-3-1.15h0l1.63,1.31c.3.24.56.4.82.06l.19.16-.75.93-.19-.15c.23-.3.11-.48-.17-.72l-1.54-1.24c-.06-.05-.15-.15-.24-.12s-.16.14-.21.19l-.07.08L98,19.46l.85-1.06,2,.78h0l-1.2-1.76.85-1.06.19.15-.08.11c-.06.07-.14.15-.11.26a1.28,1.28,0,0,0,.25.23l1.75,1.41.07,0c.13.07.23-.09.29-.16l.07-.08.19.16-1,1.24-.19-.16.15-.19s0-.06,0-.09a.11.11,0,0,0,0-.11.29.29,0,0,0-.11-.1l-2-1.6h0Z"/><path class="cls-1" d="M105.41,16.3l-2.09,1.95-.17-.18c.07-.09.32-.23.23-.38a.47.47,0,0,0-.1-.13l-1.62-1.74s0-.06-.08-.06a.1.1,0,0,0-.11,0,1.65,1.65,0,0,0-.28.22l-.17-.18,2.07-1.93.85.87-.15.14c-.6-.38-.95-.44-1.44,0a.68.68,0,0,0-.18.24.15.15,0,0,0,0,.11.57.57,0,0,0,.14.19l.6.65c.33-.26.3-.59,0-.93l.15-.15,1.12,1.18-.16.15a.64.64,0,0,0-1-.06l.7.74c.14.15.2.23.37.11l.18-.14c.49-.45.43-.86.1-1.47l.16-.13Z"/><path class="cls-1" d="M104.76,13.54l1,1.4c.23.32.42.43.73.21l.15.2-1,.71-.15-.2c.31-.25.29-.38.06-.71l-1.22-1.68a.5.5,0,0,0-.51.06l-.15-.2.86-.62,2.58.78-.8-1.1c-.22-.31-.41-.38-.7-.17l-.14-.2,1-.69.15.2c-.15.15-.26.27-.15.52a2.39,2.39,0,0,0,.22.34l1.42,2-.21.15Z"/><path class="cls-1" d="M107.41,12.24l-.56-1.13,2.42-1.35.67,1.07-.18.11c-.26-.35-.72-.79-1.14-.55,0,0-.11.09-.08.15l.1.17,1.15,2.07c.08.14.1.18.26.12l.28-.15.12.21-1.48.83-.12-.22a2.8,2.8,0,0,0,.31-.2.12.12,0,0,0,0-.12.47.47,0,0,0-.07-.16l-1.12-2-.1-.17c0-.06-.12,0-.17,0-.41.23-.28.87-.12,1.26Z"/><path class="cls-1" d="M114.54,11.09c.48-.16.39-.72.32-1.15a3.05,3.05,0,0,0-.13-.51c-.17-.52-.54-1.42-1.17-1.21s-.43,1.16-.25,1.71a3.25,3.25,0,0,0,.46.92.67.67,0,0,0,.77.25l0,.25a1.41,1.41,0,0,1-1.21-.15,2,2,0,0,1-.8-1,1.88,1.88,0,0,1,.05-1.36,1.55,1.55,0,0,1,.9-.8,1.43,1.43,0,0,1,1.25.13,1.87,1.87,0,0,1,.81,1,2,2,0,0,1-.07,1.37,1.47,1.47,0,0,1-.93.8Z"/><path class="cls-1" d="M116.09,10.76l0-.24.25-.05a.26.26,0,0,0,.12,0l0,0v-.05a1.28,1.28,0,0,0,0-.21L116,7.86c0-.08,0-.19-.13-.2a.88.88,0,0,0-.24,0l-.11,0,0-.25,2.72-.55.27,1.19-.21,0c-.26-.58-.57-.88-1.17-.76a.54.54,0,0,0-.33.14.31.31,0,0,0,0,.24l.19.95c.44-.07.53-.3.52-.77l.21,0,.32,1.58-.21,0a1.11,1.11,0,0,0-.14-.32.51.51,0,0,0-.61-.26h0l.21,1c.05.24.06.29.3.26l.27,0,0,.24Z"/><path class="cls-1" d="M120.61,6.62l1.52,0v.25c-.09,0-.29,0-.35.09a.35.35,0,0,0,0,.19L122.54,9l.58-1.74a.58.58,0,0,0,0-.17c0-.23-.25-.3-.42-.29V6.58l1.23,0v.25c-.32,0-.48.36-.58.65L122.48,10h-.35l-1.07-2.81c-.06-.16-.11-.3-.28-.34h-.17Z"/><path class="cls-1" d="M127,10.23l-2.84-.29,0-.25c.12,0,.39.09.44-.08a.42.42,0,0,0,0-.16l.24-2.37a.46.46,0,0,0,0-.1s0-.07-.07-.09a1.66,1.66,0,0,0-.35-.06l0-.24,2.81.29-.09,1.21-.21,0c-.11-.7-.29-1-1-1.07a.67.67,0,0,0-.3,0,.17.17,0,0,0-.08.09.68.68,0,0,0,0,.24l-.09.87c.41.08.64-.16.73-.59l.21,0-.15,1.62-.22,0c0-.45-.17-.75-.59-.78l-.11,1c0,.21,0,.3.16.35l.23,0c.66.07.93-.24,1.17-.89l.21,0Z"/><path class="cls-1" d="M127.76,8.23,128.1,7l2.7.6-.21,1.25-.21,0c0-.44,0-1.07-.48-1.17-.05,0-.14,0-.16.05s0,.13,0,.19l-.51,2.31c0,.17,0,.2.1.26a3.06,3.06,0,0,0,.31.08l-.06.24-1.66-.37.06-.24.36.05a.13.13,0,0,0,.1-.07.43.43,0,0,0,.06-.17l.5-2.25,0-.2c0-.07-.07-.11-.12-.12-.46-.1-.79.47-.93.86Z"/><path class="cls-1" d="M132.95,11.87l-2.7-.94.08-.23c.11,0,.36.18.45,0a.58.58,0,0,0,.07-.15l.78-2.25a.17.17,0,0,0,0-.1.1.1,0,0,0-.05-.11,1.19,1.19,0,0,0-.32-.14l.08-.24,2.67.93-.37,1.16-.2-.07c.05-.7-.05-1-.68-1.26a.64.64,0,0,0-.3-.05.17.17,0,0,0-.09.07.56.56,0,0,0-.1.22l-.29.83c.38.17.66,0,.84-.41l.2.07-.52,1.54-.21-.07a.64.64,0,0,0-.4-.89l-.34,1c-.06.2-.11.28.08.37l.21.09c.63.22,1,0,1.34-.6l.19.09Z"/><path class="cls-1" d="M135,11.05l-.47,1-.07.14c0,.1,0,.13.06.17a1.25,1.25,0,0,0,.19.11l.09,0-.11.22L133.25,12l.11-.22.21.09c.19.09.22,0,.31-.15l.95-1.94c0-.07.16-.28.14-.35s-.14-.13-.22-.17l-.12-.06.11-.22,1.49.73.28.15a1.14,1.14,0,0,1,.53.47.84.84,0,0,1,0,.72.85.85,0,0,1-1.18.35h0a.81.81,0,0,1,.26.91l-.07.29a1.69,1.69,0,0,0-.06.31.37.37,0,0,0,0,.07c.15.18.34-.15.42-.28l.19.09a1.13,1.13,0,0,1-.15.24.64.64,0,0,1-.88.18.62.62,0,0,1-.34-.4.8.8,0,0,1,.07-.51l.11-.26c.15-.36.26-.62-.09-.83l-.17-.09-.12-.06.11-.23c.1.06.21.1.31.14a.57.57,0,0,0,.88-.32.5.5,0,0,0-.27-.78.9.9,0,0,0-.29-.11c-.09,0-.15.12-.19.2l-.43.86Z"/><path class="cls-1" d="M137.72,13.18a1.55,1.55,0,0,0-.36.31c-.15.22,0,.4.17.5l-.14.21-1-.66.14-.21c.3.16.63-.08.89-.26l2.16-1.53.26.17-.69,3c-.06.28-.07.36.15.52l-.14.21-1.22-.81.13-.2c.07,0,.2.14.28.12s.09-.1.11-.17l.14-.54-.89-.59L138,13l.7.47.3-1.19L138,13Z"/><path class="cls-1" d="M141.66,14.11l-1.15,1.3c-.26.3-.32.5,0,.76l-.17.19-.91-.8.16-.19c.31.24.43.2.71-.1l1.37-1.56a.51.51,0,0,0-.16-.49l.16-.19.8.7-.19,2.69.89-1c.25-.29.27-.48,0-.72l.16-.19.89.79-.16.18c-.18-.11-.33-.19-.53,0a2.37,2.37,0,0,0-.29.29l-1.6,1.82-.19-.17Z"/><path class="cls-1" d="M143,17.12l.14.15a1.39,1.39,0,0,0-.06,1.58.54.54,0,0,0,.8.1.47.47,0,0,0,.07-.66L143.8,18a1.78,1.78,0,0,1-.3-.85,1,1,0,0,1,.33-.78,1,1,0,0,1,1.54.11,1.17,1.17,0,0,1,.3.72l.32,0,.12.13-.87.86-.14-.16a1.25,1.25,0,0,0,.05-1.45.52.52,0,0,0-.75-.1c-.25.22-.14.49,0,.71l.14.23c.3.54.54,1.1-.06,1.64a1.12,1.12,0,0,1-.85.29,1.16,1.16,0,0,1-.71-.4,1.23,1.23,0,0,1-.33-.83h-.39l-.12-.14Z"/><path class="cls-1" d="M146.12,21.35a1.44,1.44,0,0,0-.45.14c-.22.14-.16.36,0,.53l-.21.13-.64-1L145,21c.21.26.61.18.92.12l2.6-.52.17.27-1.83,2.42c-.17.22-.21.29-.07.54l-.21.13-.78-1.24.21-.13c0,.06.12.21.2.22s.12-.05.17-.11l.35-.44-.57-.9.3-.06.45.72.76-1-1.21.25Z"/><path class="cls-1" d="M146.68,24.22l.23-.11.11.23a.32.32,0,0,0,.07.1l0,0h.05l.2-.08,2.09-1c.07,0,.17-.08.16-.17a.79.79,0,0,0-.08-.23l0-.1.22-.1,1.17,2.51-1.1.55-.09-.19c.5-.39.72-.77.46-1.32,0-.11-.09-.24-.21-.29a.32.32,0,0,0-.23,0l-.87.41c.17.42.42.44.87.32l.09.2-1.46.68-.09-.2a1.27,1.27,0,0,0,.28-.21.52.52,0,0,0,.11-.66l0,0-.94.44c-.22.11-.28.13-.18.35l.1.24-.23.11Z"/><path class="cls-1" d="M147.88,26.77l.24-.08.08.24a.44.44,0,0,0,.06.11l0,0h.05a1,1,0,0,0,.21-.06l2.18-.76c.08,0,.19-.06.18-.15a.7.7,0,0,0-.05-.24l0-.11.23-.08.9,2.62-1.15.43-.07-.2c.54-.34.79-.68.6-1.26a.52.52,0,0,0-.18-.31c-.07,0-.17,0-.24,0l-.91.31c.13.43.37.48.83.41l.07.2-1.53.53-.07-.21a1,1,0,0,0,.3-.18.51.51,0,0,0,.18-.64l0,0-1,.34c-.23.08-.28.1-.21.32l.07.26-.24.08Z"/><path class="cls-1" d="M149.87,29.55a1.49,1.49,0,0,0-.47,0c-.26.06-.27.29-.21.48l-.24.06-.28-1.17.24-.06c.11.32.52.36.83.41l2.63.34.07.3-2.51,1.71c-.24.16-.3.21-.24.49l-.24.06-.35-1.43.24-.06c0,.08,0,.24.12.28s.13,0,.2-.05l.47-.3-.25-1,.31,0,.2.82,1-.68-1.23-.14Z"/><path class="cls-1" d="M149.47,32.5l.24,0,0,.27c.05.19.16.15.34.13l2.25-.3.15,0c.05,0,.09,0,.1-.09a.7.7,0,0,0,0-.23l0-.13.25,0,.21,1.63-.24,0,0-.13c0-.09,0-.2-.1-.26a.25.25,0,0,0-.09,0h-.16l-2.31.31c-.07,0-.18,0-.2.11a.21.21,0,0,0,0,.06,1,1,0,0,0,0,.2v.1l-.25,0Z"/><path class="cls-1" d="M151.66,35.62c0,.12,0,.22,0,.34,0,.41.18.64.69.62s.58-.22.57-.61a.83.83,0,0,0,0-.31c-.06-.08-.18-.08-.27-.07l-1,0h-.25l-1.07,0h-.16c-.1,0-.12,0-.13.14s0,.15,0,.22v.11h-.25l0-1.65H150c0,.08,0,.15,0,.23s.09.2.28.2l2.16-.06c.08,0,.32,0,.37,0s0-.18.05-.28v-.14h.25l0,1.66v.32a1.16,1.16,0,0,1-.17.69.83.83,0,0,1-.63.32c-.58,0-.82-.43-.86-.87h0a.81.81,0,0,1-.68.65l-.29.08a1.4,1.4,0,0,0-.3.09l-.06,0c-.09.21.29.23.44.24v.21a1.15,1.15,0,0,1-.28,0,.65.65,0,0,1-.58-.69.64.64,0,0,1,.2-.48.83.83,0,0,1,.49-.17l.28,0c.39,0,.67-.06.69-.46a1.6,1.6,0,0,0,0-.19v-.13Z"/><path class="cls-1" d="M151.08,38.23l0,.2c-.54.12-1.15.47-1.19,1a.54.54,0,0,0,.47.65.47.47,0,0,0,.53-.4l.09-.3a1.75,1.75,0,0,1,.42-.8,1,1,0,0,1,.79-.29,1,1,0,0,1,1,1.2,1.17,1.17,0,0,1-.32.71l.21.25,0,.18-1.22-.05,0-.21c.51-.11,1.05-.43,1.1-.95a.52.52,0,0,0-.43-.61c-.34,0-.45.24-.53.48l-.08.26c-.19.59-.44,1.14-1.25,1.07a1,1,0,0,1-1-1.21,1.26,1.26,0,0,1,.39-.81l-.26-.29,0-.18Z"/><path class="cls-1" d="M95.64,29.19l.25-.81-1.23,0,1,.76.24.2a1.64,1.64,0,0,0,.4.26c.25.08.38-.11.43-.3l.24.07-.36,1.15-.23-.07c.06-.33-.25-.58-.51-.78l-2.07-1.65.1-.3,3-.16c.28,0,.37,0,.46-.29l.23.07-.44,1.4-.23-.07c0-.08.08-.23,0-.3s-.12-.06-.19-.06H96.2l-.32,1Z"/><path class="cls-1" d="M97.1,45.15l.55,1.42-.23.09c-.06-.1-.07-.28-.21-.32s-.16,0-.21,0l-1.44.55a2.23,2.23,0,0,0-.55.27.48.48,0,0,0-.19.36.83.83,0,0,0,.06.38.65.65,0,0,0,.49.43,1.28,1.28,0,0,0,.74-.14l1.13-.43c.21-.08.46-.18.44-.42a.47.47,0,0,0,0-.21l.23-.09.41,1.06-.23.09c-.15-.35-.39-.3-.75-.18L96,48.53a1.67,1.67,0,0,1-.44.11,1,1,0,0,1-.77-.2,1.36,1.36,0,0,1-.36-.56,1.42,1.42,0,0,1-.08-.89,1.05,1.05,0,0,1,.7-.63l1.77-.68c.07,0,.1,0,.11-.11a1.48,1.48,0,0,0-.09-.33Z"/><path class="cls-1" d="M98.07,49.51l-1.52.83c-.34.19-.48.35-.31.68l-.22.12-.55-1L95.7,50c.19.31.32.31.68.13l1.82-1a.49.49,0,0,0,0-.5l.22-.12.48.88L97.78,51.8,99,51.14c.33-.18.42-.35.27-.65l.22-.12.54,1-.21.12c-.13-.16-.23-.28-.49-.2a2.9,2.9,0,0,0-.36.17L96.8,52.62l-.12-.21Z"/><path class="cls-1" d="M97.51,53.65l.2-.14.14.2c.12.14.21.06.36,0l1.86-1.3a.64.64,0,0,0,.12-.1s.07-.06.05-.12a.67.67,0,0,0-.11-.19l-.07-.1.2-.14.88,1.27-.2.14-.07-.11c0-.07-.09-.17-.2-.17l-.09,0a.5.5,0,0,0-.13.08l-1.91,1.33c-.06,0-.15.11-.14.19s0,0,0,.05a1.22,1.22,0,0,0,.1.16l.06.08-.21.14Z"/><path class="cls-1" d="M100.41,54.15l1-.77,1.69,2-.93.86-.13-.15c.3-.32.65-.85.35-1.19,0,0-.1-.09-.15,0l-.16.13-1.8,1.52c-.13.11-.16.13-.08.27a2.4,2.4,0,0,0,.19.24l-.19.16-1-1.22.19-.16a2.64,2.64,0,0,0,.25.25.12.12,0,0,0,.13,0,.58.58,0,0,0,.15-.11l1.76-1.49.15-.13c.05,0,0-.13,0-.16-.29-.34-.89-.08-1.24.15Z"/><path class="cls-1" d="M103.14,60.07l-2-1.83.17-.18c.09.07.24.29.38.19a.51.51,0,0,0,.12-.11l1.62-1.74a.23.23,0,0,0,.07-.08s0-.08,0-.11a1.25,1.25,0,0,0-.23-.24l.17-.18,2,1.82-.8.91-.14-.13c.34-.61.39-1-.07-1.39a.59.59,0,0,0-.24-.15.17.17,0,0,0-.11,0,.63.63,0,0,0-.18.15l-.6.65c.26.29.58.23.91-.06l.15.14-1.09,1.2-.16-.15c.29-.34.32-.69,0-1l-.7.75c-.14.15-.21.22-.09.37l.15.16c.46.43.85.34,1.43,0l.13.15Z"/><path class="cls-1" d="M105.07,61.25a.38.38,0,0,1-.16-.19.6.6,0,0,1,.15-.27l1.32-1.8s.09-.13.15-.14a.35.35,0,0,1,.26.09c.44.32.42.69.14,1.23a4.84,4.84,0,0,1-.3.46c-.06.09-.13.18-.21.26-.46.5-.82.74-1.34.36l-.13.21a2.11,2.11,0,0,0,.75.41,1.36,1.36,0,0,0,1-.21,2.44,2.44,0,0,0,.62-.61,1.88,1.88,0,0,0,.41-1.16,1.38,1.38,0,0,0-.15-.53,1.22,1.22,0,0,0-.39-.43l-.29-.22-1.09-.8-.15.2.08.06a.64.64,0,0,1,.18.16.14.14,0,0,1,0,.16l-1.43,2a.44.44,0,0,1-.1.13l-.06,0a.08.08,0,0,1-.06,0,1.56,1.56,0,0,1-.27-.18l-.15.2,1.14.83Z"/><path class="cls-1" d="M108.78,62.45l.17.09c-.1.54,0,1.23.45,1.46a.53.53,0,0,0,.76-.21.47.47,0,0,0-.16-.63l-.22-.19a1.57,1.57,0,0,1-.55-.67,1,1,0,0,1,.05-.84A1,1,0,0,1,110.7,61a1.08,1.08,0,0,1,.5.54l.29-.11.15.08-.51,1.11-.18-.09a1.21,1.21,0,0,0-.42-1.35.5.5,0,0,0-.7.19c-.15.3,0,.5.22.65l.2.16c.45.38.84.8.47,1.53a1.13,1.13,0,0,1-.67.59,1,1,0,0,1-.77-.1,1.14,1.14,0,0,1-.56-.63l-.34.14-.16-.07Z"/><path class="cls-1" d="M111.6,62.94l.51-1.16,2.45.94-.39,1.2-.19-.07c.1-.43.15-1.06-.27-1.22,0,0-.13,0-.15,0l-.08.19-.85,2.2c-.06.16-.07.2.06.27s.19.07.28.12l-.09.23-1.5-.57.09-.23.34.1a.12.12,0,0,0,.11-.06.57.57,0,0,0,.08-.16l.82-2.15c0-.06,0-.12.07-.19s-.05-.12-.09-.13c-.42-.16-.82.36-1,.73Z"/><path class="cls-1" d="M114.69,64.88l.7-1,.07,1.22-.77-.21-.18.25,1,.27,0,.55c0,.07,0,.14-.05.2s-.21,0-.28,0l-.06.24,1.34.37.07-.24c-.25-.08-.27-.16-.29-.45L116,63l-.29-.08-1.52,2.15c-.18.26-.41.59-.73.55l-.07.23,1.1.3.06-.24c-.18,0-.37-.16-.3-.41a1.64,1.64,0,0,1,.24-.41Z"/><path class="cls-1" d="M116.74,64.63,117,63.4l2.58.45-.16,1.26-.2,0c0-.44-.06-1.06-.5-1.14,0,0-.13,0-.14.06a1.84,1.84,0,0,0,0,.2l-.4,2.33c0,.17,0,.21.1.26s.2,0,.29.06l0,.24-1.58-.27,0-.25a3.35,3.35,0,0,0,.35,0,.11.11,0,0,0,.1-.08.52.52,0,0,0,0-.17l.4-2.27c0-.07,0-.13,0-.2s-.07-.1-.12-.11c-.44-.08-.73.51-.85.91Z"/><path class="cls-1" d="M122.6,67.41l-2.69-.14V67c.11,0,.37.07.42-.1a.61.61,0,0,0,0-.16l.12-2.38a.2.2,0,0,0,0-.1s0-.07-.07-.08a1.29,1.29,0,0,0-.33,0v-.25l2.67.14,0,1.21h-.2c-.13-.69-.31-1-1-1a.61.61,0,0,0-.28,0,.16.16,0,0,0-.07.09.76.76,0,0,0,0,.24l0,.88c.39.06.6-.2.66-.62h.2l-.07,1.62h-.21c0-.45-.2-.74-.59-.75l-.06,1c0,.21,0,.3.17.34l.21,0c.63,0,.87-.28,1.07-.95l.2,0Z"/><path class="cls-1" d="M123.22,66.13h.19c.18.52.59,1.08,1.12,1.05a.52.52,0,0,0,.55-.56.46.46,0,0,0-.45-.47l-.29-.06a1.54,1.54,0,0,1-.8-.31,1,1,0,0,1-.37-.75,1,1,0,0,1,1-1.11,1.08,1.08,0,0,1,.7.22l.2-.24h.17l.11,1.22h-.2c-.17-.49-.54-1-1-1a.5.5,0,0,0-.52.51c0,.33.28.42.51.46l.26,0c.58.12,1.12.28,1.16,1.1a1.17,1.17,0,0,1-.3.84,1.06,1.06,0,0,1-.72.29,1.14,1.14,0,0,1-.8-.28l-.24.3h-.17Z"/><path class="cls-1" d="M130.07,66.38c.48-.13.43-.7.38-1.13a5.23,5.23,0,0,0-.1-.52c-.14-.53-.47-1.45-1.11-1.27s-.49,1.13-.34,1.69a3.07,3.07,0,0,0,.42.94.66.66,0,0,0,.75.29l0,.24a1.41,1.41,0,0,1-1.2-.21,2,2,0,0,1-.74-1.07,1.86,1.86,0,0,1,.12-1.36,1.54,1.54,0,0,1,.94-.76,1.44,1.44,0,0,1,1.24.19,1.89,1.89,0,0,1,.76,1.09,2,2,0,0,1-.14,1.36,1.46,1.46,0,0,1-1,.75Z"/><path class="cls-1" d="M131.86,66.13l-.08-.23.24-.08a.26.26,0,0,0,.11-.06l0,0a.45.45,0,0,0,0-.05,1.74,1.74,0,0,0-.06-.21l-.76-2.18c0-.08-.07-.18-.16-.18a.79.79,0,0,0-.24.05l-.1,0-.08-.23,2.62-.91.43,1.15-.2.07c-.34-.54-.68-.79-1.26-.59a.55.55,0,0,0-.31.18c0,.07,0,.16,0,.24l.31.91c.43-.13.48-.36.41-.83l.2-.07.53,1.52-.2.07a1,1,0,0,0-.18-.3.51.51,0,0,0-.64-.18l0,0,.34,1c.08.23.1.28.33.22l.25-.07.08.23Z"/><path class="cls-1" d="M136.7,62.65l-.21-1.21.91.82-.7.39,0,.31.89-.5.41.38c.05.05.11.09.1.17s-.16.14-.22.19l.13.21,1.21-.68-.12-.21c-.24.12-.3.07-.51-.11l-2.27-2-.26.15.43,2.6c.05.32.12.71-.14.9l.12.21,1-.56-.13-.21a.32.32,0,0,1-.5-.09,1.67,1.67,0,0,1-.12-.45Z"/><path class="cls-1" d="M141,61.51l-.16.12-2.52-1.89h0l1.24,1.69c.23.31.44.53.75.28l.15.2-.9.67-.15-.2c.29-.22.21-.41,0-.72l-1.18-1.59c0-.07-.11-.18-.2-.18s-.18.09-.24.13l-.08.06-.15-.2,1-.76,1.71,1.28h0l-.74-2,1-.76.15.2-.1.08c-.07,0-.17.1-.16.21a1.43,1.43,0,0,0,.19.29L142,60.2a.44.44,0,0,1,.06.06c.11.1.23,0,.31-.07l.09-.06.14.2-1.21.89-.15-.2.18-.14s0-.06.05-.08a.11.11,0,0,0,0-.1.34.34,0,0,0-.07-.13l-1.51-2h0Z"/><path class="cls-1" d="M145.14,57.87l-1.93,1.88-.17-.17c.06-.09.3-.23.21-.37a.6.6,0,0,0-.1-.13l-1.67-1.7a.2.2,0,0,0-.08-.06.1.1,0,0,0-.11,0,1.2,1.2,0,0,0-.25.22l-.17-.18,1.91-1.86.86.85-.14.13c-.59-.37-.94-.44-1.39,0a.55.55,0,0,0-.17.23.17.17,0,0,0,0,.11.67.67,0,0,0,.15.19l.62.63c.31-.25.26-.57,0-.92l.15-.14L144,57.73l-.16.15c-.32-.31-.67-.36-.95-.07l.71.73c.14.15.21.22.36.1l.17-.14c.45-.43.38-.83,0-1.43l.16-.12Z"/><path class="cls-1" d="M144.91,55.28l-.75-.61c-.07-.06-.16-.14-.15-.23a.68.68,0,0,1,.16-.25c.23-.28.45-.34.81-.06s.37.59.13.89a2.51,2.51,0,0,1-.19.26l.19.15.08-.1.12-.13c.26-.28.49-.11.81.11l.23.17a.86.86,0,0,0,.48.2.56.56,0,0,0,.45-.21.62.62,0,0,0,0-.87,1.25,1.25,0,0,0-.2-.19l-.13.15c.11.11.39.36.19.46h-.06a1.25,1.25,0,0,1-.29-.13l-.27-.14a.8.8,0,0,0-.92,0h0a.82.82,0,0,0-.12-1.19.86.86,0,0,0-.68-.18,1,1,0,0,0-.55.38L144,54l-1,1.22.19.16.07-.1c.07-.07.11-.16.21-.16s.25.16.31.21l1.68,1.36c.14.13.21.18.08.33l-.13.17.19.15,1-1.2-.19-.16-.06.08c-.05,0-.09.11-.14.15s-.1.06-.18,0l-.12-.09-.83-.68Z"/><path class="cls-1" d="M147.8,54.61l-.2-.14.14-.21c.08-.17,0-.22-.17-.32l-1.88-1.27-.13-.08c-.06,0-.09,0-.14,0a.81.81,0,0,0-.13.16l-.07.1-.21-.14.87-1.28.2.14-.07.11c0,.07-.12.15-.09.25s0,.05.05.07a.62.62,0,0,0,.12.09l1.93,1.3c.06,0,.15.1.22.06l0,0s.08-.1.12-.15l.06-.08.2.14Z"/><path class="cls-1" d="M147.13,49.15l.08-.15,1.19.62-.08.19c-.5-.15-1.18-.22-1.42.23a.57.57,0,0,0,0,.61,1.63,1.63,0,0,0,.48.49,3.84,3.84,0,0,0,.49.31,3.72,3.72,0,0,0,.66.29,1,1,0,0,0,.58.05.65.65,0,0,0,.42-.33c.25-.44,0-.93-.45-1.27l.17-.18a1.23,1.23,0,0,1,.45,1.72,1.26,1.26,0,0,1-.94.66,1.86,1.86,0,0,1-1.25-.26,1.93,1.93,0,0,1-.92-1,1.31,1.31,0,0,1,.06-1.14,1.06,1.06,0,0,1,.55-.52l.06,0Z"/><path class="cls-1" d="M149.53,49l-.91-.84,1.22.1-.31.74.22.21.4-.92.55.05c.07,0,.14,0,.18.08s0,.21-.06.27l.22.1.55-1.28-.22-.1c-.12.24-.2.24-.48.22l-3-.2-.12.27,1.92,1.8c.23.22.52.49.43.8l.23.1.45-1-.23-.1c-.07.17-.21.34-.45.24a1.53,1.53,0,0,1-.37-.29Z"/><path class="cls-1" d="M120.35,69.21a6.83,6.83,0,0,1,1.11,1.05,6.84,6.84,0,0,0,1.5,1.35,1.81,1.81,0,0,0,2.17-.19A7.3,7.3,0,0,1,124,70.36a7.64,7.64,0,0,0-1.48-1.29,1.73,1.73,0,0,0-2.13.14Z"/><path class="cls-1" d="M117.09,68.79a7,7,0,0,1,1,1.15,6.81,6.81,0,0,0,1.36,1.5,1.81,1.81,0,0,0,2.18,0,7.42,7.42,0,0,1-1-1.15,7.63,7.63,0,0,0-1.36-1.44,1.73,1.73,0,0,0-2.13-.09Z"/><path class="cls-1" d="M113.95,68.07a7,7,0,0,1,.88,1.25,6.78,6.78,0,0,0,1.2,1.62,1.79,1.79,0,0,0,2.17.25,7.34,7.34,0,0,1-.93-1.26,7.57,7.57,0,0,0-1.2-1.57,1.74,1.74,0,0,0-2.12-.29Z"/><path class="cls-1" d="M110.89,67a6.84,6.84,0,0,1,.75,1.33,6.85,6.85,0,0,0,1,1.73,1.81,1.81,0,0,0,2.13.46,7.22,7.22,0,0,1-.8-1.35,7.69,7.69,0,0,0-1-1.67,1.73,1.73,0,0,0-2.08-.5Z"/><path class="cls-1" d="M108,65.71a7,7,0,0,1,.61,1.4,6.81,6.81,0,0,0,.86,1.83,1.79,1.79,0,0,0,2.07.67,7.34,7.34,0,0,1-.66-1.41,7.63,7.63,0,0,0-.87-1.77,1.74,1.74,0,0,0-2-.71Z"/><path class="cls-1" d="M105.16,64.1a6.86,6.86,0,0,1,.47,1.45,6.72,6.72,0,0,0,.67,1.9,1.81,1.81,0,0,0,2,.87,7.38,7.38,0,0,1-.52-1.48A7.76,7.76,0,0,0,107.1,65a1.73,1.73,0,0,0-1.94-.9Z"/><path class="cls-1" d="M102.55,62.21a7,7,0,0,1,.32,1.49,6.76,6.76,0,0,0,.48,2,1.78,1.78,0,0,0,1.9,1.06,7.41,7.41,0,0,1-.37-1.51,7.61,7.61,0,0,0-.5-1.92,1.74,1.74,0,0,0-1.83-1.09Z"/><path class="cls-1" d="M100.13,60.08a7,7,0,0,1,.17,1.52,6.9,6.9,0,0,0,.28,2,1.81,1.81,0,0,0,1.79,1.25,7.29,7.29,0,0,1-.22-1.55,7.66,7.66,0,0,0-.31-1.95,1.72,1.72,0,0,0-1.72-1.27Z"/><path class="cls-1" d="M97.94,57.72a7,7,0,0,1,0,1.53,6.88,6.88,0,0,0,.08,2,1.79,1.79,0,0,0,1.65,1.42,7.26,7.26,0,0,1-.06-1.56,7.63,7.63,0,0,0-.11-2,1.72,1.72,0,0,0-1.58-1.43Z"/><path class="cls-1" d="M96,55.14a6.88,6.88,0,0,1-.13,1.53,6.77,6.77,0,0,0-.12,2,1.79,1.79,0,0,0,1.5,1.58,7.37,7.37,0,0,1,.1-1.56,7.71,7.71,0,0,0,.09-2A1.72,1.72,0,0,0,96,55.14Z"/><path class="cls-1" d="M94.31,52.39A6.9,6.9,0,0,1,94,53.9a6.79,6.79,0,0,0-.32,2A1.79,1.79,0,0,0,95,57.61a7.41,7.41,0,0,1,.25-1.54,7.67,7.67,0,0,0,.28-2,1.72,1.72,0,0,0-1.27-1.72Z"/><path class="cls-1" d="M92.91,49.49A6.92,6.92,0,0,1,92.48,51a6.78,6.78,0,0,0-.52,2,1.79,1.79,0,0,0,1.16,1.84,7.3,7.3,0,0,1,.4-1.51A7.58,7.58,0,0,0,94,51.32a1.73,1.73,0,0,0-1.09-1.83Z"/><path class="cls-1" d="M91.8,46.46a7,7,0,0,1-.57,1.41,6.76,6.76,0,0,0-.71,1.9,1.79,1.79,0,0,0,1,2A7.3,7.3,0,0,1,92,50.26a7.6,7.6,0,0,0,.66-1.86,1.72,1.72,0,0,0-.9-1.93Z"/><path class="cls-1" d="M91,43.34a6.94,6.94,0,0,1-.71,1.35,6.78,6.78,0,0,0-.89,1.81,1.8,1.8,0,0,0,.77,2,7.24,7.24,0,0,1,.69-1.41,7.61,7.61,0,0,0,.84-1.78,1.72,1.72,0,0,0-.71-2Z"/><path class="cls-1" d="M90.52,40.15a6.85,6.85,0,0,1-.84,1.27,6.85,6.85,0,0,0-1.07,1.72,1.8,1.8,0,0,0,.57,2.11A7.43,7.43,0,0,1,90,43.92a7.61,7.61,0,0,0,1-1.7,1.72,1.72,0,0,0-.5-2.07Z"/><path class="cls-1" d="M90.36,36.93a6.93,6.93,0,0,1-1,1.18,6.76,6.76,0,0,0-1.23,1.6,1.79,1.79,0,0,0,.36,2.15,7.29,7.29,0,0,1,1-1.25A7.67,7.67,0,0,0,90.65,39a1.73,1.73,0,0,0-.3-2.12Z"/><path class="cls-1" d="M90.51,33.7a7,7,0,0,1-1.08,1.08A6.79,6.79,0,0,0,88,36.26a1.8,1.8,0,0,0,.14,2.18,7.3,7.3,0,0,1,1.08-1.14,7.62,7.62,0,0,0,1.33-1.46,1.72,1.72,0,0,0-.08-2.13Z"/><path class="cls-1" d="M91,30.52a7,7,0,0,1-1.19,1,6.79,6.79,0,0,0-1.52,1.32A1.8,1.8,0,0,0,88.21,35a7.4,7.4,0,0,1,1.19-1,7.61,7.61,0,0,0,1.46-1.31A1.72,1.72,0,0,0,91,30.52Z"/><path class="cls-1" d="M91.78,27.39a6.77,6.77,0,0,1-1.27.85,6.77,6.77,0,0,0-1.65,1.16,1.8,1.8,0,0,0-.29,2.16,7.34,7.34,0,0,1,1.28-.9,7.69,7.69,0,0,0,1.6-1.17,1.72,1.72,0,0,0,.34-2.11Z"/><path class="cls-1" d="M92.87,24.35a6.9,6.9,0,0,1-1.35.72,6.81,6.81,0,0,0-1.75,1,1.79,1.79,0,0,0-.5,2.12,7.44,7.44,0,0,1,1.36-.77,7.63,7.63,0,0,0,1.7-1,1.73,1.73,0,0,0,.55-2.07Z"/><path class="cls-1" d="M94.27,21.45a6.87,6.87,0,0,1-1.41.58,6.84,6.84,0,0,0-1.85.82,1.79,1.79,0,0,0-.71,2.06,7.21,7.21,0,0,1,1.43-.63,7.53,7.53,0,0,0,1.79-.83,1.73,1.73,0,0,0,.75-2Z"/><path class="cls-1" d="M95.94,18.69a7,7,0,0,1-1.46.43,6.8,6.8,0,0,0-1.93.64,1.78,1.78,0,0,0-.91,2,7.4,7.4,0,0,1,1.48-.49A7.61,7.61,0,0,0,95,20.61a1.72,1.72,0,0,0,.95-1.91Z"/><path class="cls-1" d="M97.88,16.12a7.08,7.08,0,0,1-1.49.28,6.76,6.76,0,0,0-2,.44,1.78,1.78,0,0,0-1.11,1.88,7.32,7.32,0,0,1,1.53-.34,7.67,7.67,0,0,0,1.92-.45,1.73,1.73,0,0,0,1.13-1.81Z"/><path class="cls-1" d="M100.07,13.75a7.11,7.11,0,0,1-1.52.14,6.82,6.82,0,0,0-2,.24,1.79,1.79,0,0,0-1.29,1.76,7.29,7.29,0,0,1,1.56-.18,7.6,7.6,0,0,0,1.95-.26,1.73,1.73,0,0,0,1.31-1.69Z"/><path class="cls-1" d="M98.2,13.2l.84,0a8.31,8.31,0,0,0,2-.07,1.72,1.72,0,0,0,1.47-1.55,7.58,7.58,0,0,1-1.52,0,7.39,7.39,0,0,0-2,0,1.79,1.79,0,0,0-1.45,1.62,3.71,3.71,0,0,1,.73-.06Z"/><path class="cls-1" d="M100.18,10.85a9.77,9.77,0,0,1,1.33.14,7.67,7.67,0,0,0,2,.13,1.72,1.72,0,0,0,1.61-1.4,6.66,6.66,0,0,1-1.52-.16,6.74,6.74,0,0,0-2-.16,1.8,1.8,0,0,0-1.61,1.47Z"/><path class="cls-1" d="M102.65,8.72A7.56,7.56,0,0,1,104.2,9a8.24,8.24,0,0,0,1.85.32h.09a1.73,1.73,0,0,0,1.75-1.23,7.14,7.14,0,0,1-1.49-.31,7.45,7.45,0,0,0-1.87-.36h-.13a1.79,1.79,0,0,0-1.75,1.3Z"/><path class="cls-1" d="M105.55,6.86a7.28,7.28,0,0,1,1.5.43A7.53,7.53,0,0,0,109,7.8a1.72,1.72,0,0,0,1.86-1.05,7,7,0,0,1-1.45-.46,6.74,6.74,0,0,0-1.94-.56h-.13a1.77,1.77,0,0,0-1.74,1.12Z"/><path class="cls-1" d="M108.62,5.3a7.41,7.41,0,0,1,1.45.58,7.67,7.67,0,0,0,1.85.7,1.69,1.69,0,0,0,2-.86,6.88,6.88,0,0,1-1.4-.6,6.78,6.78,0,0,0-1.88-.75,1.78,1.78,0,0,0-2,.93Z"/><path class="cls-1" d="M111.82,4a7.27,7.27,0,0,1,1.39.72,7.68,7.68,0,0,0,1.77.88A1.72,1.72,0,0,0,117,5a7.15,7.15,0,0,1-1.33-.74,6.75,6.75,0,0,0-1.8-.94,1.81,1.81,0,0,0-2.05.73Z"/><path class="cls-1" d="M115.14,3.12a7.36,7.36,0,0,1,1.31.86A7.58,7.58,0,0,0,118.12,5a2.27,2.27,0,0,0,.81.16,1.57,1.57,0,0,0,1.27-.62,6.82,6.82,0,0,1-1.25-.87,6.76,6.76,0,0,0-1.69-1.11,1.8,1.8,0,0,0-2.12.52Z"/><path class="cls-1" d="M118.53,2.53a7.45,7.45,0,0,1,1.22,1,7.84,7.84,0,0,0,1.56,1.22,1.73,1.73,0,0,0,2.12-.25,6.93,6.93,0,0,1-1.15-1,6.8,6.8,0,0,0-1.58-1.27,1.8,1.8,0,0,0-2.16.31Z"/><path class="cls-1" d="M122,2.28a7.3,7.3,0,0,1,1.12,1.1,7.69,7.69,0,0,0,1.42,1.36,1.74,1.74,0,0,0,2.13,0,6.83,6.83,0,0,1-1.06-1.1,6.73,6.73,0,0,0-1.44-1.41,1.81,1.81,0,0,0-2.18.09Z"/><path class="cls-1" d="M125.41,2.37a7.42,7.42,0,0,1,1,1.2,7.63,7.63,0,0,0,1.28,1.5,1.73,1.73,0,0,0,2.13.18,6.94,6.94,0,0,1-.94-1.2,6.83,6.83,0,0,0-1.29-1.55,1.8,1.8,0,0,0-2.18-.13Z"/><path class="cls-1" d="M128.83,2.8a7.44,7.44,0,0,1,.87,1.29,7.79,7.79,0,0,0,1.13,1.62,1.74,1.74,0,0,0,2.1.39,7,7,0,0,1-.82-1.29A6.83,6.83,0,0,0,131,3.14a1.82,1.82,0,0,0-2.15-.33Z"/><path class="cls-1" d="M132.18,3.57a7.41,7.41,0,0,1,.74,1.37,7.63,7.63,0,0,0,1,1.72,1.74,1.74,0,0,0,2,.6,7,7,0,0,1-.68-1.36,6.81,6.81,0,0,0-1-1.78,1.8,1.8,0,0,0-2.11-.55Z"/><path class="cls-1" d="M135.44,4.67a7.46,7.46,0,0,1,.6,1.44,7.62,7.62,0,0,0,.79,1.81,1.74,1.74,0,0,0,2,.8,7,7,0,0,1-.55-1.43,6.78,6.78,0,0,0-.78-1.87A1.82,1.82,0,0,0,136,4.59a1.8,1.8,0,0,0-.54.08Z"/><path class="cls-1" d="M138.58,6.09a7.16,7.16,0,0,1,.45,1.5,7.68,7.68,0,0,0,.6,1.88,1.74,1.74,0,0,0,1.55,1,1.65,1.65,0,0,0,.35,0A6.9,6.9,0,0,1,141.13,9,6.81,6.81,0,0,0,140.54,7a1.8,1.8,0,0,0-2-1Z"/><path class="cls-1" d="M141.56,7.82a7.31,7.31,0,0,1,.31,1.54,7.63,7.63,0,0,0,.41,1.92,1.73,1.73,0,0,0,1.78,1.17,6.91,6.91,0,0,1-.26-1.5,6.76,6.76,0,0,0-.39-2,1.76,1.76,0,0,0-1.65-1.15Z"/><path class="cls-1" d="M144.36,9.83a7.16,7.16,0,0,1,.15,1.56,7.7,7.7,0,0,0,.22,2,1.71,1.71,0,0,0,1.66,1.34h0a7,7,0,0,1-.11-1.52,6.79,6.79,0,0,0-.2-2,1.78,1.78,0,0,0-1.72-1.32Z"/><path class="cls-1" d="M146.94,12.11a7.31,7.31,0,0,1,0,1.57,7.75,7.75,0,0,0,0,2,1.73,1.73,0,0,0,1.52,1.5,7,7,0,0,1,0-1.52,6.89,6.89,0,0,0,0-2,1.79,1.79,0,0,0-1.59-1.49Z"/><path class="cls-1" d="M149.28,14.63a7.36,7.36,0,0,1-.16,1.56,7.62,7.62,0,0,0-.17,2,1.72,1.72,0,0,0,1.36,1.64,7,7,0,0,1,.2-1.51,6.84,6.84,0,0,0,.21-2,1.8,1.8,0,0,0-1.43-1.64Z"/><path class="cls-1" d="M151.36,17.38a7.24,7.24,0,0,1-.32,1.54,7.72,7.72,0,0,0-.36,1.93,1.73,1.73,0,0,0,1.19,1.77,6.94,6.94,0,0,1,.35-1.48,6.84,6.84,0,0,0,.41-2,1.8,1.8,0,0,0-1.27-1.78Z"/><path class="cls-1" d="M153.16,20.31a7.27,7.27,0,0,1-.47,1.5,7.56,7.56,0,0,0-.55,1.89,1.72,1.72,0,0,0,1,1.88,7,7,0,0,1,.49-1.45,6.82,6.82,0,0,0,.6-1.93,1.8,1.8,0,0,0-1.08-1.9Z"/><path class="cls-1" d="M154.65,23.41a7.24,7.24,0,0,1-.61,1.44,7.66,7.66,0,0,0-.74,1.83,1.72,1.72,0,0,0,.82,2,7,7,0,0,1,.63-1.39,6.89,6.89,0,0,0,.79-1.86,1.81,1.81,0,0,0-.89-2Z"/><path class="cls-1" d="M155.83,26.65a7.31,7.31,0,0,1-.75,1.38,7.71,7.71,0,0,0-.92,1.74,1.73,1.73,0,0,0,.62,2,7,7,0,0,1,.76-1.31,6.87,6.87,0,0,0,1-1.78,1.8,1.8,0,0,0-.69-2.07Z"/><path class="cls-1" d="M156.68,30a7.32,7.32,0,0,1-.88,1.29,7.64,7.64,0,0,0-1.08,1.65,1.72,1.72,0,0,0,.41,2.09,6.89,6.89,0,0,1,.89-1.23,6.77,6.77,0,0,0,1.14-1.68,1.79,1.79,0,0,0-.48-2.13Z"/><path class="cls-1" d="M157.21,33.39a7.47,7.47,0,0,1-1,1.19A7.78,7.78,0,0,0,155,36.12a1.73,1.73,0,0,0,.2,2.13,6.88,6.88,0,0,1,1-1.14,6.8,6.8,0,0,0,1.3-1.55,1.8,1.8,0,0,0-.26-2.16Z"/><path class="cls-1" d="M157.38,36.83a7.24,7.24,0,0,1-1.12,1.09,7.56,7.56,0,0,0-1.39,1.4,1.72,1.72,0,0,0,0,2.13,6.93,6.93,0,0,1,1.12-1A6.81,6.81,0,0,0,157.43,39a1.79,1.79,0,0,0,0-2.18Z"/><path class="cls-1" d="M157.22,40.27a7.41,7.41,0,0,1-1.22,1,7.58,7.58,0,0,0-1.53,1.26,1.72,1.72,0,0,0-.22,2.12,7,7,0,0,1,1.21-.91A6.84,6.84,0,0,0,157,42.44a1.81,1.81,0,0,0,.17-2.17Z"/><path class="cls-1" d="M156.71,43.67a7.21,7.21,0,0,1-1.31.84,7.67,7.67,0,0,0-1.65,1.1,1.72,1.72,0,0,0-.43,2.09,7,7,0,0,1,1.31-.8,6.91,6.91,0,0,0,1.69-1.09,1.8,1.8,0,0,0,.38-2.15Z"/><path class="cls-1" d="M155.86,47a7.3,7.3,0,0,1-1.39.71,7.74,7.74,0,0,0-1.75.93,1.72,1.72,0,0,0-.64,2,6.9,6.9,0,0,1,1.37-.66,6.8,6.8,0,0,0,1.8-.92,1.79,1.79,0,0,0,.59-2.1Z"/><path class="cls-1" d="M154.69,50.25a7.31,7.31,0,0,1-1.45.57,7.7,7.7,0,0,0-1.83.75,1.72,1.72,0,0,0-.84,2A7.07,7.07,0,0,1,152,53a6.86,6.86,0,0,0,1.88-.74,1.79,1.79,0,0,0,.8-2Z"/><path class="cls-1" d="M153.21,53.36a7.52,7.52,0,0,1-1.49.42,7.69,7.69,0,0,0-1.9.57,1.72,1.72,0,0,0-1,1.87,7.11,7.11,0,0,1,1.46-.37,6.75,6.75,0,0,0,2-.55,1.79,1.79,0,0,0,1-1.93Z"/><path class="cls-1" d="M151.39,56.34a7.21,7.21,0,0,1-1.54.27,7.54,7.54,0,0,0-1.93.37,1.73,1.73,0,0,0-1.21,1.76,7,7,0,0,1,1.51-.22,6.81,6.81,0,0,0,2-.35,1.8,1.8,0,0,0,1.19-1.83Z"/><path class="cls-1" d="M149.24,59.17a7.49,7.49,0,0,1-1.55.11,7.56,7.56,0,0,0-2,.17,1.72,1.72,0,0,0-1.39,1.63,7.28,7.28,0,0,1,1.52-.07h.61a5,5,0,0,0,1.41-.15,1.78,1.78,0,0,0,1.37-1.69Z"/><path class="cls-1" d="M142.08,63.17a10.76,10.76,0,0,1,1.3.11,6.58,6.58,0,0,0,1.87.07,1.79,1.79,0,0,0,1.54-1.55,7.53,7.53,0,0,1-1.56-.05,7.61,7.61,0,0,0-2,0,1.71,1.71,0,0,0-1.54,1.47l.38,0Z"/><path class="cls-1" d="M139,65a7.17,7.17,0,0,1,1.47.25,6.67,6.67,0,0,0,2,.27,1.94,1.94,0,0,0,1.76-1.45,7.89,7.89,0,0,1-1.6-.18,8.62,8.62,0,0,0-2-.2A1.73,1.73,0,0,0,138.93,65Z"/><path class="cls-1" d="M136.12,66.42a6.84,6.84,0,0,1,1.47.39,6.84,6.84,0,0,0,2,.47,1.79,1.79,0,0,0,1.81-1.21,7.26,7.26,0,0,1-1.52-.36,7.63,7.63,0,0,0-1.93-.42h0a1.73,1.73,0,0,0-1.8,1.14Z"/><path class="cls-1" d="M133.1,67.6a6.88,6.88,0,0,1,1.43.54,6.84,6.84,0,0,0,1.91.66,1.77,1.77,0,0,0,1.92-1,7.17,7.17,0,0,1-1.48-.51,7.7,7.7,0,0,0-1.87-.61,1.71,1.71,0,0,0-1.91.95Z"/><path class="cls-1" d="M129.93,68.5a6.8,6.8,0,0,1,1.37.68,6.84,6.84,0,0,0,1.82.85,1.78,1.78,0,0,0,2-.82,7.22,7.22,0,0,1-1.42-.66,7.5,7.5,0,0,0-1.8-.8,1.72,1.72,0,0,0-2,.75Z"/><path class="cls-1" d="M126.72,69.05a6.76,6.76,0,0,1,1.29.81,6.87,6.87,0,0,0,1.74,1,1.8,1.8,0,0,0,2.09-.62,7.57,7.57,0,0,1-1.34-.8,7.63,7.63,0,0,0-1.71-1,1.74,1.74,0,0,0-2.06.55Z"/><path class="cls-1" d="M123.51,69.29a7,7,0,0,1,1.2.94,6.89,6.89,0,0,0,1.63,1.2,1.81,1.81,0,0,0,2.14-.4,7.49,7.49,0,0,1-1.26-.93,7.82,7.82,0,0,0-1.6-1.14,1.73,1.73,0,0,0-2.11.34Z"/><path class="cls-2" d="M110.92,31c.07,0,0-.25,0-.36a7.35,7.35,0,0,0-.87-1.17c-.37-.45-.79-.77-1.12-1.24s-.56-1-.94-1.49c-.62-.76-.68-1-1.79-.78-.37.07-1.57.23-1.21.46,1.61,1.05,4.16,2.84,4.57,3.51l.34.51a2.8,2.8,0,0,1,.38.82,5.87,5.87,0,0,1-.43-.47,1.07,1.07,0,0,0-1.58,0,6.11,6.11,0,0,1,2.52,1.47c.08-.35-.14-1.15.14-1.28"/><path class="cls-2" d="M108.23,26.85c.18.39.46.7.67,1.07a2.21,2.21,0,0,0,.3.37c.34.37.61.8,1.07.93,0,0,0-.2,0-.3a7.49,7.49,0,0,0-1.33-2.32A7.08,7.08,0,0,0,107.4,25a7.83,7.83,0,0,1,2.24,2.39,10,10,0,0,1,.75,1.21c.15.31,0,.68.21,1,.05-.42.35-.68.19-1-.58-1.13-1.18-2.22-1.79-3.33A5.29,5.29,0,0,0,105,23c-.21,0-1,0-1,.29.93.8,2.27,1.43,3.23,2.23a4.42,4.42,0,0,1,1.06,1.36"/><path class="cls-2" d="M108.91,24.39c.52.86.81,1.81,1.28,2.7.13.22.24.46.39.68s.36.67.35.47a1.92,1.92,0,0,0-.11-.62,33.64,33.64,0,0,0-1.43-3.18c.26.46.47.93.76,1.36s.29.59.5.88c0,0,0,.12,0,.19s.06.06.1.09c-.11-1.13-.38-2.24-.57-3.36-1.29-1.18-2.92-3.26-4.67-3.8-.16.29.15.53.29.76.75,1.22,2.3,2.55,3.07,3.83"/><path class="cls-2" d="M110.42,23.36c.43,1.29.39,2.64.87,3.91.12.29.42-.13.44-.27a5.7,5.7,0,0,0-.24-2.53c-.16-.44-.34-.87-.5-1.31.47.61.57,1.38,1,2A9.29,9.29,0,0,0,112,23a4.91,4.91,0,0,1-.19-1,1.69,1.69,0,0,0-.52-.67A16.9,16.9,0,0,0,108,18.5a.77.77,0,0,0-.25.09c.15.57,1.16,1.56,1.42,2.07a18.74,18.74,0,0,1,1.3,2.7"/><path class="cls-2" d="M112.26,24.46c0,.62-.09,1.25-.13,1.88a1.3,1.3,0,0,0,.26.81s.11,0,.13,0a4,4,0,0,0,.27-1.89,27.18,27.18,0,0,0-.29-4.06,34.5,34.5,0,0,1,.63,5.29,9.75,9.75,0,0,0,.51-3,7,7,0,0,0-.65-2.55,6.78,6.78,0,0,0-1.23-1.67c-.11-.13-.64-.58-.72-.38s.37.84.49,1.09a10,10,0,0,1,.73,4.54"/><path class="cls-2" d="M113.31,26.75c0,.08.4.13.47-.07a8.16,8.16,0,0,0,.27-.92,13.27,13.27,0,0,0,.2-1.72,10,10,0,0,0-.11-1.17c.19.16.16.42.19.62a11.58,11.58,0,0,1,0,2.75.05.05,0,0,0,.09,0,2.15,2.15,0,0,0,.67-.79,2.79,2.79,0,0,0,.1-1.27c-.14-1-.41-2.68-1.3-3.33,0,0-.07.06-.08.1s0,1.41,0,1.64a14.44,14.44,0,0,1-.5,4.11"/><path class="cls-2" d="M114.34,26.65s.07.05.13.09a.42.42,0,0,1,.18.27c.08.16.41.15.48.07a4.41,4.41,0,0,0,1.33-2.4c0-.45,0-1.13-.25-1.26s-.2.3-.25.47a9.31,9.31,0,0,1-.65,1.64c-.23.42-.66.68-1,1.12"/><path class="cls-2" d="M115.38,27.33c-.17.36.25.45.46.7.82-1.11,1-.88,1.42-1.38a1.83,1.83,0,0,0,.14-2.06,12.64,12.64,0,0,0-1.4,1.91,4,4,0,0,0-.62.84"/><path class="cls-2" d="M111.25,29.21c.07.12.19.41.24.33a1.35,1.35,0,0,0,.42-1s0-.12,0-.17a4.91,4.91,0,0,0-.05-1.24c-.36.13-.46.47-.63.76a.91.91,0,0,0-.1.65,1.76,1.76,0,0,0,.08.63"/><path class="cls-2" d="M113.06,27a1.48,1.48,0,0,0-.94,1.4c0,.21-.28.56,0,.54a.61.61,0,0,1,.71.38c0,.16.07-.06.14-.06a2.68,2.68,0,0,1,.23-2c.06-.09-.06-.24-.1-.23"/><path class="cls-2" d="M113.59,29a1.9,1.9,0,0,1,.66-1.63c.13-.1-.07-.31-.23-.39a.2.2,0,0,0-.15,0,1.59,1.59,0,0,0-.62.58,1.68,1.68,0,0,0,0,1.5c.06.14.39.08.38-.07"/><path class="cls-2" d="M114.53,27.79a1.28,1.28,0,0,0,.4-.27c.06-.08,0-.21-.12-.25s-.39.19-.5.36a1.55,1.55,0,0,0-.49,1.18,3,3,0,0,1,.7-1"/><path class="cls-2" d="M114.33,29.19a2,2,0,0,0,.62-.52c.2-.25.38-.09.47-.29a.42.42,0,0,0-.08-.45c-.26-.13-.44,0-.65.15a1.42,1.42,0,0,0-.6,1.09c0,.1.17.06.24,0"/><path class="cls-2" d="M115.58,28.44c.14.08.37,0,.43.17s.09.13.11.19c.12.38-.22.74.09,1.08.19-.28.61-.64.79-.93a3,3,0,0,1,.55-.66c.32-.3,1.18-.6,1.39-1a3.44,3.44,0,0,0,.26-1.09c0-.14.16-.38,0-.41s-1.09.46-1.31.63c-.46.37-.8.77-1.24,1.15a6.9,6.9,0,0,0-1.07.87"/><path class="cls-2" d="M117.62,28.54c-.46.42-1.21,1.13-1.15,1.67,0,.17.52,0,.75.12s.08.2,0,.32c.23.06.47,0,.69.07s.06.25.15.36.32.14.36.06a6.4,6.4,0,0,1,2.14-2.29c.27-.15.2-.8-.05-.86-.84-.15-2,1-2.23,1.86-.11-.81,1-1.49,1.23-1.7s.21-.53,0-.56c-.56-.09-1.52.58-1.94,1"/><path class="cls-2" d="M119.16,30.34a1.39,1.39,0,0,0-.28.59c-.05.2-.44.72-.27.83s.39-.14.48,0c.44.77.9.29,1,.69,0,.11.3,0,.35,0,.57-.61,2.19-1.67,2-2.62-.37-.25-.87,0-1.21.25s-.81.74-1.05.91c-.08.06,0-.1,0-.11a6.67,6.67,0,0,1,1.46-1.36c.21-.13.32-.58.05-.68-.53-.21-1.48.51-1.92.91-.22.21-.39.4-.58.61"/><path class="cls-2" d="M119.58,35a1.17,1.17,0,0,0,.42-.14,4.63,4.63,0,0,0,1.36-1.18c.27-.42.62-.74.89-1.16,0-.07.12-.24,0-.21-.32.09-.44.39-.71.55.53-.87,1.25-1.26,1-2.15,0-.17-.85.63-1,.83s-.6.42-.67.73a7.33,7.33,0,0,0,.07,1.12c0,.14.11.35.06.52s0,.21-.1.14-.06-.45-.33-.4-.2.32-.41.33c0-.49.71-.89.18-1.18-.26-.15-.46.23-.75.25.07-.13.21-.22.26-.36a.21.21,0,0,0-.2-.25,4,4,0,0,0-.82.28c.11-.21.35-.58.12-.71s-.51.22-.79.32c.06-.26.25-.53.11-.73s-.56-.06-.85,0c.11-.22.36-.45.22-.63s-.73-.06-1.1,0c.09-.21.33-.4.18-.52-.31-.26-.81.09-1,.42,0,0,0-.12,0-.16a1.74,1.74,0,0,0,.11-1.22c-.08-.18-.41,0-.54-.09.17-.09.47-.16.51-.35s0-.36-.16-.37a1.49,1.49,0,0,0-1.31.87c0,.06,0,.17,0,.24s-.09,0-.08,0a.15.15,0,0,0-.08-.24.28.28,0,0,0-.24,0c-.23.17-.49.48-.71.62,0-.29.34-.72,0-.85s-.45.3-.7.46a.36.36,0,0,0-.42-.56,1.3,1.3,0,0,0-.67,1.12,3,3,0,0,1-.13-.71c0-.13-.17-.24-.22-.22a.68.68,0,0,0-.13.95c.16.21.5.22.64.47a.86.86,0,0,1,0,.29.48.48,0,0,0-.21-.22c-.11,0-.26-.1-.27.06s-.23.82-.12,1,.11.84.49,1c1.51.66,3,1.26,4,2.68a12.38,12.38,0,0,1,4.15-.68"/><path class="cls-1" d="M126.36,29.26c.06.06.19,0,.18.09s-.18.07-.27.06-.07-.09-.08-.16.14,0,.16,0"/><path class="cls-1" d="M124.79,31.25c-.09.06-.16.15-.23.1s.08-.12,0-.18-.15-.18-.09-.22a.27.27,0,0,1,.38.06c0,.06.07.15-.07.24"/><path class="cls-2" d="M123.93,28c.06-.06.06-.15.14-.21a1.38,1.38,0,0,1,.34-.08c.13,0,.12-.21.15-.3a19.33,19.33,0,0,1,.42-2,11.48,11.48,0,0,0-.07,1.82c0,.15.28.22.44.29s.19-.14.2-.23a9.54,9.54,0,0,0-.19-3.18,4.51,4.51,0,0,0-.41.28c-1.61.91-1.16,3.47-1,3.64"/><path class="cls-2" d="M126.8,42.84a6.34,6.34,0,0,1-1.7-3.28c0-.16-.07-.22,0-.24.27-.08.11-.38.12-.61a.48.48,0,0,0,.31.26c.12,0,.08-.15.14-.13s-.1.1,0,.18c-.18.12-.34.23-.35.42a3.8,3.8,0,0,0,.66,1.67.83.83,0,0,0,.4.42.18.18,0,0,0,.25-.16,1,1,0,0,0,0-.54,12.29,12.29,0,0,1-.7-1.38c.53.75.9,1.87,1.91,2,.13,0,.19-.23.1-.35-.63-.77-1.1-1.49-1.73-2.24,0,0-.15-.06-.22-.08a5.63,5.63,0,0,0-1.53-.67c0-.07-.09-.12-.06-.13s.27,0,.27-.18.08-.34-.07-.43-.32,0-.48.15-.15,0-.18,0a.5.5,0,0,1-.39.18c-.25,0-.21-.3-.24-.5,0,0-.07-.09-.1-.08a9.72,9.72,0,0,1-1.28.05c-.09,0-.1-.11-.15-.17s0-.08,0-.11a.26.26,0,0,0,.2.12c.18-.05.08-.31.11-.47s.14.13.2.06a6.18,6.18,0,0,0,1-1.43c.39-.69.46-1.14.85-1.84,0,0,0-.14,0-.18,0-.2.19-.37.33-.52-.07,0-.18-.15-.13-.23s.24-.12.22-.16-.17-.16-.16-.24.13-.15.18-.24-.09-.22.08-.33a.13.13,0,0,1,.13,0c.25.15.18.31.1.49s.22,0-.1.5c-.08.12.12.2,0,.47s-.27.28-.32.44a3.85,3.85,0,0,0-.16,1,3.62,3.62,0,0,1-.3,1.19c-.12.3-.41.53-.48.84a.22.22,0,0,0,.27.25c.12,0,.11-.2.19-.29,0,.31,0,.89.43.72.22-.1.09-.49-.07-.7,0,0,.06-.07.07,0a.47.47,0,0,0,.24.26.19.19,0,0,0,.27-.1c.06-.24-.16-.38-.28-.57.05,0,.1,0,.15,0s.11.1.16.12a.34.34,0,0,0,.45-.27c0-.16-.15-.25-.29-.32.15-.15.38-.08.42-.32s-.15-.28-.21-.43c.19,0,.41,0,.45-.24s-.21-.21-.38-.17c0,0,0-.12,0-.14a.87.87,0,0,0,.52-.34,1,1,0,0,0-.56-.27s0-.06,0-.08.09.08.15,0,.06-.09.09-.09c.21,0,.43-.14.44-.29s-.47-.15-.4-.4c0-.08.23-.13.28-.24s-.2-.22-.17-.32.37-.09.44-.28-.15-.19-.29-.28,0-.06,0-.09c.23,0,.46,0,.57-.24,0-.06,0-.13-.07-.19s-.28-.15-.26-.2.53,0,.56-.23-.26-.26-.39-.41c.21,0,.51.12.55-.14s-.32-.15-.43-.36c.33,0,.9,0,1-.4s-.39-.11-.61-.11a.11.11,0,0,0-.06-.13c.35-.1.83-.15.83-.56,0-.17-.23-.25-.38-.23s-.34.42-.67.4a1.9,1.9,0,0,0,.37-.44c.08-.18.21-.31.2-.48s-.2-.06-.32,0-.11.27-.23.39a.17.17,0,0,1-.13,0c-.05-.08,0-.17,0-.25s.05-.41-.1-.4a.45.45,0,0,0-.38.29c-.13-.15,0-.4-.22-.4s-.24.35-.21.58c-.13-.17-.26-.54-.51-.44-.55.24-.36.87-.62,1.35,0-.27,0-.56-.06-.83a.06.06,0,0,0-.09,0c-.56.36-.46,1-.55,1.61a11.84,11.84,0,0,1-.56,2.21,7.58,7.58,0,0,1-1.3,2.1,12.66,12.66,0,0,1-1.32,1,7,7,0,0,0-1.56,1.25c-.18.21-.36.43-.24.69s.18,0,.22-.11a.38.38,0,0,0,.26.16c.28,0,.23-.25.16-.43.12,0,.16.15.26.17.28,0,.27-.24.37-.41a.09.09,0,0,0,.1,0,.78.78,0,0,1-.17.59c-.11.11-.31-.14-.42,0s0,.15,0,.18.33-.15.47-.09-.05.21-.13.24a.3.3,0,0,1-.44-.1c-.25.11-.52,0-.79,0a.46.46,0,0,1-.29-.13c-.52-.48-.52-1.36-.46-1.13s-.19.26-.22.41.21.11.29.32-.11.35,0,.41A.51.51,0,0,1,118,38c-.06.06.07.28,0,.35s-.06.19-.17.23a.61.61,0,0,1,.29.38l7.71,4.88a.44.44,0,0,0,.54,0Z"/><path class="cls-2" d="M126.64,27.23c.35-.39.61-1,1.14-1.21a12.06,12.06,0,0,0-.84,1.24c0,.07-.07.24,0,.26a1.1,1.1,0,0,0,.61-.19c.25-.16.56-.23.67-.4a4.76,4.76,0,0,0,.56-1.28.28.28,0,0,0-.21-.4,2.6,2.6,0,0,0-1.36.37,3.3,3.3,0,0,0-1.18,1.16.36.36,0,0,0,0,.44.34.34,0,0,0,.58,0"/><path class="cls-2" d="M128.3,27.18c-.22.15-.61.09-.66.47,0,.09,0,.22,0,.23a1,1,0,0,1,.5.32c.28-.25.57-.72.4-1,0-.05-.19,0-.27,0"/><path class="cls-2" d="M129,26.63a1.24,1.24,0,0,0-.38.27c.06.05.16.06.19.14.11.25-.22.74,0,.7s.38,0,.49,0a2.81,2.81,0,0,0,.93-1.3c-.39-.24-.84.08-1.22.23"/><path class="cls-2" d="M130.73,28.46c.31-.31.54-.65.46-.82s-.5-.21-.81-.18a1.2,1.2,0,0,0-.85.56c.27,0,.56.07.68.27s-.11.34-.24.49c.21.09.62-.17.76-.32"/><path class="cls-2" d="M128.24,28.37a.19.19,0,0,0,.12.25c.38,0,.65.19,1,.17.13,0,.45-.4.48-.53.07-.29-.45-.26-.72-.25a1,1,0,0,0-.86.37"/><path class="cls-2" d="M129.59,29.23c0-.29-.71-.35-1.13-.4-.2,0-.33.22-.29.27.27.27.49.22.75.47s.7-.18.67-.33"/><path class="cls-2" d="M130.17,28.75c-.19,0-.52-.06-.54.16s.36.21.3.41-.36.33-.57.47.08.33.21.33a3.31,3.31,0,0,0,2-.89,1.6,1.6,0,0,0-1.42-.48"/><path class="cls-2" d="M128.59,29.59a.64.64,0,0,0-.39-.12c-.07,0-.18.21-.12.27.26.22.52.39.76.6.06-.22.35-.11.35-.21,0-.27-.36-.4-.6-.54"/><path class="cls-2" d="M128.51,30.85c.06-.37-.4-.63-.74-.81s-.65.25-.46.34.1.37.56.52c.21.07.61.09.64-.05"/><path class="cls-2" d="M131.46,30.47a.73.73,0,0,0-.7-.39,4.13,4.13,0,0,0-1.06.35c.38.14.45.49.7.59s.61-.18,1.07-.42c0,0,0-.1,0-.14"/><path class="cls-2" d="M130.3,31.42a2.1,2.1,0,0,0-.73-.81c-.16-.07-.34,0-.46-.14,0,0-.09.08-.08.11s.23.25.14.37-.56.09-.74.36a1.61,1.61,0,0,0,1.88.12"/><path class="cls-2" d="M127.17,30.61c-.06.19-.1.4-.22.49s-.08.29-.21.43,0,.1,0,.08c.45-.15.58-.75.65-.52a.73.73,0,0,0-.27-.47"/><path class="cls-2" d="M127.42,31.39s0,.07.05.08a.56.56,0,0,0,.4-.06.28.28,0,0,0,0-.45l-.27-.23c-.09.14.09.26,0,.39s-.15.17-.22.27"/><path class="cls-2" d="M128.53,25c.2.05.45.14.52.28a1,1,0,0,1,0,.92s0,.19,0,.17c.7-.54.78-1.61,1.16-2.44a9.31,9.31,0,0,0,.8-2,3,3,0,0,0-.21-2.09c-.14-.23-.66.56-.8.83a4.35,4.35,0,0,0-.33.64,5.56,5.56,0,0,1-.5,1.22c-.2.36-.45.82-.67,1.16-.4.6-.78.92-1.21,1.47.33,0,.92-.27,1.24-.19"/><path class="cls-2" d="M129.59,26.07c.21.29.56-.1.81.3.13.21,0,.55.09.59.82.29.67-.6.9-1.05.53-1,.88-1.83,1.42-3a6.11,6.11,0,0,0,.72-1.33,5.4,5.4,0,0,0-.12-2.87s-.08-.14-.13-.09A11.32,11.32,0,0,0,132.11,21c-.42.75-.89,1.36-1.24,2.1-.45,1-.81,2-1.28,2.92"/><path class="cls-2" d="M135,23.73a1.22,1.22,0,0,0-.32.5,9.86,9.86,0,0,1-1,2.5,4.42,4.42,0,0,1-.72.89c-.42.43-1.19.57-1.46,1-.07.11.48.28.6.5s-.37.35-.25.67a4.54,4.54,0,0,0,2.22-.92,2.62,2.62,0,0,0,.9-1.61,15.16,15.16,0,0,0,2.35-2.67A10.43,10.43,0,0,0,139,20.94c.06-.23.35-.77.41-1a2.09,2.09,0,0,0-.1-1.05A6.35,6.35,0,0,0,138,20.51c-.86,1.32-2.12,2-3.08,3.22"/><path class="cls-2" d="M137.13,25.35A17.6,17.6,0,0,0,135.37,27a1.12,1.12,0,0,0-.21.33A3.21,3.21,0,0,1,134.05,29a4.28,4.28,0,0,1-2.48,1s-.06.06-.1.1c.15.11.09.42.22.39a10.67,10.67,0,0,0,3.84-1.47c.86-.57,1.24-1.67,2-2.3,1.42-1.14,3.92-2.23,3.84-5.07a1.55,1.55,0,0,0-.48.28c-.62.58-1.43,1.53-2.12,2.05S137.79,24.85,137.13,25.35Z"/><path class="cls-2" d="M138.81,28.61c.2-.12.33-.3.53-.43a3.69,3.69,0,0,0,.84-.89s.12-.21.14-.17A7.77,7.77,0,0,0,141.74,25c0-.06,0-.35-.13-.33a4.18,4.18,0,0,0-1.35.75,15.29,15.29,0,0,0-3.12,2.19,11.61,11.61,0,0,1-2.08,2,6.08,6.08,0,0,1-1.3.61,14.72,14.72,0,0,1-2.07.61c-.06,0-.07.13-.13.2s0,.08.05.08a9.39,9.39,0,0,0,2.47-.25c1-.25,2-.32,3-.64a18,18,0,0,1-5.8,1.16,1.48,1.48,0,0,0-.53.28,1.9,1.9,0,0,0,1.1.19c1.28,0,2.61-.15,3.88-.21-.49.28-1.12.11-1.6.44.52.09.52.68.84.67a9.16,9.16,0,0,0,2.88-.44c.32-.11.64-.22.94-.36a2.35,2.35,0,0,0,1-.74L140,31a.86.86,0,0,0-.92-.19,15.81,15.81,0,0,1-2.14.61.66.66,0,0,1-.4,0,9,9,0,0,0,3-1.33c.57-.46,1.78-1.27,2.07-1.94-.61-.19-1.88.44-2.47.55-.25.05-.51.24-.78.29a1.25,1.25,0,0,1,.43-.4"/><path class="cls-2" d="M136.89,32.84c-.64.12-1.24.1-1.87.18a3,3,0,0,0-1,.45c.16.15.24.4.44.49a2.24,2.24,0,0,0,1.23.09c.28,0,.57,0,.77-.29-.13-.08-.19-.25-.12-.28.33-.12.59-.15.8-.43.08-.11-.13-.24-.19-.23"/><path class="cls-2" d="M133.8,33.23c.24,0,.63-.11.63-.37a.78.78,0,0,0-.7-.69,29.77,29.77,0,0,1-3.41-.28,3.22,3.22,0,0,1-1.45.44,9.38,9.38,0,0,0,4.94.9"/><path class="cls-2" d="M128.68,33.4s-.21-.12-.12-.12a8,8,0,0,1,2.1.53,4.67,4.67,0,0,0,.88.33,4.55,4.55,0,0,0,2.56,0c-.13-.36-.38-.74-.79-.74a9.08,9.08,0,0,1-4.6-1c-.58.11-.34,1.63-.3,1.73.18.39.68.46,1,.74-.4-.11-1.18-.72-1.18,0a1.26,1.26,0,0,0,.22.59A5,5,0,0,0,130.21,37a2.11,2.11,0,0,0,1.58.44c.2-.05.11-.36,0-.5s-.34-.1-.52-.15a6.86,6.86,0,0,1-2.93-1.86c.6.27,1,.77,1.61,1.1a2.58,2.58,0,0,0,2,.48c.26-.07.09-.5-.09-.54s-.49-.19-.73-.27a4.78,4.78,0,0,1-1-.49c.76.16,1.45.63,2.26.45,0-.41-.34-.64-.58-.88a6.88,6.88,0,0,0-3.12-1.37"/><path class="cls-2" d="M134.55,34.16c-.1,0,0,.26-.14.3a3.05,3.05,0,0,1-1.42.08c-.29,0-.55-.06-.84-.1,0,0-.07.06,0,.07s.67.65.5.93-.18.42.08.47.56,0,.61-.2-.16-.55-.33-.74l.46.2a1.27,1.27,0,0,0,.5,0A8.65,8.65,0,0,0,135.3,35C135.26,34.55,135,34.14,134.55,34.16Z"/><path class="cls-2" d="M129.69,36.64c-.52-.39-.9-.87-1.39-1.28-.06.1-.17,0-.23.08s0,.41.06.56a3.41,3.41,0,0,0,1,1.08,6.71,6.71,0,0,0,1.12.7,1.08,1.08,0,0,0,.85.14c.16,0,.13-.29,0-.35-.44-.39-1-.58-1.49-.93"/><path class="cls-2" d="M129,37.2c-.35-.29-.6-.66-1-.93-.06.09-.19,0-.22.08a.73.73,0,0,0,0,.79,4.42,4.42,0,0,0,1.9,1.44c.18.07.52.16.64,0s-.1-.34-.18-.42c-.42-.4-.79-.62-1.23-1"/><path class="cls-2" d="M128.68,38.25c-.42-.31-.68-.71-1.06-1.06,0,0-.11,0-.13,0s-.25.48-.16.61c.49.78,1.31,1.77,2.23,1.75.17,0,.14-.52.06-.62a4.07,4.07,0,0,0-.95-.69"/><path class="cls-2" d="M128.52,39.39c-.48-.56-.93-1-1.42-1.56-.08-.1-.32-.18-.39-.07a.53.53,0,0,0,0,.54,7.49,7.49,0,0,0,1.93,1.9.28.28,0,0,0,.32,0c.31-.27-.21-.5-.43-.77"/><path class="cls-2" d="M127.48,39.45a11.22,11.22,0,0,1-.88-1c-.06-.09-.37,0-.33.08a8.15,8.15,0,0,0,1.75,2.2c.05.05.23.05.3,0s.1-.28,0-.36c-.33-.33-.56-.62-.88-1"/><path class="cls-2" d="M127.79,31.89c-.36,0-.32-.14-.65-.13-.16,0-.38-.08-.46.08s-.15.41-.24.46,0,.72,0,.78a1.19,1.19,0,0,0,1,.56c.15,0,.43,0,.52-.17s0-.22-.19-.24l0,0c.15-.09.06-.35,0-.46-.13-.31-.49,0-.71-.26.35,0,.74,0,.94-.23S128,31.89,127.79,31.89Z"/><path class="cls-2" d="M127.79,35.09c.2-.08.06-.31,0-.41s-.55-.09-.81-.24c-.12-.07-.27-.1-.35-.22s-.22-.14-.13-.12c.42,0,.89.42,1.29.13.08-.06.1-.3-.06-.33a2.18,2.18,0,0,1-.79-.23,3.14,3.14,0,0,1-.49-.4c-.12-.11-.32,0-.29.1s-.15.58-.13.6-.06.33,0,.45.13.24.26.28a4.4,4.4,0,0,0,.51.25c.33.07.64.27,1,.15"/><path class="cls-2" d="M127.57,35.72c-.21-.24-.56-.15-.85-.3a3.93,3.93,0,0,1-.74-.57c-.15-.14-.22.23-.13.36-.21-.28,1.45.79,1.5.81.23,0,.32-.17.21-.3"/><path class="cls-2" d="M127.39,36.51c.27-.4-.35-.52-.69-.63s-.58-.44-.87-.64c-.07,0-.09.07-.14.1.29.24,0,.4.07.56.3.48,1.35,1,1.63.61"/><path class="cls-2" d="M126.89,36.9c-.08-.15-.26-.13-.42-.2a1.77,1.77,0,0,1-.72-.59c-.14-.18-.49,0-.46,0a2.32,2.32,0,0,0,1.65,1.09c.15,0,0-.21-.05-.31"/><path class="cls-2" d="M125.19,36.66c-.23.18-.31,0-.38.09-.35.6.74,1.29,1.17,1.42.27.1.38-.22.3-.45s-.82-1.29-1.09-1.07"/><path class="cls-2" d="M131.34,27.14a.89.89,0,0,1-.16,1.2s0,.1,0,.08a5.56,5.56,0,0,0,1.49-1.06,3.79,3.79,0,0,0,.62-.72A9.23,9.23,0,0,0,134.2,25a2.16,2.16,0,0,0,.17-.69,1.29,1.29,0,0,1,.21-.62,5.77,5.77,0,0,0,1.45-2c.36-1.24.72-3.17,0-4.3a.9.9,0,0,0-.27.32c-.22.4-.51,1.29-.67,1.7a8.1,8.1,0,0,1-1.29,2.27,4.24,4.24,0,0,0-.64,1c-.7,1.47-1.25,2.94-1.82,4.43"/><path class="cls-2" d="M123.4,36.71c-.06.07-.18.13-.15.21s0,.57.22.59.17-1,.2-.57c0-.16-.2-.13-.26-.23"/><path class="cls-1" d="M121,37.89a.39.39,0,0,0,.28-.22s0-.06,0-.09,0-.09,0-.08c.19.11.3-.06.35-.18,0,0,0,.1,0,.14s.19.14.19.23a.25.25,0,0,1-.36.22c-.07.4-.55.45-.93.39,0,0-.12.1-.18.12a.46.46,0,0,1-.54-.11c-.09-.13,0-.2.11-.3a.08.08,0,0,0,.06.09.14.14,0,0,0,.14,0,1,1,0,0,0,.21-.29c0-.08.14.09.23.11a1.38,1.38,0,0,0,.44,0"/></g></g></svg>