<?xml version="1.0" encoding="UTF-8"?>
<svg width="100px" height="64px" viewBox="0 0 100 64" version="1.1" xmlns="http://www.w3.org/2000/svg" xmlns:xlink="http://www.w3.org/1999/xlink">
    <!-- Generator: Sketch 50.2 (55047) - http://www.bohemiancoding.com/sketch -->
    <title>VCL-icon-color</title>
    <desc>Created with Sketch.</desc>
    <defs></defs>
    <g id="VCL-icon-color" stroke="none" stroke-width="1" fill="none" fill-rule="evenodd">
        <path d="M62,14 C58.6862915,14 56,11.3137085 56,8 C56,4.6862915 58.6862915,2 62,2 C65.3137085,2 68,4.6862915 68,8 C68,11.3137085 65.3137085,14 62,14 Z M78,14 C74.6862915,14 72,11.3137085 72,8 C72,4.6862915 74.6862915,2 78,2 C81.3137085,2 84,4.6862915 84,8 C84,11.3137085 81.3137085,14 78,14 Z M94,14 C90.6862915,14 88,11.3137085 88,8 C88,4.6862915 90.6862915,2 94,2 C97.3137085,2 100,4.6862915 100,8 C100,11.3137085 97.3137085,14 94,14 Z M62,30 C58.6862915,30 56,27.3137085 56,24 C56,20.6862915 58.6862915,18 62,18 C65.3137085,18 68,20.6862915 68,24 C68,27.3137085 65.3137085,30 62,30 Z M78,30 C74.6862915,30 72,27.3137085 72,24 C72,20.6862915 74.6862915,18 78,18 C81.3137085,18 84,20.6862915 84,24 C84,27.3137085 81.3137085,30 78,30 Z M94,30 C90.6862915,30 88,27.3137085 88,24 C88,20.6862915 90.6862915,18 94,18 C97.3137085,18 100,20.6862915 100,24 C100,27.3137085 97.3137085,30 94,30 Z M62,46 C58.6862915,46 56,43.3137085 56,40 C56,36.6862915 58.6862915,34 62,34 C65.3137085,34 68,36.6862915 68,40 C68,43.3137085 65.3137085,46 62,46 Z M78,46 C74.6862915,46 72,43.3137085 72,40 C72,36.6862915 74.6862915,34 78,34 C81.3137085,34 84,36.6862915 84,40 C84,43.3137085 81.3137085,46 78,46 Z M94,46 C90.6862915,46 88,43.3137085 88,40 C88,36.6862915 90.6862915,34 94,34 C97.3137085,34 100,36.6862915 100,40 C100,43.3137085 97.3137085,46 94,46 Z" id="Combined-Shape" fill="#C4252D"></path>
        <path d="M45,50 L33,64 L31,64 L31,50 L4,50 C1.790861,50 0,48.209139 0,46 L0,4 C0,1.790861 1.790861,0 4,0 L46,0 C48.209139,0 50,1.790861 50,4 L50,46 C50,48.209139 48.209139,50 46,50 L45,50 Z M25,32.7217391 L34.8666667,40 L31.1333333,28.1391304 L41,21.1304348 L29,21.1304348 L25,9 L21,21.1304348 L9,21.1304348 L18.8666667,28.1391304 L15.1333333,40 L25,32.7217391 Z" id="Combined-Shape" fill="#174170"></path>
    </g>
</svg>