<?xml version="1.0" encoding="utf-8"?>
<!-- Generated by IcoMoon.io -->
<!DOCTYPE svg PUBLIC "-//W3C//DTD SVG 1.1//EN" "http://www.w3.org/Graphics/SVG/1.1/DTD/svg11.dtd">
<svg version="1.1" xmlns="http://www.w3.org/2000/svg" xmlns:xlink="http://www.w3.org/1999/xlink" width="32" height="32" viewBox="0 0 32 32">
<path fill="#444444" d="M4.586 7.414l16.586 16.586h-7.171c-1.105 0-2 0.895-2 2s0.895 2 2 2h12c0.809 0 1.538-0.487 1.848-1.235 0.103-0.248 0.151-0.508 0.151-0.765h0.001v-12c0-1.105-0.895-2-2-2s-2 0.895-2 2v7.172l-16.586-16.586c-0.391-0.391-0.902-0.586-1.414-0.586s-1.024 0.195-1.414 0.586c-0.781 0.781-0.781 2.047 0 2.828z"></path>
</svg>
