<?xml version="1.0" encoding="utf-8"?>
<!-- Generated by IcoMoon.io -->
<!DOCTYPE svg PUBLIC "-//W3C//DTD SVG 1.1//EN" "http://www.w3.org/Graphics/SVG/1.1/DTD/svg11.dtd">
<svg version="1.1" xmlns="http://www.w3.org/2000/svg" xmlns:xlink="http://www.w3.org/1999/xlink" width="32" height="32" viewBox="0 0 32 32">
<path fill="#444444" d="M16 0c-8.837 0-16 7.163-16 16s7.163 16 16 16 16-7.163 16-16-7.163-16-16-16zM10 23c0 0.552-0.448 1-1 1s-1-0.448-1-1v-2c0-0.552 0.448-1 1-1s1 0.448 1 1v2zM10 17c0 0.552-0.448 1-1 1s-1-0.448-1-1v-2c0-0.552 0.448-1 1-1s1 0.448 1 1v2zM11 12h-4c-0.552 0-1-0.448-1-1s0.448-1 1-1h4c0.552 0 1 0.448 1 1s-0.448 1-1 1zM19.707 26.457c-0.195 0.195-0.451 0.293-0.707 0.293s-0.512-0.098-0.707-0.293c-0.143-0.143-0.919-0.457-2.293-0.457s-2.15 0.314-2.293 0.457c-0.39 0.39-1.024 0.39-1.414 0s-0.391-1.024 0-1.414c0.941-0.941 2.906-1.043 3.707-1.043s2.766 0.102 3.707 1.043c0.391 0.39 0.391 1.024 0 1.414zM24 23c0 0.552-0.448 1-1 1s-1-0.448-1-1v-2c0-0.552 0.448-1 1-1s1 0.448 1 1v2zM24 17c0 0.552-0.448 1-1 1s-1-0.448-1-1v-2c0-0.552 0.448-1 1-1s1 0.448 1 1v2zM25 12h-4c-0.552 0-1-0.448-1-1s0.448-1 1-1h4c0.552 0 1 0.448 1 1s-0.448 1-1 1z"></path>
</svg>
