<?xml version="1.0" encoding="utf-8"?>
<!-- Generated by IcoMoon.io -->
<!DOCTYPE svg PUBLIC "-//W3C//DTD SVG 1.1//EN" "http://www.w3.org/Graphics/SVG/1.1/DTD/svg11.dtd">
<svg version="1.1" xmlns="http://www.w3.org/2000/svg" xmlns:xlink="http://www.w3.org/1999/xlink" width="32" height="32" viewBox="0 0 32 32">
<path fill="#444444" d="M16.836 16.123c-6.167 1.994-9.449 7.427-9.72 7.891-1.91-2.12-3.074-4.924-3.074-7.996 0-0.122 0.002-0.244 0.006-0.366 0.523 0.011 6.318 0.085 12.29-1.702 0.342 0.67 0.669 1.35 0.97 2.029-0.158 0.045-0.315 0.092-0.471 0.142zM23.927 7.073c-0.215 0.306-2.015 2.726-6.267 4.32-1.96-3.6-4.131-6.558-4.462-7 0.899-0.217 1.837-0.332 2.802-0.332 3.038 0 5.815 1.14 7.927 3.013zM15.35 12.112c-5.594 1.485-10.52 1.464-11.055 1.457 0.775-3.711 3.276-6.795 6.622-8.373 0.315 0.432 2.452 3.394 4.434 6.916zM18.041 17.984c0.026-0.009 0.052-0.018 0.079-0.027 1.679 4.363 2.373 8.019 2.551 9.068-1.436 0.611-3.015 0.95-4.671 0.95-2.764 0-5.313-0.943-7.34-2.524 0.215-0.44 2.636-5.117 9.381-7.468zM26.625 0h-21.25c-2.956 0-5.375 2.419-5.375 5.375v21.25c0 2.956 2.419 5.375 5.375 5.375h21.25c2.956 0 5.375-2.419 5.375-5.375v-21.25c0-2.956-2.419-5.375-5.375-5.375zM16 30c-7.72 0-14-6.28-14-14s6.28-14 14-14c7.72 0 14 6.28 14 14s-6.28 14-14 14zM20.358 17.405c3.747-0.6 7.040 0.382 7.449 0.511-0.533 3.327-2.443 6.201-5.126 8.015-0.123-0.727-0.759-4.228-2.323-8.526zM18.579 13.171c4.421-1.805 6.425-4.374 6.677-4.715 1.665 2.035 2.674 4.627 2.7 7.449-0.394-0.083-4.348-0.885-8.327-0.385-0.084-0.205-0.17-0.41-0.258-0.617-0.248-0.583-0.515-1.162-0.793-1.732z"></path>
</svg>
