<?xml version="1.0" encoding="utf-8"?>
<!-- Generated by IcoMoon.io -->
<!DOCTYPE svg PUBLIC "-//W3C//DTD SVG 1.1//EN" "http://www.w3.org/Graphics/SVG/1.1/DTD/svg11.dtd">
<svg version="1.1" xmlns="http://www.w3.org/2000/svg" xmlns:xlink="http://www.w3.org/1999/xlink" width="32" height="32" viewBox="0 0 32 32">
<path fill="#444444" d="M16 32c-8.822 0-16-7.178-16-16s7.178-16 16-16c8.823 0 16 7.178 16 16s-7.177 16-16 16zM29.494 18.19c-0.468-0.148-4.23-1.27-8.513-0.584 1.788 4.912 2.515 8.913 2.655 9.744 3.066-2.073 5.249-5.357 5.858-9.16zM21.338 28.601c-0.203-1.199-0.997-5.378-2.916-10.364-0.030 0.010-0.060 0.020-0.090 0.030-7.708 2.686-10.476 8.032-10.721 8.534 2.317 1.807 5.229 2.885 8.389 2.885 1.893 0 3.697-0.387 5.338-1.086zM5.847 25.159c0.31-0.53 4.060-6.74 11.109-9.019 0.178-0.058 0.358-0.112 0.539-0.162-0.343-0.776-0.717-1.554-1.108-2.319-6.825 2.043-13.448 1.957-14.046 1.945-0.004 0.139-0.007 0.278-0.007 0.418 0 3.51 1.331 6.715 3.513 9.138zM2.622 13.222c0.611 0.008 6.242 0.033 12.634-1.665-2.264-4.025-4.707-7.41-5.067-7.904-3.823 1.803-6.681 5.328-7.567 9.569zM12.797 2.734c0.378 0.506 2.86 3.886 5.099 8 4.86-1.821 6.917-4.587 7.163-4.937-2.413-2.141-5.587-3.444-9.059-3.444-1.103 0-2.175 0.132-3.203 0.38zM26.579 7.378c-0.288 0.39-2.578 3.326-7.631 5.389 0.318 0.651 0.623 1.313 0.907 1.979 0.101 0.236 0.199 0.471 0.294 0.705 4.547-0.572 9.066 0.345 9.516 0.44-0.030-3.226-1.183-6.188-3.086-8.513z"></path>
</svg>
