<?xml version="1.0" encoding="utf-8"?>
<!-- Generated by IcoMoon.io -->
<!DOCTYPE svg PUBLIC "-//W3C//DTD SVG 1.1//EN" "http://www.w3.org/Graphics/SVG/1.1/DTD/svg11.dtd">
<svg version="1.1" xmlns="http://www.w3.org/2000/svg" xmlns:xlink="http://www.w3.org/1999/xlink" width="32" height="32" viewBox="0 0 32 32">
<path fill="#444444" d="M16 0c-8.837 0-16 7.163-16 16s7.163 16 16 16 16-7.163 16-16-7.163-16-16-16zM25.77 18.425c-1.15 4.46-5.167 7.575-9.77 7.575s-8.62-3.115-9.77-7.576c-0.195-0.755 0.261-1.528 1.016-1.723 0.116-0.030 0.235-0.045 0.354-0.045 0.644 0 1.207 0.437 1.368 1.062 0.829 3.211 3.72 5.453 7.032 5.453s6.203-2.242 7.031-5.453c0.161-0.625 0.723-1.062 1.368-1.062 0.119 0 0.239 0.015 0.355 0.046 0.365 0.094 0.673 0.326 0.865 0.651s0.245 0.706 0.151 1.072z"></path>
</svg>
