<?xml version="1.0" encoding="utf-8"?>
<!-- Generator: Adobe Illustrator 19.2.1, SVG Export Plug-In . SVG Version: 6.00 Build 0)  -->
<svg version="1.1" id="Layer_1" xmlns="http://www.w3.org/2000/svg" xmlns:xlink="http://www.w3.org/1999/xlink" x="0px" y="0px"
	 viewBox="0 0 300 300" style="enable-background:new 0 0 300 300;" xml:space="preserve">
<g>
	<path d="M293.5,78.5c4.8,6.8,5.8,14.4,3.2,23l-49,161.6c-2.3,7.6-6.8,14-13.6,19.2c-6.8,5.2-14.1,7.8-21.8,7.8H47.6
		c-9.2,0-18-3.2-26.5-9.5c-8.5-6.4-14.4-14.2-17.7-23.5c-2.9-8-3-15.5-0.4-22.7c0-0.5,0.2-2.1,0.5-4.8c0.4-2.7,0.6-4.9,0.7-6.6
		c0.1-1-0.1-2.2-0.5-3.8c-0.5-1.6-0.7-2.8-0.5-3.5c0.2-1.3,0.7-2.6,1.4-3.7c0.7-1.2,1.7-2.6,2.9-4.2c1.2-1.6,2.2-3,2.9-4.2
		c2.7-4.5,5.4-10,8-16.3c2.6-6.4,4.4-11.8,5.4-16.3c0.4-1.2,0.4-3,0.1-5.4c-0.3-2.4-0.3-4-0.1-5c0.4-1.3,1.4-3,3-5
		c1.7-2,2.7-3.4,3-4.1c2.5-4.3,5-9.7,7.5-16.4c2.5-6.7,4-12,4.5-16.1c0.1-1.1,0-3-0.4-5.7c-0.4-2.7-0.4-4.4,0.1-5
		c0.5-1.5,1.8-3.4,3.9-5.4c2.1-2.1,3.4-3.4,3.9-4c2.3-3.1,4.8-8.1,7.6-15.1c2.8-7,4.4-12.7,4.9-17.2c0.1-1-0.1-2.5-0.5-4.5
		c-0.5-2.1-0.6-3.7-0.4-4.7c0.2-1,0.8-2,1.6-3.2c0.8-1.2,1.9-2.6,3.2-4.1c1.3-1.5,2.3-2.8,3-3.7c1-1.4,1.9-3.2,2.9-5.4
		c1-2.2,1.9-4.3,2.7-6.2c0.8-2,1.7-4.1,2.9-6.4c1.1-2.3,2.3-4.2,3.5-5.7c1.2-1.5,2.8-2.9,4.7-4.2c2-1.3,4.1-2,6.4-2.1
		c2.3-0.1,5.1,0.3,8.5,1l-0.2,0.5c4.5-1.1,7.5-1.6,9.1-1.6H245c8.8,0,15.6,3.3,20.3,10c4.8,6.7,5.8,14.4,3.2,23.2l-48.9,161.6
		c-4.3,14.2-8.5,23.3-12.8,27.4c-4.2,4.1-11.9,6.2-22.9,6.2H29c-3.2,0-5.5,0.9-6.8,2.7c-1.3,1.9-1.4,4.5-0.2,7.7
		c2.9,8.3,11.4,12.5,25.7,12.5h164.6c3.4,0,6.8-0.9,10-2.8c3.2-1.8,5.3-4.3,6.2-7.4l53.5-176c0.8-2.6,1.1-6,0.9-10.2
		C287.5,72.6,291,75.2,293.5,78.5z M88.9,124.5c-0.5,1.5-0.4,2.9,0.4,4c0.7,1.1,1.9,1.7,3.6,1.7h108.4c1.5,0,3.1-0.6,4.5-1.7
		c1.5-1.1,2.5-2.5,2.9-4l3.7-11.4c0.5-1.5,0.4-2.9-0.4-4c-0.7-1.1-1.9-1.7-3.6-1.7H100.2c-1.5,0-3.1,0.6-4.5,1.7
		c-1.5,1.1-2.5,2.5-2.9,4L88.9,124.5z M103.7,78.9c-0.5,1.5-0.4,2.9,0.4,4c0.7,1.1,1.9,1.7,3.6,1.7h108.4c1.5,0,3.1-0.6,4.5-1.7
		c1.5-1.1,2.5-2.5,2.9-4l3.7-11.4c0.5-1.5,0.4-2.9-0.4-4c-0.7-1.1-1.9-1.7-3.6-1.7H115c-1.5,0-3.1,0.6-4.5,1.7
		c-1.5,1.1-2.5,2.5-2.9,4L103.7,78.9z"/>
</g>
</svg>
