<svg id="svg-close-icon" class="va-icon-close" xmlns="http://www.w3.org/2000/svg" viewBox="0 0 284.00052 284" width="20" height="20"><title>Close this dialog</title><path d="M293.00026,237.96771a22.13476,22.13476,0,0,1-6.69361,16.255l-32.51213,32.51213a23.08649,23.08649,0,0,1-32.51213,0l-70.28292-70.28292L80.71656,286.73486a22.14476,22.14476,0,0,1-16.25606,6.69361,22.13071,22.13071,0,0,1-16.255-6.69361L15.69335,254.22273a23.08522,23.08522,0,0,1,0-32.51108l70.28292-70.28292L15.69335,81.14581A22.12093,22.12093,0,0,1,8.99974,64.88974a22.13262,22.13262,0,0,1,6.69361-16.25606l32.51213-32.5116a22.13273,22.13273,0,0,1,16.255-6.69361,22.14678,22.14678,0,0,1,16.25606,6.69361L150.99948,86.405,221.2824,16.12208a23.08649,23.08649,0,0,1,32.51213,0l32.51213,32.5116a22.14881,22.14881,0,0,1,6.69361,16.25606,22.1371,22.1371,0,0,1-6.69361,16.25606l-70.28292,70.28292,70.28292,70.28292A22.14714,22.14714,0,0,1,293.00026,237.96771Z" transform="translate(-8.99974 -9.42847)"/></svg>