<?xml version="1.0" encoding="utf-8"?>
<!-- Generator: Adobe Illustrator 19.2.1, SVG Export Plug-In . SVG Version: 6.00 Build 0)  -->
<svg version="1.1" id="Layer_1" xmlns="http://www.w3.org/2000/svg" xmlns:xlink="http://www.w3.org/1999/xlink" x="0px" y="0px"
	 viewBox="0 0 300 300" style="enable-background:new 0 0 300 300;" xml:space="preserve">
<g>
	<path d="M272,79.3c12.6,21.7,19,45.3,19,71c0,25.7-6.3,49.3-19,71c-12.6,21.7-29.8,38.8-51.5,51.5c-21.7,12.6-45.3,19-71,19
		c-25.7,0-49.3-6.3-71-19c-21.7-12.6-38.8-29.8-51.5-51.5c-12.6-21.7-19-45.3-19-71c0-25.7,6.3-49.3,19-71
		c12.6-21.7,29.8-38.8,51.5-51.5c21.7-12.6,45.3-19,71-19c25.7,0,49.3,6.3,71,19C242.2,40.5,259.4,57.7,272,79.3z M236.3,200.6
		c9-15.3,13.4-32.1,13.4-50.3c0-18.2-4.5-34.9-13.4-50.3c-9-15.3-21.1-27.5-36.5-36.5c-15.3-9-32.1-13.4-50.3-13.4
		c-18.2,0-34.9,4.5-50.3,13.4c-15.3,9-27.5,21.1-36.5,36.5c-9,15.3-13.4,32.1-13.4,50.3c0,18.2,4.5,34.9,13.4,50.3
		c9,15.3,21.1,27.5,36.5,36.5c15.3,9,32.1,13.4,50.3,13.4c18.2,0,34.9-4.5,50.3-13.4C215.2,228.1,227.3,215.9,236.3,200.6z
		 M173.1,85.5V168c0,1.7-0.6,3.1-1.7,4.2c-1.1,1.1-2.5,1.7-4.2,1.7h-58.9c-1.7,0-3.1-0.6-4.2-1.7c-1.1-1.1-1.7-2.5-1.7-4.2v-11.8
		c0-1.7,0.6-3.1,1.7-4.2c1.1-1.1,2.5-1.7,4.2-1.7h41.2V85.5c0-1.7,0.6-3.1,1.7-4.2s2.5-1.7,4.2-1.7h11.8c1.7,0,3.1,0.6,4.2,1.7
		C172.6,82.4,173.1,83.8,173.1,85.5z"/>
</g>
</svg>
