<?xml version="1.0" encoding="utf-8"?>
<!-- Generator: Adobe Illustrator 19.2.1, SVG Export Plug-In . SVG Version: 6.00 Build 0)  -->
<svg version="1.1" id="Layer_1" xmlns="http://www.w3.org/2000/svg" xmlns:xlink="http://www.w3.org/1999/xlink" x="0px" y="0px"
	 viewBox="0 0 300 300" style="enable-background:new 0 0 300 300;" xml:space="preserve">
<g>
	<path d="M297.9,104.4v124.8c0,10.9-3.9,20.2-11.7,28c-7.8,7.8-17.1,11.7-28,11.7H42.7c-10.9,0-20.2-3.9-28-11.7
		c-7.8-7.8-11.7-17.1-11.7-28V59c0-10.9,3.9-20.2,11.7-28s17.1-11.7,28-11.7h56.7c10.9,0,20.2,3.9,28,11.7
		c7.8,7.8,11.7,17.1,11.7,28v5.7h119.1c10.9,0,20.2,3.9,28,11.7C294,84.2,297.9,93.5,297.9,104.4z"/>
</g>
</svg>
