<?xml version="1.0" encoding="utf-8"?>
<!-- Generator: Adobe Illustrator 19.2.1, SVG Export Plug-In . SVG Version: 6.00 Build 0)  -->
<svg version="1.1" id="Layer_1" xmlns="http://www.w3.org/2000/svg" xmlns:xlink="http://www.w3.org/1999/xlink" x="0px" y="0px"
	 viewBox="0 0 300 300" style="enable-background:new 0 0 300 300;" xml:space="preserve">
<g>
	<path d="M272.1,64.7c3.1,3.1,5.7,7.3,8,12.6c2.2,5.3,3.3,10.2,3.3,14.6v190.9c0,4.4-1.5,8.2-4.6,11.3c-3.1,3.1-6.9,4.6-11.3,4.6
		H44.8c-4.4,0-8.2-1.5-11.3-4.6c-3.1-3.1-4.6-6.9-4.6-11.3V17.7c0-4.4,1.5-8.2,4.6-11.3c3.1-3.1,6.8-4.6,11.3-4.6h148.5
		c4.4,0,9.3,1.1,14.6,3.3c5.3,2.2,9.5,4.9,12.6,8L272.1,64.7z M262.2,277.5V107.8h-68.9c-4.4,0-8.2-1.5-11.3-4.6
		c-3.1-3.1-4.6-6.8-4.6-11.3V23H50.1v254.6H262.2z M92.5,134.3c0-1.5,0.5-2.8,1.5-3.8c1-1,2.3-1.5,3.8-1.5h116.7
		c1.5,0,2.8,0.5,3.8,1.5c1,1,1.5,2.3,1.5,3.8V145c0,1.5-0.5,2.8-1.5,3.8c-1,1-2.3,1.5-3.8,1.5H97.8c-1.5,0-2.8-0.5-3.8-1.5
		c-1-1-1.5-2.3-1.5-3.8V134.3z M214.5,171.5c1.5,0,2.8,0.5,3.8,1.5c1,1,1.5,2.3,1.5,3.8v10.6c0,1.5-0.5,2.8-1.5,3.8
		c-1,1-2.3,1.5-3.8,1.5H97.8c-1.5,0-2.8-0.5-3.8-1.5c-1-1-1.5-2.3-1.5-3.8v-10.6c0-1.5,0.5-2.8,1.5-3.8c1-1,2.3-1.5,3.8-1.5H214.5z
		 M214.5,213.9c1.5,0,2.8,0.5,3.8,1.5c1,1,1.5,2.3,1.5,3.8v10.6c0,1.5-0.5,2.8-1.5,3.8c-1,1-2.3,1.5-3.8,1.5H97.8
		c-1.5,0-2.8-0.5-3.8-1.5c-1-1-1.5-2.3-1.5-3.8v-10.6c0-1.5,0.5-2.8,1.5-3.8c1-1,2.3-1.5,3.8-1.5H214.5z M198.6,24.3v62.3h62.3
		c-1.1-3.2-2.3-5.5-3.6-6.8l-51.9-51.9C204,26.6,201.8,25.4,198.6,24.3z"/>
</g>
</svg>
