<?xml version="1.0" encoding="utf-8"?>
<!-- Generator: Adobe Illustrator 19.2.1, SVG Export Plug-In . SVG Version: 6.00 Build 0)  -->
<svg version="1.1" id="Layer_1" xmlns="http://www.w3.org/2000/svg" xmlns:xlink="http://www.w3.org/1999/xlink" x="0px" y="0px"
	 viewBox="0 0 300 300" style="enable-background:new 0 0 300 300;" xml:space="preserve">
<g>
	<path d="M183.6,168.5L60.7,291.3c-4.4,4.4-9.8,6.7-16.2,6.7c-6.2,0-11.7-2.2-16.4-6.7L9,271.9c-4.6-4.3-6.8-9.7-6.8-16.2
		c0-6.4,2.3-11.8,6.8-16.4l122.7-122.7c4.7,11.8,11.6,22.2,20.6,31.3C161.4,156.9,171.8,163.8,183.6,168.5z M64.2,252.2
		c2.3-2.3,3.4-5,3.4-8.1c0-3.1-1.1-5.8-3.4-8.1c-2.3-2.3-5-3.4-8.1-3.4c-3.1,0-5.8,1.1-8.1,3.4c-2.3,2.3-3.4,5-3.4,8.1
		c0,3.1,1.1,5.8,3.4,8.1c2.3,2.3,5,3.4,8.1,3.4C59.2,255.7,61.9,254.5,64.2,252.2z M297.8,90.1c0,4.7-1.4,11.1-4.1,19.1
		c-5.6,16.1-15.5,29.2-29.6,39.2c-14.1,10-29.6,15-46.6,15c-22.2,0-41.2-7.9-57-23.7c-15.8-15.8-23.7-34.8-23.7-57
		c0-22.2,7.9-41.2,23.7-57C176.2,9.9,195.2,2,217.5,2c7,0,14.3,1,21.9,3c7.6,2,14.1,4.8,19.4,8.4c1.9,1.3,2.9,3,2.9,5
		c0,2-1,3.7-2.9,5l-52.8,30.4v40.4l34.8,19.3c0.6-0.4,5.3-3.3,14.2-8.7c8.9-5.5,17-10.3,24.4-14.6c7.4-4.3,11.6-6.4,12.7-6.4
		c1.8,0,3.2,0.6,4.2,1.8C297.3,86.8,297.8,88.3,297.8,90.1z"/>
</g>
</svg>
