<?xml version="1.0" encoding="utf-8"?>
<!-- Generated by IcoMoon.io -->
<!DOCTYPE svg PUBLIC "-//W3C//DTD SVG 1.1//EN" "http://www.w3.org/Graphics/SVG/1.1/DTD/svg11.dtd">
<svg version="1.1" xmlns="http://www.w3.org/2000/svg" xmlns:xlink="http://www.w3.org/1999/xlink" width="32" height="32" viewBox="0 0 32 32">
<path fill="#444444" d="M26.668 0h-21.334c-2.934 0-5.334 2.4-5.334 5.334v21.332c0 2.936 2.4 5.334 5.334 5.334h21.334c2.934 0 5.332-2.399 5.332-5.334v-21.332c0-2.933-2.399-5.334-5.332-5.334zM9 21c-2.761 0-5-2.239-5-5s2.239-5 5-5 5 2.239 5 5c0 2.761-2.239 5-5 5zM23 21c-2.761 0-5-2.239-5-5s2.239-5 5-5 5 2.239 5 5c0 2.761-2.239 5-5 5z"></path>
</svg>
