<?xml version="1.0" encoding="utf-8"?>
<!-- Generated by IcoMoon.io -->
<!DOCTYPE svg PUBLIC "-//W3C//DTD SVG 1.1//EN" "http://www.w3.org/Graphics/SVG/1.1/DTD/svg11.dtd">
<svg version="1.1" xmlns="http://www.w3.org/2000/svg" xmlns:xlink="http://www.w3.org/1999/xlink" width="32" height="32" viewBox="0 0 32 32">
<path fill="#444444" d="M24.987 0.506c-2.829 0-4.644-0.506-7.558-0.506-9.415 0-13.806 5.362-13.806 10.809 0 3.209 1.52 4.264 4.518 4.264-0.211-0.464-0.591-0.971-0.591-3.251 0-6.375 2.406-8.233 5.489-8.36 0 0-2.529 24.793-9.868 27.767v0.771h9.894l3.376-16h6.183l1.377-4h-6.716l1.623-7.693c1.858 0.38 3.673 0.76 5.235 0.76 1.942 0 3.715-0.591 4.686-5.066-1.182 0.38-2.449 0.506-3.842 0.506z"></path>
</svg>
