<?xml version="1.0" encoding="utf-8"?>
<!-- Generated by IcoMoon.io -->
<!DOCTYPE svg PUBLIC "-//W3C//DTD SVG 1.1//EN" "http://www.w3.org/Graphics/SVG/1.1/DTD/svg11.dtd">
<svg version="1.1" xmlns="http://www.w3.org/2000/svg" xmlns:xlink="http://www.w3.org/1999/xlink" width="32" height="32" viewBox="0 0 32 32">
<path fill="#444444" d="M11.447 8.856c-1.086-0.543-2.159-0.814-2.205-0.826-0.536-0.134-1.079 0.192-1.213 0.728s0.192 1.079 0.728 1.213c0.551 0.139 1.204 0.379 1.779 0.667-0.333 0.357-0.537 0.836-0.537 1.363 0 1.105 0.895 2 2 2s2-0.895 2-2c0-0.037-0.001-0.073-0.003-0.109-0.063-1.483-1.413-2.467-2.55-3.036z"></path>
<path fill="#444444" d="M16 0c-8.837 0-16 7.163-16 16s7.163 16 16 16 16-7.163 16-16-7.163-16-16-16zM7.391 25.739c0.335 0.166 0.711 0.261 1.109 0.261h15c0.398 0 0.775-0.094 1.109-0.261-2.293 2.029-5.307 3.261-8.609 3.261s-6.316-1.232-8.609-3.261zM8 23.5v-3c0-0.271 0.229-0.5 0.5-0.5h3.5v4h-3.5c-0.271 0-0.5-0.229-0.5-0.5zM14 24v-4h4v4h-4zM20 24v-4h3.5c0.271 0 0.5 0.229 0.5 0.5v3c0 0.271-0.229 0.5-0.5 0.5h-3.5zM25.739 24.609c0.166-0.335 0.261-0.711 0.261-1.109v-3c0-1.378-1.122-2.5-2.5-2.5h-15c-1.378 0-2.5 1.122-2.5 2.5v3c0 0.398 0.094 0.775 0.261 1.109-2.029-2.293-3.26-5.307-3.26-8.609 0-7.18 5.82-13 13-13s13 5.82 13 13c0 3.302-1.232 6.316-3.261 8.609z"></path>
<path fill="#444444" d="M22.757 8.030c-0.045 0.011-1.119 0.283-2.205 0.826-1.137 0.569-2.486 1.553-2.55 3.036-0.002 0.036-0.003 0.072-0.003 0.109 0 1.105 0.895 2 2 2s2-0.895 2-2c0-0.527-0.204-1.005-0.537-1.363 0.575-0.288 1.228-0.528 1.779-0.667 0.536-0.134 0.861-0.677 0.728-1.213s-0.677-0.862-1.213-0.728z"></path>
</svg>
