<?xml version="1.0" encoding="utf-8"?>
<!-- Generated by IcoMoon.io -->
<!DOCTYPE svg PUBLIC "-//W3C//DTD SVG 1.1//EN" "http://www.w3.org/Graphics/SVG/1.1/DTD/svg11.dtd">
<svg version="1.1" xmlns="http://www.w3.org/2000/svg" xmlns:xlink="http://www.w3.org/1999/xlink" width="32" height="32" viewBox="0 0 32 32">
<path fill="#444444" d="M16 25.997c-0.599 0-1.197-0.31-1.817-0.93-0.244-0.244-0.244-0.64 0-0.884s0.64-0.244 0.884 0c0.381 0.382 0.687 0.567 0.933 0.567s0.552-0.185 0.933-0.567c0.244-0.244 0.64-0.244 0.884 0s0.244 0.64 0 0.884c-0.62 0.62-1.218 0.93-1.817 0.93zM0 16.422c0 1.559 0.133 2.973 0.4 4.24s0.642 2.367 1.125 3.298c0.483 0.931 1.094 1.747 1.833 2.448s1.542 1.279 2.408 1.733c0.867 0.454 1.858 0.822 2.975 1.102s2.253 0.477 3.408 0.589 2.428 0.168 3.817 0.168c1.389 0 2.664-0.056 3.825-0.168s2.3-0.308 3.417-0.589c1.117-0.28 2.111-0.648 2.983-1.102s1.681-1.032 2.425-1.733c0.744-0.701 1.358-1.517 1.842-2.448s0.861-2.030 1.133-3.298c0.272-1.268 0.408-2.681 0.408-4.24 0-2.793-0.867-5.199-2.6-7.218 0.1-0.269 0.186-0.578 0.258-0.925s0.142-0.838 0.208-1.472c0.067-0.634 0.042-1.366-0.075-2.196s-0.336-1.677-0.658-2.541l-0.25-0.051c-0.167-0.034-0.439-0.022-0.817 0.034s-0.819 0.157-1.325 0.303c-0.506 0.146-1.158 0.435-1.958 0.867s-1.644 0.979-2.533 1.641c-1.511-0.46-3.594-0.941-6.25-0.941s-4.744 0.481-6.267 0.941c-0.889-0.662-1.736-1.206-2.542-1.632s-1.45-0.718-1.933-0.875c-0.483-0.157-0.931-0.258-1.342-0.303s-0.675-0.059-0.792-0.042c-0.117 0.017-0.203 0.036-0.258 0.059-0.322 0.864-0.544 1.711-0.667 2.541s-0.15 1.559-0.083 2.187c0.067 0.628 0.139 1.122 0.217 1.481s0.167 0.667 0.267 0.925c-1.733 2.008-2.6 4.414-2.6 7.218zM4.267 19.981c0-1.813 0.667-3.457 2-4.933 0.4-0.45 0.864-0.791 1.392-1.022s1.128-0.363 1.8-0.394 1.314-0.025 1.925 0.019c0.611 0.044 1.367 0.103 2.267 0.178s1.678 0.113 2.333 0.113c0.655 0 1.433-0.037 2.333-0.113s1.656-0.134 2.267-0.178c0.611-0.044 1.253-0.050 1.925-0.019s1.275 0.163 1.808 0.394c0.533 0.231 1 0.572 1.4 1.022 1.333 1.476 2 3.12 2 4.933 0 1.063-0.111 2.010-0.333 2.842s-0.503 1.529-0.842 2.091c-0.339 0.563-0.814 1.038-1.425 1.426s-1.203 0.688-1.775 0.9c-0.572 0.212-1.311 0.378-2.217 0.497s-1.717 0.191-2.433 0.216c-0.717 0.025-1.619 0.038-2.708 0.038s-1.989-0.013-2.7-0.038c-0.711-0.025-1.519-0.097-2.425-0.216s-1.644-0.285-2.217-0.497c-0.572-0.213-1.164-0.513-1.775-0.9s-1.086-0.863-1.425-1.426c-0.339-0.563-0.62-1.26-0.842-2.091s-0.333-1.779-0.333-2.842zM8 19c0-1.657 0.895-3 2-3s2 1.343 2 3c0 1.657-0.895 3-2 3s-2-1.343-2-3zM20 19c0-1.657 0.895-3 2-3s2 1.343 2 3c0 1.657-0.895 3-2 3s-2-1.343-2-3z"></path>
</svg>
