<svg xmlns="http://www.w3.org/2000/svg" viewBox="0 0 16 14.9"><path fill="#FFF" d="M9 .6l6.9 12.6c.2.4.2.8 0 1.1-.1.2-.2.3-.4.4-.2.1-.4.2-.6.2H1.2c-.2 0-.4-.1-.6-.2-.2-.1-.3-.2-.4-.4-.2-.4-.2-.8 0-1.1L7 .6c.1-.2.2-.3.4-.4S7.8 0 8 0c.2 0 .4.1.6.2s.3.2.4.4zm.1 8.3l.2-4.1c0-.1 0-.1-.1-.2H7c-.1 0-.1 0-.2.1-.1 0-.1.1-.1.2L6.9 9l.1.1c.1 0 .1.1.2.1h1.7c.1 0 .2 0 .2-.1v-.2zm.1 3.4v-1.7c0-.1 0-.2-.1-.2s-.1-.1-.2-.1H7.2c-.1 0-.1 0-.2.1s-.1.1-.1.2v1.7c0 .1 0 .2.1.2.1.1.1.1.2.1h1.7c.1 0 .1 0 .2-.1s.1-.1.1-.2z"/></svg>