<?xml version="1.0" encoding="utf-8"?>
<!-- Generator: Adobe Illustrator 19.1.0, SVG Export Plug-In . SVG Version: 6.00 Build 0)  -->
<svg version="1.1" id="Layer_1" xmlns="http://www.w3.org/2000/svg" xmlns:xlink="http://www.w3.org/1999/xlink" x="0px" y="0px"
	 width="18px" height="31.4px" viewBox="0 0 18 31.4" style="enable-background:new 0 0 18 31.4;" xml:space="preserve">
<style type="text/css">
	.st0{fill:#FFFFFF;}
	.st1{fill:#FACA24;}
</style>
<g>
	<g>
		<path class="st0" d="M10.5,15.4H0.7c-0.4,0-0.7-0.3-0.7-0.7v-14C0,0.3,0.3,0,0.7,0h9.8c0.4,0,0.7,0.3,0.7,0.7v3.2
			c0,0.4-0.3,0.7-0.7,0.7c-0.4,0-0.7-0.3-0.7-0.7V1.4H1.4V14h8.5v-2.4c0-0.4,0.3-0.7,0.7-0.7c0.4,0,0.7,0.3,0.7,0.7v3.1
			C11.2,15.1,10.9,15.4,10.5,15.4z"/>
	</g>
	<g>
		<g>
			<path class="st0" d="M18,7.8L18,7.8C18,8,17.9,8,17.9,8c0,0,0,0.1-0.1,0.1c0,0,0,0.1-0.1,0.1l-3.2,3.2c-0.1,0.1-0.3,0.2-0.5,0.2
				c-0.2,0-0.4-0.1-0.5-0.2c-0.2-0.2-0.2-0.7,0-1l1.9-1.9H6.7C6.3,8.4,6,8.1,6,7.7C6,7.3,6.3,7,6.7,7h8.9l-1.9-1.9
				c-0.2-0.2-0.2-0.7,0-1c0.2-0.2,0.7-0.2,1,0l3.2,3.2c0.1,0.1,0.1,0.1,0.1,0.2v0.1l0,0c0,0,0,0,0,0.1C18,7.6,18,7.7,18,7.8z"/>
		</g>
	</g>
</g>
<g>
	<g>
		<path class="st1" d="M10.5,31.4H0.7c-0.4,0-0.7-0.3-0.7-0.7v-14C0,16.3,0.3,16,0.7,16h9.8c0.4,0,0.7,0.3,0.7,0.7v3.2
			c0,0.4-0.3,0.7-0.7,0.7s-0.7-0.3-0.7-0.7v-2.6H1.4V30h8.5v-2.4c0-0.4,0.3-0.7,0.7-0.7s0.7,0.3,0.7,0.7v3.1
			C11.2,31.1,10.9,31.4,10.5,31.4z"/>
	</g>
	<g>
		<g>
			<path class="st1" d="M18,23.9L18,23.9c0,0.1-0.1,0.1-0.1,0.2c0,0,0,0.1-0.1,0.1c0,0,0,0.1-0.1,0.1l-3.2,3.2
				c-0.1,0.1-0.3,0.2-0.5,0.2s-0.4-0.1-0.5-0.2c-0.2-0.2-0.2-0.7,0-1l1.9-1.9H6.7c-0.4,0-0.7-0.3-0.7-0.7s0.3-0.7,0.7-0.7h8.9
				l-1.9-1.9c-0.2-0.2-0.2-0.7,0-1c0.2-0.2,0.7-0.2,1,0l3.2,3.2c0.1,0.1,0.1,0.1,0.1,0.2v0.1l0,0c0,0,0,0,0,0.1
				C18,23.6,18,23.7,18,23.9z"/>
		</g>
	</g>
</g>
</svg>
