<?xml version="1.0" encoding="utf-8"?>
<!-- Generator: Adobe Illustrator 19.1.0, SVG Export Plug-In . SVG Version: 6.00 Build 0)  -->
<svg version="1.1" id="Layer_1" xmlns="http://www.w3.org/2000/svg" xmlns:xlink="http://www.w3.org/1999/xlink" x="0px" y="0px"
	 width="18px" height="15.38px" viewBox="185.1 742.5 28.9 24.7" style="enable-background:new 185.1 742.5 28.9 24.7;"
	 xml:space="preserve">
<style type="text/css">
	.st0{fill:#FAC922;}
</style>
<g>
	<path class="st0" d="M202,767.2h-15.8c-0.6,0-1.1-0.5-1.1-1.1v-22.5c0-0.6,0.5-1.1,1.1-1.1H202c0.6,0,1.1,0.5,1.1,1.1v5.2
		c0,0.6-0.5,1.1-1.1,1.1s-1.1-0.5-1.1-1.1v-4.1h-13.6V765h13.6v-3.9c0-0.6,0.5-1.1,1.1-1.1s1.1,0.5,1.1,1.1v5
		C203.1,766.7,202.6,767.2,202,767.2z"/>
</g>
<g>
	<g>
		<path class="st0" d="M214,755.1L214,755.1c0,0.2-0.1,0.2-0.1,0.3c0,0,0,0.1-0.1,0.1c0,0,0,0.1-0.1,0.1l-5.1,5.1
			c-0.2,0.2-0.5,0.3-0.8,0.3s-0.6-0.1-0.8-0.3c-0.4-0.4-0.4-1.2,0-1.6l3.1-3.1h-14.3c-0.6,0-1.1-0.5-1.1-1.1s0.5-1.1,1.1-1.1h14.3
			l-3.1-3.1c-0.4-0.4-0.4-1.2,0-1.6c0.4-0.4,1.2-0.4,1.6,0l5.1,5.1c0.1,0.1,0.1,0.2,0.2,0.3v0.1l0,0c0,0,0,0,0,0.1
			C214,754.7,214,754.9,214,755.1z"/>
	</g>
</g>
</svg>
