<?xml version="1.0" encoding="utf-8"?>
<!-- Generated by IcoMoon.io -->
<!DOCTYPE svg PUBLIC "-//W3C//DTD SVG 1.1//EN" "http://www.w3.org/Graphics/SVG/1.1/DTD/svg11.dtd">
<svg version="1.1" xmlns="http://www.w3.org/2000/svg" xmlns:xlink="http://www.w3.org/1999/xlink" width="32" height="32" viewBox="0 0 32 32">
<path fill="#444444" d="M26.625 0h-21.25c-2.956 0-5.375 2.419-5.375 5.375v21.25c0 2.956 2.419 5.375 5.375 5.375h21.25c2.956 0 5.375-2.419 5.375-5.375v-21.25c0-2.956-2.419-5.375-5.375-5.375zM23.329 23.778c-5.549 0-7.473-2.502-8.499-5.613l-1.027-3.207c-0.77-2.341-1.668-4.169-4.49-4.169-1.957 0-3.945 1.411-3.945 5.356 0 3.079 1.572 5.003 3.785 5.003 2.501 0 4.169-1.86 4.169-1.86l1.027 2.79c0 0-1.732 1.7-5.356 1.7-4.49 0-6.992-2.63-6.992-7.505 0-5.068 2.502-8.050 7.216-8.050 4.266 0 6.415 1.54 7.762 5.709l1.058 3.207c0.77 2.342 2.117 4.041 5.356 4.041 2.181 0 3.335-0.481 3.335-1.668 0-0.93-0.545-1.604-2.181-1.989l-2.181-0.513c-2.662-0.641-3.72-2.021-3.72-4.202 0-3.496 2.823-4.587 5.709-4.587 3.272 0 5.26 1.187 5.517 4.073l-3.207 0.385c-0.128-1.379-0.962-1.957-2.502-1.957-1.411 0-2.277 0.642-2.277 1.732 0 0.962 0.417 1.54 1.828 1.86l2.053 0.449c2.758 0.642 4.234 1.989 4.234 4.587-0 3.207-2.694 4.426-6.672 4.426z"></path>
</svg>
