<?xml version="1.0" encoding="utf-8"?>
<!-- Generated by IcoMoon.io -->
<!DOCTYPE svg PUBLIC "-//W3C//DTD SVG 1.1//EN" "http://www.w3.org/Graphics/SVG/1.1/DTD/svg11.dtd">
<svg version="1.1" xmlns="http://www.w3.org/2000/svg" xmlns:xlink="http://www.w3.org/1999/xlink" width="32" height="32" viewBox="0 0 32 32">
<path fill="#444444" d="M25.612 25.426c-3.333-0.013-5.109-1.643-6.343-4.516l-0.353-0.784-3.043-6.938c-1.009-2.456-3.513-4.115-6.339-4.115-3.823 0-6.925 3.102-6.925 6.927s3.101 6.927 6.925 6.927c2.667 0 4.986-1.508 6.143-3.719l1.231 2.838c-1.747 2.13-4.402 3.487-7.374 3.487-5.266 0-9.534-4.266-9.534-9.534 0-5.266 4.268-9.537 9.534-9.537 3.974 0 7.182 2.122 8.812 5.883 0.124 0.292 1.724 4.034 3.12 7.219 0.865 1.971 1.602 3.279 3.992 3.36 2.349 0.081 3.961-1.349 3.961-3.157 0-1.766-1.229-2.19-3.305-2.88-3.731-1.229-5.656-2.464-5.656-5.422 0-2.886 1.963-4.81 5.154-4.81 2.078 0 3.578 0.925 4.617 2.768l-2.039 1.042c-0.768-1.075-1.616-1.5-2.693-1.5-1.497 0-2.566 1.042-2.566 2.427 0 1.966 1.759 2.263 4.219 3.070 3.311 1.078 4.85 2.31 4.85 5.386 0 3.229-2.771 5.581-6.388 5.576z"></path>
</svg>
