<?xml version="1.0" encoding="utf-8"?>
<!-- Generated by IcoMoon.io -->
<!DOCTYPE svg PUBLIC "-//W3C//DTD SVG 1.1//EN" "http://www.w3.org/Graphics/SVG/1.1/DTD/svg11.dtd">
<svg version="1.1" xmlns="http://www.w3.org/2000/svg" xmlns:xlink="http://www.w3.org/1999/xlink" width="32" height="32" viewBox="0 0 32 32">
<path fill="#444444" d="M16 0c-8.837 0-16 7.163-16 16s7.163 16 16 16 16-7.163 16-16-7.163-16-16-16zM9.464 26.067c0.347-0.957 0.536-1.99 0.536-3.067 0-3.886-2.463-7.197-5.913-8.456 0.319-2.654 1.508-5.109 3.427-7.029 2.267-2.266 5.28-3.515 8.485-3.515s6.219 1.248 8.485 3.515c1.92 1.92 3.108 4.375 3.428 7.029-3.45 1.26-5.913 4.57-5.913 8.456 0 1.077 0.189 2.11 0.536 3.067-1.928 1.258-4.18 1.933-6.536 1.933s-4.608-0.675-6.536-1.933zM17.242 20.031c0.434 0.109 0.758 0.503 0.758 0.969v2c0 0.55-0.45 1-1 1h-2c-0.55 0-1-0.45-1-1v-2c0-0.466 0.324-0.86 0.758-0.969l0.742-14.031h1l0.742 14.031z"></path>
</svg>
