<?xml version="1.0" encoding="utf-8"?>
<!-- Generated by IcoMoon.io -->
<!DOCTYPE svg PUBLIC "-//W3C//DTD SVG 1.1//EN" "http://www.w3.org/Graphics/SVG/1.1/DTD/svg11.dtd">
<svg version="1.1" xmlns="http://www.w3.org/2000/svg" xmlns:xlink="http://www.w3.org/1999/xlink" width="32" height="32" viewBox="0 0 32 32">
<path fill="#444444" d="M22 28h8l2-4v8h-12v-6.694c4.097-1.765 7-6.161 7-11.306 0-6.701-4.925-11.946-11-11.946s-11 5.245-11 11.946c0 5.144 2.903 9.541 7 11.306v6.694h-12v-8l2 4h8v-1.018c-5.863-2.077-10-7.106-10-12.982 0-7.732 7.163-14 16-14s16 6.268 16 14c0 5.875-4.137 10.905-10 12.982v1.018z"></path>
</svg>
