<?xml version="1.0" encoding="utf-8"?>
<!-- Generated by IcoMoon.io -->
<!DOCTYPE svg PUBLIC "-//W3C//DTD SVG 1.1//EN" "http://www.w3.org/Graphics/SVG/1.1/DTD/svg11.dtd">
<svg version="1.1" xmlns="http://www.w3.org/2000/svg" xmlns:xlink="http://www.w3.org/1999/xlink" width="32" height="32" viewBox="0 0 32 32">
<path fill="#444444" d="M29 26h-8c-0.395 0-0.753-0.233-0.914-0.594l-7.736-17.406h-9.35c-0.552 0-1-0.448-1-1s0.448-1 1-1h10c0.395 0 0.753 0.233 0.914 0.594l7.736 17.406h7.35c0.552 0 1 0.448 1 1s-0.448 1-1 1z"></path>
<path fill="#444444" d="M29 8h-10c-0.552 0-1-0.448-1-1s0.448-1 1-1h10c0.552 0 1 0.448 1 1s-0.448 1-1 1z"></path>
</svg>
