<?xml version="1.0" encoding="utf-8"?>
<!-- Generated by IcoMoon.io -->
<!DOCTYPE svg PUBLIC "-//W3C//DTD SVG 1.1//EN" "http://www.w3.org/Graphics/SVG/1.1/DTD/svg11.dtd">
<svg version="1.1" xmlns="http://www.w3.org/2000/svg" xmlns:xlink="http://www.w3.org/1999/xlink" width="32" height="32" viewBox="0 0 32 32">
<path fill="#444444" d="M27.52 4.087c0.803 0.393 1.503 0.953 2.016 1.64 1.079 1.447 1.382 3.418 0.901 5.858-0.486 2.47-1.575 4.554-3.161 6.064-0.29 0.303-0.601 0.586-0.931 0.846-1.699 1.338-3.844 2.045-6.203 2.045h-7.502l-2.018 9.46h-4.138l0.315-1.447h1.442l2.018-9.46h5.883c5.633 0 10.342-3.471 11.602-9.373 1.429-6.682-3.362-9.72-7.482-9.72h-14.040l-6.221 28.553h4.751l-0.751 3.447h8.239l2.018-9.46h5.883c5.633 0 10.342-3.471 11.602-9.373 1.054-4.928-1.275-7.873-4.222-9.080zM20.008 9.72c-0.429 1.846-2.013 3.376-3.77 3.793l0.961-4.251h2.906c-0.023 0.15-0.054 0.303-0.096 0.458zM13.198 5.815h4.035c1.149 0 2.078 0.563 2.558 1.447h-4.192l-1.438 6.363h-2.729l1.765-7.81z"></path>
</svg>
