<?xml version="1.0" encoding="utf-8"?>
<!-- Generated by IcoMoon.io -->
<!DOCTYPE svg PUBLIC "-//W3C//DTD SVG 1.1//EN" "http://www.w3.org/Graphics/SVG/1.1/DTD/svg11.dtd">
<svg version="1.1" xmlns="http://www.w3.org/2000/svg" xmlns:xlink="http://www.w3.org/1999/xlink" width="32" height="32" viewBox="0 0 32 32">
<path fill="#444444" d="M16 32c8.837 0 16-7.163 16-16s-7.163-16-16-16-16 7.163-16 16 7.163 16 16 16zM16 3c7.18 0 13 5.82 13 13s-5.82 13-13 13-13-5.82-13-13 5.82-13 13-13z"></path>
<path fill="#444444" d="M20 21c0 2.761-1.791 5-4 5s-4-2.239-4-5c0-2.761 1.791-5 4-5s4 2.239 4 5z"></path>
<path fill="#444444" d="M13 10.625c-0.256 0-0.512-0.098-0.707-0.293-0.604-0.604-1.982-0.604-2.586 0-0.39 0.391-1.024 0.391-1.414 0s-0.391-1.024 0-1.414c1.392-1.392 4.023-1.392 5.414 0 0.391 0.39 0.391 1.024 0 1.414-0.195 0.195-0.451 0.293-0.707 0.293z"></path>
<path fill="#444444" d="M23 10.625c-0.256 0-0.512-0.098-0.707-0.293-0.604-0.604-1.982-0.604-2.586 0-0.39 0.391-1.024 0.391-1.414 0s-0.391-1.024 0-1.414c1.392-1.392 4.023-1.392 5.414 0 0.391 0.39 0.391 1.024 0 1.414-0.195 0.195-0.451 0.293-0.707 0.293z"></path>
</svg>
