<?xml version="1.0" encoding="utf-8"?>
<!-- Generated by IcoMoon.io -->
<!DOCTYPE svg PUBLIC "-//W3C//DTD SVG 1.1//EN" "http://www.w3.org/Graphics/SVG/1.1/DTD/svg11.dtd">
<svg version="1.1" xmlns="http://www.w3.org/2000/svg" xmlns:xlink="http://www.w3.org/1999/xlink" width="32" height="32" viewBox="0 0 32 32">
<path fill="#444444" d="M10 24v-24h-4v24h-5l7 7 7-7h-5z"></path>
<path fill="#444444" d="M27 32c-0.552 0-1-0.448-1-1v-11h-1c-0.552 0-1-0.448-1-1s0.448-1 1-1h2c0.552 0 1 0.448 1 1v12c0 0.552-0.448 1-1 1z"></path>
<path fill="#444444" d="M29 0h-6c-0.552 0-1 0.448-1 1v6c0 0.552 0.448 1 1 1h5v4h-5c-0.552 0-1 0.448-1 1s0.448 1 1 1h6c0.552 0 1-0.448 1-1v-12c0-0.552-0.448-1-1-1zM24 2h4v4h-4v-4z"></path>
</svg>
