<?xml version="1.0" encoding="utf-8"?>
<!-- Generated by IcoMoon.io -->
<!DOCTYPE svg PUBLIC "-//W3C//DTD SVG 1.1//EN" "http://www.w3.org/Graphics/SVG/1.1/DTD/svg11.dtd">
<svg version="1.1" xmlns="http://www.w3.org/2000/svg" xmlns:xlink="http://www.w3.org/1999/xlink" width="32" height="32" viewBox="0 0 32 32">
<path fill="#444444" d="M0.001 16.051l-0.001 0c0 0 0 0.003 0.001 0.007 0.003 0.121 0.017 0.24 0.041 0.355 0.006 0.055 0.013 0.114 0.021 0.18 0.007 0.059 0.014 0.122 0.022 0.19 0.012 0.080 0.024 0.165 0.037 0.256 0.027 0.18 0.056 0.379 0.091 0.592 0.042 0.201 0.088 0.419 0.136 0.652 0.022 0.116 0.055 0.235 0.087 0.356s0.065 0.247 0.099 0.375c0.018 0.064 0.032 0.129 0.053 0.194s0.041 0.131 0.062 0.197 0.085 0.268 0.129 0.406c0.011 0.035 0.022 0.069 0.033 0.104 0.013 0.034 0.025 0.069 0.038 0.104 0.026 0.069 0.052 0.139 0.078 0.21 0.053 0.14 0.107 0.284 0.162 0.429 0.061 0.143 0.124 0.288 0.188 0.435 0.032 0.073 0.064 0.147 0.096 0.222s0.071 0.147 0.107 0.221c0.073 0.147 0.146 0.297 0.221 0.448 0.077 0.15 0.163 0.297 0.245 0.448 0.042 0.075 0.084 0.15 0.126 0.226s0.091 0.148 0.136 0.223c0.092 0.148 0.185 0.298 0.279 0.448 0.395 0.59 0.834 1.174 1.319 1.727 0.491 0.549 1.023 1.070 1.584 1.55 0.568 0.473 1.165 0.903 1.773 1.285 0.613 0.376 1.239 0.697 1.856 0.973 0.156 0.064 0.311 0.127 0.465 0.19 0.077 0.030 0.152 0.064 0.229 0.091s0.154 0.054 0.23 0.081 0.302 0.108 0.453 0.156c0.151 0.045 0.3 0.089 0.447 0.133 0.074 0.021 0.146 0.045 0.219 0.063s0.146 0.036 0.218 0.053c0.144 0.035 0.286 0.069 0.425 0.103 0.141 0.027 0.279 0.054 0.415 0.080 0.068 0.013 0.135 0.026 0.201 0.038 0.033 0.006 0.066 0.012 0.099 0.019 0.033 0.005 0.066 0.009 0.099 0.014 0.131 0.018 0.259 0.036 0.384 0.053 0.062 0.009 0.124 0.017 0.185 0.026s0.122 0.012 0.182 0.018c0.119 0.011 0.236 0.021 0.349 0.031s0.222 0.021 0.329 0.023c0.007 0 0.014 0 0.021 0.001 0.019 1.088 0.906 1.964 1.999 1.964 0.017 0 0.034-0.001 0.051-0.001v0.001c0 0 0.003-0 0.007-0.001 0.121-0.003 0.24-0.017 0.355-0.041 0.055-0.006 0.114-0.013 0.18-0.021 0.059-0.007 0.122-0.014 0.19-0.022 0.080-0.012 0.165-0.024 0.256-0.037 0.18-0.027 0.379-0.056 0.592-0.091 0.201-0.042 0.419-0.088 0.652-0.136 0.116-0.022 0.235-0.056 0.356-0.087s0.247-0.065 0.375-0.099c0.064-0.018 0.129-0.032 0.194-0.053s0.13-0.041 0.197-0.062 0.268-0.085 0.406-0.129c0.035-0.011 0.069-0.022 0.104-0.033 0.034-0.013 0.069-0.025 0.104-0.038 0.069-0.026 0.139-0.052 0.21-0.078 0.14-0.053 0.284-0.107 0.429-0.162 0.143-0.061 0.288-0.124 0.436-0.188 0.073-0.032 0.147-0.064 0.222-0.096s0.147-0.071 0.221-0.107c0.147-0.073 0.297-0.146 0.448-0.221 0.15-0.077 0.297-0.163 0.448-0.245 0.075-0.042 0.15-0.084 0.226-0.126s0.148-0.091 0.223-0.136c0.148-0.092 0.298-0.185 0.448-0.279 0.59-0.395 1.174-0.834 1.727-1.319 0.549-0.491 1.070-1.023 1.55-1.584 0.473-0.568 0.903-1.165 1.285-1.773 0.376-0.613 0.697-1.239 0.973-1.855 0.064-0.156 0.127-0.311 0.19-0.465 0.030-0.077 0.064-0.152 0.091-0.229s0.054-0.154 0.081-0.23 0.108-0.302 0.156-0.453c0.045-0.151 0.089-0.3 0.133-0.447 0.021-0.074 0.045-0.146 0.063-0.219s0.036-0.146 0.053-0.218c0.035-0.144 0.069-0.286 0.103-0.425 0.027-0.141 0.054-0.279 0.080-0.415 0.013-0.068 0.026-0.135 0.038-0.201 0.006-0.033 0.012-0.066 0.019-0.099 0.005-0.033 0.009-0.066 0.014-0.099 0.018-0.131 0.036-0.259 0.053-0.384 0.009-0.062 0.017-0.124 0.026-0.185s0.012-0.122 0.018-0.182c0.011-0.119 0.021-0.236 0.031-0.349s0.021-0.222 0.023-0.329c0.001-0.017 0.001-0.033 0.002-0.049 1.101-0.005 1.992-0.898 1.992-2 0-0.017-0.001-0.034-0.001-0.051h0.001c0 0-0-0.003-0.001-0.007-0.003-0.121-0.017-0.24-0.041-0.355-0.006-0.055-0.013-0.114-0.021-0.181-0.007-0.059-0.014-0.122-0.022-0.19-0.012-0.080-0.024-0.165-0.037-0.255-0.027-0.18-0.056-0.379-0.091-0.592-0.042-0.201-0.088-0.419-0.136-0.652-0.022-0.116-0.055-0.235-0.087-0.357s-0.065-0.247-0.099-0.375c-0.018-0.064-0.032-0.129-0.053-0.194s-0.041-0.13-0.062-0.197-0.085-0.268-0.129-0.406c-0.011-0.034-0.022-0.069-0.033-0.104-0.013-0.034-0.025-0.069-0.038-0.104-0.026-0.069-0.052-0.139-0.078-0.21-0.053-0.141-0.107-0.284-0.162-0.429-0.061-0.143-0.124-0.288-0.188-0.435-0.032-0.073-0.064-0.147-0.096-0.222s-0.071-0.147-0.107-0.221c-0.073-0.147-0.146-0.297-0.221-0.448-0.077-0.15-0.163-0.297-0.245-0.448-0.042-0.075-0.084-0.15-0.126-0.226s-0.091-0.148-0.136-0.223c-0.092-0.148-0.185-0.298-0.279-0.448-0.395-0.59-0.834-1.174-1.319-1.727-0.491-0.549-1.023-1.070-1.584-1.55-0.568-0.473-1.165-0.903-1.773-1.285-0.613-0.376-1.239-0.697-1.855-0.973-0.156-0.064-0.311-0.127-0.465-0.19-0.077-0.030-0.152-0.063-0.229-0.091s-0.154-0.054-0.23-0.081-0.302-0.108-0.453-0.156c-0.151-0.045-0.3-0.089-0.447-0.133-0.074-0.021-0.146-0.045-0.219-0.063s-0.146-0.036-0.218-0.053c-0.144-0.035-0.286-0.069-0.425-0.103-0.141-0.027-0.279-0.054-0.415-0.080-0.068-0.013-0.135-0.026-0.201-0.038-0.033-0.006-0.066-0.012-0.099-0.019-0.033-0.005-0.066-0.009-0.099-0.014-0.131-0.018-0.259-0.036-0.384-0.053-0.062-0.009-0.124-0.017-0.185-0.026s-0.122-0.012-0.182-0.018c-0.119-0.010-0.236-0.021-0.349-0.031s-0.222-0.021-0.329-0.023c-0.027-0.001-0.052-0.002-0.078-0.003-0.020-1.087-0.907-1.962-1.999-1.962-0.017 0-0.034 0.001-0.051 0.001l-0-0.001c0 0-0.003 0-0.007 0.001-0.121 0.003-0.24 0.017-0.355 0.041-0.055 0.006-0.114 0.013-0.181 0.021-0.059 0.007-0.122 0.014-0.19 0.022-0.080 0.012-0.165 0.024-0.255 0.037-0.18 0.027-0.379 0.056-0.592 0.091-0.201 0.042-0.419 0.088-0.652 0.136-0.116 0.022-0.235 0.056-0.356 0.087s-0.247 0.065-0.375 0.099c-0.064 0.018-0.129 0.032-0.194 0.053s-0.13 0.041-0.197 0.062-0.268 0.085-0.406 0.129c-0.034 0.011-0.069 0.022-0.104 0.033-0.034 0.013-0.069 0.025-0.104 0.038-0.069 0.026-0.139 0.052-0.21 0.078-0.14 0.053-0.284 0.107-0.429 0.162-0.143 0.061-0.288 0.124-0.435 0.188-0.073 0.032-0.147 0.064-0.222 0.096s-0.147 0.071-0.221 0.107c-0.147 0.073-0.297 0.146-0.448 0.221-0.15 0.077-0.297 0.163-0.448 0.245-0.075 0.042-0.15 0.084-0.226 0.126s-0.148 0.091-0.223 0.136c-0.148 0.092-0.298 0.185-0.448 0.279-0.59 0.395-1.174 0.834-1.727 1.319-0.549 0.491-1.070 1.023-1.55 1.584-0.473 0.568-0.903 1.165-1.285 1.773-0.376 0.613-0.697 1.239-0.973 1.855-0.064 0.156-0.127 0.311-0.19 0.465-0.030 0.077-0.063 0.152-0.091 0.229s-0.054 0.154-0.081 0.23-0.108 0.302-0.156 0.453c-0.045 0.151-0.089 0.3-0.132 0.447-0.021 0.074-0.045 0.146-0.063 0.219s-0.036 0.146-0.053 0.218c-0.035 0.144-0.069 0.286-0.103 0.425-0.027 0.141-0.054 0.279-0.080 0.415-0.013 0.068-0.026 0.135-0.038 0.201-0.006 0.033-0.012 0.066-0.019 0.099-0.005 0.033-0.009 0.066-0.014 0.099-0.018 0.131-0.036 0.259-0.053 0.384-0.009 0.062-0.017 0.124-0.026 0.185s-0.012 0.122-0.018 0.182c-0.010 0.119-0.021 0.236-0.031 0.349s-0.021 0.222-0.023 0.329c-0.001 0.017-0.001 0.034-0.002 0.051-1.074 0.035-1.934 0.916-1.934 1.998 0 0.017 0.001 0.034 0.001 0.051zM2.297 14.022c0.001-0.006 0.003-0.012 0.004-0.018 0.020-0.101 0.051-0.204 0.080-0.311s0.059-0.215 0.090-0.327c0.016-0.056 0.029-0.113 0.048-0.169s0.038-0.113 0.057-0.171 0.077-0.233 0.117-0.353c0.010-0.030 0.020-0.060 0.030-0.090 0.012-0.030 0.023-0.060 0.035-0.090 0.023-0.060 0.047-0.121 0.071-0.182 0.047-0.122 0.096-0.246 0.145-0.373 0.055-0.124 0.111-0.25 0.168-0.377 0.028-0.064 0.057-0.128 0.086-0.192s0.064-0.127 0.095-0.191c0.065-0.128 0.13-0.257 0.197-0.388 0.069-0.129 0.145-0.257 0.219-0.387 0.037-0.065 0.074-0.13 0.112-0.195s0.081-0.128 0.121-0.193c0.082-0.128 0.164-0.257 0.247-0.388 0.351-0.509 0.739-1.012 1.167-1.489 0.434-0.472 0.901-0.919 1.394-1.33 0.499-0.404 1.021-0.77 1.552-1.094 0.535-0.319 1.081-0.589 1.617-0.821 0.136-0.053 0.271-0.106 0.404-0.158 0.067-0.025 0.132-0.053 0.199-0.076s0.134-0.045 0.2-0.067 0.262-0.090 0.392-0.129c0.131-0.037 0.26-0.073 0.387-0.109 0.064-0.017 0.126-0.037 0.189-0.052s0.126-0.029 0.189-0.043c0.124-0.028 0.247-0.056 0.367-0.084 0.121-0.021 0.241-0.043 0.358-0.063 0.058-0.010 0.116-0.021 0.173-0.031 0.029-0.005 0.057-0.010 0.085-0.015 0.029-0.003 0.057-0.007 0.085-0.010 0.113-0.014 0.223-0.028 0.331-0.041 0.054-0.007 0.107-0.013 0.159-0.020s0.105-0.008 0.157-0.013c0.103-0.007 0.203-0.015 0.3-0.022s0.191-0.016 0.283-0.016c0.183-0.004 0.354-0.008 0.512-0.012 0.146 0.005 0.28 0.010 0.401 0.014 0.060 0.002 0.116 0.003 0.17 0.005 0.066 0.004 0.128 0.008 0.186 0.012 0.067 0.004 0.127 0.008 0.182 0.012 0.102 0.016 0.206 0.024 0.312 0.024 0.015 0 0.029-0.001 0.044-0.001 0.004 0 0.007 0 0.007 0v-0.001c0.973-0.024 1.773-0.743 1.924-1.68 0.017 0.004 0.033 0.007 0.050 0.011 0.101 0.020 0.204 0.051 0.311 0.080s0.215 0.059 0.327 0.090c0.056 0.016 0.113 0.029 0.169 0.048s0.113 0.038 0.171 0.057 0.233 0.077 0.353 0.117c0.030 0.010 0.060 0.020 0.090 0.030 0.030 0.012 0.060 0.023 0.090 0.035 0.060 0.023 0.121 0.047 0.182 0.071 0.122 0.047 0.246 0.096 0.373 0.145 0.124 0.055 0.25 0.111 0.378 0.168 0.064 0.028 0.128 0.057 0.192 0.086s0.127 0.064 0.191 0.095c0.128 0.065 0.257 0.13 0.388 0.197 0.13 0.069 0.257 0.145 0.387 0.219 0.065 0.037 0.13 0.074 0.195 0.112s0.128 0.081 0.193 0.121c0.128 0.082 0.257 0.164 0.388 0.247 0.509 0.351 1.012 0.739 1.489 1.167 0.472 0.434 0.919 0.901 1.33 1.394 0.404 0.499 0.77 1.021 1.094 1.552 0.319 0.535 0.589 1.081 0.821 1.617 0.053 0.136 0.106 0.271 0.158 0.404 0.025 0.067 0.053 0.132 0.076 0.199s0.045 0.134 0.067 0.2 0.090 0.262 0.129 0.392c0.037 0.131 0.073 0.26 0.109 0.387 0.017 0.064 0.037 0.126 0.052 0.189s0.029 0.126 0.043 0.189c0.028 0.124 0.056 0.247 0.084 0.367 0.021 0.121 0.043 0.241 0.063 0.358 0.010 0.058 0.020 0.116 0.031 0.173 0.005 0.029 0.010 0.057 0.015 0.085 0.003 0.029 0.007 0.057 0.010 0.085 0.014 0.113 0.028 0.223 0.041 0.331 0.007 0.054 0.014 0.107 0.020 0.159s0.008 0.105 0.013 0.157c0.007 0.103 0.015 0.203 0.022 0.3s0.016 0.191 0.016 0.283c0.004 0.183 0.008 0.354 0.012 0.512-0.005 0.146-0.010 0.28-0.014 0.401-0.002 0.060-0.003 0.116-0.005 0.17-0.004 0.066-0.008 0.128-0.012 0.186-0.004 0.067-0.008 0.127-0.012 0.182-0.016 0.102-0.024 0.206-0.024 0.312 0 0.015 0.001 0.029 0.001 0.044-0 0.004-0 0.007-0 0.007h0.001c0.024 0.961 0.726 1.754 1.646 1.918-0.002 0.009-0.004 0.018-0.006 0.028-0.020 0.102-0.051 0.204-0.080 0.311s-0.059 0.215-0.090 0.327c-0.016 0.056-0.029 0.113-0.048 0.169s-0.038 0.113-0.057 0.171-0.077 0.233-0.117 0.353c-0.010 0.030-0.020 0.060-0.030 0.090-0.012 0.030-0.023 0.060-0.035 0.090-0.023 0.060-0.047 0.121-0.071 0.182-0.047 0.122-0.096 0.246-0.145 0.373-0.055 0.124-0.111 0.25-0.169 0.378-0.028 0.064-0.057 0.128-0.086 0.192s-0.064 0.127-0.095 0.191c-0.065 0.128-0.13 0.257-0.197 0.388-0.069 0.129-0.145 0.257-0.219 0.387-0.037 0.065-0.074 0.13-0.112 0.195s-0.081 0.128-0.121 0.193c-0.082 0.128-0.164 0.257-0.247 0.388-0.351 0.509-0.738 1.012-1.167 1.489-0.434 0.472-0.901 0.919-1.394 1.33-0.499 0.404-1.021 0.77-1.552 1.094-0.535 0.319-1.081 0.589-1.617 0.821-0.136 0.053-0.271 0.106-0.404 0.158-0.067 0.025-0.132 0.053-0.199 0.076s-0.134 0.045-0.2 0.067-0.262 0.090-0.392 0.129c-0.131 0.037-0.26 0.073-0.387 0.109-0.064 0.017-0.126 0.037-0.189 0.052s-0.126 0.029-0.189 0.043c-0.124 0.028-0.247 0.056-0.367 0.084-0.122 0.021-0.241 0.043-0.358 0.063-0.058 0.010-0.116 0.021-0.173 0.031-0.029 0.005-0.057 0.010-0.085 0.015-0.029 0.003-0.057 0.007-0.085 0.010-0.113 0.014-0.223 0.028-0.331 0.041-0.054 0.007-0.107 0.014-0.159 0.020s-0.105 0.008-0.157 0.013c-0.103 0.007-0.203 0.015-0.3 0.022s-0.191 0.016-0.283 0.016c-0.183 0.004-0.354 0.008-0.512 0.012-0.146-0.005-0.28-0.010-0.401-0.014-0.060-0.002-0.116-0.003-0.17-0.005-0.066-0.004-0.128-0.008-0.186-0.012-0.067-0.004-0.127-0.008-0.182-0.012-0.102-0.016-0.206-0.024-0.312-0.024-0.015 0-0.029 0.001-0.044 0.001-0.004-0-0.007-0-0.007-0v0.001c-0.969 0.024-1.766 0.737-1.921 1.668-0.1-0.020-0.201-0.050-0.306-0.079-0.106-0.029-0.215-0.059-0.327-0.090-0.056-0.016-0.113-0.029-0.169-0.048s-0.113-0.038-0.171-0.057-0.233-0.077-0.353-0.117c-0.030-0.010-0.060-0.020-0.090-0.030-0.030-0.012-0.060-0.023-0.090-0.035-0.060-0.023-0.121-0.047-0.182-0.071-0.122-0.048-0.246-0.096-0.373-0.145-0.124-0.055-0.25-0.111-0.377-0.168-0.064-0.028-0.128-0.057-0.192-0.086s-0.127-0.064-0.191-0.095c-0.128-0.065-0.257-0.13-0.388-0.197-0.13-0.069-0.257-0.145-0.387-0.219-0.065-0.037-0.13-0.074-0.195-0.112s-0.128-0.081-0.193-0.121c-0.128-0.082-0.257-0.164-0.388-0.247-0.509-0.351-1.012-0.738-1.489-1.166-0.472-0.434-0.919-0.901-1.33-1.394-0.404-0.499-0.77-1.021-1.094-1.552-0.319-0.535-0.589-1.081-0.821-1.617-0.053-0.136-0.106-0.271-0.158-0.404-0.025-0.067-0.053-0.132-0.076-0.199s-0.045-0.134-0.067-0.2-0.090-0.262-0.129-0.392c-0.037-0.131-0.073-0.26-0.109-0.387-0.017-0.064-0.037-0.126-0.052-0.189s-0.029-0.126-0.043-0.189c-0.028-0.124-0.056-0.247-0.084-0.367-0.021-0.121-0.043-0.241-0.063-0.358-0.010-0.058-0.021-0.116-0.031-0.173-0.005-0.029-0.010-0.057-0.015-0.085-0.003-0.029-0.007-0.057-0.010-0.085-0.014-0.113-0.028-0.223-0.041-0.331-0.007-0.054-0.013-0.107-0.020-0.159s-0.008-0.105-0.013-0.157c-0.007-0.103-0.015-0.203-0.022-0.3s-0.016-0.191-0.016-0.283c-0.004-0.183-0.008-0.354-0.012-0.512 0.005-0.146 0.010-0.28 0.014-0.401 0.002-0.060 0.003-0.116 0.005-0.17 0.004-0.066 0.008-0.128 0.012-0.186 0.004-0.067 0.008-0.127 0.012-0.182 0.015-0.102 0.024-0.206 0.024-0.312 0-0.015-0.001-0.029-0.001-0.044 0-0.004 0.001-0.007 0.001-0.007h-0.001c-0.024-0.981-0.754-1.786-1.701-1.927z"></path>
</svg>
