<?xml version="1.0" encoding="utf-8"?>
<!-- Generated by IcoMoon.io -->
<!DOCTYPE svg PUBLIC "-//W3C//DTD SVG 1.1//EN" "http://www.w3.org/Graphics/SVG/1.1/DTD/svg11.dtd">
<svg version="1.1" xmlns="http://www.w3.org/2000/svg" xmlns:xlink="http://www.w3.org/1999/xlink" width="32" height="32" viewBox="0 0 32 32">
<path fill="#444444" d="M6.063 26l1.8-6h8.274l1.8 6h3.551l-6-20h-6.976l-6 20h3.551zM10.863 10h2.274l1.8 6h-5.874l1.8-6zM22 26l5-8 5 8h-10z"></path>
<path fill="#444444" d="M27 4h-2c-0.551 0-1-0.449-1-1s0.449-1 1-1h4c0.552 0 1-0.448 1-1s-0.448-1-1-1h-4c-1.654 0-3 1.346-3 3 0 0.768 0.29 1.469 0.766 2 0.55 0.613 1.347 1 2.234 1h2c0.551 0 1 0.449 1 1s-0.449 1-1 1h-4c-0.552 0-1 0.448-1 1s0.448 1 1 1h4c1.654 0 3-1.346 3-3 0-0.768-0.29-1.469-0.766-2-0.55-0.613-1.347-1-2.234-1z"></path>
</svg>
