<svg id="Layer_1" xmlns="http://www.w3.org/2000/svg" width="28.4" height="28.4" viewBox="0 0 28.4 28.4"><style>.st0{fill:#2BA7DF;} .st1{fill:#FFFFFF;}</style><path class="st0" d="M0 0h28.4v28.4H0z"/><path class="st1" d="M23.7 8.3c-.7.3-1.4.5-2.2.6.8-.5 1.4-1.2 1.7-2.1-.8.4-1.6.8-2.5.9C20 7 19 6.5 17.9 6.5c-2.1 0-3.9 1.7-3.9 3.9 0 .3 0 .6.1.9-3.2-.2-6.1-1.7-8-4.1-.3.6-.5 1.2-.5 2 0 1.3.7 2.5 1.7 3.2-.6 0-1.2-.2-1.8-.5 0 1.9 1.3 3.5 3.1 3.8-.3.1-.7.1-1 .1-.2 0-.5 0-.7-.1.5 1.5 1.9 2.7 3.6 2.7-1.3 1-3 1.7-4.8 1.7-.3 0-.6 0-.9-.1 1.7 1.1 3.8 1.7 6 1.7 7.1 0 11.1-5.9 11.1-11.1v-.5c.6-.3 1.3-1 1.8-1.8z"/></svg>