<?xml version="1.0" encoding="utf-8"?>
<!-- Generated by IcoMoon.io -->
<!DOCTYPE svg PUBLIC "-//W3C//DTD SVG 1.1//EN" "http://www.w3.org/Graphics/SVG/1.1/DTD/svg11.dtd">
<svg version="1.1" xmlns="http://www.w3.org/2000/svg" xmlns:xlink="http://www.w3.org/1999/xlink" width="32" height="32" viewBox="0 0 32 32">
<path fill="#444444" d="M0 9.637l1.3 1.704c0 0 2.68-2.113 3.574-1.056s4.304 13.811 5.443 16.164c0.994 2.063 3.735 4.791 6.741 2.843 3.004-1.948 12.995-10.478 14.783-20.55 1.787-10.070-12.023-7.96-13.485 0.813 3.656-2.195 5.607 0.892 3.737 4.387-1.867 3.491-3.574 5.769-4.467 5.769-0.892 0-1.578-2.337-2.6-6.42-1.056-4.222-1.050-11.827-5.441-10.965-4.141 0.813-9.584 7.312-9.584 7.312z"></path>
</svg>
