<?xml version="1.0" encoding="utf-8"?>
<!-- Generated by IcoMoon.io -->
<!DOCTYPE svg PUBLIC "-//W3C//DTD SVG 1.1//EN" "http://www.w3.org/Graphics/SVG/1.1/DTD/svg11.dtd">
<svg version="1.1" xmlns="http://www.w3.org/2000/svg" xmlns:xlink="http://www.w3.org/1999/xlink" width="32" height="32" viewBox="0 0 32 32">
<path fill="#444444" d="M16 0c-8.837 0-16 7.163-16 16s7.163 16 16 16 16-7.163 16-16-7.163-16-16-16zM25.402 13.691c-1.061 5.978-6.991 11.041-8.774 12.197s-3.411-0.463-4.001-1.687c-0.675-1.397-2.7-8.967-3.23-9.594-0.53-0.626-2.121 0.627-2.121 0.627l-0.772-1.012c0 0 3.231-3.858 5.689-4.34 2.606-0.511 2.603 4.002 3.229 6.508 0.606 2.424 1.014 3.811 1.543 3.811 0.53 0 1.543-1.352 2.652-3.424 1.111-2.074-0.048-3.907-2.218-2.603 0.868-5.208 9.064-6.46 8.004-0.483z"></path>
</svg>
